<svg width="201" height="67" xmlns="http://www.w3.org/2000/svg"><g fill="none"><path d="M184.476 0H15.97c-.615 0-1.221 0-1.834.003-.513.004-1.022.013-1.54.022A22.135 22.135 0 009.242.32a11.164 11.164 0 00-3.184 1.05 10.783 10.783 0 00-2.711 1.974c-.8.793-1.466 1.71-1.974 2.715A11.057 11.057 0 00.326 9.248a21.763 21.763 0 00-.3 3.354C.01 13.115.007 13.63 0 14.144v38.717c.008.52.01 1.024.025 1.544a21.9 21.9 0 00.3 3.353c.185 1.11.538 2.186 1.047 3.19a10.398 10.398 0 001.974 2.704 10.51 10.51 0 002.711 1.974c1.003.51 2.076.866 3.184 1.057 1.11.182 2.232.28 3.357.296.517.011 1.026.018 1.539.018.612.003 1.22.003 1.834.003h168.505c.602 0 1.213 0 1.815-.003a69.8 69.8 0 001.545-.018 22.242 22.242 0 003.35-.296 11.397 11.397 0 003.196-1.057 10.515 10.515 0 002.709-1.974 10.711 10.711 0 001.979-2.704c.506-1.005.855-2.08 1.037-3.19.187-1.108.29-2.23.31-3.353.007-.52.007-1.024.007-1.544.013-.609.013-1.214.013-1.832V15.973c0-.613 0-1.222-.013-1.829 0-.513 0-1.029-.006-1.542a22.624 22.624 0 00-.311-3.354 11.085 11.085 0 00-1.037-3.188 10.83 10.83 0 00-4.688-4.69 11.336 11.336 0 00-3.196-1.05 21.849 21.849 0 00-3.35-.296c-.51-.008-1.034-.018-1.545-.02C185.69 0 185.078 0 184.476 0z" fill="#A6A6A6"/><path d="M14.145 65.534c-.51 0-1.008-.006-1.515-.018a21.251 21.251 0 01-3.13-.273 9.855 9.855 0 01-2.775-.917 9.055 9.055 0 01-2.34-1.703 8.912 8.912 0 01-1.71-2.34 9.584 9.584 0 01-.91-2.775 20.793 20.793 0 01-.278-3.14c-.01-.354-.025-1.53-.025-1.53V14.144s.015-1.158.025-1.498a20.72 20.72 0 01.277-3.136 9.64 9.64 0 01.91-2.784 9 9 0 011.7-2.341 9.322 9.322 0 012.35-1.713 9.754 9.754 0 012.769-.911 21.081 21.081 0 013.142-.275l1.51-.02h172.138l1.53.02c1.043.013 2.083.104 3.112.273a9.947 9.947 0 012.8.918 9.37 9.37 0 014.044 4.053c.437.87.739 1.802.897 2.762a21.75 21.75 0 01.291 3.161c.005.475.005.984.005 1.491.013.628.013 1.226.013 1.829v35.056c0 .608 0 1.202-.013 1.8 0 .545 0 1.044-.007 1.558a21.325 21.325 0 01-.286 3.104 9.613 9.613 0 01-.904 2.798 9.18 9.18 0 01-1.702 2.32 9.067 9.067 0 01-2.344 1.713 9.818 9.818 0 01-2.794.921c-1.035.17-2.081.26-3.13.273-.491.012-1.005.018-1.504.018l-1.815.004-170.33-.004z" fill="#000"/><path d="M41.488 34.004a8.29 8.29 0 013.947-6.955 8.485 8.485 0 00-6.685-3.614c-2.813-.295-5.54 1.683-6.973 1.683-1.461 0-3.668-1.654-6.044-1.605a8.903 8.903 0 00-7.492 4.57c-3.24 5.608-.823 13.85 2.28 18.384 1.552 2.22 3.367 4.7 5.741 4.612 2.323-.096 3.191-1.482 5.995-1.482 2.779 0 3.593 1.482 6.015 1.426 2.493-.04 4.064-2.23 5.562-4.47a18.361 18.361 0 002.544-5.18 8.01 8.01 0 01-4.89-7.37zm-4.576-13.551a8.161 8.161 0 001.867-5.847 8.304 8.304 0 00-5.372 2.78 7.766 7.766 0 00-1.916 5.63 6.866 6.866 0 005.421-2.563zm33.944 25.006h-7.928l-1.904 5.622h-3.358l7.51-20.8h3.488l7.51 20.8H72.76l-1.903-5.622zm-7.107-2.594h6.285l-3.099-9.125h-.086l-3.1 9.125zm28.643.635c0 4.712-2.522 7.74-6.328 7.74a5.141 5.141 0 01-4.772-2.654h-.072v7.512h-3.113V35.916h3.014v2.522h.057a5.38 5.38 0 014.829-2.68c3.848 0 6.385 3.042 6.385 7.741zm-3.199 0c0-3.071-1.587-5.09-4.008-5.09-2.378 0-3.978 2.062-3.978 5.09 0 3.055 1.6 5.101 3.978 5.101 2.421 0 4.008-2.004 4.008-5.102zm19.891 0c0 4.712-2.523 7.74-6.33 7.74a5.141 5.141 0 01-4.77-2.654h-.073v7.512H94.8V35.916h3.013v2.522h.057a5.38 5.38 0 014.829-2.68c3.849 0 6.386 3.042 6.386 7.741zm-3.2 0c0-3.071-1.587-5.09-4.008-5.09-2.378 0-3.978 2.062-3.978 5.09 0 3.055 1.6 5.101 3.978 5.101 2.421 0 4.008-2.004 4.008-5.102zm14.231 1.786c.23 2.062 2.234 3.417 4.973 3.417 2.623 0 4.511-1.355 4.511-3.215 0-1.614-1.138-2.58-3.834-3.243l-2.696-.65c-3.82-.922-5.592-2.709-5.592-5.607 0-3.589 3.127-6.054 7.568-6.054 4.395 0 7.408 2.465 7.51 6.054h-3.142c-.189-2.076-1.904-3.329-4.412-3.329s-4.224 1.268-4.224 3.113c0 1.47 1.096 2.336 3.777 2.998l2.292.563c4.268 1.01 6.04 2.723 6.04 5.766 0 3.891-3.099 6.329-8.029 6.329-4.613 0-7.727-2.38-7.928-6.143h3.186zm19.49-12.959v3.589h2.884v2.465h-2.884v8.36c0 1.3.577 1.904 1.845 1.904a9.75 9.75 0 001.024-.072v2.45c-.57.107-1.15.155-1.729.145-3.07 0-4.268-1.154-4.268-4.095v-8.692h-2.205v-2.465h2.205v-3.589h3.128zm4.554 11.173c0-4.772 2.81-7.77 7.192-7.77 4.397 0 7.194 2.998 7.194 7.77 0 4.784-2.782 7.77-7.194 7.77-4.41 0-7.192-2.986-7.192-7.77zm11.215 0c0-3.274-1.5-5.206-4.023-5.206-2.522 0-4.02 1.947-4.02 5.205 0 3.286 1.498 5.204 4.02 5.204 2.523 0 4.023-1.918 4.023-5.204zm5.738-7.584h2.969v2.581h.072a3.617 3.617 0 013.647-2.74 4.8 4.8 0 011.067.116v2.912a4.352 4.352 0 00-1.399-.188 3.137 3.137 0 00-3.244 3.489v8.995h-3.112V35.916zm22.107 10.711c-.419 2.753-3.1 4.642-6.53 4.642-4.412 0-7.15-2.956-7.15-7.698 0-4.756 2.753-7.841 7.019-7.841 4.196 0 6.834 2.882 6.834 7.48v1.066h-10.71v.188a3.95 3.95 0 004.079 4.296 3.431 3.431 0 003.502-2.133h2.956zM172.696 42.1h7.582a3.647 3.647 0 00-3.72-3.85 3.84 3.84 0 00-3.862 3.85zM63.698 15.149c1.32-.09 2.611.382 3.52 1.285.91.902 1.34 2.14 1.174 3.374 0 2.995-1.722 4.717-4.694 4.717h-3.603V15.15h3.603zm-2.054 8.05h1.881a3.24 3.24 0 002.499-.95 2.833 2.833 0 00.791-2.422 2.842 2.842 0 00-.804-2.406 3.25 3.25 0 00-2.486-.947h-1.88v6.725zm8.498-2.215c-.129-1.268.518-2.496 1.67-3.168a3.76 3.76 0 013.76 0c1.153.672 1.8 1.9 1.67 3.168.132 1.27-.514 2.5-1.667 3.173a3.761 3.761 0 01-3.765 0c-1.153-.674-1.8-1.903-1.668-3.173zm5.572 0c0-1.534-.733-2.43-2.02-2.43-1.29 0-2.017.896-2.017 2.43 0 1.546.727 2.436 2.018 2.436 1.286 0 2.02-.896 2.02-2.436zm10.966 3.541h-1.54l-1.556-5.211h-.118l-1.55 5.211H80.39l-2.075-7.076h1.507l1.349 5.4h.11l1.548-5.4h1.426l1.547 5.4h.118l1.342-5.4h1.486zm3.813-7.076h1.43v1.124h.111c.386-.828 1.288-1.334 2.247-1.26a2.533 2.533 0 011.976.727c.506.512.738 1.212.63 1.904v4.581H95.4v-4.23c0-1.137-.526-1.703-1.625-1.703a1.785 1.785 0 00-1.337.509 1.564 1.564 0 00-.46 1.284v4.14h-1.486v-7.076zm8.761-2.762h1.485v9.838h-1.485zm3.551 6.297c-.13-1.268.518-2.496 1.67-3.168a3.761 3.761 0 013.76 0c1.153.672 1.8 1.9 1.67 3.168.132 1.27-.515 2.5-1.667 3.173a3.762 3.762 0 01-3.765 0c-1.153-.673-1.8-1.903-1.668-3.173zm5.572 0c0-1.534-.733-2.43-2.02-2.43-1.291 0-2.018.896-2.018 2.43 0 1.546.727 2.436 2.018 2.436 1.287 0 2.02-.896 2.02-2.436zm3.093 1.54c0-1.274 1.009-2.008 2.8-2.112l2.039-.11v-.612c0-.747-.526-1.17-1.541-1.17-.83 0-1.404.287-1.57.787h-1.438c.152-1.215 1.368-1.995 3.076-1.995 1.888 0 2.952.884 2.952 2.378v4.835h-1.43v-.994h-.118c-.485.726-1.35 1.15-2.26 1.11a2.37 2.37 0 01-1.755-.535 2.083 2.083 0 01-.755-1.582zm4.839-.605v-.591l-1.839.11c-1.036.065-1.506.397-1.506 1.02 0 .638.587 1.008 1.396 1.008.478.046.956-.093 1.323-.385.367-.291.593-.71.626-1.162zm3.431-.935c0-2.236 1.223-3.652 3.125-3.652.96-.042 1.86.442 2.309 1.241h.111v-3.886h1.486v9.838h-1.424v-1.118h-.118c-.482.793-1.393 1.268-2.364 1.235-1.915 0-3.124-1.417-3.124-3.658zm1.535 0c0 1.5.753 2.404 2.012 2.404 1.252 0 2.026-.916 2.026-2.398 0-1.475-.782-2.404-2.026-2.404-1.25 0-2.012.91-2.012 2.398zm11.643 0c-.13-1.268.517-2.496 1.67-3.168a3.76 3.76 0 013.76 0c1.152.672 1.799 1.9 1.67 3.168.131 1.27-.515 2.5-1.668 3.173a3.761 3.761 0 01-3.765 0c-1.153-.674-1.799-1.903-1.667-3.173zm5.572 0c0-1.534-.733-2.43-2.02-2.43-1.291 0-2.018.896-2.018 2.43 0 1.546.727 2.436 2.018 2.436 1.287 0 2.02-.896 2.02-2.436zm3.521-3.535h1.43v1.124h.111c.387-.828 1.289-1.334 2.247-1.26a2.533 2.533 0 011.976.727c.507.512.738 1.212.63 1.904v4.581h-1.486v-4.23c0-1.137-.526-1.703-1.625-1.703a1.785 1.785 0 00-1.337.509 1.564 1.564 0 00-.46 1.284v4.14h-1.486v-7.076zm14.789-1.762v1.794h1.63v1.177h-1.63v3.638c0 .741.324 1.066 1.064 1.066.19 0 .379-.012.567-.032v1.163a5.177 5.177 0 01-.809.071c-1.652 0-2.31-.546-2.31-1.91v-3.997h-1.195v-1.176h1.195v-1.794h1.488zm3.66-1h1.473v3.9h.117c.405-.836 1.323-1.343 2.295-1.268a2.563 2.563 0 011.957.745c.501.51.734 1.204.636 1.893v4.568h-1.487v-4.224c0-1.13-.56-1.703-1.61-1.703a1.824 1.824 0 00-1.391.483c-.366.346-.55.826-.504 1.311v4.133h-1.486v-9.838zm15.14 7.927c-.416 1.335-1.79 2.198-3.261 2.048a3.525 3.525 0 01-2.638-1.07 3.087 3.087 0 01-.84-2.583 3.134 3.134 0 01.838-2.593 3.574 3.574 0 012.633-1.104c2.095 0 3.359 1.346 3.359 3.568v.487h-5.316v.078a1.803 1.803 0 00.525 1.43c.382.386.92.603 1.48.597.727.082 1.434-.257 1.79-.858h1.43zm-5.225-2.28h3.802a1.648 1.648 0 00-.494-1.302 1.876 1.876 0 00-1.359-.531 1.99 1.99 0 00-1.386.53c-.367.345-.57.815-.563 1.303z" fill="#FFF"/></g></svg>