<svg width="40" height="40" fill="none" xmlns="http://www.w3.org/2000/svg"><rect width="40" height="40" rx="20" fill="#70BACE"/><path fill-rule="evenodd" clip-rule="evenodd" d="M27 24.294v-8.589A2.708 2.708 0 0024.294 13h-8.589A2.708 2.708 0 0013 15.705v8.589A2.708 2.708 0 0015.705 27h8.59a2.708 2.708 0 002.704-2.706zM22.464 20A2.468 2.468 0 0120 22.463 2.465 2.465 0 0117.536 20c0-.537.175-1.032.466-1.436a2.463 2.463 0 011.999-1.028c.822 0 1.55.407 1.997 1.028.29.405.466.9.466 1.436zm2.916-3.014v-2.374l-.309.001-2.064.007.008 2.373 2.365-.008zM20 23.828A3.834 3.834 0 0023.829 20c0-.507-.103-.993-.285-1.436h2.09v5.731c0 .74-.602 1.34-1.34 1.34h-8.59c-.74 0-1.34-.6-1.34-1.34v-5.731h2.089c-.18.443-.282.929-.282 1.436A3.833 3.833 0 0020 23.83z" fill="#C6D352"/><mask id="a" maskUnits="userSpaceOnUse" x="13" y="13" width="14" height="14"><path fill-rule="evenodd" clip-rule="evenodd" d="M27 24.294v-8.589A2.708 2.708 0 0024.294 13h-8.589A2.708 2.708 0 0013 15.705v8.589A2.708 2.708 0 0015.705 27h8.59a2.708 2.708 0 002.704-2.706zM22.464 20A2.468 2.468 0 0120 22.463 2.465 2.465 0 0117.536 20c0-.537.175-1.032.466-1.436a2.463 2.463 0 011.999-1.028c.822 0 1.55.407 1.997 1.028.29.405.466.9.466 1.436zm2.916-3.014v-2.374l-.309.001-2.064.007.008 2.373 2.365-.008zM20 23.828A3.834 3.834 0 0023.829 20c0-.507-.103-.993-.285-1.436h2.09v5.731c0 .74-.602 1.34-1.34 1.34h-8.59c-.74 0-1.34-.6-1.34-1.34v-5.731h2.089c-.18.443-.282.929-.282 1.436A3.833 3.833 0 0020 23.83z" fill="#fff"/></mask><g mask="url(#a)"><path fill="#fff" d="M8 8h24v24H8z"/></g></svg>