<svg width="40" height="40" fill="none" xmlns="http://www.w3.org/2000/svg"><rect width="40" height="40" rx="20" fill="#70BACE"/><path d="M23.253 20.006H21.29V27h-2.908v-6.994H17v-2.473h1.382v-1.598c0-1.146.544-2.935 2.935-2.935l2.155.008v2.4h-1.564c-.255 0-.617.127-.617.673v1.453h2.216l-.255 2.472z" fill="#C6D352"/><mask id="a" maskUnits="userSpaceOnUse" x="17" y="13" width="7" height="14"><path d="M23.253 20.006H21.29V27h-2.908v-6.994H17v-2.473h1.382v-1.598c0-1.146.544-2.935 2.935-2.935l2.155.008v2.4h-1.564c-.255 0-.617.127-.617.673v1.453h2.216l-.255 2.472z" fill="#fff"/></mask><g mask="url(#a)"><path fill="#fff" d="M8 8h24v24H8z"/></g></svg>