<svg width="17" height="20" fill="none" xmlns="http://www.w3.org/2000/svg"><path d="M16.545 6.25H.455a.545.545 0 01-.341-.117A.582.582 0 010 5.78V4.375c0-.52.177-.964.531-1.328a1.731 1.731 0 011.29-.547h1.822V.469a.43.43 0 01.114-.313A.466.466 0 014.098 0h1.518c.127 0 .228.052.304.156a.375.375 0 01.15.314V2.5h4.858V.469a.43.43 0 01.113-.313.466.466 0 01.342-.156h1.518c.126 0 .228.052.303.156a.375.375 0 01.152.313V2.5h1.822c.505 0 .936.182 1.29.547.354.364.531.807.531 1.328v1.406a.49.49 0 01-.152.352.404.404 0 01-.303.117zM.455 7.5h16.09c.126 0 .227.052.303.156A.375.375 0 0117 7.97v10.156c0 .52-.177.963-.531 1.328a1.732 1.732 0 01-1.29.547H1.82a1.73 1.73 0 01-1.29-.547A1.835 1.835 0 010 18.125V7.969a.43.43 0 01.114-.313.466.466 0 01.341-.156zm4.402 7.969c0-.13-.05-.235-.152-.313A.357.357 0 004.402 15H2.884a.466.466 0 00-.342.156.43.43 0 00-.113.313v1.562c0 .13.038.248.113.352a.545.545 0 00.342.117h1.518c.126 0 .227-.04.303-.117a.492.492 0 00.152-.352V15.47zm0-5c0-.13-.05-.235-.152-.313A.357.357 0 004.402 10H2.884a.466.466 0 00-.342.156.43.43 0 00-.113.313v1.562c0 .13.038.248.113.352a.545.545 0 00.342.117h1.518c.126 0 .227-.04.303-.117a.492.492 0 00.152-.352V10.47zm4.857 5c0-.13-.05-.235-.152-.313A.357.357 0 009.26 15H7.74a.466.466 0 00-.341.156.43.43 0 00-.114.313v1.562c0 .13.038.248.114.352a.545.545 0 00.341.117h1.52c.126 0 .228-.04.303-.117a.492.492 0 00.152-.352V15.47zm0-5c0-.13-.05-.235-.152-.313A.357.357 0 009.26 10H7.74a.466.466 0 00-.341.156.43.43 0 00-.114.313v1.562c0 .13.038.248.114.352a.545.545 0 00.341.117h1.52c.126 0 .228-.04.303-.117a.492.492 0 00.152-.352V10.47zm4.857 5c0-.13-.05-.235-.151-.313a.357.357 0 00-.304-.156h-1.518a.466.466 0 00-.341.156.43.43 0 00-.114.313v1.562c0 .13.038.248.114.352a.545.545 0 00.341.117h1.518c.127 0 .228-.04.304-.117a.492.492 0 00.151-.352V15.47zm0-5c0-.13-.05-.235-.151-.313a.357.357 0 00-.304-.156h-1.518a.466.466 0 00-.341.156.43.43 0 00-.114.313v1.562c0 .13.038.248.114.352a.545.545 0 00.341.117h1.518c.127 0 .228-.04.304-.117a.492.492 0 00.151-.352V10.47z" fill="#70BACE"/></svg>