<svg width="78" height="65" xmlns="http://www.w3.org/2000/svg"><path d="M4.54 36.424c6.463 7.482 17.596 8.567 25.357 2.614l-5.031 11.725 14.454 13.96 13.813-13.96-5.049-11.741c7.746 5.969 18.895 4.884 25.39-2.598 5.788-6.71 5.953-16.362.905-23.186a18.672 18.672 0 01-2.089 13.401c2.977-8.205-.164-17.167-7.153-21.805a18.478 18.478 0 012.253 14.817c.05-.494.066-1.003.066-1.513 0-8.864-6.183-16.28-14.471-18.138a18.505 18.505 0 017.498 14.915c0 8.748-6.051 16.099-14.191 18.055a22.6 22.6 0 01-1.135-.756l-.805-1.891c-.33-1.414-1.036-2.598-1.973-3.437-.954-.839-2.122-1.332-3.372-1.332-2.515 0-4.703 1.957-5.36 4.769l-.806 1.89c-.378.264-.757.527-1.135.757-8.14-1.973-14.191-9.307-14.191-18.055A18.505 18.505 0 0125.014 0c-8.288 1.858-14.471 9.274-14.471 18.138 0 .51.016 1.02.065 1.513a18.417 18.417 0 012.27-14.817 18.559 18.559 0 00-7.17 21.805A18.671 18.671 0 013.62 13.238c-5.049 6.824-4.884 16.476.92 23.186z" fill="#70BACE" fill-rule="evenodd"/></svg>