<svg width="269" height="221" xmlns="http://www.w3.org/2000/svg"><defs><linearGradient x1="49.999%" y1="72.433%" x2="49.999%" y2="27.567%" id="a"><stop stop-color="gray" stop-opacity=".25" offset="0%"/><stop stop-color="gray" stop-opacity=".12" offset="53.514%"/><stop stop-color="gray" stop-opacity=".1" offset="100%"/></linearGradient></defs><g transform="translate(0 1)" fill="none" fill-rule="evenodd"><path d="M171.959 22.15v166.536c0 4.132-3.378 7.48-7.543 7.48h-68.15c-4.165 0-7.542-3.348-7.542-7.48V22.15c0-1.985.794-3.888 2.209-5.292a7.573 7.573 0 015.333-2.191h10.198v1.3c.001 3.402 2.781 6.16 6.21 6.16h34.66c3.43 0 6.21-2.758 6.21-6.16v-1.3h10.872c2 0 3.92.788 5.334 2.191a7.453 7.453 0 012.209 5.292z" fill="#F2F2F2" fill-rule="nonzero"/><path d="M182.02 48.583h.474c.243 0 .441.277.441.618v21.681c0 .341-.198.618-.441.618h-.474M86.894 37.583H86.4a.432.432 0 01-.42-.443v-7.364c0-.244.188-.443.42-.443h.495m-.074 27.5h-.397a.445.445 0 01-.444-.446v-11.94a.447.447 0 01.444-.447h.47m0 31.167h-.44c-.262 0-.474-.189-.474-.421V62.754c0-.232.212-.42.475-.42h.44" stroke="#3F3D56"/><rect stroke="#3F3D56" x="87.809" y="4.583" width="94.212" height="192.5" rx="35.694"/><rect fill="#F2F2F2" fill-rule="nonzero" x="124.396" y="10.083" width="12.805" height="2.75" rx="1.375"/><ellipse fill="#F2F2F2" fill-rule="nonzero" cx="141.317" cy="12.375" rx="1.372" ry="1.375"/><rect stroke="#3F3D56" x="125.311" y="10.083" width="12.805" height="2.75" rx="1.375"/><ellipse stroke="#3F3D56" cx="142.232" cy="11.458" rx="1.372" ry="1.375"/><path d="M176.532 16.65v166.536c0 4.132-3.377 7.48-7.542 7.48h-68.15c-4.165 0-7.543-3.348-7.543-7.48V16.65c0-1.985.794-3.888 2.209-5.292a7.573 7.573 0 015.334-2.191h10.198v1.3c0 3.402 2.78 6.16 6.21 6.16h34.659c3.43 0 6.21-2.758 6.21-6.16v-1.3h10.873c2 0 3.919.788 5.333 2.191a7.453 7.453 0 012.21 5.292z" stroke="#3F3D56"/><path stroke="#3F3D56" d="M95.126 24.75h8.232v1h-8.232zm0 2.75h8.232v1h-8.232zm0 1.833h8.232v1h-8.232zm77.346-.793h-.208l-.078-.067c.26-.313.404-.71.404-1.118a1.693 1.693 0 00-1.697-1.688 1.694 1.694 0 00-1.678 1.707 1.693 1.693 0 001.694 1.692 1.739 1.739 0 001.107-.408l.079.065v.211l1.303 1.316.39-.395-1.316-1.316zm-1.563 0a1.176 1.176 0 01-1.089-.73 1.19 1.19 0 01.253-1.292 1.17 1.17 0 011.282-.258c.44.183.727.615.727 1.095.001.314-.122.616-.342.838-.22.222-.52.347-.831.346h0z"/><path d="M217.693 46.75c.296-5.767 4.977-10.288 10.65-10.288.324 0 .644.017.96.046 2.536-4.44 7.2-7.172 12.244-7.175 5.045-.002 9.711 2.726 12.25 7.163.268-.02.537-.034.809-.034 5.673 0 10.353 4.521 10.65 10.288" fill="#F2F2F2" fill-rule="nonzero"/><path d="M220.437 45.833c.296-5.766 4.977-10.288 10.65-10.288.324 0 .644.018.96.046 2.536-4.44 7.2-7.172 12.244-7.174 5.045-.003 9.711 2.725 12.25 7.163.268-.02.537-.035.809-.035 5.673 0 10.353 4.522 10.65 10.288" stroke="#3F3D56"/><path d="M189.338 107.25c.296-5.767 4.977-10.288 10.65-10.288.324 0 .644.017.96.046 2.536-4.44 7.2-7.172 12.244-7.175 5.045-.002 9.711 2.726 12.25 7.163.268-.02.537-.034.81-.034 5.672 0 10.353 4.521 10.649 10.288" fill="#F2F2F2" fill-rule="nonzero"/><path d="M191.167 105.417c.297-5.767 4.977-10.288 10.65-10.288.324 0 .644.017.961.046 2.535-4.44 7.199-7.173 12.244-7.175 5.045-.002 9.71 2.726 12.25 7.163a10.8 10.8 0 01.808-.034c5.674 0 10.354 4.52 10.65 10.288" stroke="#3F3D56"/><path d="M10.976 18.333c.297-5.766 4.977-10.288 10.65-10.288.324 0 .644.018.961.046C25.122 3.651 29.786.92 34.831.917c5.045-.003 9.71 2.725 12.25 7.163.267-.02.536-.035.808-.035 5.674 0 10.354 4.522 10.65 10.288" fill="#F2F2F2" fill-rule="nonzero"/><path d="M13.72 17.417c.297-5.767 4.977-10.288 10.65-10.288.324 0 .644.017.961.046C27.866 2.735 32.53.002 37.575 0c5.045-.002 9.71 2.726 12.25 7.163a10.8 10.8 0 01.808-.034c5.674 0 10.354 4.52 10.65 10.288" stroke="#3F3D56"/><rect fill="#6C63FF" fill-rule="nonzero" x="95.126" y="53.167" width="64.942" height="35.75" rx="12.547"/><rect stroke="#3F3D56" x="99.7" y="46.75" width="64.942" height="35.75" rx="12.547"/><path d="M122.04 71.786l5.538 5.755c.244.248.579.384.926.375h.016c.347.01.682-.127.926-.375l5.539-5.755a1.237 1.237 0 000-1.8 1.359 1.359 0 00-1.869 0l-3.281 3.458v-8.919a1.329 1.329 0 00-1.323-1.275 1.33 1.33 0 00-1.323 1.275v8.92l-3.281-3.46a1.359 1.359 0 00-1.869 0 1.237 1.237 0 000 1.8z" fill="#FFF" fill-rule="nonzero"/><rect fill="#6C63FF" fill-rule="nonzero" transform="rotate(-180 135.83 133.375)" x="103.358" y="115.5" width="64.942" height="35.75" rx="12.547"/><rect stroke="#3F3D56" transform="rotate(-180 132.17 126.958)" x="99.7" y="109.083" width="64.942" height="35.75" rx="12.547"/><path d="M142.302 134.119a1.237 1.237 0 000-1.8 1.359 1.359 0 00-1.868 0l-3.282 3.459v-8.92a1.329 1.329 0 00-1.323-1.275c-.708 0-1.29.562-1.322 1.276v8.919l-3.282-3.46a1.359 1.359 0 00-1.868 0 1.237 1.237 0 000 1.8l5.538 5.756c.244.249.58.384.926.376h.017c.346.008.681-.127.925-.376l5.539-5.755z" fill="#FFF" fill-rule="nonzero"/><path d="M59.616 209.831s-.12.067-.324.171l.324-.17z" fill="url(#a)" fill-rule="nonzero"/><path d="M27.587 180.573c-2.022 5.932.337 15.562 1.433 19.86 1.094 4.3 1.431 9.458 1.431 9.458 4.297.688 7.414-.172 7.414-.172l-1.77-8.855c1.264-5.245 0-19.26 0-19.26s2.864-5.416 3.117-13.67c.249-8.124 2.211-10.75 2.273-10.831l.001-.002c4.044 2.15 9.183 25.192 9.183 25.192-.42 5.588.085 14.186 1.769 18.829a23.755 23.755 0 011.264 9.199c.588.508 1.407.594 2.292.449 2.406-.398 5.29-2.513 5.29-2.513s-.927-25.105-1.602-26.05c-.673-.946 0-6.362 0-6.362l-1.094-8.77s.168-14.874-1.433-17.454c-1.381-2.227-1.7-6.14-1.761-7.169-.01-.162-.013-.253-.013-.253l-2.438-2.98s-23.587-1.805-25.356 0c-.435.444-.703 1.451-.862 2.72-.487 3.9.07 10.262.07 10.262s.708 4.729 1.72 9.543c.607 2.89.607 5.88 0 8.77a26.756 26.756 0 01-.928 10.059z" fill="#575A89" fill-rule="nonzero"/><path d="M28.812 218.236c1.03 1.355 7.083.78 8.114.357.629-.259.582-1.438.411-2.654-.107-.773-.265-1.561-.33-2.136-.164-1.478.495-4.475.495-4.475s-1.36 1.437-1.688 0c-.144-.628-.651-.95-1.176-1.114a3.087 3.087 0 00-2.138.134c-1.07.462-2.856 1.448-2.535 2.783.453 1.885-1.153 4.56-1.153 4.56a2.05 2.05 0 00-.3.516 1.967 1.967 0 00.3 2.029z" fill="#CBCEDA" fill-rule="nonzero"/><path d="M28.815 218.342c1.035 1.185 7.125.682 8.162.313.632-.227.585-1.259.413-2.322-.653.266-1.766.486-3.62.337a12.016 12.016 0 00-1.302-.034c-1.319.051-2.64.028-3.955-.069-.29.594-.174 1.279.302 1.775zm21.609-35.85c-.425 5.55.085 14.087 1.784 18.698a23.248 23.248 0 011.275 9.134c.594.505 1.42.59 2.312.446-.512-3.601-2.697-19.116-4.097-31.373-1.593-13.959-9.05-23.564-9.05-23.564l-1.488 1.643c4.08 2.135 9.264 25.016 9.264 25.016z" fill="#000" fill-rule="nonzero" opacity=".1"/><path d="M31.099 92.696l1.041 5.098 5.099 8.54 6.29-2.677s8.548-8.922 3.176-10.196a4.736 4.736 0 01-1.785-.792c-1.054-.792-1.386-1.945-1.392-3.073a9.387 9.387 0 01.874-3.655l-11-3.441c.454 1.44.719 2.933.789 4.44.084 2.985-1.029 4.456-1.942 5.157-.34.274-.73.477-1.15.6z" fill="#FBBEBE" fill-rule="nonzero"/><path d="M32.928 82.5c.453 1.58.718 3.217.788 4.872.2.26.413.509.638.743 2.309 2.416 5.642 3.25 8.679 2.17a11.15 11.15 0 01.871-4.01L32.928 82.5z" fill="#000" fill-rule="nonzero" opacity=".1"/><path d="M32.014 81.125c0 4.81 3.89 8.708 8.69 8.708 4.798 0 8.688-3.898 8.688-8.708 0-4.81-3.89-8.708-8.689-8.708a8.648 8.648 0 00-6.154 2.54 8.686 8.686 0 00-2.535 6.168z" fill="#FBBEBE" fill-rule="nonzero"/><path d="M31.099 93.162l1.041 4.924 5.099 8.247 6.29-2.585s8.548-8.617 3.176-9.848a4.82 4.82 0 01-1.785-.764c.971 2.565-3.034 7.904-3.034 7.904-.466.66-1.535.246-1.535.246-2.579-.375-7.328-7.515-8.102-8.703-.34.264-.73.461-1.15.579zM25.61 143.27c1.527.297 9.977 1.9 13.18 1.5 3.526-.443 10.382-.737 10.382-.737s4.366.202 5.709-.324c-.01-.14-.013-.216-.013-.216l-2.489-2.555s-24.082-1.548-25.888 0c-.444.38-.718 1.243-.88 2.331z" fill="#000" fill-rule="nonzero" opacity=".1"/><path d="M41.689 101.645s4.58-6.302 2.855-8.756l7.738 3.152s4.657-.56 6.338 6.342c.27 1.147.366 2.327.288 3.503-.061 1.04.081 2.873 1.275 5.244 1.91 3.794 1.476 12.503-2.431 13.365-3.907.863-5.297.431-5.297.431s.521 15.78 2.779 17.59c2.257 1.811-5.756 1.38-5.756 1.38s-6.92.345-10.48.862c-3.56.518-13.546-1.81-13.546-1.81s1.476-6.64 1.997-10.865c.521-4.225 1.737-13.222 1.737-13.222l-8.856-11.913s-1.563-7.2 3.907-10.39c5.47-3.19 7.528-3.975 7.528-3.975s5.496 8.89 8.36 9.321c0 0 1.09.434 1.564-.259z" fill="#3F3D56" fill-rule="nonzero"/><path d="M51.807 103.583s.073 2.771-.366 3.863-2.049 7.137-2.049 7.137h3.66s-1.977-2.435-1.83-3.61c.146-1.176.585-7.39.585-7.39z" fill="#000" fill-rule="nonzero" opacity=".1"/><path d="M39.546 124.667s9.357-2.296 10.23-4.251c.871-1.956 3.275-6.331 3.275-6.331l-.987-1.335-4.552 3.585s-5.423 4.336-7.966 4.761c-2.542.425 0 3.57 0 3.57z" fill="#FBBEBE" fill-rule="nonzero"/><path d="M39.546 124.667s9.357-2.296 10.23-4.251c.871-1.956 3.275-6.331 3.275-6.331l-.987-1.335-4.552 3.585s-5.423 4.336-7.966 4.761c-2.542.425 0 3.57 0 3.57z" fill="#000" fill-rule="nonzero" opacity=".05"/><path d="M31.099 114.62v5.073h.839c4.144 0 8.22 1.025 11.845 2.98l1.572.848.423.229 2.7-5.913-2.526-2.201s-.046.005-.13.011c-.617.059-3.29.276-4.422-.096-1.076-.355-2.413-1.481-5.581-.694-1.56.387-2.893 2.088-4.408 1.557l-.312-1.794z" fill="#FBBEBE" fill-rule="nonzero"/><path d="M22.73 103.913l-1.692 1.928v4.67s1.438 14.737 6.009 16.365c4.57 1.628 12.73-.942 12.73-.942s2.107-5.655 1.12-5.998c-.985-.343-8.712-2.409-8.712-2.409s.11-8.644-1.583-11.214c0 0 1.1-8.055-2.709-8.226-3.808-.171-5.163 5.826-5.163 5.826z" fill="#000" fill-rule="nonzero" opacity=".1"/><path d="M22.73 103.913l-1.692 1.928v4.67s1.438 14.737 6.009 16.365c4.57 1.628 12.73-.942 12.73-.942s2.107-5.655 1.12-5.998c-.985-.343-8.712-2.409-8.712-2.409s.11-8.644-1.583-11.214c0 0 1.1-8.055-2.709-8.226-3.808-.171-5.163 5.826-5.163 5.826z" fill="#3F3D56" fill-rule="nonzero"/><path d="M34.527 84.547a3.112 3.112 0 01.205-1.625c.253-.498.846-.89 1.425-.764.769.166 1.1 1.096 1.854 1.319.635.188 1.329-.23 1.632-.782.303-.551.311-1.197.312-1.815l.006-2.092c.001-.759.025-1.579.53-2.175.626-.742 2.098-1.066 3.08-1.036a2.715 2.715 0 011.759.658c.527.416 1.134.721 1.851.613.61-.086 1.111-.49 1.29-1.037a.188.188 0 00.007-.026c-2.084-2.552-5.534-3.801-8.927-3.233-3.394.569-6.156 2.859-7.15 5.926-.992 3.068-.047 6.393 2.447 8.605a21.44 21.44 0 01-.32-2.536z" fill="#000" fill-rule="nonzero" opacity=".1"/><path d="M46.896 77.491a1.504 1.504 0 001.201-1.068c.07-.278.052-.574.131-.85.196-.675.897-1.027 1.367-1.54.943-1.028.881-2.72.214-3.955-.538-.997-1.583-1.839-2.675-1.644-.676.12-1.262.617-1.947.661-.66.043-1.263-.337-1.864-.619a6.852 6.852 0 00-4.623-.422 2.637 2.637 0 00-1.272.66c-.243.314-.47.642-.679.98-.78 1.023-2.175 1.222-3.418 1.454-1.243.232-2.65.736-3.058 1.966-.27.815-.008 1.7.147 2.546.052.174.04.36-.033.526-.194.33-.679.192-1.046.271-.705.152-.886 1.086-.912 1.827-.03.848-.052 1.695-.067 2.543-.02.317.004.635.073.944.153.442.396.845.711 1.184l2.761 3.412c1.225 1.512 2.525 3.275 2.278 5.227.58.268 1.27-.247 1.46-.871.19-.625.037-1.297-.092-1.938a24.458 24.458 0 01-.437-3.359 3.513 3.513 0 01.192-1.674c.235-.514.788-.918 1.326-.789.716.172 1.024 1.13 1.725 1.36.591.194 1.238-.238 1.52-.806.281-.568.289-1.233.29-1.87l.005-2.157c.002-.78.025-1.626.493-2.24.584-.766 1.954-1.1 2.869-1.07.609.008 1.193.25 1.636.68.49.428 1.056.743 1.724.631z" fill="#3F3D56" fill-rule="nonzero"/><path d="M43.904 103.583l-2.339 11s-1.844-.012 2.34-11zm-8.232-1.833s2.613 5.835 1.594 11.868l-.487.049s.869-2.793-1.107-11.917zm-2.744 32.34s-4.263-1.195-4.573 1.577c0 0 .805-1.9 4.573-1.578zM45.52 115.5s.875 5.812-.7 8.137c0 0 3.206 1.246 7.706.997l.525-9.134H45.52z" fill="#000" fill-rule="nonzero" opacity=".1"/><path d="M45.734 122.6l.372.233 2.372-6.012-2.22-2.238h-.114v.012c.035.278.654 5.454-.41 8.006z" fill="#000" fill-rule="nonzero" opacity=".1"/><path d="M44.618 114.583s.893 5.813-.714 8.138c0 0 3.268 1.245 7.853.996l3.124-9.134H44.618z" fill="#3F3D56" fill-rule="nonzero"/><path d="M52.149 217.014a1.913 1.913 0 001.647 1.67c2.303.343 7.851-.673 9.253-.01 1.78.843 8.82.253 9.16-.59.097-.34.053-.705-.122-1.014a2.699 2.699 0 00-1.137-1.215 2.827 2.827 0 00-.51-.225c-1.326-.44-3.832-1.374-4.507-2.352 0 0-3.122-2.715-4.013-4.183a2.039 2.039 0 00-1.63-1.01c-.743-.033-1.571.339-1.91 1.957 0 0-4.068 2.308-5.17.285 0 0-.17 4.996-.845 5.846l-.004.005c-.18.24-.256.54-.212.836z" fill="#CBCEDA" fill-rule="nonzero"/><path d="M52.149 217.321c.101.737.779 1.322 1.647 1.423 2.303.291 7.851-.574 9.253-.01 1.78.719 8.82.216 9.16-.502a.982.982 0 00-.122-.863c-.24-.438-.639-.8-1.137-1.036-1.148.645-3.696 1.276-9.301.535-5.346-.707-7.993.208-9.284-.263l-.004.004a.849.849 0 00-.212.712zM29.79 74.697l-.007-.042c-.122-.647-.307-1.317-.266-1.96.056.528.144 1.054.266 1.572.036.14.038.288.007.43zm5.026 8.083a2.53 2.53 0 00-.211.987 2.98 2.98 0 01.211-1.375c.242-.516.812-.922 1.366-.793.737.173 1.055 1.135 1.777 1.366.608.195 1.274-.239 1.564-.81.29-.57.298-1.237.3-1.878l.005-2.165c.002-.784.025-1.633.508-2.25.6-.768 2.012-1.103 2.954-1.073a2.502 2.502 0 011.685.682c.505.43 1.087.746 1.775.634a1.536 1.536 0 001.237-1.073c.072-.279.053-.576.135-.852.201-.679.924-1.033 1.408-1.548.452-.501.71-1.15.726-1.825a2.95 2.95 0 01-.726 2.214c-.484.515-1.207.869-1.408 1.547-.082.276-.063.574-.135.853a1.536 1.536 0 01-1.237 1.073c-.688.112-1.27-.204-1.775-.634a2.498 2.498 0 00-1.685-.682c-.942-.03-2.354.305-2.954 1.073-.483.617-.506 1.466-.508 2.25l-.005 2.165c-.002.64-.01 1.308-.3 1.878-.29.571-.956 1.004-1.564.81-.722-.23-1.04-1.193-1.777-1.366-.554-.13-1.124.276-1.366.792zm-7.078-2.377c.158.443.408.848.732 1.188l2.844 3.426c1.198 1.442 2.464 3.111 2.372 4.954-.087-1.69-1.26-3.225-2.372-4.565L28.47 81.98a3.35 3.35 0 01-.732-1.189c-.07-.31-.096-.63-.075-.947.002.188.028.376.075.559zm7.426 8.988c.046-.15.074-.305.085-.462a2.32 2.32 0 01-.085.85c-.196.627-.906 1.145-1.504.876a3.77 3.77 0 00.03-.378c.591.24 1.281-.27 1.474-.886zm27.949 120.526s-.791 1.902-3.66.225m-23.781-.225s-2.833 3.272-6.402 1.073m-.915-39.573s1.77 1.047 1.827 1.646c.057.6-.914-.436-.914-.436l-.913-1.21zm-.915 9.166a3.27 3.27 0 001.884.705c1.142.048 1.047 1.477.3 1.049-.747-.43-2.184-1.754-2.184-1.754zm-.914 1.834s1.01 4.408 1.829 3.557" fill="#000" fill-rule="nonzero" opacity=".1"/><path d="M3.614 176.585a5.48 5.48 0 006.12-1.684 5.51 5.51 0 00.44-6.347 5.482 5.482 0 00-5.829-2.516l.137 2.83-1.336-2.425A5.474 5.474 0 00.33 169.54a5.499 5.499 0 003.285 7.045z" fill="#57B894" fill-rule="nonzero"/><path d="M11.113 210.833c-.48-2.516 1.6-4.747 3.654-6.198 2.054-1.45 4.455-2.875 5.156-5.336 1.007-3.537-1.994-6.776-4.329-9.57a34.696 34.696 0 01-4.433-6.784c-.485-.975-.932-1.995-1.06-3.084-.184-1.568.305-3.128.798-4.624a340.838 340.838 0 015.265-14.82" stroke="#3F3D56"/><path d="M4.529 176.585a5.48 5.48 0 006.12-1.684 5.51 5.51 0 00.44-6.347 5.482 5.482 0 00-5.83-2.516l.138 2.83-1.336-2.425a5.474 5.474 0 00-2.817 3.097 5.499 5.499 0 003.285 7.045h0z" stroke="#3F3D56"/><path d="M10.39 160.374a5.486 5.486 0 013.951-3.489l.452 2.692.838-2.827a5.49 5.49 0 015.17 3.903 5.507 5.507 0 01-2.135 6.124 5.478 5.478 0 01-6.47-.174 5.508 5.508 0 01-1.805-6.23z" fill="#57B894" fill-rule="nonzero"/><path d="M10.39 159.457a5.486 5.486 0 013.951-3.488l.452 2.691.838-2.827a5.49 5.49 0 015.17 3.903 5.507 5.507 0 01-2.135 6.124 5.478 5.478 0 01-6.47-.173 5.508 5.508 0 01-1.805-6.23h0z" stroke="#3F3D56"/><path d="M13.68 190.336a5.481 5.481 0 006.783-2.72 5.506 5.506 0 00-1.927-7.062l-.644 2.171-.456-2.722a5.477 5.477 0 00-5.418.954 5.506 5.506 0 001.662 9.38z" fill="#57B894" fill-rule="nonzero"/><path d="M14.595 188.503a5.481 5.481 0 006.782-2.72 5.506 5.506 0 00-1.927-7.063l-.643 2.172-.456-2.723a5.477 5.477 0 00-5.418.954 5.506 5.506 0 001.662 9.38h0z" stroke="#3F3D56"/><path d="M8.316 198.952a5.491 5.491 0 005.22 4.545 5.489 5.489 0 005.513-4.183 5.504 5.504 0 00-2.947-6.269 5.479 5.479 0 00-6.728 1.598l2.446 3.69-3.342-1.958a5.463 5.463 0 00-.162 2.577z" fill="#57B894" fill-rule="nonzero"/><path d="M9.231 198.035a5.491 5.491 0 005.22 4.545 5.489 5.489 0 005.512-4.182 5.504 5.504 0 00-2.946-6.27 5.479 5.479 0 00-6.728 1.599l2.446 3.69-3.342-1.959a5.463 5.463 0 00-.162 2.577z" stroke="#3F3D56"/><path d="M1.83 214.521s5.161-2.002 6.717-3.098 7.94-2.405 8.327-.647c.386 1.758 7.757 8.744 1.93 8.79-5.829.047-13.542.946-15.095.01-1.553-.936-1.88-5.055-1.88-5.055z" fill="#656380" fill-rule="nonzero"/><path d="M18.909 219.126c-5.829.039-13.543.79-15.096.009-1.182-.596-1.654-2.733-1.811-3.718l-.173.005s.327 3.442 1.88 4.224 9.267.03 15.096-.009c1.682-.01 2.263-.506 2.231-1.239-.233.443-.875.72-2.127.728z" fill="#000" fill-rule="nonzero" opacity=".2"/><path d="M13.72 219.083h74.09" stroke="#3F3D56"/></g></svg>