<svg width="51" height="51" xmlns="http://www.w3.org/2000/svg"><path d="M50.024 44.058h-171.086a.946.946 0 01-.707-1.564l15.242-17.132-15.242-17.131a.946.946 0 01.707-1.564H49.987a.946.946 0 01.707 1.564L35.452 25.362l15.112 16.982a.935.935 0 01.409.764c-.018.521-.428.95-.949.95zm-169.02-1.862H47.903l-14.423-16.2a.913.913 0 010-1.23l14.423-16.2h-166.899l14.423 16.2a.914.914 0 010 1.23l-14.423 16.2zM24.491 1.862H-95.584a.922.922 0 01-.93-.93c0-.522.409-.932.93-.932H24.49c.521 0 .931.41.931.931 0 .503-.41.931-.931.931zm0 48.862H-95.584a.922.922 0 01-.93-.931.92.92 0 01.93-.931H24.49c.521 0 .931.41.931.93 0 .522-.41.932-.931.932z" fill="#7F7F7F"/></svg>