<svg width="51" height="51" xmlns="http://www.w3.org/2000/svg"><path d="M111.024 44.058H-60.062a.946.946 0 01-.707-1.564l15.242-17.132L-60.77 8.231a.946.946 0 01.707-1.564h171.049a.946.946 0 01.707 1.564L96.452 25.362l15.112 16.982a.935.935 0 01.409.764c-.018.521-.428.95-.949.95zm-169.02-1.862h166.899l-14.423-16.2a.913.913 0 010-1.23l14.423-16.2H-57.996l14.423 16.2a.914.914 0 010 1.23l-14.423 16.2zM85.491 1.862H-34.584a.922.922 0 01-.93-.93c0-.522.409-.932.93-.932H85.49c.521 0 .931.41.931.931 0 .503-.41.931-.931.931zm0 48.862H-34.584a.922.922 0 01-.93-.931.92.92 0 01.93-.931H85.49c.521 0 .931.41.931.93 0 .522-.41.932-.931.932z" fill="#7F7F7F"/></svg>