<svg width="270" height="239" xmlns="http://www.w3.org/2000/svg"><g fill="none" fill-rule="evenodd"><path d="M120.852 92.457c-10.543-3.411-21.69-6.271-33.083-5.976-16.749.434-32.852 8.238-40.795 19.77-6.713 9.773-7.61 21.26-10.54 32.127-3.61 13.388-10.464 26.094-17.78 38.52-3.928 6.674-8.073 13.488-8.756 20.821-.937 10.182 5.234 20.36 14.962 27.183 9.73 6.823 22.675 10.459 35.681 11.308 6.921.45 14.154.102 20.316-2.39 6.518-2.626 11.285-7.432 17.829-10.03 6.065-2.404 13.135-2.714 19.939-2.36a110.92 110.92 0 0125.996 4.453c9.483 2.836 18.296 6.919 27.759 9.796 9.463 2.877 20.041 4.506 29.738 2.192 9.104-2.171 16.325-7.523 22.837-12.945a248.272 248.272 0 0029.175-28.599c5.881-6.825 11.36-14.033 13.987-22.009 5.018-15.25-1.704-32.517-16.746-43.02-12.46-8.705-29.224-12.548-45.64-14.883-14.97-2.15-32.292-2.363-46.052-7.84-13.123-5.239-25.061-11.665-38.827-16.118z" fill="#6C63FF" fill-rule="nonzero" opacity=".1"/><ellipse fill="#6C63FF" fill-rule="nonzero" opacity=".1" cx="255.245" cy="143.502" rx="6.746" ry="1"/><ellipse fill="#6C63FF" fill-rule="nonzero" opacity=".1" cx="229.404" cy="146.123" rx="6.746" ry="1"/><ellipse fill="#6C63FF" fill-rule="nonzero" opacity=".1" cx="198.965" cy="142.577" rx="6.746" ry="1"/><ellipse fill="#6C63FF" fill-rule="nonzero" opacity=".1" cx="239.745" cy="153.582" rx="4.796" ry="1"/><ellipse fill="#6C63FF" fill-rule="nonzero" opacity=".1" cx="212.926" cy="152.922" rx="4.796" ry="1"/><path d="M229.258 145.913s9.463-31.01-1.48-43.429c-8.173-9.292-17.479-8.17-21.638-7.03a7.682 7.682 0 00-4.962 4.123c-1.46 3.138-1.191 8.23 9.078 14.174 17.195 9.954 18.266 23.608 18.266 23.608l.736 8.554z" fill="#6C63FF" fill-rule="nonzero"/><path d="M207.62 99.852s27.893 8.72 21.638 46.06m-5.351-42.935s-3.84 2.589-2.627 6.476m-10.861-4.173s2.335-2.387 5.204-1.071m5.821 13.079s4.121-2.09 5.187.528m5.014 3.832s-3.097-.245-3.152 1.234" stroke="#565987"/><path d="M229.64 146.16s-11.092-22.537-14.125-22.043c-1.459.233-2.113 1.657-2.413 3.084a9.068 9.068 0 00.604 5.486c1.573 3.607 5.797 10.456 15.934 13.474z" fill="#6C63FF" fill-rule="nonzero"/><path d="M215.597 128.395s11.632 16.861 13.88 17.602m-14.948-14.97h2.714m.537 6.169l4.256.18m-1.666-5.115l-.462 2.215m4.986 4.529l-.082 2.014" stroke="#565987"/><path d="M229.313 146.16s11.092-22.537 14.125-22.043c1.46.233 2.113 1.657 2.414 3.084a9.068 9.068 0 01-.604 5.486c-1.574 3.607-5.797 10.456-15.935 13.474z" fill="#6C63FF" fill-rule="nonzero"/><path d="M243.356 128.395s-11.632 16.861-13.88 17.602m14.948-14.97h-2.714m-.537 6.169l-4.256.18m1.667-5.115l.46 2.215m-4.988 4.529l.085 2.014" stroke="#565987"/><path d="M210.285 151.425a1.939 1.939 0 01-.63-.951.85.85 0 01.44-.972c.406-.155.838.125 1.168.411.33.286.703.604 1.132.546a1.724 1.724 0 01-.531-1.614.677.677 0 01.146-.33c.225-.239.633-.134.902.053.855.604 1.094 1.766 1.1 2.81a5.42 5.42 0 000-1.167 1.188 1.188 0 01.435-1.024 1.29 1.29 0 01.663-.158c.386-.055.777.057 1.077.307.324.35.24.936-.044 1.322a4.197 4.197 0 01-1.112.875 2.46 2.46 0 00-.797.759.93.93 0 00-.058.134h-2.411a6.65 6.65 0 01-1.48-1.001zm42.228-9.078a1.911 1.911 0 01-.63-.952.846.846 0 01.44-.969c.406-.154.838.126 1.168.409.33.283.706.607 1.135.546a1.719 1.719 0 01-.534-1.614.645.645 0 01.149-.327c.225-.24.63-.137.899.053.855.6 1.094 1.75 1.1 2.81.043-.388.043-.78 0-1.168a1.188 1.188 0 01.435-1.024 1.33 1.33 0 01.663-.154c.384-.06.776.045 1.077.291.327.348.242.934-.044 1.32a4.15 4.15 0 01-1.112.892c-.32.19-.592.449-.797.76a.715.715 0 00-.058.133h-2.411a6.728 6.728 0 01-1.48-1.006zm-14.075 9.078a1.939 1.939 0 01-.63-.951.85.85 0 01.44-.972c.406-.155.838.125 1.168.411.33.286.703.604 1.132.546a1.727 1.727 0 01-.534-1.614.709.709 0 01.149-.33c.225-.239.633-.134.902.053.855.604 1.094 1.766 1.1 2.81a5.42 5.42 0 00.015-1.167 1.188 1.188 0 01.435-1.024c.202-.111.431-.166.662-.158.387-.055.778.057 1.077.307.324.35.24.936-.043 1.322a4.197 4.197 0 01-1.113.875c-.32.19-.592.449-.796.759a.93.93 0 00-.059.134h-2.41a6.65 6.65 0 01-1.495-1.001zm-39.911-18.35s-.905 1.182.418 2.965c1.322 1.783 2.408 3.292 1.97 4.404 0 0-1.994-3.312-3.617-3.359-1.622-.047-.557-2.016 1.23-4.01z" fill="#6C63FF" fill-rule="nonzero"/><path d="M198.527 133.075c-.08.114-.143.24-.186.371-1.583 1.859-2.426 3.595-.905 3.639 1.418.04 3.12 2.574 3.526 3.21 0 .05-.03.1-.047.146 0 0-1.994-3.312-3.617-3.359-1.622-.047-.557-2.013 1.23-4.007z" fill="#000" fill-rule="nonzero" opacity=".1"/><path d="M196.846 134.581c0 .418.047.753.105.753.059 0 .102-.335.102-.753 0-.417-.058-.219-.114-.219-.055 0-.093-.195-.093.22z" fill="#FFD037" fill-rule="nonzero"/><path d="M196.268 135.077c.365.202.686.321.712.272.027-.05-.245-.254-.61-.453-.365-.198-.222-.055-.25 0-.03.056-.217-.017.148.181z" fill="#FFD037" fill-rule="nonzero"/><path d="M203.3 133.075s.905 1.182-.418 2.965c-1.322 1.783-2.408 3.292-1.967 4.404 0 0 1.99-3.312 3.614-3.359 1.623-.047.557-2.016-1.23-4.01z" fill="#6C63FF" fill-rule="nonzero"/><path d="M203.3 133.075c.08.114.143.24.187.371 1.582 1.859 2.425 3.595.904 3.639-1.418.04-3.12 2.574-3.526 3.21.014.05.03.098.05.146 0 0 1.99-3.312 3.614-3.359 1.623-.047.557-2.013-1.23-4.007z" fill="#000" fill-rule="nonzero" opacity=".1"/><path d="M204.981 134.581c0 .418-.047.753-.105.753-.058 0-.102-.335-.102-.753 0-.417.058-.219.114-.219.055 0 .093-.195.093.22z" fill="#FFD037" fill-rule="nonzero"/><path d="M205.559 135.077c-.365.202-.686.321-.712.272-.026-.05.245-.254.61-.453.365-.198.222-.055.25 0 .03.056.217-.017-.148.181z" fill="#FFD037" fill-rule="nonzero"/><path d="M204.692 140.29s-2.525-.077-3.287-.62c-.761-.542-3.888-1.19-4.086-.32-.199.87-3.795 4.324-.946 4.348 2.85.023 6.632-.444 7.39-.908.76-.464.93-2.5.93-2.5z" fill="#A8A8A8" fill-rule="nonzero"/><path d="M196.332 143.394c2.852.024 6.63-.443 7.391-.907.584-.35.809-1.617.876-2.2h.081s-.157 2.042-.919 2.5c-.762.458-4.536.931-7.39.908-.824 0-1.107-.292-1.092-.733.125.266.44.43 1.053.432z" fill="#000" fill-rule="nonzero" opacity=".2"/><ellipse fill="#6C63FF" fill-rule="nonzero" opacity=".1" cx="37.651" cy="17.661" rx="6.314" ry="6.312"/><ellipse fill="#6C63FF" fill-rule="nonzero" opacity=".1" cx="146.851" cy="7.698" rx="6.314" ry="6.312"/><ellipse fill="#6C63FF" fill-rule="nonzero" opacity=".1" cx="247.014" cy="32.634" rx="6.314" ry="6.312"/><ellipse fill="#6C63FF" fill-rule="nonzero" opacity=".1" cx="10.581" cy="75.537" rx="10.581" ry="10.578"/><ellipse fill="#6C63FF" fill-rule="nonzero" opacity=".1" cx="20.724" cy="127.773" rx="10.581" ry="10.578"/><ellipse fill="#6C63FF" fill-rule="nonzero" opacity=".1" cx="218.896" cy="81.698" rx="10.581" ry="10.578"/><path d="M131.398 101.506c-.374.035-.753.018-1.124.076a5.118 5.118 0 00-1.751.704c-2.656 1.511-5.164 3.589-6.264 6.437a.875.875 0 00-.082.57.957.957 0 00.31.402l1.033.94c.13.135.286.244.458.32.279.073.573.064.847-.026 2.84-.65 5.858-1.4 7.852-3.525.945-1.007 1.818-2.393 3.21-2.43.584 0 1.13.224 1.705.291.575.067 1.267-.178 1.404-.738a1.552 1.552 0 00-.093-.826l-.859-2.857c-.233-.782-2.589-.823-3.374-.683-1.197.207-2.002 1.229-3.272 1.345zM141.51 117.6c-.042.978.037 1.967-.123 2.936a8.563 8.563 0 01-.727 2.203 14.465 14.465 0 01-1.985 3.126c-.739.875-1.623 1.698-2.718 2.042-1.094.345-2.44.097-3.123-.826-.557-.75-.584-1.75-.543-2.687.1-2.303.461-4.637 1.495-6.697.443-.876 1.007-1.71 1.46-2.595.945-1.835 1.485-4.012 3.117-5.279a10.25 10.25 0 003.24.89c.435.047 1.678.076 1.824.634.1.376-.718 1.43-.876 1.8a12.286 12.286 0 00-1.042 4.453z" fill="#65617D" fill-rule="nonzero"/><path d="M129.939 75.514c.35.893.794 1.769.875 2.72.059.583 0 1.167 0 1.75.05.8.182 1.593.397 2.364l1.626 6.654c.242.995.485 2.016.36 3.032-.086.677-.33 1.334-.328 2.014.031.515.113 1.026.245 1.526a9.4 9.4 0 01-.245 4.64.694.694 0 00-.05.359c.041.19.225.306.392.396a16.673 16.673 0 005.633 1.877 55.158 55.158 0 003.707-13.234c.415-2.755.616-5.545 1.147-8.279a.677.677 0 01.19-.42c.199-.167.5-.062.733.05a65.402 65.402 0 018.584 4.96 10.72 10.72 0 001.982-8.874 18.382 18.382 0 00-1.46-3.817 21.561 21.561 0 00-2.48-4.164c-2.166-2.714-5.342-4.448-8.611-5.624-1.988-.717-4.034-1.249-6.077-1.791-1.145-.307-3.062-1.305-4.174-.529-1.168.809-1.944 2.814-2.423 4.086a15.049 15.049 0 00-.952 4.929 13.923 13.923 0 00.929 5.375z" fill="#3F3D56" fill-rule="nonzero"/><path d="M153.404 83.536c-.61.666-.097 1.728-.213 2.627a3.627 3.627 0 01-.43 1.152l-2.793 5.484a10.166 10.166 0 00-1.039 2.626c-.382 1.978.403 4.202-.601 5.95-.324.563-.826 1.048-.96 1.684-.1.464 0 .948-.05 1.418-.067.552-.362 1.048-.526 1.579-.127.51-.218 1.029-.271 1.552a9.133 9.133 0 01-3.28 5.673 5.22 5.22 0 01-3.62 1.232c-1.302-.111-2.595-.995-2.86-2.273-.091-.435-.074-.92-.345-1.273-.386-.505-1.197-.525-1.568-1.042l1.436-2.363c.447-.733.902-1.497.975-2.352.088-1.048-.417-2.093-.236-3.129.155-.89.794-1.631.986-2.512.24-1.095-.239-2.2-.499-3.292-.636-2.688.076-5.49.785-8.17.943-3.55 1.91-7.153 3.818-10.29 3.81 2.051 7.312 4.02 11.29 5.72z" fill="#3F3D56" fill-rule="nonzero"/><path d="M153.439 27.95c.227.62.105 1.305.061 1.961-.102 1.46.207 2.919.137 4.398-.07 1.48-.525 2.892-.84 4.33-.896 4.107-.68 8.385-1.492 12.508-1.001 5.107-3.561 9.864-4.066 15.046-.16 1.646-.14 3.409-1.042 4.798a75.356 75.356 0 01-15.097-8.866c1.028-7.619 2.044-15.276 1.906-22.963a9.855 9.855 0 01.193-2.766 8.529 8.529 0 011.04-2.154c1.129-1.835 2.372-3.598 3.613-5.358.794-1.126 1.652-2.308 2.919-2.836 1.267-.528 2.767-.292 4.147-.041l4.98.91c1.036.19 3.097-.172 3.54 1.033z" fill="#6C63FF" fill-rule="nonzero"/><path d="M113.47 57.147a15.577 15.577 0 00-2.218-1.841c1.036-1.261.832-3.085 1.086-4.699a15.49 15.49 0 01.942-3.055c.105-.277.254-.584.543-.657a.955.955 0 01.52.082c.875.31 2.703.292 3.383.858.82.689.07 2.13-.24 2.991-.218.578-3.581 6.759-4.016 6.321z" fill="#BE6F72" fill-rule="nonzero"/><path d="M116.012 111.644c.44.712.727 1.507.844 2.335.07.829-.234 1.736-.94 2.174-.706.438-1.72.292-2.56.029a13.32 13.32 0 01-8.07-7.295c-.266-.613-.497-1.264-.967-1.737a5.348 5.348 0 00-1.153-.773c-1.147-.648-2.253-1.5-2.784-2.708-.532-1.208-.292-2.822.808-3.54a2.984 2.984 0 012.289-.292c.76.216 1.489.533 2.165.943 1.133.616 2.517 1.147 3.503 1.967.876.72 1.661 1.695 2.408 2.544.856.977 1.658 2 2.403 3.064.239.313 2.256 3.006 2.054 3.29zm-21.395-6.125a20.207 20.207 0 01-.774 4.333c-.236.794-.549 1.62-1.205 2.125-.556.36-1.185.59-1.842.674-.23.062-.469.077-.704.044-.402-.085-.688-.432-.937-.762-.974-1.29-1.923-2.653-2.335-4.217-.583-2.267 0-4.698 1.013-6.817a6.977 6.977 0 011.562-2.273 5.982 5.982 0 012.866-1.287c1.077-.216 2.4-.677 2.478.633a60.87 60.87 0 01-.122 7.547z" fill="#65617D" fill-rule="nonzero"/><path d="M110.767 50.669c2.014 1.041 4.25 2.366 4.67 4.593.26 1.36-.239 2.752-.157 4.135.073 1.217.584 2.393.52 3.607a16.974 16.974 0 01-.293 1.707c-.172 1.077-.07 2.174-.113 3.262-.097 2.452-.917 4.81-1.314 7.229a21.17 21.17 0 00-.195 5.226c.096 1.127.291 2.247.291 3.38a14.8 14.8 0 01-.201 2.433 24.275 24.275 0 01-2.335 7.258c-1.404 2.763-1.206 6.33-1.057 9.426.065.426.01.863-.157 1.26-.368.669-1.285.765-2.044.7a11.093 11.093 0 01-7.297-3.694 1.87 1.87 0 01-.531-.983c-.064-.625.438-1.138.8-1.655 1.231-1.75.92-4.123 1.065-6.274.107-1.565.48-3.1 1.106-4.538.362-.831.815-1.651.896-2.556.076-.843-.18-1.678-.435-2.483l-.875-2.779c-1.357-4.316-2.724-8.658-4.778-12.688a6.347 6.347 0 00-2.7 3.794c-.765 2.749.324 5.819-.719 8.463a7.738 7.738 0 00-.429 1.135 4.566 4.566 0 00-.07 1.018c.027 2.845.2 5.686.52 8.513.016.428.136.845.35 1.216.172.249.423.432.607.669.511.662.415 1.59.292 2.416l-.584 3.905a1.06 1.06 0 01-.19.551 1.05 1.05 0 01-.496.269c-1.854.575-3.81.754-5.738.525-.57-.067-1.086-.45-1.562-.77-.05-.584.677-.972.704-1.553a1.34 1.34 0 00-.447-.893c-1.086-1.226-2.382-2.527-2.37-4.164 0-.43.102-.858.088-1.287-.038-1.1-.797-2.043-1.063-3.102-.327-1.31.108-2.67.274-4.01.228-1.803-.04-3.63-.291-5.43l-.978-6.607a17.692 17.692 0 00-.607-3.03c-.369-.974-.8-1.924-1.294-2.842-.934-1.897-1.701-3.87-2.466-5.836a5.319 5.319 0 01-.452-1.69c-.044-1 .472-1.946 1.115-2.717a8.497 8.497 0 014.67-2.83c.305-.085.626-.098.937-.038.261.087.507.216.727.382a17.465 17.465 0 0015.432 1.83c.292.222.832.125 1.168-.032.937-.43 1.701-1.144 2.524-1.751 1.533-1.162 3.6-2.265 5.482-2.67zm-60.5 74.941c.155.448.388.864.689 1.23 1.056 1.377 2.53 2.477 3.21 4.085.143.344.248.706.38 1.056.4 1.057 1.05 2 1.897 2.749.646.536 1.348 1 2.093 1.386 1.29.703 2.685 1.34 4.15 1.302a4.51 4.51 0 00.876-.105 4.738 4.738 0 001.305-.479c.943-.52 1.751-1.535 1.565-2.594a2.372 2.372 0 00-.19-.584 6.128 6.128 0 00-.534-.843c-.494-.683-1.001-1.383-1.722-1.821-.812-.496-1.833-.619-2.563-1.232a4.027 4.027 0 01-.739-.893 11.257 11.257 0 01-1.46-3.306c-.221-.875-.37-1.835-1.01-2.477-.638-.642-1.517-.788-2.37-.934a4.12 4.12 0 00-.875-.085c-.417.015-.85.134-1.24-.061-.392-.196-.523-.473-.996-.435-.376.05-.731.205-1.024.446-1.11.82-1.845 2.28-1.442 3.596z" fill="#3F3D56" fill-rule="nonzero"/><path d="M60.638 126.938c.19.99.481 2.043 1.246 2.688.487.42 1.168.683 1.41 1.275.242.593-.07 1.337-.473 1.88a6.923 6.923 0 01-1.88 1.724c-.619.383-1.357.674-2.066.505-.584-.137-1.045-.557-1.48-.963-.999-.925-2.02-1.885-2.58-3.125-.584-1.308-.614-2.822-1.25-4.109-.37-.75-.943-1.407-1.167-2.212a1.372 1.372 0 010-.899 1.267 1.267 0 011.144-.68 4 4 0 011.369.292c1.317.47 2.666.847 4.037 1.13.545.102.875.099 1.167.627a6.29 6.29 0 01.523 1.867zm3.386 8.364a3.21 3.21 0 00-.453 1.086c-.069.3-.08.611-.032.916a4.738 4.738 0 001.305-.479c.943-.52 1.751-1.535 1.564-2.594a2.372 2.372 0 00-.19-.584.815.815 0 00-.776.243 6.447 6.447 0 00-1.418 1.412z" fill="#FBBEBE" fill-rule="nonzero"/><path d="M53.562 113.13c-.127.273-.165.58-.108.875.134.584.733.92 1.273 1.185l5.134 2.51c.356.164.703.348 1.04.551.875.537 1.564 1.296 2.311 1.99.747.695 1.58 1.346 2.569 1.59.988.217 2.02.082 2.919-.382a6.033 6.033 0 001.337-.907c.348-.306.67-.64.963-1.001.25-.265.43-.59.522-.943.097-.534-.169-1.059-.478-1.5a6.928 6.928 0 00-.584-.723c-1.947-2.151-5.138-3.266-7.881-3.704-1.092-.175-2.128-.583-3.179-.916-1.05-.333-2.163-.584-3.255-.429-1.091.155-2.165.782-2.583 1.804z" fill="#3F3D56" fill-rule="nonzero"/><path d="M53.562 113.13c-.127.273-.165.58-.108.875.134.584.733.92 1.273 1.185l5.134 2.51c.356.164.703.348 1.04.551.875.537 1.564 1.296 2.311 1.99.747.695 1.58 1.346 2.569 1.59.988.217 2.02.082 2.919-.382a6.033 6.033 0 001.337-.907c.348-.306.67-.64.963-1.001.25-.265.43-.59.522-.943.097-.534-.169-1.059-.478-1.5a6.928 6.928 0 00-.584-.723c-1.947-2.151-5.138-3.266-7.881-3.704-1.092-.175-2.128-.583-3.179-.916-1.05-.333-2.163-.584-3.255-.429-1.091.155-2.165.782-2.583 1.804z" fill="#000" fill-rule="nonzero" opacity=".1"/><path d="M66.411 114.732c.395.443.72.944.963 1.485.22.355.298.778.22 1.188a1.733 1.733 0 01-.535.7l-.51.473a2.07 2.07 0 01-.532.397c-.28.104-.578.15-.875.131-.686 0-1.425 0-1.982-.411-.762-.549-.9-1.684-.552-2.557.347-.872 1.074-1.532 1.807-2.121.595-.482 1.579.274 1.996.715zm3.118 3.018c-.095.483-.05.984.131 1.444.128.437.254.875.38 1.322v.017c.348-.306.67-.64.963-1 .25-.266.43-.59.522-.943.097-.535-.17-1.06-.479-1.5a6.928 6.928 0 00-.583-.724c-.137.178-.257.353-.356.467a2.577 2.577 0 00-.578.916z" fill="#FBBEBE" fill-rule="nonzero"/><path d="M56.116 96c-.604 2.539-.347 5.194-.026 7.786.245 1.972.52 4.015-.064 5.915-.216.709-.558 1.43-.426 2.162.248 1.38 1.911 1.912 3.29 2.171.397.101.81.126 1.216.073a2.89 2.89 0 001.11-.583 12.122 12.122 0 004.27-5.676c.522-1.524.689-3.143.85-4.745.268-2.697.54-5.425.145-8.104-.116-.788-.292-1.567-.365-2.361a17.056 17.056 0 01.228-4.13 66.597 66.597 0 012.277-9.962 13.43 13.43 0 01-8.08-1.459c.479.257-.07 4.351-.128 4.926a33.426 33.426 0 01-.925 5.078c-.815 3.113-2.633 5.816-3.372 8.909z" fill="#3F3D56" fill-rule="nonzero"/><path d="M56.116 96c-.604 2.539-.347 5.194-.026 7.786.245 1.972.52 4.015-.064 5.915-.216.709-.558 1.43-.426 2.162.248 1.38 1.911 1.912 3.29 2.171.397.101.81.126 1.216.073a2.89 2.89 0 001.11-.583 12.122 12.122 0 004.27-5.676c.522-1.524.689-3.143.85-4.745.268-2.697.54-5.425.145-8.104-.116-.788-.292-1.567-.365-2.361a17.056 17.056 0 01.228-4.13 66.597 66.597 0 012.277-9.962 13.43 13.43 0 01-8.08-1.459c.479.257-.07 4.351-.128 4.926a33.426 33.426 0 01-.925 5.078c-.815 3.113-2.633 5.816-3.372 8.909z" fill="#000" fill-rule="nonzero" opacity=".1"/><path d="M71.271 81.123c1.168 3.382.91 7.076.406 10.62-.505 3.542-1.25 7.085-1.03 10.653.084 1.401.312 2.84-.097 4.18a9.133 9.133 0 01-.896 1.864l-9.314 16.103a2.896 2.896 0 01-2.335 1.459c-.996.07-1.973-.257-2.902-.622a5.22 5.22 0 01-1.69-.937 1.999 1.999 0 01-.712-1.71c.417-2.795 1.045-5.658 1.51-8.462a14.647 14.647 0 012.025-5.361c.72-1.167 1.608-2.215 2.23-3.429 1.786-3.478 1.168-7.722-.21-11.381-1.378-3.66-3.43-7.056-4.525-10.797a12.376 12.376 0 01-.551-3.21 8.558 8.558 0 012.44-6.088c.23-.26.52-.46.844-.583a2.368 2.368 0 011.15.02c5.187 1.007 11.944 2.685 13.657 7.68z" fill="#3F3D56" fill-rule="nonzero"/><path d="M154.995 30.63c.169 1.278-.292 2.57-.95 3.676-2.483 4.144-8.21 5.977-12.638 4.048-1.824-.797-3.368-2.11-4.88-3.406-.508-.437-1.037-.896-1.293-1.514-.453-1.095.093-2.399.983-3.181s2.043-1.167 3.19-1.515c3.786-1.179 14.686-4.896 15.588 1.891z" fill="#FBBEBE" fill-rule="nonzero"/><path d="M152.78 26.573c3.446 2.772 8.464 5.413 12.37 7.468 1.328.7 2.802 1.488 3.28 2.918.257.764.173 1.596.088 2.402-.164 1.55-.333 3.122-.931 4.56-.704 1.685-1.947 3.074-2.945 4.603-1.752 2.679-2.78 5.836-4.942 8.203 1.46 4.847 3.056 9.688 3.576 14.72a.677.677 0 01-.044.41.706.706 0 01-.228.208l-3.631 2.381a4.1 4.1 0 00-1.048.875c-.642.835-.557 2.008-.954 2.98a3.873 3.873 0 01-2.248 2.043 6.922 6.922 0 01-3.091.327 7.188 7.188 0 01-3.69-1.3c-.925-.7-1.585-1.683-2.22-2.652a10.327 10.327 0 01-1.168-2.127c-.389-1.074-.412-2.244-.397-3.388a35.81 35.81 0 01.621-6.487c.17-.85.38-1.687.514-2.542.269-1.722.216-3.478.414-5.209a35.029 35.029 0 011.3-5.74c.324-1.16.577-2.34.758-3.531.342-2.095 1.022-4.118 1.702-6.128l1.168-3.447c.248-.744.499-1.485.794-2.212.548-1.357 1.255-2.679 1.442-4.126.207-1.579-1.498-3.452-.923-4.935.047-.163.3-.379.432-.274z" fill="#3F3D56" fill-rule="nonzero"/><path d="M167.496 36.145c.809.365 1.255 1.234 1.544 2.075.652 1.894.809 3.923.456 5.894a10.55 10.55 0 00-.234 1.506c.006.588.064 1.174.172 1.751.292 2.232 0 4.5.097 6.753.1 2.533.65 5.209-.412 7.511-.706 1.53-2.043 2.667-3.362 3.7a67.291 67.291 0 01-16.104 9.292c.995-1.197 1.013-2.997.35-4.407-.662-1.409-1.894-2.468-3.21-3.291a20.693 20.693 0 004.83-1.725c3.06-1.552 5.68-3.826 8.27-6.076.381-.274.679-.65.858-1.085.262-.876-.461-1.707-.964-2.475-1.52-2.334-1.167-5.384-.53-8.086.709-2.962 1.75-5.912 3.65-8.294 1.186-1.488 2.733-2.632 4.59-3.043z" fill="#3F3D56" fill-rule="nonzero"/><path d="M149.396 74.7a3.99 3.99 0 01-1.004 1.103c-.876.584-2.078.362-3.056-.053a8.918 8.918 0 01-2.481-1.578 3.888 3.888 0 00-1.1-.817c-.765-.292-1.834-.073-2.263-.777a.411.411 0 01-.07-.25c.026-.254.36-.325.616-.34a7.646 7.646 0 003.377-1.04 3.242 3.242 0 01-.829-.876.683.683 0 01-.14-.415.741.741 0 01.254-.414 6.499 6.499 0 017.146-1.19c.229.092.43.243.583.437.108.179.18.377.213.584.19.817.876 2.042.628 2.868-.274.949-1.31 1.955-1.874 2.758z" fill="#FBBEBE" fill-rule="nonzero"/><path d="M129.492 71.02c3.631-4.193 5.254-9.712 6.76-15.05l1.077-3.793 2.598-9.137c.383-1.348.765-2.696 1.019-4.07.435-2.373.476-4.798.45-7.208a7.799 7.799 0 00-.675-2.895c-.254-.63-.376-1.302-.584-1.953a9.74 9.74 0 00-1.17-2.565 2.685 2.685 0 00-.529-.63 3.071 3.071 0 00-1.193-.484 10.51 10.51 0 00-2.858-.435c-.97.035-1.967.37-2.592 1.106-.476.563-.695 1.293-1.071 1.926a7.81 7.81 0 00-.476.808c-.16.424-.25.872-.263 1.325a227.342 227.342 0 00-.388 5.521c-.05.838-.093 1.681-.061 2.522.026.653.096 1.304.166 1.955l.692 6.373c.16 1.497.047 2.898.18 4.398.328 3.621-.452 7.243-1.251 10.797-.383 1.69-.777 3.403-1.594 4.932-.721 1.354-1.801 2.728-1.515 4.237.1.525.365 1.016.406 1.547-.02.329.012.659.096.977.245.445.748.68 1.246.584a2.893 2.893 0 001.53-.788z" fill="#3F3D56" fill-rule="nonzero"/><path d="M129.936 54.238c.11.837.026 1.686.067 2.53.091 1.086.287 2.16.584 3.21.291 1.167.665 2.474 1.695 3.122.259.134.506.29.739.464a.72.72 0 01.24.782l-.803-.134a.814.814 0 11-1.121 1.167 1.9 1.9 0 01-.073.782.636.636 0 01-.584.438.94.94 0 01-.417-.175l-2.096-1.299a3.867 3.867 0 01-1.51-1.459l-.916-1.38a3.297 3.297 0 01-.476-.876c-.341-1.167.613-2.463.117-3.563a4.789 4.789 0 00-.522-.764c-1.06-1.46-.993-3.444-.876-5.253.038-.61.149-1.334.7-1.6.438-.212.964-.022 1.37.243.405.266.764.616 1.225.773.292.1.613.111.905.216.409.143.788.7 1.063 1.03.388.507.626 1.111.689 1.746z" fill="#FBBEBE" fill-rule="nonzero"/><path d="M104.357 28.012a5.188 5.188 0 01-1.027 1.535 1.988 1.988 0 01-1.693.583c-.648-.128-1.124-.662-1.553-1.167-1.121-1.316-2.256-2.65-3.01-4.208-1.15-2.372-1.333-5.08-1.5-7.71-.04-.677-.076-1.395.248-1.987.412-.756 1.285-1.112 2.09-1.413l4.452-1.663c.272-.13.574-.184.875-.16.698.116.955.957 1.144 1.637.34 1.222.904 2.37 1.664 3.385.999 1.33 3.237 3.122 1.959 4.783-1.544 1.99-2.525 4.138-3.649 6.385z" fill="#BE6F72" fill-rule="nonzero"/><path d="M110.052 20.419c1.95 1.832 2.61 4.686 2.516 7.356-.093 2.67-.835 5.274-1.258 7.912-.423 2.638-.508 5.454.64 7.879.393.831.93 1.602 1.205 2.48.23.868.308 1.77.23 2.664a7.606 7.606 0 01-.53 2.755c-.623 1.378-1.901 2.335-3.124 3.21-2.496 1.804-5.041 3.636-7.972 4.579-1.985.639-4.086.85-6.164.963a19.614 19.614 0 01-4.221-.12 11.463 11.463 0 01-6.407-3.39 3.59 3.59 0 01-.727-1.002c-.178-.485-.264-1-.254-1.517a67.43 67.43 0 01.035-5.749c.054-1.826.305-3.641.75-5.413.558-2.043 1.524-3.957 2.257-5.947 2.55-6.92 2.294-14.793 5.837-21.254.765-1.395 2.044-2.862 3.62-2.64.303.018.588.149.8.367a1.7 1.7 0 01.292.899c.376 3.14.91 6.362 2.39 9.195.584 1.112 1.46 2.805 2.805 3.102 1.346.298 2.14-.986 2.86-1.897a23.293 23.293 0 014.42-4.432z" fill="#E3E8F4" fill-rule="nonzero"/><path d="M119.384 15.694c.397.215.769.475 1.106.776.876.829 1.197 2.098 1.191 3.3-.006 1.203-.292 2.388-.467 3.578-.47 3.21-.07 6.496.117 9.747a4.718 4.718 0 01-.094 1.57c-.143.49-.438.922-.627 1.398-.558 1.407-.137 3.012-.464 4.488-.35 1.573-1.55 3.003-1.326 4.6.09.624.392 1.199.52 1.817.128.619.018 1.366-.517 1.699-.534.332-1.31.09-1.947.274a6 6 0 00-.753.339c-.983.443-2.157.291-3.126-.193a9.474 9.474 0 01-2.525-2.002c-1.112-1.138-2.189-2.384-2.676-3.899-.713-2.194-.08-4.584.694-6.761.774-2.177 1.696-4.377 1.56-6.692-.077-1.295-.485-2.541-.73-3.814a24.39 24.39 0 01-.325-5.34c.038-1.307.126-2.655.69-3.837a5.286 5.286 0 014.18-2.86c2.042-.222 3.794.82 5.519 1.812z" fill="#3F3D56" fill-rule="nonzero"/><path d="M113.864 43.901a8.88 8.88 0 00.496 2.74c.523-1.19.584-2.527.654-3.822.292-4.462 1.282-8.67 2.335-12.992-.767.583-1.2 2.043-1.567 2.918a25.727 25.727 0 00-1.918 11.156z" fill="#000" fill-rule="nonzero" opacity=".1"/><path d="M94.188 12.81c-1.407.371-2.627 1.206-3.99 1.752-1.416.583-2.94.831-4.426 1.19-3.438.835-6.891 2.385-8.966 5.253-1.53 2.11-2.163 4.716-3.211 7.106-.876 2.005-2.044 3.884-2.689 5.97-.843 2.723-.747 5.641-.54 8.484.17 2.334.427 4.695 1.486 6.764.555 1.086 1.32 2.057 1.874 3.143.666 1.304 1.016 2.743 1.57 4.085.555 1.343 1.37 2.685 2.657 3.386l2.13-1.246c3.18-1.86 6.358-3.721 9.437-5.74 2.686-1.751 5.394-3.762 6.825-6.64 1.267-2.541 1.392-5.512 1.065-8.334-.327-2.822-1.074-5.582-1.46-8.395a33.827 33.827 0 01.22-10.655c.292-1.587 1.068-3.227 1.228-4.809.179-1.69-1.993-1.634-3.21-1.313z" fill="#3F3D56" fill-rule="nonzero"/><path d="M81.015 59.201c1.631 1.544 3.978 1.994 6.018 2.919a12.922 12.922 0 014.02 2.918c.627.688 1.234 1.625.92 2.5-.266.754-1.08 1.139-1.828 1.419-.928.35-1.964.66-2.89.306-.543-.207-.98-.621-1.48-.916-1.223-.727-2.764-.73-4.019-1.4-1.769-.946-2.65-3.027-4.314-4.15-.91-.613-2.169-1.115-2.262-2.21-.005-.395.08-.787.245-1.146.336-.893.908-3.96 2.186-3.879 1.392.09 2.367 2.901 3.404 3.64z" fill="#FBBEBE" fill-rule="nonzero"/><path d="M72.465 45.524c.534 1.92 1.775 3.557 3.062 5.08.925 1.095 1.941 2.285 1.973 3.718.03 1.354-.875 2.6-2.043 3.292-1.168.691-2.542.913-3.894 1a9.825 9.825 0 01-3.228-.224c-2.668-.724-4.519-3.05-6.617-4.847-1.247-1.065-2.648-1.993-3.602-3.327-.955-1.333-1.358-3.248-.418-4.593.34-.436.732-.828 1.168-1.167a19.512 19.512 0 004.025-4.83c.432-.732.847-1.526 1.573-1.967 1.042-.633 2.38-.344 3.558-.035 1.282.336 4.893.992 5.144 2.627.102.67-.73 1.716-.856 2.436a6.453 6.453 0 00.155 2.837z" fill="#FBBEBE" fill-rule="nonzero"/><path d="M79.065 49.183c.382.693.697 1.421.94 2.174.89 3.094-.7 6.28-1.46 9.409-.969 4.006-.557 8.197-.604 12.32-.02 1.885-.222 3.96-1.58 5.267-.35.333-.77.613-1.006 1.034a4.274 4.274 0 00-.324.965 4.979 4.979 0 01-7.216 2.971c-1.106-.616-2.066-1.684-3.333-1.716-.398.02-.795.063-1.188.132-1.261.125-2.496-.342-3.678-.8a2.4 2.4 0 01-.776-.414c-.214-.196-.35-.459-.546-.669-.721-.776-1.953-.642-2.992-.858a4.188 4.188 0 01-3.173-3.172c-.21-1.004-.032-2.042.143-3.055l.782-4.512c.329-1.654.556-3.328.68-5.01a21.006 21.006 0 00-.484-5.664c-.345-1.518-.858-3.003-1.045-4.55a11.113 11.113 0 012.043-7.823c.406-.558.937-1.115 1.626-1.168.557-.05 1.08.248 1.564.534 4.21 2.49 8.448 4.93 12.715 7.316 1.168.657 2.362 1.316 3.664 1.64.39.1.951.059 1.007-.338a.738.738 0 00-.114-.43c-.73-1.403-1.787-2.608-2.627-3.945-.84-1.336-1.489-2.918-1.24-4.47.338-2.148 2.334-3.57 3.966-1.885 1.83 1.911 3.056 4.368 4.256 6.717z" fill="#F86D70" fill-rule="nonzero"/><path d="M65.994 76.419c3.424.219 6.924.452 10.093 1.765 1.02.42 2.1.963 3.17.704a4.239 4.239 0 001.46-.783 33.387 33.387 0 003.73-3.18c-.117-.64-.983-.727-1.631-.721a9.754 9.754 0 01-4.542-1.092 7.654 7.654 0 00-1.46-.68c-1.386-.382-2.799.348-4.191.704-2.061.525-4.233.219-6.337-.09l-5.68-.838c-.529-.076-1.124-.137-1.545.19-.28.265-.473.61-.551.989-.695 2.334-.362 2.53 1.95 2.676l5.534.356z" fill="#FBBEBE" fill-rule="nonzero"/><ellipse fill="#000" fill-rule="nonzero" opacity=".1" cx="143.555" cy="26.564" rx="9.341" ry="9.338"/><ellipse fill="#FBBEBE" fill-rule="nonzero" cx="143.488" cy="26.159" rx="9.341" ry="9.338"/><path d="M151.372 14.302c.747.461 1.53.957 1.938 1.733.22.527.387 1.075.5 1.635.51 1.75 1.87 3.271 1.952 5.095.09 1.999-1.41 3.735-3.108 4.783a2.306 2.306 0 01-1.337.45c-.494-.033-.92-.342-1.372-.54-1.918-.853-4.063.227-6.095.723-2.111.51-4.326.38-6.363-.374-1.095-.408-2.157-1.02-2.843-1.97-.686-.948-.931-2.276-.347-3.294.291-.52.776-.99.744-1.582-.018-.356-.228-.677-.292-1.027-.093-.557.198-1.1.496-1.576a22.81 22.81 0 015.05-5.71c.584-.48 1.258-.946 2.023-.981 1.535-.067 2.854 1.077 4.434 1.083 1.792.005 3.079.6 4.62 1.552z" fill="#3F3D56" fill-rule="nonzero"/><ellipse fill="#000" fill-rule="nonzero" opacity=".1" cx="109.103" cy="14.556" rx="9.632" ry="9.63"/><ellipse fill="#BE6F72" fill-rule="nonzero" cx="109.273" cy="14.32" rx="9.632" ry="9.63"/><path d="M114.419 19.76c1.36.76 3.038.682 4.556.335a6.13 6.13 0 002.394-1.01 2.886 2.886 0 001.205-2.218c0-.977-.642-1.859-.72-2.836-.097-1.232.706-2.37.79-3.607.085-1.238-.525-2.352-1.12-3.415-1.025-1.823-2.09-3.67-3.65-5.065-1.558-1.395-3.718-2.285-5.761-1.816-1.004.23-1.935.77-2.96.876-.91.084-1.81-.19-2.718-.307-.907-.116-1.926-.043-2.577.584-.356.35-.584.843-1.001 1.1-.283.13-.576.24-.876.324-1.054.423-1.535 1.611-1.909 2.68l-2.504 7.175c.838.584 1.847.85 2.764 1.298.917.45 1.807 1.168 1.994 2.172.143.761-.129 1.637.315 2.273.406.584 1.232.683 1.932.584.7-.1 1.404-.342 2.105-.234 1.751.266 2.402 1.34 4.022 0s2.213.26 3.719 1.106z" fill="#3F3D56" fill-rule="nonzero"/><ellipse fill="#000" fill-rule="nonzero" opacity=".1" cx="68.338" cy="36.037" rx="8.757" ry="8.755"/><ellipse fill="#FBBEBE" fill-rule="nonzero" cx="68.676" cy="35.561" rx="8.757" ry="8.755"/><path d="M75.381 27.002a23.096 23.096 0 00-6.927-3.642c-1.6-.52-3.339-.875-4.962-.397-2.2.628-5.146 1.564-6.509 3.406-.671.904-1.351 1.835-1.675 2.918-.648 2.177.274 4.497.213 6.767-.073 2.647-1.477 5.063-3.01 7.223-1.532 2.16-1.841 5.253-2.746 7.745-.31.855-.409 2.042.388 2.471.7.389 1.547-.096 2.195-.563l3.897-2.816a2.969 2.969 0 011.027-.548c.803-.187 1.588.315 2.26.79l8.172 5.778a2.506 2.506 0 00.038-2.124c.768.236 1.325.875 2 1.33.674.456 1.699.605 2.189-.031.49-.637.12-1.492-.426-2.005-.546-.514-1.264-.82-1.798-1.348-1.06-1.054-1.168-2.717-1.836-4.048-.479-.934-1.253-1.716-1.591-2.711-.552-1.625.17-3.376.876-4.94.843-1.856 1.798-3.838 3.593-4.807.604-.327 1.272-.52 1.891-.817 1.541-.738 3.465-2.48 4.218-4.042.66-1.386-.356-2.725-1.477-3.589z" fill="#3F3D56" fill-rule="nonzero"/><path d="M62.126 55.933c.838.534 1.784.875 2.607 1.433.823.557 1.544 1.403 1.567 2.396.024.948-.583 1.78-1.167 2.533l-7.11 9.33 3.625.96c-.584.805-.733 1.832-1.037 2.777-.303.946-.875 1.93-1.844 2.177-.876.225-1.793-.236-2.697-.184-.669.041-1.3.356-1.968.383-.86.032-1.66-.42-2.379-.9-1.6-1.07-3.187-2.605-3.176-4.531a6.856 6.856 0 01.389-1.909c1.048-3.417 2.133-6.916 4.305-9.758 1.168-1.517 2.595-2.798 4.022-4.07a3.75 3.75 0 011.127-.78c.934-.35 1.953.082 2.919.362.966.28 2.183.32 2.74-.505" fill="#000" fill-rule="nonzero" opacity=".1"/><path d="M61.82 55.358c.838.531 1.783.876 2.606 1.433.824.557 1.544 1.404 1.57 2.393.027.99-.583 1.783-1.167 2.536l-7.113 9.32 3.625.96c-.584.806-.733 1.83-1.036 2.779-.304.948-.876 1.929-1.845 2.177-.876.224-1.792-.237-2.697-.184-.668.038-1.299.356-1.967.38-.861.031-1.661-.421-2.38-.9-1.599-1.068-3.187-2.606-3.172-4.529a6.714 6.714 0 01.385-1.908c1.048-3.42 2.134-6.92 4.306-9.759 1.167-1.52 2.597-2.801 4.022-4.085a3.859 3.859 0 011.127-.78c.934-.35 1.952.082 2.918.366.967.283 2.184.32 2.741-.505" fill="#F86D70" fill-rule="nonzero"/><path d="M134.947 23.903c.686.948 1.752 1.564 2.843 1.97 2.037.756 4.253.886 6.364.373 2.043-.496 4.177-1.576 6.094-.723.453.2.876.507 1.37.542.482-.008.95-.166 1.34-.452 1.181-.73 2.267-1.792 2.787-3.044 0 .065 0 .129.017.196.09 1.999-1.41 3.735-3.108 4.783a2.306 2.306 0 01-1.337.45c-.494-.033-.92-.342-1.372-.54-1.918-.853-4.063.227-6.095.723-2.111.51-4.326.38-6.363-.374-1.095-.408-2.157-1.02-2.843-1.97-.686-.948-.931-2.276-.347-3.294l.043-.073c.095.517.302 1.006.607 1.433zm.389-4.876c.023.449-.248.825-.508 1.208a1.844 1.844 0 01-.085-.292c-.087-.522.164-1.03.44-1.488.08.181.132.374.153.572zM100.755 4.433l-2.504 7.173c.838.583 1.847.852 2.764 1.298.917.447 1.807 1.168 1.994 2.171.143.762-.129 1.637.315 2.277.406.583 1.232.68 1.932.583.7-.096 1.404-.341 2.105-.233 1.751.265 2.402 1.34 4.022.014 1.62-1.325 2.207.248 3.713 1.095 1.36.764 3.038.685 4.556.335a6.13 6.13 0 002.394-1.007c.102-.083.2-.171.292-.265-.224.478-.56.895-.981 1.214a6.13 6.13 0 01-2.394 1.01c-1.517.347-3.21.426-4.556-.336-1.506-.846-2.125-2.39-3.713-1.094-1.588 1.295-2.277.25-4.022 0-.7-.108-1.401.134-2.105.233-.703.1-1.526 0-1.932-.584-.444-.636-.172-1.511-.315-2.273-.187-1.004-1.077-1.724-1.994-2.17-.916-.447-1.926-.719-2.764-1.3l2.516-7.193c.292-.79.613-1.646 1.197-2.209a9.795 9.795 0 00-.52 1.26zM68.393 54.325c.645.292 1.46.336 1.868-.21.459-.584.12-1.488-.426-2.005-.546-.516-1.264-.82-1.798-1.348-1.06-1.05-1.167-2.714-1.836-4.045-.479-.936-1.252-1.718-1.59-2.714-.552-1.622.169-3.376.875-4.937.844-1.856 1.798-3.838 3.593-4.806.604-.327 1.273-.52 1.892-.818 1.54-.738 3.464-2.483 4.217-4.044.634-1.316-.26-2.594-1.322-3.461.517.335 1.022.689 1.512 1.065 1.124.875 2.137 2.203 1.46 3.584-.753 1.56-2.677 3.303-4.218 4.041-.619.292-1.287.49-1.892.817-1.795.97-2.75 2.95-3.593 4.807-.71 1.564-1.43 3.315-.876 4.94.34.995 1.113 1.777 1.591 2.711.677 1.33.777 2.994 1.836 4.048.534.528 1.252.831 1.798 1.348.546.516.876 1.41.426 2.005-.449.595-1.517.472-2.189.032-.452-.307-.864-.71-1.328-1.01zM50.69 51.737l3.897-2.813c.302-.25.652-.438 1.027-.552.803-.184 1.588.318 2.26.794l8.172 5.778a2.512 2.512 0 00.038-2.128c.75.234 1.296.858 1.947 1.296a2.184 2.184 0 00-.292-.108c.303.679.29 1.457-.038 2.125l-8.173-5.778c-.67-.476-1.459-.978-2.259-.791a2.98 2.98 0 00-1.027.548l-3.897 2.816c-.648.467-1.495.952-2.195.564a1.281 1.281 0 01-.61-1.127 4.23 4.23 0 001.15-.624z" opacity=".1" fill="#000" fill-rule="nonzero"/><path d="M148.045 70.795s-16.726 1.34-20.053-1.03l15.3-2.358 4.753 3.388z" fill="#E3E8F4" fill-rule="nonzero"/><path d="M148.045 70.795s-16.726 1.34-20.053-1.03l15.3-2.358 4.753 3.388z" fill="#000" fill-rule="nonzero" opacity=".1"/><path d="M148.045 70.795l-4.685-2.965s-13.976 4.016-17.806 2.358l3.897-5.465 13.847 2.699 4.747 3.373z" fill="#E3E8F4" fill-rule="nonzero"/><path d="M127.262 31.481a8.208 8.208 0 00-1.229 2.157c-.134.411-.201.84-.315 1.258a9.664 9.664 0 01-1.46 2.892c-1.439 2.092-3.237 4.111-3.599 6.624-.175 1.24.018 2.5.263 3.73.133.81.364 1.6.689 2.354.37.8.922 1.503 1.346 2.277.386.759.712 1.547.974 2.358.5-.5.794-1.168 1.194-1.751.4-.584.996-1.11 1.7-1.118.81 0 1.479.671 2.282.776a.651.651 0 00.373-.035c.292-.137.316-.531.292-.846-.23-2.203-1.491-4.377-.896-6.514.549-1.975 2.51-3.21 3.54-4.98.748-1.288.97-2.805 1.168-4.282.248-1.765.5-3.545.389-5.323-.056-.896-.768-6.557-2.07-5.964-.452.204-.846 1.07-1.13 1.459l-1.167 1.654-2.344 3.274z" fill="#3F3D56" fill-rule="nonzero"/><path fill="#E3E8F4" fill-rule="nonzero" d="M92.325 68.003l-9.39 7.642-12.081-2.16 8.135-6.384z"/><path fill="#000" fill-rule="nonzero" opacity=".1" d="M92.664 67.527l-9.39 7.643-12.082-2.16 8.135-6.385z"/><path fill="#E3E8F4" fill-rule="nonzero" d="M92.597 67.121l-9.39 7.64-12.085-2.156 8.138-6.388z"/><path fill="#000" fill-rule="nonzero" opacity=".1" d="M92.868 66.237l-9.393 7.643-12.081-2.16 8.138-6.385z"/><path fill="#E3E8F4" fill-rule="nonzero" d="M92.798 65.832l-9.39 7.642-12.081-2.16 8.135-6.384z"/><path d="M216.318 170.259a1.512 1.512 0 012.169 1.24l.522 6.773-3.1.56-1.634-4.896 2.043-3.677z" fill="#3F3D56" fill-rule="nonzero"/><path d="M107.866 124.86l-47.441 24.07a3.3 3.3 0 00.023 5.892l102.177 51.264a12.405 12.405 0 0011.655-.292l43.036-24.262a3.3 3.3 0 00-.195-5.836l-106.34-50.867a3.302 3.302 0 00-2.915.032z" fill="#3F3D56" fill-rule="nonzero"/><path d="M60.106 144.742l-1.485 1.103-.118 5.282a2.196 2.196 0 001.192 2.002l103.922 53.316a1.547 1.547 0 002.256-1.375v-7.672L60.106 144.742z" fill="#3F3D56" fill-rule="nonzero"/><path d="M107.866 118.738l-47.441 24.067a3.3 3.3 0 00.014 5.892l102.186 51.263a12.414 12.414 0 0011.655-.291l43.036-24.265a3.3 3.3 0 00-.195-5.837l-106.34-50.864a3.302 3.302 0 00-2.915.035z" fill="#E3E8F4" fill-rule="nonzero"/><path fill="#3F3D56" fill-rule="nonzero" d="M117.685 123.107l-52.272 26.535 89.841 44.911 53.907-27.355z"/><ellipse fill="#3F3D56" fill-rule="nonzero" cx="188.13" cy="183.122" rx="5.514" ry="3.265"/><circle fill="#3F3D56" fill-rule="nonzero" cx="87.568" cy="131.578" r="1"/><circle fill="#3F3D56" fill-rule="nonzero" cx="86.038" cy="135.559" r="1"/><path d="M88.283 134.537l6.127-2.856" stroke="#3F3D56"/><path d="M125.261 157.804l17.297-9.984a5.254 5.254 0 015.255 9.098h-.001l-17.297 9.984a5.254 5.254 0 01-5.254-9.098zm15.47 7.88l17.297-9.984a5.254 5.254 0 015.255 9.098l-17.298 9.984a5.254 5.254 0 01-5.255-9.098h.001zm-29.481-16.925l17.297-9.984a5.254 5.254 0 015.255 9.097l-17.297 9.985a5.254 5.254 0 01-5.255-9.098z" fill="#6C63FF" fill-rule="nonzero"/></g></svg>