<svg width="270" height="258" xmlns="http://www.w3.org/2000/svg"><defs><linearGradient x1="50.001%" y1="100%" x2="50.001%" y2="0%" id="a"><stop stop-color="gray" stop-opacity=".25" offset="1%"/><stop stop-color="gray" stop-opacity=".12" offset="54%"/><stop stop-color="gray" stop-opacity=".1" offset="100%"/></linearGradient><linearGradient x1="50%" y1="100%" x2="50%" y2="0%" id="b"><stop stop-color="#B3B3B3" stop-opacity=".25" offset="0%"/><stop stop-color="#B3B3B3" stop-opacity=".1" offset="54%"/><stop stop-color="#B3B3B3" stop-opacity=".05" offset="100%"/></linearGradient><linearGradient x1="50.001%" y1="100%" x2="50.001%" y2="0%" id="c"><stop stop-color="gray" stop-opacity=".25" offset="1%"/><stop stop-color="gray" stop-opacity=".12" offset="54%"/><stop stop-color="gray" stop-opacity=".1" offset="100%"/></linearGradient><linearGradient x1="50%" y1="100.011%" x2="50%" y2="0%" id="d"><stop stop-color="#B3B3B3" stop-opacity=".25" offset="0%"/><stop stop-color="#B3B3B3" stop-opacity=".1" offset="54%"/><stop stop-color="#B3B3B3" stop-opacity=".05" offset="100%"/></linearGradient><linearGradient x1="49.999%" y1="100%" x2="49.999%" y2="0%" id="e"><stop stop-color="gray" stop-opacity=".25" offset="1%"/><stop stop-color="gray" stop-opacity=".12" offset="54%"/><stop stop-color="gray" stop-opacity=".1" offset="100%"/></linearGradient><linearGradient x1="49.994%" y1="100%" x2="49.994%" y2="0%" id="f"><stop stop-color="#B3B3B3" stop-opacity=".25" offset="0%"/><stop stop-color="#B3B3B3" stop-opacity=".1" offset="54%"/><stop stop-color="#B3B3B3" stop-opacity=".05" offset="100%"/></linearGradient></defs><g fill="none"><path fill="url(#a)" d="M168.007 257.742H0V62.917l25.385-28.109h142.622z"/><path fill="#FAFAFA" d="M165.413 251.817H2.97V64.437l24.54-27.035h137.902z"/><path fill="#E0E0E0" d="M18.827 60.546h79.139v13.331H18.827zm.159 36.477H76.98v13.331H18.986z"/><path fill="#6C63FF" d="M18.986 151.829H149.07v48.881H18.986z"/><path fill="#F5F5F5" d="M119.593 60.731h29.478v13.331h-29.478zm0 20.739h29.478v13.331h-29.478z"/><path fill="url(#b)" d="M30.042 37.402v29.625H2.969v-2.59l24.475-27.035z"/><path fill="#EEE" d="M2.902 64.437l24.542-27.035v27.035z"/><path fill="url(#c)" d="M219.56 239.225H51.551V44.4l25.385-28.105h142.622z"/><path fill="#FAFAFA" d="M216.965 233.3H54.521V45.92l24.542-27.035h137.902z"/><path fill="#E0E0E0" d="M70.379 42.032h79.139v13.331H70.379zm.159 36.474h57.994v13.331H70.538z"/><path fill="#6C63FF" d="M70.538 133.315h130.084v48.881H70.538z"/><path fill="#F5F5F5" d="M171.145 42.217h29.478v13.331h-29.478zm0 20.736h29.478v13.331h-29.478z"/><path fill="url(#d)" d="M81.594 18.885V48.51H54.52v-2.59l24.476-27.035z"/><path fill="#EEE" d="M54.454 45.92l24.543-27.035V45.92z"/><path fill="url(#e)" d="M270 222.933H101.993V28.108L127.374 0H270z"/><path fill="#FFF" d="M267.403 217.008H104.958V29.625l24.546-27.032h137.899z"/><path fill="#E0E0E0" d="M120.82 25.737h79.139v13.331H120.82zm.159 36.478h57.994v13.331h-57.994z"/><path fill="#6C63FF" d="M120.979 117.021h130.084v48.881H120.979z"/><path fill="#E0E0E0" d="M221.586 25.923h29.478v13.331h-29.478zm0 20.736h29.478V59.99h-29.478zm0 20.739h29.478v13.331h-29.478z"/><path fill="url(#f)" d="M132.035 2.593V32.22h-27.077v-2.594l24.48-27.032z"/><path fill="#EEE" d="M104.892 29.625l24.545-27.032v27.032z"/></g></svg>