<svg width="680" height="488" xmlns="http://www.w3.org/2000/svg"><defs><linearGradient x1="50%" y1="100%" x2="50%" y2=".036%" id="a"><stop stop-color="gray" stop-opacity=".25" offset="0%"/><stop stop-color="gray" stop-opacity=".12" offset="54%"/><stop stop-color="gray" stop-opacity=".1" offset="100%"/></linearGradient><linearGradient x1="50%" y1="99.957%" x2="50%" y2="0%" id="b"><stop stop-color="gray" stop-opacity=".25" offset="0%"/><stop stop-color="gray" stop-opacity=".12" offset="54%"/><stop stop-color="gray" stop-opacity=".1" offset="100%"/></linearGradient><linearGradient x1="49.993%" y1="100.005%" x2="49.993%" y2="-.002%" id="c"><stop stop-color="gray" stop-opacity=".25" offset="0%"/><stop stop-color="gray" stop-opacity=".12" offset="54%"/><stop stop-color="gray" stop-opacity=".1" offset="100%"/></linearGradient><linearGradient x1="50.021%" y1="0%" x2="50.021%" y2="100%" id="d"><stop stop-color="#E0E0E0" offset="0%"/><stop stop-color="#FCCC63" offset="31%"/><stop stop-color="#F55F44" offset="77%"/></linearGradient><linearGradient x1="50%" y1="0%" x2="50%" y2="100%" id="e"><stop stop-color="#E0E0E0" offset="0%"/><stop stop-color="#FCCC63" offset="31%"/><stop stop-color="#F55F44" offset="77%"/></linearGradient><linearGradient x1="49.972%" y1="99.913%" x2="49.972%" y2="-.087%" id="f"><stop stop-color="gray" stop-opacity=".25" offset="0%"/><stop stop-color="gray" stop-opacity=".12" offset="54%"/><stop stop-color="gray" stop-opacity=".1" offset="100%"/></linearGradient><linearGradient x1="50.289%" y1="99.999%" x2="50.289%" y2=".187%" id="g"><stop stop-color="gray" stop-opacity=".25" offset="0%"/><stop stop-color="gray" stop-opacity=".12" offset="54%"/><stop stop-color="gray" stop-opacity=".1" offset="100%"/></linearGradient></defs><g transform="matrix(-1 0 0 1 677 0)" fill="none" fill-rule="evenodd"><path d="M588.396 421.908a83.132 83.132 0 01-16.447-.22c-60.037-6.632-141.794-4.746-208.44 36.52-92.17 57.058-236.618 8.21-300.337-18.364-48.686-20.297-73.961-70.01-58.78-116.675.214-.659.434-1.317.666-1.976 9.553-27.731 28.41-49.435 51.76-60.939 20.354-10.027 50.07-30.965 63.292-71.198 5.463-16.612 12.955-32.24 22.687-45.863 26.058-36.483 80.61-90.812 174.431-90.476a151.34 151.34 0 0148.336 8.178c34.275 11.67 65.232 35.397 88.84 68.29 15.062 20.98 37.636 40.482 69.952 42.072 44.85 2.219 87.652 23.086 119.761 60.221.926 1.068 1.84 2.142 2.755 3.228 57.17 68.059 17.462 180.57-58.476 187.202z" stroke="#3030F2" stroke-width="5" fill="#232133" fill-rule="nonzero"/><circle cx="8.975" cy="8.882" r="8.566" opacity=".7" transform="translate(154 396.717)" fill="url(#a)" fill-rule="nonzero"/><circle fill="#3030F2" fill-rule="nonzero" opacity=".2" cx="163" cy="405.717" r="8"/><circle fill="#FFF" fill-rule="nonzero" cx="119" cy="247.717" r="3"/><circle fill="#FFF" fill-rule="nonzero" cx="336" cy="423.717" r="3"/><circle fill="#FFF" fill-rule="nonzero" cx="209" cy="437.717" r="2"/><circle fill="#FFF" fill-rule="nonzero" cx="584" cy="356.717" r="2"/><circle fill="#FFF" fill-rule="nonzero" cx="486" cy="203.717" r="2"/><circle fill="#FFF" fill-rule="nonzero" cx="624" cy="277.717" r="2"/><circle fill="#FFF" fill-rule="nonzero" cx="174" cy="147.717" r="3"/><path fill="#FFF" fill-rule="nonzero" d="M90 351.212h-2.492v-2.495h-1.016v2.495H84v1.016h2.492v2.49h1.016v-2.49H90zm68-1h-2.492v-2.495h-1.016v2.495H152v1.016h2.492v2.49h1.016v-2.49H158zm97 54h-2.492v-2.495h-1.016v2.495H249v1.016h2.492v2.49h1.016v-2.49H255zM389 78.964h-1.247v-1.247h-.506v1.247H386v.506h1.247v1.247h.506V79.47H389zm176 113h-1.247v-1.247h-.506v1.247H562v.506h1.247v1.247h.506v-1.247H565zm-104 72h-1.247v-1.247h-.506v1.247H458v.506h1.247v1.247h.506v-1.247H461zm-420 47h-1.247v-1.247h-.506v1.247H38v.506h1.247v1.247h.506v-1.247H41zm50 101h-1.247v-1.247h-.506v1.247H88v.506h1.247v1.247h.506v-1.247H91zm160-319h-1.247v-1.247h-.506v1.247H248v.506h1.247v1.247h.506V93.47H251zm-75 177h-1.247v-1.247h-.506v1.247H173v.506h1.247v1.247h.506v-1.247H176zm16-50h-1.247v-1.247h-.506v1.247H189v.506h1.247v1.247h.506v-1.247H192z"/><circle cx="7.594" cy="7.281" r="7.2" opacity=".7" transform="translate(436 322.717)" fill="url(#b)" fill-rule="nonzero"/><circle fill="#3030F2" fill-rule="nonzero" opacity=".2" cx="444" cy="330.717" r="6"/><circle fill="#3030F2" fill-rule="nonzero" opacity=".2" cx="460.5" cy="375.217" r="7.5"/><path d="M172.983 182.371a91.873 91.873 0 00-10.405-42.767c-3.263-6.2-6.242-10.05-8.537-12.42a6.097 6.097 0 00-6.98-1.342 6.326 6.326 0 00-2.443 1.574c-3.097 3.207-5.897 7.448-8.323 11.957a92.259 92.259 0 00-10.92 43.955v9.194h-5.904V85.6c0-22.405-5.018-44.507-14.862-64.109C99.948 12.2 95.69 6.427 92.427 2.88a8.445 8.445 0 00-12.692 0c-4.424 4.806-8.419 11.162-11.89 17.915-10.339 20.03-15.588 42.767-15.588 65.826v105.86h-5.101v-9.64a92.235 92.235 0 00-10.921-43.926c-2.444-4.508-5.244-8.75-8.323-11.957a6.11 6.11 0 00-7.134-1.295l.214.113a6.397 6.397 0 00-1.992 1.39c-2.289 2.376-5.267 6.22-8.53 12.42A91.873 91.873 0 00.064 182.353v159.782H18.28l-2.01 13.133v39.28h14.9v-39.28l-1.992-13.139h17.954V196.603h5.1V341.5H66.78l-2.086 13.768v39.28h14.898v-39.28l-2.087-13.786h19.619l-2.099 13.786v39.28h14.898v-39.28l-2.086-13.786h11.616V196.621h5.904v145.746h4.785v-.22h15.826l-1.986 13.121v39.28h14.899v-39.28l-1.992-13.139h16.094V182.371z" opacity=".7" transform="translate(224 .717)" fill="url(#c)" fill-rule="nonzero"/><path fill="#535461" fill-rule="nonzero" d="M259 347.717h-15l2.68-18h9.64z"/><path d="M247.423 337.637h10.195l-.683-5.366h-8.83z" opacity=".1" fill="#000" fill-rule="nonzero"/><path fill="#535461" fill-rule="nonzero" d="M380 347.717h-15l2.675-18h9.65z"/><path d="M367.044 337.637h9.79l-.656-5.366H367.7z" opacity=".1" fill="#000" fill-rule="nonzero"/><path fill="#535461" fill-rule="nonzero" d="M305 347.717h-15l2.675-18h9.65z"/><path d="M292.48 337.637h10.202l-.684-5.366h-8.834z" opacity=".1" fill="#000" fill-rule="nonzero"/><path fill="#535461" fill-rule="nonzero" d="M333 347.717h-15l2.675-18h9.644z"/><path d="M321.072 337.637h9.79l-.662-5.366h-8.472z" opacity=".1" fill="#000" fill-rule="nonzero"/><path fill="#535461" fill-rule="nonzero" d="M259 190.717h101v4H259z"/><path d="M374.898 126.581a5.759 5.759 0 00-4.248-1.864 5.759 5.759 0 00-4.248 1.864c-2.958 3.121-5.633 7.245-7.967 11.63A91.026 91.026 0 00348 180.937v154.781h44.998V180.283a90.694 90.694 0 00-9.941-41.62c-3.126-6.03-5.97-9.803-8.16-12.082zm-127.802 0a5.759 5.759 0 014.248-1.864c1.618 0 3.162.677 4.248 1.864 2.964 3.121 5.634 7.245 7.973 11.63A91.096 91.096 0 01274 180.937v154.781h-44.998V180.283a90.694 90.694 0 019.941-41.62c3.12-6.03 5.964-9.803 8.154-12.082z" fill="#A6A6A6" fill-rule="nonzero"/><path fill="#535461" fill-rule="nonzero" d="M230 183.717l10 .053v12.947h-10zm35 0l10 .053v12.947h-10zm84 0l10 .053v12.947h-10zm33 0l10 .053v12.947h-10z"/><path d="M263.785 137.624c-2.268-4.367-4.855-8.475-7.727-11.584a5.466 5.466 0 00-6.587-1.259 5.886 5.886 0 011.663 1.259c2.866 3.109 5.459 7.217 7.72 11.584a92.692 92.692 0 0110.111 42.555v154.154h4.93V180.185a92.77 92.77 0 00-10.11-42.56zm98.328.835c2.316-4.368 4.97-8.476 7.905-11.584a5.904 5.904 0 011.952-1.383 5.707 5.707 0 00-6.488 1.383c-2.94 3.108-5.595 7.216-7.91 11.584a91.023 91.023 0 00-10.352 42.554v154.178h4.542V181.025a90.953 90.953 0 0110.351-42.566z" opacity=".1" fill="#000" fill-rule="nonzero"/><path d="M251.705 385.717h-.41c-4.03 0-7.295-3.048-7.295-6.81v-31.19h15v31.19c0 1.807-.769 3.539-2.137 4.816-1.368 1.277-3.223 1.994-5.158 1.994z" fill="url(#d)" fill-rule="nonzero"/><path d="M297.709 385.717h-.418c-4.028-.003-7.291-3.05-7.291-6.81v-31.19h15v31.19c0 3.76-3.263 6.807-7.291 6.81zm27.993 0h-.423c-4.023-.01-7.279-3.055-7.279-6.81v-31.19h15v31.19c0 3.762-3.267 6.81-7.298 6.81zm47.007 0h-.399c-1.937.003-3.797-.713-5.168-1.99-1.371-1.277-2.142-3.011-2.142-4.82v-31.19h15v31.19c0 3.76-3.263 6.807-7.291 6.81z" fill="url(#e)" fill-rule="nonzero"/><path d="M316.7 4.513a7.745 7.745 0 00-5.95-2.796 7.745 7.745 0 00-5.95 2.796c-4.12 4.681-7.89 10.865-11.186 17.446C283.922 41.466 279 63.61 279 86.063v248.654h63V85.065c0-21.817-4.71-43.361-13.919-62.429-4.327-9.046-8.314-14.672-11.381-18.123z" fill="#B3B3B3" fill-rule="nonzero"/><rect fill="#535461" fill-rule="nonzero" x="294" y="32.717" width="33" height="16" rx="8"/><path d="M279.283 94.927h62.358v2.466h-62.358z" opacity=".1" fill="#000" fill-rule="nonzero"/><path d="M450.956 185.635A20.173 20.173 0 00445 180.39a20.01 20.01 0 00-22.855 2.008 19.996 19.996 0 00-5.94 22.154 20.006 20.006 0 0018.79 13.164c.425 0 .85 0 1.264-.046a20 20 0 0016.915-11.61 19.99 19.99 0 00-2.212-20.391l-.006-.035z" fill="url(#f)" fill-rule="nonzero"/><path d="M454 197.723c-.002 10.023-7.79 18.32-17.791 18.953-.392 0-.796.041-1.2.041a19.002 19.002 0 01-12.218-33.558 18.994 18.994 0 0121.716-1.89 19.074 19.074 0 015.654 5.01A18.908 18.908 0 01454 197.724z" fill="#3030F2" fill-rule="nonzero" opacity=".2"/><path d="M430.182 185.919a17.63 17.63 0 00-2.543 1.544 4.257 4.257 0 00-1.361 1.405 2.05 2.05 0 00-.032 2.005c.415.654 1.214.75 1.918.799a4.31 4.31 0 002.196-.254c.477-.272.91-.634 1.283-1.072l1.466-1.532c.525-.533 1.05-1.266.846-2.017-.247-.545-.715-.91-1.246-.969-1.264-.284-2.574-.018-3.678.745" fill="#000" fill-rule="nonzero" opacity=".1"/><circle cx="1" cy=".91" r="1" opacity=".1" transform="translate(423 204.717)" fill="#000" fill-rule="nonzero"/><ellipse cx="3.618" cy="4" rx="3.371" ry="3.577" opacity=".1" transform="translate(441 195.717)" fill="#000" fill-rule="nonzero"/><path d="M449.772 186.973a4.744 4.744 0 11-5.372-4.756 18.106 18.106 0 015.372 4.756zm.718 21.794c-3.48 4.472-9.024 7.273-15.065 7.611 0-.25-.037-.5-.037-.755.003-3.227 2.02-6.176 5.212-7.626 3.193-1.45 7.018-1.151 9.89.77z" opacity=".1" fill="#000" fill-rule="nonzero"/><path d="M189.122 294.53a14.58 14.58 0 00-4.308-3.82 14.47 14.47 0 00-16.61 1.375 14.51 14.51 0 00-4.321 16.115 14.485 14.485 0 0013.689 9.517c.307 0 .603 0 .917-.03a14.484 14.484 0 0012.19-8.417 14.513 14.513 0 00-1.569-14.74h.012z" fill="url(#g)" fill-rule="nonzero"/><path d="M191 303.247c-.002 7.124-5.538 13.02-12.649 13.47h-.852a13.501 13.501 0 01-8.677-23.84 13.502 13.502 0 0115.427-1.353 13.519 13.519 0 014.02 3.578 13.428 13.428 0 012.731 8.145z" fill="#3030F2" fill-rule="nonzero" opacity=".2"/><path d="M174.113 294.855c-.66.288-1.295.63-1.9 1.024a3.153 3.153 0 00-1.021.938 1.26 1.26 0 000 1.337c.379.384.902.578 1.432.532a3.583 3.583 0 001.647-.168c.359-.181.685-.424.965-.717l1.094-1.019c.383-.359.8-.845.631-1.342a1.128 1.128 0 00-.93-.649 3.79 3.79 0 00-2.747.498" fill="#000" fill-rule="nonzero" opacity=".1"/><circle cx=".965" cy=".97" r="1" opacity=".1" transform="translate(167 308.717)" fill="#000" fill-rule="nonzero"/><ellipse cx="3.096" cy="2.933" rx="2.622" ry="2.913" opacity=".1" transform="translate(181 301.717)" fill="#000" fill-rule="nonzero"/><path d="M188.844 296.147a3.23 3.23 0 11-3.635-3.23 12.207 12.207 0 013.635 3.23zm-.316 15.207c-2.192 3.024-5.684 4.918-9.49 5.148v-.539c.003-2.181 1.273-4.176 3.284-5.156a6.119 6.119 0 016.228.52l-.022.027z" opacity=".1" fill="#000" fill-rule="nonzero"/><path d="M497 320.717l12 7.193-9.369 11.807"/><circle fill="#FFF" fill-rule="nonzero" cx="567" cy="254.717" r="1"/></g></svg>