<svg width="108" height="108" xmlns="http://www.w3.org/2000/svg" xmlns:xlink="http://www.w3.org/1999/xlink"><defs><rect id="a" x="0" y="0" width="108" height="108" rx="54"/></defs><g fill="none" fill-rule="evenodd"><mask id="b" fill="#fff"><use xlink:href="#a"/></mask><use fill="#3030F2" xlink:href="#a"/><path d="M72.646 29.419l4.542 12.351L91 45.833l-13.812 4.062-4.529 12.314 4.53 12.315L91 78.586l-13.812 4.062L72.646 95l-4.543-12.352-13.812-4.062 13.812-4.062 4.528-12.315-4.528-12.314-13.812-4.062 13.812-4.063 4.543-12.351zM36.354 13l4.543 12.352 13.812 4.062-13.812 4.062-4.529 12.314 4.529 12.315 13.812 4.062-13.812 4.063-4.543 12.351-4.542-12.351L18 62.167l13.812-4.062L36.34 45.79l-4.528-12.314L18 29.414l13.812-4.062L36.354 13z" fill="#FFF" mask="url(#b)"/></g></svg>