<svg width="41" height="19" fill="none" xmlns="http://www.w3.org/2000/svg"><path d="M9.502 9.484c0 2.267-1.814 4.09-4.035 4.09S1.43 11.75 1.43 9.484s1.815-4.089 4.036-4.089c2.22 0 4.035 1.823 4.035 4.09zm7.445-4.301c0 2.266-1.815 4.09-4.036 4.09-2.22 0-4.036-1.824-4.036-4.09s1.815-4.09 4.036-4.09c2.22 0 4.036 1.824 4.036 4.09zm0 8.603c0 2.266-1.815 4.089-4.036 4.089-2.22 0-4.036-1.823-4.036-4.09 0-2.265 1.815-4.088 4.036-4.088 2.22 0 4.036 1.823 4.036 4.089zm-2.441-4.514h25.523m-5.004 3.976v-3.226m4.254 3.226v-3.226" stroke="#fff" stroke-width="1.5"/></svg>