<svg viewBox="0 0 22 22" fill="none" xmlns="http://www.w3.org/2000/svg"><path d="M22 13.378v8.133h-4.715v-7.589c0-1.906-.682-3.207-2.39-3.207-1.302 0-2.077.877-2.418 1.725-.125.303-.157.725-.157 1.15v7.921H7.603s.064-12.853 0-14.184h4.717v2.01l-.031.046h.03v-.046c.627-.965 1.746-2.344 4.251-2.344 3.104 0 5.43 2.028 5.43 6.385zM2.67.488C1.054.489 0 1.549 0 2.94c0 1.362 1.025 2.452 2.607 2.452h.031c1.645 0 2.668-1.09 2.668-2.452C5.275 1.547 4.283.49 2.669.49zM.28 21.512h4.715V7.327H.28V21.51z" fill="#fff"/></svg>