<svg width="120" height="49" fill="none" xmlns="http://www.w3.org/2000/svg"><g clip-path="url(#clip0)" fill="#fff"><path d="M7.695 46.62c0 1.376-1.179 2.245-2.878 2.245h-3.18c-.216 0-.342-.123-.342-.333v-8.015c0-.211.126-.334.341-.334h2.765c1.61 0 2.851.782 2.851 2.196 0 .931-.556 1.763-1.774 2.059 1.469.17 2.217 1.09 2.217 2.181zm-5.4-5.635v3.128h1.597c1.673 0 2.334-.82 2.334-1.675 0-.97-.862-1.453-1.825-1.453H2.295zm4.374 5.608c0-.905-.787-1.713-2.498-1.713H2.294v3.177h2.522c1.065 0 1.852-.56 1.852-1.464zm13.678-1.116h-2.142v3.052c0 .21-.126.333-.329.333h-.33c-.203 0-.328-.123-.328-.333v-8.015c0-.211.113-.334.329-.334h3.306c1.66 0 2.612 1.242 2.612 2.68 0 1.303-.8 2.395-2.17 2.58.075 1.004.686 2.717 1.888 2.717.24 0 .482-.05.698-.161.203-.1.34-.088.457.111l.063.111c.09.173.075.334-.102.448a2.171 2.171 0 01-1.178.334c-2.053 0-2.687-2.43-2.774-3.523zm.317-.796c1.104 0 1.762-.782 1.762-1.836s-.658-1.863-1.762-1.863h-2.459v3.699h2.46zm11.826 3.798l3.22-8.03c.063-.187.203-.272.392-.272h.607c.189 0 .33.088.392.272l3.231 8.03c.09.234-.012.383-.266.383h-.305c-.204 0-.33-.087-.407-.272l-.634-1.587h-4.63l-.634 1.587c-.063.188-.191.272-.392.272h-.317c-.245 0-.347-.146-.257-.383zm5.933-2.284l-2.016-5.087-2.002 5.087h4.018zm11.157 2.334v-8.015c0-.211.125-.334.34-.334h.165c.165 0 .305.061.419.2l5.06 6.7v-6.566c0-.211.125-.334.34-.334h.33c.203 0 .328.123.328.334v8.015c0 .21-.113.333-.329.333h-.164a.487.487 0 01-.42-.199l-5.07-6.726v6.589c0 .21-.126.333-.341.333h-.317c-.216.003-.341-.12-.341-.33zm17.19 0v-8.015c0-.211.126-.334.342-.334h2.435c2.725 0 4.5 1.947 4.5 4.343 0 2.395-1.775 4.342-4.5 4.342h-2.435c-.216-.003-.341-.126-.341-.336zm2.777-.472c2.091 0 3.473-1.587 3.473-3.537 0-1.948-1.382-3.538-3.473-3.538h-1.774v7.072h1.774v.003zm14.019.472v-8.015c0-.211.126-.334.341-.334h.318c.215 0 .34.123.34.334v8.015c0 .21-.125.333-.34.333h-.317c-.216 0-.342-.123-.342-.333zm11.192 0v-8.015c0-.211.126-.334.341-.334h.165c.165 0 .305.061.419.2l5.059 6.7v-6.566c0-.211.126-.334.341-.334h.329c.203 0 .329.123.329.334v8.015c0 .21-.114.333-.329.333h-.165a.486.486 0 01-.418-.199l-5.071-6.726v6.589c0 .21-.126.333-.341.333h-.318c-.212.003-.34-.12-.34-.33zm16.506-3.995c0-2.518 2.103-4.492 4.578-4.492 1.104 0 2.067.173 2.94.709.165.111.216.26.114.46l-.09.172c-.101.2-.266.25-.469.123-.991-.544-1.712-.582-2.498-.582-1.915 0-3.552 1.575-3.552 3.599 0 1.862 1.344 3.598 3.74 3.598.811 0 1.61-.187 2.307-.67v-2.009h-2.22c-.216 0-.341-.123-.341-.334v-.15c0-.198.125-.333.341-.333h2.788c.216 0 .341.123.341.334v2.63c0 .172-.075.322-.305.495-1.014.755-2.142.919-2.953.919-2.743-.003-4.721-2.026-4.721-4.469zM0 .076V18.97c0 2.785.691 5.646 2.229 7.227 1.538 1.581 5.307 4.442 11.536 2.182V22.43s-4.482 3.66-7.844-.375a3.32 3.32 0 01-.77-2.108V14.15h8.689V9.333H5.152V.076H0zm25.13 9.711c-5.477 0-9.92 4.348-9.92 9.71 0 5.362 4.443 9.71 9.92 9.71 5.479 0 9.921-4.345 9.921-9.71-.003-5.365-4.442-9.71-9.92-9.71zm0 14.45c-2.674 0-4.843-2.122-4.843-4.74 0-2.618 2.169-4.741 4.844-4.741 2.674 0 4.843 2.123 4.843 4.74 0 2.619-2.169 4.742-4.843 4.742zM36.416 9.333v11.59c0 2.334 2.615 7.904 8.844 8.279 5.612.34 8.383-3.236 8.383-3.236s1.768 3.162 7.458 3.162c6.382 0 9.613-5.042 9.613-8.881V9.333h-5.152v9.935c0 2.258-1.616 4.967-4.613 4.967-2.998 0-4.844-2.785-4.844-3.84V9.33H50.95v10.838c0 1.58-1.998 4.064-4.769 4.064-2.77 0-4.69-2.635-4.69-4.064V9.33h-5.075v.003zm35.82 19.854V9.333h5.152v1.73s3.462-3.162 9.305-.752c5.612 2.86 5.151 8.58 5.151 8.58v10.313h-4.921V18.592c0-2.184-2.615-4.366-4.922-4.366-2.306 0-4.768 1.956-4.768 5.119v9.842h-4.997zM93.598 0v6.624h4.999V0h-5zm0 29.204h4.999V9.333h-5v19.871zm26.016-12.679c-.7-2.744-4.048-6.935-9.421-6.935-5.373 0-10.044 4.039-10.044 9.755 0 5.716 4.359 9.678 9.888 9.678 4.751 0 7.163-2.744 7.163-2.744l-4.362-3.048s-4.362 2.82-7.163-1.755h14.172c0 .003.467-2.207-.233-4.951zm-13.239-.153c3.659-4.04 7.396 0 7.396 0h-7.396z"/></g><defs><clipPath id="clip0"><path fill="#fff" d="M0 0h120v49H0z"/></clipPath></defs></svg>