<svg width="29" height="35" fill="none" xmlns="http://www.w3.org/2000/svg"><path d="M14.23 34.054C6.382 34.054 0 27.515 0 19.474a.64.64 0 01.638-.645.64.64 0 01.637.646c0 7.326 5.812 13.287 12.955 13.287 7.156 0 12.98-5.961 12.98-13.287a.64.64 0 01.638-.646.64.64 0 01.638.646c0 8.04-6.394 14.579-14.256 14.579z" fill="#fff"/><path d="M14.23 28.17c-4.643 0-8.278-3.819-8.278-8.695a.64.64 0 01.638-.646.64.64 0 01.638.646c0 4.15 3.074 7.403 7.002 7.403 3.942 0 7.028-3.254 7.028-7.403a.64.64 0 01.638-.646.64.64 0 01.638.646c0 4.877-3.648 8.694-8.304 8.694z" fill="#fff"/><path d="M6.59 20.12a.64.64 0 01-.638-.645V2.257H1.276v17.218a.64.64 0 01-.638.645.64.64 0 01-.638-.645V1.612A.64.64 0 01.638.966H6.59a.64.64 0 01.638.646v17.863a.64.64 0 01-.638.645zm21.258 0a.64.64 0 01-.637-.645V2.257h-4.677v17.218a.64.64 0 01-.638.645.64.64 0 01-.638-.645V1.612a.64.64 0 01.638-.646h5.952a.64.64 0 01.638.646v17.863a.64.64 0 01-.638.645z" fill="#fff"/><path d="M5.952 7.423H1.275a.64.64 0 01-.637-.646.64.64 0 01.637-.646h4.677a.64.64 0 01.638.646.64.64 0 01-.638.646zm21.258 0h-4.676a.64.64 0 01-.638-.646.64.64 0 01.638-.646h4.677a.64.64 0 01.638.646.64.64 0 01-.638.646z" fill="#fff"/></svg>