<svg width="374" height="230" xmlns="http://www.w3.org/2000/svg"><g fill="none"><path d="M374 147.73a76.62 76.62 0 01-2.245 18.49 72.043 72.043 0 01-1.756 5.988 70.705 70.705 0 01-2.832 7.086 64.864 64.864 0 01-1.712 3.435 46.208 46.208 0 01-3.864 18.57 47.877 47.877 0 01-23.237 23.939A48.885 48.885 0 01317.61 230H71.003a62.143 62.143 0 01-31.251-8.353l-.146-.083a63.757 63.757 0 01-3.957-2.514 62.047 62.047 0 01-8.12-6.693 60.413 60.413 0 01-8.925-11.058 59.002 59.002 0 01-9.078-31.504C3.509 159.239 0 146.593 0 133.005c0-17.145 5.576-32.784 14.737-44.623a62.738 62.738 0 016.258-6.963 58.24 58.24 0 017.157-5.857 55.69 55.69 0 016.35-3.81 52.622 52.622 0 012.776-1.318 50.199 50.199 0 012.496-1.025 52.929 52.929 0 013.067-1.057 47.958 47.958 0 013.064-.845 49.609 49.609 0 014.522-.882c1.27-.188 2.54-.318 3.81-.416a48.61 48.61 0 013.055-.13h.556c1.13 0 2.254.044 3.369.12.117-.235.244-.473.362-.705.444-.847.905-1.692 1.368-2.517a.08.08 0 010-.023c.08-.146.159-.288.242-.428a63.47 63.47 0 011.165-2.01c.184-.317.365-.616.552-.914a2.63 2.63 0 01.13-.216c.191-.318.385-.635.582-.953a107.12 107.12 0 013.057-4.616l.27-.387c.165-.235.318-.464.502-.699A93.3 93.3 0 0170.79 50.9c.318-.432.635-.86.978-1.27a166.704 166.704 0 012.54-3.175 82.5 82.5 0 013.093-3.556l1.356-1.48c.067-.07.124-.133.187-.196.162-.175.318-.35.493-.518.727-.771 1.473-1.527 2.222-2.28a121.038 121.038 0 0112.162-10.594c.168-.133.34-.26.508-.387a128.701 128.701 0 0116.547-10.591c.336-.194.679-.375 1.025-.553a134.58 134.58 0 0113.492-6.21 141.895 141.895 0 0112.863-4.388 144.946 144.946 0 018.262-2.117A147.147 147.147 0 01171.362.2c2.54-.129 5.109-.196 7.706-.2a147.677 147.677 0 0137.151 4.699c.255.385.69.612 1.153.6h1.067c.463.127.924.254 1.387.387 2.59.745 5.141 1.56 7.656 2.442l.635.228a136.688 136.688 0 0118.07 7.938 130.41 130.41 0 0115.131 9.346 131.18 131.18 0 012.197 1.613 58.905 58.905 0 012.674-1.613 52.593 52.593 0 0111.075-4.72 50.526 50.526 0 0124.844-.972c10.558 2.238 20.115 7.794 27.835 15.696a64.943 64.943 0 018.347 10.598 69.843 69.843 0 015.833 11.423c.055.137.108.264.156.397a73.36 73.36 0 013.27 10.588c.039.184.083.365.121.55.769 3.49 1.29 7.03 1.563 10.594 0 .127 0 .257.025.39a78.65 78.65 0 01.203 5.588c0 1.683-.057 3.353-.162 5.01 0 .181-.025.368-.041.556-.029.48-.07.952-.111 1.435a60.26 60.26 0 016.789 6.403 60.278 60.278 0 012.686 3.144 66.865 66.865 0 016.922 10.594c5.37 10.134 8.456 22.056 8.456 34.816z" fill="#6C63FF" opacity=".1"/><path d="M338 223.963c0 2.202-7.484 4.264-20.543 6.037H70.45a61.608 61.608 0 01-31.303-8.48l-.146-.083c3.753-1.386 10.527-2.679 19.748-3.845l.413-.052c4.135-.512 8.756-.999 13.807-1.46.127 0 .257-.02.384-.035 4.008-.361 8.27-.7 12.79-1.015.142 0 .282-.026.425-.033 1.743-.126 3.522-.247 5.337-.36l.7-.046c13.215-.831 28.236-1.495 44.526-1.934h.02c2.281-.064 4.587-.12 6.917-.17 2.591-.063 5.214-.117 7.869-.165 2.026-.045 4.077-.077 6.135-.11h.047c9.284-.141 18.877-.212 28.685-.212 24.255 0 47.18.448 67.493 1.254h.057c3.124.122 6.19.258 9.18.396l2.544.123c3.373.163 6.66.338 9.86.525C313.56 216.467 338 219.99 338 223.963z" fill="#6C63FF" opacity=".1"/><g opacity=".2" transform="translate(197 125)"><path d="M18.837 85.74c-.01.342-.05.683-.118 1.019a214.38 214.38 0 00-6.673-.953v-.273c.02-.952.295-1.881.795-2.692.654-1.036 1.649-1.683 2.745-1.648 1.096.035 2.046.743 2.634 1.813.445.84.658 1.784.617 2.733z" fill="#3F3D56"/><ellipse fill="#3F3D56" transform="rotate(-88.19 15.62 80.206)" cx="15.621" cy="80.206" rx="4.448" ry="3.4"/><ellipse fill="#3F3D56" transform="rotate(-88.19 15.794 74.77)" cx="15.794" cy="74.77" rx="4.448" ry="3.4"/><ellipse fill="#3F3D56" transform="rotate(-88.19 15.964 69.334)" cx="15.964" cy="69.334" rx="4.448" ry="3.4"/><ellipse fill="#3F3D56" transform="rotate(-88.19 16.135 63.898)" cx="16.135" cy="63.898" rx="4.448" ry="3.4"/><path d="M4.57 26.287a15.766 15.766 0 01-1.208-1.905l8.98-1.184-9.666-.232a16.303 16.303 0 01.098-12.904l12.748 7.128L3.845 8.033A16.298 16.298 0 0118.988.364a16.294 16.294 0 0113.75 9.951 16.273 16.273 0 01-2.57 16.77 16.127 16.127 0 011.763 3.025l-11.785 5.652 12.497-3.756a16.292 16.292 0 01-3.12 15.212c5.043 6.837 3.98 16.399-2.443 21.963-6.421 5.563-16.044 5.26-22.103-.697-6.058-5.957-6.517-15.567-1.053-22.072a16.273 16.273 0 01.636-20.125h.01z" fill="#6C63FF"/><path d="M33.336 37.267a16.187 16.187 0 01-3.813 9.951c5.043 6.837 3.98 16.399-2.443 21.963-6.421 5.563-16.044 5.26-22.103-.697-6.058-5.957-6.517-15.567-1.053-22.072-2.087-2.836 29.47-10.97 29.412-9.145z" fill="#000" opacity=".1"/></g><g opacity=".2" transform="translate(149 125)"><path d="M18.837 85.74c-.01.342-.05.683-.118 1.019a214.38 214.38 0 00-6.673-.953v-.273c.02-.952.295-1.881.795-2.692.654-1.036 1.649-1.683 2.745-1.648 1.096.035 2.046.743 2.634 1.813.445.84.658 1.784.617 2.733z" fill="#3F3D56"/><ellipse fill="#3F3D56" transform="rotate(-88.19 15.617 80.208)" cx="15.617" cy="80.208" rx="4.448" ry="3.4"/><ellipse fill="#3F3D56" transform="rotate(-88.19 15.79 74.772)" cx="15.791" cy="74.772" rx="4.448" ry="3.4"/><ellipse fill="#3F3D56" transform="rotate(-88.19 15.96 69.336)" cx="15.961" cy="69.336" rx="4.448" ry="3.4"/><ellipse fill="#3F3D56" transform="rotate(-88.19 16.131 63.9)" cx="16.131" cy="63.899" rx="4.448" ry="3.4"/><path d="M4.57 26.287a15.766 15.766 0 01-1.208-1.905l8.98-1.184-9.666-.232a16.303 16.303 0 01.098-12.904l12.748 7.128L3.845 8.033A16.298 16.298 0 0118.988.364a16.294 16.294 0 0113.75 9.951 16.273 16.273 0 01-2.57 16.77 16.127 16.127 0 011.763 3.025l-11.785 5.652 12.497-3.756a16.292 16.292 0 01-3.12 15.212c5.043 6.837 3.98 16.399-2.443 21.963-6.421 5.563-16.044 5.26-22.103-.697-6.058-5.957-6.517-15.567-1.053-22.072a16.273 16.273 0 01.636-20.125h.01z" fill="#6C63FF"/><path d="M33.336 37.267a16.187 16.187 0 01-3.813 9.951c5.043 6.837 3.98 16.399-2.443 21.963-6.421 5.563-16.044 5.26-22.103-.697-6.058-5.957-6.517-15.567-1.053-22.072-2.087-2.836 29.47-10.97 29.412-9.145z" fill="#000" opacity=".1"/></g><g opacity=".2" transform="translate(263 50)"><path d="M36.358 163.777a11.647 11.647 0 01-.234 1.923 379.948 379.948 0 00-12.973-1.815v-.522c.04-1.826.574-3.608 1.545-5.163 1.281-1.983 3.203-3.226 5.328-3.162 2.124.063 3.972 1.426 5.126 3.478a10.175 10.175 0 011.208 5.261z" fill="#3F3D56"/><ellipse fill="#3F3D56" transform="rotate(-88.19 30.106 153.161)" cx="30.106" cy="153.161" rx="8.531" ry="6.603"/><ellipse fill="#3F3D56" transform="rotate(-88.19 30.44 142.74)" cx="30.439" cy="142.739" rx="8.531" ry="6.603"/><ellipse fill="#3F3D56" transform="rotate(-88.19 30.776 132.318)" cx="30.776" cy="132.318" rx="8.531" ry="6.603"/><ellipse fill="#3F3D56" transform="rotate(-88.282 30.73 121.432)" cx="30.73" cy="121.432" rx="8.535" ry="6.606"/><path d="M8.66 49.803a31.334 31.334 0 01-2.342-3.646l17.43-2.27-18.76-.446a30.895 30.895 0 01.186-24.738l24.75 13.662L7.26 14.81C13.506 4.885 24.846-.766 36.647.164c11.8.93 22.087 8.287 26.658 19.065 4.57 10.778 2.66 23.172-4.953 32.12a31.117 31.117 0 013.425 5.802L38.898 67.994l24.257-7.21c3.106 10.095.836 21.055-6.033 29.137 9.787 13.107 7.722 31.437-4.743 42.102-12.465 10.665-31.143 10.084-42.903-1.335-11.759-11.419-12.65-29.84-2.046-42.313A30.904 30.904 0 018.66 49.8v.003z" fill="#6C63FF"/><path d="M64.504 70.849a30.86 30.86 0 01-7.37 19.079c9.787 13.107 7.722 31.436-4.743 42.101-12.465 10.666-31.142 10.085-42.902-1.335-11.76-11.419-12.65-29.84-2.046-42.312-4.082-5.442 57.173-21.033 57.06-17.533z" fill="#000" opacity=".1"/></g><path fill="#F1C0C0" d="M50 214l3.341-.01h4.712l5.956-96.324L123 19.677l-2.564-2.74V10L56.638 115.396z"/><path fill="#000" opacity=".1" d="M54 215h4.335l5.931-96.298L123 20.739 120.447 18l-60.583 99.234z"/><path fill="#F1C0C0" d="M40 215.593l152.841 11.398.13.009 147.918-8.865.111-.006v-6.087l-162.986-2.915L42.035 209h-.993l-.109.683z"/><path fill="#000" opacity=".1" d="M40 215.593l152.841 11.398.13.009 147.918-8.865.111-.118v-5.848h-.13l-148.029 4.818L42.035 209h-.022l-.268.17-.812.513z"/><path fill="#000" opacity=".1" d="M40 215.487L192 227v-10.105L41.736 209l-.808.517z"/><path fill="#F1C0C0" d="M120 17.732l67.066 71.97-2.073 126.598 5.696.687.096.013h5.696l.682-121.861 125.582 41.941 2.117 74.677 4.585.514 1.553.174-3.595-80.544-131.279-46.08L124.143 11H120z"/><path fill="#000" opacity=".1" d="M197 93l.518 2.32 125.77 41.78 2.121 74.388L330 212l-3.6-76.447zm-77-75.267l66.84 71.975-2.066 126.604 5.678.688L192 85.565 120 11z"/><path fill="#F1C0C0" d="M197 143.177l46.257 9.018.016.003L324.291 168l3.709-1.472-.013-.259-.242-5.122L197.048 135z"/><path fill="#000" opacity=".1" d="M243 153l81.279 16 3.721-1.49-.013-.262z"/><path fill="#F1C0C0" d="M247 111l1.231 68.736.636 35.264 5.605-.19 3.528-.121-1.097-102.695-2.43-.82-.533-.174z"/><path fill="#000" opacity=".1" d="M247 111v.016l1.114 68.725.6 35.259 5.286-.19V111z"/><path d="M157.524 129.276c.339.177.663.38.969.605.361.305.686.648.968 1.022 1.386 1.723 2.665 3.726 2.53 5.899a2.353 2.353 0 01-.721 1.707c-.572.47-1.392.491-2.141.491-.814 0-1.67 0-2.374-.404-.704-.403-1.292-1.189-2.125-1.17a1.131 1.131 0 01-.355 0c-.288-.09-.346-.453-.533-.683-.323-.413-1.004-.31-1.511-.13-.507.18-1.07.45-1.57.242a1.6 1.6 0 01-.681-.655c-1.199-1.863-1.454-4.102-1.68-6.266-.139-1.316-1.198-5.806 1.725-4.784 1.292.447 2.5 1.341 3.675 1.996l3.824 2.13z" fill="#3F3D56"/><path d="M153.628 129.67a1.66 1.66 0 001.875-.068 2.46 2.46 0 00.912-1.588c.341-.095.515.307.734.552.382.417 1.16.41 1.51.855.242.307.187.733.358 1.08.222.447.771.68 1.147 1.041.355.396.61.854.751 1.346l.56 1.508c.268.627.44 1.284.512 1.953a2.36 2.36 0 01-.648 1.866c-.752.727-1.984.803-3.074.782a4.383 4.383 0 01-1.079-.113c-.966-.27-1.584-1.144-1.84-2.023-.256-.88-.229-1.803-.379-2.704a9.802 9.802 0 00-.854-2.569c-.3-.637-1.126-1.587-1.113-2.265.246 0 .424.202.628.346z" fill="#3F3D56"/><path d="M156.441 126.169a5.307 5.307 0 01-.264-1.42c0-.97.446-1.882.896-2.749l-3.722.501c-.449.062-.95.152-1.204.524-.196.374-.196.82 0 1.193.186.37.335.756.443 1.155.008.349.048.696.12 1.038a2.2 2.2 0 00.479.67c1.064 1.17 1.862 2.551 2.656 3.919-.022-.039 2.243-1.782 2.152-2.351-.052-.323-.706-.712-.915-1.022a5.186 5.186 0 01-.64-1.458z" fill="#BE6F72"/><path fill="#F1C0C0" d="M187 113v3.075l-53.62 10.27-2.782 1.655H121v-1.733l52.683-12.499z"/><path fill="#000" opacity=".1" d="M187 117l-53.62 10.335-2.782 1.665H121l53.074-11.224z"/><path d="M143.857 201.537c-1.22-1.517-3.297-1.97-5.013-1.094a1.327 1.327 0 00-.46.37c-.316.452-.114 1.077-.085 1.637.072 1.366-.987 2.476-1.94 3.43-.51.512-1.03 1.06-1.26 1.755-.231.696-.06 1.58.557 1.942.27.139.563.222.864.246a9.087 9.087 0 003.059.087c1.006-.197 1.992-.783 2.428-1.735.084-.258.223-.493.406-.689.555-.45 1.407.078 2.037-.243.52-.265.543-.683.549-1.233.019-1.521-.202-3.243-1.142-4.473z" fill="#6C63FF"/><path d="M150.517 201.814c.37 1.034.421 2.16.47 3.265.027.639.045 1.322-.28 1.861-.326.54-.96.824-1.569.958-1.255.275-2.71.016-3.519-1.04-.62-.808-.75-1.916-.635-2.963.096-.859.301-1.864-.28-2.474-.15-.163-.346-.278-.485-.453-.3-.39-.253-.977-.09-1.456.212-.458.37-.941.473-1.44.024-.236 4.076.166 4.449.361.509.265.43.709.584 1.245.214.747.623 1.42.882 2.136z" fill="#6C63FF"/><path d="M151.529 155.987c.835.547 1.157 1.62 1.287 2.617.357 2.73-.269 5.49-.316 8.247-.045 3.862 1.062 7.795.117 11.535-.567 2.236-.086 4.792-.617 7.05-.158.671-.45 1.304-.601 1.974-.316 1.454.016 2.974.462 4.396.142.383.232.784.269 1.191a4.32 4.32 0 01-.462 1.802l-1.898 4.533c-.212.508-1.047.59-1.581.658-1.006.121-2.129.207-2.93-.422-.8-.63-.992-1.683-1.116-2.667a41.29 41.29 0 01-.316-5.696 4.738 4.738 0 00-.13-1.479c-.174-.546-.556-1.019-.66-1.597-.133-.747.243-1.482.382-2.236a6.803 6.803 0 00-.032-2.073 82.725 82.725 0 00-.427-3.06c-.227-1.422.098-2.824.317-4.249.205-1.338-.057-2.702-.317-4.031a11.218 11.218 0 01-.395 3.194c-.168.508-.408.994-.553 1.511-.649 2.323.733 4.76.537 7.165-.091 1.125-.528 2.236-.405 3.345.086.811.459 1.555.715 2.328.256.773.39 1.658 0 2.38-1.028 1.962-.26 4.629.661 6.641.187.357.35.726.487 1.106.272.907.045 1.881.117 2.827a1.753 1.753 0 01-1.483-.45c-.14-.148-.253-.32-.389-.474-.38-.365-.83-.65-1.322-.833a1.722 1.722 0 00-.949-.22c-.348.097-.66.293-.901.565a8.846 8.846 0 01-.994.763 1.17 1.17 0 01-.506.227.445.445 0 01-.465-.24.573.573 0 01-.034-.166 25.528 25.528 0 01-.187-2.907c0-1.67-1.98-2.82-2.23-4.472-.199-1.332.171-2.69.048-4.031-.06-.69-.25-1.367-.237-2.057 0-.447.1-.885.136-1.33a10.04 10.04 0 00-.023-1.478l-.098-1.543c-.095-1.524-.199-3.08-.794-4.472a15.32 15.32 0 01-1.233-5.137c-.063-1.118-.022-2.236-.149-3.357-.114-1.013-.367-2.019-.294-3.035.06-.785.316-1.546.377-2.331.123-1.511-.446-2.98-.892-4.428-.446-1.447-.775-3.05-.19-4.446a1.46 1.46 0 01.405-.595c.224-.15.48-.246.746-.28a57.356 57.356 0 0116.516-1.064 5.446 5.446 0 012.547.801z" fill="#3F3D56"/><circle fill="#BE6F72" cx="134" cy="118" r="5"/><path d="M132.869 124.793c.07.28.07.572 0 .852a1.933 1.933 0 01-.318.537 13.75 13.75 0 01-1.551 1.703 2.822 2.822 0 001.449 1.444 8.35 8.35 0 001.998.577c.344.092.7.116 1.053.074.324-.083.632-.223.907-.415l2.691-1.628a5.379 5.379 0 001.12-.815 2.795 2.795 0 00.78-1.91.529.529 0 00-.097-.361.632.632 0 00-.37-.156c-.946-.21-1.693-.986-2.116-1.865a9.954 9.954 0 01-.735-2.83l-2.87 1.526c-.426.23-.85.458-1.291.657-.281.128-.85.235-1.05.494-.38.48.3 1.539.4 2.116z" fill="#BE6F72"/><path d="M131.051 126.282c-.427.356-.76.815-.97 1.334-.195.644 0 1.322.177 1.959a59.326 59.326 0 011.895 8.293c.266 1.93.364 3.887.493 5.84.265 3.98.65 10.328 1.165 14.283 1.895.087 3.743-.476 5.622-.682 3.512-.38 7.128.489 10.567-.321-.834-3.354-1.667-9.081-2.501-12.432a24.105 24.105 0 01-.765-4.035c-.072-.981-.028-1.965-.015-2.952.028-1.93-.076-3.859-.18-5.788-.12-2.251-.24-4.502-.765-6.705a1.256 1.256 0 00-.366-.736c-.316-.235-.726-.151-1.102-.1a4.727 4.727 0 01-3.278-.79c-.417-.29-.976-.644-1.365-.322a1.394 1.394 0 00-.315.684 3.393 3.393 0 01-1.977 1.984c-.9.332-1.843.53-2.799.586a1.351 1.351 0 01-.868-.1c-.448-.28-.48-1.286-1.045-1.354-.496-.058-1.273 1.03-1.608 1.354z" fill="#3F3D56"/><path d="M139.423 133.852c-1.19-1.128-1.712-2.764-2.58-4.154a9.277 9.277 0 00-2.227-2.428 6.63 6.63 0 01-1.212-1.02c-.307-.373-.539-.872-1.003-1.015a1.22 1.22 0 00-1.087.297c-.284.268-.553.552-.806.85-1.367 1.402-3.768 1.597-4.852 3.22a2.63 2.63 0 00-.577 1.199 9.223 9.223 0 001.722 6.678c.274.446.696.784 1.193.958a3.67 3.67 0 00.232 1.757 46.722 46.722 0 002.195 5.928 14.222 14.222 0 00-.432 2.297c-.225 1.952-.016 3.933-.228 5.889-.175 1.597-.645 3.153-.661 4.754 0 .256.022.56.245.69.118.06.25.088.383.08l3.966.118c2.302.067 4.626.134 6.893-.287a2.9 2.9 0 00.867-.272c.767-.425 1.022-1.383 1.145-2.237.16-1.106.223-2.224.19-3.342.48 1.505 1.05 3.061 2.502 3.713.767.345 1.644.32 2.485.297a47.208 47.208 0 005.414-.552.716.716 0 00.603-.214.702.702 0 00.186-.608l.02-1.744c.038-3.544-.848-6.93-1.193-10.458-.11-1.112-.1-2.237-.374-3.326-.113-.457-.277-.904-.377-1.365a9.668 9.668 0 01-.162-1.364l-.251-3.515c-.12-1.626-.29-3.195-.416-4.818-.069-1.58-.3-3.15-.69-4.684-.28-.959-.864-2.045-1.873-2.163-.538-.061-1.06.172-1.573.335a6.412 6.412 0 01-3.87-.016 5.488 5.488 0 00-1.205-.32 1.188 1.188 0 00-1.103.454 1.63 1.63 0 00-.17.806c-.152 3.192-.432 6.48-1.32 9.582z" fill="#6C63FF"/><path d="M133.976 134.503c-1.49-1.489-3.02-3.005-4.941-3.952-.757-.373-1.618-.655-2.455-.514-.838.14-1.617.83-1.579 1.636.026.499.346.94.447 1.43.116.551-.052 1.14.13 1.672.146.351.366.671.646.94l2.29 2.57c.97 1.072 1.94 2.16 3.189 2.9 1.248.742 2.865 1.088 4.237.561a5.112 5.112 0 002.322-2.018c.57-.858.97-1.795 1.504-2.68a13.495 13.495 0 013.234-3.715c-.673-.166-1.517-.399-1.94-.92a2.992 2.992 0 01-.308-.526l-.524-1.072a1.335 1.335 0 00-.97.346 7.925 7.925 0 01-.721.695c-.456.325-1.074.414-1.488.784-.16.16-.305.332-.433.515a3.689 3.689 0 01-2.64 1.348z" fill="#3F3D56"/><path d="M142.414 127.98c1.113-2 1.062-4.397 1.38-6.656a3.01 3.01 0 01.612-1.652c.641-.714 1.774-.723 2.742-.632.286.032.642.165.626.446a.566.566 0 01-.145.268 7.447 7.447 0 00-1.584 4.144c.504.345 1.283-.363 1.767 0 .321.266.174.79-.019 1.17a95.71 95.71 0 01-1.382 2.615 8.397 8.397 0 01-1.466 2.081c-.408.386-.886.689-1.3 1.068-.962.887-1.542 2.141-2.536 3.007a.522.522 0 01-.321.161.543.543 0 01-.337-.148 4.806 4.806 0 01-1.213-1.444c-.378-.689-.32-.89.276-1.377 1.117-.869 2.204-1.8 2.9-3.051z" fill="#BE6F72"/><path d="M132.13 132.79c.196.132.438.282.654.171a.713.713 0 00.219-.232c.374-.547.685-1.14.928-1.77a.732.732 0 00.069-.286c0-.23-.186-.398-.36-.53a12.846 12.846 0 00-2.97-1.547c-.864-.358-1.766-.67-2.681-.58-.695.05-1.341.41-1.788.995-.654.92.44 1.2 1.127 1.533 1.589.791 3.308 1.25 4.802 2.245z" fill="#6C63FF"/><path d="M131.005 138.634a.42.42 0 00.125.366c.086-.412-.027-.848.062-1.263.132-.624.754-1.095.808-1.722-1.141-.217-.986 1.946-.995 2.62z" fill="#000" opacity=".1"/><path fill="#000" opacity=".2" d="M187 113v3.198l-12.618.802-.382-3.201z"/><path d="M129.536 118.842c.798-.686.336-2.125.876-3.046.315-.504.846-.77 1.368-.994a5.973 5.973 0 011.995-.584 2.25 2.25 0 011.886.733c.204.245.343.543.534.798a1.984 1.984 0 001.98.723c.418-.1.852-.434.824-.885a1.268 1.268 0 00-.377-.71l-.9-1.05c-1.02-1.193-2.155-2.46-3.654-2.757-1.044-.21-2.112.086-3.118.44-.406.143-.861.355-.974.79-.076.297.037.622-.029.924-.129.6-.858.802-1.197 1.306-.34.504-.236 1.1-.333 1.657-.098.557-.38 1.1-.415 1.677-.022.348.144.994.515 1.12.371.126.79-.557 1.019-.142z" fill="#3F3D56"/><path d="M139 115.857a10.264 10.264 0 00-1.678-4.046 6.795 6.795 0 00-2.987-2.502 4.08 4.08 0 00-3.718.31 5.656 5.656 0 00-1.858 2.472c-.817 1.857-1.12 4.126-.17 5.909.378-.486 1.028-.266 1.602-.443.72-.216 1.328-.722 2.012-1.038 2.066-.961 4.59-.183 6.797-.662z" fill="#FED253"/><path d="M129.07 114.936c-.058-.644-.095-1.392.225-1.85.032-.057.081-.089.133-.086a.21.21 0 01.102.129c.185.417.342.858.47 1.316-.381-.125-.778.094-1 .555m8.097-2.166l-.074-1.317a1.06 1.06 0 01.014-.325c.064-.18.194-.244.3-.147.1.1.184.25.24.431.17.472.313.975.423 1.502a1.415 1.415 0 00-1 .022m2 46v2.84l-2.236.16H125v-3z" fill="#000" opacity=".1"/><path fill="#F1C0C0" d="M139 159.247V162h-13.674L89 116.165V114h7.615z"/><path fill="#000" opacity=".1" d="M139 159.247V162h-13.674L89 116.165V114h7.615z"/><path fill="#000" opacity=".1" d="M139 159.247V162h-13.674L89 116.165V114l36.523 45.247z"/><path d="M93.778 205.03a.864.864 0 01-.171.7.96.96 0 01-.658.358c-.879.282-1.812.561-2.435 1.2-.622.64-.746 1.824 0 2.343a2.5 2.5 0 001.265.327c1.433.093 2.925.075 4.225-.501.93-.408 1.805-1.104 2.826-1.041.528.03 1.091.264 1.562.036.471-.228.604-.864.607-1.395a9.84 9.84 0 00-.521-3.266c-.048-.144-2.059-.255-2.299-.3l-2.438-.3c-.462-.057-1.458-.387-1.821-.021-.364.366-.142 1.425-.142 1.86zm14.31-8.21c.107.584.282 1.155.52 1.7.353.883.804 1.821 1.666 2.25.784.386 1.745.246 2.542-.12.332-.136.624-.354.846-.633a2.49 2.49 0 00.33-1.458c0-1.256-.076-2.554-.66-3.67-.5-.974-1.372-1.811-1.385-2.889l-3 .571a.863.863 0 00-.44.172.746.746 0 00-.192.354 9.529 9.529 0 00-.227 3.723zM74.05 166.987c-.111.973-.064 2.014.425 2.854.49.84 1.52 1.395 2.411 1.06a.354.354 0 00.219-.172.44.44 0 00-.038-.302 4.61 4.61 0 01.09-3.358c.059-.14.184-.302.32-.248.058.03.104.08.132.14.14.252.211.54.204.833a3.211 3.211 0 00-.024.8c.056.26.324.504.557.392a.604.604 0 00.265-.39c.65-1.947.355-4.076.058-6.114a.326.326 0 00-.098-.252.302.302 0 00-.249-.083c-1.374-.142-2.126-.484-2.912.842-.676 1.117-1.36 2.654-1.36 3.998z" fill="#6C63FF"/><path d="M91.917 161.913c-.443 1.852-.889 3.725-.917 5.627.008 1.185.097 2.368.266 3.54l.332 2.755c.113.929.224 1.855.385 2.774.103.474.16.956.168 1.44a7.76 7.76 0 01-.225 1.416c-.198.974-.31 1.964-.332 2.959-.034 1.59.162 3.18.285 4.77.246 3.17.21 6.355-.11 9.518a3.586 3.586 0 00.518 2.452c.187.23.342.485.458.757.237.729-.316 1.457-.458 2.205a2.225 2.225 0 001.84 2.544c2.53.303 5.128.166 7.408 1.33.24-.706-.284-1.508-.044-2.227.152-.445.569-.734.853-1.11a3.246 3.246 0 00.544-1.94 7.128 7.128 0 00-.468-2.63c-.268-.7-.654-1.39-.632-2.141 0-.37.13-.757-.019-1.098a1.713 1.713 0 00-.408-.512 6.485 6.485 0 01-1.653-3.77 17.465 17.465 0 01.132-4.179c.155-1.317.364-2.707 1.196-3.734a24.1 24.1 0 01.667-9.304c.082-.28.211-.604.496-.671a.706.706 0 01.607.242c.497.467.734 1.145.949 1.794.237.702.477 1.453.297 2.172-.076.318-.228.598-.316.903a2.693 2.693 0 00.095 1.868c.123.215.2.455.227.703-.03.212-.093.419-.19.61a2.827 2.827 0 00.263 2.275 8.23 8.23 0 001.476 1.822 6.718 6.718 0 00.206 3.677c.06.108.074.235.041.353-.057.121-.202.166-.316.252-.316.26-.12.753.092 1.094.58.934 1.221 1.829 1.919 2.678.632.76.575 2.227 1.517 2.5.396.086.806.086 1.202 0 .93-.143 1.967-.413 2.422-1.24.186-.34.262-.754.553-1.009.291-.254.667-.299.829-.604.16-.305-.02-.706.034-1.06.054-.352.36-.635.459-1.008.234-.858-.762-1.565-.898-2.442-.196-1.273 1.397-2.227 1.331-3.5-.14-2.764-.228-5.54-.37-8.305a60.243 60.243 0 01-.076-7.44c.11-1.542.316-3.158-.246-4.593-.81-2.023-3.042-3.158-5.202-3.375-2.16-.216-4.312.3-6.453.637-3.552.55-7.162.626-10.734.225z" fill="#3F3D56"/><circle fill="#FBBEBE" cx="98" cy="126" r="5"/><path d="M96.012 132.269c-.336.84-1.12 1.373-1.971 1.339-.176.778.244 1.563.724 2.176 2.03 2.537 5.178 3.696 8.23 3.032a3.915 3.915 0 001.622-.727 3.933 3.933 0 001.238-2.302c.139-.894.178-1.803.117-2.708a.738.738 0 00-.132-.5.635.635 0 00-.423-.148c-1.02-.098-2.086-.14-2.983-.678-.897-.538-1.534-1.754-1.102-2.753-.07.156-1.833.23-2.065.263-.728.11-1.455.233-2.18.376-.348.02-.692.09-1.024.207-.437.244-.274.124-.172.565.154.674.38 1.157.121 1.858z" fill="#FBBEBE"/><path d="M99.514 135.638a8.582 8.582 0 01-2.038-.222 2.864 2.864 0 01-1.671-1.095c-.236-.35-.388-.79-.763-.986-.614-.312-1.313.216-1.802.7a6.527 6.527 0 01-1.532 1.21c-.68.352-1.475.477-2.117.892a5.262 5.262 0 00-1.271 1.348l-4.504 6.021c-1.808 2.422-3.381 5.02-4.993 7.576-1.395 2.212-2.126 4.758-3.178 7.144a.786.786 0 00-.098.48c.038.163.238.294.378.2-.474.462-.057 1.249-.169 1.898-.126.454-.39.86-.756 1.163.7-.09 1.41-.057 2.098.097.71.198 1.381.514 1.983.936.384-.06.35-.73.635-.98.172-.146.426-.128.652-.171.849-.163 1.185-1.164 1.837-1.729.543-.47 1.313-.624 1.888-1.067.934-.72 1.135-2.003 1.624-3.067.416-.901 1.071-1.688 1.437-2.611.238-.6.352-1.248.692-1.8.544-.893 1.567-1.367 2.543-1.794.616-.272 1.271-.553 1.935-.509-.035 1.45-.222 2.88.099 4.296.111.5.267.986.4 1.482.607 2.234.75 4.562.78 6.864a21.653 21.653 0 014.449-.524c1.179-.034 2.355.116 3.534.094 1.398-.025 2.78-.29 4.18-.384 1.398-.094 2.86 0 4.096.624a37.51 37.51 0 01.168-5.928l.337-3.101a18.73 18.73 0 01.423-2.677c.184-.712.451-1.398.655-2.106.715-2.496.584-5.16.448-7.76-.07-1.335-.595-2.648-1.211-3.837a10.345 10.345 0 00-.763-1.273c-1.514-2.048-3.993-3.19-6.566-3.026a1.35 1.35 0 00-.47.1 1.546 1.546 0 00-.601.701 7.71 7.71 0 01-2.768 2.82zm-6.071-7.868c.132-.314.488-.431.706-.683.417-.48.229-1.246.294-1.893.106-.946.838-1.737 1.677-2.075a5.07 5.07 0 012.647-.18c.425.034.835.18 1.194.426.153.12.295.275.439.385.546.354 1.256.176 1.6-.4-1.041-1.344-2.195-2.763-3.777-3.176a7.245 7.245 0 00-1.65-.167c-.733-.016-1.489-.029-2.166.27-.92.408-1.568 1.344-1.9 2.353a12.197 12.197 0 00-.462 3.154c-.06.713-.06 1.431 0 2.145a6.19 6.19 0 00.983 2.702.786.786 0 00.294.294c1.341.63.012-2.892.12-3.154z" fill="#3F3D56"/><path d="M102 123.114c-.18-1.563-1.275-2.854-2.439-3.892a8.963 8.963 0 00-3.276-2.008c-1.23-.368-2.645-.289-3.698.458-.847.6-1.385 1.556-1.8 2.519a8.046 8.046 0 00-.785 3.65c.081 1.254.681 2.525 1.75 3.159.385-.577 1.054-.876 1.696-1.112a81.965 81.965 0 018.552-2.774z" fill="#FED253"/><path d="M93.281 123c.083 0 .137.068.179.124.21.263.391.54.54.828-.303.051-.822.11-.972-.104-.08-.107.015-.858.253-.848zm6.836-2.012c-.054.046-.117-.048-.117-.116v-.776a.104.104 0 01.016-.062.111.111 0 01.074-.032c.182-.018.333.12.45.252.177.214.33.442.46.682l-.95-.026" fill="#000" opacity=".1"/><path d="M116.79 141.786c.282-.264.582-.508.899-.73.846-.56 1.87-.781 2.82-1.139.951-.357 1.917-.936 2.287-1.875a4.415 4.415 0 00.177-1.817 1.803 1.803 0 00-.135-.748 1.492 1.492 0 00-.483-.521c-1.29-.945-3.019-1.021-4.62-.924a29.171 29.171 0 00-10.21 2.526.886.886 0 00-.428.303.86.86 0 00-.083.421 6.91 6.91 0 00.345 2.638c.422 1.079 1.29 1.948 1.654 3.048.165.493.22 1.017.363 1.514.118.513.424.965.86 1.266 1.206.715 2.346-.245 3.184-.99l3.37-2.972z" fill="#3F3D56"/><path d="M100.52 146.01l-1.63-3.477a12.02 12.02 0 01-.617-1.487c-.187-.607-.277-1.236-.45-1.846-.573-2.031-2.016-3.723-2.72-5.714a1.078 1.078 0 00-.264-.48.874.874 0 00-.717-.126c-.983.166-1.752.899-2.652 1.314-.418.189-.868.314-1.285.531a1.582 1.582 0 00-.862 1.003c-.1.481.145.944.35 1.412.875 1.93 1.074 4.088 1.113 6.201.029 1.421-.045 2.946-.904 4.088-1.649 2.2-.594 5.433.023 8.097.074.314.16.654.212.987.054.417.08.837.074 1.258 0 1.412-.08 2.868-.685 4.147.597.31 1.254.493 1.929.535 1.867.233 3.74.396 5.622.49a6.22 6.22 0 001.765-.088c1.42-.375 2.397-1.644 2.376-3.081.103.87.293 1.817.939 2.421.646.604 1.588.695 2.465.742 2.477.129 4.96.06 7.426-.204a1.31 1.31 0 00.457-.104c.475-.233.501-.874.463-1.39a58.184 58.184 0 00-.264-2.89c-.1-.611-.152-1.23-.154-1.849.049-.637.156-1.268.321-1.886.43-1.962.772-3.965.627-5.975a9.862 9.862 0 01-.061-1.474c.084-1.11.681-2.167.569-3.27-.322-3.246-.582-6.576-1.508-9.707-.167-.56-.38-1.16-.877-1.481-.643-.422-1.547-.202-2.283-.469a5.738 5.738 0 01-.98-.569 4.573 4.573 0 00-2.215-.667c-.592-.022-1.25.107-1.607.573a2.252 2.252 0 00-.322.858c-.466 1.918-1.013 3.814-1.56 5.71l-.523 1.818-1.405 4.88c-.138.519-.045.68-.186 1.17z" fill="#6C63FF"/><path fill="#F1C0C0" d="M108.099 127L139 159.264V162h-13.778L102 131.888"/><path fill="#000" opacity=".1" d="M108.099 127L139 159.264V162h-13.778L102 131.888"/><path fill="#000" opacity=".1" d="M102.492 131l.099.035 22.829 28.188H139V162h-13.778L102 131.432z"/><path d="M106.828 132.293c-1.146.473-2.42 1.08-2.763 2.218-.068.2-.083.412-.043.619.171.496.65.842 1.201.869.54.012 1.076-.08 1.575-.272l6.76-2.11c.184-.056.393-.14.439-.31a.508.508 0 00-.065-.309c-.21-.482-.416-1.47-.855-1.806-.36-.273-1.074-.177-1.51-.17-1.675.012-3.25.652-4.74 1.27z" fill="#6C63FF"/><path d="M112.383 133.737a9.959 9.959 0 013.213.524 5.725 5.725 0 012.662 1.909c.202.249.346.544.42.862.063.33 1.085.527.859.75.687-.115.524.224 1.22.218.696-.007 1.448-.194 1.865-.777.29-.479.419-1.045.367-1.61a2.869 2.869 0 00-.207-1.138c-.314-.692-1.035-1.063-1.7-1.383l-5.599-2.689a3.604 3.604 0 00-1.034-.385 3.687 3.687 0 00-.913.023l-2.536.306c1.128.767 1.788 2.102 1.734 3.512" fill="#3F3D56"/></g></svg>