<svg width="375" height="219" xmlns="http://www.w3.org/2000/svg"><defs><linearGradient x1="50.008%" y1="100.003%" x2="50.008%" y2="-.107%" id="a"><stop stop-color="gray" stop-opacity=".25" offset="0%"/><stop stop-color="gray" stop-opacity=".12" offset="54%"/><stop stop-color="gray" stop-opacity=".1" offset="100%"/></linearGradient></defs><g fill="none" fill-rule="evenodd"><g opacity=".1" transform="translate(240)" fill-rule="nonzero"><ellipse fill="#3F3D56" cx="34.555" cy="205.476" rx="7.176" ry="9.504"/><path d="M40.233 164.817a11.557 11.557 0 001.51-5.809c0-5.26-3.212-9.504-7.175-9.504-3.964 0-7.173 4.254-7.173 9.504a11.557 11.557 0 001.497 5.809 12.009 12.009 0 000 11.614 12.015 12.015 0 000 11.618 11.557 11.557 0 00-1.497 5.81c0 5.26 3.213 9.503 7.173 9.503s7.176-4.254 7.176-9.504a11.557 11.557 0 00-1.498-5.809 12.015 12.015 0 000-11.618 12.009 12.009 0 000-11.614h-.013z" fill="#3F3D56"/><ellipse fill="#3F3D56" cx="34.555" cy="147.393" rx="7.176" ry="9.504"/><ellipse fill="#3F3D56" cx="34.555" cy="135.775" rx="7.176" ry="9.504"/><path d="M61.413 56.278a35.027 35.027 0 002.67-3.981l-18.84-3.133 20.39.155a35.23 35.23 0 00.65-27.556l-27.36 14.353 25.235-18.758C57.713 6.1 45.598-.575 32.757.055 19.916.685 8.496 8.515 3.156 20.35S-.55 46.046 7.39 56.278a34.914 34.914 0 00-3.917 6.342l24.47 12.867-26.09-8.877C-1.878 77.74.199 90.026 7.374 99.268c-11.082 14.258-9.474 34.74 3.693 47.048a34.068 34.068 0 0046.637 0c13.167-12.308 14.775-32.79 3.693-47.048 9.807-12.616 9.807-30.386 0-43.003l.016.013z" fill="#6C63FF"/><path d="M.035 77.781a34.889 34.889 0 007.355 21.5c-11.081 14.258-9.474 34.74 3.693 47.048a34.068 34.068 0 0046.638 0c13.166-12.308 14.774-32.79 3.692-47.048C66.02 93.364.035 73.876.035 77.781z" fill="#000"/></g><g opacity=".1" transform="translate(51 73)" fill-rule="nonzero"><ellipse fill="#3F3D56" cx="21.396" cy="125.869" rx="4.437" ry="5.808"/><path d="M24.926 101.023c.619-1.08.94-2.306.927-3.55 0-3.209-1.98-5.809-4.44-5.809-2.46 0-4.437 2.6-4.437 5.808a7.004 7.004 0 00.924 3.55 7.277 7.277 0 000 7.1 7.277 7.277 0 000 7.097 6.98 6.98 0 00-.924 3.548c0 3.21 1.98 5.811 4.437 5.811 2.456 0 4.44-2.6 4.44-5.811a6.98 6.98 0 00-.927-3.547 7.257 7.257 0 000-7.099 7.257 7.257 0 000-7.098z" fill="#3F3D56"/><ellipse fill="#3F3D56" cx="21.396" cy="90.374" rx="4.437" ry="5.808"/><ellipse fill="#3F3D56" cx="21.396" cy="83.275" rx="4.437" ry="5.808"/><path d="M4.787 34.693a21.153 21.153 0 01-1.65-2.432L14.8 30.347l-12.614.095a21.3 21.3 0 01-.407-16.83l16.914 8.782L3.087 10.91A21.263 21.263 0 0122.51.347a21.261 21.261 0 0118.306 12.398 21.245 21.245 0 01-2.613 21.948 21.228 21.228 0 012.423 3.87l-15.14 7.868 16.144-5.415a21.258 21.258 0 01-3.427 19.958c6.855 8.713 5.86 21.228-2.286 28.75-8.146 7.52-20.706 7.52-28.852 0-8.146-7.522-9.14-20.037-2.286-28.75a21.251 21.251 0 010-26.281h.007z" fill="#6C63FF"/><path d="M42.754 47.834a21.166 21.166 0 01-4.55 13.14c6.855 8.713 5.86 21.228-2.286 28.75-8.146 7.52-20.706 7.52-28.852 0-8.146-7.522-9.14-20.037-2.286-28.75-2.849-3.6 37.974-15.526 37.974-13.14z" fill="#000"/></g><g opacity=".1" transform="translate(143 36)" fill-rule="nonzero"><ellipse fill="#3F3D56" cx="28.219" cy="167.066" rx="5.916" ry="7.718"/><path d="M32.902 134.045a9.285 9.285 0 001.233-4.719c0-4.26-2.63-7.717-5.92-7.717-3.288 0-5.919 3.457-5.919 7.717a9.256 9.256 0 001.237 4.72 9.619 9.619 0 000 9.434 9.612 9.612 0 000 9.432 9.256 9.256 0 00-1.237 4.72c0 4.26 2.65 7.717 5.92 7.717 3.268 0 5.919-3.458 5.919-7.718a9.285 9.285 0 00-1.233-4.719 9.632 9.632 0 000-9.432 9.638 9.638 0 000-9.435z" fill="#3F3D56"/><ellipse fill="#3F3D56" cx="28.219" cy="119.895" rx="5.916" ry="7.718"/><ellipse fill="#3F3D56" cx="28.219" cy="110.46" rx="5.916" ry="7.718"/><path d="M6.084 45.9a28.15 28.15 0 01-2.204-3.231l15.545-2.544-16.81.125a28.208 28.208 0 01-.543-22.38l22.56 11.66L3.824 14.292C9.123 5.115 19.127-.338 29.739.165 40.35.67 49.789 7.043 54.189 16.68a28.166 28.166 0 01-3.565 29.22 28.277 28.277 0 013.229 5.151L33.675 61.5l21.516-7.21a28.177 28.177 0 01-4.567 26.522c9.137 11.579 7.81 28.211-3.047 38.206-10.858 9.995-27.601 9.995-38.46 0C-1.74 109.022-3.066 92.39 6.072 80.811a28.176 28.176 0 010-34.924l.013.013z" fill="#6C63FF"/><path d="M56.688 63.364a28.063 28.063 0 01-6.064 17.46c9.137 11.579 7.81 28.211-3.047 38.206-10.858 9.995-27.601 9.995-38.46 0-10.858-9.995-12.184-26.627-3.046-38.206-3.799-4.804 50.617-20.633 50.617-17.46z" fill="#000"/></g><path d="M375 209.99c0 2.248-16.47 4.304-43.698 5.89-4.952.286-10.259.557-15.886.812-4.862.219-9.959.425-15.289.619-5.164.183-10.526.353-16.085.51-17.559.501-36.97.861-57.59 1.041a3326.222 3326.222 0 01-31.453.137C95.585 219 15 214.972 15 210c0-4.97 80.586-9 179.998-9 42.8 0 82.104.75 112.997 1.993l3.377.138h.02c38.914 1.646 63.608 4.123 63.608 6.859z" fill="#3F3D56" fill-rule="nonzero"/><path d="M375 209.99c0 2.248-16.47 4.304-43.698 5.89-4.952.286-10.259.557-15.886.812-4.862.219-9.959.425-15.289.619-5.164.183-10.526.353-16.085.51-17.559.501-36.97.861-57.59 1.041a3326.222 3326.222 0 01-31.453.137C95.585 219 15 214.972 15 210c0-4.97 80.586-9 179.998-9 42.8 0 82.104.75 112.997 1.993l3.377.138h.02c38.914 1.646 63.608 4.123 63.608 6.859z" fill="#000" fill-rule="nonzero" opacity=".15"/><path d="M360 207.51c0 1.872-16.47 3.587-43.698 4.891-4.95.238-10.259.463-15.883.675-4.864.183-9.96.354-15.289.515-5.164.152-10.525.295-16.085.427-17.562.418-36.972.718-57.594.868a4242.875 4242.875 0 01-31.45.114C80.59 215 0 211.645 0 207.5s80.589-7.5 180.002-7.5c42.796 0 82.1.623 112.993 1.66l3.377.114h.023c38.927 1.392 63.605 3.443 63.605 5.736zM46.533 140L42 126.182 150.553 125 155 138.68z" fill="#3F3D56" fill-rule="nonzero"/><path fill="#000" fill-rule="nonzero" opacity=".15" d="M46.533 140L42 126.182 150.553 125 155 138.68z"/><path fill="#3F3D56" fill-rule="nonzero" d="M39.533 140L35 126.182 143.553 125 148 138.68zm183.677-23.28c-11.216 0-20.054-4.43-26.517-13.291C190.231 94.568 187 83.833 187 71.225c0-12.694 3.125-23.407 9.375-32.14 6.25-8.732 15.065-13.094 26.447-13.085 12.07 0 21.164 4.6 27.282 13.802 6.118 9.202 9.178 19.852 9.18 31.95 0 12.01-3.166 22.51-9.5 31.497-6.332 8.988-15.19 13.478-26.574 13.472zm.328-9.967c7.378 0 12.893-3.2 16.544-9.602 3.65-6.401 5.476-14.47 5.476-24.209 0-10.84-1.868-19.715-5.605-26.626-3.736-6.912-9.466-10.369-17.19-10.37-14.682 0-22.023 11.606-22.023 34.82 0 23.994 7.597 35.989 22.792 35.987h.006zm3.695 95.457H211.01L317.208 27.776h15.915L227.233 202.21zm93.949 1.79c-11.384 0-20.26-4.471-26.625-13.413-6.366-8.942-9.562-19.678-9.588-32.207 0-12.609 3.103-23.28 9.309-32.012 6.205-8.732 15.043-13.094 26.512-13.086 11.985 0 21.015 4.601 27.092 13.803 6.076 9.201 9.116 19.85 9.118 31.946 0 11.932-3.146 22.411-9.437 31.438-6.291 9.027-15.087 13.538-26.388 13.531h.007zm.19-10.223c7.343 0 12.828-3.146 16.455-9.438 3.627-6.293 5.44-14.33 5.44-24.111 0-10.469-1.835-19.248-5.506-26.339-3.67-7.09-9.389-10.64-17.155-10.651-14.767 0-22.15 11.607-22.15 34.82-.005 23.815 7.632 35.72 22.91 35.719h.006z"/><path d="M223.21 116.72c-11.216 0-20.054-4.43-26.517-13.291C190.231 94.568 187 83.833 187 71.225c0-12.694 3.125-23.407 9.375-32.14 6.25-8.732 15.065-13.094 26.447-13.085 12.07 0 21.164 4.6 27.282 13.802 6.118 9.202 9.178 19.852 9.18 31.95 0 12.01-3.166 22.51-9.5 31.497-6.332 8.988-15.19 13.478-26.574 13.472zm.328-9.967c7.378 0 12.893-3.2 16.544-9.602 3.65-6.401 5.476-14.47 5.476-24.209 0-10.84-1.868-19.715-5.605-26.626-3.736-6.912-9.466-10.369-17.19-10.37-14.682 0-22.023 11.606-22.023 34.82 0 23.994 7.597 35.989 22.792 35.987h.006zm3.695 95.457H211.01L317.208 27.776h15.915L227.233 202.21zm93.949 1.79c-11.384 0-20.26-4.471-26.625-13.413-6.366-8.942-9.562-19.678-9.588-32.207 0-12.609 3.103-23.28 9.309-32.012 6.205-8.732 15.043-13.094 26.512-13.086 11.985 0 21.015 4.601 27.092 13.803 6.076 9.201 9.116 19.85 9.118 31.946 0 11.932-3.146 22.411-9.437 31.438-6.291 9.027-15.087 13.538-26.388 13.531h.007zm.19-10.223c7.343 0 12.828-3.146 16.455-9.438 3.627-6.293 5.44-14.33 5.44-24.111 0-10.469-1.835-19.248-5.506-26.339-3.67-7.09-9.389-10.64-17.155-10.651-14.767 0-22.15 11.607-22.15 34.82-.005 23.815 7.632 35.72 22.91 35.719h.006z" fill="#3F3D56" fill-rule="nonzero"/><path d="M223.21 116.72c-11.216 0-20.054-4.43-26.517-13.291C190.231 94.568 187 83.833 187 71.225c0-12.694 3.125-23.407 9.375-32.14 6.25-8.732 15.065-13.094 26.447-13.085 12.07 0 21.164 4.6 27.282 13.802 6.118 9.202 9.178 19.852 9.18 31.95 0 12.01-3.166 22.51-9.5 31.497-6.332 8.988-15.19 13.478-26.574 13.472zm.328-9.967c7.378 0 12.893-3.2 16.544-9.602 3.65-6.401 5.476-14.47 5.476-24.209 0-10.84-1.868-19.715-5.605-26.626-3.736-6.912-9.466-10.369-17.19-10.37-14.682 0-22.023 11.606-22.023 34.82 0 23.994 7.597 35.989 22.792 35.987h.006zm3.695 95.457H211.01L317.208 27.776h15.915L227.233 202.21zm93.949 1.79c-11.384 0-20.26-4.471-26.625-13.413-6.366-8.942-9.562-19.678-9.588-32.207 0-12.609 3.103-23.28 9.309-32.012 6.205-8.732 15.043-13.094 26.512-13.086 11.985 0 21.015 4.601 27.092 13.803 6.076 9.201 9.116 19.85 9.118 31.946 0 11.932-3.146 22.411-9.437 31.438-6.291 9.027-15.087 13.538-26.388 13.531h.007zm.19-10.223c7.343 0 12.828-3.146 16.455-9.438 3.627-6.293 5.44-14.33 5.44-24.111 0-10.469-1.835-19.248-5.506-26.339-3.67-7.09-9.389-10.64-17.155-10.651-14.767 0-22.15 11.607-22.15 34.82-.005 23.815 7.632 35.72 22.91 35.719h.006z" fill="#000" fill-rule="nonzero" opacity=".15"/><path d="M213.21 116.72c-11.216 0-20.054-4.43-26.517-13.291C180.231 94.568 177 83.833 177 71.225c0-12.694 3.125-23.407 9.375-32.14 6.25-8.732 15.065-13.094 26.447-13.085 12.07 0 21.164 4.6 27.282 13.802 6.118 9.202 9.178 19.852 9.18 31.95 0 12.01-3.166 22.51-9.5 31.497-6.332 8.988-15.19 13.478-26.574 13.472zm.328-9.967c7.378 0 12.893-3.2 16.544-9.602 3.65-6.401 5.476-14.47 5.476-24.209 0-10.84-1.868-19.715-5.605-26.626-3.736-6.912-9.466-10.369-17.19-10.37-14.682 0-22.023 11.606-22.023 34.82 0 23.994 7.597 35.989 22.792 35.987h.006zm3.695 95.457H201.01L307.208 27.776h15.915L217.233 202.21zm93.949 1.79c-11.384 0-20.26-4.471-26.625-13.413-6.366-8.942-9.562-19.678-9.588-32.207 0-12.609 3.103-23.28 9.309-32.012 6.205-8.732 15.043-13.094 26.512-13.086 11.985 0 21.015 4.601 27.092 13.803 6.076 9.201 9.116 19.85 9.118 31.946 0 11.932-3.146 22.411-9.437 31.438-6.291 9.027-15.087 13.538-26.388 13.531h.007zm.19-10.223c7.343 0 12.828-3.146 16.455-9.438 3.627-6.293 5.44-14.33 5.44-24.111 0-10.469-1.835-19.248-5.506-26.339-3.67-7.09-9.39-10.64-17.161-10.651-14.768 0-22.151 11.607-22.151 34.82 0 23.815 7.639 35.72 22.917 35.719h.006z" fill="#3F3D56" fill-rule="nonzero"/><path d="M249.886 208c1.366-2.543-.186-5.66-1.97-7.93-1.786-2.27-3.962-4.627-3.915-7.52.066-4.151 4.458-6.604 7.961-8.808a38.864 38.864 0 007.16-5.773c.9-.848 1.644-1.848 2.198-2.956.727-1.624.704-3.472.664-5.25a377.699 377.699 0 00-.876-17.763" stroke="#3F3D56" stroke-width="4"/><path d="M267.992 153.673a6.99 6.99 0 00-3.493-5.734l-1.568 3.1.047-3.755a7 7 0 105.014 6.389zm-10.776 43.53a6.994 6.994 0 01-13.203-3.622 6.995 6.995 0 0113.541-2.017l-4.374 3.559L258 194a6.984 6.984 0 01-.784 3.203zm-3.871-13.211a7.028 7.028 0 01-5.052-1.815 6.985 6.985 0 01-1.679-8.032 7.02 7.02 0 014.492-3.878l-.04 2.875 1.59-3.134c3.87-.18 7.155 2.8 7.336 6.66.181 3.858-2.81 7.133-6.68 7.314l.033.01zm15.045-10.007a6.91 6.91 0 01-6.268-3.166 7.055 7.055 0 01-.328-7.068 6.924 6.924 0 015.947-3.743 6.81 6.81 0 013.71.888l-1.225 3.385 2.52-2.44a7 7 0 012.068 6.753c-.708 3.044-3.33 5.245-6.425 5.39z" fill="#6C63FF" fill-rule="nonzero"/><path d="M266.253 154.63c-1.517.173-2.99.669-4.513.768-1.524.099-3.196-.283-4.16-1.526-.52-.665-.776-1.511-1.215-2.24a4.756 4.756 0 00-1.656-1.632c-1.152 2.383-.884 5.25.686 7.355 1.571 2.104 4.162 3.067 6.647 2.47 2.486-.596 4.418-2.644 4.958-5.256-.25.015-.497.032-.747.06zm2.635 18.363c-2.306.101-4.5-.962-5.781-2.803a6.084 6.084 0 01-.479-6.19c.521.339.97.77 1.322 1.27.47.677.755 1.461 1.306 2.083 1.015 1.157 2.777 1.532 4.363 1.464 1.586-.068 3.122-.502 4.705-.647.22-.02.443-.033.676-.04-.672 2.749-3.168 4.735-6.112 4.863zm-16.93 10a6.81 6.81 0 01-4.786-1.657 6.288 6.288 0 01-2.164-4.425c-.052-1 .145-1.998.574-2.911.548.35 1.024.796 1.404 1.313.515.699.84 1.506 1.444 2.153 1.12 1.198 3.006 1.621 4.703 1.582 1.698-.04 3.231-.42 4.867-.542-.83 2.569-3.246 4.362-6.042 4.487zM255 196.79c-1.533 2.789-5.16 3.975-8.246 2.697-3.086-1.278-4.547-4.571-3.321-7.487.522.318.991.705 1.392 1.15.603.681 1 1.453 1.699 2.087 1.304 1.176 3.39 1.662 5.255 1.707a29.17 29.17 0 003.221-.153z" fill="#000" fill-rule="nonzero" opacity=".1"/><path d="M348.886 208c1.366-2.543-.186-5.66-1.97-7.93-1.786-2.27-3.962-4.627-3.915-7.52.066-4.151 4.458-6.604 7.961-8.808a38.864 38.864 0 007.16-5.773c.9-.848 1.644-1.848 2.198-2.956.727-1.624.704-3.472.664-5.25a377.699 377.699 0 00-.876-17.763" stroke="#3F3D56" stroke-width="4"/><path d="M365.992 153.673a6.99 6.99 0 00-3.493-5.734l-1.568 3.1.047-3.755a7 7 0 105.014 6.389zm-10.776 42.53a6.994 6.994 0 01-13.203-3.622 6.995 6.995 0 0113.541-2.017l-4.374 3.559L356 193a6.984 6.984 0 01-.784 3.203zm-2.881-12.211a7.014 7.014 0 01-5.045-1.815 6.99 6.99 0 01-1.677-8.033 7.013 7.013 0 014.486-3.878l-.04 2.876 1.589-3.134h.018a7.01 7.01 0 016.225 3.21 6.984 6.984 0 01.327 6.987 7.008 7.008 0 01-5.897 3.777l.014.01zm15.055-10.007a6.91 6.91 0 01-6.268-3.166 7.055 7.055 0 01-.328-7.068 6.924 6.924 0 015.947-3.743 6.81 6.81 0 013.71.888l-1.225 3.385 2.52-2.44a7 7 0 012.068 6.753c-.708 3.044-3.33 5.245-6.425 5.39z" fill="#6C63FF" fill-rule="nonzero"/><path d="M365.253 153.63c-1.517.173-2.99.669-4.513.768-1.524.099-3.196-.283-4.16-1.526-.52-.665-.776-1.511-1.215-2.24a4.756 4.756 0 00-1.656-1.632c-1.152 2.383-.884 5.25.686 7.355 1.571 2.104 4.162 3.067 6.647 2.47 2.486-.596 4.418-2.644 4.958-5.256-.25.015-.497.032-.747.06zm1.635 19.363c-2.306.101-4.5-.962-5.781-2.803a6.084 6.084 0 01-.479-6.19c.521.339.97.77 1.322 1.27.47.677.755 1.461 1.306 2.083 1.015 1.157 2.777 1.532 4.363 1.464 1.586-.068 3.122-.502 4.705-.647.22-.02.443-.033.676-.04-.672 2.749-3.168 4.735-6.112 4.863zm-14.93 10a6.81 6.81 0 01-4.786-1.657 6.288 6.288 0 01-2.164-4.425c-.052-1 .145-1.998.574-2.911.548.35 1.024.796 1.404 1.313.515.699.84 1.506 1.444 2.153 1.12 1.198 3.006 1.621 4.703 1.582 1.646-.033 3.231-.42 4.867-.542-.83 2.569-3.246 4.362-6.042 4.487zM355 196.79c-1.533 2.789-5.16 3.975-8.246 2.697-3.086-1.278-4.547-4.571-3.321-7.487.522.318.991.705 1.392 1.15.603.681 1 1.453 1.699 2.087 1.304 1.176 3.39 1.662 5.255 1.707a29.17 29.17 0 003.221-.153z" fill="#000" fill-rule="nonzero" opacity=".1"/><path d="M35.114 204c-1.366-2.543.186-5.66 1.97-7.93 1.786-2.27 3.962-4.627 3.915-7.52-.066-4.151-4.458-6.604-7.961-8.808a38.864 38.864 0 01-7.16-5.773 10.543 10.543 0 01-2.198-2.956c-.727-1.624-.704-3.472-.664-5.25.153-5.93.445-11.85.876-17.763" stroke="#3F3D56" stroke-width="4"/><path d="M18.008 148.673a6.99 6.99 0 013.493-5.734l1.568 3.1-.047-3.755a7 7 0 11-5.014 6.389zm10.776 43.53a6.994 6.994 0 0013.203-3.622 6.995 6.995 0 00-13.541-2.017l4.374 3.559L28 189a6.984 6.984 0 00.784 3.203zm3.871-13.211a7.028 7.028 0 005.052-1.815 6.985 6.985 0 001.679-8.032 7.02 7.02 0 00-4.492-3.878l.04 2.875-1.59-3.134c-3.87-.18-7.155 2.8-7.336 6.66-.181 3.858 2.81 7.133 6.68 7.314l-.033.01z" fill="#6C63FF" fill-rule="nonzero"/><path d="M18.61 168.985a6.91 6.91 0 006.268-3.166 7.056 7.056 0 00.328-7.069 6.924 6.924 0 00-5.947-3.743 6.81 6.81 0 00-3.691.888l1.224 3.386-2.538-2.43a7 7 0 00-2.068 6.743c.708 3.044 3.33 5.245 6.425 5.39z" fill="#6C63FF" fill-rule="nonzero"/><path d="M18.747 150.63c1.517.173 2.99.669 4.513.768 1.524.099 3.196-.283 4.16-1.526.52-.665.776-1.511 1.215-2.24A4.756 4.756 0 0130.291 146c1.152 2.383.884 5.25-.686 7.355-1.571 2.104-4.162 3.067-6.647 2.47-2.486-.596-4.418-2.644-4.958-5.256.25.015.497.032.747.06zm-1.635 17.363c2.306.101 4.5-.962 5.781-2.803a6.084 6.084 0 00.479-6.19c-.521.339-.97.77-1.322 1.27-.47.677-.755 1.461-1.306 2.083-1.015 1.157-2.777 1.532-4.363 1.464-1.586-.068-3.122-.502-4.705-.647-.22-.02-.443-.033-.676-.04.672 2.749 3.168 4.735 6.112 4.863zm15.93 11a6.81 6.81 0 004.786-1.657 6.288 6.288 0 002.164-4.425c.052-1-.145-1.998-.574-2.911a5.258 5.258 0 00-1.404 1.313c-.515.699-.84 1.506-1.444 2.153-1.12 1.198-3.006 1.621-4.703 1.582-1.646-.033-3.231-.42-4.867-.542.83 2.569 3.246 4.362 6.042 4.487zM30 191.79c1.533 2.789 5.16 3.975 8.246 2.697 3.086-1.278 4.547-4.571 3.321-7.487a6.255 6.255 0 00-1.392 1.15c-.603.681-1 1.453-1.699 2.087-1.304 1.176-3.39 1.662-5.255 1.707a29.17 29.17 0 01-3.221-.153z" fill="#000" fill-rule="nonzero" opacity=".1"/><path d="M221 172.77a5.201 5.201 0 00-2.011-4.161c-.078-3.048-2.207-5.537-4.943-5.923-.43-2.107-1.93-3.82-3.932-4.493a4.904 4.904 0 00-.732-.176h-.071l-.127-.017h-.67c-2.793 0-5.116 2.18-5.595 5.055-1.806-.425-3.462.126-3.758 1.293a1.6 1.6 0 00.049.934c.306.904 1.301 1.768 2.652 2.197l.176.053c.087.027.175.047.263.067h.059c-1.031 2.245-.157 4.922 1.988 6.085a1.03 1.03 0 00-.117.077 1.64 1.64 0 00-.39.558 8.193 8.193 0 00-.756 1.858c-.13.555-.153 1.136-.325 1.685-.296.997-1.058 1.871-1.145 2.931-.04.472.035 1.027-.293 1.35a2.151 2.151 0 01-.26.196c-.231.16-.426.369-.573.611-.096.2-.225.383-.381.539-.296.229-.784.206-.93.558-.147.352.23.768.142 1.153-.071.313-.406.456-.65.665a2.373 2.373 0 00-.554 1.074 3.313 3.313 0 01-2.776-.722c.132.343.227.698.287 1.06-.387-.422-1.025-.544-1.497-.764a4.79 4.79 0 01-1.595-1.21l.853-.12-3.775-5.849-1.113-.232 1 1.957a.61.61 0 00-.326.419 1.818 1.818 0 00-.04.665c.054.524.14 1.045.258 1.558l.29 1.376c.024.13.055.257.094.383a3.72 3.72 0 00-1.12.13 9.663 9.663 0 00-2.32-.562 1.16 1.16 0 00-.524.026 1.27 1.27 0 00-.488.406 15.955 15.955 0 00-1.725 2.479c-2.027 3.603-4.735 6.747-7.27 10.004-1.75.728-3.514 1.42-5.281 2.104l-3.798 1.479c-.758.296-1.545.598-2.352.545-.365-.023-.808-.08-1.013.236-.1.156-.177.326-.23.505-.134 0-.267.033-.391.04h-.023c-.24-.612-.449-1.266-.911-1.712a.568.568 0 00-.43.333c-.09.172-.146.362-.25.521-.205.306-.56.456-.814.715-.254.26-.413.665-.686.917a2.694 2.694 0 01-1.302.516 8.112 8.112 0 00-2.02.784 3.426 3.426 0 01-.75.352 2.76 2.76 0 01-.875.03l-2.01-.15a1.533 1.533 0 00-.538.024 1.02 1.02 0 00-.65 1.053c.049.45.279.86.634 1.13a4.2 4.2 0 001.145.609c1.748.69 3.55 1.23 5.386 1.612V210a8.98 8.98 0 004.104.997.6.6 0 00.306-.056.696.696 0 00.257-.413 17.28 17.28 0 00.803-4.024c.252-.017.498-.081.726-.19.693-.193 1.38.293 2.093.372.878.097 1.695-.425 2.525-.747.12-.047.24-.087.361-.127-.237.313-.516.59-.83.821-.345.253-.732.439-1.07.701a7.139 7.139 0 01-.902.715 5.366 5.366 0 01-.693.273 4.662 4.662 0 00-.976.501 2.05 2.05 0 00-.677.665.924.924 0 00-.085.88.891.891 0 00.69.536c.272.05.55.057.823.023 1.087-.083 2.171-.186 3.255-.286a8.934 8.934 0 001.363-.199c.238-.06.472-.14.71-.203a5.63 5.63 0 011.24-.19c.121-.009.243.003.36.037.254.084.433.333.69.4a1.06 1.06 0 00.492-.07 11.062 11.062 0 012.415-.263c.354-.02.77-.09.937-.426.201-.415-.137-.88-.27-1.329a4.09 4.09 0 01-.111-.87 5.517 5.517 0 00-.599-2.071 5.66 5.66 0 01-.446-.944 23.334 23.334 0 004.44-2.3c.8-.509 1.626-1.057 2.53-1.243 1.055-.216 2.142.07 3.18.375a70.498 70.498 0 017.286 2.596c1.14.475 2.278.98 3.443 1.33.34.469.753.88 1.22 1.216.782.515 1.735.665 2.653.738 1.24.116 2.484.163 3.729.143.95-.017 1.93-.083 2.78-.525.207-.11.402-.24.582-.393.65.12 1.318-.236 1.828-.69a4.532 4.532 0 001.4-2.244c.3-1.2.068-2.6.79-3.58.193-.262.443-.475.632-.741a2.03 2.03 0 00.325-1.206l.033-.05c.163-.386.273-.793.325-1.21.086-.326.195-.645.326-.954a29.23 29.23 0 00.956-2.835c.189-.638.336-1.287.443-1.944a23.47 23.47 0 00.166-1.582c.052-.828.21-1.644.469-2.43a20.224 20.224 0 001.077-5.823v-.116c1.957-.22 3.43-1.924 3.4-3.935a4.255 4.255 0 00-.351-1.699 5.36 5.36 0 00.677-2.642zm-18.403 22.837c.056.202.12.405.186.608-.3-.303-.596-.615-.898-.914.12.036.24.076.358.12.124.05.244.112.358.186h-.004zm-1.458-.998c-1.776-1.575-3.833-2.798-5.652-4.32.976.502 1.952 1.083 2.929 1.642a81.67 81.67 0 003.45 1.907 2.845 2.845 0 01-.717.758l-.01.013zm.759-3.968l.084-.09v.622c-.16-.053-.325-.107-.478-.166a4.07 4.07 0 00.397-.38l-.003.014zm-15.643 4.268a15.07 15.07 0 001.897-2.762c.703 1.26 1.848 2.167 2.825 3.22-1.569-.226-3.14-.402-4.719-.472l-.003.014z" fill="url(#a)" fill-rule="nonzero"/><path fill="#2F2E41" fill-rule="nonzero" d="M188 180l1.135.224 3.865 5.552-1.707.224z"/><path d="M161 202.083c.312.997.697 1.972 1.152 2.917a28.706 28.706 0 003.848-1.06c-.243-.365-.51-.715-.8-1.047a3.758 3.758 0 00-1.087-.807c-.4-.168-.893-.042-1.32-.02-.598.022-1.195.028-1.793.017z" fill="#FBBEBE" fill-rule="nonzero"/><path d="M163.784 204.353c-.69-.209-1.112-.88-1.393-1.526-.28-.647-.508-1.351-1.041-1.827a.62.62 0 00-.47.342c-.102.171-.163.366-.28.53-.22.308-.611.459-.892.722-.28.264-.454.664-.756.928a3.08 3.08 0 01-1.422.526 9.228 9.228 0 00-2.224.794 3.88 3.88 0 01-.824.342 3.242 3.242 0 01-.963.031l-2.214-.154a1.792 1.792 0 00-.59.028 1.026 1.026 0 00-.71 1.067c.06.461.317.877.71 1.146a4.79 4.79 0 001.258.616 39.053 39.053 0 005.934 1.632v.42a10.587 10.587 0 004.516 1.027c.122.01.244-.01.355-.058a.71.71 0 00.284-.417c.532-1.495.841-3.055.92-4.633.041-.399.01-.802-.092-1.19-.12-.384.292-.223-.092-.373" fill="#2F2E41" fill-rule="nonzero"/><path d="M203.463 196.686c-6.097.383-12.118-1.47-18.225-1.669a8.803 8.803 0 00-2.265.15c-.777.217-1.53.52-2.244.904-3.272 1.576-6.658 2.883-10.042 4.19l-3.882 1.497c-.779.298-1.581.602-2.41.551-.37-.024-.821-.082-1.033.24-.63.967-.33 2.394.086 3.481.135.342.363.736.726.777.257-.019.509-.085.743-.195.706-.195 1.413.297 2.14.376.9.099 1.735-.431 2.584-.756 1.406-.537 2.944-.52 4.423-.776 2.482-.428 4.78-1.622 6.932-2.983.819-.516 1.65-1.07 2.588-1.258 1.08-.22 2.192.068 3.252.38a73.207 73.207 0 017.45 2.63 33.565 33.565 0 003.895 1.47 13.62 13.62 0 008.728-.527c.99-.4 2.033-1.104 2.09-2.195.032-.623-.433-1.17-.743-1.71-.202-.342-.4-.684-.618-1.01-1.05-1.586-2.324-3.683-4.175-3.567z" fill="#2F2E41" fill-rule="nonzero"/><path d="M203.463 196.686c-6.097.383-12.118-1.47-18.225-1.669a8.803 8.803 0 00-2.265.15c-.777.217-1.53.52-2.244.904-3.272 1.576-6.658 2.883-10.042 4.19l-3.882 1.497c-.779.298-1.581.602-2.41.551-.37-.024-.821-.082-1.033.24-.63.967-.33 2.394.086 3.481.135.342.363.736.726.777.257-.019.509-.085.743-.195.706-.195 1.413.297 2.14.376.9.099 1.735-.431 2.584-.756 1.406-.537 2.944-.52 4.423-.776 2.482-.428 4.78-1.622 6.932-2.983.819-.516 1.65-1.07 2.588-1.258 1.08-.22 2.192.068 3.252.38a73.207 73.207 0 017.45 2.63 33.565 33.565 0 003.895 1.47 13.62 13.62 0 008.728-.527c.99-.4 2.033-1.104 2.09-2.195.032-.623-.433-1.17-.743-1.71-.202-.342-.4-.684-.618-1.01-1.05-1.586-2.324-3.683-4.175-3.567z" fill="#000" fill-rule="nonzero" opacity=".1"/><path d="M173 202.953a42.35 42.35 0 002.462 1.047c.465-1.043 1.332-1.766 1.53-2.955a.375.375 0 000-.158.25.25 0 00-.093-.115c-.594-.448-1.253-.71-1.93-.77-.535-.046-.777.716-1.02 1.25-.084.216-.732 1.801-.949 1.701z" fill="#FBBEBE" fill-rule="nonzero"/><path d="M173.862 202.498a2.176 2.176 0 01-1.469-.947c-.141-.241-.29-.567-.573-.55-.283.017-.38.322-.439.577a16.282 16.282 0 01-.826 2.788 5.238 5.238 0 01-1.765 2.28c-.37.25-.781.44-1.144.706a7.56 7.56 0 01-.967.72c-.24.108-.489.199-.743.271a5.137 5.137 0 00-1.06.506c-.292.168-.54.4-.723.68a1 1 0 00-.062.95c.15.25.402.424.691.48.291.047.588.054.881.02 1.164-.085 2.325-.187 3.486-.289.492-.03.98-.096 1.462-.197.255-.061.504-.143.756-.207.436-.11.881-.173 1.33-.19.13-.01.262.003.387.037.27.085.46.34.736.4.178.019.358-.004.525-.067.85-.177 1.716-.266 2.585-.265.38-.02.829-.092 1.002-.428.217-.418-.142-.886-.287-1.335a4.12 4.12 0 01-.121-.876 5.27 5.27 0 00-.64-2.082c-.296-.536-.69-1.127-.493-1.698a1.47 1.47 0 00.197-.58c-.049-.921-2.201-.581-2.726-.704z" fill="#2F2E41" fill-rule="nonzero"/><path d="M193.179 187.482a4.845 4.845 0 01-2.442-2.467c-.1-.237-.185-.483-.282-.723a5.523 5.523 0 00-1.46-2.059.694.694 0 00-.54-.233.583.583 0 00-.398.432c-.057.22-.071.45-.043.675.057.524.145 1.044.265 1.557l.299 1.377c.038.211.1.417.186.614.127.231.296.436.497.604.272.257.548.503.826.743.154.141.322.266.501.371.294.142.61.235.932.277 1.218.23 2.455.56 3.48 1.35 0 0 0-.921-.023-1.013a1.365 1.365 0 00-.259-.739c-.385-.422-1.048-.547-1.54-.766z" fill="#FBBEBE" fill-rule="nonzero"/><path d="M193.179 187.482a4.845 4.845 0 01-2.442-2.467c-.1-.237-.185-.483-.282-.723a5.523 5.523 0 00-1.46-2.059.694.694 0 00-.54-.233.583.583 0 00-.398.432c-.057.22-.071.45-.043.675.057.524.145 1.044.265 1.557l.299 1.377c.038.211.1.417.186.614.127.231.296.436.497.604.272.257.548.503.826.743.154.141.322.266.501.371.294.142.61.235.932.277 1.218.23 2.455.56 3.48 1.35 0 0 0-.921-.023-1.013a1.365 1.365 0 00-.259-.739c-.385-.422-1.048-.547-1.54-.766z" fill="#000" fill-rule="nonzero" opacity=".1"/><circle fill="#2F2E41" fill-rule="nonzero" cx="206.5" cy="175.5" r="1.5"/><path d="M206.379 174.043a1.633 1.633 0 00-1.184.174 1.63 1.63 0 00-.403.566 8.154 8.154 0 00-.78 1.877c-.134.564-.157 1.15-.334 1.707-.306 1.024-1.093 1.894-1.183 2.962-.04.478.036 1.041-.304 1.366a1.96 1.96 0 01-.27.194 2.074 2.074 0 00-.59.621 1.968 1.968 0 01-.417.59c-.306.233-.81.209-.96.567-.15.359.237.775.147 1.164-.073.317-.42.464-.667.683a2.38 2.38 0 00-.57 1.088 3.47 3.47 0 01-2.864-.733c.417 1.054.427 2.218.443 3.355a1.41 1.41 0 01-.263 1.023c1.194.028 2.354.342 3.518.625.497.17 1.036.17 1.533 0 .266-.147.504-.34.704-.573.633-.66 1.297-1.366 1.45-2.284.04-.516.05-1.035.027-1.553.06-.639.19-1.27.383-1.88a22.47 22.47 0 00.667-3.874c.07-.809.75-1.457 1.11-2.18.667-1.366 1.367-2.782 1.42-4.311.047-.499-.12-1.11-.613-1.174z" fill="#2F2E41" fill-rule="nonzero"/><path d="M206.379 174.043a1.633 1.633 0 00-1.184.174 1.63 1.63 0 00-.403.566 8.154 8.154 0 00-.78 1.877c-.134.564-.157 1.15-.334 1.707-.306 1.024-1.093 1.894-1.183 2.962-.04.478.036 1.041-.304 1.366a1.96 1.96 0 01-.27.194 2.074 2.074 0 00-.59.621 1.968 1.968 0 01-.417.59c-.306.233-.81.209-.96.567-.15.359.237.775.147 1.164-.073.317-.42.464-.667.683a2.38 2.38 0 00-.57 1.088 3.47 3.47 0 01-2.864-.733c.417 1.054.427 2.218.443 3.355a1.41 1.41 0 01-.263 1.023c1.194.028 2.354.342 3.518.625.497.17 1.036.17 1.533 0 .266-.147.504-.34.704-.573.633-.66 1.297-1.366 1.45-2.284.04-.516.05-1.035.027-1.553.06-.639.19-1.27.383-1.88a22.47 22.47 0 00.667-3.874c.07-.809.75-1.457 1.11-2.18.667-1.366 1.367-2.782 1.42-4.311.047-.499-.12-1.11-.613-1.174z" fill="#000" fill-rule="nonzero" opacity=".1"/><path d="M204.476 198.6c-1.272-.608-2.2-1.738-3.227-2.706-1.961-1.85-4.36-3.156-6.42-4.89-1.364-1.147-2.586-2.483-4.089-3.444a10.127 10.127 0 00-4.379-1.542 1.21 1.21 0 00-.535.027 1.286 1.286 0 00-.499.398 15.619 15.619 0 00-1.767 2.436c-2.612 4.449-6.32 8.192-9.396 12.332a.555.555 0 00-.036.75l.624 1.23c.35.686.912 1.488 1.652 1.352.34-.098.643-.293.875-.56l2.807-2.695 2.943-2.825c1.724-1.657 3.477-3.348 4.604-5.463.878 1.528 2.437 2.53 3.507 3.932.406.53.736 1.117 1.1 1.68.584.905 1.245 1.754 1.905 2.6l3.379 4.326a6.549 6.549 0 001.562 1.59c.8.508 1.774.644 2.715.727a34.84 34.84 0 003.814.14c.971-.017 1.982-.08 2.84-.515.86-.434 1.59-1.326 1.543-2.297a3.42 3.42 0 00-.486-1.436c-1.192-2.22-2.77-4.077-5.036-5.148z" fill="#2F2E41" fill-rule="nonzero"/><circle fill="#E8E8F0" fill-rule="nonzero" cx="208" cy="176" r="1"/><path d="M206.526 175.528c.252.505.296 1.09.123 1.627a6.314 6.314 0 01-.716 1.497 7.46 7.46 0 01-.933 1.34c1.72.085 3.388-.595 4.905-1.421 1.223-.651 2.443-1.481 3.095-2.721a1.423 1.423 0 01-1.14-.212 4.28 4.28 0 01-.874-.82l-.861-.976a3.902 3.902 0 01-.533-.706 1.967 1.967 0 01-.229-1.136 6.467 6.467 0 01-1.142.957c-.617.407-1.291.7-1.914 1.1-.22.143-.707.374-.58.65.125.277.625.508.8.82z" fill="#FBBEBE" fill-rule="nonzero"/><path d="M206.526 175.528c.252.505.296 1.09.123 1.627a6.314 6.314 0 01-.716 1.497 7.46 7.46 0 01-.933 1.34c1.72.085 3.388-.595 4.905-1.421 1.223-.651 2.443-1.481 3.095-2.721a1.423 1.423 0 01-1.14-.212 4.28 4.28 0 01-.874-.82l-.861-.976a3.902 3.902 0 01-.533-.706 1.967 1.967 0 01-.229-1.136 6.467 6.467 0 01-1.142.957c-.617.407-1.291.7-1.914 1.1-.22.143-.707.374-.58.65.125.277.625.508.8.82z" fill="#000" fill-rule="nonzero" opacity=".1"/><path d="M207.129 175.193a1.446 1.446 0 000 1.71c.05.063.243.453.338.457a.31.31 0 00.206-.102c.408-.415.79-.853 1.142-1.313.356-.466.87-.794 1.453-.926.706-.108 1.385.256 2.003.604a1.9 1.9 0 01.676.545c.13.228.207.482.226.742.178 1.565.245 3.14.203 4.713a17.622 17.622 0 01-.23 3.39c-.115.578-.287 1.143-.368 1.727-.06.514-.083 1.032-.071 1.549v2.166c-.015.397.014.794.088 1.185.14.466.303.925.49 1.375.164.536.277 1.085.337 1.641l.305 2.242c.098.709.168 1.48-.274 2.048-.196.26-.46.463-.676.719-.76.938-.507 2.3-.845 3.466a4.38 4.38 0 01-1.466 2.182c-.537.443-1.233.794-1.929.657-.936-.171-1.5-1.12-1.757-2.016-.257-.896-.338-1.874-.902-2.625-.453-.62-1.152-1.008-1.784-1.45-.632-.444-1.253-1.012-1.392-1.76-.06-.328-.023-.657-.057-.985a2.357 2.357 0 00-1.494-1.903c-.48-.18-1.074-.247-1.351-.657a3.17 3.17 0 001.405-1.835c.21-.749.324-1.52.338-2.297l.163-2.606c.07-1.165.104-2.32.631-3.367.237-.466.53-.906.774-1.369.326-.65.604-1.32.831-2.009.382-1.066.767-2.136 1.108-3.216a6.296 6.296 0 01.608-1.5c.315-.492.73-1.083 1.27-1.182z" fill="#E8E8F0" fill-rule="nonzero"/><path d="M202.065 192.976l.612.024.13-1.064c.018-.213.061-.422.129-.622.102-.21.22-.409.352-.594.604-.98.56-2.283.708-3.475.199-1.588.775-3.079 1.346-4.543l1.189-3.052c.106-.251.19-.513.253-.782.052-.298.077-.6.073-.904 0-.47.134-2.185.143-2.659 0-.174-.332-.077-.402-.232-.149-.335-.353.578-.632.78a1.815 1.815 0 00-.548.923c-.256.769-.414 1.578-.652 2.35a5 5 0 01-1.11 2.079c-.242.248-.525.443-.755.705-.74.842-.81 2.172-.836 3.357-.018.736-.137 7.71 0 7.71z" fill="#2F2E41" fill-rule="nonzero"/><path d="M211.453 174.076c-.674.264-1.064.99-1.256 1.696-.192.706-.273 1.451-.643 2.078-.862 1.471-3.06 1.9-3.67 3.49a6.263 6.263 0 00-.245 1.649c-.108 1.138-.492 2.24-.606 3.377a14.55 14.55 0 00.064 2.656l.77 8.981a11.64 11.64 0 01-.232 3.958 3.952 3.952 0 002.31-.373c.724-.33 1.383-.765 2.077-1.14 1.195-.66 2.515-1.106 3.558-1.98.19-.144.352-.32.482-.518.167-.377.28-.776.336-1.184a6.57 6.57 0 01.337-.93c.387-.905.724-1.83 1.01-2.77.196-.624.35-1.26.461-1.904.084-.511.128-1.029.175-1.543.054-.81.218-1.609.488-2.375a18.703 18.703 0 001.121-5.69c.024-.28.004-.563-.057-.838a4.45 4.45 0 00-.464-.95c-.32-.59-.512-1.24-.815-1.837-.673-1.352-1.882-2.378-3.144-3.239-.647-.419-1.357-.874-2.057-.614z" fill="#2F2E41" fill-rule="nonzero"/><path d="M196.06 189.22a5.391 5.391 0 01-1.41-1.162c-.186-.237-.325-.501-.526-.734a3.413 3.413 0 00-1.775-1.1 7.906 7.906 0 00-2.057-.215 3.381 3.381 0 00-1.366.18c-.45.16-.793.56-.909 1.058-.1.6.26 1.18.691 1.561.401.357.874.607 1.38.73.411.078.827.13 1.245.159 2.453.278 4.643 1.727 6.791 3.05A88.755 88.755 0 00203.9 196c.078-.638.11-1.281.097-1.925 0-.48-.032-1.212-.45-1.495-.487-.33-1.299-.405-1.837-.602a27.843 27.843 0 01-5.65-2.757z" fill="#FBBEBE" fill-rule="nonzero"/><circle fill="#FBBEBE" fill-rule="nonzero" cx="207.5" cy="169.5" r="4.5"/><path d="M213.2 179.568a7.172 7.172 0 00-.881 1.607c-.564 1.131-1.446 2.101-1.885 3.299-.465 1.244-.449 2.725-1.35 3.705a1.276 1.276 0 00-.395.56 2.717 2.717 0 01-.047.406c-.129.357-.726.373-.838.736-.03.105 0 .22-.054.33-.091.234-.405.267-.618.409-.442.294-.337.973-.675 1.395-.28.32-.712.468-1.134.39a4.269 4.269 0 01-1.182-.433 1.078 1.078 0 00-.422-.128.874.874 0 00-.49.161c-.84.522-1.236 1.558-1.229 2.534.06.977.296 1.935.699 2.83.048.155.127.3.233.423.277.287.763.24 1.134.08a5.347 5.347 0 011.105-.483c.702-.125 1.39.35 2.103.31a2.999 2.999 0 001.422-.613c.723-.43 1.37-.97 1.917-1.6.311-.4.54-.855.814-1.28.35-.523.733-1.023 1.148-1.498l2.624-3.137c.263-.297.499-.616.705-.954.237-.456.421-.936.55-1.431.282-.827.464-1.683.544-2.55a9.948 9.948 0 00-.192-2.142 7.306 7.306 0 00-.564-2.035c-.584-1.155-1.972-2.111-3.042-.89z" fill="#2F2E41" fill-rule="nonzero"/><path d="M221 173.071a4.842 4.842 0 00-2.024-3.95c-.04-2.822-2.14-5.202-4.966-5.623-.546-2.672-2.959-4.57-5.718-4.496-2.759.074-5.064 2.096-5.463 4.794-1.817-.404-3.478.121-3.78 1.227-.324 1.156.974 2.508 2.894 3.021a5.38 5.38 0 001.852.183 5.702 5.702 0 003.912 2.403 5.778 5.778 0 004.266 4.347c.29.694.741 1.31 1.317 1.801 0 .135-.023.272-.023.413a3.645 3.645 0 001.803 3.293 3.74 3.74 0 003.79 0 3.645 3.645 0 001.803-3.293c0-.553-.12-1.099-.354-1.602a4.866 4.866 0 00.691-2.518z" fill="#F86D70" fill-rule="nonzero"/><path d="M199.404 165.786c.327-1.197 2.11-1.765 4.096-1.328.477-2.965 3.049-5.16 6.092-5.201H210a6.054 6.054 0 00-1.758-.257c-3.043.04-5.615 2.236-6.092 5.201-1.97-.437-3.77.132-4.096 1.328-.352 1.252 1.055 2.715 3.136 3.27.387.106.784.173 1.185.201-1.976-.569-3.305-1.99-2.971-3.214zm15.964 12.248c0-.158 0-.311.024-.465a5.335 5.335 0 01-1.417-2.004c-2.304-.6-4.08-2.477-4.591-4.853a6.1 6.1 0 01-4.21-2.68A5.422 5.422 0 01204 168a6.082 6.082 0 004.057 2.466c.506 2.377 2.285 4.256 4.59 4.848a5.357 5.357 0 001.418 2.009c0 .15-.024.303-.024.46-.037 2.28 1.731 4.164 3.959 4.217-1.6-.631-2.648-2.212-2.632-3.966z" fill="#000" fill-rule="nonzero" opacity=".1"/><circle fill="#FBBEBE" fill-rule="nonzero" transform="rotate(-37.22 208.04 171.198)" cx="208.04" cy="171.198" r="1"/><path d="M103.192 194.533l4.37-2.492a10.263 10.263 0 00-2.234-2.593l-8.242 2.485 6.457-3.682a10.785 10.785 0 00-10.396.171c-3.19 1.834-5.147 5.164-5.147 8.761 0 5.623 4.702 5.817 10.5 5.817s10.5-.194 10.5-5.817a9.844 9.844 0 00-.902-4.136l-4.906 1.486z" fill="#6C63FF" fill-rule="nonzero"/><path d="M104.53 199.52a8.51 8.51 0 00-1.57-1.369c-.802-.594-1.637-1.199-2.585-1.398-.832-.177-1.69-.026-2.538-.081-1.473-.1-2.86-.805-3.89-1.978-.605-.694-1.08-1.546-1.809-2.078a3.632 3.632 0 00-2.708-.55c-.27.042-.538.103-.801.181a12.973 12.973 0 00-.629 4.008c0 6.52 4.767 6.745 10.645 6.745 2.854 0 5.442-.052 7.355-.852l-.333-.66a9.357 9.357 0 00-1.137-1.968z" fill="#000" fill-rule="nonzero" opacity=".1"/></g></svg>