<svg width="375" height="295" xmlns="http://www.w3.org/2000/svg"><g fill="none" fill-rule="evenodd"><path d="M121.844 73l-44.297 36.945a20.262 20.262 0 014.085 20.302c-2.46 7.007-8.551 12.087-15.854 13.222a20.008 20.008 0 01-19.082-7.793L6.98 168.799 70.643 246l114.862-95.799L121.844 73zM375 185.527C375 231.091 347.985 247 314.66 247c-33.323 0-60.338-15.91-60.338-61.473S314.66 82 314.66 82 375 139.964 375 185.527z" fill="#F2F2F2" fill-rule="nonzero"/><path fill="#3F3D56" fill-rule="nonzero" d="M312.137 239.37l.61-38.214 25.351-47.277-25.256 41.282.274-17.183 17.472-34.204-17.4 29.657.493-30.904 18.71-27.23-18.633 22.37.308-56.667-1.934 75.017.159-3.095-19.022-29.68 18.717 35.621-1.773 34.515-.052-.916-21.93-31.234 21.863 34.47-.221 4.317-.04.064.018.354L305.354 288h6.009l.72-45.23 21.81-34.385z"/><ellipse fill="#3F3D56" fill-rule="nonzero" cx="261.802" cy="288.5" rx="84.275" ry="6.5"/><path fill="#3F3D56" fill-rule="nonzero" d="M256.316 0h13.963v290h-13.963z"/><path d="M339.096 278.823c0 8.284-4.912 11.177-10.971 11.177a18.804 18.804 0 01-1.254-.043c-5.468-.388-9.717-3.43-9.717-11.134 0-7.973 10.162-18.034 10.926-18.779v-.001l.045-.043s10.97 10.539 10.97 18.823z" fill="#6C63FF" fill-rule="nonzero"/><path d="M327.92 288.737l4.35-5.622-4.361 6.24-.012.645c-.304-.006-.606-.02-.904-.038l.47-8.29-.004-.064.008-.012.044-.783-4.373-6.255 4.387 5.668.01.166.354-6.263-3.743-6.464 3.789 5.364.369-12.985.001-.044v.043l-.062 10.24 3.727-4.06-3.742 4.942-.098 5.607 3.48-5.382-3.495 6.207-.055 3.118 5.052-7.49-5.07 8.578-.122 6.934z" fill="#3F3D56" fill-rule="nonzero"/><path d="M240.433 271.834L238.024 270s-1.595 9.128.185 10.496c1.779 1.368 8.451 3.647 8.451 6.383 0 2.735 15.124 6.382 15.57 2.279.444-4.103-1.335-6.382-1.335-6.382s-7.117-7.295-8.007-8.662c-.89-1.368-3.114-4.103-3.114-4.103l-9.341 1.823z" fill="#2F2E41" fill-rule="nonzero"/><path d="M275.266 162.81s-.065.385-.177 1.089a402.05 402.05 0 00-.419 2.597c-1.812 11.208-7.099 44.2-6.74 45.29.43 1.311 3.452 6.121 0 7.433-.333.127-.691.538-1.075 1.185a25.598 25.598 0 00-1.826 4.364c-2.058 6.052-4.26 15.738-5.533 22.445-.556 2.948-.936 5.318-1.048 6.56a3.613 3.613 0 00-.013.865c.431 1.75-2.59 7.871-3.884 9.62-1.295 1.75-3.453 3.499-3.021 5.248.431 1.749-10.79 6.559-12.084 3.498-1.295-3.06-1.295-4.81-1.727-5.685-.431-.874-.863-6.996 1.295-7.87 2.158-.875.863-16.18 3.021-19.24.72-1.02 1.821-4.47 2.974-8.62.453-1.626.91-3.358 1.36-5.094a583.39 583.39 0 003.434-14.273l-.431-51.161L273.108 158l.609 1.36 1.212 2.698.337.752zm.992 84.74s3.623-3.488 5.434 0c1.812 3.49 3.623 17.01 6.793 20.064 3.17 3.053 7.246 18.318 2.717 19.19-4.528.873-9.51-1.308-9.963-3.925-.452-2.617-9.962-16.137-9.962-17.446 0-1.308 6.34-6.106 6.34-6.106l-1.359-11.776z" fill="#2F2E41" fill-rule="nonzero"/><path d="M222.407 139.204s5.673 51.305 6.982 56.129c1.31 4.823 8.291 23.24 10.473 26.31 2.182 3.07 16.146 28.064 17.892 29.38 1.745 1.315 5.236 4.823 5.236 4.823s6.546 6.577 7.419 7.893c.873 1.315 8.291-2.631 8.727-5.262.437-2.631-.436-7.016-.872-8.77-.437-1.754.872-4.385-.437-5.7-1.309-1.316-7.855-7.894-7.855-10.963 0-3.07-11.346-21.048-15.71-24.995-4.363-3.946-3.49-10.524-3.49-10.524v-26.749l24-7.454s-1.309-21.048-4.363-21.048c-3.055 0-43.202-7.016-48.002-3.07z" fill="#2F2E41" fill-rule="nonzero"/><ellipse fill="#9F616A" fill-rule="nonzero" cx="258.81" cy="51.5" rx="14.461" ry="14.5"/><path d="M253.723 62.5s-1.777 6.607-3.998 8.369c-2.221 1.762 5.775 9.25 5.775 9.25l15.106.881 2.665-8.37s-4.887-9.69-3.554-15.856c1.333-6.167-15.994 5.726-15.994 5.726z" fill="#9F616A" fill-rule="nonzero"/><path d="M247.48 71s3.908.438 4.776 1.75c.869 1.313 6.947 5.25 11.722 4.375 4.776-.875 7.815-2.187 8.683-1.75.868.438 2.605 9.625 2.605 9.625l-4.776 14 .869 38.5 1.302 10.5s2.605-3.5-7.814-1.312c-10.42 2.187-23.878-1.75-28.22-2.188-4.341-.438-11.722-1.75-12.156-4.375-.434-2.625 1.303-12.25 1.303-12.25l6.946-29.312 4.341-15.75L247.481 71z" fill="#3F3D56" fill-rule="nonzero"/><path d="M251.33 67.938s-3.685-1.96-4.992-.213c-1.307 1.748-17.86 4.37-17.86 5.68 0 1.312-3.484 36.705-2.613 39.763.871 3.06-1.742 6.555-1.742 6.555l-3.05 13.108s-8.276 24.907-4.791 25.78c3.485.875 6.534 0 7.84 0 1.308 0 .872-16.604 4.357-20.973 3.485-4.37 8.276-15.294 9.147-17.478.871-2.185 11.761-32.335 11.326-35.83-.436-3.496 2.378-16.392 2.378-16.392zM269.73 71s3.524 0 3.965.868c.44.868 4.845 6.508 6.607 7.81 1.762 1.302 7.93 6.943 7.93 8.244 0 1.302-12.775 10.848-12.775 10.848s-5.286 25.6-2.643 34.278c2.643 8.678 6.607 29.506 4.845 30.807-1.762 1.302-5.726 1.736-5.726 0 0-1.735-2.643-20.393-4.846-24.298-2.202-3.905-8.81-28.638-6.167-35.58C263.563 97.034 269.73 71 269.73 71z" fill="#D0CDE1" fill-rule="nonzero"/><path d="M211.446 114s-.435 13.395 4.354 20.309c4.788 6.913 7.835 14.691 7.835 14.691s7.836-2.16 9.142-4.753c1.306-2.593 9.577-.432 9.577-1.296 0-.865-10.012-5.186-10.883-6.05-.87-.864-3.918-.864-5.66-2.592-1.74-1.729-2.176-5.618-2.176-5.618l-1.741-11.234L211.446 114z" fill="#9F616A" fill-rule="nonzero"/><path d="M248.607 42.395c-1.099-.1-2.232-.21-3.203-.735-2.176-1.177-2.753-4.528-1.096-6.369a8.21 8.21 0 011.521-1.227l3.29-2.246c1.455-.993 2.944-2.003 4.64-2.47 1.536-.424 3.157-.38 4.746-.282 3.084.193 6.187.59 9.088 1.658 2.901 1.068 5.607 2.855 7.364 5.405 2.786 4.042 2.824 9.493 1.29 14.16-1.534 4.666-4.448 8.73-7.32 12.711l-1.49-7.291c-.132-.65-.304-1.361-.842-1.746-1.339-.955-2.976 1.006-4.619.994-1.055-.008-1.941-.88-2.341-1.859-.4-.98-.426-2.064-.519-3.119-.196-2.234-.974-5.342-3.083-6.574-1.966-1.147-5.217-.808-7.426-1.01z" fill="#2F2E41" fill-rule="nonzero"/><path d="M249.335 163.134s1.613 42.532 2.568 43.838c.955 1.306 0-43.972 0-43.972l-2.568.134z" fill="#000" fill-rule="nonzero" opacity=".1"/><path d="M232.38 74h-3.575s-15.194 20.152-13.407 21.467c1.788 1.314 0 4.819 0 4.819l-3.575 6.571s-4.469 3.943-3.128 4.82c1.34.875 3.128 4.38 3.128 4.38s8.938-1.314 11.62 3.943l5.796-7.173L232.38 74z" fill="#D0CDE1" fill-rule="nonzero"/><path d="M272.202 112.009s-9.544.439-20.39-6.583l-10.845-4.827s-9.544-14.92-10.411-12.287c-.868 2.633 1.301 7.899 1.301 7.899s-13.088 6.127-13.428 6.937c-.34.81 7.355-1.232 7.355-1.232s-1.302 8.338 6.073 8.776c7.375.44 9.544-1.316 9.544-1.316s31.235 26.33 36.44 17.992c5.206-8.338-5.64-15.36-5.64-15.36z" fill="#9F616A" fill-rule="nonzero"/><path d="M283.415 86l4.995 1.75v13.127l1.816 2.626s-.454 5.25-1.816 6.563c-1.362 1.313-4.086.876-3.178 3.939.545 1.996.7 4.074.454 6.125 0 0-8.173 10.065-8.627 8.752-.454-1.313-6.81-17.503-7.719-17.503-.908 0 9.081-25.379 9.081-25.379h4.994z" fill="#D0CDE1" fill-rule="nonzero"/><path d="M225.485 152s-4.81-4.599-2.405-4.829c2.405-.23 10.776-4.828 12.172-2.529 1.395 2.3-9.767 7.358-9.767 7.358z" fill="#2F2E41" fill-rule="nonzero"/><path d="M156.618 280a85.596 85.596 0 0011.933-43.748c0-47.083-37.732-85.252-84.276-85.252S0 189.169 0 236.252A85.596 85.596 0 0011.933 280h144.685z" fill="#3F3D56" fill-rule="nonzero"/><ellipse fill="#6C63FF" fill-rule="nonzero" cx="85.273" cy="231.5" rx="8.477" ry="8.5"/><ellipse fill="#6C63FF" fill-rule="nonzero" cx="19.448" cy="244.5" rx="4.488" ry="4.5"/><ellipse fill="#6C63FF" fill-rule="nonzero" cx="22.44" cy="209.5" rx="4.488" ry="4.5"/><ellipse fill="#6C63FF" fill-rule="nonzero" cx="42.387" cy="180.5" rx="4.488" ry="4.5"/><ellipse fill="#6C63FF" fill-rule="nonzero" cx="74.302" cy="165.5" rx="4.488" ry="4.5"/><ellipse fill="#6C63FF" fill-rule="nonzero" cx="109.209" cy="170.5" rx="4.488" ry="4.5"/><ellipse fill="#6C63FF" fill-rule="nonzero" cx="138.132" cy="191.5" rx="4.488" ry="4.5"/><ellipse fill="#6C63FF" fill-rule="nonzero" cx="150.1" cy="224.5" rx="4.488" ry="4.5"/><ellipse fill="#6C63FF" fill-rule="nonzero" cx="145.113" cy="260.5" rx="4.488" ry="4.5"/><path d="M84.774 231l41.888-32" stroke="#6C63FF" stroke-width="4"/><ellipse stroke="#3F3D56" stroke-width="2" cx="123.172" cy="73.5" rx="5.485" ry="5.5"/><ellipse fill="#3F3D56" fill-rule="nonzero" cx="154.089" cy="137.5" rx="5.485" ry="5.5"/><ellipse fill="#F2F2F2" fill-rule="nonzero" cx="62.334" cy="122.5" rx="15.459" ry="15.5"/></g></svg>