<svg width="375" height="335" xmlns="http://www.w3.org/2000/svg"><defs><linearGradient x1="0%" y1="50%" x2="100%" y2="50%" id="a"><stop stop-color="gray" stop-opacity=".25" offset="0%"/><stop stop-color="gray" stop-opacity=".12" offset="53.514%"/><stop stop-color="gray" stop-opacity=".1" offset="100%"/></linearGradient></defs><g fill="none"><path d="M188.5 5.015L71 77.373s0 149.239 117.5 230.642C306 226.612 306 77.373 306 77.373L188.5 5.015z" fill="#3F3D56"/><path d="M189.017 5.015L187 6.25v300.352c.67.472 1.34.944 2.017 1.412C307 226.612 307 77.373 307 77.373L189.017 5.015z" fill="#6C63FF" opacity=".04"/><path d="M9.552 19.696l21.97 20.369L58.754.328 69.74 9.586 31.521 58.582.398 23.4z" opacity=".7" transform="translate(151 131.015)" fill="url(#a)"/><path fill="#3AD29F" d="M165.5 152.815l18 16.342 25.5-37.142 9 7.428-34.5 44.572-25.5-28.229z"/><path d="M72.509 21.065a1.648 1.648 0 01-.918-1.991c.019-.06.03-.12.036-.183a.826.826 0 00-1.485-.548.792.792 0 00-.091.163 1.648 1.648 0 01-1.992.918.792.792 0 00-.182-.036.826.826 0 00-.548 1.484c.05.037.105.068.162.092a1.648 1.648 0 01.918 1.991.792.792 0 00-.036.183.826.826 0 001.485.548.792.792 0 00.091-.163 1.648 1.648 0 011.992-.918c.059.02.12.031.183.036a.826.826 0 00.547-1.484.792.792 0 00-.162-.092zm-64 142a1.648 1.648 0 01-.918-1.991c.019-.06.03-.12.036-.183a.826.826 0 00-1.485-.548.792.792 0 00-.091.163 1.648 1.648 0 01-1.992.918.792.792 0 00-.182-.036.826.826 0 00-.548 1.484c.05.037.105.068.162.092a1.648 1.648 0 01.918 1.991.792.792 0 00-.036.183.826.826 0 001.485.548.792.792 0 00.091-.163 1.648 1.648 0 011.992-.918c.059.02.12.031.183.036a.826.826 0 00.547-1.484.792.792 0 00-.162-.092z" fill="#4D8AF0" opacity=".5"/><circle fill="#F55F44" opacity=".5" cx="326.5" cy="110.515" r="2.5"/><circle fill="#F55F44" opacity=".5" cx="52.5" cy="297.515" r="2.5"/><circle fill="#F55F44" opacity=".5" cx="371.5" cy="211.515" r="2.5"/><path d="M307.509 33.065a1.648 1.648 0 01-.918-1.991c.019-.06.03-.12.036-.183a.826.826 0 00-1.485-.548.792.792 0 00-.091.163 1.648 1.648 0 01-1.992.918.792.792 0 00-.182-.036.826.826 0 00-.548 1.484c.05.037.105.068.162.092a1.648 1.648 0 01.918 1.991.792.792 0 00-.036.183.826.826 0 001.485.548.792.792 0 00.091-.163 1.648 1.648 0 011.992-.918c.059.02.12.031.183.036a.826.826 0 00.547-1.484.792.792 0 00-.162-.092zm43 274a1.648 1.648 0 01-.918-1.991c.019-.06.03-.12.036-.183a.826.826 0 00-1.485-.548.792.792 0 00-.091.163 1.648 1.648 0 01-1.992.918.792.792 0 00-.182-.036.826.826 0 00-.548 1.484c.05.037.105.068.162.092a1.648 1.648 0 01.918 1.991.792.792 0 00-.036.183.826.826 0 001.485.548.792.792 0 00.091-.163 1.648 1.648 0 011.992-.918c.059.02.12.031.183.036a.826.826 0 00.547-1.484.792.792 0 00-.162-.092zm-345-227a1.648 1.648 0 01-.918-1.991c.019-.06.03-.12.036-.183a.826.826 0 00-1.485-.548.792.792 0 00-.091.163 1.648 1.648 0 01-1.992.918.792.792 0 00-.182-.036.826.826 0 00-.548 1.484c.05.037.105.068.162.092a1.648 1.648 0 01.918 1.991.792.792 0 00-.036.183.826.826 0 001.485.548.792.792 0 00.091-.163 1.648 1.648 0 011.992-.918c.059.02.12.031.183.036a.826.826 0 00.547-1.484.792.792 0 00-.162-.092z" fill="#4D8AF0" opacity=".5"/><circle fill="#47E6B1" opacity=".5" cx="34.5" cy="123.515" r="2.5"/><circle fill="#47E6B1" opacity=".5" cx="372.5" cy="144.515" r="2.5"/><g opacity=".5" fill="#47E6B1"><path d="M254.289.015h1.333v7h-1.333z"/><path d="M258.733 2.897v1.235h-7.556V2.897z"/></g><g opacity=".5" fill="#47E6B1"><path d="M259.289 291.015h1.333v7h-1.333z"/><path d="M263.733 293.897v1.235h-7.556v-1.235z"/></g><g opacity=".5" fill="#47E6B1"><path d="M11.289 306.015h1.333v7h-1.333z"/><path d="M15.733 308.897v1.235H8.177v-1.235z"/></g><g opacity=".5" fill="#47E6B1"><path d="M309.289 173.015h1.333v7h-1.333z"/><path d="M313.733 175.897v1.235h-7.556v-1.235z"/></g><path fill="#47E6B1" opacity=".5" d="M347.125 53.215l2.7 2.514 3.825-5.714 1.35 1.142-5.175 6.858L346 53.672z"/><path fill="#6C63FF" d="M257.025 104.755l9.691-.376.483 12.466-9.691.376z"/><path d="M222.667 147.297s-13.887-6.73-13.664-.918c.222 5.812 13.997 9.636 13.997 9.636l-.333-8.718z" fill="#FFB9B9"/><path d="M230.23 195.411s-6.342 15.467-8.685 26.628c-2.343 11.16-5.911 26.52-1.321 37.413 4.59 10.893 17.639 42.908 17.773 46.363.135 3.454-1.118 6.962 1.656 6.855 2.773-.108 17.863-4.842 18.476-6.941.613-2.1-5.149-7.412-5.149-7.412l-14.226-44.424 14.843-28.941 10.706 43.175 2.097 53.888s10.292-3.166 11.786-.456c0 0 4.611-6.405 5.197-9.195.585-2.79-2.178-55.96-2.178-55.96s9.447-60.56 1.82-60.266c-7.625.295-37.496-17.924-52.796-.727z" fill="#6C63FF"/><path d="M239.684 309.833s-6.98 15.68-7.641 16.407c-.661.726-5.21 7.908-1.77 7.773 3.44-.136 11.56-3.957 17.538-9.795 5.977-5.837 13.858-15.952 13.144-16.624-.715-.672-5.61-2.58-5.61-2.58l-15.661 4.82zm27.801 8.446s-.433 6.999-1.737 9.842c-1.303 2.842-1.139 7.026 2.394 6.89 3.534-.135 12.665-1.88 12.665-1.88s.542-4.21-.192-4.881c-.734-.67-3.862-8.231-2.53-10.377 1.33-2.145-10.6.406-10.6.406z" fill="#575A89"/><path d="M273.084 93.015s7.408 11.671 10.295 14.373c2.888 2.701-5.236 8.65-5.236 8.65l-14.54 1.977s.183-13.377-.566-14.755c-.749-1.378 10.047-10.245 10.047-10.245z" fill="#FFB9B9"/><path d="M260.538 108.186s3.011 5.436 5.806 5.328c2.795-.107 17.25-6.215 17.868-8.32.617-2.106 4.788 15.083 4.788 15.083l-35.372 61.738L245 176.1l4.18-36.248 3.434-19.564 7.924-12.102z" fill="#6C63FF"/><path d="M284.63 162.686c-1.395 2.931-2.266 5.988-2.145 9.117.005.139.01.277.023.416.33 6.421 2.686 13.848 3.531 19.249.614 3.874.439 6.702-1.819 7.366-5.473 1.603.798 2.749-20.377 9.827-21.176 7.078-24.871.968-24.925-.42-.053-1.387 3-11.928 2.282-12.595-.718-.667-10.042 8.729-12.859 7.449-2.817-1.28-.321-8.326-.321-8.326s6.346-14.839 6.212-18.308c-.134-3.469 9.612-19.83 9.612-19.83l6.63-43.339s2.549-5.658 5.976-6.486c3.428-.828 6.272 1.145 6.272 1.145l-5.736 12.731-6.051 22.47 1.012 8.3s7.037-14.866 11.659-20.605c4.622-5.739 14.475-19.325 14.475-19.325s2.3-7.795.564-10.125c-1.737-2.336 7.244-2.686 11.074 6.893 2.03 5.077 5.325 12.647 7.389 19.696 1.84 6.244 2.708 12.082.886 15.419-2.785 5.097-9.792 11.798-13.364 19.281z" fill="#575A89"/><path d="M298.003 143.958c-2.761 5.038-9.706 11.66-13.246 19.057-.925-3.337-2.053-6.788-2.053-6.788s-4.327-23.182 8.472-29.173a8.557 8.557 0 015.948 1.665c1.824 6.172 2.685 11.941.879 15.239z" fill="#000" opacity=".1"/><path d="M247.922 142.015l-11.03 3.228-15.316.596L220 159.195l25.17 1.82s6.286-17.739 2.752-19z" fill="#575A89"/><path d="M264.93 187.015s-14.808 2.502-11.428 7.04c3.38 4.54 16.498-.232 16.498-.232l-5.07-6.808z" fill="#FFB9B9"/><path d="M282.479 172.015c.33 6.393 2.678 13.787 3.521 19.164-4.652 4.415-9.075 8.31-10.742 8.374-3.444.134-8.982-.342-11.022.429-2.04.77-3.236-12.327-3.236-12.327s1.217-4.198 6.648-6.485c3.666-1.547 10.692-5.743 14.83-9.155z" fill="#000" opacity=".1"/><path d="M290.976 122.061s11.628-1.843 11 17.615c-.629 19.458 1.225 31.878-3.451 35.531-4.677 3.653-19.868 20.21-23.303 20.345-3.436.134-8.96-.344-10.994.43-2.035.773-3.228-12.367-3.228-12.367s1.214-4.212 6.631-6.506c5.417-2.294 18.18-10.427 18.073-13.2-.107-2.771-3.228-12.366-3.228-12.366s-4.342-23.427 8.5-29.482z" fill="#575A89"/><circle fill="#FFB9B9" cx="262.5" cy="94.515" r="15.5"/><path d="M252.162 73.068c-.37.314-.813.533-1.29.638a.92.92 0 01-1.066-.728c-.35.717-.746 1.482-1.463 1.85-.716.368-1.823.06-1.927-.73-.104.6-.373 1.16-.778 1.619-.444.418-1.25.523-1.638.054.314 1.69.12 3.428.219 5.144.098 1.715.562 3.534 1.877 4.662 1.917 1.646 4.8 1.24 7.321.928a2.253 2.253 0 011.148.062c.944.396.901 1.692.914 2.704.159 3.667 2.98 6.684 6.673 7.137a3.864 3.864 0 002.84-.684c.716-.598 1.082-1.573 1.902-2.023 1.335-.731 2.953.335 3.93 1.493.975 1.158 1.936 2.582 3.448 2.794 2 .28 3.522-1.728 4.269-3.578a20.592 20.592 0 00-.42-16.208c-4.175-8.972-18.434-10.391-25.96-5.134z" fill="#2F2E41"/></g></svg>