<svg width="375" height="253" xmlns="http://www.w3.org/2000/svg"><defs><linearGradient x1="50.002%" y1="100.003%" x2="50.002%" y2="0%" id="a"><stop stop-color="gray" stop-opacity=".4" offset="20%"/><stop stop-color="gray" stop-opacity=".5" offset="46%"/><stop stop-opacity=".6" offset="100%"/></linearGradient><linearGradient x1="50.007%" y1="99.969%" x2="50.007%" y2="-.009%" id="b"><stop stop-color="gray" stop-opacity=".25" offset="0%"/><stop stop-color="gray" stop-opacity=".12" offset="54%"/><stop stop-color="gray" stop-opacity=".1" offset="100%"/></linearGradient></defs><g fill="none" fill-rule="evenodd"><path d="M374 182.437C374 197.507 291.427 253 188.302 253 85.177 253 4 193.863 4 178.793c0-15.07 81.177 19.628 184.302 19.628C291.427 198.42 374 167.354 374 182.437z" fill="#3F3D56" fill-rule="nonzero"/><path d="M375 176.728v.602c-.226 6.233-3.697 12.432-10.029 16.809-6.717 4.637-15.725 7.077-24.973 8.636-1.446.243-2.9.463-4.349.676-.74.1-1.476.202-2.21.297-20.587 2.704-41.608 3.221-62.53 3.718-21.885.54-43.79 1.075-65.7 1.352l-4.345.05c-33.242.359-66.47.058-99.59-1.828-10.279-.581-20.659-1.352-30.85-2.65a184.671 184.671 0 01-4.345-.585c-13.516-1.936-26.63-4.907-38.577-9.73a85.974 85.974 0 01-8.265-3.82c-7.504-3.985-13.833-9.024-16.965-15.21A21.34 21.34 0 01.109 163.31a27.46 27.46 0 01.754-4.35 38.768 38.768 0 014.267-10.042c4.88-8.254 12.208-15.653 18.527-23.403 13.488-16.518 22.274-37.389 9.826-54.32-3.572-4.863-8.735-9.125-11.644-14.212a22.894 22.894 0 01-2.852-8.93 32.143 32.143 0 01-.179-4.35 60.36 60.36 0 011.267-10.086C22.102 23.234 25.89 12.04 37.588 5.563 45.572 1.143 55.75-.23 66.068.03c1.45.034 2.898.102 4.346.203 3.957.26 7.89.74 11.688 1.352 23.463 3.749 45.119 11.58 66.98 18.65 16.645 5.382 33.884 10.415 51.772 12.814 1.446.193 2.892.372 4.345.528 4.193.46 8.424.764 12.688.889 21.223.608 45.984-3.989 60.077-15.927C291.578 7 317.11 6.07 335.64 12.962l.277.105a59.816 59.816 0 014.055 1.717c13.654 6.422 22.8 17.42 24.091 28.93.162 1.429.2 2.87.115 4.305a.18.18 0 010 .044c-.885 14.159-12.454 26.05-24.203 37.96-1.453 1.47-2.91 2.941-4.349 4.422-3.811 3.914-7.504 7.858-10.707 11.917a55.885 55.885 0 00-4.028 5.78 37.337 37.337 0 00-2.862 5.82 24.214 24.214 0 00-1.578 6.524 17.063 17.063 0 001.69 9.329l.03.067c3.136 6.22 9.772 10.627 17.455 14.534 1.416.723 2.873 1.426 4.35 2.123 8.332 3.934 17.31 7.588 24.135 12.445a36.188 36.188 0 015.129 4.326c.64.663 1.245 1.359 1.811 2.085a18.328 18.328 0 013.95 11.05v.283z" fill="#6C63FF" fill-rule="nonzero"/><path d="M375 176.728v.602c-.226 6.233-3.697 12.432-10.029 16.809-6.717 4.637-15.725 7.077-24.973 8.636-1.446.243-2.9.463-4.349.676-.74.1-1.476.202-2.21.297-20.587 2.704-41.608 3.221-62.53 3.718-21.885.54-43.79 1.075-65.7 1.352l-4.345.05c-33.242.359-66.47.058-99.59-1.828-10.279-.581-20.659-1.352-30.85-2.65a184.671 184.671 0 01-4.345-.585c-13.516-1.936-26.63-4.907-38.577-9.73a85.974 85.974 0 01-8.265-3.82c-7.504-3.985-13.833-9.024-16.965-15.21A21.34 21.34 0 01.109 163.31a27.46 27.46 0 01.754-4.35 38.768 38.768 0 014.267-10.042c4.88-8.254 12.208-15.653 18.527-23.403 13.488-16.518 22.274-37.389 9.826-54.32-3.572-4.863-8.735-9.125-11.644-14.212a22.894 22.894 0 01-2.852-8.93 32.143 32.143 0 01-.179-4.35 60.36 60.36 0 011.267-10.086C22.102 23.234 25.89 12.04 37.588 5.563 45.572 1.143 55.75-.23 66.068.03c1.45.034 2.898.102 4.346.203 3.957.26 7.89.74 11.688 1.352 23.463 3.749 45.119 11.58 66.98 18.65 16.645 5.382 33.884 10.415 51.772 12.814 1.446.193 2.892.372 4.345.528 4.193.46 8.424.764 12.688.889 21.223.608 45.984-3.989 60.077-15.927C291.578 7 317.11 6.07 335.64 12.962l.277.105a59.816 59.816 0 014.055 1.717c13.654 6.422 22.8 17.42 24.091 28.93.162 1.429.2 2.87.115 4.305a.18.18 0 010 .044c-.885 14.159-12.454 26.05-24.203 37.96-1.453 1.47-2.91 2.941-4.349 4.422-3.811 3.914-7.504 7.858-10.707 11.917a55.885 55.885 0 00-4.028 5.78 37.337 37.337 0 00-2.862 5.82 24.214 24.214 0 00-1.578 6.524 17.063 17.063 0 001.69 9.329l.03.067c3.136 6.22 9.772 10.627 17.455 14.534 1.416.723 2.873 1.426 4.35 2.123 8.332 3.934 17.31 7.588 24.135 12.445a36.188 36.188 0 015.129 4.326c.64.663 1.245 1.359 1.811 2.085a18.328 18.328 0 013.95 11.05v.283z" fill="url(#a)" fill-rule="nonzero"/><path d="M340 14.81v70.793c-1.336 1.465-2.676 2.926-4 4.397V13l4 1.81z" fill="#3F3D56" fill-rule="nonzero"/><path d="M363.956 47.96a.163.163 0 010 .04H18.19a27.193 27.193 0 01-.18-4h345.83c.159 1.314.2 2.64.115 3.96z" fill="#3F3D56" fill-rule="nonzero"/><circle fill="#E7EFFD" fill-rule="nonzero" cx="81" cy="24" r="1"/><circle fill="#E7EFFD" fill-rule="nonzero" cx="41" cy="22" r="1"/><circle fill="#E7EFFD" fill-rule="nonzero" cx="95.5" cy="24.5" r="1"/><circle fill="#E7EFFD" fill-rule="nonzero" cx="54.5" cy="23.5" r="1"/><circle fill="#E7EFFD" fill-rule="nonzero" cx="54.5" cy="61.5" r="1"/><circle fill="#E7EFFD" fill-rule="nonzero" cx="305.5" cy="32.5" r="1"/><circle fill="#E7EFFD" fill-rule="nonzero" cx="121.5" cy="32.5" r="1"/><circle fill="#E7EFFD" fill-rule="nonzero" cx="278.5" cy="31.5" r="1"/><circle fill="#E7EFFD" fill-rule="nonzero" cx="347.5" cy="33.5" r="1"/><path d="M375 176.628v.601c-.172 6.27-3.652 12.523-10.035 16.923-6.722 4.63-15.736 7.066-24.99 8.621-1.448.243-2.902.463-4.352.675-.74.101-1.478.203-2.211.297-5.072.675-10.17 1.191-15.287 1.623-6.863.58-13.761.982-20.665 1.28-8.866.387-17.748.607-26.62.826-17.342.425-34.698.85-52.07 1.144l-6.164.101-7.52.101-4.348.051c-27.388.29-54.734.142-82.034-.972a691.6 691.6 0 01-5.44-.236 881.56 881.56 0 01-12.173-.618c-8.131-.459-16.327-1.039-24.435-1.9-2.15-.224-4.292-.473-6.425-.745a185.207 185.207 0 01-4.348-.584c-1.61-.225-3.212-.47-4.808-.736-11.834-1.93-23.259-4.724-33.795-8.982a87.78 87.78 0 01-8.28-3.823v-59.39a242.022 242.022 0 004.426-5.234c1.724-2.112 3.381-4.289 4.903-6.523h32.73V99h57.648v44.252h93.899v-35.094h108.332a37.729 37.729 0 00-2.836 5.619v.189h-.125a24.128 24.128 0 00-1.58 6.512 17.01 17.01 0 001.691 9.314v.141l.03.068c3.138 6.209 9.779 10.609 17.468 14.51a153.37 153.37 0 004.351 2.119c8.254 3.887 17.146 7.505 23.95 12.283l.202.141a36.368 36.368 0 015.146 4.32 25.8 25.8 0 011.812 2.082A18.296 18.296 0 01375 176.345v.283z" fill="#6C63FF" fill-rule="nonzero"/><path d="M375 176.628v.601c-.172 6.27-3.652 12.523-10.035 16.923-6.722 4.63-15.736 7.066-24.99 8.621-1.448.243-2.902.463-4.352.675-.74.101-1.478.203-2.211.297-5.072.675-10.17 1.191-15.287 1.623-6.863.58-13.761.982-20.665 1.28-8.866.387-17.748.607-26.62.826-17.342.425-34.698.85-52.07 1.144l-6.164.101-7.52.101-4.348.051c-27.388.29-54.734.142-82.034-.972a691.6 691.6 0 01-5.44-.236 881.56 881.56 0 01-12.173-.618c-8.131-.459-16.327-1.039-24.435-1.9-2.15-.224-4.292-.473-6.425-.745a185.207 185.207 0 01-4.348-.584c-1.61-.225-3.212-.47-4.808-.736-11.834-1.93-23.259-4.724-33.795-8.982a87.78 87.78 0 01-8.28-3.823v-59.39a242.022 242.022 0 004.426-5.234c1.724-2.112 3.381-4.289 4.903-6.523h32.73V99h57.648v44.252h93.899v-35.094h108.332a37.729 37.729 0 00-2.836 5.619v.189h-.125a24.128 24.128 0 00-1.58 6.512 17.01 17.01 0 001.691 9.314v.141l.03.068c3.138 6.209 9.779 10.609 17.468 14.51a153.37 153.37 0 004.351 2.119c8.254 3.887 17.146 7.505 23.95 12.283l.202.141a36.368 36.368 0 015.146 4.32 25.8 25.8 0 011.812 2.082A18.296 18.296 0 01375 176.345v.283z" fill="#000" fill-rule="nonzero" opacity=".3"/><path fill="#000" fill-rule="nonzero" opacity=".4" d="M29 127h10v7H29zm16 0h10v7H45zm178-13h10v7h-10zm26 0h10v7h-10zm28 0h10v7h-10zm-54 19h10v7h-10zm26 0h10v7h-10z"/><path fill="#6C63FF" fill-rule="nonzero" d="M277 133h10v7h-10z"/><path fill="#000" fill-rule="nonzero" opacity=".4" d="M223 154h10v7h-10zm26 0h10v7h-10zm28 0h10v7h-10zm-54 19h10v7h-10zm26 0h10v7h-10zm28 0h10v7h-10zm-54 20h10v7h-10zm26 0h10v7h-10zm28 0h10v7h-10zm41-79a27.16 27.16 0 00-1.606 7H311v-7h7z"/><path fill="#6C63FF" fill-rule="nonzero" d="M311 133h10v7h-10z"/><path fill="#000" fill-rule="nonzero" opacity=".4" d="M311 154h10v7h-10zm0 19h10v7h-10zm0 20h10v7h-10zM83 106h10v7H83z"/><path fill="#6C63FF" fill-rule="nonzero" d="M83 121h10v7H83z"/><path fill="#000" fill-rule="nonzero" opacity=".4" d="M83 135h10v7H83zm0 15h10v7H83zm0 14h10v7H83zm0 15h10v7H83zm0 15h10v7H83zm-54-50h10v7H29zm16 0h10v7H45zm-16 17h10v7H29zm16 0h10v7H45zm-16 17h10v7H29zm16 0h10v7H45zm93-27h48v6h-48zm0 18h48v6h-48zm0 19h48v6h-48z"/><path d="M70 .202V204c-1.337-.178-2.67-.372-4-.584V0c1.334.027 2.666.101 4 .202zm135 33.329V208.95l-4 .051V33c1.331.196 2.665.373 4 .531z" fill="#3F3D56" fill-rule="nonzero"/><path d="M369 163H0c.134-1.35.386-2.687.753-4h363.133a35.175 35.175 0 015.114 4z" fill="#3F3D56" fill-rule="nonzero"/><path d="M336 144c1.302.723 2.642 1.425 4 2.12v56.205c-1.33.243-2.667.462-4 .675v-59z" fill="#3F3D56" fill-rule="nonzero"/><path fill="#E7EFFD" fill-rule="nonzero" d="M114 77.918h-.918V77h-.164v.918H112v.164h.918V79h.164v-.918H114zm173-18h-.918V59h-.168v.918H285v.164h.914V61h.168v-.918H287zm-153-3h-.918V56h-.168v.918H132v.168h.914V58h.168v-.914H134z"/><circle fill="#E7EFFD" fill-rule="nonzero" cx="131.5" cy="109.5" r="1"/><circle fill="#E7EFFD" fill-rule="nonzero" cx="256.5" cy="61.5" r="1"/><circle fill="#E7EFFD" fill-rule="nonzero" cx="310.5" cy="87.5" r="1"/><circle fill="#E7EFFD" fill-rule="nonzero" cx="225.5" cy="92.5" r="1"/><path d="M241.547 183.433s-11.579 2.799-16.162 8.035c-1.535 1.75-3.813 3.01-6.165 3.911v-7.9c2.649-4.444 5.318-9.387 5.318-9.387.122-.242 1.087-3.651 1.087-3.651 2.173-1.706-.122-7.667-.122-7.667s1.33-3.773.605-4.505c-.726-.731-.122-2.677.482-3.53.604-.853.483-1.949.483-2.677s-.965-1.828-2.535-2.434c-1.569-.607.122-1.582 1.087-1.828s1.208-2.556.121-3.773c-1.086-1.217.122-1.945.723-3.284.6-1.338-1.94-1.096-1.94-1.096v-12.306s-.726-4.016-1.449-11.076c-.722-7.06-3.5-7.789-3.5-7.789a31.805 31.805 0 01-4.343-1.706 29.766 29.766 0 00-4.583-1.703s-3.256 0-5.912-.816c-2.656-.815-4.033-.873-4.033-.873l-.436-.216a15.796 15.796 0 01-7.32-7.754c-.074-.169-.141-.338-.209-.5a17.022 17.022 0 001.927-2.555v-.02 1.459c1.924-3.395 7.506-4.17 8.036-8.048.024-.176.036-.354.037-.532v-.415c-.071-1.082-.442-2.161-.513-3.254a6.242 6.242 0 010-.94v.02c.25-3.011 2.52-5.631 3.56-8.554.28-.787.462-1.604.544-2.435v-.023c.027-.25.043-.503.05-.755v-.712a11.385 11.385 0 00-3.763-8.227c-1.923-1.669-4.465-2.717-5.798-4.899-.62-1.011-.924-2.212-1.603-3.19-1.275-1.847-3.617-2.599-5.835-2.865-2.217-.267-4.495-.18-6.614-.874-1.505-.492-2.869-1.365-4.387-1.803a8.397 8.397 0 00-9.015 3.246c-.8 1.167-1.322 2.563-2.402 3.473-2.21 1.868-5.96 1.059-7.897 3.21-1.063 1.184-1.185 2.795-1.057 4.44v.061c0 .125.024.253.037.381v.179c0 .057 0 .128.024.192.068.59.152 1.177.226 1.743 0 .088.02.172.03.26l.061.53c0 .127.02.256.034.384.013.128.024.337.034.478.01.142 0 .25.023.378a25.996 25.996 0 01-2.767 12.981c-1.826 3.577-4.54 6.875-5.012 10.87a11.7 11.7 0 00-.054 1.973v.232c0 .078.02.236.03.354.011.119.028.274.045.408 0 .078.02.156.03.233.024.179.05.358.081.54l.02.114c.48 2.725 1.566 5.395 2.143 8.146a22.011 22.011 0 01.48 4.087v1.348c-.917.352-1.856.64-2.812.863-1.687.243-6.638 4.626-6.277 5.732.361 1.106-2.214 8.767-2.285 9l-4.05 27.984s-2.149 2.07-1.477 3.41c.671 1.338-.132 3.65-.132 3.65s-3.631 1.582-2.825 2.556c.807.975.439 2.799-.115 4.016-.553 1.217-1.46 3.409 0 3.773 1.462.364.25 5.115.25 5.115s5.093-.587 4.725 2.434c-.122.961 3.56 3.604 5.096 4.663v14.546c-2.062-.577-4.485-1.325-6.03-2.047-3.136-1.46-20.75-4.258-24.61 4.14-3.86 8.4 5.309 19.597 7.6 20.814 0 0 2.174 1.703 2.656 2.556.483.853 3.257 1.095 3.257 1.095s2.895 1.349 3.618 2.067c.533.54 4.944 1.939 10.171 3.035 0 0-4.222 9.71 2.666 8.911 6.888-.799 10.243-4.188 15.1-4.188 1.94 0 5.544-.273 9.172-.596.911.16 1.813.373 2.7.637a34.724 34.724 0 006.27 1.349s5.43 2.92 8.326 2.188a1.84 1.84 0 00.654-.337h.068c.526-.132 1.124-.675 1.745-1.494 3.62.37 7.762.897 9.3 1.497 3 1.156 24.461-.445 24.461-.445s13.864.273 17.836 1.473c3.972 1.2 2.561-12.256-4.769-13.77a30.103 30.103 0 00-5.943-.586 13.32 13.32 0 001.387-1.686c2.64-.24 4.388-.388 4.388-.388s6.996-3.409 10.978-5.479a25.044 25.044 0 006.75-5.354s3.496-2.192 4.943-3.035c1.448-.843 2.17-3.651 2.17-3.651 10.972-24.833-16.894-21.542-16.894-21.542zm-31.412-31.147v-1.228c.391.277.334.712 0 1.224v.004zm.114 8.608c.294.384.577.735.78 1.011.78 1.012-.631 1.484-.53 3.16a1525.17 1525.17 0 01-.25-4.174v.003z" fill="url(#b)" fill-rule="nonzero"/><path d="M147.357 199.749s-6.735-1.604-9.87-3.083c-3.134-1.48-20.7-4.314-24.552 4.193-3.852 8.507 5.296 19.842 7.583 21.076 2.286 1.235 24.552-15.658 24.552-15.658l17.563 7.586L166 202.09l-18.643-2.341z" fill="#65617D" fill-rule="nonzero"/><rect fill="#65617D" fill-rule="nonzero" x="155" y="202" width="77" height="27" rx="13.5"/><path d="M232 215.497a13.545 13.545 0 01-2.231 7.464 13.65 13.65 0 01-1.696 2.085 13.298 13.298 0 01-9.47 3.954h-50.208c-7.398 0-13.395-6.044-13.395-13.5s5.997-13.5 13.395-13.5h50.21c7.397 0 13.393 6.042 13.395 13.497z" fill="#000" fill-rule="nonzero" opacity=".1"/><path d="M189.95 216s-7.702 1.986-13.987 1.898c-6.284-.088-35.68 12.173-35.68 12.173s-4.23 9.683 2.672 8.882c6.904-.801 10.266-4.163 15.133-4.163 4.867 0 20.179-1.698 20.179-1.698L193 222.166 189.95 216zm4.276-91.87l-13.797 2.693-.895.177s-10.909-2.87-11.27-3.111c-.362-.241-10.264-13.451-10.264-13.451s5.007.053 8.94-2.192c.141-.08.28-.167.418-.25a8.65 8.65 0 003.716-4.513c.071-.198.132-.402.19-.616.418-1.599.446-3.536-.115-5.88-1.352-5.577 1.756-7.113 5.875-6.98 5.95.195 14.047 3.871 14.047 3.871a16.215 16.215 0 001.274 5.453c.064.16.135.335.21.489a15.636 15.636 0 007.327 7.61l.436.214c.439.208.902.405 1.381.582 10.52 3.948-7.473 15.904-7.473 15.904z" fill="#FBBEBE" fill-rule="nonzero"/><path d="M193 100.042a17.628 17.628 0 01-21.757 3.747c.602-1.752.715-3.931.075-6.645-3.302-13.943 20.19-3.179 20.19-3.179a16.952 16.952 0 001.492 6.077z" fill="#000" fill-rule="nonzero" opacity=".1"/><path d="M197 88.51a17.383 17.383 0 01-2.652 9.259 17.133 17.133 0 01-1.941 2.553 17.399 17.399 0 01-11.851 5.644c-.34.024-.704.034-1.058.034C169.834 106 162 98.165 162 88.5S169.834 71 179.498 71c9.664 0 17.499 7.835 17.499 17.5l.003.01z" fill="#FBBEBE" fill-rule="nonzero"/><path d="M194.218 125.062l-13.794 2.757-.895.181s-10.906-2.938-11.268-3.184C167.9 124.569 158 111.047 158 111.047s5.006.055 8.937-2.242c.142-.083.28-.172.419-.257 1.25 1.37 5.34 5.242 11.768 5.215.825 0 1.649-.06 2.465-.182 1.939-.301 3.895-.496 5.847-.685 3.739-.397 9.457-1.547 12.46-4.896l.435.22c.44.211.902.413 1.382.595 10.494 4.01-7.495 16.247-7.495 16.247z" fill="#000" fill-rule="nonzero" opacity=".1"/><path d="M210.549 159.592c.119 2.643 2.067 32.408 2.067 32.408h-60.65l.412-18.74.34-14.991.108-4.92.487-17.041-1.758-1.531-9.555-8.315c.071-.221 2.662-7.807 2.302-8.875-.36-1.068 4.62-5.4 6.324-5.641a22.35 22.35 0 002.85-.857c2.866-1.007 6.692-2.458 7.113-2.23.595.316 6.56-.231 6.8-.255 0 0 4.4 5.618 12.262 5.585.828-.004 1.654-.07 2.472-.195 1.952-.295 3.92-.487 5.886-.688 3.954-.407 10.102-1.632 12.982-5.306 0 0 1.39.057 4.063.86 2.673.802 5.957.806 5.957.806a30.37 30.37 0 014.618 1.679 32.55 32.55 0 004.376 1.679s2.795.718 3.526 7.68c.731 6.96 1.469 10.923 1.469 10.923l-14.451 12.36s-.12 12.952 0 15.605z" fill="#6C63FF" fill-rule="nonzero"/><path fill="#FBBEBE" fill-rule="nonzero" d="M142.218 180.618l2.156 3.499L152.45 187l5.55-10.255-5.116-3.498-8.2-3.247-4.684 2.747z"/><path d="M210.067 197.07s11.114-.84 15.658-6.004c4.544-5.163 16.013-7.924 16.013-7.924s27.61-3.242 16.719 21.254c0 0-.716 2.761-2.15 3.6-1.435.84-4.899 3.004-4.899 3.004L209 207.278l1.067-10.209z" fill="#65617D" fill-rule="nonzero"/><path d="M232 215.07a13.571 13.571 0 01-2.228 7.467c-7.225.647-23.226 2.165-26.574 3.109-4.114 1.152-12.44-.855-13.35-1.08l-.085-.021s-1.604-4.917-2.37-8.063c-.338-1.43-.518-2.493-.294-2.571.728-.243 7.384-2.08 7.262-1.026-.122 1.053 19.976-7.885 19.976-7.885l.616 7.823c2.042 2.36 17.047-1.149 17.047 2.247z" fill="#000" fill-rule="nonzero" opacity=".1"/><path d="M252 208.17l-.847 3.18a25.136 25.136 0 01-6.775 5.375c-3.998 2.078-11.02 5.501-11.02 5.501s-25.791 2.199-30.151 3.42c-4.36 1.22-13.443-1.102-13.443-1.102s-3.387-10.387-2.662-10.633c.725-.247 7.385-2.076 7.266-1.026-.118 1.05 19.988-7.885 19.988-7.885L252 208.17z" fill="#65617D" fill-rule="nonzero"/><path d="M181 235.832s12.607.895 15.606 2.057c2.998 1.162 24.42-.446 24.42-.446s13.84.274 17.805 1.481c3.966 1.207 2.558-12.342-4.76-13.86-7.318-1.519-17.63.716-17.63.716s-11.638-1.525-13.05-1.714c-1.411-.188-10.707.086-10.707.086L181 235.832z" fill="#FBBEBE" fill-rule="nonzero"/><path d="M131 203s16.471 1.417 21 4l-21-4zm104-12s-12.932 3.237-18 8l18-8zm-103 7c.284.093 8.187 1.12 7.997 1.866C139.806 200.612 132 198 132 198zm-12 19.449l.969 3.608s2.178 1.681 2.662 2.522c.484.84 3.268 1.083 3.268 1.083s2.906 1.322 3.635 2.041c.728.72 8.592 3.007 15.98 3.968 7.386.962 21.063 2.765 23.97 3.726a35.104 35.104 0 006.296 1.322s5.446 2.885 8.352 2.166c2.906-.72 7.868-13.825 7.868-13.825s-19.126-4.446-19.733-5.888c-.606-1.443-19.007-8.172-19.007-8.172l-10.896.256L120 217.449z" fill="#000" fill-rule="nonzero" opacity=".1"/><path d="M120 217.534l.969 3.594s2.18 1.675 2.665 2.513c.484.837 3.268 1.079 3.268 1.079s2.906 1.316 3.631 2.036c.725.72 8.596 2.992 15.98 3.95 7.383.958 21.065 2.754 23.971 3.712a35.328 35.328 0 006.293 1.313s5.45 2.871 8.355 2.154c2.906-.717 7.868-13.772 7.868-13.772s-19.129-4.428-19.732-5.866c-.603-1.437-27.603-12.33-27.603-12.33L137.198 204 120 217.534z" fill="#65617D" fill-rule="nonzero"/><path d="M144.648 125l-2.137 1.214-4.102 27.87s-2.178 2.062-1.497 3.39c.68 1.33-.134 3.635-.134 3.635s-3.678 1.577-2.86 2.546c.816.97.444 2.787-.117 3.997-.56 1.21-1.48 3.39 0 3.757 1.48.366.253 5.085.253 5.085s5.158-.583 4.786 2.42c-.154 1.214 5.832 5.086 5.832 5.086s-6.803-12.239 8.437-10.544l1.31-6.899s1.308-3.885 0-5.085c-1.31-1.2.293-6.967.293-6.967l.287-25.023L144.648 125z" fill="#6C63FF" fill-rule="nonzero"/><path d="M141 162c.268.43 8.445 1.31 8.978 2.71.534 1.398-8.978-2.71-8.978-2.71zm-2 7s1.016-3.562 3.419-2.923C144.82 166.715 139 169 139 169zm-2 4s1.876-4.315 4.436-3.982C143.997 169.351 137 173 137 173z" fill="#000" fill-rule="nonzero" opacity=".1"/><path d="M225 172.693l-.865 5.08s-8.862 15.983-10.463 16.223c-1.602.24-10.333-10.651-10.333-10.651L201 172.69l9.207-1.717 4.088-3.973s10.333.972 10.705 5.693z" fill="#FBBEBE" fill-rule="nonzero"/><path d="M221.38 130.074l3.155 2.259v12.011s2.455-.24 1.87 1.072c-.585 1.31-1.752 2.02-.7 3.21 1.053 1.192.818 3.448-.117 3.687-.935.24-2.57 1.188-1.053 1.784 1.517.595 2.455 1.663 2.455 2.379 0 .715.118 1.783-.467 2.615-.585.832-1.167 2.735-.468 3.45.7.716-.585 4.4-.585 4.4s2.223 5.829.118 7.492c0 0-.935 3.327-1.053 3.567 0 0 1.474-11.576-13.229-6.681 0 0-.271-4.412-.373-6.046-.1-1.634 1.269-2.113.514-3.088-.755-.974-2.645-3.214-1.753-3.806.893-.592.586-1.664.232-2.499-.353-.835-1.585-.832-.467-1.843 1.118-1.012 1.782-1.96 1.125-2.436-.658-.475-1.799-2.026-.89-2.738.91-.712.935-11.06.935-11.06s3.74-15.222 10.75-7.73z" fill="#6C63FF" fill-rule="nonzero"/><path d="M220 150.5s4.838-1.125 4.996 0c.159 1.125-4.996 0-4.996 0zm-5 3.23s6.176-1.408 6.946-.314c.77 1.095-6.946.314-6.946.314zm-2 3.764s9.368-1.484 9.975.691c.607 2.175-9.975-.69-9.975-.69zm1 4.506c.379.094 9.81.759 9.997 2.563C224.185 166.367 214 162 214 162z" fill="#000" fill-rule="nonzero" opacity=".1"/><rect fill="#3F3D56" fill-rule="nonzero" x="144" y="167" width="75" height="43" rx="10.47"/><path d="M185.971 181.405l1.245 3.314 3.784 1.09-3.784 1.09-1.241 3.303 1.24 3.304 3.785 1.09-3.784 1.09L185.97 199l-1.244-3.314-3.784-1.09 3.784-1.09 1.24-3.304-1.24-3.303-3.784-1.09 3.784-1.09 1.244-3.314zM176.03 177l1.244 3.314 3.784 1.09-3.784 1.09-1.241 3.303 1.241 3.304 3.784 1.09-3.784 1.09-1.244 3.314-1.245-3.314-3.784-1.09 3.784-1.09 1.24-3.304-1.24-3.303-3.784-1.09 3.784-1.09L176.03 177z" fill="#FFF"/><path d="M156 141s7.331 5.721 13 1.362c0 0-9.584.889-13-1.362zm37 1s7.33 5.723 13 1.36c0 0-9.583.893-13-1.36z" fill="#000" fill-rule="nonzero" opacity=".1"/><path d="M197.997 87.44a17.2 17.2 0 01-2.676 9.236c-.147-4.86-1.303-9.725-3.978-13.785-2.45-3.732-9.895-10.241-15.012-8.426a3.602 3.602 0 00-2.237 2.374c-.507 1.907.978 2.714 1.931 4.217a12.81 12.81 0 011.784 8.71c-.065.407-.151.81-.257 1.208-.806 2.992-2.652 6.415-.748 8.867 1.327 1.696 4.18 2.3 4.568 4.41.036.2.047.402.035.604-.09 1.428-1.32 2.687-1.86 4.087-.63 1.652-.274 3.294.381 4.953.851 2.164 2.21 4.352 2.538 6.638.33 2.287-.38 4.41-1.217 6.557-.792 2.036-1.715 4.054-2.024 6.174-.593 4.03.902 8.69-1.663 11.873a1.8 1.8 0 01-1.122.75c-1.643.169-1.372-2.752-2.685-3.732.14 1.696.274 3.467-.343 5.054-.618 1.588-2.243 2.938-3.944 2.67l-.587-3.81a11.141 11.141 0 01-4.081 2.528 29.223 29.223 0 014.26-11.398c-4.319 2.056-6.836 6.506-9.083 10.692-1.399 2.615-2.85 5.472-2.36 8.392.2 1.19.718 2.324.83 3.521.114 1.198-.325 2.599-1.454 3.053-.984.397-2.133-.078-2.843-.872l-.123-.146a4.542 4.542 0 01-.521-.848 11.066 11.066 0 01-.687-2.228l-.075-.34c-1.142-4.955-2.171-10.067-1.334-15.08.308-1.846.87-3.678.802-5.55a10.08 10.08 0 00-.644-3.087c-1.002-2.775-2.93-5.322-4.027-8.118a.24.24 0 01-.027-.06c-.577-1.48-.861-3.328.205-4.516.55-.614 1.372-.922 2.058-1.356 2.134-1.374 3.087-3.983 3.481-6.473.178-1.122.267-2.256.268-3.392 2.891-1.017 6.75-2.483 7.175-2.252.6.319 6.616-.234 6.86-.258 1.831-1.045 3.43-2.581 4.211-4.83.072-.2.134-.407.192-.625-7.595-4.053-11.114-12.943-8.319-21.019 2.795-8.076 11.084-12.969 19.597-11.569 8.514 1.4 14.756 8.683 14.758 17.219l-.003-.017z" fill="#000" fill-rule="nonzero" opacity=".1"/><path d="M176.92 91.471c-.793 2.972-2.597 6.37-.73 8.81 1.3 1.684 4.095 2.28 4.468 4.379.299 1.684-1.183 3.072-1.78 4.655-1.425 3.783 2.29 7.502 2.854 11.508.615 4.345-2.542 8.303-3.17 12.646-.581 4.002.883 8.627-1.63 11.79a1.74 1.74 0 01-1.097.744c-1.61.172-1.344-2.728-2.63-3.705.137 1.684.268 3.443-.336 5.02-.605 1.576-2.197 2.913-3.863 2.65l-.574-3.786a10.874 10.874 0 01-3.997 2.51 29.294 29.294 0 014.168-11.316c-4.228 2.042-6.69 6.461-8.89 10.615-1.374 2.597-2.791 5.437-2.314 8.337.195 1.183.702 2.305.813 3.497.11 1.193-.32 2.577-1.425 3.032-1.007.421-2.226-.138-2.905-1.01-.678-.873-.94-1.985-1.185-3.06-1.149-5.026-2.22-10.213-1.384-15.3.302-1.836.853-3.655.786-5.511-.145-4.066-3.137-7.411-4.595-11.194-.567-1.472-.843-3.305.202-4.484.537-.61 1.343-.916 2.015-1.347 2.086-1.368 3.023-3.955 3.406-6.428a22.339 22.339 0 00-.225-8.044c-.844-3.958-2.778-7.826-2.298-11.844.47-3.955 3.17-7.216 4.988-10.757a25.513 25.513 0 002.573-14.872c-.313-2.375-.86-5.124.745-6.9 1.928-2.128 5.66-1.326 7.86-3.172 1.074-.9 1.595-2.284 2.39-3.437a8.384 8.384 0 018.972-3.213c1.511.434 2.868 1.297 4.366 1.785 2.11.674 4.366.6 6.583.866 2.217.266 4.538 1.01 5.807 2.833.672.97.978 2.153 1.596 3.156 1.326 2.156 3.855 3.194 5.77 4.848a11.253 11.253 0 013.15 11.996c-1.142 3.19-3.785 6.013-3.56 9.395.09 1.391.672 2.756.49 4.133-.53 3.837-6.082 4.602-8 7.964.155-5.511-.9-11.188-3.9-15.806-2.397-3.705-9.69-10.173-14.7-8.371a3.57 3.57 0 00-2.19 2.358c-.497 1.89.957 2.695 1.89 4.187a12.766 12.766 0 011.485 9.843z" fill="#3F3D56" fill-rule="nonzero"/><path d="M153.624 110.038a22.228 22.228 0 00-.485-5.187c-.722-3.39-2.234-6.71-2.373-10.114-.197 3.79 1.576 7.46 2.373 11.189.289 1.353.451 2.73.485 4.112zm14.44 27.514c.295-.54.6-1.075.93-1.597-4.265 2.054-6.753 6.502-8.974 10.686-1.284 2.418-2.603 5.049-2.406 7.74.162-2.308 1.298-4.56 2.406-6.651 2.055-3.869 4.34-7.958 8.044-10.178zm-9.576 21.925c-.129.916-.583 1.784-1.417 2.126-1.017.42-2.247-.139-2.929-1.017-.681-.878-.952-1.994-1.2-3.078-.827-3.615-1.613-7.317-1.695-11.002-.08 4.044.78 8.12 1.695 12.093.248 1.082.516 2.204 1.2 3.079.685.874 1.902 1.437 2.93 1.017 1.114-.458 1.552-1.851 1.44-3.052-.024-.057-.024-.111-.024-.166zm19.295-72.297c-.04.87-.171 1.734-.393 2.577-.59 2.214-1.743 4.669-1.536 6.78.163-1.844 1.044-3.85 1.536-5.699.314-1.192.447-2.425.393-3.658zm-19.122-16.179a25.45 25.45 0 00-.21-3.868c-.126-.943-.285-1.946-.34-2.926-.077 1.305.16 2.712.34 4.017.12.921.19 1.848.21 2.777zm22.505 33.128c0-.03 0-.054-.024-.085-.257 1.261-1.295 2.414-1.773 3.682a5.164 5.164 0 00-.298 2.373c.041-.438.142-.87.298-1.281.6-1.597 2.095-3.007 1.797-4.69zm-28.827 32.433c-.15-4.093-3.166-7.46-4.64-11.267a7.724 7.724 0 01-.475-1.864 6.3 6.3 0 00.474 2.956c1.451 3.757 4.387 7.062 4.624 11.063.017-.295.027-.593.017-.888zm38.691-54.874c-2.423-3.73-9.78-10.24-14.837-8.425a3.6 3.6 0 00-2.213 2.373c-.12.415-.133.853-.038 1.275 0-.061.02-.122.038-.183a3.594 3.594 0 012.213-2.374c5.058-1.814 12.414 4.706 14.838 8.425 2.738 4.211 3.867 9.294 3.942 14.335.071-5.408-1.01-10.924-3.942-15.426zm12 7.882c-.532 3.852-6.101 4.628-8.057 7.992v1.112c1.932-3.39 7.539-4.154 8.071-8.015.048-.38.048-.763 0-1.143a.292.292 0 01-.013.054zm3.099-13.619c-1.153 3.214-3.82 6.052-3.593 9.46v.149c.25-3 2.532-5.605 3.576-8.517.47-1.33.672-2.741.593-4.15a10.366 10.366 0 01-.576 3.058zm-28.726 67.947a1.763 1.763 0 01-1.108.753c-1.624.173-1.356-2.746-2.654-3.73.034.387.064.777.084 1.167 1.207 1.044.983 3.82 2.57 3.651a1.746 1.746 0 001.108-.749c1.448-1.817 1.587-4.112 1.55-6.496-.038 1.987-.326 3.882-1.55 5.404zm-4.105 2.075c-.617 1.59-2.217 2.936-3.901 2.669l-.577-3.811a11.057 11.057 0 01-3.834 2.451c-.074.387-.145.776-.203 1.166a10.99 10.99 0 004.037-2.525l.577 3.81c1.695.265 3.284-1.078 3.901-2.668.38-1.108.53-2.28.444-3.448a7.335 7.335 0 01-.444 2.356zm5.749-13.941a19.373 19.373 0 00-.145 3.089c.005-.668.054-1.335.145-1.997.607-4.167 3.526-7.981 3.261-12.114-.233 3.736-2.708 7.225-3.26 11.022z" opacity=".2" fill="#000" fill-rule="nonzero"/><path d="M279.226 189s-2.354 10.728 8.126 12l.648-1.19s-8.115-7.462-8.774-10.81z" fill="#6C63FF" fill-rule="nonzero"/><path d="M291 200.433l-2.403.515-.24.052s-6.439-5.259-6.356-17c.861 1.73 1.89 3.37 3.073 4.896 2.544 3.397 5.445 7.933 5.926 11.537z" fill="#6C63FF" fill-rule="nonzero"/><path d="M292.256 200.764c-.42.241-.94.301-1.415.163-6.74-1.402-4.475-20.927-4.475-20.927.375.156.783 2.657 2.337 5.846 2.726 5.644 5.721 13.503 3.553 14.918zM305.998 189s.416 10.728-10.333 12l-.665-1.19s10.333-7.462 10.998-10.81z" fill="#6C63FF" fill-rule="nonzero"/><path d="M303 184c.075 11.748-8.34 17-8.34 17l-.242-.052-2.418-.515c.48-3.604 3.406-8.14 5.97-11.537A26.257 26.257 0 01303 184z" fill="#6C63FF" fill-rule="nonzero"/><path d="M293.849 199.752c-.37.438-.839.788-1.37 1.024a2.69 2.69 0 01-.504.163c-1.52.332-2.055-.718-1.966-2.527.144-3.222 2.23-8.809 4.11-12.969 1.35-3.012 3.552-5.293 3.881-5.443-.02-.017-.113 15.21-4.151 19.752z" fill="#6C63FF" fill-rule="nonzero"/><path d="M292.512 173s-7.185 24.059-1.002 27.688c6.183 3.63 2.589-25.557 1.002-27.688z" fill="#6C63FF" fill-rule="nonzero"/><path d="M279.226 189s-2.354 10.728 8.126 12l.648-1.19s-8.115-7.462-8.774-10.81z" fill="#000" fill-rule="nonzero" opacity=".1"/><path d="M291 200.433l-2.403.515-.24.052s-6.439-5.259-6.356-17c.861 1.73 1.89 3.37 3.073 4.896 2.544 3.397 5.445 7.933 5.926 11.537z" fill="#000" fill-rule="nonzero" opacity=".1"/><path d="M292.256 200.764c-.42.241-.94.301-1.415.163-6.74-1.402-4.475-20.927-4.475-20.927.375.156.783 2.657 2.337 5.846 2.726 5.644 5.721 13.503 3.553 14.918zM305.998 189s.416 10.728-10.333 12l-.665-1.19s10.333-7.462 10.998-10.81z" fill="#000" fill-rule="nonzero" opacity=".1"/><path d="M303 184c.075 11.748-8.34 17-8.34 17l-.242-.052-2.418-.515c.48-3.604 3.406-8.14 5.97-11.537A26.257 26.257 0 01303 184z" fill="#000" fill-rule="nonzero" opacity=".1"/><path d="M293.849 199.752c-.37.438-.839.788-1.37 1.024a2.69 2.69 0 01-.504.163c-1.52.332-2.055-.718-1.966-2.527.144-3.222 2.23-8.809 4.11-12.969 1.35-3.012 3.552-5.293 3.881-5.443-.02-.017-.113 15.21-4.151 19.752z" fill="#000" fill-rule="nonzero" opacity=".1"/><path d="M292.512 173s-7.185 24.059-1.002 27.688c6.183 3.63 2.589-25.557 1.002-27.688z" fill="#000" fill-rule="nonzero" opacity=".1"/><path d="M279.062 189s-1.414 10.728 9.277 12l.661-1.19s-9.266-7.462-9.938-10.81z" fill="#6C63FF" fill-rule="nonzero"/><path d="M292 200.433l-2.411.515-.245.052s-7.426-5.259-7.343-17c0 0 1.901 2.046 4.05 4.896 2.556 3.397 5.467 7.933 5.949 11.537z" fill="#6C63FF" fill-rule="nonzero"/><path d="M292 200.487l-2.432.513c-2.317-2.013-3.234-7.266-3.568-12 2.578 3.382 5.514 7.9 6 11.487z" fill="#000" fill-rule="nonzero" opacity=".1"/><path d="M293.33 200.764a1.51 1.51 0 01-1.274.163c-6.086-1.402-4.977-20.927-4.977-20.927.337.156 1.652 2.657 3.035 5.846 2.471 5.644 5.169 13.503 3.216 14.918zM305.938 189s1.414 10.728-9.277 12l-.661-1.19s9.277-7.462 9.938-10.81z" fill="#6C63FF" fill-rule="nonzero"/><path d="M302 184c.075 11.748-7.348 17-7.348 17l-.24-.052-2.412-.515c.482-3.604 3.396-8.14 5.952-11.537C300.095 186.04 302 184 302 184z" fill="#6C63FF" fill-rule="nonzero"/><path d="M298 189c-.313 4.417-1.13 9.289-3.113 11.55-.138.161-.29.312-.452.45l-2.435-.513c.47-3.588 3.42-8.105 6-11.487z" fill="#000" fill-rule="nonzero" opacity=".1"/><path d="M294.795 199.752a3.766 3.766 0 01-1.35 1.024c-.16.07-.327.125-.499.163-1.498.332-2.024-.718-1.937-2.527.145-3.222 2.197-8.809 4.05-12.969 1.329-3.012 2.55-5.293 2.874-5.443-.017-.017.84 15.21-3.138 19.752z" fill="#6C63FF" fill-rule="nonzero"/><path d="M293.366 201a1.546 1.546 0 01-.908-.304c-2.708-1.767-2.762-8.397-2.118-14.696 2.322 5.675 4.873 13.577 3.026 15z" fill="#000" fill-rule="nonzero" opacity=".1"/><path d="M295.134 199.994c-.369.686-.844 1.05-1.474 1.002a2.293 2.293 0 01-.892-.296c-.812-.494-1.43-1.199-1.768-2.017.158-3.151 2.398-8.615 4.421-12.683.7 5.655.94 11.669-.287 13.994z" fill="#000" fill-rule="nonzero" opacity=".1"/><path d="M292.335 173s-5.254 24.059 0 27.688c5.255 3.63 1.349-25.557 0-27.688z" fill="#6C63FF" fill-rule="nonzero"/><path fill="#D4DFEC" fill-rule="nonzero" d="M304 200h-24v3.923h3.662l.09.463 1.466 7.614h13.953l1.466-7.614.09-.463H304z"/><path fill="#000" fill-rule="nonzero" opacity=".1" d="M304 200h-24v3.923h3.662l.09.463 1.466 7.614h13.953l1.466-7.614.09-.463H304z"/><path fill="#D4DFEC" fill-rule="nonzero" d="M301 202l-.41 2.144-1.492 7.856h-14.196l-1.493-7.856L283 202z"/><path fill="#000" fill-rule="nonzero" opacity=".1" d="M301 202l-.41 2h-17.18l-.41-2z"/><path fill="#D4DFEC" fill-rule="nonzero" d="M280 200h24v4h-24z"/><path d="M96.276 174.664a6.13 6.13 0 00-.813 1.53c-.05.133-.1.285-.15.432a1.183 1.183 0 00-.283-.097 3.938 3.938 0 00-1.271-.11c0-.166.016-.332.023-.521.053-1.882-.17-4.498-1.965-3.391-1.721 1.07-.492 2.845.62 3.99.096.099.19.189.283.278-1 .728-1.206 2.4-1.375 4.153-.17 1.752-1.665 3.657-2.644 4.754-.097.11-.19.21-.28.302a3.593 3.593 0 00-2.87-.738l-.133-.485c-.8-2.882-2.46-7.876-4.579-8.976l.28-.353c.9-1.177 1.911-2.922.416-3.368-1.495-.445-1.631 1.513-1.548 2.993 0 .182.027.359.043.521a2.209 2.209 0 00-1.568.762c-.07-.087-.147-.176-.23-.273-1.212-1.433-3.44-3.697-4.112-1.995-.626 1.596 1.332 3.657 2.71 4.874l.087.073c-.926 3.75 3.11 6.802 5.288 8.139.096.063.19.12.28.173-2.997 3.527-4.852 10.143-4.852 10.143l8.41 1.526s5.571-4.797 4.859-9.309h.056c5.564-1.113 6.83-7.038 5.964-10.555l.096-.04a6.325 6.325 0 002.577-1.945c1.545-2.154-1.721-4.598-3.32-2.487z" fill="#6C63FF" fill-rule="nonzero"/><path d="M96.276 174.664a6.13 6.13 0 00-.813 1.53c-.05.133-.1.285-.15.432a1.183 1.183 0 00-.283-.097 3.938 3.938 0 00-1.271-.11c0-.166.016-.332.023-.521.053-1.882-.17-4.498-1.965-3.391-1.721 1.07-.492 2.845.62 3.99.096.099.19.189.283.278-1 .728-1.206 2.4-1.375 4.153-.17 1.752-1.665 3.657-2.644 4.754-.097.11-.19.21-.28.302a3.593 3.593 0 00-2.87-.738l-.133-.485c-.8-2.882-2.46-7.876-4.579-8.976l.28-.353c.9-1.177 1.911-2.922.416-3.368-1.495-.445-1.631 1.513-1.548 2.993 0 .182.027.359.043.521a2.209 2.209 0 00-1.568.762c-.07-.087-.147-.176-.23-.273-1.212-1.433-3.44-3.697-4.112-1.995-.626 1.596 1.332 3.657 2.71 4.874l.087.073c-.926 3.75 3.11 6.802 5.288 8.139.096.063.19.12.28.173-2.997 3.527-4.852 10.143-4.852 10.143l8.41 1.526s5.571-4.797 4.859-9.309h.056c5.564-1.113 6.83-7.038 5.964-10.555l.096-.04a6.325 6.325 0 002.577-1.945c1.545-2.154-1.721-4.598-3.32-2.487z" fill="#000" fill-rule="nonzero" opacity=".1"/><path d="M79 176.9l-.973 3.1s-.541-.416-1.224-1.076c-1.366-1.299-3.3-3.538-2.686-5.26.66-1.85 2.874.592 4.078 2.153.482.617.805 1.083.805 1.083zm1.991-2.132c-.258.429-.533.84-.824 1.232a20.3 20.3 0 01-.152-1.654c-.07-1.611.063-3.75 1.335-3.28 1.272.47.416 2.412-.359 3.702zm14.002.644c-.035.883-.13 1.588-.13 1.588a12.875 12.875 0 01-1.302-1.022c-1.182-1.075-2.476-2.734-.655-3.729 1.907-1.04 2.14 1.405 2.087 3.163zm4.598 1.552a6.296 6.296 0 01-2.573 1.754c-.28.111-.57.205-.864.282L95 177.537c.122-.484.282-.959.479-1.422.195-.493.468-.957.81-1.38 1.597-1.913 4.855.291 3.302 2.229z" fill="#6C63FF" fill-rule="nonzero"/><path d="M78.267 175c.439.591.733 1.03.733 1.03l-.886 2.97s-.492-.399-1.114-1.03a6.26 6.26 0 01.997-2.61c.09-.123.18-.243.27-.36zm2.733-.489a18.95 18.95 0 01-.844 1.489 28.86 28.86 0 01-.156-2c.36.01.71.188 1 .511z" fill="#000" fill-rule="nonzero" opacity=".1"/><path d="M86 185.955L83.338 187a16.53 16.53 0 01-1.42-.715c-2.8-1.533-8.43-5.392-4.657-9.943 3.774-4.551 6.923 3.61 8.162 7.601a35.1 35.1 0 01.577 2.012z" fill="#6C63FF" fill-rule="nonzero"/><path d="M93 175.712c.264-.431.621-.686 1-.712-.025 1.112-.091 2-.091 2-.32-.397-.624-.827-.909-1.288zm5 2.995a7.144 7.144 0 01-.857.293L96 177.478c.121-.503.28-.997.474-1.478.739.409 1.282 1.425 1.526 2.707z" fill="#000" fill-rule="nonzero" opacity=".1"/><path d="M90.856 189.697c-.132.027-.27.055-.405.075-8.098 1.283-2.67-3.269-2.67-3.269s.365-.343.859-.919c.988-1.125 2.447-3.087 2.614-4.905.254-2.744.547-5.3 3.646-4.545 3.04.741 3.62 11.964-4.044 13.563z" fill="#6C63FF" fill-rule="nonzero"/><path fill="#D4DFEC" fill-rule="nonzero" d="M75 210h16v4H75z"/><path fill="#D4DFEC" fill-rule="nonzero" d="M73 196h21v15H73z"/><path fill="#000" fill-rule="nonzero" opacity=".1" d="M75 210h16v4H75z"/><path fill="#000" fill-rule="nonzero" opacity=".1" d="M73 196h21v15H73z"/><path fill="#D4DFEC" fill-rule="nonzero" d="M76 210h16v4H76z"/><path d="M85.434 184a57.4 57.4 0 01.566 1.975L83.391 187a16.23 16.23 0 01-1.391-.702c1.021-1.161 2.174-2.028 3.434-2.298zM92 188.725c-.136.025-.278.05-.417.069-8.338 1.162-2.75-2.961-2.75-2.961s.376-.311.885-.833c1.556 1.14 2.194 2.427 2.282 3.725z" fill="#000" fill-rule="nonzero" opacity=".1"/><path d="M78 197.48s4.82-16.62 11.575-11.5c6.755 5.119-2.748 13.02-2.748 13.02L78 197.48z" fill="#6C63FF" fill-rule="nonzero"/><circle fill="#000" fill-rule="nonzero" opacity=".1" cx="80.5" cy="178.5" r="1"/><circle fill="#000" fill-rule="nonzero" opacity=".1" cx="80.5" cy="181.5" r="1"/><circle fill="#000" fill-rule="nonzero" opacity=".1" cx="95.5" cy="179.5" r="1"/><circle fill="#000" fill-rule="nonzero" opacity=".1" cx="83.5" cy="191.5" r="1"/><circle fill="#000" fill-rule="nonzero" opacity=".1" cx="94.5" cy="183.5" r="1"/><circle fill="#000" fill-rule="nonzero" opacity=".1" cx="89.5" cy="188.5" r="1"/><circle fill="#000" fill-rule="nonzero" opacity=".1" cx="82.5" cy="179.5" r="1"/><circle fill="#000" fill-rule="nonzero" opacity=".1" cx="93.5" cy="181.5" r="1"/><circle fill="#000" fill-rule="nonzero" opacity=".1" cx="92.5" cy="185.5" r="1"/><circle fill="#000" fill-rule="nonzero" opacity=".1" cx="86.5" cy="191.5" r="1"/><circle fill="#000" fill-rule="nonzero" opacity=".1" cx="85.5" cy="188.5" r="1"/><circle fill="#000" fill-rule="nonzero" opacity=".1" cx="82.5" cy="182.5" r="1"/><path fill="#000" fill-rule="nonzero" opacity=".1" d="M76 210h16v2H76z"/><path fill="#D4DFEC" fill-rule="nonzero" d="M74 196h21v15H74z"/><circle fill="#000" fill-rule="nonzero" opacity=".1" cx="87.5" cy="193.5" r="1"/><circle fill="#000" fill-rule="nonzero" opacity=".1" cx="84.5" cy="194.5" r="1"/></g></svg>