<svg width="375" height="368" xmlns="http://www.w3.org/2000/svg"><defs><linearGradient x1="50%" y1="100%" x2="50%" y2="0%" id="a"><stop stop-color="gray" stop-opacity=".25" offset="0%"/><stop stop-color="gray" stop-opacity=".12" offset="53.514%"/><stop stop-color="gray" stop-opacity=".1" offset="100%"/></linearGradient></defs><g fill="none"><path fill="#F2F2F2" d="M374.531 82.661v26.596l-24.528-10.8-9.955-4.383-7.746-3.41-39.82-17.535-7.745-3.41-9.955-4.384-143.25-63.078h60.4z"/><ellipse fill="#6C63FF" cx="322.531" cy="31.757" rx="32" ry="31.5"/><path d="M338.531 181.257a6 6 0 116-6 6.007 6.007 0 01-6 6zm0-11a5 5 0 100 10 5 5 0 000-10zm-325-68h-13v-13h13v13zm-12-1h11v-11h-11v11zm198-87h-13v-13h13v13zm-12-1h11v-11h-11v11z" fill="#3F3D56"/><path fill="#6C63FF" d="M58.531 78.257h90v73h-90z"/><path fill="#F2F2F2" d="M58.531 174.257h250v7h-250z"/><path d="M141.531 148.257h-91v-74h91v74zm-90.032-.968h89.064V75.224H51.499v72.065z" fill="#3F3D56"/><path fill="#6C63FF" d="M184.531 100.257h87v7h-87z"/><path fill="#6C63FF" opacity=".3" d="M184.531 119.257h124v7h-124z"/><path d="M265.531 103.257h-89v-9h89v9zm-88.022-1h87.044v-7H177.51v7zm124.022 22h-125v-9h125v9zm-124.027-1h123.054v-7H177.504v7zm123.027 55h-250v-9h250v9zm-249.033-1h248.066v-7H51.498v7z" fill="#3F3D56"/><path fill="#F2F2F2" d="M58.531 199.257h250v7h-250z"/><path d="M300.531 202.257h-250v-9h250v9zm-249.033-1h248.066v-7H51.498v7z" fill="#3F3D56"/><path fill="#F2F2F2" d="M58.531 223.257h250v7h-250z"/><path d="M300.531 227.257h-250v-9h250v9zm-249.033-1h248.066v-7H51.498v7z" fill="#3F3D56"/><path fill="#F2F2F2" d="M58.531 246.257h250v7h-250z"/><path d="M300.531 251.257h-250v-9h250v9zm-249.033-1h248.066v-7H51.498v7z" fill="#3F3D56"/><path fill="#F2F2F2" d="M58.531 271.257h250v7h-250z"/><path d="M300.531 274.257h-250v-9h250v9zm-249.033-1h248.066v-7H51.498v7z" fill="#3F3D56"/><path fill="#F2F2F2" d="M58.531 295.257h250v7h-250z"/><path d="M300.531 299.257h-250v-9h250v9zm-249.033-1h248.066v-7H51.498v7z" fill="#3F3D56"/><path d="M322.531 344.257h-286v-314h286v314zm-285.03-.967h284.06V31.223H37.5V343.29z" fill="#3F3D56"/><path d="M30.585 352.234a.273.273 0 00-.054.023 52.485 52.485 0 001.79-3.57c.064-.142.124-.289.189-.43-.006.036-.006.073-.011.114-.017.228-.038.457-.06.69-.032.361-.06.727-.065 1.093-.005.114-.005.224-.005.338.002.445.056.89.162 1.326h-.021c-.136.009-.26.013-.39.032a6.044 6.044 0 00-1.475.356.341.341 0 00-.06.028z" fill="url(#a)"/><path d="M40.103 161.077c.05 2.076.723 4.086.829 6.158-5.847.304-11.613-2.66-17.4-1.753 1.617-1.094 2.482-3.067 2.991-5.009.649-2.506.843-5.116.571-7.696a3.528 3.528 0 00-.073-.426c-.214-1.015-.77-2.452-.621-3.25.196-1.056 1.149-.847 2.007-.787 2.616.209 5.22.56 7.802 1.053.672.122 7.224 1.832 7.322 1.654a32.874 32.874 0 00-2.836 6.107 12.403 12.403 0 00-.592 3.95zm57.844-7.041a8.934 8.934 0 01-1.878 1.868c-.467.378-.945.763-1.446 1.11a6.246 6.246 0 01-3.076 1.235c-1.465.098-4.575-.751-5.486-1.99a3.552 3.552 0 01-.524-2.072 9.422 9.422 0 01.505-2.9 16.064 16.064 0 012.372-4.235c1.06-1.454 2.238-2.885 3.814-3.764a14.889 14.889 0 011.622-.737c.956-.385 1.909-.773 2.865-1.159.163-.078.34-.124.52-.135.77.007.91 1.166.475 1.793-.873 1.26-2.835 1.612-3.386 3.043.952.029 1.777.66 2.043 1.563.022.233.118.454.275.63.253.2.647.087.934.238.509.268.287 1.015.34 1.582.125.49.3.967.524 1.423a2.992 2.992 0 01-.493 2.507z" fill="#A0616A"/><path d="M16.531 357.694c.484-.46 1.274-.382 1.949-.28a75.96 75.96 0 0010.956.843c.46-2.133-.874-4.206-1.304-6.344a5.498 5.498 0 00-.434-1.604c-.516-.943-1.682-1.374-2.776-1.593-1.974-.396-5.06-1.095-6.163.803-1.324 2.277-1.747 5.64-2.228 8.175z" fill="#65617D"/><path d="M55.475 350.238c-1.443.947-3.234 1.242-4.97 1.457-1.738.21-3.521.375-5.093 1.118-1.356.644-2.5 1.7-3.936 2.163a8.517 8.517 0 01-4.086.062c-1.614-.292-3.333-.856-4.204-2.196-.777-1.191-.693-2.702-.587-4.104.125-1.584.247-3.171.367-4.76-.006-.403.1-.8.307-1.15 1.166-1.636 4.003.684 5.522.68 2.405-.003 4.988-1.256 6.723-2.79.152-.152.328-.28.522-.378.686-.295 1.372.251 1.981.728.068.055.137.11.205.16 1.405 1.071 3.291 1.29 5.026 1.723 1.738.433 3.598 1.307 4.136 2.953.035.104.063.21.083.317.315 1.515-.644 3.128-1.996 4.017z" fill="#3F3D56"/><path d="M55.475 350.238c-1.443.947-3.234 1.242-4.97 1.457-1.738.21-3.521.375-5.093 1.118-1.356.644-2.5 1.7-3.936 2.163a8.517 8.517 0 01-4.086.062c-1.614-.292-3.333-.856-4.204-2.196-.777-1.191-.693-2.702-.587-4.104.125-1.584.247-3.171.367-4.76-.006-.403.1-.8.307-1.15 1.166-1.636 4.003.684 5.522.68 2.405-.003 4.988-1.256 6.723-2.79.152-.152.328-.28.522-.378.686-.295 1.372.251 1.981.728.068.055.137.11.205.16 1.405 1.071 3.291 1.29 5.026 1.723 1.738.433 3.598 1.307 4.136 2.953.035.104.063.21.083.317.315 1.515-.644 3.128-1.996 4.017z" fill="#2F2E41"/><path d="M55.334 351.087c-1.435.975-3.215 1.28-4.939 1.5-1.728.218-3.5.387-5.063 1.152-1.347.664-2.484 1.752-3.91 2.228a8.175 8.175 0 01-4.062.064 6.707 6.707 0 01-4.178-2.81c-.772-1.227-.69-2.784-.584-4.228.124-1.632.246-3.266.365-4.903-.006-.415.1-.824.305-1.185 1.16-1.685 3.979.705 5.488.701 2.39-.004 4.958-1.294 6.682-2.873.15-.157.326-.29.52-.39.68-.304 1.362.258 1.968.75a14.071 14.071 0 01-1.679 3.458 7.226 7.226 0 01-5.266 3.283c-1.07.078-2.164-.132-3.2.142-1.03.274-1.995 1.328-1.63 2.33.358.975 1.623 1.189 2.666 1.245 1.46.079 2.958.15 4.343-.304.847-.281 1.623-.746 2.447-1.088 3.505-1.448 7.931-.637 10.826-3.083.274-.25.57-.476.884-.675.758 1.58-.64 3.77-1.983 4.686z" fill="#E8EAF2"/><path d="M55.334 351.087c-1.435.975-3.215 1.28-4.939 1.5-1.728.218-3.5.387-5.063 1.152-1.347.664-2.484 1.752-3.91 2.228a8.175 8.175 0 01-4.062.064 6.707 6.707 0 01-4.178-2.81c-.772-1.227-.69-2.784-.584-4.228.124-1.632.246-3.266.365-4.903-.006-.415.1-.824.305-1.185 1.16-1.685 3.979.705 5.488.701 2.39-.004 4.958-1.294 6.682-2.873.15-.157.326-.29.52-.39.68-.304 1.362.258 1.968.75a14.071 14.071 0 01-1.679 3.458 7.226 7.226 0 01-5.266 3.283c-1.07.078-2.164-.132-3.2.142-1.03.274-1.995 1.328-1.63 2.33.358.975 1.623 1.189 2.666 1.245 1.46.079 2.958.15 4.343-.304.847-.281 1.623-.746 2.447-1.088 3.505-1.448 7.931-.637 10.826-3.083.274-.25.57-.476.884-.675.758 1.58-.64 3.77-1.983 4.686z" fill="#000" opacity=".05"/><path d="M16.97 244.505c-1.13 5.412-.058 11.041 2.992 15.697.832 1.256 1.806 2.435 2.431 3.8.41.973.728 1.981.95 3.011l2.694 10.87c.727 2.935 1.46 5.927 1.241 8.938-.152 2.099-.695 4.458.632 6.118.32.316.59.678.802 1.072.132.461.137.948.013 1.412-1.363 7.893-2.374 16.144.088 23.779 2.232 6.92 2.36 14.588 4.257 21.602.235.869.504 1.785 1.179 2.396a3.907 3.907 0 001.767.819c2.797.648 5.75-.112 8.358-1.29 1.833-.827 3.806-2.28 3.65-4.242-.075-.934-.635-1.753-1.015-2.613-.745-1.688-.804-3.573-1.005-5.4-.505-4.586-1.956-9.015-3.053-13.503-1.096-4.487-1.84-9.177-.914-13.7a117.714 117.714 0 019.044-27.116c.178-.46.461-.876.828-1.214a8.578 8.578 0 001.172-.78c.285-.43.468-.915.537-1.422.407-1.432 1.619-2.488 2.431-3.746 2.05-3.175 1.4-7.245 1.325-10.996-.074-3.648.465-7.33-.149-10.929-.613-3.6-2.729-7.278-6.289-8.406-1.763-.559-3.67-.432-5.515-.254-9.776.943-19.276 2.674-28.45 6.097z" fill="#2F2E41"/><path d="M16.97 244.505c-1.13 5.412-.058 11.041 2.992 15.697.832 1.256 1.806 2.435 2.431 3.8.41.973.728 1.981.95 3.011l2.694 10.87c.727 2.935 1.46 5.927 1.241 8.938-.152 2.099-.695 4.458.632 6.118.32.316.59.678.802 1.072.132.461.137.948.013 1.412-1.363 7.893-2.374 16.144.088 23.779 2.232 6.92 2.36 14.588 4.257 21.602.235.869.504 1.785 1.179 2.396a3.907 3.907 0 001.767.819c2.797.648 5.75-.112 8.358-1.29 1.833-.827 3.806-2.28 3.65-4.242-.075-.934-.635-1.753-1.015-2.613-.745-1.688-.804-3.573-1.005-5.4-.505-4.586-1.956-9.015-3.053-13.503-1.096-4.487-1.84-9.177-.914-13.7a117.714 117.714 0 019.044-27.116c.178-.46.461-.876.828-1.214a8.578 8.578 0 001.172-.78c.285-.43.468-.915.537-1.422.407-1.432 1.619-2.488 2.431-3.746 2.05-3.175 1.4-7.245 1.325-10.996-.074-3.648.465-7.33-.149-10.929-.613-3.6-2.729-7.278-6.289-8.406-1.763-.559-3.67-.432-5.515-.254-9.776.943-19.276 2.674-28.45 6.097z" fill="#000" opacity=".1"/><path d="M56.089 268.467a22.422 22.422 0 01-.482 4.193 1207.671 1207.671 0 01-5.394 28.034c-.168.809-.332 1.618-.552 2.412a19.487 19.487 0 01-3.655 7.115c-7.955 9.811-8.642 24.059-12.958 35.891-.29.802-.582 1.603-.892 2.394a59.475 59.475 0 01-2.661 5.877c-.116.278-.306.52-.55.702-.267.133-.567.19-.865.166a25.503 25.503 0 01-11.21-2.523 2.316 2.316 0 01-1.191-.979 2.344 2.344 0 01-.127-1.127c.119-2.345.265-4.776 1.396-6.837a14.625 14.625 0 012.762-3.314c.336-7.362 1.072-14.739 2.707-21.928.84-3.675 1.877-7.391 4.035-10.498 1.59-2.294 3.871-4.558 3.591-7.325-.123-1.216-.638-2.73.362-3.443.437-.314 1.083-.355 1.378-.802.119-.21.185-.446.194-.687a16.792 16.792 0 00-.355-5.678 29.68 29.68 0 01-.854-3.701c-.127-1.263.09-2.63.94-3.576.052-2.527-.018-5.15.034-7.672.1-1.438-.02-2.883-.359-4.285-.194-.662-.489-1.293-.638-1.97-.534-2.426.799-5.333-.788-7.258-.66-.798-1.68-1.197-2.546-1.773-1.728-1.142-2.863-3.01-3.494-4.972a27.18 27.18 0 01-.989-6.088 6.2 6.2 0 01-.015-1.315 2.39 2.39 0 01.18-.658c.492-1.097 1.817-1.522 2.997-1.802a98.051 98.051 0 0122.891-2.65c2.852-1.92 4.457-1.233 5.667.803a20.91 20.91 0 011.613 3.897c.552 1.65.586 10.893 1.123 12.552.698 2.157-1.321 6.56-1.295 8.825z" fill="#2F2E41"/><path d="M4.786 184.289c-.208 1.466.488 2.906.565 4.385.067 1.292-.34 2.554-.572 3.827-.907 4.965.837 9.995 2.611 14.715.338.767.547 1.584.62 2.42.048 1.54-.83 2.952-1.07 4.474-.504 3.198 1.828 6.207 1.876 9.445.022 1.491-.442 3.009-.073 4.452.246.964.84 1.792 1.262 2.69.747 1.594.948 3.4 1.661 5.01 1.29 2.907 4.06 4.805 6.695 6.55 1.5-.506 3.121-1.107 3.944-2.472a6.175 6.175 0 00.689-2.168c.57-3.312.55-6.695.528-10.057a62.74 62.74 0 00-.454-8.657c-.533-3.653-1.704-7.174-2.544-10.767-1.06-4.532-1.603-9.214-3.254-13.56-1.45-3.82-3.71-7.25-6.088-10.533-.907-1.253-1.624-3.045-3.385-2.755a3.714 3.714 0 00-3.01 3.001z" fill="#3F3D56"/><path d="M4.786 184.289c-.208 1.466.488 2.906.565 4.385.067 1.292-.34 2.554-.572 3.827-.907 4.965.837 9.995 2.611 14.715.338.767.547 1.584.62 2.42.048 1.54-.83 2.952-1.07 4.474-.504 3.198 1.828 6.207 1.876 9.445.022 1.491-.442 3.009-.073 4.452.246.964.84 1.792 1.262 2.69.747 1.594.948 3.4 1.661 5.01 1.29 2.907 4.06 4.805 6.695 6.55 1.5-.506 3.121-1.107 3.944-2.472a6.175 6.175 0 00.689-2.168c.57-3.312.55-6.695.528-10.057a62.74 62.74 0 00-.454-8.657c-.533-3.653-1.704-7.174-2.544-10.767-1.06-4.532-1.603-9.214-3.254-13.56-1.45-3.82-3.71-7.25-6.088-10.533-.907-1.253-1.624-3.045-3.385-2.755a3.714 3.714 0 00-3.01 3.001z" fill="#000" opacity=".05"/><circle fill="#A0616A" cx="36.531" cy="143.257" r="14"/><path d="M45.32 166.17c-.604.688-1.414 1.445-2.31 1.224a3.174 3.174 0 01-.899-.473c-1.597-1.012-3.557-1.25-5.436-1.528a81.393 81.393 0 01-11.196-2.474 11.59 11.59 0 00-3.311-.662c-2.348.012-4.43 1.546-5.9 3.345-1.472 1.799-2.515 3.904-3.959 5.724-1.029 1.298-2.254 2.44-3.214 3.787-2.426 3.4-2.947 7.834-2.321 11.94.626 4.107 2.295 7.98 3.949 11.8a40.724 40.724 0 003.224 6.391c-.558 3.12-.264 6.688 1.246 9.487.491.912 1.093 1.8 1.256 2.82a6.94 6.94 0 01-.087 2.068l-.705 4.931c-.215 1.502-.43 3.004-.708 4.495-.509 2.73-1.2 5.692.087 8.162 1.54 2.959-.078 6.75.327 10.05a52.158 52.158 0 0113.5-3.154c2.977-.287 6.01-.323 8.882-1.144 1.794-.514 3.495-1.326 5.317-1.735a24.917 24.917 0 014.482-.45c3.32-.131 6.664-.262 9.95.22.266.038.59.06.75-.154a.68.68 0 00.1-.385 6.425 6.425 0 00-.85-3.468c-.42-.726-1.001-1.437-.985-2.273.03-.39.127-.771.288-1.129l1.456-3.817c1.229-3.223.644-6.966 1.282-10.35.5-2.646.819-5.32.957-8.008.119-2.296.045-4.783-1.364-6.618a7.613 7.613 0 01-1.066-1.456 4.351 4.351 0 01-.253-1.742c-.032-4.595.097-9.188.385-13.779-1.23-2.17-2.511-4.39-3.74-6.56-1.43-2.526-2.881-5.104-3.459-7.938-.382-1.877-.369-3.809-.642-5.703a2.464 2.464 0 00-.49-1.332c-.47-.523-1.264-.598-1.972-.576a8.863 8.863 0 00-2.57.465z" fill="#3F3D56"/><path d="M49.08 187.802c.836 1.05 1.707 2.129 2.893 2.749 1.364.713 2.971.73 4.508.696a106.991 106.991 0 0018.84-2.084 11.76 11.76 0 002.075-.56c.746-.358 1.45-.8 2.097-1.318 2.043-1.48 4.116-2.986 5.67-4.98a16.811 16.811 0 003.36-8.302c1.478-1.371 2.263-3.32 3.003-5.203a7.99 7.99 0 00.684-2.526c.04-.895-.549-1.833-.386-2.714a7.185 7.185 0 012.18-3.948c.239-.172.42-.415.518-.694.03-.233-.013-.47-.124-.676-.632-1.419-2.078-2.334-3.578-2.706a15.248 15.248 0 00-4.61-.184c-.512.098-1.017.233-1.51.404l-1.074 2.848a3.692 3.692 0 01-.702 1.3c-.239.219-.494.42-.762.6a4.409 4.409 0 00-1.511 3.84c-2.016.787-3.076 3.017-2.422 5.092a4.838 4.838 0 00-3.542 3.14 2.355 2.355 0 01-.462.977 1.872 1.872 0 01-1.237.383c-1.214.076-2.275 1.039-3.375.516a6.817 6.817 0 00-4.008-.564c-.28.066-.568.092-.856.076a2.248 2.248 0 01-.701-.246 5.59 5.59 0 00-1.591-.63 1.484 1.484 0 00-1.51.587c-.385-.425-.614-.97-.965-1.425a1.544 1.544 0 00-1.464-.703c.365-.328-.01-.981-.484-1.1a6.155 6.155 0 00-1.461.053c-1.27-.007-2.245-1.169-3.479-1.473-1.134-.28-2.646.054-3.227-.966-.206-.361-.247-.852-.597-1.073a1.145 1.145 0 00-.767-.09 7.451 7.451 0 00-2.317.709c-1.19 4.685-.565 9.55.34 14.3a12.661 12.661 0 002.554 5.895zm-6.27-26.706c-1.506-.944-3.28-1.344-5.027-1.664a10.534 10.534 0 00-3.2-.232c-.988.124-1.937.508-2.932.564-1.397.078-2.736-.491-4.085-.863-1.35-.371-2.908-.513-4.044.308-.242.24-.547.403-.88.47a1.536 1.536 0 01-.91-.449 5.16 5.16 0 00-6.46.343c-2.575 2.429-2.284 7.174-5.302 9.017-.832.507-1.896.776-2.382 1.624-.117.27-.255.532-.41.781-.203.224-.45.401-.726.52-.876.394-1.71.876-2.488 1.439a3.582 3.582 0 00-1.432 2.414 4.57 4.57 0 00.44 2.03c3.026 7.467 10.4 12.208 18.408 11.838a2.903 2.903 0 001.928-.605c.29-.33.52-.708.676-1.12 1.42-2.992 4.085-5.2 5.777-8.046 1.009-1.695 1.656-3.592 2.706-5.262 1.592-2.531 4.013-4.402 6.382-6.216 1.336-1.024 2.824-2.098 4.502-2.026 1.496.064 2.584.145 2.036-1.7a5.904 5.904 0 00-2.576-3.165z" fill="#3F3D56"/><path d="M42.81 161.096c-1.506-.944-3.28-1.344-5.027-1.664a10.534 10.534 0 00-3.2-.232c-.988.124-1.937.508-2.932.564-1.397.078-2.736-.491-4.085-.863-1.35-.371-2.908-.513-4.044.308-.242.24-.547.403-.88.47a1.536 1.536 0 01-.91-.449 5.16 5.16 0 00-6.46.343c-2.575 2.429-2.284 7.174-5.302 9.017-.832.507-1.896.776-2.382 1.624-.117.27-.255.532-.41.781-.203.224-.45.401-.726.52-.876.394-1.71.876-2.488 1.439a3.582 3.582 0 00-1.432 2.414 4.57 4.57 0 00.44 2.03c3.026 7.467 10.4 12.208 18.408 11.838a2.903 2.903 0 001.928-.605c.29-.33.52-.708.676-1.12 1.42-2.992 4.085-5.2 5.777-8.046 1.009-1.695 1.656-3.592 2.706-5.262 1.592-2.531 4.013-4.402 6.382-6.216 1.336-1.024 2.824-2.098 4.502-2.026 1.496.064 2.584.145 2.036-1.7a5.904 5.904 0 00-2.576-3.165z" fill="#000" opacity=".05"/><path d="M50.4 363.666c-1.005.967-2.387 1.39-3.728 1.691a65.231 65.231 0 01-9.277 1.183c-1.008.077-2.02.158-3.028.239-2.958.23-5.92.466-8.889.477a59.481 59.481 0 01-10.93-.974.913.913 0 01-.78-.313.978.978 0 01-.218-.831 56.25 56.25 0 011.344-11.317c.344-1.526 2.996 1.895 3.115 2.037.736.863 1.292 1.26 2.409 1.322 3.051.173 6.468-1.741 8.892-3.444.519-.398 1.07-.75 1.647-1.051a4.736 4.736 0 011.333-.393c1.57-.15 3.148.18 4.538.947 1.822.932 3.42 2.273 5.224 3.232a14.368 14.368 0 004.683 1.53c1.651.234 3.623.346 4.47 1.821a.014.014 0 01.005.012c.694 1.22.19 2.87-.81 3.832z" fill="#2F2E41"/><path d="M50.22 363.789c-.985.933-2.341 1.343-3.656 1.633a64.953 64.953 0 01-9.102 1.142c-.99.075-1.982.153-2.971.23-2.902.224-5.808.451-8.72.462a59.247 59.247 0 01-10.725-.941 1.176 1.176 0 01-.85-.417 4.85 4.85 0 01-.665-1.233c.062-3.676 1.042-7.348 1.855-10.931.338-1.474 2.939 1.83 3.056 1.968.722.833 1.268 1.217 2.363 1.276 2.994.168 6.347-1.682 8.725-3.326.509-.385 1.05-.725 1.615-1.016a4.72 4.72 0 011.308-.38c-.384 2.188-3.473 4.83-5.067 5.634-3.224 1.626-7.057.815-10.655 1.004a1.468 1.468 0 00-.755.186c-.432.29-.458.912-.443 1.437.03.87.14 1.894.883 2.336.372.182.782.268 1.194.253 8.867.394 17.75.078 26.568-.945a14.42 14.42 0 004.327-.978 11.18 11.18 0 002.51-1.641c1.133.903.187 3.316-.795 4.247z" fill="#E8EAF2"/><path d="M42.176 142.939c-.053 1.44.943 4.236-1.787 3.455-1.627-.465-2.087-2.367-4.152-1.943-2.084.431-2.54 2.934-3.24 4.577-1.157 2.651-3.563 4.57-6.433 5.13a3.924 3.924 0 01-1.772-.005c-1.33-.375-2.091-1.73-2.635-2.986a23.225 23.225 0 01-1.167-3.28 13.681 13.681 0 01-.422-2.404v-.004a10.557 10.557 0 01-.008-1.662c.247-3.276 2.137-6.262 4.555-8.52 2.419-2.26 5.358-3.892 8.259-5.501a12.14 12.14 0 013.045-1.34 10.384 10.384 0 013.217-.131c1.412.06 2.8.382 4.091.95.53.257 1.016.594 1.441.997a4.264 4.264 0 011.248 2.056c.524 2.116-.845 4.022-1.955 5.696-.988 1.486-2.213 3.061-2.285 4.915z" fill="#2F2E41"/><path d="M45.66 134.947a12.63 12.63 0 01-.824 1.197 14.053 14.053 0 01-1.902 2.006c-.41.365-.84.707-1.284 1.026a20.137 20.137 0 01-2.595 1.579c-2.628 1.35-5.474 2.197-8.305 3.032-1.85.549-3.7 1.097-5.552 1.643-1.936 1.492-8.42 6.384-9.51 5.774-1.285-.72 5.753-5.795 5.753-5.795l.323.25c-1.03-.66-1.568-2.189-1.8-3.512-.412-2.368-.607-4.828-.057-7.17.55-2.337 1.932-4.564 4.037-5.659.932-.488 2.063-.82 2.737-1.571.102-.111.191-.234.265-.366a1.21 1.21 0 00.105-.195c.075-.206.174-.402.296-.583.386-.454 1.086-.317 1.67-.244.064.007.123.015.187.019.105.01.21.016.315.015 2.085.046 4.107-1.136 6.219-1.136 2.314-.004 4.283 1.361 6.32 2.292.412.19.801.362 1.168.537 1.471.698 2.58 1.442 3.186 3.425.352 1.16-.13 2.406-.752 3.436z" fill="#3F3D56"/><path d="M21.531 145.309c.25.36.528.6.818.705.74.498 1.538.221 2.182-.757l-3 .052z" fill="#000" opacity=".1"/></g></svg>