<svg width="375" height="284" xmlns="http://www.w3.org/2000/svg"><g fill="none"><path fill="#3F3D56" d="M0 0h375v239H0z"/><circle fill="#F2F2F2" cx="34.5" cy="39.5" r="5.5"/><circle fill="#F2F2F2" cx="165.5" cy="20.5" r="5.5"/><circle fill="#F2F2F2" cx="160.5" cy="106.5" r="9.5"/><circle fill="#FF6584" cx="128.5" cy="24.5" r="2.5"/><circle fill="#FF6584" cx="24.5" cy="116.5" r="2.5"/><circle fill="#FF6584" cx="344.5" cy="122.5" r="2.5"/><circle fill="#F2F2F2" cx="92.5" cy="76.5" r="2.5"/><circle fill="#F2F2F2" cx="346.5" cy="24.5" r="2.5"/><circle fill="#F2F2F2" cx="34.5" cy="188.5" r="2.5"/><circle fill="#F2F2F2" cx="312.5" cy="166.5" r="2.5"/><circle fill="#F2F2F2" cx="245.5" cy="21.5" r="2.5"/><path d="M281.5 65a5.5 5.5 0 115.5-5.5 5.506 5.506 0 01-5.5 5.5zm0-10.267a4.767 4.767 0 100 9.534 4.767 4.767 0 000-9.534zM271 80a4 4 0 110-8 4 4 0 010 8zm0-7.273a3.273 3.273 0 100 6.546 3.273 3.273 0 000-6.546zM294 100a4 4 0 110-8 4 4 0 010 8zm0-7.273a3.273 3.273 0 100 6.546 3.273 3.273 0 000-6.546z" fill="#F2F2F2"/><path d="M287.5 106c-17.397 0-31.5-14.103-31.5-31.5S270.103 43 287.5 43 319 57.103 319 74.5c-.02 17.389-14.111 31.48-31.5 31.5zm0-62.232c-16.973 0-30.732 13.76-30.732 30.732 0 16.973 13.76 30.732 30.732 30.732 16.973 0 30.732-13.76 30.732-30.732-.02-16.965-13.767-30.713-30.732-30.732z" fill="#F2F2F2"/><path d="M287 87c-26.355 0-47-5.394-47-12.28 0-4.012 6.127-7.46 17.254-9.709l.158.729c-10.576 2.137-16.642 5.41-16.642 8.98 0 6.253 21.171 11.536 46.23 11.536 25.059 0 46.23-5.283 46.23-11.536 0-3.577-6.087-6.854-16.698-8.991l.157-.729C327.852 67.249 334 70.7 334 74.72 334 81.606 313.355 87 287 87zm-23.5 122c-1.07 0-2.152-.017-3.214-.05l.024-.771c1.525.047 3.08.06 4.612.04l.01.771c-.476.007-.954.01-1.432.01zm6.077-.179l-.046-.77a102.12 102.12 0 004.596-.377l.081.768c-1.535.16-3.093.289-4.631.379zm-13.93-.12a103.25 103.25 0 01-4.625-.46l.094-.766c1.517.186 3.06.34 4.589.456l-.059.77zm23.17-.849l-.116-.763c1.517-.23 3.046-.497 4.543-.795l.15.757c-1.508.3-3.048.57-4.577.801zm-32.393-.282a102.268 102.268 0 01-4.563-.881l.164-.755c1.495.325 3.018.619 4.528.874l-.13.762zm41.506-1.53l-.185-.749c1.489-.368 2.986-.775 4.45-1.209l.22.74c-1.476.438-2.984.848-4.485 1.219zm-50.586-.442a100.69 100.69 0 01-4.463-1.298l.233-.735c1.458.46 2.948.894 4.428 1.287l-.198.746zm59.494-2.2l-.253-.729a100.543 100.543 0 004.32-1.615l.287.717a101.2 101.2 0 01-4.354 1.627zm-68.366-.605a100.689 100.689 0 01-4.333-1.708l.3-.711a100.64 100.64 0 004.3 1.695l-.267.724zm76.984-2.843l-.32-.703a99.204 99.204 0 004.146-2l.351.687c-1.374.702-2.779 1.38-4.177 2.016zm-85.565-.77a101.595 101.595 0 01-4.155-2.098l.364-.68a101.12 101.12 0 004.123 2.082l-.332.696zm93.823-3.452l-.382-.67c1.33-.76 2.66-1.557 3.948-2.373l.412.652a101.264 101.264 0 01-3.978 2.391zm-102.031-.933a102.037 102.037 0 01-3.943-2.47l.425-.644a99.463 99.463 0 003.913 2.45l-.395.664zm109.874-4.029l-.441-.632a101.862 101.862 0 003.717-2.725l.47.612c-1.222.94-2.483 1.863-3.746 2.745zm-117.641-1.087a102.497 102.497 0 01-3.7-2.818l.482-.603c1.2.958 2.435 1.899 3.67 2.796l-.452.625zm125.004-4.571l-.498-.59c1.168-.986 2.33-2.013 3.456-3.053l.524.567a102.513 102.513 0 01-3.482 3.076zm-132.27-1.23a102.068 102.068 0 01-3.426-3.141l.535-.557c1.105 1.06 2.248 2.11 3.4 3.118l-.509.58zm139.09-5.079l-.55-.542a102.168 102.168 0 003.166-3.356l.574.517a102.545 102.545 0 01-3.19 3.381zm-145.794-1.355a102.766 102.766 0 01-3.125-3.439l.583-.506a101.405 101.405 0 003.101 3.413l-.56.532zm152.016-5.55l-.597-.49c.973-1.184 1.93-2.405 2.848-3.631l.618.462a101.539 101.539 0 01-2.87 3.659zm-158.105-1.465a101.909 101.909 0 01-2.798-3.707l.626-.45a102.32 102.32 0 002.777 3.678l-.605.479zm163.673-5.981l-.638-.434c.86-1.267 1.704-2.571 2.505-3.877l.658.404a102.407 102.407 0 01-2.525 3.907zm-169.096-1.555a102.448 102.448 0 01-2.447-3.944l.665-.392a101.596 101.596 0 002.428 3.914l-.646.422zm173.965-6.372l-.676-.373a101.14 101.14 0 002.14-4.094l.693.343a101.764 101.764 0 01-2.157 4.124zm-178.675-1.623c-.72-1.36-1.418-2.757-2.075-4.149l.698-.33a100.774 100.774 0 002.059 4.118l-.682.361zm182.797-6.721l-.707-.31a100.644 100.644 0 001.755-4.276l.72.277a101.52 101.52 0 01-1.768 4.309zm-186.753-1.666a101.24 101.24 0 01-1.684-4.319l.725-.263a100.43 100.43 0 001.671 4.285l-.712.297zm190.09-7.03l-.732-.243a99.907 99.907 0 001.35-4.41l.744.21a101.286 101.286 0 01-1.362 4.443zm-193.261-1.691a101.44 101.44 0 01-1.283-4.467l.747-.196c.389 1.482.817 2.973 1.273 4.433l-.737.23zm195.777-7.254l-.752-.175c.346-1.487.662-3.007.94-4.515l.759.14c-.28 1.52-.599 3.05-.947 4.55zm-198.135-1.734a101.572 101.572 0 01-.865-4.566l.76-.127c.252 1.511.54 3.035.86 4.531l-.755.162zm199.817-7.404l-.765-.105c.208-1.511.383-3.053.521-4.582l.77.07a101.62 101.62 0 01-.526 4.617zm-201.338-1.762a102.67 102.67 0 01-.444-4.625l.77-.057c.112 1.53.26 3.074.44 4.59l-.766.092zm202.178-7.49l-.772-.036c.07-1.529.104-3.08.104-4.61H365c0 1.541-.035 3.104-.104 4.645zm-202.856-1.777a104.24 104.24 0 01-.025-4.648l.772.014a101.907 101.907 0 00.024 4.613l-.771.021zm202.182-3.946c-.015-1.53-.067-3.081-.151-4.61l.77-.043c.085 1.54.137 3.103.153 4.645l-.772.008zm-201.252-5.296l-.77-.048c.096-1.542.23-3.1.395-4.63l.767.083a101.912 101.912 0 00-.392 4.595zm200.74-3.911a101.278 101.278 0 00-.57-4.577l.763-.112c.226 1.526.419 3.078.575 4.61l-.768.079zM163.963 91.96l-.763-.118c.237-1.527.512-3.066.817-4.575l.757.153a100.612 100.612 0 00-.81 4.54zm198.398-3.865a101.373 101.373 0 00-.988-4.505l.75-.182c.364 1.494.699 3.022.995 4.539l-.757.148zm-196.57-5.172l-.748-.188c.375-1.495.79-3.002 1.234-4.48l.739.222a100.8 100.8 0 00-1.225 4.446zm194.388-3.788c-.43-1.47-.9-2.948-1.398-4.394l.73-.251a100.96 100.96 0 011.41 4.428l-.742.217zM168.45 74.08l-.729-.256c.513-1.46 1.067-2.926 1.646-4.358l.716.29a100.168 100.168 0 00-1.633 4.324zm188.733-3.665a101.269 101.269 0 00-1.793-4.237l.704-.317a101.775 101.775 0 011.806 4.27l-.717.284zm-185.27-4.902l-.7-.322a100.33 100.33 0 012.039-4.185l.686.354a100.623 100.623 0 00-2.024 4.153zm181.492-3.487a100.989 100.989 0 00-2.175-4.058l.672-.38c.758 1.34 1.495 2.716 2.192 4.089l-.689.349zm-177.255-4.72l-.669-.385a102.18 102.18 0 012.414-3.978l.65.416a101.167 101.167 0 00-2.395 3.947zm172.72-3.294a101.845 101.845 0 00-2.538-3.845l.634-.44a102.207 102.207 0 012.558 3.875l-.653.41zm-167.752-4.486l-.63-.445c.89-1.262 1.82-2.52 2.765-3.738l.61.473a101.647 101.647 0 00-2.745 3.71zm162.502-3.084a100.6 100.6 0 00-2.88-3.6l.592-.496c.988 1.18 1.964 2.4 2.902 3.627l-.614.469zm-156.846-4.206l-.588-.501a102.61 102.61 0 013.093-3.47l.564.527a102.237 102.237 0 00-3.07 3.444zm150.926-2.86a101.848 101.848 0 00-3.197-3.324l.545-.547a102.998 102.998 0 013.22 3.35l-.568.521zm-144.634-3.884l-.54-.551a102.399 102.399 0 013.395-3.173l.514.576a101.426 101.426 0 00-3.369 3.148zm138.093-2.616a101.913 101.913 0 00-3.487-3.021l.493-.595c1.186.982 2.368 2.006 3.513 3.044l-.519.572zm-131.216-3.524l-.488-.599a102.426 102.426 0 013.667-2.85l.46.62a101.7 101.7 0 00-3.64 2.829zm124.108-2.357a102.108 102.108 0 00-3.75-2.692l.437-.637a103.36 103.36 0 013.777 2.712l-.464.617zm-116.705-3.13l-.431-.64c1.278-.86 2.593-1.702 3.91-2.503l.4.66c-1.306.794-2.611 1.63-3.88 2.483zm109.087-2.08a101.214 101.214 0 00-3.981-2.34l.375-.674c1.348.75 2.697 1.544 4.012 2.357l-.406.656zm-101.22-2.706l-.37-.678c1.352-.74 2.738-1.457 4.12-2.133l.339.694a100.95 100.95 0 00-4.088 2.117zm93.153-1.789a100.887 100.887 0 00-4.181-1.964l.312-.706c1.412.624 2.83 1.29 4.214 1.98l-.345.69zm-84.885-2.255l-.306-.708a101.37 101.37 0 014.294-1.746l.274.722c-1.426.542-2.86 1.124-4.262 1.732zm76.435-1.48a100.443 100.443 0 00-4.348-1.571l.246-.732c1.467.492 2.94 1.025 4.38 1.584l-.278.72zm-67.825-1.79l-.24-.733c1.466-.48 2.963-.934 4.447-1.345l.207.743a99.506 99.506 0 00-4.414 1.336zm59.072-1.147c-1.472-.42-2.974-.81-4.463-1.162l.177-.75c1.501.353 3.014.747 4.498 1.17l-.212.742zM240.975 9.3l-.172-.753a101.14 101.14 0 014.553-.93l.137.76a99.306 99.306 0 00-4.518.923zm41.213-.798a100.612 100.612 0 00-4.551-.746l.107-.764c1.528.214 3.071.467 4.586.751l-.142.76zm-32.14-.84l-.101-.765c1.528-.204 3.082-.375 4.618-.509l.067.769c-1.525.133-3.066.303-4.583.505zm23.009-.443c-1.52-.143-3.068-.253-4.6-.327l.037-.771c1.544.074 3.103.186 4.635.33l-.072.768zm-13.822-.358l-.033-.771c1.419-.06 2.865-.09 4.298-.09h.35l-.003.772h-.347c-1.422 0-2.858.03-4.265.089zM176 149.474c3.62-4.447 7.706-8.627 12.694-11.389 4.987-2.762 10.995-3.987 16.441-2.345 4.065 1.226 7.53 3.923 10.737 6.741 6.57 5.774 12.628 12.385 20.378 16.375s17.96 4.734 24.543-1.025c5.21-4.559 7.43-12.455 13.651-15.43 6.133-2.933 13.244.217 19.467 2.946a161.044 161.044 0 0026.141 8.882c6.052 1.49 12.285 2.633 18.484 2.034 6.2-.6 12.42-3.12 16.464-7.93" fill="#F2F2F2"/><path d="M146 128h15.221a52.377 52.377 0 000-18H146a32.134 32.134 0 010 18zm-125 8h15.221a52.377 52.377 0 000-18H21a32.134 32.134 0 010 18zm270-57h15.221a52.377 52.377 0 000-18H291a32.134 32.134 0 010 18z" fill="#6C63FF"/><path fill="#FFB9B9" d="M80.235 254L77 264.132 87 265l-.882-11zM129 262v14h11l-3.102-14z"/><path d="M87.712 158.187l-4.709 45.099s-5.886 39.758-4.709 45.989c1.178 6.23-.294 7.12-.294 7.12h8.83s-.295-3.857 1.47-5.637c1.767-1.78.884-7.12.884-7.12l22.367-68.836 12.655 38.572s2.06 42.428 2.354 43.022c.295.593 1.178 8.604 1.178 8.604h10.889s-1.472-4.747.589-6.23c2.06-1.484 3.826-.297 2.06-2.968-1.766-2.67-2.355-5.934-1.766-7.417.589-1.484.589-7.418.589-7.418s-.883-80.11-5.887-82.78c-5.003-2.67-46.5 0-46.5 0zM130.926 268.7s-5.17-.729-5.17-.486-6.202 16.026 0 15.783c6.203-.243 29.721-3.4 28.17-9.227-1.55-5.827-9.303-4.128-9.303-4.128L137.645 267l-6.72 1.7zm-48.852-5s5.17-.729 5.17-.486 6.202 16.026 0 15.783c-6.203-.243-29.721-3.4-28.17-9.227 1.55-5.827 9.303-4.128 9.303-4.128L75.355 262l6.72 1.7z" fill="#2F2E41"/><path d="M106 195h14.27a55.819 55.819 0 000-18H106a34.194 34.194 0 010 18z" fill="#D0CDE1"/><path d="M102 195h14.27a55.819 55.819 0 000-18H102a34.194 34.194 0 010 18z" fill="#6C63FF"/><ellipse fill="#FFB9B9" cx="112" cy="61.5" rx="12" ry="11.5"/><path d="M102.797 60s-2.008 21.412-4.59 22.941C95.626 84.471 118 86 118 86s-5.45-19.576-3.729-21.412C115.992 62.753 102.797 60 102.797 60z" fill="#FFB9B9"/><path d="M127.58 80.763s-8.242-8.073-17.661-6.578c-9.42 1.495-16.19 3.289-16.19 3.289s-14.423 7.774-14.718 14.053c-.294 6.28 5.299 29.901 5.299 29.901S86.959 160 87.253 160c.295 0 49.747-.598 49.747-.598l-9.125-50.233-.294-28.406z" fill="#575A89"/><path d="M126.3 152.829c-1.915.517-5.215-.198-8.66-1.326-6.144-2.017-12.747-5.358-12.747-5.358s-21.27-8.564-27.475-12.995c-6.203-4.43-2.067-22.15-2.067-22.15l9.453 2.953-.59 10.928 23.338 15.062a52.665 52.665 0 0110.804 2.17c3.929 1.292 7.746 3.303 9.125 6.392.215.471.368.969.455 1.48.28 1.63-.381 2.501-1.637 2.844z" fill="#FFB9B9"/><path d="M127 148.458a495.13 495.13 0 01-1.2 4.37c-1.946.521-5.3-.2-8.8-1.34l.727-9.488c3.992 1.304 7.871 3.336 9.273 6.458z" fill="#000" opacity=".15"/><path d="M122.7 106l-1.783 15.771-2.956 38.914s-16.36 19.707-7.147 20.302c9.212.595 14.264-19.342 14.264-19.342s9.212-31.542 8.915-38.089c-.297-6.546 0-17.556 0-17.556H122.7z" fill="#FFB9B9"/><path d="M125.684 60.42a3.06 3.06 0 00.843-.506c.64-.619.532-1.668.254-2.513s-.684-1.718-.485-2.585c.092-.404.313-.773.376-1.182.15-.974-.629-1.862-1.491-2.342-.863-.481-1.855-.718-2.67-1.275-1.25-.854-1.94-2.36-3.209-3.186-1.24-.808-2.817-.833-4.3-.831l-4.423.005c-2.312.003-4.852.088-6.573 1.628-.523.468-.938 1.048-1.468 1.509-1.067.928-2.508 1.298-3.693 2.07A6.382 6.382 0 0096 56.593c.042 1.956.999 3.858.75 5.8-.166 1.302-.872 2.554-.686 3.854.22 1.542 1.638 2.647 3.093 3.214 1.455.567 3.04.77 4.456 1.429 1.155.538 2.363 1.395 3.58 1.018 1.03-.318 1.596-1.403 1.965-2.413.432-1.182.749-2.403.947-3.645.148-.929.247-1.914.794-2.68a3.1 3.1 0 012.768-1.19c2.389.209 3.733 4.265 5.93 3.306 1.09-.476 1.926-1.9 2.799-2.676a14.054 14.054 0 013.288-2.188z" fill="#2F2E41"/><path d="M82.462 90s-5.64 2.124-7.897 10.618c-2.256 8.494-1.41 14.258-1.41 14.258L85 117l-2.538-27zm39.395-8.752s10.286-2.421 11.714 7.869A174.31 174.31 0 01135 110s-9.714-4.842-14 0l.857-28.752z" fill="#575A89"/><path fill="#F2F2F2" d="M149 114h10v1h-10zM24 125h10v1H24zm125-8h10v1h-10zm146-52h10v1h-10zm0 6h10v1h-10zm0-3h10v1h-10z"/></g></svg>