<?xml version="1.0" encoding="UTF-8"?>
<svg width="201px" height="67px" viewBox="0 0 201 67" version="1.1" xmlns="http://www.w3.org/2000/svg" xmlns:xlink="http://www.w3.org/1999/xlink">
    <!-- Generator: Sketch 58 (84663) - https://sketch.com -->
    <title>appstore</title>
    <desc>Created with Sketch.</desc>
    <g id="Landing-Page" stroke="none" stroke-width="1" fill="none" fill-rule="evenodd">
        <g id="Home-Copy" transform="translate(-112.000000, -811.000000)" fill-rule="nonzero">
            <g id="appstore" transform="translate(112.000000, 811.000000)">
                <g id="Group">
                    <g id="Path">
                        <path d="M184.47574,-0.00021775 L15.970589,-0.00021775 C15.3563665,-0.00021775 14.749514,-0.00021775 14.1369162,0.00335 C13.624115,0.0067 13.1154007,0.01643175 12.597675,0.0246225 C11.4729354,0.037858021 10.3508408,0.136807735 9.2411425,0.32061175 C8.13300284,0.508417152 7.05957647,0.862483865 6.0571685,1.37083675 C5.05598651,1.88349012 4.14117791,2.54963061 3.34592975,3.34509225 C2.54650668,4.13831697 1.88012583,5.05517743 1.37241125,6.060418 C0.863295405,7.06365778 0.510272835,8.13872165 0.32553625,9.248479 C0.139043326,10.3568347 0.0386897876,11.4779719 0.02537625,12.601829 C0.00983225,13.115384 0.00819075,13.6306475 0,14.1442695 L0,52.860655 C0.00819075,53.3807425 0.00983225,53.8845825 0.02537625,54.4048375 C0.0386938702,55.5286389 0.139047411,56.6497201 0.32553625,57.75802 C0.509762721,58.8684261 0.862806165,59.9441071 1.37241125,60.9477225 C1.8798953,61.9497123 2.54636986,62.8628609 3.34592975,63.651675 C4.13816258,64.4506735 5.05356249,65.1172672 6.0571685,65.6259975 C7.05956885,66.135711 8.13287949,66.4918851 9.2411425,66.6825875 C10.3510295,66.8649192 11.4730087,66.9639091 12.597675,66.9787275 C13.1154007,66.9901175 13.624115,66.99665 14.1369162,66.99665 C14.7494972,67 15.3564,67 15.970589,67 L184.47574,67 C185.077735,67 185.689445,67 186.29144,66.99665 C186.801812,66.99665 187.32525,66.9901175 187.835622,66.9787275 C188.958162,66.9646972 190.078029,66.865701 191.185622,66.6825875 C192.297461,66.4905427 193.374619,66.1344628 194.381857,65.6259975 C195.384558,65.1169727 196.299113,64.4503972 197.090667,63.651675 C197.888164,62.8597715 198.556062,61.9472909 199.069847,60.9477225 C199.575628,59.943377 199.925311,58.867782 200.10684,57.75802 C200.293627,56.649568 200.397542,55.5287361 200.41772,54.4048375 C200.424252,53.8845825 200.424252,53.3807425 200.424252,52.860655 C200.437317,52.2521275 200.437317,51.64695 200.437317,51.02854 L200.437317,15.9730178 C200.437317,15.359616 200.437317,14.751122 200.424252,14.1442695 C200.424252,13.6306475 200.424252,13.115384 200.41772,12.601762 C200.397546,11.4778076 200.293631,10.3569197 200.10684,9.248412 C199.924805,8.13929668 199.575143,7.06431799 199.069847,6.060351 C198.03591,4.04545343 196.396385,2.40534254 194.381857,1.370686 C193.374616,0.863575362 192.297342,0.509602687 191.185622,0.320461 C190.078221,0.135847162 188.958237,0.0368630062 187.835622,0.024388 C187.32525,0.016214 186.801812,0.0063985 186.29144,0.00313225 C185.689445,-0.00021775 185.077735,-0.00021775 184.47574,-0.00021775 L184.47574,-0.00021775 Z" fill="#A6A6A6"></path>
                        <path d="M14.1450902,65.534375 C13.6347512,65.534375 13.1367402,65.5278425 12.6304045,65.5164525 C11.581489,65.5027857 10.535025,65.4114719 9.499595,65.24326 C8.53410876,65.0769797 7.59881211,64.767668 6.7245555,64.3255275 C5.85831535,63.8870505 5.06823471,63.312107 4.3845805,62.6227225 C3.69103055,61.9414585 3.11361853,61.1513086 2.67522625,60.283585 C2.23200326,59.4102218 1.92526658,58.4740818 1.76570125,57.507775 C1.59338455,56.4694674 1.50015408,55.4195747 1.48681375,54.36715 C1.47619425,54.0138925 1.46229175,52.8377075 1.46229175,52.8377075 L1.46229175,14.1442695 C1.46229175,14.1442695 1.47709875,12.9861577 1.4868975,12.645915 C1.49967076,11.5951574 1.5923591,10.5468939 1.76416025,9.51019775 C1.92402011,8.54124388 2.23099426,7.60240435 2.67445575,6.72618025 C3.11123683,5.85905595 3.68544318,5.06831599 4.37481525,4.384614 C5.06341249,3.69441588 5.85602045,3.1165119 6.72373475,2.67197675 C7.59598207,2.23125678 8.52951112,1.92412701 9.49304575,1.76087725 C10.5318763,1.59097553 11.5819732,1.49911844 12.634525,1.48607675 L14.145911,1.465625 L186.283232,1.465625 L187.812675,1.4868975 C188.855652,1.49929116 189.89621,1.59032876 190.925495,1.75923575 C191.898784,1.92453324 192.842042,2.23380602 193.724252,2.6768845 C195.462598,3.57275163 196.877057,4.99009794 197.769377,6.73026725 C198.20576,7.60044242 198.508,8.53162382 198.665837,9.49220825 C198.839684,10.5374106 198.936981,11.5939117 198.956952,12.653285 C198.96181,13.127645 198.96181,13.63718 198.96181,14.1442695 C198.975042,14.7723945 198.975042,15.3702523 198.975042,15.9730177 L198.975042,51.02854 C198.975042,51.6370675 198.975042,52.230855 198.96181,52.8295 C198.96181,53.37421 198.96181,53.8731925 198.955277,54.3867475 C198.935738,55.4272167 198.840064,56.4648601 198.66902,57.49136 C198.512725,58.4646374 198.207658,59.4080845 197.76452,60.28861 C197.323028,61.1469154 196.748932,61.9302209 196.06339,62.6096575 C195.379121,63.3027468 194.587646,63.881054 193.719395,64.322345 C192.839628,64.7678844 191.897758,65.07834 190.925495,65.24326 C189.890143,65.4123696 188.843579,65.5036893 187.794585,65.5164525 C187.303977,65.5278425 186.790255,65.534375 186.29144,65.534375 L184.47574,65.537725 L14.1450902,65.534375 Z" fill="#000000"></path>
                    </g>
                    <g id="_Group_" transform="translate(16.105769, 14.430769)" fill="#FFFFFF">
                        <g id="_Group_2">
                            <g id="_Group_3">
                                <path d="M25.3821048,19.5728698 C25.4187152,16.731281 26.9084367,14.1065175 29.3293428,12.6181693 C27.7951644,10.4270897 25.3176374,9.08770201 22.6441498,9.00405527 C19.8314228,8.70881977 17.1046065,10.6871455 15.6712923,10.6871455 C14.21024,10.6871455 12.0034275,9.03336777 9.62705477,9.08226102 C6.50036788,9.18327762 3.65611054,10.9178859 2.13491377,13.6514433 C-1.10453623,19.2600468 1.31180202,27.5028055 4.41492377,32.0363773 C5.96748127,34.2563385 7.78197527,36.7360923 10.156204,36.6481548 C12.4795295,36.551792 13.3472465,35.1666508 16.151699,35.1666508 C18.930122,35.1666508 19.7442223,36.6481548 22.166624,36.5922433 C24.6596605,36.5517753 26.2303918,34.3624163 27.7284783,32.1214338 C28.8439883,30.5396303 29.7023714,28.791393 30.2718318,26.9414795 C27.3108615,25.6891344 25.3855607,22.7877883 25.3821048,19.5728698 L25.3821048,19.5728698 Z" id="_Path_"></path>
                                <path d="M20.8066245,6.02247152 C22.1659316,4.39067296 22.8356106,2.29327238 22.6734455,0.175683019 C20.5967266,0.393802336 18.6784201,1.38633898 17.300749,2.95552977 C15.9403621,4.50374739 15.2511933,6.52923051 15.3850348,8.58585802 C17.4896,8.6075271 19.4878402,7.66273741 20.8066245,6.02247152 L20.8066245,6.02247152 Z" id="_Path_2"></path>
                            </g>
                        </g>
                        <g id="Group" transform="translate(40.844231, 15.075000)">
                            <path d="M13.9063022,15.9531445 L5.97785725,15.9531445 L4.07385125,21.5751983 L0.71567725,21.5751983 L8.22537225,0.775048269 L11.7143972,0.775048269 L19.2240922,21.5751983 L15.80865,21.5751983 L13.9063022,15.9531445 Z M6.7989925,13.3588543 L13.0835925,13.3588543 L9.98549575,4.23467702 L9.89879775,4.23467702 L6.7989925,13.3588543 Z" id="Shape"></path>
                            <path d="M35.4424808,13.9935285 C35.4424808,18.7061075 32.9201653,21.7338543 29.1137948,21.7338543 C27.1463151,21.836774 25.2930568,20.8062572 24.3423395,19.0806543 L24.2703145,19.0806543 L24.2703145,26.5919908 L21.1574945,26.5919908 L21.1574945,6.41021727 L24.170585,6.41021727 L24.170585,8.93253277 L24.2278365,8.93253277 C25.2207904,7.21774803 27.0760471,6.18767482 29.0565433,6.25154452 C32.905375,6.25156127 35.4424808,9.29403127 35.4424808,13.9935285 Z M32.2429628,13.9935285 C32.2429628,10.9232535 30.6562855,8.90472777 28.2353913,8.90472777 C25.8570253,8.90472777 24.2572663,10.965765 24.2572663,13.9935285 C24.2572663,17.049097 25.8570253,19.095411 28.2353913,19.095411 C30.6563023,19.095411 32.2429628,17.0916253 32.2429628,13.9935285 Z" id="Shape"></path>
                            <path d="M52.1335878,13.9935285 C52.1335878,18.7061075 49.6112723,21.7338543 45.8049018,21.7338543 C43.8374221,21.836774 41.9841638,20.8062572 41.0334465,19.0806543 L40.9614215,19.0806543 L40.9614215,26.5919908 L37.8486015,26.5919908 L37.8486015,6.41021727 L40.861625,6.41021727 L40.861625,8.93253277 L40.9188765,8.93253277 C41.9118376,7.21774907 43.7671015,6.18768192 45.7476,6.25156127 C49.596549,6.25156127 52.1335878,9.29403127 52.1335878,13.9935285 Z M48.9340865,13.9935285 C48.9340865,10.9232535 47.3473925,8.90472777 44.9264983,8.90472777 C42.5481323,8.90472777 40.9483733,10.965765 40.9483733,13.9935285 C40.9483733,17.049097 42.5481323,19.095411 44.9264983,19.095411 C47.3474093,19.095411 48.9340865,17.0916253 48.9340865,13.9935285 L48.9340865,13.9935285 Z" id="Shape"></path>
                            <path d="M63.1650373,15.7797485 C63.3956848,17.8424273 65.3994873,19.1967485 68.1376935,19.1967485 C70.7614303,19.1967485 72.6490715,17.8423603 72.6490715,15.9825073 C72.6490715,14.368025 71.5105908,13.4013323 68.814896,12.7388363 L66.1192013,12.0894388 C62.299749,11.1668823 60.526594,9.38064552 60.526594,6.48210827 C60.526594,2.89328677 63.6541373,0.428222769 68.0951653,0.428222769 C72.4903653,0.428222769 75.503439,2.89328677 75.6048603,6.48210827 L72.4625603,6.48210827 C72.2744578,4.40634777 70.5585543,3.15338077 68.050962,3.15338077 C65.5433698,3.15338077 63.827483,4.42108777 63.827483,6.26620077 C63.827483,7.73673352 64.9234355,8.60203852 67.604407,9.26445077 L69.896075,9.82715027 C74.1637238,10.8364048 75.9368788,12.5507003 75.9368788,15.5931368 C75.9368788,19.4845638 72.8371405,21.9218228 67.9070125,21.9218228 C63.2942133,21.9218228 60.1797685,19.5418153 59.9785675,15.7795978 L63.1650373,15.7797485 Z" id="Path"></path>
                            <path d="M82.6549017,2.82139577 L82.6549017,6.41021727 L85.5387158,6.41021727 L85.5387158,8.87528127 L82.6549017,8.87528127 L82.6549017,17.235558 C82.6549017,18.5343363 83.2323245,19.139564 84.5000148,19.139564 C84.8423704,19.1335942 85.1841721,19.1095524 85.5239925,19.067539 L85.5239925,21.5178798 C84.9540374,21.6243755 84.3747261,21.672607 83.7950073,21.6618293 C80.7247322,21.6618293 79.5273585,20.5086253 79.5273585,17.5675598 L79.5273585,8.87528127 L77.3223885,8.87528127 L77.3223885,6.41021727 L79.527325,6.41021727 L79.527325,2.82139577 L82.6549017,2.82139577 Z" id="Path"></path>
                            <path d="M87.208875,13.9935285 C87.208875,9.22207327 90.0190728,6.22375627 94.4012413,6.22375627 C98.7981163,6.22375627 101.595232,9.22200627 101.595232,13.9935285 C101.595232,18.7780823 98.8128395,21.7633008 94.4012413,21.7633008 C89.9912008,21.7633008 87.208875,18.7780655 87.208875,13.9935285 Z M98.4235193,13.9935285 C98.4235193,10.720411 96.92354,8.78860002 94.4012245,8.78860002 C91.878909,8.78860002 90.3805713,10.7351343 90.3805713,13.9935285 C90.3805713,17.2797278 91.878909,19.1968323 94.4012245,19.1968323 C96.92354,19.1968323 98.4235193,17.2797278 98.4235193,13.9935285 L98.4235193,13.9935285 Z" id="Shape"></path>
                            <path d="M104.161634,6.41021727 L107.130521,6.41021727 L107.130521,8.99139227 L107.202546,8.99139227 C107.616566,7.32977285 109.139068,6.18618863 110.850244,6.25152777 C111.208969,6.25027526 111.566704,6.28923327 111.91675,6.36767227 L111.91675,9.27929127 C111.463882,9.14090833 110.991462,9.07737218 110.518125,9.09118877 C109.602986,9.05406313 108.717334,9.41877644 108.093715,10.0895658 C107.470097,10.7603551 107.170816,11.6702043 107.274454,12.5802138 L107.274454,21.5751648 L104.161634,21.5751648 L104.161634,6.41021727 Z" id="Path"></path>
                            <path d="M126.268702,17.121055 C125.849952,19.8740013 123.168964,21.763284 119.738815,21.763284 C115.327217,21.763284 112.588994,18.8074953 112.588994,14.0654865 C112.588994,9.30875452 115.34194,6.22373952 119.607964,6.22373952 C123.803638,6.22373952 126.442098,9.10591202 126.442098,13.703988 L126.442098,14.770494 L115.731261,14.770494 L115.731261,14.9585965 C115.631259,16.0875995 116.021105,17.2051558 116.801636,18.0269954 C117.582166,18.848835 118.678151,19.2957465 119.810807,19.2540503 C121.321393,19.3955871 122.74558,18.5281684 123.31293,17.1210383 L126.268702,17.121055 Z M115.745955,12.5949705 L123.327637,12.5949705 C123.384127,11.5804691 123.014842,10.5884094 122.308751,9.85778861 C121.602661,9.12716779 120.623786,8.72423046 119.607964,8.74605502 C118.584107,8.739945 117.600227,9.14307127 116.87501,9.86583145 C116.149794,10.5885916 115.743331,11.5710982 115.745955,12.5949705 L115.745955,12.5949705 Z" id="Shape"></path>
                        </g>
                    </g>
                </g>
                <g id="_Group_4" transform="translate(60.000000, 14.000000)" fill="#FFFFFF">
                    <g id="Group">
                        <path d="M3.69829792,1.14871429 C5.01726496,1.05974657 6.30916401,1.53143167 7.21840851,2.43394143 C8.12765301,3.33645118 8.55840359,4.5746561 8.39209904,5.80774857 C8.39209904,8.80328429 6.66968558,10.5251771 3.69829792,10.5251771 L0.0951006422,10.5251771 L0.0951006422,1.14871429 L3.69829792,1.14871429 Z M1.64444856,9.19914286 L3.52523237,9.19914286 C4.46783432,9.25210315 5.38564776,8.9030213 6.02383029,8.24882424 C6.66201283,7.59462719 6.95262169,6.70496265 6.81496568,5.82685714 C6.94260656,4.9523957 6.64781262,4.07007262 6.01121243,3.42121054 C5.37461223,2.77234846 4.46282512,2.4248499 3.52523237,2.47375857 L1.64444856,2.47375857 L1.64444856,9.19914286 Z" id="Shape"></path>
                        <path d="M10.1422645,6.98396286 C10.0131794,5.71563937 10.6601967,4.4881759 11.8119591,3.81636729 C12.9637214,3.14455869 14.4210925,3.14455869 15.5728549,3.81636729 C16.7246172,4.4881759 17.3716345,5.71563937 17.2425494,6.98396286 C17.3740905,8.25364927 16.7276638,9.48349346 15.5748802,10.1567483 C14.4220966,10.8300032 12.9627173,10.8300032 11.8099337,10.1567483 C10.6571501,9.48349346 10.0107234,8.25364927 10.1422645,6.98396286 Z M15.7144168,6.98396286 C15.7144168,5.45013857 14.9813457,4.55316714 13.6948562,4.55316714 C12.4034515,4.55316714 11.6769841,5.45013857 11.6769841,6.98397857 C11.6769841,8.53009143 12.4035016,9.42014857 13.6948562,9.42014857 C14.9813792,9.42014857 15.7144168,8.52393143 15.7144168,6.98396286 L15.7144168,6.98396286 Z" id="Shape"></path>
                        <polygon id="Path" points="26.6807573 10.5250357 25.1395678 10.5250357 23.5836831 5.31353429 23.4661383 5.31353429 21.9167737 10.5250357 20.3902627 10.5250357 18.3151981 3.44900286 19.8221155 3.44900286 21.1706626 8.84843143 21.2816873 8.84843143 22.8294136 3.44900286 24.2546966 3.44900286 25.8024229 8.84843143 25.9199677 8.84843143 27.261978 3.44900286 28.7476635 3.44900286"></polygon>
                        <path d="M30.4929306,3.44900286 L31.923112,3.44900286 L31.923112,4.57309286 L32.0341368,4.57309286 C32.4202155,3.74546533 33.3223698,3.23919746 34.2806286,3.31241429 C35.0226049,3.2599785 35.7496893,3.52752699 36.2565897,4.03951754 C36.76349,4.55150809 36.9951982,5.25238019 36.8862915,5.94424286 L36.8862915,10.5249571 L35.4006061,10.5249571 L35.4006061,6.29492286 C35.4006061,5.15779 34.8749061,4.59228 33.7761438,4.59228 C33.2728725,4.57024719 32.7844611,4.75590118 32.438956,5.10056923 C32.0934509,5.44523728 31.9253105,5.91454445 31.978616,6.38545286 L31.978616,10.5250357 L30.4929306,10.5250357 L30.4929306,3.44900286 Z" id="Path"></path>
                        <polygon id="Path" points="39.2536049 0.686714286 40.7392903 0.686714286 40.7392903 10.52502 39.2536049 10.52502"></polygon>
                        <path d="M42.8045581,6.98396286 C42.6755722,5.71555639 43.3226915,4.48806186 44.4745394,3.81624289 C45.6263872,3.14442392 47.0838332,3.14442392 48.235681,3.81624289 C49.3875289,4.48806186 50.0346482,5.71555639 49.9056623,6.98396286 C50.0370363,8.25369473 49.3904911,9.48350416 48.2376503,10.1567294 C47.0848095,10.8299546 45.6254109,10.8299546 44.4725701,10.1567294 C43.3197293,9.48350416 42.6731841,8.25369473 42.8045581,6.98396286 L42.8045581,6.98396286 Z M48.3767104,6.98396286 C48.3767104,5.45013857 47.6436394,4.55316714 46.3571498,4.55316714 C45.0657451,4.55316714 44.3392777,5.45013857 44.3392777,6.98397857 C44.3392777,8.53009143 45.0657953,9.42014857 46.3571498,9.42014857 C47.6436561,9.42014857 48.3767104,8.52393143 48.3767104,6.98396286 L48.3767104,6.98396286 Z" id="Shape"></path>
                        <path d="M51.4697221,8.52393143 C51.4697221,7.25021 52.4786915,6.51591286 54.2696658,6.41155429 L56.30882,6.30106714 L56.30882,5.6903 C56.30882,4.94294429 55.78312,4.52093714 54.7676305,4.52093714 C53.9382634,4.52093714 53.3635794,4.80714143 53.1986723,5.30742143 L51.7603324,5.30742143 C51.912166,4.09201571 53.1284731,3.31244571 54.8361914,3.31244571 C56.7235119,3.31244571 57.7879854,4.19558857 57.7879854,5.6903 L57.7879854,10.5250514 L56.357804,10.5250514 L56.357804,9.53063571 L56.2402592,9.53063571 C55.7545131,10.2568342 54.8906984,10.6812565 53.9790722,10.6416357 C53.3400005,10.7041186 52.7026321,10.5095739 52.2245363,10.1060967 C51.7464405,9.7026195 51.47224,9.12786806 51.4697221,8.52393143 L51.4697221,8.52393143 Z M56.30882,7.91929286 L56.30882,7.32771286 L54.4704834,7.4382 C53.4337619,7.50341429 52.963566,7.83489143 52.963566,8.45870143 C52.963566,9.09555429 53.5513067,9.46616 54.3595255,9.46616 C54.8379736,9.51168407 55.3155929,9.37274651 55.6830463,9.08115307 C56.0504996,8.78955963 56.2763228,8.3702788 56.30882,7.91929286 Z" id="Shape"></path>
                        <path d="M59.7405901,6.98396286 C59.7405901,4.74805571 60.963434,3.33161714 62.865433,3.33161714 C63.8258478,3.29002164 64.7253653,3.77374308 65.1739656,4.57304571 L65.2849904,4.57304571 L65.2849904,0.686714286 L66.7706758,0.686714286 L66.7706758,10.52502 L65.3470311,10.52502 L65.3470311,9.40705857 L65.2294863,9.40705857 C64.7469761,10.1997295 63.8363764,10.6752745 62.8654497,10.6416357 C60.9503771,10.6417143 59.7405901,9.22524429 59.7405901,6.98396286 Z M61.2753097,6.98396286 C61.2753097,8.48480286 62.0279576,9.38791857 63.2867119,9.38791857 C64.5388959,9.38791857 65.3127925,8.47177571 65.3127925,6.99010714 C65.3127925,5.51535286 64.530771,4.58615143 63.2867119,4.58615143 C62.0360659,4.58615143 61.2752596,5.49539571 61.2752596,6.98396286 L61.2753097,6.98396286 Z" id="Shape"></path>
                        <path d="M72.917512,6.98396286 C72.7884269,5.71563937 73.4354442,4.4881759 74.5872066,3.81636729 C75.7389689,3.14455869 77.19634,3.14455869 78.3481024,3.81636729 C79.4998647,4.4881759 80.146882,5.71563937 80.0177969,6.98396286 C80.149338,8.25364927 79.5029113,9.48349346 78.3501277,10.1567483 C77.1973441,10.8300032 75.7379648,10.8300032 74.5851812,10.1567483 C73.4323976,9.48349346 72.7859709,8.25364927 72.917512,6.98396286 L72.917512,6.98396286 Z M78.4896475,6.98396286 C78.4896475,5.45013857 77.7565932,4.55316714 76.4701037,4.55316714 C75.178699,4.55316714 74.4522316,5.45013857 74.4522316,6.98397857 C74.4522316,8.53009143 75.1787491,9.42014857 76.4701037,9.42014857 C77.75661,9.42014857 78.4896475,8.52393143 78.4896475,6.98396286 Z" id="Shape"></path>
                        <path d="M82.0112272,3.44900286 L83.4414086,3.44900286 L83.4414086,4.57309286 L83.5524334,4.57309286 C83.9385121,3.74546533 84.8406664,3.23919746 85.7989251,3.31241429 C86.5409015,3.2599785 87.2679859,3.52752699 87.7748863,4.03951754 C88.2817866,4.55150809 88.5134948,5.25238019 88.4045881,5.94424286 L88.4045881,10.5249571 L86.9189027,10.5249571 L86.9189027,6.29492286 C86.9189027,5.15779 86.3932027,4.59228 85.2944404,4.59228 C84.7911691,4.57024719 84.3027577,4.75590118 83.9572526,5.10056923 C83.6117475,5.44523728 83.4436071,5.91454445 83.4969126,6.38545286 L83.4969126,10.5250357 L82.0112272,10.5250357 L82.0112272,3.44900286 Z" id="Path"></path>
                        <path d="M96.7995545,1.68729 L96.7995545,3.48123286 L98.4305535,3.48123286 L98.4305535,4.65751 L96.7995545,4.65751 L96.7995545,8.29604286 C96.7995545,9.03725429 97.1244536,9.36181714 97.864028,9.36181714 C98.0533695,9.36124756 98.242521,9.35048661 98.4305535,9.32958714 L98.4305535,10.4928057 C98.1637488,10.5376711 97.8934278,10.5615401 97.6224016,10.5641643 C95.9701873,10.5641643 95.3122306,10.0178414 95.3122306,8.65359 L95.3122306,4.65744714 L94.1171555,4.65744714 L94.1171555,3.48117 L95.3122306,3.48117 L95.3122306,1.68729 L96.7995545,1.68729 Z" id="Path"></path>
                        <path d="M100.459894,0.686714286 L101.932523,0.686714286 L101.932523,4.58613571 L102.050068,4.58613571 C102.454692,3.75126488 103.372635,3.24435185 104.34546,3.31855857 C105.083223,3.2808243 105.800465,3.55426298 106.301825,4.06439606 C106.803185,4.57452913 107.036443,5.26822314 106.938066,5.95653143 L106.938066,10.5250357 L105.450893,10.5250357 L105.450893,6.30103571 C105.450893,5.17080143 104.890837,4.59839286 103.841125,4.59839286 C103.324251,4.55854719 102.815018,4.73517151 102.449567,5.08104693 C102.084115,5.42692236 101.899708,5.90678049 101.945646,6.39233571 L101.945646,10.5250357 L100.459961,10.5250357 L100.459894,0.686714286 Z" id="Path"></path>
                        <path d="M115.600856,8.61446143 C115.184253,9.94920061 113.810097,10.8115905 112.338875,10.6616086 C111.335061,10.686516 110.37034,10.2954197 109.700675,9.59208668 C109.031011,8.8887537 108.724102,7.9442879 108.861381,7.00927857 C108.727749,6.07167075 109.033507,5.12569158 109.699442,4.41641664 C110.365378,3.70714171 111.325963,3.30436347 112.332338,3.31243 C114.426996,3.31243 115.690649,4.65757286 115.690649,6.87957286 L115.690649,7.36685714 L110.374818,7.36685714 L110.374818,7.44511429 C110.327777,7.97019165 110.518561,8.48956075 110.900252,8.87549253 C111.281942,9.26142431 111.819123,9.47810902 112.379683,9.47225714 C113.106538,9.55427736 113.814082,9.2153805 114.170674,8.61441429 L115.600856,8.61446143 Z M110.374785,6.33405143 L114.177161,6.33405143 C114.215032,5.85382354 114.035389,5.38089368 113.682501,5.03180715 C113.329614,4.68272061 112.8363,4.48994264 112.324129,4.50098 C111.80502,4.49484972 111.305276,4.68603337 110.938261,5.03116253 C110.571247,5.37629169 110.368069,5.84611301 110.374818,6.33405143 L110.374785,6.33405143 Z" id="Shape"></path>
                    </g>
                </g>
            </g>
        </g>
    </g>
</svg>