<?xml version="1.0" encoding="UTF-8"?>
<svg width="270px" height="239px" viewBox="0 0 270 239" version="1.1" xmlns="http://www.w3.org/2000/svg" xmlns:xlink="http://www.w3.org/1999/xlink">
    <!-- Generator: Sketch 58 (84663) - https://sketch.com -->
    <title>cta-ill-2</title>
    <desc>Created with Sketch.</desc>
    <g id="Landing-Page" stroke="none" stroke-width="1" fill="none" fill-rule="evenodd">
        <g id="Home" transform="translate(-428.000000, -4665.000000)">
            <g id="cta-ill-2" transform="translate(428.000000, 4665.000000)">
                <g id="undraw_mobile_testing_reah">
                    <path d="M120.852,92.4571062 C110.308865,89.0457387 99.1615135,86.1859096 87.768973,86.4806471 C71.0202162,86.9154579 54.9165405,94.7187057 46.9741622,106.251404 C40.2606486,116.024432 39.3645405,127.51044 36.4339459,138.37779 C32.8232432,151.766459 25.9696216,164.472271 18.6548108,176.897937 C14.7259459,183.571844 10.5810811,190.385824 9.89805405,197.719243 C8.96108108,207.900818 15.1316757,218.079475 24.8604324,224.90221 C34.5891892,231.724945 47.5345946,235.361013 60.5412973,236.210208 C67.4620541,236.659609 74.6951351,236.312344 80.856973,233.820208 C87.3749189,231.193834 92.1415135,226.38757 98.6857297,223.790379 C104.751243,221.385788 111.820865,221.076459 118.624865,221.42956 C127.436458,221.875187 136.163415,223.370137 144.620757,225.882723 C154.104324,228.719206 162.916541,232.801758 172.379676,235.679096 C181.842811,238.556435 192.420973,240.184786 202.117622,237.870659 C211.22173,235.699524 218.443135,230.347558 224.955243,224.925556 C235.449444,216.210266 245.207336,206.645128 254.129838,196.327265 C260.011459,189.501612 265.49027,182.293675 268.117297,174.318254 C273.134919,159.067778 266.412649,141.80083 251.371459,131.298254 C238.910595,122.593284 222.147243,118.750024 205.731243,116.41547 C190.760108,114.264762 173.439243,114.051734 159.679459,108.574286 C146.556,103.336129 134.617622,96.9102686 120.852,92.4571062 Z" id="Path" fill="#6C63FF" fill-rule="nonzero" opacity="0.1"></path>
                    <ellipse id="Oval" fill="#6C63FF" fill-rule="nonzero" opacity="0.1" cx="255.244865" cy="143.502137" rx="6.74562162" ry="1"></ellipse>
                    <ellipse id="Oval" fill="#6C63FF" fill-rule="nonzero" opacity="0.1" cx="229.403676" cy="146.122674" rx="6.74562162" ry="1"></ellipse>
                    <ellipse id="Oval" fill="#6C63FF" fill-rule="nonzero" opacity="0.1" cx="198.965189" cy="142.57707" rx="6.74562162" ry="1"></ellipse>
                    <ellipse id="Oval" fill="#6C63FF" fill-rule="nonzero" opacity="0.1" cx="239.745405" cy="153.581575" rx="4.79578378" ry="1"></ellipse>
                    <ellipse id="Oval" fill="#6C63FF" fill-rule="nonzero" opacity="0.1" cx="212.926378" cy="152.922063" rx="4.79578378" ry="1"></ellipse>
                    <path d="M229.25773,145.912564 C229.25773,145.912564 238.720865,114.903846 227.777838,102.484017 C219.604865,93.1924908 210.299351,94.3130769 206.139892,95.4540904 C203.960683,96.0338632 202.146305,97.5415566 201.17773,99.5774969 C199.71827,102.714554 199.986811,107.806801 210.255568,113.75116 C227.450919,123.705116 228.522162,137.359341 228.522162,137.359341 L229.25773,145.912564 Z" id="Path" fill="#6C63FF" fill-rule="nonzero"></path>
                    <path d="M207.619784,99.8518071 C207.619784,99.8518071 235.512973,108.571368 229.25773,145.912564" id="Path" stroke="#565987"></path>
                    <path d="M223.907351,102.977192 C223.907351,102.977192 220.066054,105.565629 221.280324,109.452662" id="Path" stroke="#565987"></path>
                    <path d="M210.419027,105.279646 C210.419027,105.279646 212.754162,102.892564 215.623459,104.208669" id="Path" stroke="#565987"></path>
                    <path d="M221.443784,117.28801 C221.443784,117.28801 225.565297,115.198584 226.630703,117.816203" id="Path" stroke="#565987"></path>
                    <path d="M231.645405,121.64779 C231.645405,121.64779 228.548432,121.402662 228.492973,122.882186" id="Path" stroke="#565987"></path>
                    <path d="M229.640108,146.160611 C229.640108,146.160611 218.548216,123.623407 215.515459,124.116581 C214.056,124.350037 213.402162,125.774115 213.101514,127.201111 C212.72794,129.048192 212.939127,130.965742 213.70573,132.687314 C215.279027,136.2942 219.502703,143.143199 229.640108,146.160611 Z" id="Path" fill="#6C63FF" fill-rule="nonzero"></path>
                    <path d="M215.597189,128.394652 C215.597189,128.394652 227.229081,145.255971 229.476649,145.997192" id="Path" stroke="#565987"></path>
                    <path d="M214.528865,131.026862 L217.243459,131.026862" id="Path" stroke="#565987"></path>
                    <path d="M217.780541,137.195922 L222.036324,137.37685" id="Path" stroke="#565987"></path>
                    <path d="M220.369622,132.261258 L219.908432,134.476166" id="Path" stroke="#565987"></path>
                    <path d="M224.893946,139.005201 L224.812216,141.018755" id="Path" stroke="#565987"></path>
                    <path d="M229.313189,146.160611 C229.313189,146.160611 240.405081,123.623407 243.437838,124.116581 C244.897297,124.350037 245.551135,125.774115 245.851784,127.201111 C246.225358,129.048192 246.014171,130.965742 245.247568,132.687314 C243.67427,136.2942 239.450595,143.143199 229.313189,146.160611 Z" id="Path" fill="#6C63FF" fill-rule="nonzero"></path>
                    <path d="M243.356108,128.394652 C243.356108,128.394652 231.724216,145.255971 229.476649,145.997192" id="Path" stroke="#565987"></path>
                    <path d="M244.424432,131.026862 L241.709838,131.026862" id="Path" stroke="#565987"></path>
                    <path d="M241.172757,137.195922 L236.916973,137.37685" id="Path" stroke="#565987"></path>
                    <path d="M238.583676,132.261258 L239.044865,134.476166" id="Path" stroke="#565987"></path>
                    <path d="M234.056432,139.005201 L234.141081,141.018755" id="Path" stroke="#565987"></path>
                    <path d="M210.284757,151.425031 C209.983837,151.178386 209.764145,150.846895 209.65427,150.4737 C209.553884,150.086423 209.737488,149.681622 210.095027,149.501941 C210.500757,149.347277 210.932757,149.627424 211.262595,149.913407 C211.592432,150.199389 211.966054,150.517473 212.395135,150.459109 C211.946944,150.051739 211.745301,149.439207 211.863892,148.845348 C211.881828,148.72426 211.932266,148.610299 212.009838,148.515592 C212.234595,148.2763 212.643243,148.381355 212.911784,148.56812 C213.767027,149.172186 214.006378,150.333626 214.012216,151.378339 C214.05396,150.990366 214.05396,150.599036 214.012216,150.211062 C213.978344,149.818659 214.141253,149.43499 214.447135,149.186777 C214.649842,149.075727 214.878719,149.021294 215.10973,149.029194 C215.495957,148.974271 215.887368,149.08562 216.186811,149.335604 C216.510811,149.685788 216.426162,150.272344 216.143027,150.657546 C215.824569,151.010202 215.448521,151.306229 215.030919,151.533004 C214.711103,151.722121 214.438585,151.981597 214.234054,152.291734 C214.211101,152.334878 214.191581,152.379763 214.175676,152.425971 L211.764649,152.425971 C211.228555,152.160406 210.730765,151.823721 210.284757,151.425031 L210.284757,151.425031 Z" id="Path" fill="#6C63FF" fill-rule="nonzero"></path>
                    <path d="M252.512757,142.346532 C252.2106,142.101006 251.990632,141.769099 251.88227,141.395201 C251.782248,141.008747 251.965941,140.604966 252.323027,140.426361 C252.728757,140.271697 253.160757,140.551844 253.490595,140.834908 C253.820432,141.117973 254.196973,141.441893 254.626054,141.380611 C254.175787,140.974516 253.972812,140.361307 254.091892,139.76685 C254.10956,139.64601 254.161183,139.532669 254.240757,139.440012 C254.465514,139.20072 254.871243,139.302857 255.139784,139.49254 C255.995027,140.093687 256.234378,141.243455 256.240216,142.302759 C256.283233,141.914855 256.283233,141.523386 256.240216,141.135482 C256.206344,140.743079 256.369253,140.35941 256.675135,140.111197 C256.878819,140.002994 257.107178,139.94969 257.33773,139.956532 C257.721939,139.896076 258.113708,140.00222 258.414811,140.248352 C258.74173,140.595617 258.657081,141.182173 258.371027,141.567375 C258.054642,141.926958 257.678385,142.229073 257.258919,142.460342 C256.939103,142.64946 256.666585,142.908935 256.462054,143.219072 C256.438052,143.261703 256.41849,143.306684 256.403676,143.353309 L253.992649,143.353309 C253.4567,143.085112 252.958999,142.746524 252.512757,142.346532 L252.512757,142.346532 Z" id="Path" fill="#6C63FF" fill-rule="nonzero"></path>
                    <path d="M238.43773,151.425031 C238.13681,151.178386 237.917118,150.846895 237.807243,150.4737 C237.706857,150.086423 237.890461,149.681622 238.248,149.501941 C238.65373,149.347277 239.08573,149.627424 239.415568,149.913407 C239.745405,150.199389 240.119027,150.517473 240.548108,150.459109 C240.099354,150.052029 239.896668,149.439694 240.013946,148.845348 C240.034215,148.72441 240.085506,148.610794 240.162811,148.515592 C240.387568,148.2763 240.796216,148.381355 241.064757,148.56812 C241.92,149.172186 242.159351,150.333626 242.165189,151.378339 C242.211788,150.990888 242.21668,150.599557 242.179784,150.211062 C242.145912,149.818659 242.30882,149.43499 242.614703,149.186777 C242.81741,149.075727 243.046287,149.021294 243.277297,149.029194 C243.663524,148.974271 244.054935,149.08562 244.354378,149.335604 C244.678378,149.685788 244.59373,150.272344 244.310595,150.657546 C243.992137,151.010202 243.616088,151.306229 243.198486,151.533004 C242.87867,151.722121 242.606153,151.981597 242.401622,152.291734 C242.378668,152.334878 242.359148,152.379763 242.343243,152.425971 L239.932216,152.425971 C239.391003,152.161543 238.888241,151.824816 238.43773,151.425031 L238.43773,151.425031 Z" id="Path" fill="#6C63FF" fill-rule="nonzero"></path>
                    <path d="M198.527351,133.075433 C198.527351,133.075433 197.622486,134.257302 198.944757,136.040317 C200.267027,137.823333 201.352865,139.332039 200.915027,140.443871 C200.915027,140.443871 198.921405,137.131722 197.298486,137.085031 C195.675568,137.038339 196.740973,135.068559 198.527351,133.075433 Z" id="Path" fill="#6C63FF" fill-rule="nonzero"></path>
                    <path d="M198.527351,133.075433 C198.447349,133.189209 198.384414,133.314066 198.340541,133.446044 C196.758486,135.304933 195.914919,137.041258 197.435676,137.085031 C198.85427,137.125885 200.556,139.658877 200.96173,140.295043 C200.96173,140.344652 200.932541,140.394261 200.915027,140.440952 C200.915027,140.440952 198.921405,137.128803 197.298486,137.082112 C195.675568,137.035421 196.740973,135.068559 198.527351,133.075433 Z" id="Path" fill="#000000" fill-rule="nonzero" opacity="0.1"></path>
                    <path d="M196.846054,134.581221 C196.846054,134.998523 196.892757,135.334115 196.951135,135.334115 C197.009514,135.334115 197.053297,134.998523 197.053297,134.581221 C197.053297,134.163919 196.994919,134.362357 196.939459,134.362357 C196.884,134.362357 196.846054,134.166838 196.846054,134.581221 Z" id="Path" fill="#FFD037" fill-rule="nonzero"></path>
                    <path d="M196.268108,135.077314 C196.632973,135.278669 196.954054,135.398315 196.980324,135.348706 C197.006595,135.299096 196.735135,135.094823 196.37027,134.896386 C196.005405,134.697949 196.148432,134.84094 196.119243,134.896386 C196.090054,134.951832 195.903243,134.878877 196.268108,135.077314 Z" id="Path" fill="#FFD037" fill-rule="nonzero"></path>
                    <path d="M203.299784,133.075433 C203.299784,133.075433 204.204649,134.257302 202.882378,136.040317 C201.560108,137.823333 200.47427,139.332039 200.915027,140.443871 C200.915027,140.443871 202.90573,137.131722 204.528649,137.085031 C206.151568,137.038339 205.086162,135.068559 203.299784,133.075433 Z" id="Path" fill="#6C63FF" fill-rule="nonzero"></path>
                    <path d="M203.299784,133.075433 C203.379786,133.189209 203.442721,133.314066 203.486595,133.446044 C205.068649,135.304933 205.912216,137.041258 204.391459,137.085031 C202.972865,137.125885 201.271135,139.658877 200.865405,140.295043 C200.878868,140.344672 200.895441,140.393405 200.915027,140.440952 C200.915027,140.440952 202.90573,137.128803 204.528649,137.082112 C206.151568,137.035421 205.086162,135.068559 203.299784,133.075433 Z" id="Path" fill="#000000" fill-rule="nonzero" opacity="0.1"></path>
                    <path d="M204.981081,134.581221 C204.981081,134.998523 204.934378,135.334115 204.876,135.334115 C204.817622,135.334115 204.773838,134.998523 204.773838,134.581221 C204.773838,134.163919 204.832216,134.362357 204.887676,134.362357 C204.943135,134.362357 204.981081,134.166838 204.981081,134.581221 Z" id="Path" fill="#FFD037" fill-rule="nonzero"></path>
                    <path d="M205.559027,135.077314 C205.194162,135.278669 204.873081,135.398315 204.846811,135.348706 C204.820541,135.299096 205.092,135.094823 205.456865,134.896386 C205.82173,134.697949 205.678703,134.84094 205.707892,134.896386 C205.737081,134.951832 205.923892,134.878877 205.559027,135.077314 Z" id="Path" fill="#FFD037" fill-rule="nonzero"></path>
                    <path d="M204.692108,140.289206 C204.692108,140.289206 202.167243,140.213333 201.405405,139.670549 C200.643568,139.127766 197.517405,138.479927 197.318919,139.349548 C197.120432,140.21917 193.524324,143.67431 196.373189,143.697656 C199.222054,143.721001 203.004973,143.25409 203.763892,142.790098 C204.522811,142.326105 204.692108,140.289206 204.692108,140.289206 Z" id="Path" fill="#A8A8A8" fill-rule="nonzero"></path>
                    <path d="M196.332324,143.394164 C199.184108,143.417509 202.961189,142.950598 203.723027,142.486606 C204.306811,142.136422 204.531568,140.869927 204.598703,140.286288 L204.680432,140.286288 C204.680432,140.286288 204.522811,142.329023 203.760973,142.787179 C202.999135,143.245336 199.224973,143.718083 196.37027,143.694737 C195.547135,143.694737 195.264,143.402918 195.278595,142.962271 C195.404108,143.227827 195.719351,143.391245 196.332324,143.394164 Z" id="Path" fill="#000000" fill-rule="nonzero" opacity="0.2"></path>
                    <ellipse id="Oval" fill="#6C63FF" fill-rule="nonzero" opacity="0.1" cx="37.6511351" cy="17.6609035" rx="6.31362162" ry="6.31205128"></ellipse>
                    <ellipse id="Oval" fill="#6C63FF" fill-rule="nonzero" opacity="0.1" cx="146.850811" cy="7.69819292" rx="6.31362162" ry="6.31205128"></ellipse>
                    <ellipse id="Oval" fill="#6C63FF" fill-rule="nonzero" opacity="0.1" cx="247.013514" cy="32.6341514" rx="6.31362162" ry="6.31205128"></ellipse>
                    <ellipse id="Oval" fill="#6C63FF" fill-rule="nonzero" opacity="0.1" cx="10.5810811" cy="75.5374237" rx="10.5810811" ry="10.5784493"></ellipse>
                    <ellipse id="Oval" fill="#6C63FF" fill-rule="nonzero" opacity="0.1" cx="20.7243243" cy="127.773077" rx="10.5810811" ry="10.5784493"></ellipse>
                    <ellipse id="Oval" fill="#6C63FF" fill-rule="nonzero" opacity="0.1" cx="218.895568" cy="81.6977289" rx="10.5810811" ry="10.5784493"></ellipse>
                    <path d="M131.398054,101.506422 C131.024432,101.541441 130.644973,101.523932 130.27427,101.582295 C129.651918,101.706127 129.058033,101.944611 128.522919,102.28558 C125.866703,103.797204 123.359351,105.874957 122.258919,108.723114 C122.168382,108.898191 122.139585,109.098689 122.177189,109.292161 C122.242428,109.451655 122.349278,109.590727 122.486595,109.694872 L123.519892,110.63453 C123.65051,110.770079 123.806126,110.879083 123.978162,110.955531 C124.256974,111.028393 124.550893,111.019274 124.824649,110.929267 C127.664757,110.27851 130.682919,109.528535 132.676541,107.40409 C133.62227,106.397314 134.495027,105.011172 135.887351,104.973236 C136.471135,104.973236 137.016973,105.197937 137.592,105.265055 C138.167027,105.332173 138.858811,105.087045 138.996,104.526752 C139.040517,104.248098 139.008225,103.962584 138.902595,103.700904 L138.044432,100.843993 C137.810919,100.061917 135.455351,100.021062 134.670162,100.161136 C133.473405,100.368327 132.667784,101.389695 131.398054,101.506422 Z" id="Path" fill="#65617D" fill-rule="nonzero"></path>
                    <path d="M141.509189,117.600256 C141.468324,118.577851 141.547135,119.567118 141.386595,120.535958 C141.245396,121.299927 141.000883,122.041137 140.659784,122.739194 C140.134789,123.861681 139.467706,124.912076 138.674919,125.864579 C137.936432,126.740037 137.052,127.562967 135.957405,127.907314 C134.862811,128.251661 133.517189,128.003614 132.834162,127.081465 C132.276649,126.33149 132.250378,125.330549 132.291243,124.39381 C132.390486,122.091355 132.752432,119.756801 133.78573,117.696557 C134.229405,116.821099 134.792757,115.986496 135.245189,115.102283 C136.190919,113.26674 136.730919,111.089768 138.362595,109.823272 C139.38626,110.296144 140.48097,110.596868 141.602595,110.713321 C142.037514,110.760012 143.280973,110.789194 143.426919,111.346569 C143.526162,111.723016 142.708865,112.776484 142.551243,113.147094 C141.928228,114.553214 141.574756,116.063757 141.509189,117.600256 Z" id="Path" fill="#65617D" fill-rule="nonzero"></path>
                    <path d="M129.938595,75.5140781 C130.288865,76.4070452 130.732541,77.2825031 130.81427,78.2338339 C130.872649,78.8174725 130.81427,79.4011111 130.81427,79.9847497 C130.863416,80.7843878 130.996471,81.5766498 131.211243,82.348486 L132.837081,89.0019658 C133.079351,89.9970696 133.321622,91.0184371 133.196108,92.0339683 C133.111459,92.710989 132.86627,93.3675824 132.869189,94.0475214 C132.90023,94.5631146 132.982362,95.0743569 133.114378,95.5737363 C133.422203,97.1165302 133.337899,98.7118832 132.869189,100.213663 C132.821172,100.326811 132.804048,100.450673 132.819568,100.572601 C132.860432,100.762283 133.044324,100.879011 133.210703,100.969475 C134.961085,101.926961 136.869188,102.562507 138.844216,102.845873 C140.626806,98.6062561 141.872142,94.1604338 142.551243,89.6118681 C142.96573,86.857094 143.167135,84.0673016 143.698378,81.3329548 C143.710498,81.1750036 143.777637,81.0263026 143.888108,80.912735 C144.086595,80.746398 144.387243,80.851453 144.620757,80.9623443 C147.603719,82.3964186 150.473479,84.0548266 153.205297,85.9232723 C155.150028,83.4056112 155.876101,80.1545949 155.187243,77.0490476 C154.844144,75.7264482 154.354635,74.4462098 153.727784,73.2320513 C153.059934,71.75515 152.22765,70.3582395 151.246703,69.06779 C149.080865,66.3538706 145.905081,64.620464 142.635892,63.4444322 C140.648108,62.7265568 138.601946,62.1954457 136.558703,61.6526618 C135.414486,61.3462515 133.496757,60.3482295 132.384649,61.1244689 C131.217081,61.9328083 130.440649,63.9376068 129.961946,65.2099389 C129.371035,66.7880492 129.049374,68.4541559 129.010378,70.1387668 C128.96231,71.9741929 129.277766,73.8010044 129.938595,75.5140781 Z" id="Path" fill="#3F3D56" fill-rule="nonzero"></path>
                    <path d="M153.403784,83.5361905 C152.79373,84.2015385 153.307459,85.2637607 153.190703,86.1625641 C153.11435,86.5684105 152.969238,86.9582418 152.761622,87.3152503 L149.968216,92.7985348 C149.501302,93.6213948 149.151549,94.5053803 148.929081,95.4249084 C148.546703,97.4034432 149.331892,99.6271062 148.327784,101.375104 C148.003784,101.938315 147.50173,102.422735 147.367459,103.058901 C147.268216,103.522894 147.367459,104.007314 147.317838,104.477143 C147.250703,105.028681 146.955892,105.524774 146.792432,106.055885 C146.664929,106.566223 146.57421,107.085047 146.520973,107.608364 C146.166845,109.839962 144.997935,111.861134 143.240108,113.281331 C142.232865,114.134761 140.939511,114.574809 139.620649,114.512808 C138.318811,114.401917 137.02573,113.517705 136.760108,112.239536 C136.669622,111.804725 136.687135,111.320305 136.415676,110.967204 C136.030378,110.462357 135.218919,110.441929 134.848216,109.925409 L136.284324,107.561673 C136.730919,106.829206 137.18627,106.06464 137.259243,105.209609 C137.346811,104.161978 136.841838,103.117265 137.022811,102.081306 C137.177514,101.191258 137.816757,100.450037 138.009405,99.5687424 C138.248757,98.47442 137.770054,97.3684249 137.51027,96.2770208 C136.873946,93.5893651 137.586162,90.7878999 138.295459,88.1060806 C139.23827,84.557558 140.204432,80.9535897 142.113405,77.8165324 C145.922595,79.868022 149.425297,81.8378022 153.403784,83.5361905 Z" id="Path" fill="#3F3D56" fill-rule="nonzero"></path>
                    <path d="M153.438811,27.9504518 C153.666486,28.5691087 153.543892,29.254884 153.500108,29.9114774 C153.397946,31.3705739 153.707351,32.8296703 153.637297,34.3091941 C153.567243,35.7887179 153.111892,37.2011233 152.796649,38.6397924 C151.900541,42.7456899 152.116541,47.0237607 151.305081,51.1471673 C150.303892,56.2540049 147.744,61.0106593 147.239027,66.19337 C147.078486,67.8392308 147.098919,69.6018193 146.196973,70.9908791 C140.837277,68.6322332 135.770869,65.6569975 131.100324,62.125409 C132.127784,54.5060073 133.143568,46.8486691 133.006378,39.162149 C132.939884,38.2355314 133.004742,37.3041687 133.199027,36.3957021 C133.442545,35.6326101 133.79236,34.9076132 134.238162,34.2420757 C135.367784,32.4065324 136.611243,30.6439438 137.851784,28.8842735 C138.64573,27.757851 139.503892,26.5759829 140.770703,26.04779 C142.037514,25.5195971 143.537838,25.7559707 144.918486,26.0069353 C146.580324,26.3104274 148.240216,26.6139194 149.898162,26.9174115 C150.934378,27.107094 152.995135,26.7452381 153.438811,27.9504518 Z" id="Path" fill="#6C63FF" fill-rule="nonzero"></path>
                    <path d="M113.470054,57.1469719 C112.789123,56.4659365 112.046484,55.8495036 111.251676,55.3055922 C112.287892,54.0449328 112.083568,52.2210623 112.337514,50.6073016 C112.54554,49.5590692 112.861492,48.5351683 113.280324,47.5519536 C113.385405,47.2747253 113.53427,46.968315 113.823243,46.8953602 C114.000669,46.8734129 114.180693,46.9017243 114.342811,46.9770696 C115.218486,47.286398 117.04573,47.2688889 117.725838,47.8350183 C118.546054,48.5237118 117.795892,49.9652991 117.486486,50.8261661 C117.267568,51.4039683 113.904973,57.5847009 113.470054,57.1469719 Z" id="Path" fill="#BE6F72" fill-rule="nonzero"></path>
                    <path d="M116.012432,111.644225 C116.452086,112.355712 116.739326,113.150645 116.856,113.978779 C116.926054,114.807546 116.622486,115.715104 115.916108,116.152833 C115.20973,116.590562 114.196865,116.444652 113.356216,116.182015 C109.749951,115.009452 106.814439,112.355942 105.285405,108.886532 C105.019784,108.273712 104.789189,107.622955 104.319243,107.150208 C103.970166,106.843437 103.582576,106.583473 103.16627,106.376886 C102.019135,105.729039 100.912865,104.876935 100.381622,103.668803 C99.8503784,102.460672 100.08973,100.846911 101.190162,100.129035 C101.882962,99.7290388 102.707506,99.6237388 103.478595,99.8372161 C104.239426,100.053243 104.967858,100.370258 105.644432,100.779792 C106.776973,101.395531 108.160541,101.926642 109.147135,102.746654 C110.022811,103.467448 110.808,104.442125 111.555243,105.291319 C112.41102,106.268351 113.212963,107.291231 113.957514,108.355421 C114.196865,108.667668 116.213838,111.36116 116.012432,111.644225 Z" id="Path" fill="#65617D" fill-rule="nonzero"></path>
                    <path d="M94.6167568,105.518938 C94.5175005,106.98729 94.2581247,108.440412 93.8432432,109.852454 C93.6068108,110.646203 93.2944865,111.472051 92.6377297,111.976899 C92.082175,112.336961 91.4526647,112.567358 90.7958919,112.651001 C90.5667954,112.713101 90.3274631,112.727993 90.0924324,112.694774 C89.6896216,112.610147 89.4035676,112.262882 89.1554595,111.933126 C88.1805405,110.643284 87.2318919,109.280488 86.8203243,107.716337 C86.2365405,105.448901 86.8203243,103.018046 87.8331892,100.899438 C88.1972683,100.045359 88.7281769,99.2725089 89.3948108,98.6261661 C90.2184664,97.9494528 91.2080794,97.5051444 92.2611892,97.339243 C93.3382703,97.1232967 94.6605405,96.6622222 94.7393514,97.9724908 C94.8546266,100.488087 94.8136831,103.008411 94.6167568,105.518938 L94.6167568,105.518938 Z" id="Path" fill="#65617D" fill-rule="nonzero"></path>
                    <path d="M110.767135,50.6685836 C112.781189,51.7103785 115.017081,53.0352381 115.437405,55.2618193 C115.697189,56.6216972 115.198054,58.0136752 115.279784,59.3968987 C115.352757,60.6137851 115.863568,61.7898168 115.799351,63.0037851 C115.731167,63.5774267 115.633743,64.1472155 115.507459,64.710928 C115.335243,65.7877411 115.437405,66.8849817 115.393622,67.9734676 C115.297297,70.4247497 114.477081,72.7826496 114.080108,75.2018315 C113.79913,76.9292185 113.733439,78.6847682 113.884541,80.428315 C113.980865,81.5547375 114.176432,82.6753236 114.176432,83.8075824 C114.176456,84.623001 114.109092,85.4370276 113.975027,86.2413553 C113.583785,88.7683811 112.795693,91.217752 111.639892,93.4989011 C110.235892,96.2624298 110.434378,99.8284615 110.583243,102.924664 C110.648283,103.351371 110.593722,103.787752 110.425622,104.185324 C110.057838,104.85359 109.141297,104.94989 108.382378,104.88569 C105.568,104.628589 102.957921,103.307174 101.085081,101.191258 C100.811889,100.925235 100.626532,100.582103 100.553838,100.207827 C100.489622,99.5833333 100.991676,99.0697314 101.353622,98.5532112 C102.585405,96.8022955 102.273081,94.4298046 102.419027,92.2790965 C102.525566,90.7143911 102.899747,89.1795447 103.525297,87.7413065 C103.887243,86.9096215 104.339676,86.0896093 104.421405,85.1849695 C104.497297,84.3416117 104.240432,83.5070085 103.986486,82.7015873 L103.110811,79.9234676 C101.753514,75.6074603 100.387459,71.2651893 98.3325405,67.2351648 C96.9843551,68.112122 96.0193667,69.4679845 95.6325405,71.0288156 C94.8677838,73.7777534 95.9565405,76.8476923 94.9144865,79.4915751 C94.7419598,79.8581559 94.5984918,80.2377149 94.4854054,80.6267521 C94.4240564,80.962551 94.4005583,81.3041678 94.4153514,81.6452015 C94.4424002,84.4896884 94.6158187,87.3309003 94.9349189,90.1575702 C94.9506558,90.5856886 95.0709075,91.0034592 95.2851892,91.3744567 C95.4574054,91.6225031 95.7084324,91.8063492 95.8923243,92.0427228 C96.4031351,92.7051526 96.3068108,93.633138 96.1842162,94.4589866 L95.6004324,98.3635287 C95.5900572,98.5615021 95.5243221,98.7525921 95.4107027,98.9150672 C95.2730492,99.0483532 95.101386,99.1412302 94.9144865,99.1835409 C93.0596999,99.7593636 91.1044313,99.9383366 89.1758919,99.7088156 C88.6067027,99.6416972 88.0900541,99.2594139 87.6142703,98.9384127 C87.5646486,98.3547741 88.2914595,97.9666545 88.3177297,97.3859341 C88.2895306,97.0418631 88.1295409,96.7219633 87.8711351,96.492967 C86.7852973,95.267326 85.4892973,93.965812 85.500973,92.3287057 C85.500973,91.8997314 85.6031351,91.470757 85.5885405,91.0417827 C85.5505946,89.9416239 84.7916757,88.9990476 84.5260541,87.9397436 C84.1991351,86.629475 84.6340541,85.2695971 84.8004324,83.9301465 C85.0281081,82.1267033 84.7595676,80.2999145 84.5085405,78.4993895 L83.5307027,71.8926007 C83.4170365,70.867142 83.2138842,69.8535859 82.9235676,68.8635165 C82.5554624,67.8887067 82.1234994,66.9392093 81.6304865,66.0211966 C80.6964324,64.1243712 79.9287568,62.1516728 79.164,60.1848107 C78.9209751,59.6504135 78.7680983,59.0794869 78.7115676,58.495177 C78.6677838,57.4942369 79.1844324,56.5487424 79.8265946,55.7783394 C81.0293569,54.3466863 82.6709488,53.3517187 84.4968649,52.9476923 C84.8020238,52.8625965 85.1227953,52.849609 85.4338378,52.9097558 C85.6954149,52.996528 85.9409552,53.1256758 86.1606486,53.2920391 C90.7347984,56.2830509 96.4459431,56.9601829 101.592973,55.121746 C101.884865,55.3435287 102.424865,55.2472283 102.760541,55.0896459 C103.697514,54.6606716 104.46227,53.9457143 105.285405,53.3387302 C106.817838,52.1772894 108.884432,51.0742125 110.767135,50.6685836 Z" id="Path" fill="#3F3D56" fill-rule="nonzero"></path>
                    <path d="M50.2667027,125.610696 C50.4216806,126.057795 50.6549316,126.473787 50.9555676,126.839255 C52.0122162,128.216642 53.4862703,129.316801 54.1663784,130.924725 C54.3094054,131.269072 54.4144865,131.630928 54.5458378,131.981111 C54.9453073,133.038015 55.5965527,133.981585 56.4431351,134.730049 C57.0888986,135.265953 57.7905752,135.730685 58.536,136.11619 C59.8261622,136.819475 61.2214054,137.455641 62.6867027,137.417705 C62.9813268,137.411374 63.2746209,137.376188 63.5623784,137.31265 C64.0184656,137.218116 64.4581144,137.056853 64.8671351,136.834066 C65.8099459,136.314628 66.6184865,135.299096 66.4316757,134.239792 C66.393973,134.037855 66.3301964,133.841668 66.2419459,133.656154 C66.0871276,133.36098 65.908481,133.078926 65.7077838,132.812796 C65.2144865,132.129939 64.7065946,131.429573 63.9856216,130.991844 C63.1741622,130.495751 62.1525405,130.373187 61.4228108,129.760366 C61.1348811,129.499855 60.8861451,129.199087 60.6843243,128.867399 C60.0229252,127.851057 59.5300906,126.734572 59.2248649,125.561087 C59.003027,124.685629 58.8541622,123.725543 58.2149189,123.083541 C57.5756757,122.441538 56.6970811,122.295629 55.8447568,122.149719 C55.5567243,122.090334 55.263158,122.061963 54.9690811,122.065092 C54.5516757,122.079683 54.1196757,122.199328 53.7285405,122.00381 C53.3374054,121.808291 53.2060541,121.531062 52.7331892,121.568999 C52.3568073,121.61974 52.0020197,121.774352 51.7086486,122.015482 C50.5994595,122.835495 49.8638919,124.294591 50.2667027,125.610696 Z" id="Path" fill="#3F3D56" fill-rule="nonzero"></path>
                    <path d="M60.6376216,126.938474 C60.8273514,127.927741 61.1192432,128.981209 61.884,129.626129 C62.3714595,130.046349 63.0515676,130.308987 63.2938378,130.90138 C63.5361081,131.493773 63.2237838,132.237912 62.820973,132.780696 C62.3066519,133.467034 61.669237,134.051845 60.9411892,134.505348 C60.3223784,134.887631 59.5838919,135.179451 58.8745946,135.010195 C58.2908108,134.87304 57.8296216,134.452821 57.3947027,134.047192 C56.3964324,133.122125 55.3748108,132.162039 54.8143784,130.921807 C54.2305946,129.614457 54.2014054,128.099915 53.5650811,126.812991 C53.1943784,126.063016 52.6222703,125.406422 52.3975135,124.601001 C52.2967616,124.309866 52.2967616,123.993333 52.3975135,123.702198 C52.6194911,123.277344 53.0623559,123.014176 53.5417297,123.022259 C54.011711,123.037944 54.4751967,123.136744 54.9107027,123.314078 C56.2284832,123.783715 57.577365,124.161073 58.9475676,124.443419 C59.4934054,124.545556 59.8232432,124.542637 60.1151351,125.07083 C60.3847976,125.66264 60.5610532,126.292671 60.6376216,126.938474 Z" id="Path" fill="#FBBEBE" fill-rule="nonzero"></path>
                    <path d="M64.0235676,135.302015 C63.8071759,135.632928 63.6537915,136.00096 63.5711351,136.387582 C63.5022486,136.6882 63.4913511,136.999195 63.539027,137.303895 C63.9951142,137.209361 64.4347631,137.048098 64.8437838,136.825311 C65.7865946,136.305873 66.5951351,135.290342 66.4083243,134.231038 C66.3706217,134.0291 66.306845,133.832913 66.2185946,133.647399 C65.9350971,133.583896 65.6392307,133.676192 65.4421622,133.889609 C64.8986253,134.283698 64.4199921,134.760243 64.0235676,135.302015 L64.0235676,135.302015 Z" id="Path" fill="#FBBEBE" fill-rule="nonzero"></path>
                    <path d="M53.5621622,113.129585 C53.4351669,113.402845 53.3973831,113.709123 53.4541622,114.005043 C53.5884324,114.588681 54.1868108,114.924274 54.7268108,115.189829 L59.8611892,117.699475 C60.2173752,117.864226 60.5642726,118.048347 60.9003243,118.251013 C61.776,118.787961 62.4648649,119.546691 63.2121081,120.241221 C63.9593514,120.935751 64.7912432,121.586508 65.7807568,121.831636 C66.7685657,122.048044 67.8009545,121.912835 68.6996757,121.449353 C69.183987,121.208133 69.6336407,120.902877 70.0365405,120.541795 C70.385301,120.235923 70.7075328,119.901081 70.9997838,119.540855 C71.2508228,119.275855 71.430582,118.951565 71.5222703,118.598278 C71.6185946,118.064249 71.352973,117.538974 71.0435676,117.098327 C70.8654021,116.844293 70.6703685,116.602511 70.4597838,116.374615 C68.5128649,114.223907 65.3224865,113.109158 62.5787027,112.671429 C61.487027,112.496337 60.4508108,112.08779 59.4,111.755116 C58.3491892,111.422442 57.2370811,111.171477 56.1454054,111.326142 C55.0537297,111.480806 53.9795676,112.108217 53.5621622,113.129585 Z" id="Path" fill="#3F3D56" fill-rule="nonzero"></path>
                    <path d="M53.5621622,113.129585 C53.4351669,113.402845 53.3973831,113.709123 53.4541622,114.005043 C53.5884324,114.588681 54.1868108,114.924274 54.7268108,115.189829 L59.8611892,117.699475 C60.2173752,117.864226 60.5642726,118.048347 60.9003243,118.251013 C61.776,118.787961 62.4648649,119.546691 63.2121081,120.241221 C63.9593514,120.935751 64.7912432,121.586508 65.7807568,121.831636 C66.7685657,122.048044 67.8009545,121.912835 68.6996757,121.449353 C69.183987,121.208133 69.6336407,120.902877 70.0365405,120.541795 C70.385301,120.235923 70.7075328,119.901081 70.9997838,119.540855 C71.2508228,119.275855 71.430582,118.951565 71.5222703,118.598278 C71.6185946,118.064249 71.352973,117.538974 71.0435676,117.098327 C70.8654021,116.844293 70.6703685,116.602511 70.4597838,116.374615 C68.5128649,114.223907 65.3224865,113.109158 62.5787027,112.671429 C61.487027,112.496337 60.4508108,112.08779 59.4,111.755116 C58.3491892,111.422442 57.2370811,111.171477 56.1454054,111.326142 C55.0537297,111.480806 53.9795676,112.108217 53.5621622,113.129585 Z" id="Path" fill="#000000" fill-rule="nonzero" opacity="0.1"></path>
                    <path d="M66.4112432,114.731673 C66.805999,115.174949 67.1308154,115.675829 67.3744865,116.217033 C67.5937187,116.571533 67.6718458,116.995397 67.5934054,117.404737 C67.478634,117.680277 67.2946409,117.921519 67.0592432,118.105104 L66.5484324,118.577851 C66.3941506,118.738182 66.2147064,118.872239 66.0171892,118.974725 C65.7377592,119.079487 65.4393905,119.124232 65.1415135,119.106044 C64.4555676,119.106044 63.7170811,119.106044 63.1595676,118.694579 C62.3977297,118.145958 62.2605405,117.010781 62.6078919,116.138242 C62.9552432,115.265702 63.6820541,114.60619 64.4147027,114.016716 C65.0101622,113.535214 65.9938378,114.291026 66.4112432,114.731673 Z" id="Path" fill="#FBBEBE" fill-rule="nonzero"></path>
                    <path d="M69.5286486,117.749084 C69.4341656,118.233278 69.4797306,118.734367 69.66,119.19359 C69.7884324,119.631319 69.9139459,120.069048 70.0394595,120.515531 C70.0394595,120.515531 70.0394595,120.515531 70.0394595,120.53304 C70.3882199,120.227169 70.7104517,119.892326 71.0027027,119.5321 C71.2537417,119.2671 71.433501,118.942811 71.5251892,118.589524 C71.6215135,118.055495 71.3558919,117.53022 71.0464865,117.089573 C70.8683211,116.835539 70.6732874,116.593757 70.4627027,116.365861 C70.3255135,116.543871 70.2058378,116.718962 70.1065946,116.832772 C69.8511777,117.093817 69.6541763,117.406155 69.5286486,117.749084 Z" id="Path" fill="#FBBEBE" fill-rule="nonzero"></path>
                    <path d="M56.1162162,95.9997924 C55.512,98.5386203 55.7688649,101.194176 56.0899459,103.785531 C56.3351351,105.75823 56.6095135,107.800965 56.0257297,109.700708 C55.8097297,110.409829 55.4682162,111.130623 55.5995676,111.863089 C55.8476757,113.243394 57.5114595,113.774505 58.8891892,114.034225 C59.2866546,114.135271 59.6996844,114.160027 60.1063784,114.107179 C60.5143667,113.996108 60.8930024,113.796876 61.2155676,113.523541 C63.1739178,112.100255 64.6612268,110.123429 65.4859459,107.847656 C66.0084324,106.324359 66.1748108,104.704762 66.3353514,103.102674 C66.6038919,100.406264 66.8753514,97.6777534 66.4812973,94.9988523 C66.3645405,94.2109402 66.1894054,93.4317827 66.1164324,92.6380342 C66.024554,91.2574822 66.1010075,89.8708825 66.3441081,88.5087912 C66.846721,85.1344994 67.6078795,81.8037961 68.6208649,78.5460806 C65.8413522,78.9150459 63.0160375,78.4048197 60.5412973,77.0869841 C61.02,77.3437851 60.4712432,81.4380098 60.4128649,82.0128938 C60.2357622,83.7267535 59.9264083,85.4243623 59.4875676,87.0905495 C58.6731892,90.2042613 56.8547027,92.9065079 56.1162162,95.9997924 Z" id="Path" fill="#3F3D56" fill-rule="nonzero"></path>
                    <path d="M56.1162162,95.9997924 C55.512,98.5386203 55.7688649,101.194176 56.0899459,103.785531 C56.3351351,105.75823 56.6095135,107.800965 56.0257297,109.700708 C55.8097297,110.409829 55.4682162,111.130623 55.5995676,111.863089 C55.8476757,113.243394 57.5114595,113.774505 58.8891892,114.034225 C59.2866546,114.135271 59.6996844,114.160027 60.1063784,114.107179 C60.5143667,113.996108 60.8930024,113.796876 61.2155676,113.523541 C63.1739178,112.100255 64.6612268,110.123429 65.4859459,107.847656 C66.0084324,106.324359 66.1748108,104.704762 66.3353514,103.102674 C66.6038919,100.406264 66.8753514,97.6777534 66.4812973,94.9988523 C66.3645405,94.2109402 66.1894054,93.4317827 66.1164324,92.6380342 C66.024554,91.2574822 66.1010075,89.8708825 66.3441081,88.5087912 C66.846721,85.1344994 67.6078795,81.8037961 68.6208649,78.5460806 C65.8413522,78.9150459 63.0160375,78.4048197 60.5412973,77.0869841 C61.02,77.3437851 60.4712432,81.4380098 60.4128649,82.0128938 C60.2357622,83.7267535 59.9264083,85.4243623 59.4875676,87.0905495 C58.6731892,90.2042613 56.8547027,92.9065079 56.1162162,95.9997924 Z" id="Path" fill="#000000" fill-rule="nonzero" opacity="0.1"></path>
                    <path d="M71.2712432,81.1228449 C72.4388108,84.5050305 72.1819459,88.1994628 71.676973,91.742149 C71.172,95.2848352 70.4276757,98.8275214 70.6465946,102.396471 C70.7312432,103.797204 70.9589189,105.235873 70.5502703,106.575324 C70.3231672,107.228821 70.0225368,107.854407 69.6541622,108.440049 L60.3398919,124.542637 C59.8574519,125.391588 58.9794542,125.9402 58.0047568,126.001734 C57.0094054,126.07177 56.0315676,125.744933 55.1033514,125.380159 C54.4865865,125.175811 53.9134121,124.85812 53.4132973,124.443419 C52.9101003,124.024402 52.6440436,123.385589 52.7010811,122.733358 C53.1184865,119.937729 53.7460541,117.074982 54.2101622,114.270598 C54.5258242,112.367791 55.2142364,110.546035 56.2358919,108.909878 C56.9568649,107.742601 57.8442162,106.694969 58.4659459,105.481001 C60.2523243,102.002515 59.6335135,97.7594628 58.2557838,94.1000488 C56.8780541,90.4406349 54.8260541,87.0438584 53.7314595,83.302735 C53.4069555,82.2616927 53.2214584,81.1823484 53.1797838,80.0927228 C53.1525361,77.8201845 54.0304612,75.6301172 55.62,74.0053724 C55.8496865,73.7453128 56.1391971,73.5450092 56.4635676,73.4217338 C56.842756,73.3337913 57.2377972,73.3408081 57.6136216,73.4421612 C62.8005405,74.4489377 69.5578378,76.1268987 71.2712432,81.1228449 Z" id="Path" fill="#3F3D56" fill-rule="nonzero"></path>
                    <path d="M154.994595,30.6293529 C155.163892,31.9075214 154.702703,33.2002808 154.045946,34.3062759 C151.561946,38.4501099 145.835027,40.282735 141.407027,38.3538095 C139.582703,37.5571429 138.038595,36.243956 136.526595,34.9482784 C136.018703,34.5105495 135.490378,34.0523932 135.233514,33.4337363 C134.781081,32.3394139 135.326919,31.0349817 136.217189,30.252906 C137.107459,29.4708303 138.260432,29.0856288 139.407568,28.7383639 C143.193405,27.5594139 154.092649,23.8416361 154.994595,30.6293529 Z" id="Path" fill="#FBBEBE" fill-rule="nonzero"></path>
                    <path d="M152.779135,26.5730647 C156.226378,29.345348 161.244,31.9863126 165.149514,34.0407204 C166.477622,34.7410867 167.951676,35.5289988 168.430378,36.9589133 C168.687243,37.7234799 168.602595,38.5551648 168.517946,39.3605861 C168.354486,40.9101465 168.185189,42.4830525 167.586811,43.9217216 C166.883351,45.6055189 165.639892,46.9945788 164.641622,48.5237118 C162.89027,51.2026129 161.862811,54.3600977 159.699892,56.7267521 C161.159351,61.5738706 162.756,66.4151526 163.275568,71.4461172 C163.304282,71.5844795 163.288972,71.7283565 163.231784,71.8575824 C163.172053,71.9425419 163.094314,72.0132859 163.004108,72.0647741 L159.372973,74.4460195 C158.977031,74.6770111 158.622789,74.9729618 158.325081,75.3214774 C157.682919,76.1560806 157.767568,77.3291941 157.370595,78.3009524 C156.93084,79.2593951 156.119157,79.9971056 155.123027,80.3436874 C154.130766,80.68555 153.07373,80.7973145 152.031892,80.670525 C150.705612,80.5870339 149.428462,80.1375163 148.342378,79.3719292 C147.417081,78.6715629 146.757405,77.6881319 146.121081,76.7192918 C145.649626,76.0585045 145.257732,75.344456 144.953514,74.5919292 C144.565297,73.5180342 144.541946,72.3478388 144.556541,71.2039072 C144.566179,69.027131 144.774284,66.855765 145.17827,64.7167643 C145.347568,63.8675702 145.55773,63.0300488 145.692,62.1750183 C145.960541,60.4532845 145.908,58.6965324 146.106486,56.966044 C146.37767,55.0196486 146.812176,53.0995146 147.405405,51.2259585 C147.730006,50.0654884 147.983451,48.8862911 148.164324,47.6949451 C148.505838,45.5996825 149.185946,43.5773748 149.866054,41.5667399 L151.033622,38.1203541 C151.28173,37.3762149 151.532757,36.6349939 151.827568,35.9083639 C152.376324,34.5514042 153.082703,33.2294628 153.269514,31.7820391 C153.476757,30.2032967 151.772108,28.3298168 152.347135,26.8473748 C152.393838,26.683956 152.647784,26.4680098 152.779135,26.5730647 Z" id="Path" fill="#3F3D56" fill-rule="nonzero"></path>
                    <path d="M167.496324,36.1447375 C168.304865,36.5095116 168.751459,37.3791331 169.040432,38.2195726 C169.691838,40.1136635 169.848574,42.142699 169.495784,44.1143223 C169.381751,44.6099697 169.30371,45.1132106 169.26227,45.6201099 C169.268325,46.2076618 169.325951,46.7935486 169.434486,47.3710256 C169.726378,49.6034432 169.434486,51.8708791 169.530811,54.1237241 C169.630054,56.6567155 170.18173,59.3326984 169.119243,61.6351526 C168.412865,63.1642857 167.076,64.302381 165.756649,65.3354212 C160.844705,69.162705 155.425084,72.289727 149.652973,74.6269475 C150.648324,73.4304884 150.665838,71.6299634 150.003243,70.2204762 C149.340649,68.810989 148.108865,67.751685 146.792432,66.9287546 C148.468029,66.55644 150.090768,65.9771043 151.623243,65.2041026 C154.68227,63.6516239 157.303459,61.3783516 159.892541,59.1284249 C160.274474,58.8538839 160.571776,58.4777988 160.750703,58.0428571 C161.013405,57.1673993 160.289514,56.3357143 159.787459,55.5682295 C158.266703,53.2336752 158.619892,50.1841636 159.256216,47.481917 C159.965514,44.5199512 161.007568,41.5696581 162.907784,39.1884127 C164.092865,37.7001343 165.639892,36.5562027 167.496324,36.1447375 Z" id="Path" fill="#3F3D56" fill-rule="nonzero"></path>
                    <path d="M149.396108,74.6999023 C149.133747,75.1274352 148.793092,75.5016672 148.392,75.8029792 C147.516324,76.3866178 146.31373,76.1648352 145.335892,75.7504518 C144.427165,75.3651171 143.588738,74.8316155 142.854811,74.1717094 C142.539298,73.8363393 142.166697,73.5596758 141.754378,73.3546154 C140.989622,73.0627961 139.921297,73.2816606 139.492216,72.5783761 C139.442289,72.5045167 139.417704,72.4164444 139.422162,72.3274115 C139.448432,72.0735287 139.781189,72.0034921 140.038054,71.9889011 C141.229726,71.910136 142.386364,71.5533363 143.415243,70.9471062 C143.086604,70.7096651 142.80542,70.4127134 142.58627,70.0716484 C142.495383,69.9526162 142.446153,69.8070151 142.446162,69.657265 C142.481826,69.4945312 142.571286,69.3485536 142.700108,69.2428816 C144.61916,67.4322546 147.442926,66.961744 149.845622,68.0522589 C150.074933,68.1450154 150.27613,68.2958755 150.429405,68.4899878 C150.537441,68.6689632 150.609799,68.8671555 150.642486,69.0736264 C150.832216,69.8907204 151.518162,71.1163614 151.270054,71.94221 C150.995676,72.8906227 149.959459,73.8973993 149.396108,74.6999023 Z" id="Path" fill="#FBBEBE" fill-rule="nonzero"></path>
                    <path d="M129.492,71.0200611 C133.123135,66.8266178 134.746054,61.308315 136.252216,55.9709402 L137.329297,52.1772894 L139.927135,43.0404274 C140.309514,41.6922222 140.691892,40.3440171 140.945838,38.9695482 C141.380757,36.5970574 141.421622,34.1720391 141.395351,31.7616117 C141.358263,30.7623754 141.129352,29.7795875 140.721081,28.8667643 C140.467135,28.2364347 140.344541,27.5652503 140.137297,26.9144933 C139.873625,26.0072384 139.479334,25.1431591 138.966811,24.3494017 C138.824127,24.113413 138.645929,23.9008095 138.438486,23.719072 C138.079284,23.4750111 137.672382,23.3099039 137.244649,23.234652 C136.31669,22.9588038 135.355054,22.8124829 134.387027,22.7998413 C133.417946,22.8348596 132.419676,23.1704518 131.795027,23.9058364 C131.319243,24.4690476 131.100324,25.1985958 130.723784,25.8318437 C130.548508,26.0911226 130.389604,26.3610948 130.248,26.6401832 C130.087516,27.0641731 129.998736,27.5119101 129.985297,27.9650427 C129.833514,29.8035043 129.704108,31.6439113 129.597081,33.4862637 C129.547459,34.3237851 129.503676,35.1671429 129.535784,36.0075824 C129.562054,36.6612576 129.632108,37.3120147 129.702162,37.9627717 L130.393946,44.336105 C130.554486,45.833138 130.440649,47.2338706 130.574919,48.7338217 C130.901838,52.3552991 130.122486,55.9767766 129.322703,59.5311355 C128.940324,61.2207692 128.54627,62.9337485 127.728973,64.4628816 C127.008,65.8169231 125.928,67.1913919 126.214054,68.7000977 C126.313297,69.2253724 126.578919,69.7156288 126.619784,70.2467399 C126.599801,70.5756503 126.632316,70.9056441 126.716108,71.2243346 C126.960524,71.669033 127.464302,71.9049361 127.962486,71.8079731 C128.540462,71.7065192 129.073904,71.4317221 129.492,71.0200611 L129.492,71.0200611 Z" id="Path" fill="#3F3D56" fill-rule="nonzero"></path>
                    <path d="M129.935676,54.2375336 C130.046595,55.0750549 129.961946,55.9242491 130.002811,56.7676068 C130.094416,57.8537949 130.289903,58.9287101 130.586595,59.977619 C130.878486,61.1448962 131.252108,62.4522466 132.282486,63.1000855 C132.540915,63.2343196 132.787904,63.3895033 133.020973,63.5640781 C133.256016,63.7494061 133.351399,64.0610682 133.260324,64.3461538 L132.457622,64.211917 C132.70615,64.4018729 132.823871,64.7173671 132.760502,65.0236436 C132.697134,65.3299201 132.463879,65.5728337 132.160367,65.6486295 C131.856854,65.7244253 131.536741,65.6197037 131.336757,65.3791941 C131.367193,65.6421218 131.342338,65.9085067 131.263784,66.1612698 C131.180517,66.4153182 130.947262,66.5902161 130.68,66.5989988 C130.528675,66.5755025 130.385384,66.5153956 130.262595,66.4239072 L128.166811,65.1253114 C127.538844,64.78735 127.016574,64.2823795 126.65773,63.6662149 L125.741189,62.2859096 C125.539159,62.0198661 125.378734,61.7246782 125.265405,61.4104518 C124.923892,60.2431746 125.878378,58.9474969 125.382162,57.8473382 C125.233113,57.5762074 125.058133,57.3201552 124.859676,57.0827717 C123.800108,55.6236752 123.867243,53.639304 123.984,51.8300244 C124.021946,51.2201221 124.132865,50.4964103 124.684541,50.2308547 C125.122378,50.0178266 125.647784,50.2075092 126.053514,50.4730647 C126.459243,50.7386203 126.81827,51.0888034 127.279459,51.2463858 C127.571351,51.3456044 127.892432,51.3572772 128.184324,51.4623321 C128.592973,51.6053236 128.972432,52.1626984 129.246811,52.4924542 C129.634779,52.9985061 129.873394,53.6029817 129.935676,54.2375336 L129.935676,54.2375336 Z" id="Path" fill="#FBBEBE" fill-rule="nonzero"></path>
                    <path d="M104.357189,28.0117338 C104.109282,28.5807054 103.761283,29.1005971 103.32973,29.5467033 C102.889986,29.9987618 102.26174,30.2153442 101.636757,30.1303419 C100.988757,30.0019414 100.512973,29.4679121 100.083892,28.9630647 C98.963027,27.6469597 97.8275676,26.3133455 97.0744865,24.7550305 C95.9244324,22.3825397 95.7405405,19.6744567 95.5741622,17.0451648 C95.5332973,16.3681441 95.4982703,15.6502686 95.8222703,15.0578755 C96.2338378,14.3020635 97.1065946,13.946044 97.9122162,13.6454701 L102.363568,11.9821001 C102.636386,11.8529242 102.938333,11.797581 103.239243,11.8215995 C103.936865,11.9383272 104.19373,12.7787668 104.383459,13.4587057 C104.723044,14.6805516 105.287257,15.8284886 106.047243,16.8438095 C107.045514,18.1745055 109.284324,19.9662759 108.005838,21.6267277 C106.46173,23.6169353 105.480973,25.7647253 104.357189,28.0117338 Z" id="Path" fill="#BE6F72" fill-rule="nonzero"></path>
                    <path d="M110.052,20.4185958 C112.001838,22.251221 112.661514,25.1052137 112.568108,27.7753602 C112.474703,30.4455067 111.733297,33.0485348 111.310054,35.6865812 C110.886811,38.3246276 110.802162,41.1406838 111.949297,43.5657021 C112.343351,44.3973871 112.880432,45.16779 113.154811,46.0461661 C113.384862,46.9143159 113.462879,47.8157235 113.385405,48.7104762 C113.380675,49.6537192 113.200532,50.5878578 112.854162,51.4652503 C112.232432,52.8426374 110.953946,53.7998046 109.730919,54.6752625 C107.235243,56.4787057 104.689946,58.3113309 101.759351,59.2539072 C99.7744865,59.8929915 97.6728649,60.1031013 95.5945946,60.2169109 C94.1874691,60.3290242 92.7723484,60.2889097 91.3738378,60.097265 C88.9274683,59.6896729 86.6793158,58.4998307 84.9668108,56.7063248 C84.6684318,56.4172382 84.4225111,56.0785642 84.24,55.7053846 C84.0616774,55.2197595 83.975555,54.7051329 83.9860541,54.1879243 C83.916,52.2716443 83.9276757,50.3553643 84.0210811,48.4390842 C84.0746759,46.6128634 84.3262003,44.7978377 84.7712432,43.0258364 C85.3287568,40.9831013 86.2949189,39.0687668 87.0275676,37.0785592 C89.5787027,30.1595238 89.3218378,22.2862393 92.8654054,15.8253602 C93.6301622,14.430464 94.9086486,12.9626129 96.4848649,13.1843956 C96.7880773,13.2026336 97.0734407,13.3338265 97.2846486,13.5520879 C97.4657681,13.8176912 97.5670548,14.1295767 97.5765405,14.4508913 C97.9530811,17.5908669 98.4872432,20.8125519 99.9671351,23.6461172 C100.550919,24.7579487 101.426595,26.4505006 102.772216,26.7481563 C104.117838,27.045812 104.911784,25.7618071 105.632757,24.8513309 C106.899647,23.1817065 108.386146,21.6906693 110.052,20.4185958 Z" id="Path" fill="#E3E8F4" fill-rule="nonzero"></path>
                    <path d="M119.383784,15.6940415 C119.781455,15.908938 120.152716,16.1694421 120.490054,16.4702808 C121.36573,17.2990476 121.686811,18.5684615 121.681051,19.770757 C121.675135,20.9730525 121.389081,22.1578388 121.213946,23.3484615 C120.744,26.5584737 121.143892,29.844359 121.330703,33.0952259 C121.387636,33.6200942 121.356063,34.1507933 121.237297,34.6652137 C121.09427,35.1554701 120.799459,35.5873626 120.60973,36.0630281 C120.052216,37.4695971 120.472541,39.0746032 120.145622,40.5512088 C119.795351,42.1241148 118.595676,43.5540293 118.820432,45.1502808 C118.910919,45.7747741 119.211568,46.3496581 119.34,46.968315 C119.468432,47.5869719 119.357514,48.3340293 118.823351,48.6667033 C118.289189,48.9993773 117.512757,48.7571673 116.876432,48.9410134 C116.617926,49.0364227 116.366303,49.1495274 116.123351,49.2795238 C115.139676,49.7230891 113.96627,49.5713431 112.997189,49.0869231 C112.047404,48.5686618 111.193434,47.8915775 110.472324,47.0850427 C109.360216,45.9469475 108.283135,44.7008791 107.795676,43.186337 C107.083459,40.9918559 107.716865,38.6018559 108.490378,36.424884 C109.263892,34.2479121 110.18627,32.0475946 110.049081,29.7334676 C109.973189,28.43779 109.564541,27.1917216 109.319351,25.9193895 C109.01585,24.1565501 108.907196,22.3656862 108.995351,20.5790965 C109.033297,19.271746 109.120865,17.9235409 109.684216,16.7416728 C110.500275,15.1396733 112.074959,14.0622943 113.864108,13.8818437 C115.907351,13.6600611 117.658703,14.7018559 119.383784,15.6940415 Z" id="Path" fill="#3F3D56" fill-rule="nonzero"></path>
                    <path d="M113.864108,43.9012943 C113.884631,44.8350651 114.052087,45.7597824 114.360324,46.6414774 C114.882811,45.4508547 114.944108,44.1143223 115.014162,42.8186447 C115.306054,38.3567277 116.295568,34.1486935 117.349297,29.8268498 C116.581622,30.4104884 116.149622,31.8695849 115.781838,32.7450427 C114.322233,36.2753854 113.667141,40.086333 113.864108,43.9012943 L113.864108,43.9012943 Z" id="Path" fill="#000000" fill-rule="nonzero" opacity="0.1"></path>
                    <path d="M94.1876757,12.8108669 C92.7807568,13.1814774 91.5606486,14.0160806 90.1975135,14.5617827 C88.7818378,15.1454212 87.2581622,15.3934676 85.7724324,15.7524054 C82.3339459,16.5870085 78.8808649,18.136569 76.8055135,21.0051526 C75.276,23.1150061 74.6425946,25.7209524 73.5947027,28.1109524 C72.719027,30.1157509 71.5514595,31.9950672 70.9063784,34.0815751 C70.0628108,36.8042491 70.1591351,39.722442 70.3663784,42.5647619 C70.5356757,44.8993162 70.7925405,47.2601343 71.8521081,49.3291331 C72.4067027,50.4147009 73.1714595,51.3864591 73.7260541,52.4720269 C74.3915676,53.7764591 74.7418378,55.2151282 75.2964324,56.5574969 C75.851027,57.8998657 76.6654054,59.2422344 77.9526486,59.9426007 L80.0834595,58.6965324 C83.2621622,56.8376435 86.4408649,54.9758364 89.5203243,52.9564469 C92.2057297,51.2055311 94.9144865,49.1948962 96.3447568,46.317558 C97.6115676,43.775812 97.7370811,40.8050916 97.4101622,37.983199 C97.0832432,35.1613065 96.336,32.400696 95.9507027,29.587558 C95.4598718,26.0468766 95.5337623,22.4507779 96.1696216,18.9332357 C96.4615135,17.3457387 97.2379459,15.7057143 97.3984865,14.1240537 C97.5765405,12.43442 95.4048649,12.4898657 94.1876757,12.8108669 Z" id="Path" fill="#3F3D56" fill-rule="nonzero"></path>
                    <path d="M81.0145946,59.2013797 C82.6462703,60.7451038 84.9930811,61.1945055 87.0334054,62.1195726 C88.5493533,62.823275 89.9143533,63.8143138 91.0527568,65.0377656 C91.6803243,65.7264591 92.2874595,66.663199 91.9722162,67.5386569 C91.7065946,68.2915507 90.8922162,68.6767521 90.144973,68.9568987 C89.2167568,69.3070818 88.1805405,69.6164103 87.2552432,69.2633089 C86.7123243,69.0561172 86.2744865,68.6417338 85.7753514,68.3469963 C84.5523243,67.6203663 83.0111351,67.6174481 81.756,66.9462637 C79.9871351,66.0007692 79.1056216,63.9200977 77.4418378,62.7965934 C76.5311351,62.1837729 75.2730811,61.6818437 75.1795188,60.5875214 C75.1753858,60.1917962 75.2591353,59.8000657 75.4248649,59.4406716 C75.7605405,58.5477045 76.3326486,55.4806838 77.6111351,55.5623932 C79.0034595,55.6528571 79.9783784,58.4630769 81.0145946,59.2013797 Z" id="Path" fill="#FBBEBE" fill-rule="nonzero"></path>
                    <path d="M72.4650811,45.5238095 C72.9992432,47.4439805 74.2397838,49.0810867 75.527027,50.6043834 C76.4523243,51.6987057 77.4681081,52.8893284 77.5002162,54.3221612 C77.5294054,55.6762027 76.6245405,56.9222711 75.456973,57.6138828 C74.2894054,58.3054945 72.9145946,58.5272772 71.5631351,58.614823 C70.4820019,58.7188871 69.3910905,58.6429565 68.3348108,58.3901221 C65.6669189,57.6664103 63.8163243,55.3406105 61.7176216,53.5430037 C60.4712432,52.4778632 59.0701622,51.5498779 58.1156757,50.2162637 C57.1611892,48.8826496 56.7583784,46.968315 57.6982703,45.6230281 C58.0374373,45.1869485 58.4296498,44.7948336 58.8658378,44.4557509 C60.4598661,43.0739828 61.8192364,41.442947 62.891027,39.6261416 C63.323027,38.8936752 63.7375135,38.0999267 64.4643243,37.6592796 C65.5063784,37.0260317 66.8432432,37.3149328 68.0224865,37.6242613 C69.3038919,37.9598535 72.9145946,38.6164469 73.1656216,40.2506349 C73.2677838,40.9218193 72.4358919,41.9665324 72.3103784,42.687326 C72.1506289,43.6325751 72.203476,44.6015298 72.4650811,45.5238095 L72.4650811,45.5238095 Z" id="Path" fill="#FBBEBE" fill-rule="nonzero"></path>
                    <path d="M79.0647568,49.1832234 C79.4471441,49.876059 79.7618946,50.604105 80.0046486,51.3572772 C80.8949189,54.4505617 79.3041081,57.6372283 78.5451892,60.7655311 C77.5761081,64.77221 77.9876757,68.962735 77.940973,73.0861416 C77.9205405,74.9712943 77.7191351,77.0461294 76.3618378,78.3534799 C76.0115676,78.6861538 75.5912432,78.9663004 75.3548108,79.3865201 C75.2086862,79.6944319 75.0999141,80.0187078 75.0308108,80.352442 C74.6109556,81.8131573 73.5466957,83.0021255 72.1410171,83.5808572 C70.7353386,84.159589 69.1422325,84.0646845 67.8152432,83.3231624 C66.708973,82.7074237 65.7486486,81.6393651 64.4818378,81.607265 C64.0835071,81.6264914 63.6867485,81.6703481 63.2938378,81.7385836 C62.0328649,81.8640659 60.7981622,81.3971551 59.616,80.9389988 C59.3338458,80.8499158 59.070607,80.7094248 58.8395676,80.5246154 C58.6264865,80.3290965 58.4892973,80.0664591 58.2937297,79.8563492 C57.5727568,79.0801099 56.340973,79.2143468 55.3018378,78.9984005 C53.719143,78.6443216 52.48314,77.4086259 52.128973,75.8263248 C51.9188108,74.8224664 52.0968649,73.7835897 52.272,72.7709768 L53.0542703,68.2594505 C53.3825467,66.6046303 53.6096702,64.9313513 53.7343784,63.2489133 C53.8302793,61.3476156 53.6672741,59.4421074 53.2498378,57.5847009 C52.9054054,56.0672405 52.3916757,54.5818803 52.2048649,53.0352381 C51.8793491,50.2633778 52.6087349,47.470525 54.2481081,45.2115629 C54.6538378,44.654188 55.1850811,44.0968132 55.8739459,44.0442857 C56.4314595,43.9946764 56.9539459,44.2923321 57.4384865,44.578315 C61.6475676,47.0685063 65.8858378,49.5071429 70.1532973,51.8942247 C71.3208649,52.5508181 72.5147027,53.2103297 73.8165405,53.5342491 C74.2076757,53.6334676 74.7681081,53.5926129 74.8235676,53.1957387 C74.8305259,53.0444591 74.7907838,52.8946995 74.7097297,52.7667643 C73.98,51.3631136 72.9233514,50.1578999 72.0827027,48.8213675 C71.2420541,47.4848352 70.5940541,45.9031746 70.8421622,44.350696 C71.1807568,42.202906 73.1772973,40.781746 74.808973,42.4655433 C76.6391351,44.3769597 77.8650811,46.8340781 79.0647568,49.1832234 Z" id="Path" fill="#F86D70" fill-rule="nonzero"></path>
                    <path d="M65.9938378,76.4187179 C69.4177297,76.6375824 72.9175135,76.8710379 76.0874595,78.1842247 C77.1061622,78.6044444 78.1861622,79.1472283 79.2574054,78.8875092 C79.7905941,78.7252885 80.2865446,78.4595251 80.7168649,78.1054335 C82.0366139,77.1379845 83.2834339,76.0748424 84.4472432,74.9246032 C84.3304865,74.2855189 83.4635676,74.1979731 82.8155676,74.2038095 C81.2355392,74.2132275 79.6768826,73.8386822 78.2737297,73.1124054 C77.81251,72.8350857 77.323317,72.6071785 76.8142703,72.4324664 C75.4277838,72.0501832 74.015027,72.7797314 72.6227027,73.1357509 C70.5619459,73.6610256 68.3902703,73.3546154 66.2857297,73.0452869 L60.6055135,72.2077656 C60.0771892,72.1318926 59.4817297,72.0706105 59.0614054,72.3974481 C58.7804327,72.662874 58.5878462,73.0082209 58.5097297,73.3867155 C57.815027,75.7212698 58.1477838,75.9167888 60.4595676,76.0626984 L65.9938378,76.4187179 Z" id="Path" fill="#FBBEBE" fill-rule="nonzero"></path>
                    <ellipse id="Oval" fill="#000000" fill-rule="nonzero" opacity="0.1" cx="143.555351" cy="26.5643101" rx="9.34054054" ry="9.33821734"></ellipse>
                    <ellipse id="Oval" fill="#FBBEBE" fill-rule="nonzero" cx="143.488216" cy="26.1586813" rx="9.34054054" ry="9.33821734"></ellipse>
                    <path d="M151.372216,14.3020635 C152.119459,14.763138 152.90173,15.2592308 153.310378,16.0354701 C153.530119,16.5624591 153.697308,17.1098407 153.809514,17.6696581 C154.320324,19.4205739 155.680541,20.9409524 155.76227,22.764823 C155.852757,24.7637851 154.352432,26.5001099 152.653622,27.5477411 C152.265885,27.8334558 151.79839,27.9906096 151.316757,27.9971429 C150.823459,27.9650427 150.397297,27.6557143 149.944865,27.4572772 C148.027135,26.6051648 145.88173,27.6848962 143.850162,28.180989 C141.739016,28.6906997 139.523893,28.5606698 137.486919,27.8074603 C136.392324,27.3989133 135.329838,26.7860928 134.643892,25.8376801 C133.957946,24.8892674 133.712757,23.5614896 134.296541,22.5430403 C134.588432,22.023602 135.072973,21.5537729 135.040865,20.9613797 C135.023351,20.6053602 134.813189,20.284359 134.748973,19.9341758 C134.655568,19.376801 134.947459,18.8340171 135.245189,18.3583516 C136.596095,16.1850104 138.303171,14.2544226 140.294919,12.6474481 C140.878703,12.1688645 141.552973,11.7019536 142.31773,11.6669353 C143.853081,11.5998168 145.172432,12.7437485 146.751568,12.7495849 C148.543784,12.7554212 149.831027,13.3507326 151.372216,14.3020635 Z" id="Path" fill="#3F3D56" fill-rule="nonzero"></path>
                    <ellipse id="Oval" fill="#000000" fill-rule="nonzero" opacity="0.1" cx="109.103351" cy="14.5559463" rx="9.63243243" ry="9.63003663"></ellipse>
                    <ellipse id="Oval" fill="#BE6F72" fill-rule="nonzero" cx="109.272649" cy="14.3195726" rx="9.63243243" ry="9.63003663"></ellipse>
                    <path d="M114.418703,19.7590842 C115.778919,20.5207326 117.457297,20.4419414 118.975135,20.0946764 C119.835967,19.9329438 120.652132,19.5886476 121.368649,19.0849817 C122.089688,18.5698847 122.534128,17.7522323 122.574162,16.8671551 C122.574162,15.8895604 121.932,15.0082662 121.853189,14.0306716 C121.756865,12.7991941 122.559568,11.6610989 122.644216,10.4237851 C122.728865,9.18647131 122.118811,8.07172161 121.523351,7.00949939 C120.498811,5.18562882 119.433405,3.3384127 117.874703,1.94351648 C116.316,0.548620269 114.156,-0.341428571 112.112757,0.128400488 C111.108649,0.358937729 110.177514,0.898803419 109.152973,1.00385836 C108.24227,1.08848596 107.343243,0.814175824 106.435459,0.697448107 C105.527676,0.580720391 104.508973,0.653675214 103.858054,1.28108669 C103.501946,1.63126984 103.27427,2.12444444 102.856865,2.38124542 C102.573821,2.51176823 102.281045,2.62006842 101.981189,2.70516484 C100.927459,3.12830281 100.445838,4.31600733 100.072216,5.38406593 L97.5677838,12.5599023 C98.4055135,13.1435409 99.4154595,13.4090965 100.332,13.8584982 C101.248541,14.3078999 102.138811,15.0257753 102.325622,16.0296337 C102.468649,16.7912821 102.197189,17.6667399 102.640865,18.302906 C103.046595,18.8865446 103.872649,18.9857631 104.573189,18.8865446 C105.27373,18.787326 105.977189,18.545116 106.67773,18.6530891 C108.429081,18.9186447 109.08,19.9925397 110.7,18.6530891 C112.32,17.3136386 112.912541,18.9128083 114.418703,19.7590842 Z" id="Path" fill="#3F3D56" fill-rule="nonzero"></path>
                    <ellipse id="Oval" fill="#000000" fill-rule="nonzero" opacity="0.1" cx="68.3377297" cy="36.0367643" rx="8.75675676" ry="8.75457875"></ellipse>
                    <ellipse id="Oval" fill="#FBBEBE" fill-rule="nonzero" cx="68.6763243" cy="35.5610989" rx="8.75675676" ry="8.75457875"></ellipse>
                    <path d="M75.3810811,27.0020391 C73.2962695,25.4029544 70.9537779,24.1713057 68.4544865,23.3601343 C66.8549189,22.840696 65.1152432,22.4846764 63.4923243,22.9632601 C61.2914595,23.5906716 58.3462703,24.5274115 56.9831351,26.3687912 C56.3117838,27.273431 55.6316757,28.2043346 55.3076757,29.2869841 C54.6596757,31.463956 55.5820541,33.7839194 55.5207568,36.0542735 C55.4477838,38.7010745 54.0437838,41.1173382 52.5113514,43.276801 C50.9789189,45.4362637 50.6695135,48.5295482 49.7646486,51.021685 C49.4552432,51.8767155 49.356,53.06442 50.1528649,53.4933944 C50.8534054,53.881514 51.6998919,53.397094 52.3478919,52.9301832 L56.2446486,50.114127 C56.5475346,49.8652117 56.8967426,49.6787493 57.2721081,49.5655067 C58.0748108,49.3787424 58.86,49.8806716 59.5313514,50.356337 L67.7043243,56.134359 C68.0313935,55.4668578 68.0452933,54.6886645 67.7422703,54.0099145 C68.5099459,54.2462882 69.0674595,54.8853724 69.7417297,55.3406105 C70.416,55.7958486 71.4405405,55.9446764 71.9309189,55.3085104 C72.4212973,54.6723443 72.0505946,53.8173138 71.5047568,53.3037118 C70.9589189,52.7901099 70.2408649,52.4836996 69.7067027,51.9555067 C68.6471351,50.9020391 68.5391351,49.2386691 67.8707027,47.9079731 C67.392,46.9741514 66.6184865,46.1920757 66.2798919,45.1969719 C65.7282162,43.5715385 66.4491892,41.8206227 67.1555676,40.2564713 C67.9991351,38.4005006 68.9536216,36.4190476 70.7487568,35.4502076 C71.352973,35.12337 72.0214054,34.9307692 72.6402162,34.6331136 C74.1814054,33.8948107 76.104973,32.1526496 76.8580541,30.5914164 C77.5177297,29.2052747 76.5019459,27.8658242 75.3810811,27.0020391 Z" id="Path" fill="#3F3D56" fill-rule="nonzero"></path>
                    <path d="M62.1262703,55.9330037 C62.964,56.467033 63.9097297,56.8084615 64.7328649,57.3658364 C65.556,57.9232112 66.276973,58.7694872 66.3003243,59.7616728 C66.3236757,60.7100855 65.7165405,61.5417705 65.1327568,62.2946642 L58.0222703,71.624127 L61.6475676,72.5842125 C61.0637838,73.3896337 60.9149189,74.4168376 60.6113514,75.3623321 C60.3077838,76.3078266 59.7356757,77.2912576 58.7665946,77.539304 C57.8909189,77.7640049 56.9743784,77.3029304 56.0695135,77.3554579 C55.4010811,77.3963126 54.7705946,77.7114774 54.1021622,77.7377411 C53.2410811,77.7698413 52.4412973,77.3175214 51.7232432,76.8389377 C50.1236757,75.7679609 48.5357838,74.2329915 48.5473955,72.3069841 C48.5853499,71.6555883 48.7160744,71.0129376 48.9356757,70.398486 C49.9835676,66.9812821 51.0694054,63.4823687 53.2410811,60.6400488 C54.4086486,59.1225885 55.836,57.8415018 57.2633514,56.5691697 C57.5878889,56.2425007 57.9698261,55.9783767 58.3900541,55.7900122 C59.3241081,55.4398291 60.3428108,55.8717216 61.308973,56.1518681 C62.2751351,56.4320147 63.4923243,56.4728694 64.0498378,55.6470208" id="Path" fill="#000000" fill-rule="nonzero" opacity="0.1"></path>
                    <path d="M61.8197838,55.3581197 C62.6575135,55.8892308 63.6032432,56.2335775 64.4263784,56.7909524 C65.2495135,57.3483272 65.9704865,58.1946032 65.9967568,59.1838706 C66.023027,60.173138 65.412973,60.9668864 64.8291892,61.7197802 L57.7157838,71.0404884 L61.3410811,72.0005739 C60.7572973,72.8059951 60.6084324,73.8302808 60.3048649,74.7786935 C60.0012973,75.7271062 59.4291892,76.707619 58.4601081,76.9556654 C57.5844324,77.1803663 56.6678919,76.7192918 55.763027,76.7718193 C55.0945946,76.8097558 54.4641081,77.1278388 53.7956757,77.1511844 C52.9345946,77.1832845 52.1348108,76.7309646 51.4167568,76.252381 C49.8171892,75.1843223 48.2292973,73.6464347 48.2437921,71.7233455 C48.2788581,71.0718386 48.4086558,70.4289097 48.6291892,69.8148474 C49.6770811,66.3947253 50.7629189,62.895812 52.9345946,60.0564103 C54.1021622,58.5360317 55.5324324,57.2549451 56.9568649,55.9709402 C57.282942,55.6461147 57.664522,55.3822378 58.0835676,55.1917827 C59.0176216,54.8415995 60.0363243,55.2734921 61.0024865,55.5565568 C61.9686486,55.8396215 63.1858378,55.877558 63.7433514,55.0517094" id="Path" fill="#F86D70" fill-rule="nonzero"></path>
                    <g id="Group" opacity="0.1" transform="translate(133.686486, 18.384615)" fill="#000000" fill-rule="nonzero">
                        <path d="M1.26097297,5.51830281 C1.94691892,6.46671551 3.01232432,7.08245421 4.104,7.48808303 C6.14034861,8.24427476 8.35636968,8.3743574 10.4672432,7.86161172 C12.5104865,7.36551893 14.6442162,6.28578755 16.5619459,7.13789988 C17.0143784,7.33925519 17.4376216,7.64566545 17.9309189,7.68068376 C18.413541,7.6719747 18.8816039,7.51395355 19.2707027,7.22836386 C20.4528649,6.49881563 21.5387027,5.43659341 22.0582703,4.18468864 C22.0582703,4.24888889 22.0582703,4.31308913 22.0757838,4.38020757 C22.1662703,6.37916972 20.6659459,8.11549451 18.9671351,9.16312576 C18.5793989,9.44884037 18.1119031,9.6059942 17.6302703,9.61252747 C17.136973,9.58042735 16.7108108,9.2710989 16.2583784,9.07266178 C14.3406486,8.22054945 12.1952432,9.30028083 10.1636757,9.79637363 C8.05252968,10.3060843 5.83740687,10.1760544 3.80043243,9.42284493 C2.70583784,9.01429792 1.64335135,8.40147741 0.957405405,7.45306471 C0.271459459,6.50465201 0.0262702703,5.17687424 0.610054054,4.15842491 L0.653837838,4.08547009 C0.74833757,4.60191267 0.955642873,5.09115107 1.26097297,5.51830281 L1.26097297,5.51830281 Z" id="Path"></path>
                        <path d="M1.64918919,0.642002442 C1.67254054,1.09140415 1.40108108,1.46785104 1.1412973,1.85013431 C1.10510075,1.75535443 1.07678847,1.65775019 1.05664865,1.55831502 C0.969081081,1.03595849 1.22010811,0.528192918 1.49740541,0.07003663 C1.57694927,0.251813417 1.62813887,0.444710819 1.64918919,0.642002442 L1.64918919,0.642002442 Z" id="Path"></path>
                    </g>
                    <path d="M100.755243,4.43273504 L98.2508108,11.6056532 C99.0885405,12.1892918 100.098486,12.4577656 101.015027,12.9042491 C101.931568,13.3507326 102.821838,14.0715263 103.008649,15.0753846 C103.151676,15.837033 102.880216,16.7124908 103.323892,17.3515751 C103.729622,17.9352137 104.555676,18.031514 105.256216,17.9352137 C105.956757,17.8389133 106.660216,17.5937851 107.360757,17.7017582 C109.112108,17.9673138 109.763027,19.0412088 111.383027,17.7163492 C113.003027,16.3914896 113.58973,17.9643956 115.095892,18.8106716 C116.456108,19.5752381 118.134486,19.4964469 119.652324,19.1462637 C120.512924,18.9854129 121.329072,18.6421187 122.045838,18.1394872 C122.147754,18.0561798 122.245187,17.9675373 122.33773,17.8739316 C122.114247,18.3521941 121.77763,18.7688537 121.356973,19.0878999 C120.640456,19.5915658 119.824291,19.935862 118.963459,20.0975946 C117.445622,20.4448596 115.752649,20.5236508 114.407027,19.7620024 C112.900865,18.9157265 112.282054,17.3720024 110.694162,18.6676801 C109.10627,19.9633578 108.417405,18.9186447 106.671892,18.6676801 C105.971351,18.559707 105.270811,18.801917 104.567351,18.9011355 C103.863892,19.0003541 103.040757,18.9011355 102.635027,18.3174969 C102.191351,17.6813309 102.462811,16.805873 102.319784,16.0442247 C102.132973,15.0403663 101.242703,14.3195726 100.326162,13.8730891 C99.4096216,13.4266056 98.3996757,13.1552137 97.5619459,12.5744933 L100.078054,5.38114774 C100.369946,4.59031746 100.691027,3.73528694 101.274811,3.1720757 C101.072545,3.57972143 100.898936,4.00096122 100.755243,4.43273504 Z" id="Path" fill="#000000" fill-rule="nonzero" opacity="0.1"></path>
                    <g id="Group" opacity="0.1" transform="translate(49.329730, 25.680098)" fill="#000000" fill-rule="nonzero">
                        <path d="M19.0634595,28.6449817 C19.7085405,28.936801 20.5229189,28.9805739 20.9315676,28.4348718 C21.3898378,27.8512332 21.0512432,26.9465934 20.5054054,26.4300733 C19.9595676,25.9135531 19.2415135,25.6100611 18.7073514,25.0818681 C17.6477838,24.0313187 17.5397838,22.3679487 16.8713514,21.0372527 C16.3926486,20.1005128 15.6191351,19.3184371 15.2805405,18.3233333 C14.7288649,16.7008181 15.4498378,14.9469841 16.1562162,13.3857509 C16.9997838,11.5297802 17.9542703,9.54832723 19.7494054,8.57948718 C20.3536216,8.25264957 21.0220541,8.06004884 21.6408649,7.76239316 C23.1820541,7.02409035 25.1056216,5.27901099 25.8587027,3.71777778 C26.4921081,2.40167277 25.5989189,1.12350427 24.5364324,0.256800977 C25.0530811,0.592393162 25.5580541,0.945494505 26.0484324,1.32194139 C27.1722162,2.19739927 28.1850811,3.52517705 27.5078919,4.9054823 C26.7548108,6.46671551 24.8312432,8.20887668 23.2900541,8.94717949 C22.6712432,9.23899878 22.0028108,9.4374359 21.3985946,9.7642735 C19.6034595,10.7331136 18.648973,12.7145665 17.8054054,14.5705372 C17.0961081,16.1346886 16.3751351,17.8856044 16.9297297,19.5110379 C17.2683243,20.5061416 18.0418378,21.2882173 18.5205405,22.2220391 C19.1977297,23.552735 19.296973,25.216105 20.3565405,26.2695726 C20.8907027,26.7977656 21.6087568,27.1012576 22.1545946,27.6177778 C22.7004324,28.1342979 23.0302703,29.027265 22.5807568,29.6225763 C22.1312432,30.2178877 21.0629189,30.0953236 20.3915676,29.6546764 C19.9391351,29.3482662 19.5275676,28.9455556 19.0634595,28.6449817 Z" id="Path"></path>
                        <path d="M1.36021622,26.0565446 L5.25697297,23.2434066 C5.55974367,22.9936436 5.90892755,22.8062023 6.28443243,22.6918681 C7.08713514,22.508022 7.87232432,23.0099512 8.54367568,23.4856166 L16.7166486,29.2636386 C17.04382,28.5951331 17.0577172,27.8160184 16.7545946,27.1362759 C17.5047568,27.3697314 18.0505946,27.9942247 18.7015135,28.4319536 C18.6069092,28.3890665 18.5093642,28.3529838 18.4096216,28.3239805 C18.7126446,29.0027305 18.6987448,29.7809237 18.3716757,30.4484249 L10.1987027,24.6704029 C9.52735135,24.1947375 8.73924324,23.6928083 7.93945946,23.8795726 C7.56409395,23.9928152 7.21488595,24.1792777 6.912,24.4281929 L3.01524324,27.2442491 C2.36724324,27.71116 1.52075676,28.19558 0.820216216,27.8074603 C0.430221464,27.5678711 0.19767787,27.1384955 0.210162162,26.6810379 C0.623601001,26.5337891 1.01159623,26.323103 1.36021622,26.0565446 L1.36021622,26.0565446 Z" id="Path"></path>
                    </g>
                    <path d="M148.044649,70.7953602 C148.044649,70.7953602 131.319243,72.1348107 127.991676,69.7652381 L143.292649,67.4073382 L148.044649,70.7953602 Z" id="Path" fill="#E3E8F4" fill-rule="nonzero"></path>
                    <path d="M148.044649,70.7953602 C148.044649,70.7953602 131.319243,72.1348107 127.991676,69.7652381 L143.292649,67.4073382 L148.044649,70.7953602 Z" id="Path" fill="#000000" fill-rule="nonzero" opacity="0.1"></path>
                    <path d="M148.044649,70.7953602 L143.359784,67.8304762 C143.359784,67.8304762 129.384,71.8459096 125.554378,70.1883761 L129.451135,64.7226007 L143.298486,67.4219292 L148.044649,70.7953602 Z" id="Path" fill="#E3E8F4" fill-rule="nonzero"></path>
                    <path d="M127.261946,31.4814652 C126.745365,32.133892 126.331009,32.8610496 126.033081,33.6380098 C125.898811,34.049475 125.831676,34.4784493 125.717838,34.8957509 C125.397541,35.9349446 124.904126,36.9126487 124.258378,37.7876801 C122.819351,39.8800244 121.021297,41.8994139 120.659351,44.411978 C120.484216,45.65221 120.676865,46.9128694 120.922054,48.1414286 C121.05478,48.9515648 121.286119,49.7424305 121.610919,50.4964103 C121.981622,51.2959951 122.533297,51.9992796 122.956541,52.7726007 C123.343149,53.531658 123.669137,54.3200802 123.931459,55.1305006 C124.430595,54.6314896 124.725405,53.9632234 125.125297,53.3795849 C125.525189,52.7959463 126.120649,52.2706716 126.824108,52.261917 C127.635568,52.261917 128.304,52.9331013 129.106703,53.0381563 C129.231981,53.0634052 129.361923,53.0512262 129.480324,53.003138 C129.772216,52.8659829 129.795568,52.4720269 129.772216,52.156862 C129.541622,49.9536264 128.280649,47.7795726 128.876108,45.6434554 C129.424865,43.6678388 131.386378,42.4334432 132.416757,40.6621001 C133.164,39.375177 133.385838,37.8577167 133.584324,36.3811111 C133.832432,34.6156044 134.083459,32.8355067 133.972541,31.0583272 C133.917081,30.162442 133.204865,24.5011477 131.903027,25.0935409 C131.450595,25.2978144 131.056541,26.1645177 130.773405,26.5526374 L129.605838,28.2072527 L127.261946,31.4814652 Z" id="Path" fill="#3F3D56" fill-rule="nonzero"></path>
                    <polygon id="Path" fill="#E3E8F4" fill-rule="nonzero" points="92.3254054 68.0026496 82.9352432 75.6453968 70.8538378 73.4859341 78.9888649 67.100928"></polygon>
                    <polygon id="Path" fill="#000000" fill-rule="nonzero" opacity="0.1" points="92.664 67.5269841 83.2738378 75.1697314 71.1924324 73.0102686 79.3274595 66.6252625"></polygon>
                    <polygon id="Path" fill="#E3E8F4" fill-rule="nonzero" points="92.5968649 67.1213553 83.2067027 74.7611844 71.1223784 72.6046398 79.2603243 66.2167155"></polygon>
                    <polygon id="Path" fill="#000000" fill-rule="nonzero" opacity="0.1" points="92.8683243 66.2371429 83.4752432 73.8798901 71.3938378 71.7204274 79.5317838 65.3354212"></polygon>
                    <polygon id="Path" fill="#E3E8F4" fill-rule="nonzero" points="92.7982703 65.831514 83.4081081 73.4742613 71.3267027 71.3147985 79.4617297 64.9297924"></polygon>
                    <path d="M216.318162,170.259048 L216.318162,170.259048 C216.767741,170.040385 217.296372,170.058043 217.73035,170.306219 C218.164327,170.554395 218.447537,171.000998 218.486919,171.49928 L219.009405,178.272405 L215.909514,178.832698 L214.274919,173.935971 L216.318162,170.259048 Z" id="Path" fill="#3F3D56" fill-rule="nonzero"></path>
                    <path d="M107.86573,124.86072 L60.4245405,148.929976 C59.3150229,149.49584 58.618517,150.637843 58.6234262,151.883072 C58.6283876,153.128301 59.3339237,154.264751 60.4478919,154.821807 L162.624649,206.085702 C166.316155,207.933904 170.68555,207.824505 174.279892,205.793883 L217.316432,181.532027 C218.380484,180.925061 219.020847,179.778928 218.97983,178.554849 C218.938813,177.330771 218.223162,176.230053 217.120865,175.695641 L110.78173,124.82862 C109.857427,124.386281 108.780066,124.398141 107.86573,124.86072 Z" id="Path" fill="#3F3D56" fill-rule="nonzero"></path>
                    <path d="M60.1063784,144.742369 L58.6206486,145.845446 L58.5033152,151.127375 C58.4846721,151.967608 58.9471504,152.745013 59.6948108,153.129255 L163.617081,206.44464 C164.096661,206.691999 164.670512,206.67164 165.131347,206.390916 C165.592182,206.110193 165.873405,205.609679 165.873405,205.070171 L165.873405,197.398242 L60.1063784,144.742369 Z" id="Path" fill="#3F3D56" fill-rule="nonzero"></path>
                    <path d="M107.86573,118.738352 L60.4245405,142.804689 C59.3141985,143.368909 58.6160086,144.509869 58.619083,145.755092 C58.6221777,147.000316 59.3260115,148.137804 60.4391351,148.69652 L162.624649,199.960415 C166.316504,201.807058 170.685124,201.697678 174.279892,199.668596 L217.316432,175.403822 C218.380484,174.796856 219.020847,173.650722 218.97983,172.426644 C218.938813,171.202565 218.223162,170.101847 217.120865,169.567436 L110.78173,118.703333 C109.856975,118.261908 108.779612,118.274846 107.86573,118.738352 L107.86573,118.738352 Z" id="Path" fill="#E3E8F4" fill-rule="nonzero"></path>
                    <polygon id="Path" fill="#3F3D56" fill-rule="nonzero" points="117.684973 123.106886 65.412973 149.642015 155.254378 194.553004 209.160973 167.197863"></polygon>
                    <ellipse id="Oval" fill="#3F3D56" fill-rule="nonzero" cx="188.130162" cy="183.122442" rx="5.51383784" ry="3.26545788"></ellipse>
                    <ellipse id="Oval" fill="#3F3D56" fill-rule="nonzero" cx="87.5675676" cy="131.5784" rx="1" ry="1"></ellipse>
                    <ellipse id="Oval" fill="#3F3D56" fill-rule="nonzero" cx="86.0380541" cy="135.558816" rx="1" ry="1"></ellipse>
                    <path d="M88.2827027,134.537448 L94.4095135,131.680537" id="Path" stroke="#3F3D56"></path>
                    <path d="M126.550377,152.106932 L146.521685,152.109083 C149.423061,152.109395 151.775012,154.461347 151.775325,157.362722 C151.775637,160.26329 149.424516,162.614918 146.523948,162.615231 C146.523571,162.615231 146.523194,162.615231 146.522817,162.615231 L126.551508,162.61308 C123.650133,162.612767 121.298181,160.260816 121.297869,157.35944 C121.297556,154.458872 123.648678,152.107244 126.549245,152.106932 C126.549622,152.106932 126.55,152.106932 126.550377,152.106932 Z" id="Rectangle" fill="#6C63FF" fill-rule="nonzero" transform="translate(136.536597, 157.361081) rotate(-30.000000) translate(-136.536597, -157.361081) "></path>
                    <path d="M142.020456,159.986836 L161.991764,159.988987 C164.89314,159.9893 167.245092,162.341251 167.245404,165.242627 C167.245717,168.143195 164.894595,170.494823 161.994028,170.495135 C161.99365,170.495135 161.993273,170.495135 161.992896,170.495135 L142.021588,170.492984 C139.120212,170.492672 136.768261,168.14072 136.767948,165.239345 C136.767636,162.338777 139.118757,159.987149 142.019325,159.986836 C142.019702,159.986836 142.020079,159.986836 142.020456,159.986836 Z" id="Rectangle" fill="#6C63FF" fill-rule="nonzero" transform="translate(152.006676, 165.240986) rotate(-30.000000) translate(-152.006676, -165.240986) "></path>
                    <path d="M112.539794,143.061471 L132.511102,143.063622 C135.412478,143.063935 137.764429,145.415886 137.764742,148.317262 C137.765054,151.21783 135.413933,153.569458 132.513365,153.56977 C132.512988,153.56977 132.512611,153.56977 132.512234,153.56977 L112.540926,153.567619 C109.63955,153.567306 107.287598,151.215355 107.287286,148.313979 C107.286973,145.413412 109.638095,143.061784 112.538662,143.061471 C112.53904,143.061471 112.539417,143.061471 112.539794,143.061471 Z" id="Rectangle" fill="#6C63FF" fill-rule="nonzero" transform="translate(122.526014, 148.315621) rotate(-30.000000) translate(-122.526014, -148.315621) "></path>
                </g>
            </g>
        </g>
    </g>
</svg>