<?xml version="1.0" encoding="UTF-8"?>
<svg width="269px" height="221px" viewBox="0 0 269 221" version="1.1" xmlns="http://www.w3.org/2000/svg" xmlns:xlink="http://www.w3.org/1999/xlink">
    <!-- Generator: Sketch 58 (84663) - https://sketch.com -->
    <title>cta-ill-1</title>
    <desc>Created with Sketch.</desc>
    <defs>
        <linearGradient x1="49.9995%" y1="72.4335%" x2="49.9995%" y2="27.5665%" id="linearGradient-1">
            <stop stop-color="#808080" stop-opacity="0.25" offset="0%"></stop>
            <stop stop-color="#808080" stop-opacity="0.12" offset="53.514%"></stop>
            <stop stop-color="#808080" stop-opacity="0.1" offset="100%"></stop>
        </linearGradient>
    </defs>
    <g id="Landing-Page" stroke="none" stroke-width="1" fill="none" fill-rule="evenodd">
        <g id="Home" transform="translate(-76.000000, -4664.000000)">
            <g id="cta-ill-1" transform="translate(76.000000, 4665.000000)">
                <path d="M171.959044,22.1496548 L171.959044,188.686408 C171.959044,192.818367 168.58132,196.166667 164.416447,196.166667 L96.2661471,196.166667 C92.1012736,196.166667 88.7235495,192.818367 88.7235495,188.686408 L88.7235495,22.1496548 C88.7235495,20.1649895 89.5179814,18.2615608 90.9325309,16.8581904 C92.3470805,15.4548201 94.2656719,14.6666667 96.2661471,14.6666667 L106.464201,14.6666667 L106.464201,15.9661568 C106.465184,19.3687425 109.245252,22.1268397 112.674943,22.1278147 L147.333468,22.1278147 C150.763566,22.1278147 153.544209,19.3691465 153.544209,15.9661568 L153.544209,14.6666667 L164.416447,14.6666667 C166.416922,14.6666667 168.335513,15.4548201 169.750063,16.8581904 C171.164612,18.2615608 171.959044,20.1649895 171.959044,22.1496548 Z" id="Path" fill="#F2F2F2" fill-rule="nonzero"></path>
                <path d="M182.020478,48.5833333 L182.493512,48.5833333 C182.737424,48.5833333 182.935154,48.8598884 182.935154,49.2010363 L182.935154,70.8822944 C182.935154,71.2234427 182.737424,71.5 182.493512,71.5 L182.020478,71.5" id="Path" stroke="#3F3D56"></path>
                <path d="M86.894198,37.5833333 L86.399011,37.5833333 C86.1673337,37.5833333 85.9795222,37.3849521 85.9795222,37.1402364 L85.9795222,29.7764303 C85.9795222,29.5317146 86.1673337,29.3333333 86.399011,29.3333333 L86.894198,29.3333333" id="Path" stroke="#3F3D56"></path>
                <path d="M86.8210501,56.8333333 L86.4238712,56.8333333 C86.178464,56.8333333 85.9795222,56.6334784 85.9795222,56.3869449 L85.9795222,44.4463911 C85.9795222,44.3280011 86.0263364,44.2144597 86.1096681,44.1307451 C86.1929997,44.0470304 86.3060221,44 86.4238712,44 L86.894198,44" id="Path" stroke="#3F3D56"></path>
                <path d="M86.894198,75.1666667 L86.4547052,75.1666667 C86.1922695,75.1666667 85.9795222,74.97811 85.9795222,74.7455149 L85.9795222,62.7544825 C85.9795222,62.5218878 86.19227,62.3333333 86.4547052,62.3333333 L86.894198,62.3333333" id="Path" stroke="#3F3D56"></path>
                <rect id="Rectangle" stroke="#3F3D56" x="87.8088737" y="4.58333333" width="94.2116041" height="192.5" rx="35.69395"></rect>
                <rect id="Rectangle" fill="#F2F2F2" fill-rule="nonzero" x="124.395904" y="10.0833333" width="12.8054608" height="2.75" rx="1.375"></rect>
                <ellipse id="Oval" fill="#F2F2F2" fill-rule="nonzero" cx="141.317406" cy="12.375" rx="1.37201365" ry="1.375"></ellipse>
                <rect id="Rectangle" stroke="#3F3D56" x="125.31058" y="10.0833333" width="12.8054608" height="2.75" rx="1.375"></rect>
                <ellipse id="Oval" stroke="#3F3D56" cx="142.232082" cy="11.4583333" rx="1.37201365" ry="1.375"></ellipse>
                <path d="M176.532423,16.6496548 L176.532423,183.186408 C176.532423,187.318367 173.154699,190.666667 168.989826,190.666667 L100.839526,190.666667 C96.6746525,190.666667 93.2969283,187.318367 93.2969283,183.186408 L93.2969283,16.6496548 C93.2969283,14.6649895 94.0913602,12.7615608 95.5059098,11.3581904 C96.9204593,9.95482011 98.8390508,9.16666667 100.839526,9.16666667 L111.03758,9.16666667 L111.03758,10.4661568 C111.038563,13.8687425 113.818631,16.6268397 117.248322,16.6278147 L151.906847,16.6278147 C155.336944,16.6278147 158.117588,13.8691465 158.117588,10.4661568 L158.117588,9.16666667 L168.989826,9.16666667 C170.990301,9.16666667 172.908892,9.95482011 174.323442,11.3581904 C175.737991,12.7615608 176.532423,14.6649895 176.532423,16.6496548 Z" id="Path" stroke="#3F3D56"></path>
                <rect id="Rectangle" stroke="#3F3D56" x="95.1262799" y="24.75" width="8.23208191" height="1"></rect>
                <rect id="Rectangle" stroke="#3F3D56" x="95.1262799" y="27.5" width="8.23208191" height="1"></rect>
                <rect id="Rectangle" stroke="#3F3D56" x="95.1262799" y="29.3333333" width="8.23208191" height="1"></rect>
                <path d="M172.472476,28.5391992 L172.264046,28.5391992 L172.185787,28.4733957 C172.446677,28.1598672 172.589696,27.7638731 172.589786,27.3548009 C172.583565,26.4168622 171.824033,25.6613411 170.892747,25.6666949 C169.961461,25.6721059 169.210589,26.4363564 169.215037,27.3743052 C169.219524,28.3122541 169.977642,29.0692138 170.908937,29.0655972 C171.313897,29.0630735 171.705397,28.9188732 172.016429,28.657677 L172.094568,28.7234941 L172.094568,28.9340131 L173.397522,30.25 L173.788396,29.8552044 L172.472476,28.5391992 Z M170.908928,28.539204 C170.43298,28.540563 170.003144,28.2528588 169.820067,27.8103875 C169.636991,27.3679162 169.736777,26.8579317 170.072844,26.5184958 C170.408911,26.1790599 170.914989,26.0771082 171.35484,26.2602321 C171.79469,26.443356 172.081595,26.8754439 172.081595,27.3547963 C172.083322,27.6688706 171.960444,27.9706382 171.740247,28.1930419 C171.52005,28.4154455 171.220776,28.5400618 170.908928,28.539204 L170.908928,28.539204 Z" id="Shape" stroke="#3F3D56"></path>
                <path d="M217.692833,46.75 C217.989335,40.983222 222.669504,36.462124 228.342791,36.4620159 C228.666913,36.4620159 228.986975,36.4792227 229.303732,36.5080373 C231.839024,32.0684105 236.502239,29.3357626 241.547234,29.3333333 C246.592228,29.3309073 251.25798,32.0590663 253.797394,36.4962512 C254.064628,36.4758198 254.333655,36.4620159 254.606015,36.4620159 C260.279302,36.462124 264.959471,40.983222 265.255973,46.75" id="Path" fill="#F2F2F2" fill-rule="nonzero"></path>
                <path d="M220.43686,45.8333333 C220.733365,40.0665559 225.413532,35.5454592 231.086818,35.5453498 C231.41094,35.5453498 231.731002,35.5625538 232.047762,35.5913712 C234.583054,31.1517445 239.246267,28.4190965 244.291261,28.4166667 C249.336255,28.4142401 254.002006,31.1423981 256.541421,35.5795823 C256.808655,35.5591537 257.077683,35.5453498 257.350045,35.5453498 C263.02333,35.5454593 267.703497,40.0665563 268,45.8333333" id="Path" stroke="#3F3D56"></path>
                <path d="M189.337884,107.25 C189.634386,101.483222 194.314555,96.962124 199.987842,96.9620159 C200.311964,96.9620159 200.632026,96.9792227 200.948783,97.0080373 C203.484075,92.5684105 208.14729,89.8357626 213.192285,89.8333333 C218.23728,89.8309073 222.903031,92.5590663 225.442445,96.9962512 C225.709679,96.9758198 225.978706,96.9620159 226.251066,96.9620159 C231.924353,96.962124 236.604522,101.483222 236.901024,107.25" id="Path" fill="#F2F2F2" fill-rule="nonzero"></path>
                <path d="M191.167235,105.416667 C191.46374,99.6498892 196.143908,95.1287926 201.817193,95.1286831 C202.141316,95.1286831 202.461378,95.1458871 202.778137,95.1747045 C205.313429,90.7350779 209.976643,88.0024298 215.021637,88 C220.066631,87.9975734 224.732382,90.7257314 227.271797,95.1629156 C227.539031,95.142487 227.808058,95.1286831 228.08042,95.1286831 C233.753705,95.1287926 238.433872,99.6498896 238.730375,105.416667" id="Path" stroke="#3F3D56"></path>
                <path d="M10.9761092,18.3333333 C11.2726111,12.5665554 15.95278,8.04545736 21.6260671,8.0453492 C21.9501895,8.0453492 22.2702514,8.06255603 22.5870084,8.09137063 C25.1223001,3.65174387 29.7855151,0.919095895 34.83051,0.916666667 C39.8755049,0.914240676 44.5412561,3.64239963 47.0806705,8.07958449 C47.3479044,8.05915312 47.6169317,8.0453492 47.8892912,8.0453492 C53.5625783,8.04545736 58.2427472,12.5665554 58.5392491,18.3333333" id="Path" fill="#F2F2F2" fill-rule="nonzero"></path>
                <path d="M13.7201365,17.4166667 C14.0166412,11.6498892 18.6968089,7.12879257 24.3700944,7.12868309 C24.6942168,7.12868309 25.0142787,7.14588713 25.3310385,7.17470453 C27.86633,2.73507786 32.5295439,0.00242980333 37.5745378,0 C42.6195318,-0.00242656424 47.2852826,2.72573141 49.8246978,7.16291559 C50.0919317,7.14248701 50.360959,7.12868309 50.6333213,7.12868309 C56.3066063,7.12879265 60.9867732,11.6498896 61.2832765,17.4166667" id="Path" stroke="#3F3D56"></path>
                <rect id="Rectangle" fill="#6C63FF" fill-rule="nonzero" x="95.1262799" y="53.1666667" width="64.9419795" height="35.75" rx="12.54724"></rect>
                <rect id="Rectangle" stroke="#3F3D56" x="99.6996587" y="46.75" width="64.9419795" height="35.75" rx="12.54724"></rect>
                <path d="M122.039331,71.7855232 L127.577816,77.5411605 C127.822023,77.7894413 128.156984,77.9251468 128.503662,77.9162557 L128.520195,77.9162557 C128.866872,77.9251468 129.201833,77.7894413 129.44604,77.5411605 L134.984525,71.7855232 C135.231712,71.5524773 135.372014,71.2265214 135.372014,70.8852933 C135.372014,70.5440652 135.231712,70.2181092 134.984525,69.9850634 C134.458908,69.4891058 133.641937,69.4891058 133.11632,69.9850634 L129.834568,73.4442883 L129.834568,64.5253359 C129.802914,63.8119498 129.220128,63.25 128.511945,63.25 C127.803762,63.25 127.220977,63.8119498 127.189323,64.5253359 L127.189323,73.4442883 L123.907571,69.9850634 C123.381954,69.4891032 122.564982,69.4891032 122.039365,69.9850634 C121.792179,70.2181092 121.651877,70.5440652 121.651877,70.8852933 C121.651877,71.2265214 121.792179,71.5524773 122.039365,71.7855232 L122.039331,71.7855232 Z" id="Path" fill="#FFFFFF" fill-rule="nonzero"></path>
                <rect id="Rectangle" fill="#6C63FF" fill-rule="nonzero" transform="translate(135.829352, 133.375000) rotate(-180.000000) translate(-135.829352, -133.375000) " x="103.358362" y="115.5" width="64.9419795" height="35.75" rx="12.54724"></rect>
                <rect id="Rectangle" stroke="#3F3D56" transform="translate(132.170648, 126.958333) rotate(-180.000000) translate(-132.170648, -126.958333) " x="99.6996587" y="109.083333" width="64.9419795" height="35.75" rx="12.54724"></rect>
                <path d="M142.301932,134.118859 C142.549118,133.885813 142.68942,133.559857 142.68942,133.218629 C142.68942,132.877401 142.549118,132.551445 142.301932,132.318399 C141.776315,131.822439 140.959342,131.822439 140.433726,132.318399 L137.151974,135.777624 L137.151974,126.858669 C137.12032,126.145283 136.537534,125.583333 135.829352,125.583333 C135.121169,125.583333 134.538383,126.145283 134.506729,126.858669 L134.506729,135.777622 L131.224977,132.318397 C130.69936,131.822439 129.882389,131.822439 129.356771,132.318397 C129.109585,132.551443 128.969283,132.877398 128.969283,133.218627 C128.969283,133.559855 129.109585,133.885811 129.356771,134.118856 L134.895257,139.874494 C135.139463,140.122775 135.474425,140.258481 135.821102,140.249589 L135.837635,140.249589 C136.184313,140.25848 136.519274,140.122775 136.763481,139.874494 L142.301966,134.118856 L142.301932,134.118859 Z" id="Path" fill="#FFFFFF" fill-rule="nonzero"></path>
                <path d="M59.6163432,209.831132 L59.616206,209.831635 C59.616206,209.831635 59.4963265,209.898268 59.2915066,210.002202 C59.4017996,209.945068 59.5100785,209.888044 59.6163432,209.831132 Z" id="Path" fill="url(#linearGradient-1)" fill-rule="nonzero"></path>
                <path d="M27.586667,180.572732 C25.5648943,186.505081 27.9240508,196.134836 29.0195782,200.433204 C30.1138821,204.73287 30.4512552,209.891432 30.4512552,209.891432 C34.7475096,210.578814 37.8648311,209.718618 37.8648311,209.718618 L36.0957811,200.86395 C37.3593886,195.618983 36.0957811,181.604449 36.0957811,181.604449 C36.0957811,181.604449 38.959135,176.187955 39.2118549,167.934253 C39.4607833,159.809517 41.4231742,157.18381 41.4850836,157.102558 L41.4863502,157.101266 C45.5298927,159.251103 50.6689735,182.293116 50.6689735,182.293116 C50.2481841,187.881131 50.7536266,196.479168 52.4380235,201.121874 C53.4596219,204.070645 53.8893546,207.199082 53.7016311,210.320885 C54.2904629,210.829004 55.1092924,210.915407 55.9938174,210.769678 C58.3997172,210.372466 61.2832765,208.257461 61.2832765,208.257461 C61.2832765,208.257461 60.3570419,183.152014 59.6822958,182.206713 C59.0087839,181.261404 59.6822958,175.844913 59.6822958,175.844913 L58.5879919,167.075352 C58.5879919,167.075352 58.7560613,152.200631 57.1550807,149.621349 C55.773952,147.394146 55.4555204,143.48008 55.3936056,142.45224 C55.3847668,142.289743 55.3809726,142.199468 55.3809726,142.199468 L52.9434687,139.21911 C52.9434687,139.21911 29.3557035,137.413613 27.586667,139.21911 C27.1519781,139.662746 26.8840948,140.669956 26.724883,141.938964 C26.238382,145.838839 26.7956528,152.200631 26.7956528,152.200631 C26.7956528,152.200631 27.5032561,156.92975 28.5141411,161.743974 C29.1216721,164.63428 29.1216721,167.623227 28.5141411,170.513532 C28.8467053,173.896258 28.5317033,177.312707 27.586667,180.572732 L27.586667,180.572732 Z" id="Path" fill="#575A89" fill-rule="nonzero"></path>
                <path d="M28.8118328,218.23596 C29.8410851,219.590536 35.8954549,219.015471 36.9259167,218.593095 C37.5548386,218.334481 37.5078856,217.154766 37.3373747,215.939333 C37.2298798,215.165983 37.0717218,214.377858 37.0074726,213.802767 C36.8431302,212.325043 37.5017065,209.32771 37.5017065,209.32771 C37.5017065,209.32771 36.1425732,210.76481 35.8138779,209.32771 C35.669551,208.699532 35.1626665,208.377517 34.6380906,208.214022 C33.932207,208.001794 33.1733285,208.04923 32.499582,208.347694 C31.4298772,208.809957 29.644406,209.796452 29.9646324,211.130553 C30.4180843,213.0159 28.8118196,215.690588 28.8118196,215.690588 C28.6870608,215.847086 28.5859127,216.020911 28.5115797,216.206555 C28.2230407,216.885762 28.3388722,217.668665 28.8118328,218.23596 L28.8118328,218.23596 Z" id="Path" fill="#CBCEDA" fill-rule="nonzero"></path>
                <path d="M28.8145234,218.342152 C29.8498621,219.526974 35.9400335,219.023976 36.9765888,218.654531 C37.6092298,218.428326 37.561999,217.396451 37.3904799,216.333333 C36.7366554,216.598595 35.6243412,216.818823 33.7703145,216.670236 C33.3375152,216.635167 32.9026077,216.623604 32.4681417,216.635615 C31.1492784,216.687051 29.8279519,216.664151 28.512516,216.567059 C28.2222606,217.161147 28.3387691,217.845943 28.8145234,218.342152 Z" id="Path" fill="#000000" fill-rule="nonzero" opacity="0.1"></path>
                <path d="M50.423637,182.492366 C49.999154,188.041369 50.5090332,196.57938 52.2082156,201.189673 C53.2387814,204.117858 53.6722863,207.224454 53.4829149,210.324463 C54.0769155,210.829035 54.9029325,210.914834 55.7952218,210.770123 C55.2828009,207.168971 53.097955,191.654046 51.6983364,179.397067 C50.1049628,165.438119 42.6479716,155.833333 42.6479716,155.833333 L41.1604096,157.476385 C45.2394459,159.611219 50.423637,182.492366 50.423637,182.492366 Z" id="Path" fill="#000000" fill-rule="nonzero" opacity="0.1"></path>
                <path d="M31.0989761,92.6960716 L32.1402163,97.7941114 L37.2388777,106.333333 L43.5284402,103.656863 C43.5284402,103.656863 52.0770001,94.7352935 46.7045773,93.4607944 C46.0609653,93.3236027 45.4531943,93.054022 44.9201721,92.66931 C43.8661544,91.87657 43.5335632,90.7244085 43.5284402,89.5964699 C43.5702038,88.3319252 43.8673431,87.0887399 44.4021081,85.9411766 L33.4014317,82.5 C33.8555607,83.940032 34.1208368,85.4325439 34.1906574,86.9403876 C34.2750996,89.9253055 33.1622384,91.3960775 32.2489177,92.0970576 C31.9091121,92.3705032 31.5182614,92.5741005 31.0989761,92.6960716 Z" id="Path" fill="#FBBEBE" fill-rule="nonzero"></path>
                <path d="M32.9283276,82.5 C33.3814425,84.0798633 33.6461261,85.7173023 33.7157908,87.371562 C33.915834,87.6322129 34.1288738,87.8805516 34.3539354,88.1154417 C36.6628915,90.5314554 39.9956129,91.3647969 43.0327201,90.2855576 C43.0743905,88.898222 43.3708661,87.5343198 43.9044369,86.2753248 L32.9283276,82.5 Z" id="Path" fill="#000000" fill-rule="nonzero" opacity="0.1"></path>
                <path d="M32.0136519,81.1253497 C32.0138882,85.9347299 35.9042742,89.8333333 40.703209,89.8333333 C45.5021437,89.8333333 49.3924915,85.9345151 49.3924915,81.1251349 C49.3924915,76.3157547 45.5023527,72.416902 40.7034179,72.4166667 C38.3961382,72.4081074 36.1808763,73.3228523 34.5493721,74.9579082 C32.9178679,76.592964 32.0051105,78.813048 32.0136519,81.1253497 Z" id="Path" fill="#FBBEBE" fill-rule="nonzero"></path>
                <path d="M31.0989761,93.1618865 L32.1402163,98.08579 L37.2388777,106.333333 L43.5284402,103.748285 C43.5284402,103.748285 52.0770001,95.1314536 46.7045773,93.9004883 C46.0609653,93.7679827 45.4531943,93.5076102 44.9201721,93.136039 C45.8910324,95.7013962 41.8860332,101.040137 41.8860332,101.040137 C41.4204076,101.699939 40.3510428,101.286333 40.3510428,101.286333 C37.7722589,100.910887 33.0228071,93.7712276 32.2489013,92.5833333 C31.9091006,92.8474368 31.5182556,93.0440797 31.0989761,93.1618865 Z" id="Path" fill="#000000" fill-rule="nonzero" opacity="0.1"></path>
                <path d="M25.6109215,143.269213 C27.137112,143.566578 35.5872193,145.170571 38.7904978,144.769296 C42.3163317,144.327119 49.1718856,144.033073 49.1718856,144.033073 C49.1718856,144.033073 53.5375552,144.235371 54.8805461,143.709179 C54.871522,143.569891 54.8676483,143.492509 54.8676483,143.492509 L52.3790543,140.937831 C52.3790543,140.937831 28.2968895,139.390211 26.4907739,140.937831 C26.046974,141.318099 25.7734758,142.18145 25.6109215,143.269213 Z" id="Path" fill="#000000" fill-rule="nonzero" opacity="0.1"></path>
                <path d="M41.6888234,101.645408 C41.6888234,101.645408 46.2697808,95.3427673 44.5436748,92.88941 L52.2816427,96.0407303 C52.2816427,96.0407303 56.9391502,95.4800876 58.6198501,102.382563 C58.8892492,103.529876 58.9862085,104.710463 58.9075775,105.885965 C58.8465285,106.926739 58.988977,108.759037 60.1828403,111.130259 C62.093021,114.924195 61.6588899,123.633001 57.7517129,124.495261 C53.8445358,125.35752 52.4553018,124.926378 52.4553018,124.926378 C52.4553018,124.926378 52.9762597,140.705702 55.2337475,142.516444 C57.4912353,144.327185 49.4779248,143.896057 49.4779248,143.896057 C49.4779248,143.896057 42.557094,144.240959 38.9972101,144.758316 C35.4373262,145.275674 25.4522943,142.947572 25.4522943,142.947572 C25.4522943,142.947572 26.9283412,136.308185 27.4493018,132.083121 C27.9702625,127.858057 29.1858318,118.861367 29.1858318,118.861367 L20.3295313,106.948301 C20.3295313,106.948301 18.7666438,99.7484455 24.2367167,96.5580902 C29.7067896,93.3677349 31.7653349,92.5833333 31.7653349,92.5833333 C31.7653349,92.5833333 37.2606774,101.472953 40.125947,101.904089 C40.125947,101.904084 41.2144022,102.338409 41.6888234,101.645408 Z" id="Path" fill="#3F3D56" fill-rule="nonzero"></path>
                <path d="M51.8072159,103.583333 C51.8072159,103.583333 51.8803903,106.354324 51.4413556,107.44593 C51.002321,108.537535 49.3924915,114.583333 49.3924915,114.583333 L53.0511945,114.583333 C53.0511945,114.583333 51.0754931,112.148219 51.2218418,110.972647 C51.3681906,109.797074 51.8072159,103.583333 51.8072159,103.583333 Z" id="Path" fill="#000000" fill-rule="nonzero" opacity="0.1"></path>
                <path d="M39.5462696,124.666667 C39.5462696,124.666667 48.903289,122.371225 49.7753782,120.415847 C50.6474673,118.46047 53.0511945,114.084683 53.0511945,114.084683 L52.0635141,112.75 L47.5120163,116.335058 C47.5120163,116.335058 42.088516,120.670884 39.5462696,121.095979 C37.0040231,121.521073 39.5462696,124.666667 39.5462696,124.666667 Z" id="Path" fill="#FBBEBE" fill-rule="nonzero"></path>
                <path d="M39.5462696,124.666667 C39.5462696,124.666667 48.903289,122.371225 49.7753782,120.415847 C50.6474673,118.46047 53.0511945,114.084683 53.0511945,114.084683 L52.0635141,112.75 L47.5120163,116.335058 C47.5120163,116.335058 42.088516,120.670884 39.5462696,121.095979 C37.0040231,121.521073 39.5462696,124.666667 39.5462696,124.666667 Z" id="Path" fill="#000000" fill-rule="nonzero" opacity="0.05"></path>
                <path d="M31.0989761,114.619528 L31.0989761,119.692866 L31.9378532,119.692866 C36.0824057,119.692685 40.1587784,120.718219 43.7829181,122.672848 L45.3548477,123.521369 L45.7782265,123.75 L48.4778157,117.837035 L45.9519943,115.635708 C45.9519943,115.635708 45.9062938,115.640787 45.822634,115.647145 C45.2045767,115.705571 42.5324218,115.922784 41.3995401,115.550605 C40.3241296,115.196205 38.9873987,114.069502 35.8186996,114.857053 C34.2585156,115.244472 32.9257082,116.945327 31.4112721,116.414366 L31.0989761,114.619528 Z" id="Path" fill="#FBBEBE" fill-rule="nonzero"></path>
                <path d="M22.7303214,103.91338 L21.0375427,105.841252 L21.0375427,110.510979 C21.0375427,110.510979 22.476406,125.248462 27.0469115,126.876441 C31.617417,128.504421 39.7763884,125.933927 39.7763884,125.933927 C39.7763884,125.933927 41.8835969,120.278845 40.8978157,119.936114 C39.9120345,119.593383 32.1852459,117.527262 32.1852459,117.527262 C32.1852459,117.527262 32.2945263,108.882996 30.6017476,106.31251 C30.6017476,106.31251 31.7020536,98.2583036 27.8932995,98.0869368 C24.0845454,97.9155699 22.7303214,103.91338 22.7303214,103.91338 Z" id="Path" fill="#000000" fill-rule="nonzero" opacity="0.1"></path>
                <path d="M22.7303215,103.91338 L21.0375427,105.841252 L21.0375427,110.510979 C21.0375427,110.510979 22.4764035,125.248462 27.0469093,126.876441 C31.6174151,128.504421 39.7763873,125.933927 39.7763873,125.933927 C39.7763873,125.933927 41.8835987,120.278845 40.8978147,119.936114 C39.9120306,119.593383 32.1852442,117.527262 32.1852442,117.527262 C32.1852442,117.527262 32.2945245,108.882996 30.6017457,106.31251 C30.6017457,106.31251 31.7020518,98.2583036 27.8933001,98.0869368 C24.0845484,97.9155699 22.7303215,103.91338 22.7303215,103.91338 Z" id="Path" fill="#3F3D56" fill-rule="nonzero"></path>
                <path d="M34.5272573,84.5472182 C34.4491007,83.9982198 34.5195035,83.4397835 34.732099,82.9224123 C34.9854353,82.424208 35.5784087,82.031146 36.1565269,82.1575911 C36.9260282,82.3240792 37.2575265,83.2541498 38.0108504,83.4769624 C38.6455734,83.6647293 39.3396026,83.2466404 39.6428158,82.6946023 C39.9460318,82.1438243 39.9541248,81.4979014 39.9554726,80.8795228 C39.9568234,80.1822888 39.9586167,79.4850495 39.9608526,78.7878048 C39.9622005,78.0292276 39.986465,77.2093099 40.4904733,76.6134701 C41.1171033,75.8711664 42.5887239,75.5469517 43.5711311,75.5769919 C44.2255612,75.58353 44.8533777,75.8185864 45.3297645,76.2354296 C45.8566866,76.6510198 46.4644637,76.9564544 47.1813894,76.8475535 C47.7903335,76.7616681 48.2920094,76.3584872 48.4710706,75.8110779 C48.4739545,75.8024678 48.476208,75.7936864 48.4778157,75.7847937 C46.3939715,73.2327818 42.9441558,71.9835294 39.5506322,72.5520687 C36.1571086,73.120608 33.3945312,75.4106635 32.4018343,78.4781086 C31.4091375,81.5455536 32.3544229,84.8709518 34.8479756,87.0833333 C34.6906013,86.2441294 34.5835304,85.3974536 34.5272573,84.5472182 L34.5272573,84.5472182 Z" id="Path" fill="#000000" fill-rule="nonzero" opacity="0.1"></path>
                <path d="M46.8961657,77.4910706 C47.4629924,77.4021673 47.9299397,76.9866904 48.0969912,76.4226091 C48.1672882,76.1449504 48.1488318,75.848724 48.2283102,75.5736927 C48.4235673,74.8979997 49.1250289,74.545671 49.59519,74.0327496 C50.5376015,73.0046288 50.4763789,71.3131266 49.8092753,70.0779483 C49.2708958,69.0811113 48.226475,68.2393893 47.1339911,68.4342316 C46.4576312,68.5548604 45.8724459,69.0506886 45.1873621,69.0953432 C44.5278161,69.1383306 43.9239015,68.7583826 43.3226728,68.4762285 C41.8725979,67.8014836 40.2427983,67.652729 38.6998366,68.0542946 C38.2254614,68.1513604 37.7857426,68.3794389 37.4278714,68.7140527 C37.1846833,69.0281749 36.9581835,69.3555859 36.7493634,69.6948529 C35.9692152,70.7165579 34.5739246,70.9160882 33.3310231,71.148011 C32.0881216,71.3799338 30.6814746,71.8843485 30.2729668,73.113609 C30.0021051,73.928683 30.2648502,74.8139205 30.4204791,75.6602783 C30.4717427,75.8338724 30.4599543,76.0207057 30.3873062,76.1860312 C30.1934349,76.5158442 29.7080223,76.3778251 29.3412589,76.456977 C28.6360681,76.6091592 28.4548346,77.5434616 28.4288768,78.2839836 C28.3991693,79.1315161 28.3767865,79.979276 28.3617285,80.8272634 C28.3416481,81.1438542 28.3662315,81.4617672 28.4347141,81.7711151 C28.5882263,82.2127198 28.8305826,82.6160615 29.145959,82.9548049 L31.907482,86.3665262 C33.1318923,87.8792256 34.4322176,89.6423881 34.185457,91.5941559 C34.7658323,91.8619763 35.4550038,91.3467549 35.6453304,90.7225284 C35.835657,90.098302 35.6819436,89.4257922 35.5529948,88.7851824 C35.3301094,87.6776969 35.1842077,86.5552923 35.1163972,85.4264876 C35.0434551,84.8606735 35.1092808,84.2850829 35.3078822,83.7521116 C35.543051,83.2379577 36.0956707,82.8336561 36.6336623,82.963042 C37.3500142,83.1353189 37.6582409,84.0933943 38.3591861,84.3231547 C38.950075,84.5168387 39.5968656,84.0852866 39.8786262,83.5171185 C40.1603869,82.9489504 40.167931,82.283943 40.169397,81.646156 L40.1743462,79.4903817 C40.1761386,78.7092713 40.1985624,77.8636949 40.6673324,77.2491004 C41.2505915,76.4844064 42.6211015,76.150362 43.5357817,76.180925 C44.1447143,76.1882506 44.7287543,76.4305458 45.1721775,76.8598011 C45.6629352,77.2882499 46.2281365,77.6029864 46.8961657,77.4910706 Z" id="Path" fill="#3F3D56" fill-rule="nonzero"></path>
                <path d="M43.9044369,103.583333 L41.5651609,114.583333 C41.5651609,114.583333 39.7213318,114.571022 43.9044369,103.583333 Z" id="Path" fill="#000000" fill-rule="nonzero" opacity="0.1"></path>
                <path d="M35.6723549,101.75 C35.6723549,101.75 38.2852485,107.58502 37.265582,113.61817 L36.778773,113.666667 C36.778773,113.666667 37.6479585,110.874461 35.6723549,101.75 Z" id="Path" fill="#000000" fill-rule="nonzero" opacity="0.1"></path>
                <path d="M32.9283276,134.089117 C32.9283276,134.089117 28.6646196,132.895076 28.3549488,135.666667 C28.3549488,135.666667 29.1595245,133.766437 32.9283276,134.089117 Z" id="Path" fill="#000000" fill-rule="nonzero" opacity="0.1"></path>
                <path d="M45.5197156,115.5 C45.5197156,115.5 46.3954701,121.312376 44.8191126,123.637321 C44.8191126,123.637321 48.025562,124.882828 52.525743,124.633728 L53.0511945,115.5 L45.5197156,115.5 Z" id="Path" fill="#000000" fill-rule="nonzero" opacity="0.1"></path>
                <path d="M45.7337884,122.600878 L46.1057944,122.833333 L48.4778157,116.821477 L46.2584772,114.583333 L46.1436628,114.583333 C46.1437921,114.587236 46.1441767,114.591123 46.1448135,114.594962 C46.1792638,114.872638 46.7981043,120.048904 45.7337884,122.600878 Z" id="Path" fill="#000000" fill-rule="nonzero" opacity="0.1"></path>
                <path d="M44.6183304,114.583333 C44.6183304,114.583333 45.5106981,120.395704 43.9044369,122.720655 C43.9044369,122.720655 47.1717131,123.966163 51.7572634,123.717061 L54.8805461,114.583333 L44.6183304,114.583333 Z" id="Path" fill="#3F3D56" fill-rule="nonzero"></path>
                <path d="M52.1486845,217.014451 C52.2502746,217.879469 52.9278201,218.566546 53.7958191,218.684756 C56.0993872,219.026827 61.6473839,218.011167 63.0485798,218.67377 C64.8298001,219.51735 71.8694486,218.926717 72.2091426,218.084402 C72.3058132,217.743611 72.2618579,217.378573 72.0870062,217.070088 C71.8461136,216.555972 71.4480346,216.130615 70.9495619,215.8547 C70.787416,215.76306 70.6165184,215.687649 70.4393832,215.629574 C69.1136252,215.189453 66.6084781,214.256066 65.9328669,213.278433 C65.9328669,213.278433 62.8112802,210.563308 61.9203363,209.094868 C61.5804738,208.508748 60.9686717,208.129992 60.2895927,208.085303 C59.546567,208.052263 58.7189352,208.423777 58.3805164,210.041994 C58.3805164,210.041994 54.3117011,212.350127 53.2098688,210.32656 C53.2098688,210.32656 53.040673,215.323264 52.3650754,216.173174 C52.3638029,216.174439 52.3625276,216.17695 52.3612551,216.178221 C52.1811721,216.41769 52.1046578,216.718689 52.1486845,217.014451 L52.1486845,217.014451 Z" id="Path" fill="#CBCEDA" fill-rule="nonzero"></path>
                <path d="M52.1486842,217.321155 C52.2502743,218.057938 52.9278198,218.643158 53.7958188,218.743844 C56.0993869,219.035204 61.6473838,218.170112 63.0485796,218.734487 C64.8298,219.453009 71.8694486,218.949935 72.2091426,218.23249 C72.3058132,217.94222 72.2618579,217.631297 72.0870062,217.368544 C71.8461136,216.930644 71.4480345,216.568345 70.9495619,216.333333 C69.801959,216.977519 67.2535374,217.60878 61.649047,216.867639 C56.3028382,216.160966 53.6564475,217.076425 52.3650751,216.604597 C52.3638026,216.605675 52.3625273,216.607813 52.3612548,216.608895 C52.1811725,216.812863 52.1046582,217.06924 52.1486842,217.321155 L52.1486842,217.321155 Z" id="Path" fill="#000000" fill-rule="nonzero" opacity="0.1"></path>
                <g id="Group" opacity="0.1" transform="translate(27.440273, 70.583333)" fill="#000000" fill-rule="nonzero">
                    <path d="M2.35014092,4.1132845 C2.34771097,4.09943304 2.34534714,4.08550975 2.34276015,4.07184614 C2.22071154,3.42464532 2.03537123,2.75488546 2.07681541,2.11075936 C2.1322534,2.64002112 2.22107959,3.16522891 2.34276015,3.68322619 C2.37847821,3.82406111 2.38100517,3.97130063 2.35014092,4.1132845 L2.35014092,4.1132845 Z" id="Path"></path>
                    <path d="M7.37593988,12.1970901 C7.23989232,12.5084083 7.16796228,12.8440753 7.16446519,13.1839528 C7.12545503,12.7151416 7.19793151,12.2437389 7.37593988,11.8084756 C7.61813611,11.2921979 8.18724351,10.8862319 8.7412753,11.0161439 C9.47899437,11.1891352 9.79641441,12.1511653 10.5182809,12.3818775 C11.1268131,12.5763615 11.7929064,12.1430213 12.0830735,11.5725146 C12.3732406,11.0020079 12.3809988,10.3342398 12.3825141,9.69382107 C12.3842167,8.97225958 12.3859093,8.25070085 12.3875917,7.52914489 C12.3894513,6.74480521 12.4125386,5.89573605 12.8952891,5.2786029 C13.4959693,4.5107474 14.9073526,4.17532324 15.8493254,4.20601801 C16.476425,4.21336929 17.0778901,4.45666606 17.5345383,4.88769831 C18.0399959,5.31792237 18.622052,5.63395338 19.3100177,5.52157808 C19.8937518,5.43230203 20.3746269,5.01511236 20.5466676,4.44870589 C20.6190509,4.16990034 20.6000494,3.8724503 20.6819101,3.59628299 C20.882979,2.91779897 21.605369,2.5640121 22.0895713,2.04897477 C22.5416056,1.5472097 22.7993351,0.899615313 22.8160167,0.223642808 C22.8878969,1.03040793 22.6251295,1.83123127 22.0895713,2.43759473 C21.605369,2.95263758 20.882979,3.30641893 20.6819101,3.98490295 C20.6000494,4.26107025 20.6190509,4.5585203 20.5466676,4.83732584 C20.3746269,5.40373231 19.8937518,5.82092198 19.3100177,5.91019804 C18.622052,6.02257057 18.0399959,5.70654233 17.5345383,5.27631826 C17.0778896,4.84528639 16.4764251,4.60198885 15.8493254,4.59463521 C14.9073526,4.5639432 13.4959638,4.89936735 12.8952891,5.66722285 C12.4125386,6.284356 12.3894624,7.13342516 12.3875917,7.91776484 C12.3859184,8.63931712 12.3842259,9.36087585 12.3825141,10.082441 C12.3809988,10.7228598 12.3732406,11.3906168 12.0830735,11.9611345 C11.7929064,12.5316523 11.1268131,12.9649898 10.5182809,12.7704975 C9.79642543,12.5397853 9.47900539,11.5777552 8.7412753,11.4047611 C8.18724627,11.2748408 7.61813611,11.6808124 7.37593988,12.1970901 Z" id="Path"></path>
                    <path d="M0.297740738,9.81930194 C0.455838878,10.2627255 0.705420003,10.6677321 1.03019215,11.0078838 C1.97815624,12.1498163 2.92613227,13.2917524 3.87412024,14.4336922 C5.0713151,15.8758658 6.33795921,17.544884 6.24554941,19.3873438 C6.15919244,17.6983744 4.98659739,16.1624148 3.87412024,14.8223121 C2.92615431,13.6803797 1.97817828,12.5384427 1.03019215,11.396501 C0.70541882,11.0563502 0.455837531,10.6513434 0.297740738,10.2079191 C0.227228338,9.89740459 0.201912369,9.5782905 0.222580287,9.26050295 C0.225178782,9.4491188 0.250413834,9.63673505 0.297740738,9.81930194 L0.297740738,9.81930194 Z" id="Path"></path>
                    <path d="M7.72348086,18.8076958 C7.76957855,18.6574806 7.79811381,18.5024034 7.80851264,18.3455835 C7.8331222,18.6319954 7.80428601,18.9204977 7.72348086,19.1963157 C7.52748953,19.8231178 6.81774522,20.3404619 6.22005144,20.071538 C6.23620512,19.9461672 6.24604395,19.8200593 6.24953045,19.6936948 C6.84092894,19.9332472 7.53067712,19.4242985 7.72348086,18.8076958 Z" id="Path"></path>
                </g>
                <path d="M63.112628,209.916667 C63.112628,209.916667 62.3215565,211.81924 59.4539249,210.14242" id="Path" fill="#000000" fill-rule="nonzero" opacity="0.1"></path>
                <path d="M35.6723549,209.916667 C35.6723549,209.916667 32.8390168,213.189227 29.2696246,210.989731" id="Path" fill="#000000" fill-rule="nonzero" opacity="0.1"></path>
                <path d="M28.3549488,171.416667 C28.3549488,171.416667 30.1243462,172.464018 30.1818439,173.063301 C30.2393416,173.662585 29.2683963,172.627458 29.2683963,172.627458 L28.3549488,171.416667 Z" id="Path" fill="#000000" fill-rule="nonzero" opacity="0.1"></path>
                <path d="M27.440273,180.583333 C27.9718189,181.007891 28.6327576,181.255317 29.3235824,181.288361 C30.4659341,181.336006 30.3708429,182.765327 29.6237079,182.336522 C28.8765729,181.907717 27.440273,180.583333 27.440273,180.583333 Z" id="Path" fill="#000000" fill-rule="nonzero" opacity="0.1"></path>
                <path d="M26.5255973,182.416667 C26.5255973,182.416667 27.5350667,186.824942 28.3549488,185.974367" id="Path" fill="#000000" fill-rule="nonzero" opacity="0.1"></path>
                <path d="M3.61426037,176.585415 C5.8043543,177.383424 8.25845225,176.707876 9.73466924,174.900629 C11.2108862,173.093382 11.3871772,170.548697 10.1743309,168.554301 C8.96148465,166.559904 6.62409036,165.550885 4.34497571,166.037852 L4.4823157,168.86854 L3.14612905,166.442615 C1.83473916,167.060215 0.821634355,168.174392 0.329447624,169.540304 C0.154652589,170.018765 0.0483907403,170.51964 0.0138316426,171.027989 C-0.159474746,173.478627 1.3102,175.747138 3.61426037,176.585415 L3.61426037,176.585415 Z" id="Path" fill="#57B894" fill-rule="nonzero"></path>
                <path d="M11.1132181,210.833333 C10.6332847,208.316646 12.7129362,206.085526 14.767154,204.635307 C16.8213717,203.185089 19.2216128,201.760183 19.9225094,199.299082 C20.929826,195.762047 17.9293369,192.522787 15.5939611,189.729388 C13.8613347,187.656369 12.3734161,185.379181 11.1613413,182.945477 C10.6755008,181.969633 10.2289819,180.949512 10.1011184,179.860827 C9.91698466,178.292996 10.406114,176.732854 10.8988998,175.23735 C12.5405138,170.255379 14.2956878,165.315151 16.1644215,160.416667" id="Path" stroke="#3F3D56"></path>
                <path d="M4.528938,176.585416 C6.71903189,177.383424 9.17312951,176.707875 10.649346,174.900628 C12.1255624,173.09338 12.3018527,170.548695 11.089006,168.554299 C9.87615931,166.559903 7.53876492,165.550884 5.25965061,166.037852 L5.39699323,168.868541 L4.06080673,166.442616 C2.74941601,167.060214 1.73631031,168.174392 1.24412301,169.540304 C1.06932923,170.018765 0.963067434,170.51964 0.928507072,171.027989 C0.75520289,173.478628 2.22487804,175.747137 4.528938,176.585416 L4.528938,176.585416 Z" id="Path" stroke="#3F3D56"></path>
                <path d="M10.3908929,160.373574 C11.0279772,158.611691 12.5170574,157.296761 14.3411613,156.885295 L14.7930498,159.576974 L15.6308376,156.75 C18.0176403,156.785477 20.1077939,158.363361 20.8007974,160.652869 C21.4938009,162.942378 20.6306784,165.418294 18.6658783,166.777008 C16.7010783,168.135721 14.0853286,168.065539 12.1958654,166.603416 C10.3064022,165.141292 9.57667103,162.622638 10.3908876,160.373569 L10.3908929,160.373574 Z" id="Path" fill="#57B894" fill-rule="nonzero"></path>
                <path d="M10.3908955,159.456902 C11.0279808,157.695021 12.5170612,156.380094 14.3411639,155.968631 L14.7930498,158.66031 L15.6308376,155.833333 C18.0176403,155.86881 20.1077939,157.446694 20.8007974,159.736203 C21.4938009,162.025711 20.6306784,164.501628 18.6658783,165.860341 C16.7010783,167.219054 14.0853286,167.148873 12.1958654,165.686749 C10.3064022,164.224625 9.57667103,161.705972 10.3908876,159.456902 L10.3908955,159.456902 Z" id="Path" stroke="#3F3D56"></path>
                <path d="M13.6800727,190.336165 C16.3020109,191.289425 19.2202488,190.119186 20.4625897,187.616318 C21.7049307,185.11345 20.8759179,182.074654 18.5358128,180.553602 L17.8922421,182.725391 L17.4359043,180.002795 C17.4313925,180.000662 17.4267208,179.998886 17.4219321,179.997484 C15.5789994,179.326162 13.51871,179.691712 12.0176945,180.956339 C10.5166791,182.220965 9.80316678,184.192382 10.1461177,186.12746 C10.4890687,188.062537 11.8363372,189.667047 13.6800675,190.336165 L13.6800727,190.336165 Z" id="Path" fill="#57B894" fill-rule="nonzero"></path>
                <path d="M14.5947556,188.502831 C17.2166912,189.456091 20.1349263,188.285853 21.3772661,185.782985 C22.6196058,183.280117 21.7905938,180.241321 19.450491,178.720269 L18.8069235,180.892058 L18.350573,178.169462 C18.3460613,178.167328 18.3413896,178.165552 18.3366008,178.164151 C16.4936699,177.492829 14.4333824,177.858379 12.9323684,179.123005 C11.4313544,180.387632 10.7178428,182.359049 11.0607934,184.294126 C11.403744,186.229204 12.7510113,187.833713 14.5947398,188.502831 L14.5947556,188.502831 Z" id="Path" stroke="#3F3D56"></path>
                <path d="M8.31641356,198.952137 C8.76548611,201.513388 10.9429252,203.409324 13.535912,203.49685 C16.1288989,203.584376 18.4286605,201.839568 19.0486276,199.314403 C19.6685948,196.789238 18.4393041,194.17395 16.1019181,193.045346 C13.7645321,191.916742 10.957957,192.583316 9.37432958,194.643179 L11.8202866,198.333231 L8.47819064,196.374679 C8.21905761,197.208438 8.1635748,198.092399 8.31641356,198.952137 L8.31641356,198.952137 Z" id="Path" fill="#57B894" fill-rule="nonzero"></path>
                <path d="M9.23108911,198.035466 C9.68015981,200.596717 11.8575976,202.492655 14.4505845,202.580183 C17.0435713,202.667711 19.3433341,200.922904 19.9633027,198.397739 C20.5832713,195.872574 19.353982,193.257286 17.0165965,192.128681 C14.679211,191.000075 11.8726355,191.666648 10.2890072,193.72651 L12.7349603,197.416564 L9.39286874,195.457993 C9.13373384,196.291757 9.07825016,197.175724 9.23108911,198.035466 Z" id="Path" stroke="#3F3D56"></path>
                <path d="M1.82935154,214.521005 C1.82935154,214.521005 6.99146375,212.519321 8.54719517,211.423179 C10.1029266,210.327036 16.487823,209.018183 16.8737617,210.776154 C17.2597004,212.534125 24.6314561,219.519507 18.8034579,219.566022 C12.9754598,219.612536 5.26178207,220.512154 3.70904974,219.57629 C2.15631741,218.640425 1.82935154,214.521005 1.82935154,214.521005 Z" id="Path" fill="#656380" fill-rule="nonzero"></path>
                <path d="M18.908655,219.126107 C13.0802488,219.16498 5.36603385,219.916628 3.81319,219.134688 C2.6306154,218.539207 2.15937052,216.402471 2.00169485,215.416667 C1.89249995,215.420547 1.82935154,215.422218 1.82935154,215.422218 C1.82935154,215.422218 2.15633187,218.864048 3.70917853,219.64598 C5.26202519,220.427913 12.9762401,219.676272 18.8046435,219.637399 C20.487073,219.626182 21.0682155,219.131361 21.0363054,218.398488 C20.8025762,218.841271 20.1609107,219.11776 18.908655,219.126107 Z" id="Path" fill="#000000" fill-rule="nonzero" opacity="0.2"></path>
                <path d="M13.7201365,219.083333 L87.8088737,219.083333" id="Path" stroke="#3F3D56"></path>
            </g>
        </g>
    </g>
</svg>