<?xml version="1.0" encoding="UTF-8"?>
<svg width="680px" height="488px" viewBox="0 0 680 488" version="1.1" xmlns="http://www.w3.org/2000/svg" xmlns:xlink="http://www.w3.org/1999/xlink">
    <!-- Generator: Sketch 58 (84663) - https://sketch.com -->
    <title>undraw_Outer_space_drqu (1)</title>
    <desc>Created with Sketch.</desc>
    <defs>
        <linearGradient x1="50%" y1="100%" x2="50%" y2="0.0362318841%" id="linearGradient-1">
            <stop stop-color="#808080" stop-opacity="0.25" offset="0%"></stop>
            <stop stop-color="#808080" stop-opacity="0.12" offset="54%"></stop>
            <stop stop-color="#808080" stop-opacity="0.1" offset="100%"></stop>
        </linearGradient>
        <linearGradient x1="50%" y1="99.9565972%" x2="50%" y2="0%" id="linearGradient-2">
            <stop stop-color="#808080" stop-opacity="0.25" offset="0%"></stop>
            <stop stop-color="#808080" stop-opacity="0.12" offset="54%"></stop>
            <stop stop-color="#808080" stop-opacity="0.1" offset="100%"></stop>
        </linearGradient>
        <linearGradient x1="49.9931239%" y1="100.004517%" x2="49.9931239%" y2="-0.00210674363%" id="linearGradient-3">
            <stop stop-color="#808080" stop-opacity="0.25" offset="0%"></stop>
            <stop stop-color="#808080" stop-opacity="0.12" offset="54%"></stop>
            <stop stop-color="#808080" stop-opacity="0.1" offset="100%"></stop>
        </linearGradient>
        <linearGradient x1="50.0210704%" y1="0%" x2="50.0210704%" y2="100%" id="linearGradient-4">
            <stop stop-color="#E0E0E0" offset="0%"></stop>
            <stop stop-color="#FCCC63" offset="31%"></stop>
            <stop stop-color="#F55F44" offset="77%"></stop>
        </linearGradient>
        <linearGradient x1="50%" y1="0%" x2="50%" y2="100%" id="linearGradient-5">
            <stop stop-color="#E0E0E0" offset="0%"></stop>
            <stop stop-color="#FCCC63" offset="31%"></stop>
            <stop stop-color="#F55F44" offset="77%"></stop>
        </linearGradient>
        <linearGradient x1="49.971933%" y1="99.9126132%" x2="49.971933%" y2="-0.086983954%" id="linearGradient-6">
            <stop stop-color="#808080" stop-opacity="0.25" offset="0%"></stop>
            <stop stop-color="#808080" stop-opacity="0.12" offset="54%"></stop>
            <stop stop-color="#808080" stop-opacity="0.1" offset="100%"></stop>
        </linearGradient>
        <linearGradient x1="50.2887832%" y1="99.9990848%" x2="50.2887832%" y2="0.186964431%" id="linearGradient-7">
            <stop stop-color="#808080" stop-opacity="0.25" offset="0%"></stop>
            <stop stop-color="#808080" stop-opacity="0.12" offset="54%"></stop>
            <stop stop-color="#808080" stop-opacity="0.1" offset="100%"></stop>
        </linearGradient>
    </defs>
    <g id="Landing-Page" stroke="none" stroke-width="1" fill="none" fill-rule="evenodd">
        <g id="Home" transform="translate(-397.000000, -136.000000)">
            <g id="undraw_Outer_space_drqu-(1)" transform="translate(737.000000, 378.500000) scale(-1, 1) translate(-737.000000, -378.500000) translate(400.000000, 136.000000)">
                <path d="M588.395723,421.908334 C582.919861,422.378989 577.410775,422.305453 571.949447,421.688808 C511.911633,415.055559 430.155235,416.942297 363.509224,458.207271 C271.33883,515.266257 126.890651,466.418733 63.1717212,439.844209 C14.4859938,419.546945 -10.7890235,369.833183 4.3926113,323.169054 C4.60635351,322.510476 4.82603302,321.851898 5.05758709,321.193319 C14.6106768,293.461833 33.4674902,271.758415 56.8188275,260.254061 C77.1718365,250.227058 106.887942,229.289014 120.110273,189.056407 C125.572574,172.443621 133.065426,156.815736 142.796635,143.193252 C168.855373,106.710387 223.407137,52.3806443 317.228096,52.7172619 C333.677693,52.7984684 350.004048,55.5600465 365.563524,60.8946971 C399.839463,72.5651791 430.796461,96.2917972 454.403102,129.185113 C469.465991,150.164689 492.039544,169.666913 524.35618,171.256994 C569.206422,173.475987 612.008301,194.342833 644.117132,231.478342 C645.043348,232.546307 645.95769,233.620205 646.872032,234.705969 C704.042138,302.764993 664.333583,415.275086 588.395723,421.908334 Z" id="Path" stroke="#3030F2" stroke-width="5" fill="#232133" fill-rule="nonzero"></path>
                <g id="Group" opacity="0.7" transform="translate(154.000000, 396.717262)" fill="url(#linearGradient-1)" fill-rule="nonzero">
                    <circle id="Oval" cx="8.97517241" cy="8.88206897" r="8.56551724"></circle>
                </g>
                <circle id="Oval" fill="#3030F2" fill-rule="nonzero" opacity="0.2" cx="163" cy="405.717262" r="8"></circle>
                <circle id="Oval" fill="#FFFFFF" fill-rule="nonzero" cx="119" cy="247.717262" r="3"></circle>
                <circle id="Oval" fill="#FFFFFF" fill-rule="nonzero" cx="336" cy="423.717262" r="3"></circle>
                <circle id="Oval" fill="#FFFFFF" fill-rule="nonzero" cx="209" cy="437.717262" r="2"></circle>
                <circle id="Oval" fill="#FFFFFF" fill-rule="nonzero" cx="584" cy="356.717262" r="2"></circle>
                <circle id="Oval" fill="#FFFFFF" fill-rule="nonzero" cx="486" cy="203.717262" r="2"></circle>
                <circle id="Oval" fill="#FFFFFF" fill-rule="nonzero" cx="624" cy="277.717262" r="2"></circle>
                <circle id="Oval" fill="#FFFFFF" fill-rule="nonzero" cx="174" cy="147.717262" r="3"></circle>
                <polygon id="Path" fill="#FFFFFF" fill-rule="nonzero" points="90 351.211767 87.5077768 351.211767 87.5077768 348.717262 86.4922232 348.717262 86.4922232 351.211767 84 351.211767 84 352.228251 86.4922232 352.228251 86.4922232 354.717262 87.5077768 354.717262 87.5077768 352.228251 90 352.228251"></polygon>
                <polygon id="Path" fill="#FFFFFF" fill-rule="nonzero" points="158 350.211767 155.507777 350.211767 155.507777 347.717262 154.492223 347.717262 154.492223 350.211767 152 350.211767 152 351.228251 154.492223 351.228251 154.492223 353.717262 155.507777 353.717262 155.507777 351.228251 158 351.228251"></polygon>
                <polygon id="Path" fill="#FFFFFF" fill-rule="nonzero" points="255 404.211767 252.507777 404.211767 252.507777 401.717262 251.492223 401.717262 251.492223 404.211767 249 404.211767 249 405.228251 251.492223 405.228251 251.492223 407.717262 252.507777 407.717262 252.507777 405.228251 255 405.228251"></polygon>
                <polygon id="Path" fill="#FFFFFF" fill-rule="nonzero" points="389 78.9642499 387.753012 78.9642499 387.753012 77.7172619 387.246988 77.7172619 387.246988 78.9642499 386 78.9642499 386 79.470274 387.246988 79.470274 387.246988 80.7172619 387.753012 80.7172619 387.753012 79.470274 389 79.470274"></polygon>
                <polygon id="Path" fill="#FFFFFF" fill-rule="nonzero" points="565 191.96425 563.753012 191.96425 563.753012 190.717262 563.246988 190.717262 563.246988 191.96425 562 191.96425 562 192.470274 563.246988 192.470274 563.246988 193.717262 563.753012 193.717262 563.753012 192.470274 565 192.470274"></polygon>
                <polygon id="Path" fill="#FFFFFF" fill-rule="nonzero" points="461 263.96425 459.753012 263.96425 459.753012 262.717262 459.246988 262.717262 459.246988 263.96425 458 263.96425 458 264.470274 459.246988 264.470274 459.246988 265.717262 459.753012 265.717262 459.753012 264.470274 461 264.470274"></polygon>
                <polygon id="Path" fill="#FFFFFF" fill-rule="nonzero" points="41 310.96425 39.753012 310.96425 39.753012 309.717262 39.246988 309.717262 39.246988 310.96425 38 310.96425 38 311.470274 39.246988 311.470274 39.246988 312.717262 39.753012 312.717262 39.753012 311.470274 41 311.470274"></polygon>
                <polygon id="Path" fill="#FFFFFF" fill-rule="nonzero" points="91 411.96425 89.753012 411.96425 89.753012 410.717262 89.246988 410.717262 89.246988 411.96425 88 411.96425 88 412.470274 89.246988 412.470274 89.246988 413.717262 89.753012 413.717262 89.753012 412.470274 91 412.470274"></polygon>
                <polygon id="Path" fill="#FFFFFF" fill-rule="nonzero" points="251 92.9642499 249.753012 92.9642499 249.753012 91.7172619 249.246988 91.7172619 249.246988 92.9642499 248 92.9642499 248 93.470274 249.246988 93.470274 249.246988 94.7172619 249.753012 94.7172619 249.753012 93.470274 251 93.470274"></polygon>
                <polygon id="Path" fill="#FFFFFF" fill-rule="nonzero" points="176 269.96425 174.753012 269.96425 174.753012 268.717262 174.246988 268.717262 174.246988 269.96425 173 269.96425 173 270.470274 174.246988 270.470274 174.246988 271.717262 174.753012 271.717262 174.753012 270.470274 176 270.470274"></polygon>
                <polygon id="Path" fill="#FFFFFF" fill-rule="nonzero" points="192 219.96425 190.753012 219.96425 190.753012 218.717262 190.246988 218.717262 190.246988 219.96425 189 219.96425 189 220.470274 190.246988 220.470274 190.246988 221.717262 190.753012 221.717262 190.753012 220.470274 192 220.470274"></polygon>
                <g id="Group" opacity="0.7" transform="translate(436.000000, 322.717262)" fill="url(#linearGradient-2)" fill-rule="nonzero">
                    <circle id="Oval" cx="7.59375" cy="7.28125" r="7.2"></circle>
                </g>
                <circle id="Oval" fill="#3030F2" fill-rule="nonzero" opacity="0.2" cx="444" cy="330.717262" r="6"></circle>
                <circle id="Oval" fill="#3030F2" fill-rule="nonzero" opacity="0.2" cx="460.5" cy="375.217262" r="7.5"></circle>
                <g id="Group" opacity="0.7" transform="translate(224.000000, 0.717262)" fill="url(#linearGradient-3)" fill-rule="nonzero">
                    <path d="M172.982663,182.371203 C173.03119,167.484198 169.460953,152.807993 162.578385,139.604286 C159.31457,133.403083 156.336117,129.55406 154.04134,127.18406 C152.244004,125.286931 149.435699,124.74679 147.06189,125.841654 C146.136152,126.169682 145.299591,126.708601 144.618488,127.415714 C141.521134,130.623233 138.721031,134.864286 136.295464,139.372632 C129.05901,152.891072 125.305754,167.997196 125.374467,183.327519 L125.374467,192.522406 L119.471065,192.522406 L119.471065,85.5991729 C119.471065,63.1940602 114.453471,41.0918797 104.608522,21.4903759 C99.9476289,12.2004511 95.6909966,6.42691729 92.4271821,2.88082707 C90.824299,1.05512057 88.5115636,0.00831195179 86.0808763,0.00831195179 C83.650189,0.00831195179 81.3374535,1.05512057 79.7345704,2.88082707 C75.3114777,7.68616541 71.3164261,14.0418045 67.8445361,20.7954135 C57.5061512,40.8245865 52.256701,63.5623308 52.256701,86.6208271 L52.256701,192.480827 L47.1558763,192.480827 L47.1558763,182.840451 C47.2206499,167.520051 43.4674825,152.424489 36.2348797,138.915263 C33.7914777,134.406917 30.9913746,130.165865 27.9118557,126.958346 C26.0755968,125.009901 23.1826768,124.48481 20.7778351,125.663459 L20.9918557,125.776316 C20.2452296,126.108267 19.5691804,126.580082 19.0002749,127.166241 C16.7114433,129.54218 13.7329897,133.385263 10.4691753,139.586466 C3.58660691,152.790173 0.0163703993,167.466378 0.0648970438,182.353383 L0.0648970438,342.135338 L18.2809278,342.135338 L16.271512,355.268346 L16.271512,394.548571 L31.1697251,394.548571 L31.1697251,355.268346 L29.1781443,342.129398 L47.1320962,342.129398 L47.1320962,196.603083 L52.232921,196.603083 L52.232921,341.499774 L66.780378,341.499774 L64.693677,355.268346 L64.693677,394.548571 L79.59189,394.548571 L79.59189,355.268346 L77.505189,341.481955 L97.1237457,341.481955 L95.0251546,355.268346 L95.0251546,394.548571 L109.923368,394.548571 L109.923368,355.268346 L107.836667,341.481955 L119.45323,341.481955 L119.45323,196.620902 L125.356632,196.620902 L125.356632,342.366992 L130.142371,342.366992 L130.142371,342.147218 L145.968007,342.147218 L143.982371,355.268346 L143.982371,394.548571 L158.880584,394.548571 L158.880584,355.268346 L156.889003,342.129398 L172.982663,342.129398 L172.982663,182.371203 Z" id="Path"></path>
                </g>
                <polygon id="Path" fill="#535461" fill-rule="nonzero" points="259 347.717262 244 347.717262 246.680152 329.717262 256.319848 329.717262"></polygon>
                <g id="Group" opacity="0.1" transform="translate(247.000000, 331.717262)" fill="#000000" fill-rule="nonzero">
                    <polygon id="Path" points="0.422631579 5.92 10.6178947 5.92 9.93473684 0.553333333 1.10578947 0.553333333"></polygon>
                </g>
                <polygon id="Path" fill="#535461" fill-rule="nonzero" points="380 347.717262 365 347.717262 367.674958 329.717262 377.325042 329.717262"></polygon>
                <g id="Group" opacity="0.1" transform="translate(367.000000, 331.717262)" fill="#000000" fill-rule="nonzero">
                    <polygon id="Path" points="0.0444444444 5.92 9.83333333 5.92 9.17777778 0.553333333 0.7 0.553333333"></polygon>
                </g>
                <polygon id="Path" fill="#535461" fill-rule="nonzero" points="305 347.717262 290 347.717262 292.674958 329.717262 302.325042 329.717262"></polygon>
                <g id="Group" opacity="0.1" transform="translate(292.000000, 331.717262)" fill="#000000" fill-rule="nonzero">
                    <polygon id="Path" points="0.480526316 5.92 10.6815789 5.92 9.99842105 0.553333333 1.16368421 0.553333333"></polygon>
                </g>
                <polygon id="Path" fill="#535461" fill-rule="nonzero" points="333 347.717262 318 347.717262 320.674958 329.717262 330.318718 329.717262"></polygon>
                <g id="Group" opacity="0.1" transform="translate(321.000000, 331.717262)" fill="#000000" fill-rule="nonzero">
                    <polygon id="Path" points="0.0722222222 5.92 9.86111111 5.92 9.2 0.553333333 0.727777778 0.553333333"></polygon>
                </g>
                <rect id="Rectangle" fill="#535461" fill-rule="nonzero" x="259" y="190.717262" width="101" height="4"></rect>
                <path d="M374.897993,126.581078 C373.811768,125.394306 372.268711,124.717262 370.650152,124.717262 C369.031593,124.717262 367.488537,125.394306 366.402312,126.581078 C363.444423,129.702337 360.768523,133.826433 358.434611,138.211623 C351.511547,151.407956 347.931148,166.069285 348.001003,180.936073 L348.001003,335.717262 L392.999313,335.717262 L392.999313,180.283338 C393.055639,165.8279 389.64874,151.564881 383.057686,138.662603 C379.931804,132.633709 377.08791,128.859715 374.897993,126.581078 Z" id="Path" fill="#A6A6A6" fill-rule="nonzero"></path>
                <path d="M247.09604,126.581078 C248.182266,125.394306 249.725326,124.717262 251.343888,124.717262 C252.962449,124.717262 254.505509,125.394306 255.591736,126.581078 C258.55563,129.702337 261.225534,133.826433 263.56545,138.211623 C270.485819,151.408957 274.06606,166.069617 273.999077,180.936073 L273.999077,335.717262 L229.000687,335.717262 L229.000687,180.283338 C228.944361,165.8279 232.351265,151.564881 238.942331,138.662603 C242.06222,132.633709 244.906118,128.859715 247.09604,126.581078 Z" id="Path" fill="#A6A6A6" fill-rule="nonzero"></path>
                <polygon id="Path" fill="#535461" fill-rule="nonzero" points="230 183.717262 240 183.770371 240 196.717262 230 196.717262"></polygon>
                <polygon id="Path" fill="#535461" fill-rule="nonzero" points="265 183.717262 275 183.770371 275 196.717262 265 196.717262"></polygon>
                <polygon id="Path" fill="#535461" fill-rule="nonzero" points="349 183.717262 359 183.770371 359 196.717262 349 196.717262"></polygon>
                <polygon id="Path" fill="#535461" fill-rule="nonzero" points="382 183.717262 392 183.770371 392 196.717262 382 196.717262"></polygon>
                <g id="Group" opacity="0.1" transform="translate(249.000000, 123.717262)" fill="#000000" fill-rule="nonzero">
                    <path d="M14.7848837,13.9070868 C12.5174419,9.53932773 9.93023256,5.43162465 7.05813953,2.32277311 C5.3913847,0.443802451 2.69512405,-0.0714905607 0.470930233,1.06386555 C1.09419085,1.38003023 1.65721082,1.80629561 2.13372093,2.32277311 C5,5.43162465 7.59302326,9.53932773 9.85465116,13.9070868 C16.5637364,27.0507987 20.0332717,41.653961 19.9651163,56.4617087 L19.9651163,210.615826 L24.8953488,210.615826 L24.8953488,56.467619 C24.9614304,41.6582321 21.4920401,27.0536517 14.7848837,13.9070868 Z" id="Path"></path>
                </g>
                <g id="Group" opacity="0.1" transform="translate(347.000000, 124.717262)" fill="#000000" fill-rule="nonzero">
                    <path d="M15.1130952,13.7415966 C17.4285714,9.37383754 20.0833333,5.26613445 23.0178571,2.15728291 C23.566518,1.56851522 24.2310158,1.09779907 24.9702381,0.774257703 C22.7330283,-0.197959767 20.1203496,0.358968013 18.4821429,2.15728291 C15.5416667,5.26613445 12.8869048,9.37383754 10.5714286,13.7415966 C3.705738,26.8864722 0.153784057,41.4888561 0.220238095,56.2962185 L0.220238095,210.473978 L4.76190476,210.473978 L4.76190476,56.3080392 C4.69067277,41.4963526 8.24284398,26.8890191 15.1130952,13.7415966 L15.1130952,13.7415966 Z" id="Path"></path>
                </g>
                <path d="M251.705436,385.717262 L251.294564,385.717262 C247.265887,385.717262 244,382.668627 244,378.907945 L244,347.717262 L259,347.717262 L259,378.907945 C259,380.713888 258.231468,382.445865 256.863472,383.722859 C255.495476,384.999854 253.640075,385.717262 251.705436,385.717262 Z" id="Path" fill="url(#linearGradient-4)" fill-rule="nonzero"></path>
                <path d="M297.708685,385.717262 L297.291315,385.717262 C293.26341,385.714005 290,382.666324 290,378.907945 L290,347.717262 L305,347.717262 L305,378.907945 C305,382.666324 301.73659,385.714005 297.708685,385.717262 Z" id="Path" fill="url(#linearGradient-5)" fill-rule="nonzero"></path>
                <path d="M325.702361,385.717262 L325.278668,385.717262 C321.255704,385.707503 318,382.661725 318,378.907945 L318,347.717262 L333,347.717262 L333,378.907945 C333,382.668627 329.732736,385.717262 325.702361,385.717262 Z" id="Path" fill="url(#linearGradient-5)" fill-rule="nonzero"></path>
                <path d="M372.708685,385.717262 L372.310287,385.717262 C370.372642,385.720385 368.513208,385.004361 367.141899,383.727027 C365.770589,382.449693 365,380.715926 365,378.907937 L365,347.717262 L380,347.717262 L380,378.907937 C380,382.666314 376.73659,385.713995 372.708685,385.717262 Z" id="Path" fill="url(#linearGradient-5)" fill-rule="nonzero"></path>
                <path d="M316.699907,4.51328714 C315.223198,2.74071077 313.045398,1.7172619 310.750234,1.7172619 C308.45507,1.7172619 306.277269,2.74071077 304.800561,4.51328714 C300.679065,9.19399828 296.910841,15.3775266 293.613645,21.9590341 C283.922243,41.4659572 279,63.6102352 279,86.0633927 L279,334.717262 L342,334.717262 L342,85.0654746 C342,63.2478959 337.28972,41.7035567 328.081121,22.6361928 C323.753551,13.58959 319.767477,7.9644206 316.699907,4.51328714 Z" id="Path" fill="#B3B3B3" fill-rule="nonzero"></path>
                <rect id="Rectangle" fill="#535461" fill-rule="nonzero" x="294" y="32.7172619" width="33" height="16" rx="8"></rect>
                <g id="Group" opacity="0.1" transform="translate(279.000000, 94.717262)" fill="#000000" fill-rule="nonzero">
                    <rect id="Rectangle" x="0.282616822" y="0.21" width="62.3582243" height="2.466"></rect>
                </g>
                <path d="M450.956241,185.634665 L450.956241,185.634665 C449.337805,183.50998 447.313398,181.727772 445.000492,180.391458 L445.000492,180.391458 C437.716981,176.192882 428.584734,176.994841 422.144968,182.398544 C415.705202,187.802248 413.33218,196.654531 416.205939,204.553395 C419.079699,212.45226 426.586974,217.712068 434.994601,217.717262 C435.420011,217.717262 435.845422,217.717262 436.259178,217.670656 C443.604827,217.207305 450.102305,212.748019 453.174398,206.061568 C456.246492,199.375116 455.396691,191.542156 450.962069,185.669619 L450.956241,185.634665 Z" id="Path" fill="url(#linearGradient-6)" fill-rule="nonzero"></path>
                <path d="M454,197.723189 C453.998387,207.74625 446.210181,216.043087 436.208796,216.676285 C435.816687,216.676285 435.412874,216.717262 435.009061,216.717262 C427.019867,216.722021 419.881423,211.726865 417.147697,204.218693 C414.41397,196.710521 416.669217,188.293989 422.790632,183.159376 C428.912047,178.024763 437.591355,177.269445 444.50745,181.269467 L444.50745,181.269467 C446.707043,182.545961 448.629194,184.249516 450.160836,186.279921 L450.160836,186.279921 C452.656297,189.572336 454.004764,193.59168 454,197.723189 Z" id="Path" fill="#3030F2" fill-rule="nonzero" opacity="0.2"></path>
                <path d="M430.181814,185.918994 C429.3003,186.356201 428.449945,186.872525 427.638591,187.463202 C427.096944,187.804195 426.63114,188.285055 426.277651,188.86813 C425.919256,189.468516 425.906844,190.257612 426.246124,190.872573 C426.661237,191.526591 427.459935,191.623483 428.16405,191.671929 C428.90345,191.780469 429.654589,191.693489 430.36047,191.417588 C430.837092,191.14591 431.270544,190.783541 431.642591,190.345726 L433.108622,188.813628 C433.634082,188.280725 434.159541,187.547983 433.954612,186.797073 C433.708353,186.25221 433.239837,185.887688 432.709273,185.828158 C431.445458,185.544371 430.135224,185.809699 429.031058,186.573011" id="Path" fill="#000000" fill-rule="nonzero" opacity="0.1"></path>
                <g id="Group" opacity="0.1" transform="translate(423.000000, 204.717262)" fill="#000000" fill-rule="nonzero">
                    <circle id="Oval" cx="1" cy="0.91" r="1"></circle>
                </g>
                <g id="Group" opacity="0.1" transform="translate(441.000000, 195.717262)" fill="#000000" fill-rule="nonzero">
                    <ellipse id="Oval" cx="3.61846154" cy="4" rx="3.37076923" ry="3.57714286"></ellipse>
                </g>
                <g id="Group" opacity="0.1" transform="translate(440.000000, 181.717262)" fill="#000000" fill-rule="nonzero">
                    <path d="M9.77222222,5.25555556 L9.77222222,5.25555556 C9.74401006,7.78723582 7.73288183,9.85069438 5.20276115,9.94391577 C2.67264046,10.0371372 0.51511652,8.12727108 0.300676074,5.60453126 C0.0862356279,3.08179144 1.89044534,0.835166126 4.4,0.5 L4.4,0.5 C6.49003706,1.71095409 8.31663509,3.32788057 9.77222222,5.25555556 L9.77222222,5.25555556 Z" id="Path"></path>
                </g>
                <g id="Group" opacity="0.1" transform="translate(435.000000, 206.717262)" fill="#000000" fill-rule="nonzero">
                    <path d="M15.4892308,2.05 C12.0095088,6.52165161 6.46629628,9.32225456 0.424615385,9.66111111 C0.424615385,9.41111111 0.387692308,9.16111111 0.387692308,8.90555556 C0.391108754,5.67911626 2.40736864,2.72955223 5.60031379,1.28006992 C8.79325893,-0.16941239 12.618326,0.12839921 15.4892308,2.05 Z" id="Path"></path>
                </g>
                <path d="M189.12239,294.529168 L189.12239,294.529168 C187.95385,292.982353 186.489006,291.684282 184.813504,290.710849 L184.813504,290.710849 C179.54187,287.614584 172.896152,288.164456 168.203804,292.08515 C163.511455,296.005843 161.782505,302.453427 163.882623,308.199653 C165.982742,313.945878 171.459878,317.753869 177.571677,317.717262 C177.879455,317.717262 178.175163,317.717262 178.488975,317.686788 C183.785931,317.329837 188.463318,314.100234 190.678651,309.270165 C192.893983,304.440097 192.292188,298.783723 189.110321,294.529168 L189.12239,294.529168 Z" id="Path" fill="url(#linearGradient-7)" fill-rule="nonzero"></path>
                <path d="M191,303.247132 C190.998462,310.370764 185.461573,316.267315 178.351456,316.717262 C178.071173,316.717262 177.755109,316.717262 177.49868,316.717262 C171.823625,316.715879 166.755207,313.166108 164.81459,307.833699 C162.873974,302.501291 164.475452,296.524637 168.822408,292.876683 C173.169364,289.22873 179.333785,288.688262 184.249325,291.524123 L184.249325,291.524123 C185.815353,292.435331 187.182219,293.652004 188.268702,295.101847 L188.268702,295.101847 C190.046585,297.444637 191.006134,300.306236 191,303.247132 Z" id="Path" fill="#3030F2" fill-rule="nonzero" opacity="0.2"></path>
                <path d="M174.113269,294.855056 C173.4538,295.143208 172.818197,295.485785 172.212714,295.879416 C171.809058,296.110592 171.460421,296.430805 171.19194,296.816966 C170.93602,297.223898 170.93602,297.74691 171.19194,298.153842 C171.570703,298.537547 172.094049,298.73207 172.624407,298.686278 C173.178624,298.75967 173.741855,298.702268 174.271179,298.518445 C174.629759,298.33673 174.955815,298.094099 175.235556,297.800814 L176.329644,296.782241 C176.713139,296.423426 177.130472,295.937289 176.961283,295.439578 C176.785679,295.068916 176.431257,294.822037 176.030744,294.791395 C175.086779,294.601682 174.107796,294.77909 173.284243,295.289107" id="Path" fill="#000000" fill-rule="nonzero" opacity="0.1"></path>
                <g id="Group" opacity="0.1" transform="translate(167.000000, 308.717262)" fill="#000000" fill-rule="nonzero">
                    <circle id="Oval" cx="0.965" cy="0.97" r="1"></circle>
                </g>
                <g id="Group" opacity="0.1" transform="translate(181.000000, 301.717262)" fill="#000000" fill-rule="nonzero">
                    <ellipse id="Oval" cx="3.096" cy="2.93333333" rx="2.622" ry="2.91333333"></ellipse>
                </g>
                <g id="Group" opacity="0.1" transform="translate(182.000000, 292.717262)" fill="#000000" fill-rule="nonzero">
                    <path d="M6.84384615,3.43 L6.84384615,3.43 C6.83028209,5.15848372 5.45863243,6.57008635 3.73125025,6.63325862 C2.00386806,6.69643088 0.532772704,5.38879056 0.39298863,3.66591495 C0.253204556,1.94303935 1.4942579,0.415351107 3.20923077,0.199230769 L3.20923077,0.199230769 C4.62518897,1.02148791 5.86125086,2.12020959 6.84384615,3.43 Z" id="Path"></path>
                </g>
                <g id="Group" opacity="0.1" transform="translate(179.000000, 309.717262)" fill="#000000" fill-rule="nonzero">
                    <path d="M9.52777778,1.63692308 C7.33584667,4.66082306 3.84443062,6.55490526 0.0388888889,6.78461538 C0.0388888889,6.61769231 0.0388888889,6.44538462 0.0388888889,6.24615385 C0.0409421833,4.06448057 1.31073041,2.0699688 3.32167199,1.08974321 C5.33261356,0.10951762 7.7417455,0.310754171 9.55,1.61 L9.52777778,1.63692308 Z" id="Path"></path>
                </g>
                <polyline id="Path" points="497 320.717262 509 327.910473 499.631193 339.717262"></polyline>
                <circle id="Oval" fill="#FFFFFF" fill-rule="nonzero" cx="567" cy="254.717262" r="1"></circle>
            </g>
        </g>
    </g>
</svg>