<?xml version="1.0" encoding="UTF-8"?>
<svg width="44px" height="50px" viewBox="0 0 44 50" version="1.1" xmlns="http://www.w3.org/2000/svg" xmlns:xlink="http://www.w3.org/1999/xlink">
    <!-- Generator: Sketch 58 (84663) - https://sketch.com -->
    <title>Combined Shape</title>
    <desc>Created with Sketch.</desc>
    <g id="Landing-Page" stroke="none" stroke-width="1" fill="none" fill-rule="evenodd">
        <g id="Home" transform="translate(-50.000000, -35.000000)" fill="#FFFFFF">
            <path d="M82.9370888,45.011479 L85.6750196,52.5428963 L94,55.019839 L85.6750196,57.4967817 L82.945,65.005 L85.6750196,72.5146973 L94,74.99164 L85.6750196,77.4685827 L82.9370888,85 L80.199158,77.4685827 L71.8741776,74.99164 L80.199158,72.5146973 L82.929,65.005 L80.199158,57.4967817 L71.8741776,55.019839 L80.199158,52.5428963 L82.9370888,45.011479 Z M61.0629112,35 L63.800842,42.5314173 L72.1258224,45.00836 L63.800842,47.4853027 L61.07,54.994 L63.800842,62.5032183 L72.1258224,64.980161 L63.800842,67.4571037 L61.0629112,74.988521 L58.3249804,67.4571037 L50,64.980161 L58.3249804,62.5032183 L61.054,54.994 L58.3249804,47.4853027 L50,45.00836 L58.3249804,42.5314173 L61.0629112,35 Z" id="Combined-Shape"></path>
        </g>
    </g>
</svg>