<?xml version="1.0" encoding="UTF-8"?>
<svg width="375px" height="284px" viewBox="0 0 375 284" version="1.1" xmlns="http://www.w3.org/2000/svg" xmlns:xlink="http://www.w3.org/1999/xlink">
    <!-- Generator: Sketch 58 (84663) - https://sketch.com -->
    <title>pitch-illustration-5</title>
    <desc>Created with Sketch.</desc>
    <g id="Landing-Page" stroke="none" stroke-width="1" fill="none" fill-rule="evenodd">
        <g id="Home" transform="translate(-50.000000, -3194.000000)" fill-rule="nonzero">
            <g id="pitch-illustration-5" transform="translate(50.000000, 3194.000000)">
                <rect id="Rectangle" fill="#3F3D56" x="0" y="0" width="375" height="239"></rect>
                <circle id="Oval" fill="#F2F2F2" cx="34.5" cy="39.5" r="5.5"></circle>
                <circle id="Oval" fill="#F2F2F2" cx="165.5" cy="20.5" r="5.5"></circle>
                <circle id="Oval" fill="#F2F2F2" cx="160.5" cy="106.5" r="9.5"></circle>
                <circle id="Oval" fill="#FF6584" cx="128.5" cy="24.5" r="2.5"></circle>
                <circle id="Oval" fill="#FF6584" cx="24.5" cy="116.5" r="2.5"></circle>
                <circle id="Oval" fill="#FF6584" cx="344.5" cy="122.5" r="2.5"></circle>
                <circle id="Oval" fill="#F2F2F2" cx="92.5" cy="76.5" r="2.5"></circle>
                <circle id="Oval" fill="#F2F2F2" cx="346.5" cy="24.5" r="2.5"></circle>
                <circle id="Oval" fill="#F2F2F2" cx="34.5" cy="188.5" r="2.5"></circle>
                <circle id="Oval" fill="#F2F2F2" cx="312.5" cy="166.5" r="2.5"></circle>
                <circle id="Oval" fill="#F2F2F2" cx="245.5" cy="21.5" r="2.5"></circle>
                <path d="M281.5,65 C278.462434,65 276,62.5375661 276,59.5 C276,56.4624339 278.462434,54 281.5,54 C284.537566,54 287,56.4624339 287,59.5 C286.996621,62.5361655 284.536166,64.9966213 281.5,65 L281.5,65 Z M281.5,54.7333333 C278.867443,54.7333333 276.733333,56.8674427 276.733333,59.5 C276.733333,62.1325573 278.867443,64.2666667 281.5,64.2666667 C284.132557,64.2666667 286.266667,62.1325573 286.266667,59.5 C286.263688,56.8686774 284.131323,54.7363118 281.5,54.7333333 L281.5,54.7333333 Z" id="Shape" fill="#F2F2F2"></path>
                <path d="M271,80 C268.790861,80 267,78.209139 267,76 C267,73.790861 268.790861,72 271,72 C273.209139,72 275,73.790861 275,76 C274.997505,78.2081047 273.208105,79.9975051 271,80 L271,80 Z M271,72.7272727 C269.192523,72.7272727 267.727273,74.1925226 267.727273,76 C267.727273,77.8074774 269.192523,79.2727273 271,79.2727273 C272.807477,79.2727273 274.272727,77.8074774 274.272727,76 C274.270691,74.1933667 272.806633,72.7293088 271,72.7272727 L271,72.7272727 Z" id="Shape" fill="#F2F2F2"></path>
                <path d="M294,100 C291.790861,100 290,98.209139 290,96 C290,93.790861 291.790861,92 294,92 C296.209139,92 298,93.790861 298,96 C297.997505,98.2081047 296.208105,99.9975051 294,100 L294,100 Z M294,92.7272727 C292.192523,92.7272727 290.727273,94.1925226 290.727273,96 C290.727273,97.8074774 292.192523,99.2727273 294,99.2727273 C295.807477,99.2727273 297.272727,97.8074774 297.272727,96 C297.270691,94.1933667 295.806633,92.7293088 294,92.7272727 L294,92.7272727 Z" id="Shape" fill="#F2F2F2"></path>
                <path d="M287.5,106 C270.10303,106 256,91.8969696 256,74.5 C256,57.1030304 270.10303,43 287.5,43 C304.89697,43 319,57.1030304 319,74.5 C318.980312,91.8888081 304.888808,105.980312 287.5,106 L287.5,106 Z M287.5,43.7682927 C270.527347,43.7682927 256.768293,57.5273467 256.768293,74.5 C256.768293,91.4726533 270.527347,105.231707 287.5,105.231707 C304.472653,105.231707 318.231707,91.4726533 318.231707,74.5 C318.212567,57.535281 304.464719,43.7874325 287.5,43.7682927 L287.5,43.7682927 Z" id="Shape" fill="#F2F2F2"></path>
                <path d="M287,87 C260.644893,87 240,81.6061131 240,74.7201161 C240,70.7076789 246.12744,67.259774 257.253673,65.0114426 L257.411685,65.7400491 C246.835857,67.8770056 240.770492,71.1501119 240.770492,74.7201161 C240.770492,80.9730776 261.94096,86.2557646 287,86.2557646 C312.05904,86.2557646 333.229508,80.9730776 333.229508,74.7201161 C333.229508,71.1433915 327.143451,67.8661026 316.531884,65.7286064 L316.689141,65 C327.852246,67.2486923 334,70.7005938 334,74.7201161 C334,81.6061131 313.355107,87 287,87 Z" id="Path" fill="#F2F2F2"></path>
                <path d="M263.499986,209 C262.429254,209 261.347589,208.983042 260.285903,208.949875 L260.310023,208.178765 C261.834526,208.226254 263.390312,208.239445 264.921978,208.218338 L264.932533,208.990201 C264.455766,208.996608 263.978251,208.999874 263.499986,209 Z M269.576524,208.820978 L269.531297,208.050624 C271.058065,207.960547 272.604427,207.833915 274.127425,207.674491 L274.208085,208.441831 C272.673393,208.602761 271.115345,208.730535 269.576521,208.820978 L269.576524,208.820978 Z M255.646056,208.700753 C254.106475,208.582789 252.550689,208.428285 251.021659,208.240575 L251.115881,207.474741 C252.633224,207.660547 254.17695,207.814318 255.704849,207.931151 L255.646056,208.700753 Z M278.817021,207.852004 L278.701315,207.089187 C280.218285,206.85891 281.746932,206.591698 283.243548,206.294334 L283.393926,207.051123 C281.885625,207.350745 280.345669,207.62021 278.817018,207.852004 L278.817021,207.852004 Z M246.423837,207.569718 C244.902912,207.311916 243.367665,207.015694 241.860876,206.688556 L242.024631,205.934032 C243.51993,206.258906 245.043302,206.552877 246.552731,206.808407 L246.423837,207.569718 Z M287.93013,206.040688 L287.744702,205.291441 C289.23378,204.92322 290.731148,204.516185 292.195353,204.082012 L292.414701,204.822229 C290.939184,205.259783 289.430508,205.669835 287.930126,206.040688 L287.93013,206.040688 Z M237.343706,205.598226 C235.851799,205.201364 234.350476,204.76493 232.881373,204.30023 L233.113912,203.564548 C234.571896,204.025477 236.061727,204.458519 237.541948,204.851988 L237.343706,205.598226 Z M296.838213,203.397964 L296.584945,202.669063 C298.029927,202.166676 299.483202,201.623574 300.905194,201.054483 L301.191624,201.77132 C299.759078,202.344564 298.294498,202.891803 296.838209,203.397964 L296.838213,203.397964 Z M228.472179,202.793437 C227.023242,202.260898 225.565258,201.686145 224.139118,201.085389 L224.438743,200.373827 C225.853954,200.970061 227.30063,201.54029 228.738638,202.069063 L228.472179,202.793437 Z M305.455712,199.94982 L305.136115,199.247301 C306.523808,198.61677 307.918681,197.943651 309.28186,197.24679 L309.63312,197.934231 C308.259369,198.636383 306.853961,199.314399 305.455712,199.94982 Z M219.890664,199.180218 C218.497883,198.51652 217.099823,197.810613 215.735872,197.081715 L216.099566,196.401056 C217.453341,197.124291 218.840471,197.824935 220.2227,198.483731 L219.890664,199.180218 Z M313.714044,195.728327 L313.331883,195.058211 C314.662668,194.298786 315.991191,193.500541 317.279766,192.685334 L317.69208,193.337349 C316.393706,194.158971 315.055384,194.963623 313.714044,195.728327 L313.714044,195.728327 Z M211.683016,194.795133 C210.358264,194.00706 209.031624,193.17603 207.74022,192.325398 L208.164973,191.68092 C209.446385,192.525145 210.762851,193.349773 212.077616,194.131813 L211.683016,194.795133 Z M321.557415,190.766242 L321.115705,190.133805 C322.368852,189.258296 323.619362,188.34133 324.832557,187.408916 L325.302911,188.02098 C324.080678,188.960581 322.820361,189.884339 321.557423,190.766242 L321.557415,190.766242 Z M203.915581,189.679278 C202.669794,188.774372 201.425304,187.826505 200.216428,186.861298 L200.69807,186.25828 C201.8977,187.21595 203.132758,188.156658 204.368943,189.054401 L203.915581,189.679278 Z M328.919896,185.107664 L328.422407,184.517459 C329.590375,183.531901 330.752693,182.504887 331.877699,181.464682 L332.40157,182.031519 C331.268274,183.079647 330.09691,184.114577 328.919896,185.107664 Z M196.650363,183.878259 C195.490121,182.862175 194.337413,181.805386 193.224449,180.736912 L193.758875,180.179873 C194.863527,181.240433 196.007378,182.289306 197.158766,183.297857 L196.650363,183.878259 Z M335.740418,178.798972 L335.190917,178.257 C336.267666,177.165914 337.332763,176.036763 338.35601,174.901206 L338.929628,175.41754 C337.898458,176.562151 336.825464,177.699595 335.740406,178.798972 L335.740418,178.798972 Z M189.945933,177.44368 C188.881419,176.324328 187.830095,175.167286 186.821169,174.004968 L187.404215,173.49919 C188.405411,174.652835 189.448634,175.800831 190.505233,176.911515 L189.945933,177.44368 Z M341.96168,171.894038 L341.365446,171.404079 C342.338187,170.220276 343.295876,168.998787 344.212822,167.772779 L344.830915,168.23484 C343.907153,169.47028 342.94195,170.701568 341.961668,171.894038 L341.96168,171.894038 Z M183.856772,170.428695 C182.9008,169.220775 181.959532,167.973657 181.058957,166.722019 L181.685324,166.271251 C182.579107,167.51309 183.513219,168.750788 184.462032,169.950039 L183.856772,170.428695 Z M347.530174,164.447894 L346.891727,164.014466 C347.752536,162.747001 348.595615,161.442595 349.397268,160.136683 L350.055312,160.540707 C349.246878,161.856445 348.397377,163.171005 347.530162,164.447894 L347.530174,164.447894 Z M178.433944,162.892852 C177.592922,161.603524 176.769807,160.276885 175.9872,158.94874 L176.652025,158.556776 C177.428789,159.874732 178.24569,161.191589 179.080306,162.47074 L178.433944,162.892852 Z M352.398788,156.520844 L351.723408,156.147722 C352.46437,154.80676 353.184221,153.429606 353.863746,152.054358 L354.555721,152.396571 C353.871252,153.782011 353.145388,155.169709 352.398777,156.520844 L352.398788,156.520844 Z M173.723808,154.897963 C173.003957,153.537404 172.305961,152.14142 171.649237,150.749199 L172.347233,150.419803 C172.999071,151.801468 173.691587,153.186901 174.405973,154.536921 L173.723808,154.897963 Z M356.520795,148.176583 L355.813769,147.866777 C356.428847,146.462125 357.019419,145.023549 357.569306,143.59138 L358.289909,143.868016 C357.735866,145.311493 357.140385,146.760998 356.520784,148.176583 L356.520795,148.176583 Z M169.767632,146.511119 C169.175922,145.09101 168.609274,143.638113 168.083519,142.192378 L168.809024,141.928559 C169.330634,143.363364 169.892948,144.804954 170.47995,146.214133 L169.767632,146.511119 Z M359.858501,139.481062 L359.125833,139.238342 C359.607476,137.786954 360.062018,136.30353 360.476593,134.828773 L361.219812,135.037562 C360.801833,136.523634 360.34354,138.018745 359.858489,139.481062 L359.858501,139.481062 Z M166.596691,137.789598 C166.137452,136.318608 165.705919,134.815964 165.314144,133.322741 L166.060756,133.126761 C166.449516,134.608676 166.877846,136.100016 167.333504,137.559694 L166.596691,137.789598 Z M362.374203,130.536041 L361.622316,130.361168 C361.967921,128.873598 362.283752,127.354375 362.561515,125.846448 L363.320565,125.985896 C363.040915,127.505876 362.722445,129.036411 362.374203,130.536041 Z M164.239283,128.801611 C163.917416,127.294065 163.626088,125.758255 163.373573,124.236013 L164.134884,124.109377 C164.385701,125.620299 164.674775,127.144444 164.994184,128.640307 L164.239283,128.801611 Z M364.056262,121.398058 L363.291184,121.293285 C363.498846,119.781591 363.674098,118.240126 363.812415,116.711478 L364.581264,116.780822 C364.4418,118.321535 364.26504,119.874681 364.056247,121.398058 L364.056262,121.398058 Z M162.718168,119.635736 C162.536132,118.107833 162.386696,116.551676 162.273818,115.010589 L163.043798,114.954054 C163.155545,116.483837 163.304039,118.027941 163.484756,119.544532 L162.718168,119.635736 Z M364.895586,112.145121 L364.124495,112.110448 C364.193087,110.581044 364.228137,109.029781 364.228137,107.499998 L365,107.499998 C364.999973,109.041463 364.964919,110.604412 364.895571,112.145121 L364.895586,112.145121 Z M162.039952,110.369233 C162.013569,109.422871 162.000201,108.45729 162,107.499998 C162,106.906026 162.005088,106.313184 162.015264,105.721471 L162.787127,105.73504 C162.776953,106.322228 162.771866,106.910547 162.771863,107.499998 C162.772052,108.450131 162.785432,109.408549 162.811436,110.348127 L162.039952,110.369233 Z M364.222456,106.423234 C364.206633,104.892888 364.15537,103.341813 364.070573,101.812783 L364.840927,101.769821 C364.92648,103.31053 364.978114,104.87329 364.994319,106.414944 L364.222456,106.423234 Z M162.97029,101.127025 L162.199936,101.078784 C162.296229,99.5365626 162.429272,97.9788927 162.594913,96.4489249 L163.362253,96.5320275 C163.197742,98.0505177 163.06602,99.5963164 162.97029,101.127025 Z M363.709511,97.2156976 C363.555366,95.6940196 363.363531,94.1544382 363.13966,92.6393558 L363.903229,92.5266638 C364.128613,94.0532431 364.321965,95.6045066 364.477607,97.1376776 L363.709511,97.2156976 Z M163.963199,91.9600352 L163.200378,91.8420675 C163.436877,90.3151138 163.711626,88.7760997 164.01709,87.2672347 L164.773516,87.4202488 C164.470487,88.9176209 164.19781,90.4449527 163.963199,91.9600352 Z M362.360634,88.0946874 C362.066288,86.5890294 361.734267,85.0733797 361.373193,83.5899552 L362.123197,83.4075408 C362.486891,84.9022538 362.821567,86.429605 363.118175,87.9465707 L362.360634,88.0946874 Z M165.791472,82.9226795 L165.042788,82.7349894 C165.417601,81.2400681 165.83274,79.732712 166.276712,78.2545632 L167.01577,78.4765511 C166.575396,79.9433921 166.16346,81.4392551 165.791472,82.9226795 Z M360.179218,79.1353478 C359.748815,77.665678 359.278453,76.187344 358.781347,74.7408532 L359.511,74.4898471 C360.012256,75.9474566 360.486381,77.4374766 360.920175,78.9182613 L360.179218,79.1353478 Z M168.44853,74.0796057 L167.720385,73.8237022 C168.233326,72.3645837 168.787161,70.8984992 169.366433,69.4661489 L170.082143,69.7555976 C169.507194,71.1768292 168.957504,72.6317989 168.44853,74.0796057 Z M357.18185,70.4153283 C356.618776,68.9948454 356.015761,67.5692721 355.389379,66.1779965 L356.093403,65.8610348 C356.724687,67.2630508 357.332243,68.6995615 357.899439,70.130781 L357.18185,70.4153283 Z M171.912859,65.5129824 L171.211475,65.1907295 C171.856139,63.7868263 172.542259,62.3789672 173.250807,61.0063476 L173.936738,61.3602468 C173.233467,62.7225158 172.552622,64.1196305 171.912859,65.5129824 Z M353.40431,62.0258398 C352.713492,60.6632081 351.981565,59.2977475 351.228922,57.9679045 L351.900535,57.5876268 C352.659207,58.9278359 353.396406,60.3036588 354.092507,61.6768419 L353.40431,62.0258398 Z M176.149249,57.3060936 L175.480275,56.9209146 C176.250255,55.5839126 177.062255,54.2455868 177.893856,52.943446 L178.544359,53.358774 C177.719168,54.651116 176.913196,55.9792648 176.149249,57.3060936 L176.149249,57.3060936 Z M348.869614,54.012106 C348.054033,52.7137357 347.200009,51.420259 346.331285,50.1674904 L346.965208,49.7276635 C347.840717,50.9900457 348.701514,52.2933366 349.523135,53.6016793 L348.869614,54.012106 Z M181.117364,49.5262188 L180.486455,49.0814906 C181.376282,47.8194944 182.306628,46.5616315 183.252233,45.3427785 L183.862036,45.8157724 C182.923778,47.0255945 182.000217,48.2738246 181.117364,49.5262188 Z M343.619229,46.4417804 C342.689072,45.2234948 341.720476,44.0123721 340.739442,42.8421388 L341.331153,42.3463441 C342.319349,43.5256236 343.295482,44.7457926 344.232798,45.973329 L343.619229,46.4417804 Z M186.772558,42.2355393 L186.184992,41.7350362 C187.183551,40.562167 188.224324,39.3947472 189.278283,38.2652336 L189.842484,38.7917407 C188.79661,39.9127909 187.763753,41.0715272 186.772558,42.2355393 Z M337.698723,39.3764811 C336.66191,38.2478975 335.586276,37.129298 334.502349,36.0521553 L335.046574,35.5045416 C336.138791,36.5901671 337.22234,37.7170525 338.267069,38.8541188 L337.698723,39.3764811 Z M193.065047,35.4924812 L192.525349,34.9407033 C193.629059,33.8609246 194.771212,32.79338 195.919775,31.7678865 L196.433836,32.3437698 C195.293925,33.3613748 194.160444,34.4208033 193.065032,35.4924812 L193.065047,35.4924812 Z M331.158237,32.8759308 C330.021928,31.8453353 328.84868,30.8288726 327.671288,29.8548122 L328.163501,29.2600916 C329.349562,30.2415156 330.531855,31.2656931 331.676833,32.3042041 L331.158237,32.8759308 Z M199.941698,29.3516848 L199.454387,28.753186 C200.648173,27.7810243 201.881896,26.8222121 203.121488,25.9033631 L203.581291,26.523339 C202.350945,27.4354033 201.126442,28.3868559 199.941698,29.3516848 Z M324.050151,26.9948239 C322.824139,26.0716408 321.562699,25.1657938 320.300884,24.3025382 L320.736566,23.6656006 C322.008179,24.5352666 323.27904,25.4478944 324.514473,26.3782403 L324.050151,26.9948239 Z M207.344687,23.8647838 L206.913906,23.2244538 C208.191552,22.3647758 209.506883,21.5230012 210.823535,20.7219308 L211.224541,21.3814878 C209.918066,22.1763332 208.612723,23.0118905 207.344687,23.8647838 L207.344687,23.8647838 Z M316.43177,21.7841843 C315.127368,20.9768926 313.787916,20.189955 312.450721,19.4448485 L312.826101,18.770599 C314.173847,19.5213594 315.523477,20.3145144 316.838056,21.1276491 L316.43177,21.7841843 Z M215.212943,19.0787036 L214.842448,18.40144 C216.19415,17.6618022 217.58015,16.9442088 218.961812,16.2682651 L219.301011,16.9617339 C217.929916,17.6324019 216.554467,18.3445306 215.212943,19.0787036 L215.212943,19.0787036 Z M308.365273,17.2903778 C306.991901,16.6061443 305.584984,15.9450821 304.183705,15.3256697 L304.495769,14.6197622 C305.907962,15.2438869 307.325805,15.9100318 308.709732,16.5995487 L308.365273,17.2903778 Z M223.480317,15.034905 L223.173532,14.3267205 C224.586103,13.7144671 226.031085,13.1272761 227.468151,12.5813566 L227.742163,13.3030949 C226.316011,13.8446959 224.882136,14.4273638 223.480317,15.034905 Z M299.914731,13.5550581 C298.485581,13.0008604 297.022885,12.4720762 295.566974,11.9836335 L295.8127,11.2517182 C297.279545,11.7441205 298.753545,12.2768489 300.193629,12.8355813 L299.914731,13.5550581 Z M232.089909,11.7656015 L231.849454,11.032181 C233.316295,10.5512755 234.81291,10.0984466 236.297465,9.68670005 L236.503811,10.4302937 C235.030564,10.83903 233.545442,11.2882775 232.089909,11.7656015 Z M291.161924,10.6179684 C289.689808,10.1983064 288.188291,9.80747348 286.699217,9.45640697 L286.87636,8.70527222 C288.37712,9.0589785 289.889941,9.45282166 291.373743,9.87550163 L291.161924,10.6179684 Z M240.974812,9.29982295 L240.802953,8.54735674 C242.306728,8.20382362 243.838582,7.89082154 245.355737,7.61719992 L245.492924,8.37662447 C243.987073,8.64837819 242.467105,8.9589296 240.974812,9.29982295 L240.974812,9.29982295 Z M282.187512,8.50212942 C280.68449,8.22001345 279.153577,7.96902285 277.636993,7.75608125 L277.744028,6.99175922 C279.272316,7.20639506 280.815271,7.45928444 282.329982,7.74345743 L282.187512,8.50212942 Z M250.048915,7.66223813 L249.946778,6.89715967 C251.474681,6.69326431 253.028576,6.52177948 254.56514,6.38798472 L254.632226,7.15683373 C253.107345,7.28989136 251.565502,7.4598672 250.048915,7.66225357 L250.048915,7.66223813 Z M273.056689,7.2193971 C271.536327,7.07618175 269.988834,6.96575129 268.45679,6.89169488 L268.494481,6.12060361 C270.037821,6.19541645 271.597007,6.30659947 273.129051,6.45096104 L273.056689,7.2193971 Z M259.23476,6.86078948 L259.202342,6.08969821 C260.620941,6.03052719 262.066675,6.00037821 263.499975,6 L263.849347,6.00056732 L263.847089,6.77243045 L263.499975,6.77186313 C262.077613,6.77223749 260.64243,6.80219735 259.23476,6.86080492 L259.23476,6.86078948 Z" id="Shape" fill="#F2F2F2"></path>
                <path d="M176,149.473999 C179.619404,145.027212 183.705977,140.846845 188.693569,138.085154 C193.68116,135.323463 199.689463,134.097909 205.13512,135.740268 C209.200235,136.966266 212.665207,139.663383 215.871967,142.481481 C222.442148,148.255383 228.500468,154.866094 236.25,158.855839 C243.999533,162.845585 254.210662,163.590267 260.792923,157.830537 C266.002382,153.272056 268.223449,145.376389 274.444493,142.401062 C280.576992,139.468095 287.687538,142.617556 293.91053,145.346855 C302.361463,149.052779 311.10668,152.023981 320.052136,154.22851 C326.103585,155.719523 332.337316,156.862446 338.536229,156.262822 C344.735141,155.663199 350.95692,153.142763 355,148.332862" id="Path" fill="#F2F2F2"></path>
                <path d="M146,128 L161.220967,128 C162.259678,122.044224 162.259678,115.955776 161.220967,110 L146,110 C147.714764,115.879474 147.714764,122.120526 146,128 L146,128 Z" id="Path" fill="#6C63FF"></path>
                <path d="M21,136 L36.2209667,136 C37.2596778,130.044224 37.2596778,123.955776 36.2209667,118 L21,118 C22.714764,123.879474 22.714764,130.120526 21,136 Z" id="Path" fill="#6C63FF"></path>
                <path d="M291,79 L306.220967,79 C307.259678,73.0442244 307.259678,66.9557756 306.220967,61 L291,61 C292.714764,66.8794738 292.714764,73.1205262 291,79 L291,79 Z" id="Path" fill="#6C63FF"></path>
                <polygon id="Path" fill="#FFB9B9" points="80.2350917 254 77 264.131678 87 265 86.117737 254"></polygon>
                <polygon id="Path" fill="#FFB9B9" points="129 262 129 276 140 276 136.897624 262"></polygon>
                <path d="M87.7120942,158.186834 L83.0032007,203.285725 C83.0032007,203.285725 77.117082,243.04396 78.2943073,249.274729 C79.4715325,255.505499 78,256.395605 78,256.395605 L86.8291762,256.395605 C86.8291762,256.395605 86.5348727,252.538465 88.3007087,250.758245 C90.0665447,248.978025 89.1836267,243.637365 89.1836267,243.637365 L111.550888,174.802214 L124.206043,213.373635 C124.206043,213.373635 126.26619,255.802204 126.56049,256.395605 C126.85479,256.989007 127.737711,265 127.737711,265 L138.627019,265 C138.627019,265 137.155491,260.25275 139.215634,258.769215 C141.275777,257.28568 143.041609,258.472514 141.275781,255.802184 C139.509953,253.131855 138.921334,249.868119 139.509945,248.384604 C140.098556,246.901089 140.09856,240.96702 140.09856,240.96702 C140.09856,240.96702 139.215642,160.857148 134.212441,158.186811 C129.20924,155.516473 87.7120942,158.186834 87.7120942,158.186834 Z" id="Path" fill="#2F2E41"></path>
                <path d="M130.925519,268.699705 C130.925519,268.699705 125.756703,267.971251 125.756703,268.21407 C125.756703,268.456889 119.554121,284.240046 125.756703,283.997227 C131.959285,283.754408 155.4774,280.59778 153.926757,274.770152 C152.376115,268.942524 144.622887,270.642266 144.622887,270.642266 L137.644982,267 L130.925519,268.699705 Z" id="Path" fill="#2F2E41"></path>
                <path d="M82.0744791,263.699712 C82.0744791,263.699712 87.2432989,262.971258 87.2432989,263.214073 C87.2432989,263.456889 93.4458764,279.240042 87.2432989,278.997227 C81.0407215,278.754411 57.5226038,275.597778 59.0732423,269.770152 C60.6238808,263.942527 68.3771124,265.642268 68.3771124,265.642268 L75.355017,262 L82.0744791,263.699712 Z" id="Path" fill="#2F2E41"></path>
                <path d="M106,195 L120.269658,195 C121.243447,189.044224 121.243447,182.955776 120.269658,177 L106,177 C107.607588,182.879474 107.607588,189.120526 106,195 Z" id="Path" fill="#D0CDE1"></path>
                <path d="M102,195 L116.269658,195 C117.243447,189.044224 117.243447,182.955776 116.269658,177 L102,177 C103.607588,182.879474 103.607588,189.120526 102,195 L102,195 Z" id="Path" fill="#6C63FF"></path>
                <ellipse id="Oval" fill="#FFB9B9" cx="112" cy="61.5" rx="12" ry="11.5"></ellipse>
                <path d="M102.796975,60 C102.796975,60 100.789023,81.4117642 98.2073841,82.9411788 C95.6257455,84.4705934 118,86 118,86 C118,86 112.549857,66.423534 114.270954,64.5882397 C115.992052,62.7529454 102.796975,60 102.796975,60 Z" id="Path" fill="#FFB9B9"></path>
                <path d="M127.580506,80.7628598 C127.580506,80.7628598 119.338447,72.6896391 109.918949,74.1846787 C100.499451,75.6797183 93.7291872,77.4737673 93.7291872,77.4737673 C93.7291872,77.4737673 79.3055855,85.2479785 79.0112248,91.5271502 C78.7168642,97.8063218 84.3096931,121.427961 84.3096931,121.427961 C84.3096931,121.427961 86.9589234,160 87.2532841,160 C87.5476447,160 137,159.402 137,159.402 L127.874863,109.168627 L127.580506,80.7628598 Z" id="Path" fill="#575A89"></path>
                <path d="M126.299455,152.828845 C124.385108,153.34569 121.085238,152.630955 117.640537,151.502776 C111.49576,149.485609 104.892992,146.145329 104.892992,146.145329 C104.892992,146.145329 83.6224098,137.580503 77.418489,133.150416 C71.2145682,128.720329 75.3505103,111 75.3505103,111 L84.8041026,113.953386 L84.2132504,124.880922 L107.551803,139.943201 C111.219078,140.286994 114.840143,141.014556 118.355514,142.113935 C122.284677,143.404565 126.101542,145.41582 127.481151,148.505071 C127.696311,148.976491 127.849249,149.473876 127.936118,149.98472 C128.216758,151.614989 127.555017,152.486243 126.299455,152.828845 Z" id="Path" fill="#FFB9B9"></path>
                <path d="M127,148.458033 C126.582741,150.003898 126.177429,151.475158 125.799164,152.827054 C123.853811,153.349308 120.500494,152.627092 117,151.487104 L117.726557,142 C121.71936,143.304138 125.598045,145.336446 127,148.458033 Z" id="Path" fill="#000000" opacity="0.15"></path>
                <path d="M122.70046,106 L120.917433,121.771065 L117.960573,160.684613 C117.960573,160.684613 101.601308,180.391803 110.813613,180.986936 C120.025919,181.58207 125.077829,161.645068 125.077829,161.645068 C125.077829,161.645068 134.290134,130.102946 133.992962,123.556469 C133.695789,117.009991 133.992962,106 133.992962,106 L122.70046,106 Z" id="Path" fill="#FFB9B9"></path>
                <path d="M125.683656,60.4207212 C125.990189,60.2984397 126.274835,60.1274671 126.526541,59.9144437 C127.166441,59.2952612 127.058556,58.2460194 126.780682,57.4012084 C126.502807,56.5563975 126.096789,55.682982 126.295762,54.8163211 C126.38848,54.4124693 126.609217,54.0431005 126.672274,53.6336058 C126.822215,52.6598758 126.043069,51.7723955 125.180678,51.2915961 C124.318287,50.8107967 123.326363,50.5739557 122.511347,50.0170346 C121.261438,49.1629448 120.57129,47.6566371 119.302343,46.8309279 C118.061404,46.0234445 116.484647,45.9984141 115.002818,46 L110.578959,46.0049756 C108.267051,46.0075462 105.72654,46.0930046 104.005904,47.6325832 C103.482556,48.1008578 103.068045,48.6807404 102.53805,49.1415233 C101.470627,50.069554 100.029968,50.4399688 98.8445871,51.2126838 C97.0465243,52.4116774 95.9768283,54.4344839 96.000381,56.5911081 C96.0422397,58.5483138 96.9990366,60.4496036 96.7504353,62.3915171 C96.5836701,63.6941775 95.8784011,64.9458585 96.0636936,66.2460409 C96.2834161,67.7879817 97.7020178,68.892549 99.1568107,69.4596559 C100.611604,70.0267628 102.197621,70.2304024 103.613095,70.8890468 C104.768485,71.4266692 105.975501,72.2836229 107.193415,71.9074223 C108.223744,71.5891679 108.789102,70.5042236 109.158251,69.4937026 C109.589901,68.3117948 109.907022,67.0913827 110.105269,65.849183 C110.2535,64.919979 110.351796,63.9351677 110.899099,63.1686939 C111.552558,62.3206142 112.599784,61.8702711 113.6669,61.9784444 C116.055646,62.1877887 117.400328,66.2440918 119.597042,65.2848281 C120.686306,64.809166 121.523233,63.3855338 122.395708,62.6092794 C123.382772,61.7289147 124.489707,60.9921046 125.683656,60.4207212 Z" id="Path" fill="#2F2E41"></path>
                <path d="M82.4618702,90 C82.4618702,90 76.821583,92.1236021 74.5654689,100.617983 C72.3093548,109.112364 73.1553944,114.876398 73.1553944,114.876398 L85,117 L82.4618702,90 Z" id="Path" fill="#575A89"></path>
                <path d="M121.857143,81.2479334 C121.857143,81.2479334 132.142855,78.8267076 133.571426,89.1169202 C134.465231,96.0388094 134.942386,103.013925 135,110 C135,110 125.285715,105.157544 121,110 L121.857143,81.2479334 Z" id="Path" fill="#575A89"></path>
                <rect id="Rectangle" fill="#F2F2F2" x="149" y="114" width="10" height="1"></rect>
                <rect id="Rectangle" fill="#F2F2F2" x="24" y="125" width="10" height="1"></rect>
                <rect id="Rectangle" fill="#F2F2F2" x="149" y="117" width="10" height="1"></rect>
                <rect id="Rectangle" fill="#F2F2F2" x="295" y="65" width="10" height="1"></rect>
                <rect id="Rectangle" fill="#F2F2F2" x="295" y="71" width="10" height="1"></rect>
                <rect id="Rectangle" fill="#F2F2F2" x="295" y="68" width="10" height="1"></rect>
            </g>
        </g>
    </g>
</svg>