<?xml version="1.0" encoding="UTF-8"?>
<svg width="375px" height="219px" viewBox="0 0 375 219" version="1.1" xmlns="http://www.w3.org/2000/svg" xmlns:xlink="http://www.w3.org/1999/xlink">
    <!-- Generator: Sketch 58 (84663) - https://sketch.com -->
    <title>pitch-illustration-7</title>
    <desc>Created with Sketch.</desc>
    <defs>
        <linearGradient x1="50.0078116%" y1="100.00269%" x2="50.0078116%" y2="-0.106605991%" id="linearGradient-1">
            <stop stop-color="#808080" stop-opacity="0.25" offset="0%"></stop>
            <stop stop-color="#808080" stop-opacity="0.12" offset="54%"></stop>
            <stop stop-color="#808080" stop-opacity="0.1" offset="100%"></stop>
        </linearGradient>
    </defs>
    <g id="Landing-Page" stroke="none" stroke-width="1" fill="none" fill-rule="evenodd">
        <g id="Home" transform="translate(-50.000000, -4089.000000)">
            <g id="pitch-illustration-7" transform="translate(50.000000, 4089.000000)">
                <g id="Group" opacity="0.1" transform="translate(240.000000, 0.000000)" fill-rule="nonzero">
                    <ellipse id="Oval" fill="#3F3D56" cx="34.5546062" cy="205.476223" rx="7.17600124" ry="9.50405199"></ellipse>
                    <path d="M40.2330355,164.816896 C41.2384027,163.05112 41.7598686,161.045801 41.7436016,159.007951 C41.7436016,153.748012 38.5308061,149.503899 34.5676003,149.503899 C30.6043946,149.503899 27.3948476,153.757875 27.3948476,159.007951 C27.3746304,161.044593 27.8915901,163.049832 28.8924196,164.816896 C26.8956479,168.42476 26.8956479,172.823635 28.8924196,176.431498 C26.8957009,180.040547 26.8957009,184.44034 28.8924196,188.049388 C27.8915901,189.816452 27.3746304,191.821692 27.3948476,193.858333 C27.3948476,199.118272 30.6076431,203.362385 34.5676003,203.362385 C38.5275576,203.362385 41.7436016,199.10841 41.7436016,193.858333 C41.7638189,191.821692 41.2468592,189.816452 40.2460296,188.049388 C42.2427483,184.44034 42.2427483,180.040547 40.2460296,176.431498 C42.2428014,172.823635 42.2428014,168.42476 40.2460296,164.816896 L40.2330355,164.816896 Z" id="Path" fill="#3F3D56"></path>
                    <ellipse id="Oval" fill="#3F3D56" cx="34.5546062" cy="147.393349" rx="7.17600124" ry="9.50405199"></ellipse>
                    <ellipse id="Oval" fill="#3F3D56" cx="34.5546062" cy="135.775459" rx="7.17600124" ry="9.50405199"></ellipse>
                    <path d="M61.4134465,56.2780581 C62.3927293,55.0145771 63.2849339,53.6843962 64.0837376,52.2969419 L45.2422676,49.1639908 L65.6332861,49.3185015 C69.582821,40.6140383 69.8177967,30.6481817 66.282992,21.7629969 L38.9238781,36.116055 L64.1584538,17.3577982 C57.7128684,6.1008153 45.5980625,-0.574576176 32.7569452,0.0552210829 C19.915828,0.685018342 8.49567804,8.51469028 3.15598093,20.3496866 C-2.18371618,32.1846829 -0.550061687,46.0459675 7.39040417,56.2780581 C5.86347852,58.2435484 4.55000711,60.3696277 3.47267783,62.6195719 L27.9438491,75.4866972 L1.8516617,66.6105505 C-1.87834593,77.7414674 0.198976781,90.0258441 7.37416153,99.2681957 C-3.70752072,113.525641 -2.09982177,134.007959 11.0670546,146.31619 C24.2339311,158.624422 44.5374344,158.624422 57.7043108,146.31619 C70.8711872,134.007959 72.4788861,113.525641 61.3972039,99.2681957 C71.2039843,86.6515181 71.2039843,68.8815858 61.3972039,56.2649083 L61.4134465,56.2780581 Z" id="Path" fill="#6C63FF"></path>
                    <path d="M0.0351989055,77.7813456 C0.0238153404,85.5818499 2.61538895,93.1578295 7.39040417,99.2813456 C-3.69127807,113.53879 -2.08357913,134.021108 11.0832973,146.32934 C24.2501737,158.637571 44.553677,158.637571 57.7205534,146.32934 C70.8874298,134.021108 72.4951288,113.53879 61.4134465,99.2813456 C66.0198611,93.3639144 0.0351989055,73.875841 0.0351989055,77.7813456 Z" id="Path" fill="#000000"></path>
                </g>
                <g id="Group" opacity="0.1" transform="translate(51.000000, 73.000000)" fill-rule="nonzero">
                    <ellipse id="Oval" fill="#3F3D56" cx="21.3963988" cy="125.8686" rx="4.43708687" ry="5.808"></ellipse>
                    <path d="M24.9255996,101.0229 C25.5449804,99.9427218 25.8651985,98.7170698 25.8532941,97.4721 C25.8532941,94.2645 23.8724517,91.6641 21.4129058,91.6641 C18.9533599,91.6641 16.975819,94.2645 16.975819,97.4721 C16.9629103,98.7167671 17.2819838,99.9423994 17.9002121,101.0229 C16.6679847,103.228705 16.6679847,105.915395 17.9002121,108.1212 C16.6679847,110.327005 16.6679847,113.013695 17.9002121,115.2195 C17.2815092,116.298607 16.9623805,117.523312 16.975819,118.767 C16.975819,121.9779 18.9566613,124.5783 21.4129058,124.5783 C23.8691503,124.5783 25.8532941,121.9779 25.8532941,118.767 C25.8657288,117.523009 25.5454551,116.298284 24.9255996,115.2195 C26.1616783,113.014698 26.1616783,110.326002 24.9255996,108.1212 C26.1616783,105.916398 26.1616783,103.227702 24.9255996,101.0229 L24.9255996,101.0229 Z" id="Path" fill="#3F3D56"></path>
                    <ellipse id="Oval" fill="#3F3D56" cx="21.3963988" cy="90.3738" rx="4.43708687" ry="5.808"></ellipse>
                    <ellipse id="Oval" fill="#3F3D56" cx="21.3963988" cy="83.2755" rx="4.43708687" ry="5.808"></ellipse>
                    <path d="M4.78703568,34.6929 C4.18105605,33.921435 3.62949113,33.108774 3.13633372,32.2608 L14.8001938,30.3468 L2.18552939,30.4425 C-0.255164257,25.1260269 -0.401997673,19.0404011 1.77945671,13.6125 L18.692549,22.3938 L3.08681266,10.9098 C7.07627411,4.03549052 14.5694955,-0.0394512864 22.5107088,0.34675341 C30.4519222,0.732958107 37.5139983,5.51576709 40.8169922,12.7447302 C44.1199861,19.9736934 43.111904,28.4407122 38.2038462,34.6929 C39.1484732,35.8923598 39.9609154,37.1901655 40.6270766,38.5638 L25.4868383,46.431 L41.6307034,41.0157 C43.9341154,47.8200342 42.6451941,55.3268563 38.2038462,60.9741 C45.0589975,69.6866077 44.0639527,82.2023993 35.918194,89.7233015 C27.7724354,97.2442037 15.2118437,97.2442037 7.06608502,89.7233015 C-1.07967362,82.2023993 -2.07471851,69.6866077 4.78043288,60.9741 C-1.28580556,53.2629659 -1.28580556,42.4040341 4.78043288,34.6929 L4.78703568,34.6929 Z" id="Path" fill="#6C63FF"></path>
                    <path d="M42.7535119,47.8335 C42.7602277,52.6007775 41.1572662,57.2308779 38.2038462,60.9741 C45.0589975,69.6866077 44.0639527,82.2023993 35.918194,89.7233015 C27.7724354,97.2442037 15.2118437,97.2442037 7.06608502,89.7233015 C-1.07967362,82.2023993 -2.07471851,69.6866077 4.78043288,60.9741 C1.93132129,57.3738 42.7535119,45.4476 42.7535119,47.8335 Z" id="Path" fill="#000000"></path>
                </g>
                <g id="Group" opacity="0.1" transform="translate(143.000000, 36.000000)" fill-rule="nonzero">
                    <ellipse id="Oval" fill="#3F3D56" cx="28.2189087" cy="167.066011" rx="5.91607233" ry="7.71769663"></ellipse>
                    <path d="M32.9017808,134.045412 C33.7262722,132.609501 34.1519403,130.980592 34.134981,129.326311 C34.134981,125.066011 31.5041539,121.608614 28.2156201,121.608614 C24.9270863,121.608614 22.2962593,125.066011 22.2962593,129.326311 C22.2788659,130.981069 22.7057709,132.610366 23.532748,134.045412 C21.8843966,136.975895 21.8843966,140.549854 23.532748,143.480337 C21.8843416,146.409639 21.8843416,149.982683 23.532748,152.911985 C22.7057709,154.347031 22.2788659,155.976328 22.2962593,157.631086 C22.2962593,161.891386 24.9468175,165.348783 28.2156201,165.348783 C31.4844227,165.348783 34.134981,161.891386 34.134981,157.631086 C34.1519403,155.976805 33.7262722,154.347896 32.9017808,152.911985 C34.5463425,149.981684 34.5463425,146.410639 32.9017808,143.480337 C34.5462906,140.548856 34.5462906,136.976894 32.9017808,134.045412 L32.9017808,134.045412 Z" id="Path" fill="#3F3D56"></path>
                    <ellipse id="Oval" fill="#3F3D56" cx="28.2189087" cy="119.894663" rx="5.91607233" ry="7.71769663"></ellipse>
                    <ellipse id="Oval" fill="#3F3D56" cx="28.2189087" cy="110.459738" rx="5.91607233" ry="7.71769663"></ellipse>
                    <path d="M6.08378756,45.8998127 C5.27515512,44.8748617 4.53894396,43.7951719 3.8804699,42.6685393 L19.4253692,40.1254682 L2.61438438,40.25 C-0.645604008,33.1815445 -0.841850587,25.0874225 2.0717763,17.8703184 L24.6311183,29.5304307 L3.82456483,14.2916667 C9.12329745,5.1152753 19.1265515,-0.337694885 29.7385088,0.165467053 C40.3504661,0.668628992 49.7890094,7.04342465 54.1895406,16.6797029 C58.5900718,26.3159812 57.2135883,37.5954755 50.6236895,45.8998127 C51.8825384,47.4965743 52.9652237,49.223755 53.8530297,51.0514981 L33.6745863,61.4990637 L55.191463,54.2893258 C58.2622432,63.3313312 56.5441499,73.3071488 50.6236895,80.8113296 C59.7613681,92.3897033 58.4349177,109.02229 47.5767825,119.017014 C36.7186473,129.011737 19.9756756,129.011737 9.11754045,119.017014 C-1.74059471,109.02229 -3.06704514,92.3897033 6.07063342,80.8113296 C-2.01445163,70.5638676 -2.01445163,56.1341661 6.07063342,45.8867041 L6.08378756,45.8998127 Z" id="Path" fill="#6C63FF"></path>
                    <path d="M56.6881874,63.363764 C56.697564,69.6985051 54.5608177,75.8509926 50.6236895,80.8244382 C59.7613681,92.4028119 58.4349177,109.035399 47.5767825,119.030123 C36.7186473,129.024846 19.9756756,129.024846 9.11754045,119.030123 C-1.74059471,109.035399 -3.06704514,92.4028119 6.07063342,80.8244382 C2.27237687,76.0201311 56.6881874,60.1914794 56.6881874,63.363764 Z" id="Path" fill="#000000"></path>
                </g>
                <path d="M375,209.990046 C375,212.238375 358.530676,214.293617 331.301526,215.880865 C326.349579,216.165588 321.043453,216.437221 315.415942,216.69249 C310.553632,216.910668 305.45739,217.116847 300.127215,217.311026 C294.963197,217.494296 289.601321,217.664475 284.041585,217.821563 C266.483489,218.322283 247.072512,218.682278 226.451423,218.862275 C221.447005,218.908092 216.375905,218.943001 211.238123,218.967 C205.886085,218.991 200.472831,219.001909 194.99836,218.999727 C95.5855614,218.999727 15,214.971061 15,209.999864 C15,205.028666 95.5855614,201 194.99836,201 C237.798269,201 277.1023,201.749443 307.99458,202.993061 L311.372398,203.130513 L311.392075,203.130513 C350.305853,204.77667 375,207.254087 375,209.990046 Z" id="Path" fill="#3F3D56" fill-rule="nonzero"></path>
                <path d="M375,209.990046 C375,212.238375 358.530676,214.293617 331.301526,215.880865 C326.349579,216.165588 321.043453,216.437221 315.415942,216.69249 C310.553632,216.910668 305.45739,217.116847 300.127215,217.311026 C294.963197,217.494296 289.601321,217.664475 284.041585,217.821563 C266.483489,218.322283 247.072512,218.682278 226.451423,218.862275 C221.447005,218.908092 216.375905,218.943001 211.238123,218.967 C205.886085,218.991 200.472831,219.001909 194.99836,218.999727 C95.5855614,218.999727 15,214.971061 15,209.999864 C15,205.028666 95.5855614,201 194.99836,201 C237.798269,201 277.1023,201.749443 307.99458,202.993061 L311.372398,203.130513 L311.392075,203.130513 C350.305853,204.77667 375,207.254087 375,209.990046 Z" id="Path" fill="#000000" fill-rule="nonzero" opacity="0.15"></path>
                <path d="M360,207.509783 C360,209.381522 343.530676,211.096739 316.301526,212.401087 C311.352858,212.63913 306.043453,212.86413 300.419221,213.076087 C295.554726,213.258696 290.458483,213.430435 285.130494,213.591304 C279.966477,213.743478 274.6046,213.88587 269.044864,214.018478 C251.483489,214.43587 232.072512,214.73587 211.451423,214.88587 C206.451378,214.922826 201.380278,214.951087 196.238123,214.970652 C190.886085,214.990217 185.473924,215 180.00164,215 C80.5888408,215 0,211.644565 0,207.5 C0,203.355435 80.5888408,200 180.00164,200 C222.798269,200 262.1023,200.622826 292.99458,201.659783 L296.372398,201.773913 L296.395354,201.773913 C335.32225,203.166304 360,205.217391 360,207.509783 Z" id="Path" fill="#3F3D56" fill-rule="nonzero"></path>
                <polygon id="Path" fill="#3F3D56" fill-rule="nonzero" points="46.5328947 140 42 126.182314 150.552632 125 155 138.680131"></polygon>
                <polygon id="Path" fill="#000000" fill-rule="nonzero" opacity="0.15" points="46.5328947 140 42 126.182314 150.552632 125 155 138.680131"></polygon>
                <polygon id="Path" fill="#3F3D56" fill-rule="nonzero" points="39.5328947 140 35 126.182314 143.552632 125 148 138.680131"></polygon>
                <path d="M223.209517,116.720799 C211.994296,116.720799 203.155571,112.290149 196.693343,103.428864 C190.231114,94.5675778 187,83.8328378 187,71.2246437 C187,58.5313916 190.124835,47.8184614 196.374505,39.0858529 C202.624174,30.3532445 211.43989,25.9913022 222.821652,26.000013 C234.891491,26.000013 243.985505,30.6007847 250.103695,39.8023019 C256.221885,49.0038192 259.282076,59.6535013 259.284267,71.7513482 C259.284267,83.7619563 256.117797,94.2611514 249.784857,103.248933 C243.451916,112.236716 234.59347,116.727335 223.209517,116.720799 Z M223.538216,106.752664 C230.91642,106.752664 236.430899,103.552088 240.081653,97.1509381 C243.732407,90.7497878 245.557783,82.6801946 245.557783,72.9421584 C245.557783,62.1027319 243.689676,53.2272698 239.95346,46.3157723 C236.217244,39.4042747 230.48692,35.9474355 222.762486,35.9452545 C208.080583,35.9452545 200.739631,47.5523829 200.739631,70.7666397 C200.739631,94.7595033 208.336968,106.754845 223.531642,106.752664 L223.538216,106.752664 Z M227.232796,202.210499 L211.011485,202.210499 L317.207661,27.7764271 L333.123282,27.7764271 L227.232796,202.210499 Z M321.181635,203.999993 C309.797682,203.999993 300.922801,199.528995 294.556991,190.587013 C288.191181,181.645032 284.995128,170.909201 284.968832,158.379522 C284.968832,145.771328 288.071753,135.100926 294.277596,126.368318 C300.483439,117.63571 309.321068,113.273767 320.790483,113.282478 C332.77486,113.282478 341.805326,117.88325 347.881881,127.084767 C353.958436,136.286284 356.997809,146.934876 357,159.030542 C357,170.962635 353.854348,181.442201 347.563043,190.469241 C341.271738,199.49628 332.475744,204.006529 321.175061,203.999993 L321.181635,203.999993 Z M321.372281,193.776684 C328.715424,193.776684 334.20032,190.630633 337.826969,184.338531 C341.453618,178.046429 343.266943,170.009551 343.266943,160.227895 C343.266943,149.759234 341.431705,140.979734 337.761229,133.889397 C334.090753,126.79906 328.372481,123.248439 320.606412,123.237534 C305.839047,123.237534 298.455363,134.844662 298.455363,158.058919 C298.450982,181.872943 306.087763,193.778865 321.365707,193.776684 L321.372281,193.776684 Z" id="Shape" fill="#3F3D56" fill-rule="nonzero"></path>
                <path d="M223.209517,116.720799 C211.994296,116.720799 203.155571,112.290149 196.693343,103.428864 C190.231114,94.5675778 187,83.8328378 187,71.2246437 C187,58.5313916 190.124835,47.8184614 196.374505,39.0858529 C202.624174,30.3532445 211.43989,25.9913022 222.821652,26.000013 C234.891491,26.000013 243.985505,30.6007847 250.103695,39.8023019 C256.221885,49.0038192 259.282076,59.6535013 259.284267,71.7513482 C259.284267,83.7619563 256.117797,94.2611514 249.784857,103.248933 C243.451916,112.236716 234.59347,116.727335 223.209517,116.720799 Z M223.538216,106.752664 C230.91642,106.752664 236.430899,103.552088 240.081653,97.1509381 C243.732407,90.7497878 245.557783,82.6801946 245.557783,72.9421584 C245.557783,62.1027319 243.689676,53.2272698 239.95346,46.3157723 C236.217244,39.4042747 230.48692,35.9474355 222.762486,35.9452545 C208.080583,35.9452545 200.739631,47.5523829 200.739631,70.7666397 C200.739631,94.7595033 208.336968,106.754845 223.531642,106.752664 L223.538216,106.752664 Z M227.232796,202.210499 L211.011485,202.210499 L317.207661,27.7764271 L333.123282,27.7764271 L227.232796,202.210499 Z M321.181635,203.999993 C309.797682,203.999993 300.922801,199.528995 294.556991,190.587013 C288.191181,181.645032 284.995128,170.909201 284.968832,158.379522 C284.968832,145.771328 288.071753,135.100926 294.277596,126.368318 C300.483439,117.63571 309.321068,113.273767 320.790483,113.282478 C332.77486,113.282478 341.805326,117.88325 347.881881,127.084767 C353.958436,136.286284 356.997809,146.934876 357,159.030542 C357,170.962635 353.854348,181.442201 347.563043,190.469241 C341.271738,199.49628 332.475744,204.006529 321.175061,203.999993 L321.181635,203.999993 Z M321.372281,193.776684 C328.715424,193.776684 334.20032,190.630633 337.826969,184.338531 C341.453618,178.046429 343.266943,170.009551 343.266943,160.227895 C343.266943,149.759234 341.431705,140.979734 337.761229,133.889397 C334.090753,126.79906 328.372481,123.248439 320.606412,123.237534 C305.839047,123.237534 298.455363,134.844662 298.455363,158.058919 C298.450982,181.872943 306.087763,193.778865 321.365707,193.776684 L321.372281,193.776684 Z" id="Shape" fill="#3F3D56" fill-rule="nonzero"></path>
                <path d="M223.209517,116.720799 C211.994296,116.720799 203.155571,112.290149 196.693343,103.428864 C190.231114,94.5675778 187,83.8328378 187,71.2246437 C187,58.5313916 190.124835,47.8184614 196.374505,39.0858529 C202.624174,30.3532445 211.43989,25.9913022 222.821652,26.000013 C234.891491,26.000013 243.985505,30.6007847 250.103695,39.8023019 C256.221885,49.0038192 259.282076,59.6535013 259.284267,71.7513482 C259.284267,83.7619563 256.117797,94.2611514 249.784857,103.248933 C243.451916,112.236716 234.59347,116.727335 223.209517,116.720799 Z M223.538216,106.752664 C230.91642,106.752664 236.430899,103.552088 240.081653,97.1509381 C243.732407,90.7497878 245.557783,82.6801946 245.557783,72.9421584 C245.557783,62.1027319 243.689676,53.2272698 239.95346,46.3157723 C236.217244,39.4042747 230.48692,35.9474355 222.762486,35.9452545 C208.080583,35.9452545 200.739631,47.5523829 200.739631,70.7666397 C200.739631,94.7595033 208.336968,106.754845 223.531642,106.752664 L223.538216,106.752664 Z M227.232796,202.210499 L211.011485,202.210499 L317.207661,27.7764271 L333.123282,27.7764271 L227.232796,202.210499 Z M321.181635,203.999993 C309.797682,203.999993 300.922801,199.528995 294.556991,190.587013 C288.191181,181.645032 284.995128,170.909201 284.968832,158.379522 C284.968832,145.771328 288.071753,135.100926 294.277596,126.368318 C300.483439,117.63571 309.321068,113.273767 320.790483,113.282478 C332.77486,113.282478 341.805326,117.88325 347.881881,127.084767 C353.958436,136.286284 356.997809,146.934876 357,159.030542 C357,170.962635 353.854348,181.442201 347.563043,190.469241 C341.271738,199.49628 332.475744,204.006529 321.175061,203.999993 L321.181635,203.999993 Z M321.372281,193.776684 C328.715424,193.776684 334.20032,190.630633 337.826969,184.338531 C341.453618,178.046429 343.266943,170.009551 343.266943,160.227895 C343.266943,149.759234 341.431705,140.979734 337.761229,133.889397 C334.090753,126.79906 328.372481,123.248439 320.606412,123.237534 C305.839047,123.237534 298.455363,134.844662 298.455363,158.058919 C298.450982,181.872943 306.087763,193.778865 321.365707,193.776684 L321.372281,193.776684 Z" id="Shape" fill="#000000" fill-rule="nonzero" opacity="0.15"></path>
                <path d="M213.209517,116.720799 C201.994296,116.720799 193.155571,112.290149 186.693343,103.428864 C180.231114,94.5675778 177,83.8328378 177,71.2246437 C177,58.5313916 180.124835,47.8184614 186.374505,39.0858529 C192.624174,30.3532445 201.43989,25.9913022 212.821652,26.000013 C224.891491,26.000013 233.985505,30.6007847 240.103695,39.8023019 C246.221885,49.0038192 249.282076,59.6535013 249.284267,71.7513482 C249.284267,83.7619563 246.117797,94.2611514 239.784857,103.248933 C233.451916,112.236716 224.59347,116.727335 213.209517,116.720799 Z M213.538216,106.752664 C220.91642,106.752664 226.430899,103.552088 230.081653,97.1509381 C233.732407,90.7497878 235.557783,82.6801946 235.557783,72.9421584 C235.557783,62.1027319 233.689676,53.2272698 229.95346,46.3157723 C226.217244,39.4042747 220.48692,35.9474355 212.762486,35.9452545 C198.080583,35.9452545 190.739631,47.5523829 190.739631,70.7666397 C190.739631,94.7595033 198.336968,106.754845 213.531642,106.752664 L213.538216,106.752664 Z M217.232796,202.210499 L201.011485,202.210499 L307.207661,27.7764271 L323.123282,27.7764271 L217.232796,202.210499 Z M311.181635,203.999993 C299.797682,203.999993 290.922801,199.528995 284.556991,190.587013 C278.191181,181.645032 274.995128,170.909201 274.968832,158.379522 C274.968832,145.771328 278.071753,135.100926 284.277596,126.368318 C290.483439,117.63571 299.321068,113.273767 310.790483,113.282478 C322.77486,113.282478 331.805326,117.88325 337.881881,127.084767 C343.958436,136.286284 346.997809,146.934876 347,159.030542 C347,170.962635 343.854348,181.442201 337.563043,190.469241 C331.271738,199.49628 322.475744,204.006529 311.175061,203.999993 L311.181635,203.999993 Z M311.372281,193.776684 C318.715424,193.776684 324.20032,190.630633 327.826969,184.338531 C331.453618,178.046429 333.266943,170.009551 333.266943,160.227895 C333.266943,149.759234 331.431705,140.979734 327.761229,133.889397 C324.090753,126.79906 318.370289,123.248439 310.599838,123.237534 C295.832473,123.237534 288.448791,134.844662 288.448791,158.058919 C288.448791,181.872943 296.087763,193.778865 311.365707,193.776684 L311.372281,193.776684 Z" id="Shape" fill="#3F3D56" fill-rule="nonzero"></path>
                <path d="M249.88565,208 C251.252385,205.456664 249.699881,202.340744 247.915164,200.070384 C246.130448,197.800024 243.954288,195.44311 244.000731,192.550232 C244.067077,188.399001 248.459204,185.945547 251.962291,183.741767 C254.567632,182.108492 256.970682,180.170803 259.12106,177.969326 C260.021571,177.121281 260.766086,176.120598 261.320441,175.013197 C262.046933,173.388658 262.023712,171.541077 261.983904,169.763405 C261.831307,163.833393 261.539383,157.912258 261.108132,152" id="Path" stroke="#3F3D56" stroke-width="4"></path>
                <path d="M267.992224,153.672835 C267.882278,151.290829 266.565582,149.129238 264.499489,147.93889 L262.931175,151.039681 L262.977937,147.284198 C262.229841,147.065633 261.450802,146.972047 260.672228,147.007213 C256.810674,147.188239 253.826958,150.465445 254.007805,154.327175 C254.188653,158.188904 257.465586,161.172894 261.327156,160.992209 C265.188726,160.811524 268.172731,157.534581 267.992224,153.672835 L267.992224,153.672835 Z" id="Path" fill="#6C63FF" fill-rule="nonzero"></path>
                <path d="M257.215914,197.202852 C255.702301,200.145385 252.335771,201.625153 249.145893,200.750053 C245.956015,199.874954 243.814617,196.884161 244.012675,193.580724 C244.210734,190.277287 246.694118,187.56407 249.965678,187.076781 C253.237239,186.589492 256.402823,188.461312 257.554006,191.563784 L253.180391,195.122838 L258,194.000063 C257.997995,195.114986 257.729134,196.213214 257.215914,197.202852 Z" id="Path" fill="#6C63FF" fill-rule="nonzero"></path>
                <path d="M253.344636,183.99232 C251.485956,184.079187 249.6688,183.426303 248.292988,182.177321 C246.917175,180.928339 246.095424,179.185585 246.008541,177.332508 C245.953963,176.237013 246.161554,175.144288 246.614174,174.144567 C247.462523,172.253249 249.107136,170.833364 251.105956,170.266565 L251.066301,173.141822 L252.656089,170.007792 L252.656089,170.007792 C256.526525,169.827162 259.811006,172.808861 259.992184,176.667605 C260.173362,180.526348 257.182627,183.800908 253.312192,183.981538 L253.344636,183.99232 Z" id="Path" fill="#6C63FF" fill-rule="nonzero"></path>
                <path d="M268.389247,173.984573 C265.886602,174.152373 263.489476,172.941726 262.121503,170.819106 C260.75353,168.696486 260.628234,165.993208 261.793892,163.750869 C262.95955,161.508531 265.234218,160.077133 267.741445,160.008206 C269.035941,159.944545 270.321829,160.252309 271.450287,160.89588 L270.225871,164.281258 L272.745891,161.841054 C274.098411,163.085817 274.90622,164.821783 274.99184,166.667555 C275.023365,167.314925 274.963441,167.96353 274.813873,168.593843 C274.106109,171.638487 271.483288,173.839226 268.389247,173.984573 L268.389247,173.984573 Z" id="Path" fill="#6C63FF" fill-rule="nonzero"></path>
                <path d="M266.253367,154.629667 C264.736451,154.803103 263.263456,155.298633 261.739784,155.397739 C260.216111,155.496845 258.543788,155.114579 257.580935,153.872214 C257.060657,153.206788 256.803896,152.360847 256.3647,151.63171 C255.949934,150.952962 255.381199,150.392376 254.709269,150 C253.557176,152.383436 253.824555,155.249874 255.395296,157.354531 C256.966037,159.459187 259.556778,160.422383 262.04246,159.825839 C264.528142,159.229295 266.46035,157.180628 267,154.569495 C266.749996,154.583653 266.503371,154.601351 266.253367,154.629667 Z" id="Path" fill="#000000" fill-rule="nonzero" opacity="0.1"></path>
                <path d="M268.888418,172.993436 C266.581523,173.094135 264.387977,172.030558 263.106854,170.190148 C261.825731,168.349738 261.64406,166.001174 262.628021,164 C263.149466,164.338529 263.598368,164.769622 263.95045,165.269966 C264.420571,165.947066 264.704673,166.731076 265.255967,167.3531 C266.270618,168.509677 268.032729,168.885483 269.618967,168.817449 C271.205205,168.749415 272.74071,168.315294 274.323566,168.169507 C274.543407,168.150069 274.76663,168.13711 275,168.130631 C274.328075,170.878781 271.831986,172.864845 268.888418,172.993436 L268.888418,172.993436 Z" id="Path" fill="#000000" fill-rule="nonzero" opacity="0.1"></path>
                <path d="M251.958285,182.992987 C250.197376,183.072313 248.475809,182.476099 247.172369,181.335526 C245.868928,180.194953 245.090405,178.603467 245.008092,176.911233 C244.956384,175.910825 245.153056,174.912947 245.581867,174 C246.129875,174.350844 246.605754,174.795922 246.985567,175.312845 C247.501281,176.011935 247.825737,176.819334 248.430251,177.46591 C249.550478,178.663881 251.435739,179.087274 253.133157,179.047888 C254.830575,179.008503 256.364058,178.627778 258,178.50634 C257.169278,181.074712 254.754024,182.868308 251.958285,182.992987 L251.958285,182.992987 Z" id="Path" fill="#000000" fill-rule="nonzero" opacity="0.1"></path>
                <path d="M255,196.79058 C253.466736,199.578887 249.839815,200.764694 246.753862,199.48662 C243.667908,198.208547 242.207274,194.915687 243.432976,192 C243.955275,192.318041 244.424302,192.705293 244.825062,193.149377 C245.42819,193.83116 245.825929,194.603445 246.523601,195.23696 C247.827663,196.413488 249.914161,196.899183 251.778969,196.944434 C252.854999,196.952566 253.930593,196.90119 255,196.79058 L255,196.79058 Z" id="Path" fill="#000000" fill-rule="nonzero" opacity="0.1"></path>
                <path d="M348.88565,208 C350.252385,205.456664 348.699881,202.340744 346.915164,200.070384 C345.130448,197.800024 342.954288,195.44311 343.000731,192.550232 C343.067077,188.399001 347.459204,185.945547 350.962291,183.741767 C353.567632,182.108492 355.970682,180.170803 358.12106,177.969326 C359.021571,177.121281 359.766086,176.120598 360.320441,175.013197 C361.046933,173.388658 361.023712,171.541077 360.983904,169.763405 C360.831307,163.833393 360.539383,157.912258 360.108132,152" id="Path" stroke="#3F3D56" stroke-width="4"></path>
                <path d="M365.992224,153.672835 C365.882278,151.290829 364.565582,149.129238 362.499489,147.93889 L360.931175,151.039681 L360.977937,147.284198 C360.229841,147.065633 359.450802,146.972047 358.672228,147.007213 C354.810674,147.188239 351.826958,150.465445 352.007805,154.327175 C352.188653,158.188904 355.465586,161.172894 359.327156,160.992209 C363.188726,160.811524 366.172731,157.534581 365.992224,153.672835 L365.992224,153.672835 Z" id="Path" fill="#6C63FF" fill-rule="nonzero"></path>
                <path d="M355.215914,196.202852 C353.702301,199.145385 350.335771,200.625153 347.145893,199.750053 C343.956015,198.874954 341.814617,195.884161 342.012675,192.580724 C342.210734,189.277287 344.694118,186.56407 347.965678,186.076781 C351.237239,185.589492 354.402823,187.461312 355.554006,190.563784 L351.180391,194.122838 L356,193.000063 C355.997995,194.114986 355.729134,195.213214 355.215914,196.202852 Z" id="Path" fill="#6C63FF" fill-rule="nonzero"></path>
                <path d="M352.335262,183.99232 C350.478953,184.079187 348.664117,183.426299 347.290061,182.177306 C345.916004,180.928313 345.095303,179.185545 345.00853,177.332453 C344.954021,176.236949 345.161348,175.144215 345.613391,174.144486 C346.460656,172.253153 348.10317,170.833256 350.099438,170.266452 L350.059834,173.141732 L351.647593,170.007677 L351.665595,170.007677 C354.166132,169.890829 356.53917,171.114558 357.890809,173.217897 C359.242448,175.321237 359.36734,177.98464 358.218442,180.204828 C357.069543,182.425016 354.821397,183.86469 352.32086,183.981538 L352.335262,183.99232 Z" id="Path" fill="#6C63FF" fill-rule="nonzero"></path>
                <path d="M367.389247,173.984573 C364.886602,174.152373 362.489476,172.941726 361.121503,170.819106 C359.75353,168.696486 359.628234,165.993208 360.793892,163.750869 C361.95955,161.508531 364.234218,160.077133 366.741445,160.008206 C368.035941,159.944545 369.321829,160.252309 370.450287,160.89588 L369.225871,164.281258 L371.745891,161.841054 C373.098411,163.085817 373.90622,164.821783 373.99184,166.667555 C374.023365,167.314925 373.963441,167.96353 373.813873,168.593843 C373.106109,171.638487 370.483288,173.839226 367.389247,173.984573 Z" id="Path" fill="#6C63FF" fill-rule="nonzero"></path>
                <path d="M365.253367,153.629667 C363.736451,153.803103 362.263456,154.298633 360.739784,154.397739 C359.216111,154.496845 357.543788,154.114579 356.580935,152.872214 C356.060657,152.206788 355.803896,151.360847 355.3647,150.63171 C354.949934,149.952962 354.381199,149.392376 353.709269,149 C352.557176,151.383436 352.824555,154.249874 354.395296,156.354531 C355.966037,158.459187 358.556778,159.422383 361.04246,158.825839 C363.528142,158.229295 365.46035,156.180628 366,153.569495 C365.749996,153.583653 365.503371,153.601351 365.253367,153.629667 Z" id="Path" fill="#000000" fill-rule="nonzero" opacity="0.1"></path>
                <path d="M366.888418,172.993436 C364.581523,173.094135 362.387977,172.030558 361.106854,170.190148 C359.825731,168.349738 359.64406,166.001174 360.628021,164 C361.149466,164.338529 361.598368,164.769622 361.95045,165.269966 C362.420571,165.947066 362.704673,166.731076 363.255967,167.3531 C364.270618,168.509677 366.032729,168.885483 367.618967,168.817449 C369.205205,168.749415 370.74071,168.315294 372.323566,168.169507 C372.543407,168.150069 372.76663,168.13711 373,168.130631 C372.328075,170.878781 369.831986,172.864845 366.888418,172.993436 Z" id="Path" fill="#000000" fill-rule="nonzero" opacity="0.1"></path>
                <path d="M351.958285,182.992987 C350.197376,183.072313 348.475809,182.476099 347.172369,181.335526 C345.868928,180.194953 345.090405,178.603467 345.008092,176.911233 C344.956384,175.910825 345.153056,174.912947 345.581867,174 C346.129875,174.350844 346.605754,174.795922 346.985567,175.312845 C347.501281,176.011935 347.825737,176.819334 348.430251,177.46591 C349.550478,178.663881 351.435739,179.087274 353.133157,179.047888 C354.779346,179.015067 356.364058,178.627778 358,178.50634 C357.169278,181.074712 354.754024,182.868308 351.958285,182.992987 L351.958285,182.992987 Z" id="Path" fill="#000000" fill-rule="nonzero" opacity="0.1"></path>
                <path d="M355,196.79058 C353.466736,199.578887 349.839815,200.764694 346.753862,199.48662 C343.667908,198.208547 342.207274,194.915687 343.432976,192 C343.955275,192.318041 344.424302,192.705293 344.825062,193.149377 C345.42819,193.83116 345.825929,194.603445 346.523601,195.23696 C347.827663,196.413488 349.914161,196.899183 351.778969,196.944434 C352.854999,196.952566 353.930593,196.90119 355,196.79058 L355,196.79058 Z" id="Path" fill="#000000" fill-rule="nonzero" opacity="0.1"></path>
                <path d="M35.1143496,204 C33.7476152,201.456664 35.3001193,198.340744 37.0848356,196.070384 C38.8695519,193.800024 41.0457116,191.44311 40.9992692,188.550232 C40.9329228,184.399001 36.5407957,181.945547 33.0377095,179.741767 C30.4323679,178.108492 28.0293176,176.170803 25.8789403,173.969326 C24.9784294,173.121281 24.2339136,172.120598 23.6795595,171.013197 C22.9530671,169.388658 22.9762884,167.541077 23.0160962,165.763405 C23.1686927,159.833393 23.4606166,153.912258 23.8918677,148" id="Path" stroke="#3F3D56" stroke-width="4"></path>
                <path d="M18.0077761,148.672835 C18.1177216,146.290829 19.4344178,144.129238 21.5005113,142.93889 L23.068825,146.039681 L23.0220633,142.284198 C23.770159,142.065633 24.5491984,141.972047 25.3277721,142.007213 C29.1893263,142.188239 32.1730423,145.465445 31.9921945,149.327175 C31.8113468,153.188904 28.5344142,156.172894 24.6728441,155.992209 C20.811274,155.811524 17.827269,152.534581 18.0077761,148.672835 L18.0077761,148.672835 Z" id="Path" fill="#6C63FF" fill-rule="nonzero"></path>
                <path d="M28.7840857,192.202852 C30.2976992,195.145385 33.6642286,196.625153 36.8541068,195.750053 C40.043985,194.874954 42.1853831,191.884161 41.9873246,188.580724 C41.789266,185.277287 39.3058823,182.56407 36.0343217,182.076781 C32.7627611,181.589492 29.5971772,183.461312 28.4459937,186.563784 L32.8196093,190.122838 L28,189.000063 C28.0020054,190.114986 28.2708664,191.213214 28.7840857,192.202852 L28.7840857,192.202852 Z" id="Path" fill="#6C63FF" fill-rule="nonzero"></path>
                <path d="M32.6553636,178.99232 C34.5140444,179.079187 36.3311998,178.426303 37.7070125,177.177321 C39.0828251,175.928339 39.9045755,174.185585 39.991459,172.332508 C40.0460375,171.237013 39.8384456,170.144288 39.3858255,169.144567 C38.5374767,167.253249 36.892864,165.833364 34.8940443,165.266565 L34.9336989,168.141822 L33.3439112,165.007792 L33.3439112,165.007792 C29.4734754,164.827162 26.1889936,167.808861 26.0078158,171.667605 C25.826638,175.526348 28.8173725,178.800908 32.6878083,178.981538 L32.6553636,178.99232 Z" id="Path" fill="#6C63FF" fill-rule="nonzero"></path>
                <path d="M18.6107534,168.984573 C21.113398,169.152381 23.5105238,167.941666 24.8784969,165.818927 C26.2464699,163.696188 26.3717663,160.992758 25.2061081,158.750293 C24.04045,156.507828 21.7657824,155.076349 19.258555,155.007419 C17.9700321,154.947171 16.6907801,155.25484 15.5675094,155.895142 L16.7919257,159.280712 L14.2541094,156.851152 C12.9041381,158.093379 12.0965629,159.825062 12.0081598,161.667143 C11.976635,162.314549 12.0365589,162.96319 12.1861273,163.593539 C12.893891,166.638354 15.5167123,168.839217 18.6107534,168.984573 L18.6107534,168.984573 Z" id="Path" fill="#6C63FF" fill-rule="nonzero"></path>
                <path d="M18.7466332,150.629667 C20.2635485,150.803103 21.7365443,151.298633 23.2602165,151.397739 C24.7838887,151.496845 26.4562118,151.114579 27.4190646,149.872214 C27.9393429,149.206788 28.1961036,148.360847 28.6352996,147.63171 C29.0500663,146.952962 29.6188015,146.392376 30.2907306,146 C31.4428244,148.383436 31.1754446,151.249874 29.6047038,153.354531 C28.0339631,155.459187 25.4432219,156.422383 22.9575398,155.825839 C20.4718576,155.229295 18.5396498,153.180628 18,150.569495 C18.2500039,150.583653 18.4966293,150.601351 18.7466332,150.629667 Z" id="Path" fill="#000000" fill-rule="nonzero" opacity="0.1"></path>
                <path d="M17.1115818,167.993436 C19.4184773,168.094135 21.6120225,167.030558 22.8931457,165.190148 C24.1742688,163.349738 24.3559399,161.001174 23.3719791,159 C22.8505343,159.338529 22.4016324,159.769622 22.0495505,160.269966 C21.5794288,160.947066 21.2953265,161.731076 20.7440327,162.3531 C19.7293816,163.509677 17.9672709,163.885483 16.381033,163.817449 C14.7947951,163.749415 13.2592898,163.315294 11.6764341,163.169507 C11.456593,163.150069 11.2333698,163.13711 11,163.130631 C11.6719255,165.878781 14.1680136,167.864845 17.1115818,167.993436 L17.1115818,167.993436 Z" id="Path" fill="#000000" fill-rule="nonzero" opacity="0.1"></path>
                <path d="M33.0417155,178.992987 C34.8026235,179.072313 36.5241907,178.476099 37.8276311,177.335526 C39.1310715,176.194953 39.9095951,174.603467 39.9919083,172.911233 C40.0436158,171.910825 39.8469439,170.912947 39.4181331,170 C38.8701253,170.350844 38.3942464,170.795922 38.0144333,171.312845 C37.4987187,172.011935 37.1742625,172.819334 36.5697495,173.46591 C35.4495218,174.663881 33.5642607,175.087274 31.8668426,175.047888 C30.2206544,175.015067 28.6359422,174.627778 27,174.50634 C27.830722,177.074712 30.2459763,178.868308 33.0417155,178.992987 L33.0417155,178.992987 Z" id="Path" fill="#000000" fill-rule="nonzero" opacity="0.1"></path>
                <path d="M30,191.79058 C31.533264,194.578887 35.1601851,195.764694 38.2461385,194.48662 C41.3320919,193.208547 42.7927257,189.915687 41.5670238,187 C41.0447247,187.318041 40.5756981,187.705293 40.1749384,188.149377 C39.57181,188.83116 39.1740713,189.603445 38.4763985,190.23696 C37.1723372,191.413488 35.0858391,191.899183 33.2210314,191.944434 C32.1450009,191.952566 31.0694066,191.90119 30,191.79058 L30,191.79058 Z" id="Path" fill="#000000" fill-rule="nonzero" opacity="0.1"></path>
                <path d="M220.999853,172.770072 C221.012036,171.136096 220.266091,169.59266 218.988615,168.608927 C218.910514,165.561187 216.782276,163.071811 214.045504,162.686274 C213.615188,160.578767 212.116664,158.865837 210.114446,158.192769 L210.114446,158.192769 C209.875067,158.115327 209.630308,158.056443 209.382254,158.016618 L209.310662,158.016618 L209.183748,158 L209.07636,158 L208.968972,158 L208.829042,158 L208.744433,158 L208.513386,158 C205.721293,158 203.397803,160.180281 202.919438,163.055193 C201.113364,162.629773 199.456982,163.18149 199.160851,164.348073 C199.084389,164.657273 199.101406,164.982875 199.209664,165.282004 C199.515558,166.186023 200.511339,167.050159 201.861827,167.478903 L202.037553,167.532081 C202.125416,167.558669 202.213279,167.578611 202.301142,167.598553 L202.359717,167.598553 L202.359717,167.598553 C201.328537,169.84408 202.203156,172.52098 204.348026,173.684061 C204.307337,173.706823 204.268198,173.732362 204.230875,173.760504 C204.064092,173.916853 203.93109,174.107028 203.840373,174.318869 C203.514075,174.903705 203.26046,175.527818 203.085401,176.17676 C202.955234,176.731801 202.932454,177.313431 202.759982,177.861825 C202.463851,178.858904 201.702371,179.733011 201.614508,180.793239 C201.575458,181.26519 201.650304,181.820231 201.321632,182.14262 C201.239803,182.214575 201.152778,182.280125 201.061297,182.338712 C200.830892,182.499747 200.63584,182.708014 200.48856,182.950254 C200.392655,183.150601 200.263882,183.332705 200.10782,183.488677 C199.811689,183.718005 199.323561,183.69474 199.177122,184.047042 C199.030684,184.399343 199.408169,184.814793 199.320306,185.20033 C199.248714,185.512749 198.913533,185.655663 198.669469,185.86505 C198.396492,186.167448 198.205768,186.537554 198.116257,186.938572 C197.131989,187.132455 196.114333,186.868045 195.340435,186.217352 C195.471514,186.559702 195.567483,186.915011 195.626804,187.27758 C195.239555,186.855483 194.601735,186.732509 194.129877,186.513152 C193.521285,186.228366 192.978042,185.816206 192.535326,185.303362 L193.387923,185.183712 L189.613065,179.334179 L188.500133,179.101527 L189.499169,181.059127 C189.333533,181.140333 189.21357,181.29471 189.17375,181.4779 C189.119941,181.694997 189.106693,181.920509 189.1347,182.14262 C189.187574,182.667302 189.273445,183.187967 189.391781,183.701387 L189.681403,185.077357 C189.705944,185.20644 189.737449,185.334039 189.775775,185.459571 C189.398392,185.445644 189.021087,185.489332 188.656334,185.589191 C187.908093,185.306535 187.128955,185.117919 186.336099,185.027503 C186.161707,184.996263 185.982676,185.005349 185.812175,185.054092 C185.61872,185.145263 185.450852,185.284708 185.324046,185.459571 C184.67314,186.228055 184.095609,187.058295 183.599327,187.938976 C181.571968,191.541756 178.864485,194.685881 176.329473,197.943007 C174.57872,198.670875 172.81495,199.362184 171.047927,200.046845 L167.25029,201.525846 C166.492064,201.821647 165.704551,202.124094 164.897512,202.070917 C164.533043,202.047651 164.090474,201.99115 163.88546,202.306892 C163.78566,202.463406 163.707884,202.633463 163.654413,202.812079 C163.520991,202.812079 163.38757,202.845315 163.26391,202.851962 L163.241131,202.851962 C163.000321,202.24042 162.792053,201.585671 162.329959,201.140309 C162.141025,201.169943 161.979484,201.294933 161.900406,201.472669 C161.809289,201.645496 161.753967,201.834941 161.649833,201.994474 C161.44482,202.300245 161.090113,202.449807 160.836287,202.709048 C160.58246,202.968288 160.423005,203.373767 160.149653,203.626361 C159.766874,203.910518 159.318284,204.088055 158.847978,204.141518 C158.143478,204.310934 157.463981,204.574672 156.827128,204.925888 C156.592277,205.073364 156.341007,205.191636 156.078665,205.278189 C155.790182,205.334693 155.494824,205.344786 155.203288,205.308102 L153.192201,205.15854 C153.013245,205.134621 152.831588,205.142492 152.65526,205.181805 C152.22922,205.341291 151.961926,205.773988 152.004422,206.235386 C152.053948,206.68544 152.283649,207.094489 152.638989,207.365409 C152.988097,207.626809 153.374419,207.831937 153.784463,207.973628 C155.532025,208.66493 157.333662,209.204164 159.170143,209.585573 L159.170143,210.001023 C160.44309,210.655801 161.848398,210.997264 163.273673,210.998102 C163.3787,211.006481 163.484066,210.987019 163.579567,210.941601 C163.711305,210.840561 163.802655,210.694117 163.836647,210.529475 C164.263343,209.22609 164.533252,207.874542 164.640432,206.504597 L164.640432,206.504597 C164.891747,206.48803 165.137841,206.423786 165.366115,206.315152 C166.059257,206.122383 166.745891,206.607629 167.458558,206.687395 C168.337188,206.783779 169.15399,206.261974 169.983807,205.939585 C170.104212,205.893055 170.224617,205.853172 170.345022,205.813289 C170.108299,206.126073 169.828844,206.402535 169.515204,206.634217 C169.17026,206.886811 168.783012,207.072932 168.444577,207.335497 C168.163317,207.597945 167.861879,207.836904 167.543167,208.05007 C167.318475,208.156953 167.086887,208.248011 166.850025,208.322605 C166.506601,208.450541 166.178966,208.618967 165.873769,208.824469 C165.600394,208.988987 165.368573,209.216647 165.196898,209.489189 C165.021064,209.747852 164.989113,210.081131 165.112483,210.369715 C165.235853,210.6583 165.496902,210.86092 165.802177,210.905042 C166.073978,210.954322 166.351432,210.962162 166.625486,210.928307 C167.712385,210.845217 168.796029,210.742185 169.879673,210.642477 C170.33845,210.611237 170.794254,210.544574 171.243178,210.443061 C171.480733,210.383237 171.715035,210.30347 171.952591,210.240322 C172.357861,210.131134 172.773622,210.067607 173.192436,210.050877 C173.314011,210.041091 173.436321,210.053471 173.553651,210.087436 C173.807477,210.170526 173.986458,210.419796 174.243539,210.486268 C174.410429,210.502869 174.578799,210.478954 174.734921,210.416473 C175.528205,210.240537 176.337757,210.152506 177.149528,210.153908 C177.504234,210.133967 177.92077,210.064171 178.086734,209.728488 C178.288493,209.313038 177.950058,208.847734 177.816636,208.399048 C177.748643,208.113801 177.71154,207.821789 177.705994,207.528265 C177.6441,206.804092 177.440487,206.09998 177.107223,205.457664 C176.930088,205.157935 176.780829,204.841921 176.6614,204.513762 C178.216459,203.909632 179.70436,203.138672 181.100111,202.213831 C181.900641,201.705321 182.727205,201.156927 183.631869,200.970805 C184.686226,200.754772 185.773124,201.040601 186.81121,201.346372 C189.283898,202.077028 191.716148,202.943533 194.097336,203.942103 C195.236301,204.417377 196.375267,204.922564 197.540266,205.271542 C197.880872,205.740935 198.292859,206.151611 198.760586,206.487979 C199.541591,207.003137 200.495068,207.152699 201.412749,207.225818 C202.652453,207.341508 203.89734,207.389215 205.142047,207.368733 C206.09227,207.352115 207.071781,207.285643 207.921124,206.843604 C208.128631,206.73482 208.323945,206.603319 208.503623,206.451419 C209.154461,206.571069 209.821569,206.215444 210.332476,205.760111 C211.008668,205.172571 211.496216,204.390908 211.731777,203.516682 C212.031162,202.316863 211.800115,200.917628 212.522544,199.937166 C212.714541,199.674602 212.965114,199.461892 213.153857,199.196004 C213.386269,198.839928 213.500361,198.416937 213.479276,197.989538 L213.511817,197.939684 C213.675312,197.554005 213.784858,197.14675 213.837236,196.729894 C213.922822,196.404267 214.031585,196.085461 214.162655,195.776021 C214.529537,194.848615 214.84888,193.902324 215.119386,192.940991 C215.3075,192.303231 215.455327,191.653794 215.561955,190.996686 C215.640056,190.471558 215.685615,189.943106 215.727919,189.414653 C215.780133,188.587453 215.93766,187.770727 216.196522,186.985103 C216.83884,185.110107 217.201931,183.147254 217.273658,181.162158 C217.273658,181.122275 217.273658,181.085715 217.273658,181.045832 C219.231452,180.826566 220.704489,179.121994 220.674284,177.110692 C220.675143,176.525654 220.555395,175.946985 220.322832,175.412333 C220.771825,174.60761 221.005286,173.696265 220.999853,172.770072 Z M202.597273,195.606517 C202.652594,195.809257 202.717678,196.011996 202.782762,196.214736 C202.483376,195.912289 202.187245,195.59987 201.884606,195.300746 C202.005011,195.337306 202.125416,195.377189 202.242567,195.420396 C202.367318,195.470879 202.487162,195.533192 202.600527,195.606517 L202.597273,195.606517 Z M201.139397,194.609438 C199.362611,193.034052 197.305964,191.810968 195.486874,190.28876 C196.46313,190.790623 197.439386,191.372253 198.415642,191.930617 C199.552438,192.595337 200.702251,193.231252 201.865081,193.838363 C201.674332,194.133964 201.431592,194.390897 201.14916,194.596143 L201.139397,194.609438 Z M201.897623,190.641061 L201.982232,190.551324 C201.982232,190.774005 201.982232,190.983392 201.982232,191.172837 C201.822776,191.119659 201.656813,191.066482 201.503866,191.006657 C201.644388,190.889614 201.777025,190.76303 201.900877,190.627767 L201.897623,190.641061 Z M186.254744,194.908562 C186.986416,194.063393 187.622805,193.136947 188.151935,192.146651 C188.85484,193.406295 190.000314,194.313638 190.97657,195.367218 C189.408052,195.141214 187.836279,194.965063 186.257998,194.895267 L186.254744,194.908562 Z" id="Shape" fill="url(#linearGradient-1)" fill-rule="nonzero"></path>
                <polygon id="Path" fill="#2F2E41" fill-rule="nonzero" points="188 180 189.134868 180.223881 193 185.776119 191.292763 186"></polygon>
                <path d="M161,202.083018 C161.312383,203.080277 161.697265,204.055024 162.15178,205 C163.459129,204.736004 164.745171,204.381816 166,203.940163 C165.757133,203.575028 165.490184,203.225348 165.200806,202.893291 C164.892332,202.562324 164.523569,202.288786 164.112827,202.086259 C163.71323,201.917722 163.21961,202.044125 162.79315,202.066813 C162.195433,202.08842 161.597717,202.093822 161,202.083018 Z" id="Path" fill="#FBBEBE" fill-rule="nonzero"></path>
                <path d="M163.783701,204.352979 C163.094406,204.144273 162.671592,203.473677 162.3909,202.827032 C162.110207,202.180386 161.882811,201.475576 161.349852,201 C161.143825,201.031095 160.967707,201.159574 160.880847,201.342141 C160.777808,201.513211 160.717406,201.708231 160.600155,201.872459 C160.379865,202.180386 159.989028,202.330927 159.708336,202.594376 C159.427644,202.857824 159.253544,203.258129 158.951533,203.521577 C158.532539,203.81164 158.043126,203.993081 157.530307,204.048474 C156.755804,204.217485 156.007914,204.484388 155.306089,204.84224 C155.046314,204.987232 154.769615,205.10208 154.481778,205.184381 C154.164404,205.24254 153.83958,205.252928 153.518898,205.215174 L151.305339,205.06121 C151.108562,205.037657 150.909042,205.046916 150.71553,205.088582 C150.251452,205.244143 149.957947,205.685044 150.004917,206.156061 C150.064297,206.617203 150.32215,207.033104 150.71553,207.302232 C151.100365,207.567064 151.524367,207.774669 151.973315,207.918086 C153.901861,208.616407 155.886302,209.162217 157.906932,209.550097 L157.906932,209.97093 C159.311244,210.640271 160.855966,210.991368 162.422877,210.997352 C162.544535,211.007688 162.666906,210.987655 162.778184,210.939188 C162.922159,210.837661 163.023123,210.689397 163.062429,210.521777 C163.593522,209.026844 163.903313,207.467332 163.982672,205.889191 C164.023422,205.490148 163.992168,205.087324 163.890293,204.698541 C163.769489,204.315344 164.181644,204.47615 163.797913,204.325608" id="Path" fill="#2F2E41" fill-rule="nonzero"></path>
                <path d="M203.462591,196.686441 C197.365679,197.069494 191.34469,195.21579 185.237875,195.017424 C184.479948,194.969653 183.719229,195.020207 182.973403,195.167909 C182.195861,195.383871 181.443234,195.686613 180.728736,196.07082 C177.457463,197.647493 174.070657,198.953978 170.687152,200.260462 L166.805198,201.758473 C166.026167,202.056024 165.224028,202.360414 164.395482,202.309112 C164.025772,202.285171 163.573538,202.227029 163.362275,202.54852 C162.731788,203.516413 163.032177,204.942602 163.448101,206.030199 C163.583441,206.372211 163.811208,206.765524 164.174316,206.806565 C164.431185,206.788353 164.682781,206.722315 164.917037,206.611619 C165.623447,206.416672 166.329857,206.909169 167.056073,206.987832 C167.95724,207.087015 168.792389,206.556897 169.640741,206.231986 C171.046959,205.695028 172.585216,205.712128 174.064055,205.455619 C176.546393,205.028105 178.843875,203.834484 180.996115,202.473278 C181.814758,201.95684 182.646605,201.402781 183.584084,201.214675 C184.663505,200.995787 185.775935,201.283077 186.83555,201.594308 C189.361715,202.335258 191.848578,203.213157 194.285864,204.224377 C195.55447,204.795447 196.855227,205.286559 198.181022,205.695028 C201.07054,206.483284 204.127161,206.298825 206.908815,205.16833 C207.899109,204.768176 208.942219,204.063632 208.998336,202.972615 C209.031346,202.350154 208.565907,201.802935 208.255615,201.262557 C208.054255,200.920545 207.856197,200.578533 207.638332,200.253622 C206.58862,198.666688 205.314441,196.570157 203.462591,196.686441 Z" id="Path" fill="#2F2E41" fill-rule="nonzero"></path>
                <path d="M203.462591,196.686441 C197.365679,197.069494 191.34469,195.21579 185.237875,195.017424 C184.479948,194.969653 183.719229,195.020207 182.973403,195.167909 C182.195861,195.383871 181.443234,195.686613 180.728736,196.07082 C177.457463,197.647493 174.070657,198.953978 170.687152,200.260462 L166.805198,201.758473 C166.026167,202.056024 165.224028,202.360414 164.395482,202.309112 C164.025772,202.285171 163.573538,202.227029 163.362275,202.54852 C162.731788,203.516413 163.032177,204.942602 163.448101,206.030199 C163.583441,206.372211 163.811208,206.765524 164.174316,206.806565 C164.431185,206.788353 164.682781,206.722315 164.917037,206.611619 C165.623447,206.416672 166.329857,206.909169 167.056073,206.987832 C167.95724,207.087015 168.792389,206.556897 169.640741,206.231986 C171.046959,205.695028 172.585216,205.712128 174.064055,205.455619 C176.546393,205.028105 178.843875,203.834484 180.996115,202.473278 C181.814758,201.95684 182.646605,201.402781 183.584084,201.214675 C184.663505,200.995787 185.775935,201.283077 186.83555,201.594308 C189.361715,202.335258 191.848578,203.213157 194.285864,204.224377 C195.55447,204.795447 196.855227,205.286559 198.181022,205.695028 C201.07054,206.483284 204.127161,206.298825 206.908815,205.16833 C207.899109,204.768176 208.942219,204.063632 208.998336,202.972615 C209.031346,202.350154 208.565907,201.802935 208.255615,201.262557 C208.054255,200.920545 207.856197,200.578533 207.638332,200.253622 C206.58862,198.666688 205.314441,196.570157 203.462591,196.686441 Z" id="Path" fill="#000000" fill-rule="nonzero" opacity="0.1"></path>
                <path d="M173,202.953364 C173.815035,203.330461 174.635704,203.679339 175.462006,204 C175.926802,202.957212 176.794419,202.233801 176.991605,201.044792 C177.002798,200.993315 177.002798,200.938504 176.991605,200.887027 C176.970047,200.836405 176.937586,200.796095 176.898646,200.771589 C176.304772,200.324115 175.645879,200.061329 174.969042,200.002004 C174.433823,199.955829 174.191566,200.717718 173.949309,201.25258 C173.864801,201.468064 173.216904,203.05341 173,202.953364 Z" id="Path" fill="#FBBEBE" fill-rule="nonzero"></path>
                <path d="M173.861741,202.498372 C173.258456,202.399695 172.725394,202.055705 172.393382,201.550825 C172.251728,201.309693 172.103165,200.983656 171.819858,201.000637 C171.536551,201.017618 171.439812,201.323278 171.381077,201.577995 C171.189758,202.529484 170.913442,203.462532 170.555341,204.366294 C170.194208,205.272704 169.582749,206.061967 168.789855,206.64516 C168.420174,206.89648 168.009034,207.086669 167.646263,207.351574 C167.343918,207.616633 167.020416,207.857406 166.678873,208.071574 C166.438291,208.179713 166.190032,208.270518 165.936056,208.343271 C165.563784,208.471072 165.207848,208.640886 164.875382,208.849309 C164.583961,209.0171 164.336642,209.249745 164.153295,209.528553 C163.973758,209.815888 163.950474,210.171929 164.091106,210.479496 C164.241731,210.728402 164.492999,210.902534 164.782098,210.958363 C165.073327,211.005916 165.369932,211.012776 165.663114,210.97874 C166.827436,210.893835 167.988304,210.791948 169.149171,210.690062 C169.640623,210.660186 170.129126,210.594344 170.610621,210.493081 C170.866288,210.431949 171.115045,210.350439 171.367258,210.285911 C171.802632,210.176834 172.248473,210.113086 172.697418,210.095722 C172.827632,210.086031 172.958567,210.098672 173.084374,210.133081 C173.353861,210.217987 173.543884,210.472703 173.820281,210.533835 C173.99833,210.552033 174.178236,210.528764 174.345436,210.465911 C175.195102,210.289159 176.061265,210.200373 176.929748,210.201005 C177.309794,210.180628 177.758939,210.109307 177.931687,209.773081 C178.14935,209.355346 177.790034,208.886667 177.644925,208.438366 C177.573272,208.151304 177.532738,207.857592 177.524002,207.56214 C177.458599,206.832404 177.241024,206.123725 176.884834,205.480255 C176.587707,204.943652 176.193841,204.352709 176.390774,203.782144 C176.496668,203.604074 176.563732,203.406302 176.587707,203.20139 C176.539337,202.281013 174.386895,202.620636 173.861741,202.498372 Z" id="Path" fill="#2F2E41" fill-rule="nonzero"></path>
                <path d="M193.178878,187.481974 C192.093537,186.994528 191.223875,186.115617 190.737448,185.014579 C190.637933,184.778303 190.551687,184.531901 190.455489,184.29225 C190.132616,183.499958 189.63291,182.795028 188.995938,182.233275 C188.857965,182.078753 188.660309,181.993614 188.455241,182.000374 C188.255686,182.060795 188.103576,182.225893 188.057181,182.432421 C188.000337,182.65254 187.985696,182.881741 188.014058,183.107495 C188.070718,183.631275 188.159347,184.150961 188.279431,184.663541 L188.577976,186.040691 C188.61564,186.252259 188.678002,186.458492 188.763737,186.655009 C188.891396,186.88602 189.060116,187.090892 189.261311,187.2592 C189.533318,187.515728 189.808643,187.76213 190.087284,188.001781 C190.240859,188.143239 190.408765,188.267701 190.588175,188.373072 C190.882496,188.515035 191.197134,188.608463 191.520298,188.649852 C192.737696,188.879377 193.974997,189.210164 195,190 C195,190 195,189.078524 194.97678,188.987389 C194.964356,188.720356 194.874306,188.463086 194.718041,188.248183 C194.333251,187.826262 193.669818,187.701373 193.178878,187.481974 Z" id="Path" fill="#FBBEBE" fill-rule="nonzero"></path>
                <path d="M193.178878,187.481974 C192.093537,186.994528 191.223875,186.115617 190.737448,185.014579 C190.637933,184.778303 190.551687,184.531901 190.455489,184.29225 C190.132616,183.499958 189.63291,182.795028 188.995938,182.233275 C188.857965,182.078753 188.660309,181.993614 188.455241,182.000374 C188.255686,182.060795 188.103576,182.225893 188.057181,182.432421 C188.000337,182.65254 187.985696,182.881741 188.014058,183.107495 C188.070718,183.631275 188.159347,184.150961 188.279431,184.663541 L188.577976,186.040691 C188.61564,186.252259 188.678002,186.458492 188.763737,186.655009 C188.891396,186.88602 189.060116,187.090892 189.261311,187.2592 C189.533318,187.515728 189.808643,187.76213 190.087284,188.001781 C190.240859,188.143239 190.408765,188.267701 190.588175,188.373072 C190.882496,188.515035 191.197134,188.608463 191.520298,188.649852 C192.737696,188.879377 193.974997,189.210164 195,190 C195,190 195,189.078524 194.97678,188.987389 C194.964356,188.720356 194.874306,188.463086 194.718041,188.248183 C194.333251,187.826262 193.669818,187.701373 193.178878,187.481974 Z" id="Path" fill="#000000" fill-rule="nonzero" opacity="0.1"></path>
                <circle id="Oval" fill="#2F2E41" fill-rule="nonzero" cx="206.5" cy="175.5" r="1.5"></circle>
                <path d="M206.379012,174.042686 C205.977026,173.948882 205.555343,174.010895 205.195411,174.216747 C205.022416,174.373438 204.884763,174.566752 204.791987,174.783299 C204.45523,175.372616 204.193067,176.003387 204.011811,176.660428 C203.878447,177.223567 203.855109,177.810596 203.678402,178.366909 C203.371666,179.390797 202.584821,180.261103 202.494801,181.32936 C202.454792,181.807174 202.531476,182.370313 202.191399,182.694544 C202.106884,182.76705 202.016543,182.832127 201.921338,182.889083 C201.684502,183.05179 201.483494,183.263366 201.331205,183.510242 C201.229363,183.731874 201.088025,183.932113 200.914444,184.100685 C200.607708,184.332766 200.104261,184.308875 199.954227,184.667236 C199.804193,185.025597 200.190947,185.441978 200.100927,185.831056 C200.027577,186.148462 199.680832,186.295219 199.434109,186.513648 C199.153075,186.818357 198.956301,187.194122 198.863981,187.602383 C197.850445,187.797703 196.804151,187.52963 196,186.868596 C196.416761,187.923202 196.426763,189.087022 196.443434,190.223538 C196.491499,190.587069 196.396779,190.955277 196.180041,191.247426 C197.373644,191.27473 198.533906,191.588723 199.697502,191.871998 C200.195136,192.042667 200.733549,192.042667 201.231182,191.871998 C201.497199,191.725336 201.735448,191.531153 201.934675,191.298621 C202.568151,190.639919 203.231634,189.933436 203.385002,189.015349 C203.425577,188.498796 203.434485,187.980146 203.411675,187.462452 C203.472884,186.823289 203.601438,186.192776 203.795095,185.58191 C204.129928,184.313648 204.353093,183.017229 204.461912,181.708198 C204.531928,180.899326 205.212082,180.250864 205.572163,179.527316 C206.238981,178.162131 206.939139,176.745752 206.992484,175.216745 C207.039161,174.718453 206.872457,174.107533 206.379012,174.042686 Z" id="Path" fill="#2F2E41" fill-rule="nonzero"></path>
                <path d="M206.379012,174.042686 C205.977026,173.948882 205.555343,174.010895 205.195411,174.216747 C205.022416,174.373438 204.884763,174.566752 204.791987,174.783299 C204.45523,175.372616 204.193067,176.003387 204.011811,176.660428 C203.878447,177.223567 203.855109,177.810596 203.678402,178.366909 C203.371666,179.390797 202.584821,180.261103 202.494801,181.32936 C202.454792,181.807174 202.531476,182.370313 202.191399,182.694544 C202.106884,182.76705 202.016543,182.832127 201.921338,182.889083 C201.684502,183.05179 201.483494,183.263366 201.331205,183.510242 C201.229363,183.731874 201.088025,183.932113 200.914444,184.100685 C200.607708,184.332766 200.104261,184.308875 199.954227,184.667236 C199.804193,185.025597 200.190947,185.441978 200.100927,185.831056 C200.027577,186.148462 199.680832,186.295219 199.434109,186.513648 C199.153075,186.818357 198.956301,187.194122 198.863981,187.602383 C197.850445,187.797703 196.804151,187.52963 196,186.868596 C196.416761,187.923202 196.426763,189.087022 196.443434,190.223538 C196.491499,190.587069 196.396779,190.955277 196.180041,191.247426 C197.373644,191.27473 198.533906,191.588723 199.697502,191.871998 C200.195136,192.042667 200.733549,192.042667 201.231182,191.871998 C201.497199,191.725336 201.735448,191.531153 201.934675,191.298621 C202.568151,190.639919 203.231634,189.933436 203.385002,189.015349 C203.425577,188.498796 203.434485,187.980146 203.411675,187.462452 C203.472884,186.823289 203.601438,186.192776 203.795095,185.58191 C204.129928,184.313648 204.353093,183.017229 204.461912,181.708198 C204.531928,180.899326 205.212082,180.250864 205.572163,179.527316 C206.238981,178.162131 206.939139,176.745752 206.992484,175.216745 C207.039161,174.718453 206.872457,174.107533 206.379012,174.042686 Z" id="Path" fill="#000000" fill-rule="nonzero" opacity="0.1"></path>
                <path d="M204.475936,198.599085 C203.204427,197.992417 202.276391,196.861959 201.249276,195.893942 C199.28752,194.044101 196.889818,192.737942 194.828983,191.004131 C193.465001,189.857097 192.243032,188.521101 190.74034,187.559715 C189.418729,186.713369 187.919814,186.18574 186.361065,186.018181 C186.182979,185.986969 186.000198,185.99603 185.826041,186.044702 C185.629175,186.133182 185.457672,186.269992 185.327345,186.442517 C184.661518,187.195661 184.069798,188.011664 183.560444,188.879135 C180.948071,193.328034 177.239229,197.070812 174.16449,201.211404 C173.959998,201.413604 173.944199,201.739444 174.128161,201.960623 L174.752356,203.190534 C175.102434,203.876766 175.663879,204.679026 176.403666,204.543106 C176.743084,204.444905 177.047004,204.250351 177.278861,203.98285 L180.086088,201.287652 L183.028722,198.463165 C184.75269,196.805601 186.506381,195.114887 187.632574,192.999837 C188.511071,194.52811 190.069908,195.529278 191.139957,196.931576 C191.546179,197.461996 191.876441,198.048774 192.239729,198.612345 C192.824293,199.517375 193.484817,200.366047 194.145341,201.211404 L197.523921,205.537644 C197.950174,206.15381 198.478546,206.692032 199.08606,207.128904 C199.885294,207.636119 200.859567,207.772039 201.800814,207.854917 C203.068849,207.971 204.342254,208.017481 205.61534,207.994152 C206.58631,207.977577 207.596912,207.914589 208.455593,207.480308 C209.314274,207.046026 210.044153,206.154257 209.997917,205.182925 C209.945391,204.673948 209.779467,204.183353 209.512432,203.747476 C208.320186,201.526341 206.741533,199.66987 204.475936,198.599085 Z" id="Path" fill="#2F2E41" fill-rule="nonzero"></path>
                <circle id="Oval" fill="#E8E8F0" fill-rule="nonzero" cx="208" cy="176" r="1"></circle>
                <path d="M206.526422,175.527798 C206.777982,176.03281 206.822043,176.617459 206.649052,177.155011 C206.47696,177.683784 206.236052,178.187189 205.932634,178.652047 C205.671502,179.132156 205.358739,179.581807 205,179.99287 C206.720048,180.077485 208.388463,179.39731 209.905204,178.570686 C211.128278,177.919801 212.348124,177.089922 213,175.849986 C212.607678,175.9443 212.194109,175.867502 211.860831,175.638448 C211.532629,175.407779 211.23823,175.131703 210.986285,174.818333 L210.124647,173.842005 C209.921132,173.627763 209.742489,173.390831 209.592174,173.135795 C209.40357,172.789308 209.323675,172.393258 209.36305,172 C209.020023,172.362197 208.636688,172.683255 208.220653,172.956801 C207.604276,173.363605 206.92981,173.656503 206.306979,174.056797 C206.087535,174.199992 205.600242,174.431056 205.726099,174.707682 C205.851956,174.984309 206.352158,175.215373 206.526422,175.527798 Z" id="Path" fill="#FBBEBE" fill-rule="nonzero"></path>
                <path d="M206.526422,175.527798 C206.777982,176.03281 206.822043,176.617459 206.649052,177.155011 C206.47696,177.683784 206.236052,178.187189 205.932634,178.652047 C205.671502,179.132156 205.358739,179.581807 205,179.99287 C206.720048,180.077485 208.388463,179.39731 209.905204,178.570686 C211.128278,177.919801 212.348124,177.089922 213,175.849986 C212.607678,175.9443 212.194109,175.867502 211.860831,175.638448 C211.532629,175.407779 211.23823,175.131703 210.986285,174.818333 L210.124647,173.842005 C209.921132,173.627763 209.742489,173.390831 209.592174,173.135795 C209.40357,172.789308 209.323675,172.393258 209.36305,172 C209.020023,172.362197 208.636688,172.683255 208.220653,172.956801 C207.604276,173.363605 206.92981,173.656503 206.306979,174.056797 C206.087535,174.199992 205.600242,174.431056 205.726099,174.707682 C205.851956,174.984309 206.352158,175.215373 206.526422,175.527798 Z" id="Path" fill="#000000" fill-rule="nonzero" opacity="0.1"></path>
                <path d="M207.128815,175.193377 C206.755633,175.705726 206.755633,176.391003 207.128815,176.903352 C207.179494,176.965712 207.372073,177.356282 207.466673,177.359564 C207.546381,177.352986 207.620311,177.316488 207.672767,177.257819 C208.08091,176.843487 208.462291,176.405037 208.814729,175.944978 C209.170772,175.47895 209.685645,175.150933 210.267521,175.019426 C210.973645,174.911116 211.652741,175.27543 212.271022,175.623332 C212.536717,175.751563 212.768055,175.938091 212.946739,176.168161 C213.076992,176.396411 213.154254,176.649583 213.173104,176.909916 C213.350561,178.474669 213.418288,180.049333 213.375819,181.623013 C213.408658,182.757644 213.331739,183.892764 213.146075,185.013423 C213.031203,185.591073 212.858896,186.155594 212.77781,186.739808 C212.718633,187.254078 212.69493,187.771617 212.706859,188.28896 L212.706859,190.455147 C212.692001,190.852016 212.721454,191.24928 212.794702,191.639985 C212.934167,192.106073 213.097672,192.565053 213.284597,193.015185 C213.449084,193.550907 213.562185,194.100266 213.622456,194.656236 L213.926529,196.897911 C214.024508,197.606844 214.095458,198.378138 213.652863,198.945942 C213.456905,199.205228 213.193376,199.408718 212.977146,199.664722 C212.216964,200.603403 212.470358,201.965475 212.1325,203.13062 C211.882548,203.985621 211.37122,204.746731 210.666194,205.313217 C210.128999,205.756301 209.43301,206.107486 208.737022,205.969638 C207.801153,205.798968 207.23693,204.850441 206.980157,203.954428 C206.723385,203.058414 206.642299,202.080348 206.078075,201.328747 C205.625344,200.70843 204.925977,200.321142 204.294182,199.878058 C203.662386,199.434975 203.040727,198.867171 202.902205,198.118852 C202.84139,197.790642 202.878555,197.462432 202.844769,197.134222 C202.742523,196.282246 202.169929,195.552336 201.351434,195.230603 C200.871675,195.050088 200.277044,194.984446 200,194.574183 C200.687819,194.154487 201.189165,193.500043 201.405491,192.739489 C201.615166,191.990122 201.728647,191.218443 201.74335,190.442018 L201.905522,187.83603 C201.976472,186.670884 202.010258,185.515585 202.537318,184.468594 C202.773819,184.002536 203.067755,183.562735 203.311014,183.099958 C203.636893,182.450469 203.914643,181.779216 204.142146,181.091313 C204.523926,180.02463 204.909084,178.954665 205.250322,177.874854 C205.386872,177.351892 205.591221,176.847888 205.858467,176.374934 C206.172675,175.882618 206.588241,175.29184 207.128815,175.193377 Z" id="Path" fill="#E8E8F0" fill-rule="nonzero"></path>
                <path d="M202.064929,192.976496 L202.676714,193 L202.807811,191.93562 C202.825236,191.722695 202.868381,191.513619 202.935995,191.314452 C203.037578,191.104411 203.155568,190.905485 203.2885,190.720145 C203.891546,189.739707 203.847847,188.436932 203.996424,187.244961 C204.194526,185.656785 204.771352,184.165982 205.342352,182.702039 L206.530964,179.649921 C206.636818,179.399013 206.721686,179.13705 206.784418,178.867585 C206.836337,178.570329 206.860751,178.267565 206.85725,177.964373 C206.85725,177.4943 206.99126,175.778533 207,175.305102 C207,175.130503 206.667888,175.227876 206.597969,175.073423 C206.449393,174.737656 206.245464,175.650941 205.965791,175.852401 C205.702169,176.084676 205.51019,176.408334 205.418097,176.775759 C205.16173,177.544665 205.004413,178.353862 204.765526,179.126125 C204.555951,179.91698 204.173774,180.632607 203.655572,181.20452 C203.413771,181.452988 203.131184,181.647732 202.901036,181.90963 C202.161067,182.752404 202.091148,184.08204 202.064929,185.267296 C202.047449,186.002625 201.928005,192.976496 202.064929,192.976496 Z" id="Path" fill="#2F2E41" fill-rule="nonzero"></path>
                <path d="M211.452707,174.076495 C210.779407,174.340367 210.388892,175.066016 210.197002,175.771873 C210.005111,176.477731 209.924315,177.22317 209.554,177.849866 C208.692175,179.320953 206.493848,179.749745 205.884511,181.339574 C205.72937,181.87642 205.646747,182.43088 205.638756,182.988775 C205.531028,184.126723 205.147247,185.228389 205.032786,186.366337 C204.97335,187.251508 204.994757,188.140112 205.096749,189.02155 L205.867678,198.003096 C206.017189,199.325888 205.938665,200.663894 205.63539,201.961177 C206.426001,202.07271 207.232482,201.942552 207.944811,201.588458 C208.668609,201.258618 209.328444,200.823229 210.021943,200.447211 C211.217052,199.787531 212.536721,199.342247 213.580337,198.468171 C213.769693,198.323629 213.932498,198.148502 214.061747,197.950322 C214.229255,197.572745 214.34255,197.174246 214.398398,196.766196 C214.48698,196.448415 214.599505,196.137512 214.735048,195.836047 C215.121691,194.930727 215.458819,194.005863 215.744999,193.06539 C215.941055,192.441563 216.095123,191.805805 216.20621,191.162212 C216.290373,190.65096 216.334137,190.133111 216.381268,189.618561 C216.435154,188.809157 216.599324,188.010456 216.869411,187.243712 C217.537173,185.414274 217.915232,183.49548 217.990457,181.55397 C218.013705,181.273469 217.994419,180.991141 217.933226,180.716177 C217.816952,180.382764 217.66102,180.063923 217.468649,179.766237 C217.148831,179.175823 216.95694,178.526038 216.653955,177.929028 C215.980654,176.576683 214.77208,175.550881 213.509641,174.689998 C212.863272,174.271101 212.15294,173.815922 211.452707,174.076495 Z" id="Path" fill="#2F2E41" fill-rule="nonzero"></path>
                <path d="M196.060656,189.220927 C195.533646,188.921561 195.056552,188.528334 194.649206,188.057591 C194.464258,187.821399 194.324735,187.557004 194.123563,187.324337 C193.64701,186.772411 193.028551,186.389151 192.348705,186.224456 C191.673495,186.062805 190.982749,185.990599 190.291558,186.009416 C189.829845,185.974803 189.366284,186.035815 188.925534,186.189204 C188.475729,186.349006 188.132766,186.748239 188.017014,187.246782 C187.916428,187.846076 188.276591,188.427743 188.708138,188.808471 C189.109452,189.164689 189.581578,189.414525 190.087141,189.5382 C190.499482,189.61579 190.91543,189.668748 191.33311,189.696837 C193.786113,189.975332 195.976293,191.424214 198.124293,192.746186 C200.012715,193.904821 201.937911,194.989426 203.899881,196 C203.977663,195.362059 204.010206,194.718568 203.997222,194.075209 C203.997222,193.595773 203.964775,192.862519 203.546207,192.580499 C203.0595,192.249124 202.248322,192.175094 201.7097,191.977679 C200.445163,191.529433 199.210365,190.987626 198.013973,190.35606 C197.335828,190 196.686885,189.622806 196.060656,189.220927 Z" id="Path" fill="#FBBEBE" fill-rule="nonzero"></path>
                <circle id="Oval" fill="#FBBEBE" fill-rule="nonzero" cx="207.5" cy="169.5" r="4.5"></circle>
                <path d="M213.199766,179.568222 C212.837773,180.065261 212.541666,180.605095 212.318513,181.174838 C211.754646,182.306397 210.873393,183.276305 210.434455,184.473845 C209.968505,185.71757 209.985387,187.198824 209.083875,188.178629 C208.902666,188.327189 208.76613,188.521025 208.688831,188.73946 C208.683286,188.875669 208.667486,189.011295 208.64156,189.145238 C208.513255,189.50153 207.915624,189.518026 207.804201,189.880916 C207.773813,189.986484 207.804201,190.10195 207.750178,190.210817 C207.659014,190.445046 207.345004,190.478036 207.132288,190.619894 C206.689973,190.913505 206.794643,191.593101 206.456998,192.015373 C206.177614,192.334479 205.744754,192.483009 205.322511,192.404656 C204.908596,192.319466 204.510197,192.173771 204.140754,191.972486 C204.010886,191.901096 203.867074,191.857256 203.718698,191.843825 C203.542412,191.847456 203.371517,191.903882 203.229113,192.005476 C202.388377,192.526719 201.993332,193.562607 202,194.539113 C202.059405,195.515663 202.296067,196.474112 202.69901,197.369661 C202.74655,197.524402 202.825816,197.668073 202.931985,197.791934 C203.208854,198.078947 203.695062,198.032761 204.066472,197.87111 C204.41443,197.66981 204.784888,197.5082 205.170571,197.389455 C205.872872,197.264093 206.561668,197.73915 207.274098,197.699562 C207.795342,197.622166 208.286031,197.410349 208.695583,197.085946 C209.418757,196.656839 210.066349,196.11656 210.613407,195.485928 C210.92404,195.086748 211.153638,194.631486 211.427131,194.205914 C211.776428,193.68306 212.159889,193.182771 212.575123,192.708165 L215.198624,189.57081 C215.46186,189.273723 215.697986,188.954702 215.904302,188.617397 C216.140848,188.161265 216.325408,187.681131 216.454663,187.185628 C216.735704,186.358856 216.918114,185.503147 216.998272,184.635496 C217.011668,183.917173 216.947156,183.199485 216.805814,182.494441 C216.717731,181.793227 216.527869,181.107847 216.241947,180.458954 C215.657821,179.304301 214.270101,178.347589 213.199766,179.568222 Z" id="Path" fill="#2F2E41" fill-rule="nonzero"></path>
                <path d="M221,173.071044 C221.006911,171.509526 220.25387,170.039798 218.975871,169.120598 C218.936484,166.298525 216.835082,163.919217 214.009737,163.497702 C213.463762,160.82559 211.051156,158.928545 208.292319,159.002065 C205.533482,159.075585 203.227947,161.098364 202.828637,163.795667 C201.012154,163.391972 199.35137,163.917417 199.049704,165.022772 C198.725332,166.179391 200.02282,167.531449 201.943102,168.044078 C202.544813,168.212062 203.171808,168.273884 203.795265,168.226702 C204.69823,169.536317 206.118691,170.408852 207.707191,170.629649 C208.177765,172.761383 209.830329,174.44581 211.972682,174.977382 C212.263283,175.67093 212.714313,176.287604 213.289632,176.77799 C213.289632,176.912555 213.266926,177.050324 213.266926,177.191297 C213.21003,178.532696 213.902127,179.796964 215.069671,180.484413 C216.237215,181.171862 217.692316,181.171862 218.85986,180.484413 C220.027404,179.796964 220.719501,178.532696 220.662605,177.191297 C220.662736,176.63841 220.542139,176.091999 220.30904,175.589332 C220.764987,174.826779 221.003715,173.956647 221,173.071044 Z" id="Path" fill="#F86D70" fill-rule="nonzero"></path>
                <path d="M199.403875,165.785719 C199.730829,164.589466 201.513256,164.020812 203.49959,164.457705 C203.97667,161.492776 206.548669,159.297122 209.592186,159.256603 C209.729296,159.256603 209.866406,159.256603 210,159.256603 C209.430298,159.085161 208.837812,158.998676 208.242182,159 C205.198665,159.040535 202.626666,161.236188 202.149586,164.201117 C200.18083,163.764224 198.380825,164.332878 198.053871,165.529132 C197.702307,166.780863 199.108561,168.244107 201.189818,168.798891 C201.576951,168.904734 201.973851,168.972106 202.374587,169 C200.3988,168.431346 199.069889,167.009712 199.403875,165.785719 Z" id="Path" fill="#000000" fill-rule="nonzero" opacity="0.1"></path>
                <path d="M215.367581,178.033691 C215.367581,177.876468 215.367581,177.722818 215.39202,177.569168 C214.772658,177.023814 214.287131,176.337171 213.974564,175.564574 C211.670742,174.96587 209.894103,173.088054 209.383541,170.712098 C207.673355,170.467136 206.144018,169.493723 205.173067,168.032159 C204.782031,168.063809 204.38882,168.053029 204,168 C204.974907,169.344962 206.436431,170.233199 208.056858,170.465544 C208.563346,172.843006 210.342029,174.721599 212.64788,175.314446 C212.96066,176.087941 213.446111,176.7757 214.065337,177.322614 C214.065337,177.47269 214.040898,177.62634 214.040898,177.783563 C214.003835,180.063924 215.772244,181.947276 218,182 C216.400644,181.368586 215.351673,179.788084 215.367581,178.033691 L215.367581,178.033691 Z" id="Path" fill="#000000" fill-rule="nonzero" opacity="0.1"></path>
                <ellipse id="Oval" fill="#FBBEBE" fill-rule="nonzero" transform="translate(208.040388, 171.198137) rotate(-37.220000) translate(-208.040388, -171.198137) " cx="208.040388" cy="171.198137" rx="1" ry="1"></ellipse>
                <path d="M103.192167,194.532706 L107.562786,192.041202 C106.972102,191.062091 106.21686,190.185579 105.328258,189.447875 L97.0857688,191.933014 L103.54326,188.251444 C100.290003,186.523795 96.3381799,186.588809 93.1472246,188.422478 C89.9562694,190.256146 87.9996659,193.586382 88,197.183309 C88,202.805898 92.7020248,203 98.4999856,203 C104.297946,203 109,202.805898 109,197.183309 C109.003421,195.758159 108.695907,194.348425 108.097629,193.046713 L103.192167,194.532706 Z" id="Path" fill="#6C63FF" fill-rule="nonzero"></path>
                <path d="M104.529662,199.52028 C104.057759,198.995637 103.53058,198.535987 102.959527,198.15127 C102.157827,197.557171 101.322862,196.952003 100.374793,196.75274 C99.543154,196.575617 98.6849025,196.726909 97.8366306,196.671558 C96.3637108,196.571832 94.9771973,195.866633 93.9478862,194.69369 C93.3424529,193.99996 92.8667554,193.147558 92.1382395,192.61619 C91.3239956,192.07948 90.3632593,191.884404 89.4304226,192.066372 C89.1600684,192.108148 88.8923181,192.168535 88.6287225,192.247184 C88.2117544,193.532585 87.9990257,194.888498 88,196.254582 C88,202.774907 92.7669587,203 98.6449838,203 C101.499169,203 104.08723,202.948339 106,202.147598 L105.667344,201.487078 C105.36519,200.780399 104.982866,200.119447 104.529662,199.52028 Z" id="Path" fill="#000000" fill-rule="nonzero" opacity="0.1"></path>
            </g>
        </g>
    </g>
</svg>