<?xml version="1.0" encoding="UTF-8"?>
<svg width="375px" height="295px" viewBox="0 0 375 295" version="1.1" xmlns="http://www.w3.org/2000/svg" xmlns:xlink="http://www.w3.org/1999/xlink">
    <!-- Generator: Sketch 58 (84663) - https://sketch.com -->
    <title>pitch-illustration-6</title>
    <desc>Created with Sketch.</desc>
    <g id="Landing-Page" stroke="none" stroke-width="1" fill="none" fill-rule="evenodd">
        <g id="Home" transform="translate(-50.000000, -3598.000000)">
            <g id="pitch-illustration-6" transform="translate(50.000000, 3598.000000)">
                <path d="M121.843877,73 L77.5465899,109.945187 C82.5220868,115.439338 84.0916252,123.2394 81.6317054,130.246795 C79.1717856,137.25419 73.0807038,142.33432 65.7781454,143.469101 C58.475587,144.603881 51.1439412,141.609575 46.6957078,135.675672 L6.98138298,168.798535 L70.6428255,246 L185.505319,150.201451 L121.843877,73 Z" id="Path" fill="#F2F2F2" fill-rule="nonzero"></path>
                <path d="M375,185.52744 C375,231.09093 347.985265,247 314.660904,247 C281.336543,247 254.321809,231.09093 254.321809,185.52744 C254.321809,139.96395 314.660904,82 314.660904,82 C314.660904,82 375,139.963947 375,185.52744 Z" id="Path" fill="#F2F2F2" fill-rule="nonzero"></path>
                <polygon id="Path" fill="#3F3D56" fill-rule="nonzero" points="312.137446 239.370101 312.746439 201.155717 338.098404 153.878869 312.841982 195.161034 313.115846 177.978036 330.588467 143.773737 313.188415 173.43082 313.188415 173.431192 313.680714 142.526998 332.390647 115.296113 313.758388 137.667168 314.066166 81 312.131976 156.017358 312.290971 152.92244 293.268518 123.242683 311.98611 158.863224 310.213467 193.377907 310.160955 192.461624 288.231383 161.227717 310.094221 195.698166 309.872869 200.014545 309.83312 200.079224 309.850989 200.433471 305.354289 288 311.36253 288 312.083111 242.770198 333.892708 208.384501"></polygon>
                <ellipse id="Oval" fill="#3F3D56" fill-rule="nonzero" cx="261.801862" cy="288.5" rx="84.275266" ry="6.5"></ellipse>
                <rect id="Rectangle" fill="#3F3D56" fill-rule="nonzero" x="256.316489" y="0" width="13.962766" height="290"></rect>
                <path d="M339.095745,278.823133 C339.095745,287.10743 334.184211,290 328.124998,290 C327.984632,290 327.844489,289.998435 327.704571,289.995306 C327.42383,289.989274 327.145765,289.975872 326.871046,289.957105 C321.402725,289.569064 317.154255,286.527713 317.154255,278.823133 C317.154255,270.84981 327.316214,260.788821 328.079543,260.04423 L328.080882,260.042892 C328.1103,260.014074 328.125009,260 328.125009,260 C328.125009,260 339.095745,270.538836 339.095745,278.823133 Z" id="Path" fill="#6C63FF" fill-rule="nonzero"></path>
                <path d="M327.919532,288.737151 L332.270253,283.114676 L327.908659,289.354502 L327.897072,290 C327.592667,289.993967 327.291164,289.980562 326.99329,289.961792 L327.462216,281.672188 L327.458588,281.607838 L327.466562,281.595772 L327.510773,280.812862 L323.138298,274.557615 L327.524533,280.225676 L327.534692,280.391911 L327.889089,274.128625 L324.14572,267.664912 L327.934751,273.029315 L328.30365,260.044252 L328.305101,260 L328.305101,260.042898 L328.243499,270.28241 L331.970209,266.223061 L328.228279,271.164515 L328.129715,276.772246 L331.609281,271.390404 L328.115221,277.597391 L328.060142,280.714955 L333.111702,273.224347 L328.041298,281.802855 L327.919532,288.737151 Z" id="Path" fill="#3F3D56" fill-rule="nonzero"></path>
                <path d="M240.432847,271.834147 L238.02397,270 C238.02397,270 236.429446,279.128389 238.208733,280.49607 C239.988021,281.86375 246.660358,284.143191 246.660358,286.878532 C246.660358,289.613874 261.784319,293.260992 262.229141,289.157981 C262.673963,285.05497 260.894675,282.775522 260.894675,282.775522 C260.894675,282.775522 253.777516,275.481279 252.887872,274.113611 C251.998229,272.745942 249.774115,270.0106 249.774115,270.0106 L240.432847,271.834147 Z" id="Path" fill="#2F2E41" fill-rule="nonzero"></path>
                <path d="M275.265957,162.810053 C275.265957,162.810053 275.201214,163.194859 275.089054,163.898872 C274.985415,164.524175 274.843031,165.407483 274.67039,166.496301 C272.857767,177.703743 267.571037,210.696331 267.929276,211.78515 C268.360845,213.096981 271.38183,217.907035 267.929276,219.21887 C267.596958,219.345668 267.238774,219.756712 266.85467,220.403874 C266.11332,221.797763 265.502153,223.258798 265.029138,224.767923 C262.970543,230.819831 260.769494,240.50554 259.496386,247.213364 C258.939644,250.160638 258.559913,252.530676 258.447701,253.77253 C258.40869,254.059534 258.404338,254.350286 258.43474,254.638357 C258.86631,256.38747 255.845325,262.509355 254.550613,264.258468 C253.255902,266.00758 251.098055,267.756686 251.529628,269.505798 C251.961201,271.254911 240.740385,276.064961 239.445677,273.00402 C238.150969,269.943079 238.150965,268.193966 237.719396,267.319408 C237.287827,266.44485 236.856258,260.322969 239.014104,259.44841 C241.17195,258.573852 239.877246,243.26916 242.035093,240.208197 C242.755781,239.18933 243.856304,235.739205 245.008616,231.589442 C245.46173,229.962783 245.91922,228.231154 246.368071,226.495184 C248.189282,219.380666 249.803347,212.222431 249.803347,212.222431 L249.371785,161.060944 L273.108118,158 L273.716595,159.359928 L274.929329,162.057926 L275.265957,162.810053 Z" id="Path" fill="#2F2E41" fill-rule="nonzero"></path>
                <path d="M276.257994,247.550769 C276.257994,247.550769 279.880849,244.061539 281.692275,247.550769 C283.5037,251.039999 285.31513,264.560789 288.485129,267.613861 C291.655128,270.666934 295.730836,285.932339 291.202268,286.804646 C286.673699,287.676954 281.692275,285.496185 281.239418,282.879259 C280.786562,280.262332 271.276596,266.741554 271.276596,265.433093 C271.276596,264.124631 277.61659,259.326932 277.61659,259.326932 L276.257994,247.550769 Z" id="Path" fill="#2F2E41" fill-rule="nonzero"></path>
                <path d="M222.406915,139.204382 C222.406915,139.204382 228.079865,190.509019 229.389002,195.332524 C230.698138,200.156029 237.680232,218.573083 239.862137,221.642592 C242.044042,224.712101 256.008219,249.706667 257.753739,251.022169 C259.49926,252.337671 262.990309,255.845681 262.990309,255.845681 C262.990309,255.845681 269.536016,262.4232 270.408776,263.738702 C271.281536,265.054204 278.700007,261.107697 279.136387,258.476689 C279.572767,255.845681 278.700007,251.46067 278.263627,249.706667 C277.827246,247.952664 279.136387,245.321655 277.827246,244.006149 C276.518106,242.690643 269.972396,236.113128 269.972396,233.043619 C269.972396,229.97411 258.626496,211.995564 254.262694,208.049053 C249.898892,204.102543 250.771653,197.525024 250.771653,197.525024 L250.771653,170.776459 L274.772581,163.321939 C274.772581,163.321939 273.463441,142.273884 270.408776,142.273884 C267.354111,142.273884 227.207101,135.257864 222.406915,139.204382 Z" id="Path" fill="#2F2E41" fill-rule="nonzero"></path>
                <ellipse id="Oval" fill="#9F616A" fill-rule="nonzero" cx="258.80984" cy="51.5" rx="14.4614362" ry="14.5"></ellipse>
                <path d="M253.723369,62.4999365 C253.723369,62.4999365 251.946288,69.1071005 249.724934,70.8690136 C247.503579,72.6309267 255.500454,80.1190453 255.500454,80.1190453 L270.605652,81 L273.271277,72.630923 C273.271277,72.630923 268.384301,62.9404139 269.717111,56.7737236 C271.049922,50.6070333 253.723369,62.4999365 253.723369,62.4999365 Z" id="Path" fill="#9F616A" fill-rule="nonzero"></path>
                <path d="M247.480839,71 C247.480839,71 251.388122,71.4375033 252.256406,72.7500021 C253.12469,74.0625009 259.202684,78 263.978255,77.1250018 C268.753825,76.2500026 271.79282,74.9375001 272.661105,75.3750034 C273.529389,75.8125067 275.265957,85 275.265957,85 L270.49039,99 L271.358675,137.5 L272.661105,148 C272.661105,148 275.265957,144.5 264.846539,146.687501 C254.42712,148.875003 240.9687,144.937499 236.627264,144.5 C232.285828,144.0625 224.905415,142.750001 224.471273,140.125 C224.037131,137.5 225.773699,127.875 225.773699,127.875 L232.719981,98.5625007 L237.061406,82.8125003 L247.480839,71 Z" id="Path" fill="#3F3D56" fill-rule="nonzero"></path>
                <path d="M251.329787,67.9378907 C251.329787,67.9378907 247.645094,65.9774565 246.338292,67.7252725 C245.03149,69.4730885 228.478703,72.094807 228.478703,73.4056699 C228.478703,74.7165329 224.993905,110.109762 225.865103,113.168452 C226.736302,116.227142 224.122706,119.722755 224.122706,119.722755 L221.073507,132.831344 C221.073507,132.831344 212.797111,157.737691 216.28191,158.611597 C219.766708,159.485503 222.815908,158.611597 224.122706,158.611597 C225.429504,158.611597 224.993905,142.007366 228.478703,137.637831 C231.963502,133.268297 236.755099,122.344459 237.626297,120.159693 C238.497496,117.974928 249.387491,87.8251362 248.951896,84.3295079 C248.5163,80.8338796 251.329787,67.9378907 251.329787,67.9378907 Z" id="Path" fill="#D0CDE1" fill-rule="nonzero"></path>
                <path d="M269.730201,71 C269.730201,71 273.254237,71 273.694741,71.867809 C274.135245,72.7356179 278.54029,78.3763523 280.30231,79.678064 C282.06433,80.9797756 288.231383,86.62051 288.231383,87.9222216 C288.231383,89.2239332 275.456754,98.7697951 275.456754,98.7697951 C275.456754,98.7697951 270.170701,124.370077 272.813729,133.048137 C275.456757,141.726198 279.421294,162.553543 277.659278,163.855251 C275.897261,165.156959 271.932717,165.590865 271.932717,163.855251 C271.932717,162.119637 269.289689,143.461808 267.087165,139.556681 C264.884641,135.651553 258.277076,110.91908 260.920104,103.976634 C263.563132,97.0341882 269.730201,71 269.730201,71 Z" id="Path" fill="#D0CDE1" fill-rule="nonzero"></path>
                <path d="M211.446473,114 C211.446473,114 211.011161,127.39506 215.799607,134.308641 C220.588053,141.222222 223.635248,149 223.635248,149 C223.635248,149 231.470888,146.839505 232.776827,144.246911 C234.082766,141.654317 242.353723,143.814812 242.353723,142.950616 C242.353723,142.086419 232.341514,137.765432 231.470888,136.901235 C230.600262,136.037038 227.553068,136.037035 225.811812,134.308641 C224.070557,132.580248 223.635244,128.691355 223.635244,128.691355 L221.893992,117.456783 L211.446473,114 Z" id="Path" fill="#9F616A" fill-rule="nonzero"></path>
                <path d="M248.606818,42.3954079 C247.508118,42.2953092 246.374982,42.1851661 245.403963,41.6599355 C243.228237,40.483073 242.651289,37.1316765 244.307569,35.2911779 C244.764244,34.8228773 245.275029,34.4109363 245.82908,34.0641003 L249.118728,31.8182973 C250.57367,30.8250312 252.063004,29.8154847 253.759945,29.3472465 C255.294791,28.9237353 256.915849,28.967254 258.504649,29.0663066 C261.588934,29.2585773 264.692312,29.6557453 267.593273,30.7238128 C270.494233,31.7918803 273.200323,33.5787346 274.957281,36.1285095 C277.742602,40.1706883 277.780887,45.6222851 276.246816,50.2887691 C274.712745,54.9552532 271.7987,59.0188138 268.927375,63 L267.437524,55.7088881 C267.304823,55.0594808 267.133216,54.3477329 266.594714,53.9633867 C265.256304,53.0081217 263.619113,54.9694709 261.976469,54.956756 C260.921,54.9485863 260.034864,54.0778651 259.634873,53.0981722 C259.234882,52.1184792 259.208547,51.0335493 259.116003,49.9789739 C258.919994,47.7453185 258.141595,44.6373618 256.03261,43.4054848 C254.067374,42.2575844 250.815812,42.5966586 248.606818,42.3954079 Z" id="Path" fill="#2F2E41" fill-rule="nonzero"></path>
                <path d="M249.335106,163.133696 C249.335106,163.133696 250.947752,205.666167 251.902704,206.972277 C252.857657,208.278386 251.902704,163 251.902704,163 L249.335106,163.133696 Z" id="Path" fill="#000000" fill-rule="nonzero" opacity="0.1"></path>
                <path d="M232.380319,74 L228.805184,74 C228.805184,74 213.61086,94.1523816 215.398429,95.4666662 C217.185999,96.7809507 215.398429,100.285717 215.398429,100.285717 L211.823294,106.857143 C211.823294,106.857143 207.354376,110.800001 208.69505,111.67619 C210.035724,112.55238 211.823294,116.057143 211.823294,116.057143 C211.823294,116.057143 220.76113,114.742858 223.442487,120 L229.23859,112.826811 L232.380319,74 Z" id="Path" fill="#D0CDE1" fill-rule="nonzero"></path>
                <path d="M272.201903,112.008915 C272.201903,112.008915 262.657987,112.447758 251.812634,105.426318 L240.967262,100.599098 C240.967262,100.599098 231.42335,85.6785389 230.555718,88.3115798 C229.688087,90.9446207 231.857164,96.2106989 231.857164,96.2106989 C231.857164,96.2106989 218.768738,102.338187 218.428511,103.148066 C218.088284,103.957945 225.783762,101.915598 225.783762,101.915598 C225.783762,101.915598 224.482321,110.253556 231.857164,110.692396 C239.232006,111.131236 241.401076,109.375877 241.401076,109.375877 C241.401076,109.375877 272.635702,135.706272 277.841472,127.368313 C283.047242,119.030355 272.201903,112.008915 272.201903,112.008915 Z" id="Path" fill="#9F616A" fill-rule="nonzero"></path>
                <path d="M283.41548,86 L288.409906,87.7502839 L288.409906,100.877396 L290.226064,103.502817 C290.226064,103.502817 289.772025,108.753665 288.409906,110.066375 C287.047787,111.379085 284.323561,110.941515 285.231638,114.004509 C285.777397,116.001455 285.931383,118.079065 285.685676,120.130493 C285.685676,120.130493 277.512978,130.194616 277.058939,128.881905 C276.604901,127.569195 270.248356,111.379085 269.340279,111.379085 C268.432202,111.379085 278.421054,86 278.421054,86 L283.41548,86 Z" id="Path" fill="#D0CDE1" fill-rule="nonzero"></path>
                <path d="M225.484654,152 C225.484654,152 220.67569,147.401249 223.080168,147.171311 C225.484646,146.941374 233.856355,142.342623 235.251641,144.642 C236.646927,146.941378 225.484654,152 225.484654,152 Z" id="Path" fill="#2F2E41" fill-rule="nonzero"></path>
                <path d="M156.617617,280 C164.448106,266.783918 168.573277,251.660314 168.550532,236.252174 C168.550532,189.16867 130.81915,151 84.275266,151 C37.7313824,151 0,189.16867 0,236.252174 C-0.0227450911,251.660314 4.10242596,266.783918 11.9329153,280 L156.617617,280 Z" id="Path" fill="#3F3D56" fill-rule="nonzero"></path>
                <ellipse id="Oval" fill="#6C63FF" fill-rule="nonzero" cx="85.2726064" cy="231.5" rx="8.47739362" ry="8.5"></ellipse>
                <ellipse id="Oval" fill="#6C63FF" fill-rule="nonzero" cx="19.4481383" cy="244.5" rx="4.48803191" ry="4.5"></ellipse>
                <ellipse id="Oval" fill="#6C63FF" fill-rule="nonzero" cx="22.4401596" cy="209.5" rx="4.48803191" ry="4.5"></ellipse>
                <ellipse id="Oval" fill="#6C63FF" fill-rule="nonzero" cx="42.3869681" cy="180.5" rx="4.48803191" ry="4.5"></ellipse>
                <ellipse id="Oval" fill="#6C63FF" fill-rule="nonzero" cx="74.3018617" cy="165.5" rx="4.48803191" ry="4.5"></ellipse>
                <ellipse id="Oval" fill="#6C63FF" fill-rule="nonzero" cx="109.208777" cy="170.5" rx="4.48803191" ry="4.5"></ellipse>
                <ellipse id="Oval" fill="#6C63FF" fill-rule="nonzero" cx="138.131649" cy="191.5" rx="4.48803191" ry="4.5"></ellipse>
                <ellipse id="Oval" fill="#6C63FF" fill-rule="nonzero" cx="150.099734" cy="224.5" rx="4.48803191" ry="4.5"></ellipse>
                <ellipse id="Oval" fill="#6C63FF" fill-rule="nonzero" cx="145.113032" cy="260.5" rx="4.48803191" ry="4.5"></ellipse>
                <path d="M84.7739362,231 L126.662234,199" id="Path" stroke="#6C63FF" stroke-width="4"></path>
                <ellipse id="Oval" stroke="#3F3D56" stroke-width="2" cx="123.171543" cy="73.5" rx="5.48537234" ry="5.5"></ellipse>
                <ellipse id="Oval" fill="#3F3D56" fill-rule="nonzero" cx="154.089096" cy="137.5" rx="5.48537234" ry="5.5"></ellipse>
                <ellipse id="Oval" fill="#F2F2F2" fill-rule="nonzero" cx="62.3337766" cy="122.5" rx="15.4587766" ry="15.5"></ellipse>
            </g>
        </g>
    </g>
</svg>