<?xml version="1.0" encoding="UTF-8"?>
<svg width="375px" height="368px" viewBox="0 0 375 368" version="1.1" xmlns="http://www.w3.org/2000/svg" xmlns:xlink="http://www.w3.org/1999/xlink">
    <!-- Generator: Sketch 58 (84663) - https://sketch.com -->
    <title>pitch-illustration-4</title>
    <desc>Created with Sketch.</desc>
    <defs>
        <linearGradient x1="50%" y1="100.000229%" x2="50%" y2="0.000228571431%" id="linearGradient-1">
            <stop stop-color="#808080" stop-opacity="0.25" offset="0%"></stop>
            <stop stop-color="#808080" stop-opacity="0.12" offset="53.514%"></stop>
            <stop stop-color="#808080" stop-opacity="0.1" offset="100%"></stop>
        </linearGradient>
    </defs>
    <g id="Landing-Page" stroke="none" stroke-width="1" fill="none" fill-rule="evenodd">
        <g id="Home" transform="translate(-50.000000, -2695.000000)" fill-rule="nonzero">
            <g id="pitch-illustration-4" transform="translate(50.000000, 2695.000000)">
                <polygon id="Path" fill="#F2F2F2" points="374.531132 82.6612438 374.531132 109.256591 350.002895 98.4577112 340.047859 94.0738627 332.302355 90.6642028 292.482211 73.1288088 284.736708 69.7191488 274.781672 65.3353003 131.531132 2.25659134 191.931492 2.25659134"></polygon>
                <ellipse id="Oval" fill="#6C63FF" cx="322.531132" cy="31.7565913" rx="32" ry="31.5"></ellipse>
                <path d="M338.531132,181.256591 C335.217424,181.256591 332.531132,178.5703 332.531132,175.256591 C332.531132,171.942883 335.217424,169.256591 338.531132,169.256591 C341.844841,169.256591 344.531132,171.942883 344.531132,175.256591 C344.527431,178.568766 341.843306,181.252891 338.531132,181.256591 L338.531132,181.256591 Z M338.531132,170.256591 C335.769708,170.256591 333.531132,172.495168 333.531132,175.256591 C333.531132,178.018015 335.769708,180.256591 338.531132,180.256591 C341.292556,180.256591 343.531132,178.018015 343.531132,175.256591 C343.527974,172.496477 341.291247,170.259749 338.531132,170.256591 L338.531132,170.256591 Z" id="Shape" fill="#3F3D56"></path>
                <path d="M13.5311321,102.256591 L0.531132075,102.256591 L0.531132075,89.2565913 L13.5311321,89.2565913 L13.5311321,102.256591 Z M1.53113208,101.256591 L12.5311321,101.256591 L12.5311321,90.2565913 L1.53113208,90.2565913 L1.53113208,101.256591 Z" id="Shape" fill="#3F3D56"></path>
                <path d="M199.531132,14.2565913 L186.531132,14.2565913 L186.531132,1.25659134 L199.531132,1.25659134 L199.531132,14.2565913 Z M187.531132,13.2565913 L198.531132,13.2565913 L198.531132,2.25659134 L187.531132,2.25659134 L187.531132,13.2565913 Z" id="Shape" fill="#3F3D56"></path>
                <rect id="Rectangle" fill="#6C63FF" x="58.5311321" y="78.2565913" width="90" height="73"></rect>
                <rect id="Rectangle" fill="#F2F2F2" x="58.5311321" y="174.256591" width="250" height="7"></rect>
                <path d="M141.531132,148.256591 L50.5311321,148.256591 L50.5311321,74.2565913 L141.531132,74.2565913 L141.531132,148.256591 Z M51.4992172,147.289271 L140.563047,147.289271 L140.563047,75.2239116 L51.4992172,75.2239116 L51.4992172,147.289271 Z" id="Shape" fill="#3F3D56"></path>
                <rect id="Rectangle" fill="#6C63FF" x="184.531132" y="100.256591" width="87" height="7"></rect>
                <rect id="Rectangle" fill="#6C63FF" opacity="0.3" x="184.531132" y="119.256591" width="124" height="7"></rect>
                <path d="M265.531132,103.256591 L176.531132,103.256591 L176.531132,94.2565913 L265.531132,94.2565913 L265.531132,103.256591 Z M177.509154,102.256591 L264.55311,102.256591 L264.55311,95.2565913 L177.509154,95.2565913 L177.509154,102.256591 Z" id="Shape" fill="#3F3D56"></path>
                <path d="M301.531132,124.256591 L176.531132,124.256591 L176.531132,115.256591 L301.531132,115.256591 L301.531132,124.256591 Z M177.503895,123.256591 L300.558369,123.256591 L300.558369,116.256591 L177.503895,116.256591 L177.503895,123.256591 Z" id="Shape" fill="#3F3D56"></path>
                <path d="M300.531132,178.256591 L50.5311321,178.256591 L50.5311321,169.256591 L300.531132,169.256591 L300.531132,178.256591 Z M51.4982501,177.256591 L299.564014,177.256591 L299.564014,170.256591 L51.4982501,170.256591 L51.4982501,177.256591 Z" id="Shape" fill="#3F3D56"></path>
                <rect id="Rectangle" fill="#F2F2F2" x="58.5311321" y="199.256591" width="250" height="7"></rect>
                <path d="M300.531132,202.256591 L50.5311321,202.256591 L50.5311321,193.256591 L300.531132,193.256591 L300.531132,202.256591 Z M51.4982501,201.256591 L299.564014,201.256591 L299.564014,194.256591 L51.4982501,194.256591 L51.4982501,201.256591 Z" id="Shape" fill="#3F3D56"></path>
                <rect id="Rectangle" fill="#F2F2F2" x="58.5311321" y="223.256591" width="250" height="7"></rect>
                <path d="M300.531132,227.256591 L50.5311321,227.256591 L50.5311321,218.256591 L300.531132,218.256591 L300.531132,227.256591 Z M51.4982501,226.256591 L299.564014,226.256591 L299.564014,219.256591 L51.4982501,219.256591 L51.4982501,226.256591 Z" id="Shape" fill="#3F3D56"></path>
                <rect id="Rectangle" fill="#F2F2F2" x="58.5311321" y="246.256591" width="250" height="7"></rect>
                <path d="M300.531132,251.256591 L50.5311321,251.256591 L50.5311321,242.256591 L300.531132,242.256591 L300.531132,251.256591 Z M51.4982501,250.256591 L299.564014,250.256591 L299.564014,243.256591 L51.4982501,243.256591 L51.4982501,250.256591 Z" id="Shape" fill="#3F3D56"></path>
                <rect id="Rectangle" fill="#F2F2F2" x="58.5311321" y="271.256591" width="250" height="7"></rect>
                <path d="M300.531132,274.256591 L50.5311321,274.256591 L50.5311321,265.256591 L300.531132,265.256591 L300.531132,274.256591 Z M51.4982501,273.256591 L299.564014,273.256591 L299.564014,266.256591 L51.4982501,266.256591 L51.4982501,273.256591 Z" id="Shape" fill="#3F3D56"></path>
                <rect id="Rectangle" fill="#F2F2F2" x="58.5311321" y="295.256591" width="250" height="7"></rect>
                <path d="M300.531132,299.256591 L50.5311321,299.256591 L50.5311321,290.256591 L300.531132,290.256591 L300.531132,299.256591 Z M51.4982501,298.256591 L299.564014,298.256591 L299.564014,291.256591 L51.4982501,291.256591 L51.4982501,298.256591 Z" id="Shape" fill="#3F3D56"></path>
                <path d="M322.531132,344.256591 L36.5311321,344.256591 L36.5311321,30.2565913 L322.531132,30.2565913 L322.531132,344.256591 Z M37.5014459,343.289713 L321.560818,343.289713 L321.560818,31.2234693 L37.5014459,31.2234693 L37.5014459,343.289713 Z" id="Shape" fill="#3F3D56"></path>
                <path d="M30.5851861,352.233734 C30.5661508,352.239495 30.5480028,352.247169 30.5311321,352.256591 C31.1743753,351.081734 31.7743753,349.893163 32.3203213,348.686306 C32.3851861,348.544591 32.4446456,348.398306 32.5095105,348.256591 C32.504105,348.293163 32.504105,348.329734 32.4986996,348.370877 C32.4824834,348.599448 32.4608618,348.82802 32.4392402,349.061163 C32.4068078,349.422306 32.3797537,349.78802 32.3743753,350.153734 C32.3689699,350.26802 32.3689699,350.377734 32.3689699,350.49202 C32.370694,350.937389 32.4250178,351.381498 32.5311321,351.817734 L32.5095105,351.817734 C32.3743753,351.826877 32.250051,351.831448 32.1203213,351.849734 C31.610544,351.907272 31.1134179,352.027393 30.6446456,352.206306 C30.6237328,352.213641 30.6038011,352.222836 30.5851861,352.233734 L30.5851861,352.233734 Z" id="Path" fill="url(#linearGradient-1)"></path>
                <path d="M40.1027027,161.077383 C40.1535689,163.152601 40.8262007,165.163188 40.9316506,167.234599 C35.085413,167.538652 29.3191969,164.574076 23.5311321,165.482458 C25.1490005,164.387843 26.0143439,162.415253 26.5233101,160.473048 C27.1718893,157.967362 27.3655076,155.356798 27.0941382,152.776547 C27.0785993,152.63318 27.0543179,152.490997 27.0214423,152.350866 C26.8069058,151.336063 26.2506292,149.899401 26.3997052,149.10121 C26.5960392,148.044617 27.5486015,148.253651 28.406624,148.314455 C31.0231655,148.522801 33.6274778,148.874219 36.2088667,149.367266 C36.8814224,149.488893 43.4329603,151.199229 43.5311321,151.020585 C42.3827947,152.946472 41.4322354,154.99376 40.6952702,157.128383 C40.2863016,158.400406 40.0859569,159.735548 40.1027027,161.077383 L40.1027027,161.077383 Z" id="Path" fill="#A0616A"></path>
                <path d="M97.9468785,154.035738 C97.4183792,154.747325 96.7853197,155.377165 96.0685814,155.904484 C95.6018419,156.282006 95.1236631,156.667062 94.6225605,157.014404 C93.7301216,157.69415 92.6667982,158.120945 91.546948,158.248886 C90.0817798,158.347044 86.9716891,157.497617 86.0612541,156.259354 C85.6774386,155.637002 85.4946455,154.914106 85.5371726,154.186759 C85.5524735,153.200332 85.7228121,152.222225 86.0421067,151.28736 C86.6127705,149.765938 87.4123322,148.337996 88.4138985,147.051564 C89.4735059,145.598108 90.6517589,144.16729 92.2278648,143.287643 C92.7530139,143.01026 93.2946576,142.764428 93.8498384,142.551489 C94.8062061,142.166409 95.7587723,141.777548 96.715125,141.392492 C96.8778333,141.314009 97.0545799,141.267834 97.2353249,141.256591 C98.0042355,141.264124 98.14582,142.423121 97.7096723,143.049822 C96.837462,144.310738 94.8750825,144.661832 94.3242258,146.09266 C95.2763894,146.121711 96.1011967,146.75279 96.3669411,147.655588 C96.388569,147.88929 96.4850554,148.110121 96.642412,148.286066 C96.8948991,148.486143 97.2889306,148.37289 97.5758359,148.523906 C98.0845314,148.791947 97.8627462,149.539444 97.9162617,150.10573 C98.0411857,150.596582 98.2167986,151.073493 98.4403432,151.528976 C98.6589379,152.395482 98.4783154,153.313029 97.9468785,154.035738 L97.9468785,154.035738 Z" id="Path" fill="#A0616A"></path>
                <path d="M16.5311321,357.693777 C17.0147022,357.234429 17.8045852,357.312494 18.4797752,357.414008 C22.1041196,357.958808 25.7668314,358.240483 29.4361579,358.256591 C29.8955482,356.123877 28.5619878,354.050984 28.1323651,351.91267 C28.0702788,351.360815 27.9240938,350.82048 27.6984009,350.308633 C27.1817023,349.366084 26.0160929,348.934959 24.92218,348.715585 C22.9477277,348.319632 19.8612916,347.620995 18.7585424,349.518883 C17.4353915,351.796102 17.0120615,355.159476 16.5311321,357.693777 Z" id="Path" fill="#65617D"></path>
                <path d="M55.475092,350.238037 C54.032077,351.184892 52.2406011,351.479882 50.5059235,351.694715 C48.7674276,351.905938 46.9835338,352.069821 45.4117086,352.812713 C44.0558051,353.457302 42.9119702,354.513374 41.4764926,354.975876 C40.1415298,355.327894 38.7356026,355.34919 37.38977,355.037778 C35.7763006,354.746449 34.056797,354.18199 33.1857018,352.841855 C32.4092457,351.651017 32.4925588,350.139709 32.5986229,348.737667 C32.72359,347.153543 32.8460479,345.566981 32.9659966,343.977982 C32.9600385,343.574988 33.0659471,343.177755 33.2728084,342.827218 C34.4393398,341.192101 37.2761734,343.511856 38.7949641,343.508209 C41.2000139,343.504566 43.7831149,342.251822 45.5177529,340.718667 C45.6696604,340.566201 45.8461705,340.438315 46.0404714,340.339942 C46.7260324,340.044966 47.4115439,340.591221 48.0213293,341.068279 C48.0894783,341.122914 48.1576719,341.177526 48.2258606,341.228514 C49.6310101,342.299172 51.5171795,342.517666 53.2518769,342.951026 C54.9903282,343.384386 56.8500026,344.258401 57.387796,345.904451 C57.4226907,346.008207 57.4505206,346.114039 57.4711091,346.221274 C57.7855028,347.736215 56.8272566,349.34948 55.475092,350.238037 Z" id="Path" fill="#3F3D56"></path>
                <path d="M55.475092,350.238037 C54.032077,351.184892 52.2406011,351.479882 50.5059235,351.694715 C48.7674276,351.905938 46.9835338,352.069821 45.4117086,352.812713 C44.0558051,353.457302 42.9119702,354.513374 41.4764926,354.975876 C40.1415298,355.327894 38.7356026,355.34919 37.38977,355.037778 C35.7763006,354.746449 34.056797,354.18199 33.1857018,352.841855 C32.4092457,351.651017 32.4925588,350.139709 32.5986229,348.737667 C32.72359,347.153543 32.8460479,345.566981 32.9659966,343.977982 C32.9600385,343.574988 33.0659471,343.177755 33.2728084,342.827218 C34.4393398,341.192101 37.2761734,343.511856 38.7949641,343.508209 C41.2000139,343.504566 43.7831149,342.251822 45.5177529,340.718667 C45.6696604,340.566201 45.8461705,340.438315 46.0404714,340.339942 C46.7260324,340.044966 47.4115439,340.591221 48.0213293,341.068279 C48.0894783,341.122914 48.1576719,341.177526 48.2258606,341.228514 C49.6310101,342.299172 51.5171795,342.517666 53.2518769,342.951026 C54.9903282,343.384386 56.8500026,344.258401 57.387796,345.904451 C57.4226907,346.008207 57.4505206,346.114039 57.4711091,346.221274 C57.7855028,347.736215 56.8272566,349.34948 55.475092,350.238037 Z" id="Path" fill="#2F2E41"></path>
                <path d="M55.3335934,351.08716 C53.8994777,352.062477 52.11905,352.366341 50.3950704,352.587628 C48.6672961,352.805202 46.8944038,352.974011 45.3322723,353.73924 C43.9847308,354.403207 42.8479501,355.491031 41.4213253,355.967438 C40.0945951,356.330037 38.697339,356.351973 37.3598061,356.031201 C35.6532395,355.671419 34.1545102,354.663106 33.181665,353.220239 C32.4099974,351.993598 32.4927967,350.436852 32.5982066,348.992657 C32.722403,347.360907 32.8441058,345.726644 32.9633148,344.089871 C32.9573934,343.674761 33.0626488,343.265586 33.2682344,342.904509 C34.4275716,341.220233 37.2469101,343.609732 38.7563341,343.605975 C41.1465517,343.602222 43.7137223,342.311814 45.4376626,340.732564 C45.5886329,340.575513 45.7640545,340.44378 45.9571574,340.342448 C46.6384905,340.038603 47.3197743,340.601281 47.9257991,341.092682 C47.5272629,342.31651 46.9624172,343.48018 46.2470064,344.551254 C45.0774609,346.380049 43.142858,347.585873 40.9809778,347.833532 C39.9119259,347.912318 38.8165965,347.702254 37.7814557,347.976081 C36.750085,348.249933 35.786448,349.304012 36.1515561,350.305569 C36.509129,351.280867 37.7739205,351.494683 38.8165965,351.550961 C40.2770389,351.629743 41.7752069,351.701015 43.1604296,351.247117 C44.0073612,350.96578 44.7827496,350.500635 45.6071198,350.159268 C49.1115122,348.711321 53.5381445,349.521561 56.4327913,347.075813 C56.7073908,346.825568 57.0033482,346.599644 57.3173057,346.400603 C58.0751529,347.981658 56.677419,350.171868 55.3335934,351.08716 Z" id="Path" fill="#E8EAF2"></path>
                <path d="M55.3335934,351.08716 C53.8994777,352.062477 52.11905,352.366341 50.3950704,352.587628 C48.6672961,352.805202 46.8944038,352.974011 45.3322723,353.73924 C43.9847308,354.403207 42.8479501,355.491031 41.4213253,355.967438 C40.0945951,356.330037 38.697339,356.351973 37.3598061,356.031201 C35.6532395,355.671419 34.1545102,354.663106 33.181665,353.220239 C32.4099974,351.993598 32.4927967,350.436852 32.5982066,348.992657 C32.722403,347.360907 32.8441058,345.726644 32.9633148,344.089871 C32.9573934,343.674761 33.0626488,343.265586 33.2682344,342.904509 C34.4275716,341.220233 37.2469101,343.609732 38.7563341,343.605975 C41.1465517,343.602222 43.7137223,342.311814 45.4376626,340.732564 C45.5886329,340.575513 45.7640545,340.44378 45.9571574,340.342448 C46.6384905,340.038603 47.3197743,340.601281 47.9257991,341.092682 C47.5272629,342.31651 46.9624172,343.48018 46.2470064,344.551254 C45.0774609,346.380049 43.142858,347.585873 40.9809778,347.833532 C39.9119259,347.912318 38.8165965,347.702254 37.7814557,347.976081 C36.750085,348.249933 35.786448,349.304012 36.1515561,350.305569 C36.509129,351.280867 37.7739205,351.494683 38.8165965,351.550961 C40.2770389,351.629743 41.7752069,351.701015 43.1604296,351.247117 C44.0073612,350.96578 44.7827496,350.500635 45.6071198,350.159268 C49.1115122,348.711321 53.5381445,349.521561 56.4327913,347.075813 C56.7073908,346.825568 57.0033482,346.599644 57.3173057,346.400603 C58.0751529,347.981658 56.677419,350.171868 55.3335934,351.08716 Z" id="Path" fill="#000000" opacity="0.05"></path>
                <path d="M16.9705871,244.505204 C15.8392251,249.917484 16.9119805,255.546475 19.961978,260.201712 C20.7936051,261.457665 21.7681503,262.636707 22.3933461,264.001671 C22.8030858,264.975177 23.1206957,265.983143 23.3422139,267.012994 L26.0366969,277.883683 C26.7641089,280.818378 27.4968099,283.809843 27.2783301,286.821447 C27.1260951,288.919881 26.5834299,291.279366 27.9102805,292.938533 C28.2302632,293.255395 28.5003962,293.616652 28.7119082,294.010571 C28.8442027,294.472048 28.8487623,294.959442 28.7251233,295.423194 C27.3618976,303.315658 26.3509524,311.566782 28.8133317,319.201999 C31.0451329,326.122228 31.1725229,333.790178 33.0702137,340.804474 C33.3051986,341.673042 33.5739366,342.588613 34.2489568,343.200171 C34.7562529,343.616323 35.3648895,343.898225 36.0163114,344.018757 C38.8127813,344.667291 41.7658978,343.907491 44.3740567,342.729522 C46.2070728,341.901647 48.1800561,340.449871 48.0234642,338.486687 C47.9489693,337.552807 47.3892955,336.734314 47.0094333,335.873895 C46.2644046,334.186333 46.2045455,332.30119 46.0035179,330.474503 C45.4987283,325.887691 44.0479621,321.458823 42.9514604,316.971212 C41.8549587,312.483602 41.1100745,307.794314 42.0374373,303.270613 C43.9340615,293.913515 46.9699113,284.810549 51.0805516,276.154924 C51.25936,275.694566 51.5424964,275.279497 51.9088437,274.940674 C52.321112,274.712733 52.7132559,274.451828 53.0812361,274.160648 C53.3658941,273.731414 53.5490929,273.245869 53.6175754,272.739148 C54.025423,271.307366 55.2369322,270.251017 56.0490831,268.993481 C58.0997665,265.818208 57.4499102,261.748088 57.3739398,257.996828 C57.300068,254.348866 57.8390045,250.667524 57.2254485,247.068213 C56.6118925,243.468902 54.4963849,239.789717 50.9363025,238.66192 C49.1728063,238.103264 47.2662772,238.229975 45.4209682,238.408001 C35.644799,239.351136 26.1453187,241.082033 16.9705871,244.505204 Z" id="Path" fill="#2F2E41"></path>
                <path d="M16.9705871,244.505204 C15.8392251,249.917484 16.9119805,255.546475 19.961978,260.201712 C20.7936051,261.457665 21.7681503,262.636707 22.3933461,264.001671 C22.8030858,264.975177 23.1206957,265.983143 23.3422139,267.012994 L26.0366969,277.883683 C26.7641089,280.818378 27.4968099,283.809843 27.2783301,286.821447 C27.1260951,288.919881 26.5834299,291.279366 27.9102805,292.938533 C28.2302632,293.255395 28.5003962,293.616652 28.7119082,294.010571 C28.8442027,294.472048 28.8487623,294.959442 28.7251233,295.423194 C27.3618976,303.315658 26.3509524,311.566782 28.8133317,319.201999 C31.0451329,326.122228 31.1725229,333.790178 33.0702137,340.804474 C33.3051986,341.673042 33.5739366,342.588613 34.2489568,343.200171 C34.7562529,343.616323 35.3648895,343.898225 36.0163114,344.018757 C38.8127813,344.667291 41.7658978,343.907491 44.3740567,342.729522 C46.2070728,341.901647 48.1800561,340.449871 48.0234642,338.486687 C47.9489693,337.552807 47.3892955,336.734314 47.0094333,335.873895 C46.2644046,334.186333 46.2045455,332.30119 46.0035179,330.474503 C45.4987283,325.887691 44.0479621,321.458823 42.9514604,316.971212 C41.8549587,312.483602 41.1100745,307.794314 42.0374373,303.270613 C43.9340615,293.913515 46.9699113,284.810549 51.0805516,276.154924 C51.25936,275.694566 51.5424964,275.279497 51.9088437,274.940674 C52.321112,274.712733 52.7132559,274.451828 53.0812361,274.160648 C53.3658941,273.731414 53.5490929,273.245869 53.6175754,272.739148 C54.025423,271.307366 55.2369322,270.251017 56.0490831,268.993481 C58.0997665,265.818208 57.4499102,261.748088 57.3739398,257.996828 C57.300068,254.348866 57.8390045,250.667524 57.2254485,247.068213 C56.6118925,243.468902 54.4963849,239.789717 50.9363025,238.66192 C49.1728063,238.103264 47.2662772,238.229975 45.4209682,238.408001 C35.644799,239.351136 26.1453187,241.082033 16.9705871,244.505204 Z" id="Path" fill="#000000" opacity="0.1"></path>
                <path d="M56.0890258,268.467116 C56.0607007,269.876473 55.8994743,271.280137 55.6074453,272.659836 C53.920092,282.024226 52.1219884,291.368903 50.2131345,300.693867 C50.0451639,301.502864 49.8808834,302.311856 49.6606453,303.106083 C48.9494655,305.70097 47.7053622,308.122933 46.0060008,310.220776 C38.0508069,320.032127 37.3639002,334.280022 33.0484633,346.112025 C32.7573165,346.913623 32.4661404,347.71522 32.1562549,348.505752 C31.3763832,350.510727 30.4878614,352.472647 29.4945562,354.382972 C29.3785236,354.661367 29.1889931,354.903777 28.945806,355.084823 C28.678098,355.218088 28.3784008,355.275615 28.0797558,355.251061 C24.1967245,355.273155 20.3607374,354.409822 16.8693332,352.728027 C16.3708898,352.546172 15.95056,352.200645 15.678505,351.749121 C15.5445969,351.389272 15.5010298,351.00262 15.5515508,350.622422 C15.6710319,348.276722 15.816598,345.84604 16.9477149,343.784785 C17.6982864,342.551445 18.6291999,341.434825 19.710195,340.471225 C20.0461801,333.109017 20.7816104,325.732043 22.4166734,318.543435 C23.2566143,314.867866 24.2943693,311.151666 26.4520975,308.044994 C28.0423807,305.75099 30.3233485,303.486547 30.0433552,300.719717 C29.9201351,299.504391 29.4049673,297.989824 30.4054497,297.276874 C30.8421919,296.962916 31.488004,296.922241 31.7829142,296.475276 C31.9017612,296.264719 31.9682998,296.029211 31.977038,295.788191 C32.1826171,293.889347 32.0627249,291.969783 31.6224166,290.11044 C31.2586172,288.895775 30.9730811,287.659489 30.7675296,286.409035 C30.6405705,285.145659 30.8571185,283.778884 31.7082714,282.833209 C31.7604999,280.30648 31.6895863,277.683728 31.7418538,275.160695 C31.8424417,273.722618 31.721594,272.277766 31.3834495,270.875622 C31.1893695,270.214379 30.8944398,269.58271 30.7451104,268.906695 C30.2113063,266.479713 31.5440349,263.572511 29.9574809,261.64791 C29.2967226,260.850008 28.2775991,260.451049 27.4115,259.874772 C25.6830799,258.733308 24.5482093,256.864128 23.9173091,254.902596 C23.3575041,252.916558 23.0256679,250.874418 22.9280827,248.814835 C22.8764949,248.37821 22.8714853,247.937425 22.9131366,247.499762 C22.9411143,247.273299 23.0014422,247.051913 23.0923143,246.842232 C23.5851069,245.745094 24.9103624,245.320261 26.0899786,245.039544 C33.5870143,243.260287 41.271558,242.371142 48.9811726,242.390902 C51.8331976,240.470026 53.4384367,241.15711 54.64795,243.192524 C55.3159208,244.434934 55.8561988,245.740544 56.2606622,247.089728 C56.8131464,248.740949 56.8467337,257.983431 57.3843061,259.642047 C58.0824296,261.799368 56.0628725,266.202672 56.0890258,268.467116 Z" id="Path" fill="#2F2E41"></path>
                <path d="M4.78645101,184.288961 C4.57753732,185.754755 5.27411036,187.195257 5.35113098,188.674156 C5.41842238,189.966297 5.01190727,191.228366 4.77933935,192.500722 C3.87162481,197.46639 5.61558113,202.496312 7.39039959,207.216128 C7.72793807,207.982583 7.93740451,208.800407 8.01025995,209.636262 C8.05774164,211.176781 7.18081226,212.588243 6.94065631,214.110242 C6.43600691,217.308391 8.76755162,220.316797 8.81587055,223.55508 C8.83811978,225.046034 8.37406655,226.56352 8.74273296,228.007235 C8.98876398,228.970723 9.58317534,229.798713 10.0049627,230.697684 C10.7523375,232.290582 10.9529126,234.097867 11.6662928,235.706642 C12.9555306,238.614072 15.7252369,240.512474 18.3611158,242.256591 C19.8607107,241.750761 21.4819739,241.150191 22.3052193,239.784814 C22.6665947,239.112173 22.900113,238.376937 22.9936702,237.617216 C23.5635998,234.305146 23.5438478,230.9219 23.522431,227.56007 C23.5706122,224.667196 23.4186505,221.774458 23.0676595,218.903052 C22.5351986,215.25042 21.3639337,211.728594 20.5236356,208.135669 C19.4638334,203.604207 18.9207627,198.922296 17.2701338,194.575484 C15.8196132,190.755646 13.5602486,187.32687 11.1821268,184.042682 C10.2747298,182.789576 9.55840479,180.998361 7.7972852,181.287717 C6.27108276,181.550596 5.06899937,182.748851 4.78645101,184.288961 L4.78645101,184.288961 Z" id="Path" fill="#3F3D56"></path>
                <path d="M4.78645101,184.288961 C4.57753732,185.754755 5.27411036,187.195257 5.35113098,188.674156 C5.41842238,189.966297 5.01190727,191.228366 4.77933935,192.500722 C3.87162481,197.46639 5.61558113,202.496312 7.39039959,207.216128 C7.72793807,207.982583 7.93740451,208.800407 8.01025995,209.636262 C8.05774164,211.176781 7.18081226,212.588243 6.94065631,214.110242 C6.43600691,217.308391 8.76755162,220.316797 8.81587055,223.55508 C8.83811978,225.046034 8.37406655,226.56352 8.74273296,228.007235 C8.98876398,228.970723 9.58317534,229.798713 10.0049627,230.697684 C10.7523375,232.290582 10.9529126,234.097867 11.6662928,235.706642 C12.9555306,238.614072 15.7252369,240.512474 18.3611158,242.256591 C19.8607107,241.750761 21.4819739,241.150191 22.3052193,239.784814 C22.6665947,239.112173 22.900113,238.376937 22.9936702,237.617216 C23.5635998,234.305146 23.5438478,230.9219 23.522431,227.56007 C23.5706122,224.667196 23.4186505,221.774458 23.0676595,218.903052 C22.5351986,215.25042 21.3639337,211.728594 20.5236356,208.135669 C19.4638334,203.604207 18.9207627,198.922296 17.2701338,194.575484 C15.8196132,190.755646 13.5602486,187.32687 11.1821268,184.042682 C10.2747298,182.789576 9.55840479,180.998361 7.7972852,181.287717 C6.27108276,181.550596 5.06899937,182.748851 4.78645101,184.288961 L4.78645101,184.288961 Z" id="Path" fill="#000000" opacity="0.05"></path>
                <circle id="Oval" fill="#A0616A" cx="36.5311321" cy="143.256591" r="14"></circle>
                <path d="M45.320403,166.17094 C44.7164248,166.858014 43.9059463,167.615161 43.0101406,167.39364 C42.6863582,167.284897 42.3827161,167.125119 42.1111006,166.920562 C40.5140279,165.908635 38.553738,165.671182 36.6748823,165.392922 C32.8877546,164.831923 29.1463586,164.005001 25.4794065,162.918502 C24.4151081,162.537647 23.2990971,162.314569 22.1680199,162.256591 C19.8198674,162.268519 17.7388238,163.803031 16.2673002,165.602012 C14.7957765,167.400992 13.7532498,169.506049 12.309279,171.326481 C11.2804702,172.623517 10.055303,173.766433 9.09452262,175.112958 C6.66894102,178.512365 6.14761176,182.947395 6.77381081,187.053871 C7.40000985,191.160346 9.06886253,195.032376 10.7226509,198.853215 C11.6064661,201.071523 12.6852688,203.209882 13.9468127,205.244016 C13.3889154,208.364093 13.6833821,211.932229 15.1925129,214.731256 C15.6840062,215.642839 16.2863159,216.531771 16.4488136,217.551045 C16.5233213,218.240831 16.4939879,218.937646 16.3617596,219.619021 L15.6566338,224.550044 C15.4419231,226.051537 15.2271247,227.553553 14.9490542,229.044965 C14.4401257,231.774549 13.7496739,234.736986 15.0355521,237.207396 C16.5754555,240.165834 14.958084,243.957211 15.3626939,247.256591 C19.6972055,245.610683 24.2386463,244.549949 28.8629976,244.103356 C31.8401786,243.816443 34.8729288,243.780191 37.7452693,242.958584 C39.5391442,242.445479 41.2403208,241.633166 43.0616462,241.224069 C44.5386999,240.939096 46.0393162,240.788491 47.5444748,240.774165 C50.8642913,240.642513 54.2075775,240.511994 57.4938602,240.993086 C57.7599739,241.032043 58.0841156,241.053068 58.2433887,240.839902 C58.3143976,240.72396 58.3491192,240.590034 58.343224,240.454823 C58.3937358,239.243841 58.0995252,238.043026 57.4936894,236.987463 C57.0747469,236.260569 56.492653,235.549529 56.5087808,234.714225 C56.5390825,234.324684 56.6363928,233.943022 56.796569,233.585485 L58.2526868,229.767816 C59.4819127,226.544998 58.8969406,222.801521 59.5353355,219.417302 C60.0342726,216.772052 60.3539759,214.097148 60.4923351,211.410247 C60.6105326,209.113696 60.5370793,206.626711 59.1275156,204.791666 C58.7153509,204.349302 58.3578526,203.860566 58.0624704,203.335642 C57.86012,202.777799 57.7738723,202.185666 57.8088501,201.594414 C57.7774368,196.998821 57.9056738,192.405753 58.1935612,187.815209 C56.9643694,185.644894 55.6828086,183.425312 54.4536168,181.254993 C53.0230859,178.729181 51.572627,176.151381 50.9950504,173.316749 C50.6127394,171.440464 50.6260134,169.508298 50.3525285,167.613722 C50.3237782,167.132534 50.1536035,166.669888 49.8626499,166.281911 C49.3932311,165.759162 48.5994658,165.684347 47.8905105,165.706115 C47.0149366,165.7334 46.148528,165.890097 45.320403,166.17094 L45.320403,166.17094 Z" id="Path" fill="#3F3D56"></path>
                <path d="M49.0797076,187.801509 C49.9156863,188.851227 50.7869739,189.930695 51.9728295,190.550619 C53.3372071,191.263882 54.9443455,191.280146 56.4812145,191.247214 C62.8096744,191.111228 69.1139205,190.413735 75.3207781,189.16283 C76.027923,189.040242 76.7224509,188.852758 77.3956797,188.602721 C78.1419043,188.244894 78.8454135,187.802956 79.4927115,187.285384 C81.5360861,185.805828 83.6085018,184.298611 85.16222,182.304673 C87.0108049,179.896572 88.1727282,177.026532 88.5230615,174.003137 C90.0009922,172.631675 90.7858043,170.682306 91.5256402,168.800437 C91.8910229,168.002099 92.1223209,167.148221 92.2101068,166.273604 C92.2498214,165.378829 91.66113,164.440824 91.8239636,163.560296 C92.1090535,162.042001 92.8734533,160.657068 94.0033213,159.611753 C94.2428692,159.439721 94.4238821,159.197438 94.521661,158.917963 C94.5520532,158.685103 94.5088752,158.448516 94.3982519,158.241762 C93.7657981,156.822951 92.31967,155.908137 90.820291,155.53631 C89.3015922,155.241383 87.747369,155.179235 86.2102353,155.351968 C85.6978723,155.449631 85.1932243,155.584626 84.7002699,155.755888 L83.6262312,158.604417 C83.4819274,159.080872 83.2431934,159.522907 82.9244607,159.9038 C82.6852518,160.122537 82.4303864,160.32325 82.1619288,160.504313 C81.055087,161.450847 80.4884965,162.890077 80.6505899,164.343353 C78.6354729,165.131239 77.5751477,167.360687 78.2285342,169.435986 C76.5859385,169.790706 75.2445972,170.980058 74.6870863,172.576147 C74.6106054,172.933769 74.452213,173.268443 74.2245414,173.553479 C73.870138,173.824114 73.4320772,173.9597 72.9879351,173.936226 C71.7742716,174.011831 70.7130294,174.974541 69.6131413,174.452303 C68.3637272,173.86254 66.9667874,173.665894 65.6047041,173.888039 C65.3246659,173.954445 65.0366374,173.980174 64.7493662,173.964443 C64.5036475,173.921934 64.2666122,173.838743 64.0478763,173.718246 C63.5526006,173.427511 63.0160329,173.214896 62.4568375,173.087796 C61.88279,172.967233 61.2919224,173.197106 60.9474088,173.675031 C60.5622619,173.24965 60.3327328,172.704889 59.9818065,172.250472 C59.6645981,171.75647 59.0983489,171.484319 58.5175235,171.546707 C58.8831372,171.218607 58.5088957,170.56561 58.0337381,170.446274 C57.5463947,170.405956 57.0560262,170.423857 56.5728597,170.499605 C55.3025938,170.492859 54.3279478,169.331205 53.0940643,169.027146 C51.9599266,168.747662 50.4483072,169.08095 49.8669427,168.061125 C49.6608255,167.699566 49.6204774,167.209212 49.2696768,166.987847 C49.0320359,166.870277 48.7614512,166.838694 48.5034113,166.898408 C47.6979332,167.006371 46.9152637,167.245618 46.1860828,167.606771 C44.996779,172.292108 45.6207356,177.157906 46.5269402,181.907031 C46.8580226,184.060966 47.737518,186.091768 49.0797076,187.801509 L49.0797076,187.801509 Z" id="Path" fill="#3F3D56"></path>
                <path d="M42.8106284,161.09598 C41.3035027,160.152489 39.5292687,159.752377 37.7828694,159.431632 C36.7343833,159.191651 35.6556739,159.113632 34.5838316,159.200257 C33.5948956,159.324367 32.6456909,159.708356 31.650626,159.764122 C30.2539686,159.842394 28.9149345,159.272664 27.5657252,158.901301 C26.2165158,158.529938 24.6580095,158.388064 23.5220991,159.209048 C23.2803456,159.448397 22.9745079,159.611753 22.6419494,159.679159 C22.2970444,159.637088 21.976424,159.478948 21.7321941,159.230439 C19.763699,157.813509 17.0820951,157.955644 15.2726071,159.572819 C12.6968947,162.001683 12.9883949,166.747449 9.9698153,168.589649 C9.13776175,169.097439 8.07406227,169.366054 7.5882929,170.214224 C7.47067294,170.484409 7.33340609,170.745505 7.17760849,170.99539 C6.97539958,171.218865 6.72794284,171.396193 6.45188779,171.515443 C5.57602983,171.908582 4.74233798,172.390558 3.96376048,172.953884 C3.17896151,173.528475 2.66164646,174.400565 2.53170989,175.368037 C2.52055429,176.069867 2.67106693,176.764771 2.97146567,177.398351 C5.99830643,184.864518 13.3710717,189.605777 21.3799937,189.236461 C22.0739789,189.272405 22.75789,189.057742 23.3083451,188.631196 C23.5987601,188.301916 23.8277337,187.922654 23.984268,187.511625 C25.4033189,184.519254 28.0686148,182.310268 29.7610414,179.465274 C30.7697096,177.769689 31.4171745,175.873255 32.4671966,174.203246 C34.0589344,171.671609 36.4796341,169.801402 38.8490126,167.986548 C40.185138,166.963123 41.6726354,165.889116 43.3512065,165.960801 C44.8471874,166.024876 45.9353282,166.105635 45.38688,164.260441 C44.9298629,162.930956 44.0164075,161.80894 42.8106284,161.09598 L42.8106284,161.09598 Z" id="Path" fill="#3F3D56"></path>
                <path d="M42.8106284,161.09598 C41.3035027,160.152489 39.5292687,159.752377 37.7828694,159.431632 C36.7343833,159.191651 35.6556739,159.113632 34.5838316,159.200257 C33.5948956,159.324367 32.6456909,159.708356 31.650626,159.764122 C30.2539686,159.842394 28.9149345,159.272664 27.5657252,158.901301 C26.2165158,158.529938 24.6580095,158.388064 23.5220991,159.209048 C23.2803456,159.448397 22.9745079,159.611753 22.6419494,159.679159 C22.2970444,159.637088 21.976424,159.478948 21.7321941,159.230439 C19.763699,157.813509 17.0820951,157.955644 15.2726071,159.572819 C12.6968947,162.001683 12.9883949,166.747449 9.9698153,168.589649 C9.13776175,169.097439 8.07406227,169.366054 7.5882929,170.214224 C7.47067294,170.484409 7.33340609,170.745505 7.17760849,170.99539 C6.97539958,171.218865 6.72794284,171.396193 6.45188779,171.515443 C5.57602983,171.908582 4.74233798,172.390558 3.96376048,172.953884 C3.17896151,173.528475 2.66164646,174.400565 2.53170989,175.368037 C2.52055429,176.069867 2.67106693,176.764771 2.97146567,177.398351 C5.99830643,184.864518 13.3710717,189.605777 21.3799937,189.236461 C22.0739789,189.272405 22.75789,189.057742 23.3083451,188.631196 C23.5987601,188.301916 23.8277337,187.922654 23.984268,187.511625 C25.4033189,184.519254 28.0686148,182.310268 29.7610414,179.465274 C30.7697096,177.769689 31.4171745,175.873255 32.4671966,174.203246 C34.0589344,171.671609 36.4796341,169.801402 38.8490126,167.986548 C40.185138,166.963123 41.6726354,165.889116 43.3512065,165.960801 C44.8471874,166.024876 45.9353282,166.105635 45.38688,164.260441 C44.9298629,162.930956 44.0164075,161.80894 42.8106284,161.09598 L42.8106284,161.09598 Z" id="Path" fill="#000000" opacity="0.05"></path>
                <path d="M50.3991397,363.666274 C49.3945538,364.633097 48.012774,365.056794 46.6720272,365.357227 C43.6101478,365.973084 40.5103951,366.368218 37.3952743,366.539759 C36.3869528,366.616818 35.3748957,366.697699 34.3665742,366.778575 C31.4087628,367.009701 28.4472207,367.244659 25.4782367,367.256228 C21.813601,367.269044 18.1552335,366.942883 14.5470874,366.281663 C14.2542807,366.310623 13.9655151,366.194598 13.7688637,365.968976 C13.5722123,365.743354 13.4909948,365.43489 13.5499825,365.137665 C13.6141091,361.327349 14.0646949,357.534416 14.894377,353.820847 C15.2380237,352.295495 17.8895249,355.715965 18.0090595,355.858483 C18.7447597,356.721298 19.3012092,357.118054 20.4178487,357.179676 C23.4690259,357.353012 26.8861804,355.43862 29.3099267,353.736093 C29.8289305,353.337942 30.3798988,352.98615 30.9568469,352.68454 C31.3807265,352.488367 31.8297421,352.356049 32.2901224,352.291642 C33.8599648,352.142401 35.437741,352.471886 36.827657,353.239211 C38.6501362,354.171358 40.2485521,355.511805 42.0523434,356.470943 C43.5190788,357.248243 45.1022684,357.7652 46.7354838,358.000124 C48.3862372,358.235087 50.3580627,358.346807 51.2058213,359.822056 C51.2087007,359.825136 51.2100756,359.829394 51.2095618,359.83364 C51.9041898,361.054687 51.3999802,362.703303 50.3991397,363.666274 Z" id="Path" fill="#2F2E41"></path>
                <path d="M50.2202096,363.788511 C49.2346072,364.722418 47.8789386,365.131689 46.5635277,365.421898 C43.5595075,366.016783 40.5183304,366.398463 37.4620758,366.564165 C36.4728084,366.6386 35.4798759,366.716727 34.4906085,366.79485 C31.5886903,367.018106 28.6831119,367.245065 25.7702323,367.25624 C22.1748465,367.268622 18.5856102,366.953566 15.0456469,366.314856 C14.7176309,366.301709 14.4097353,366.150774 14.1955687,365.898136 C13.9160477,365.522292 13.6921969,365.10693 13.5311321,364.665254 C13.5934134,360.98917 14.5729745,357.316802 15.3863738,353.733733 C15.7235267,352.260313 18.324923,355.564329 18.4421988,355.701995 C19.1639965,356.535434 19.7099309,356.918682 20.8054695,356.978206 C23.7989891,357.145641 27.1515704,355.296426 29.5295155,353.651864 C30.0387118,353.267268 30.5792686,352.927454 31.1453142,352.636113 C31.5611838,352.446619 32.0017145,352.318806 32.4533951,352.256591 C32.0686544,354.444398 28.9799113,357.086112 27.3860309,357.889787 C24.1617205,359.51575 20.3291752,358.704632 16.7311288,358.894417 C16.4677343,358.887377 16.2072328,358.951581 15.9763219,359.080451 C15.5439935,359.37066 15.5183144,359.992037 15.5329889,360.516653 C15.5622851,361.387314 15.6721781,362.410514 16.4159852,362.853261 C16.7880713,363.034644 17.1979934,363.12148 17.61046,363.106292 C26.4770871,363.500464 35.3605163,363.184459 44.1782477,362.16121 C45.6612812,362.060477 47.1204897,361.730494 48.5054746,361.182657 C49.4104366,360.75188 50.2545457,360.200035 51.0153173,359.541821 C52.1479324,360.445497 51.2021374,362.858326 50.2202096,363.788511 Z" id="Path" fill="#E8EAF2"></path>
                <path d="M42.176019,142.938822 C42.1227779,144.379556 43.1189672,147.174761 40.3889734,146.394349 C38.7616015,145.929112 38.3015422,144.02687 36.236896,144.450843 C34.1532234,144.882327 33.6969724,147.384869 32.9973852,149.028224 C31.8403708,151.679471 29.433879,153.597992 26.5639534,154.15713 C25.9809888,154.290995 25.3745158,154.289717 24.7921359,154.153397 C23.4613463,153.778203 22.7008965,152.423733 22.1571747,151.16684 C21.6863515,150.103795 21.2961874,149.007714 20.9899018,147.887639 C20.7777403,147.099792 20.6364947,146.294997 20.5678108,145.482631 L20.5678108,145.478873 C20.5215944,144.925873 20.5190496,144.370162 20.5601993,143.816772 C20.8074034,140.54133 22.697113,137.554773 25.1153412,135.296116 C27.5335694,133.037459 30.4727046,131.405347 33.3738217,129.795749 C34.3212675,129.212244 35.3462707,128.761453 36.4194391,128.4563 C37.4779791,128.245589 38.5636148,128.201272 39.6361749,128.32499 C41.0483103,128.384489 42.4363649,128.706547 43.7274046,129.274242 C44.256716,129.532114 44.7427289,129.868712 45.1684301,130.272254 C45.7742692,130.826267 46.2069716,131.539644 46.4155324,132.328294 C46.9402924,134.444402 45.5714449,136.350397 44.4612165,138.023752 C43.4725542,139.509537 42.2482368,141.085359 42.176019,142.938822 Z" id="Path" fill="#2F2E41"></path>
                <path d="M45.6597173,134.946907 C45.4083608,135.362114 45.1333238,135.761956 44.8360216,136.144376 C44.2683206,136.875119 43.6312127,137.547025 42.9339577,138.150326 C42.5234919,138.514547 42.0948483,138.856954 41.6497366,139.176181 C40.8247377,139.767684 39.9574122,140.295437 39.055034,140.755013 C36.4266248,142.105011 33.5810732,142.951639 30.7504632,143.786813 C28.9008809,144.335969 27.0500224,144.883855 25.1978878,145.430468 C23.2621418,146.921568 16.7772751,151.814407 15.6877105,151.204217 C14.4034894,150.483467 21.440876,145.409101 21.440876,145.409101 L21.7644795,145.659276 C20.7348329,144.99953 20.1956978,143.470279 19.96356,142.146952 C19.5517122,139.778733 19.3569871,137.318967 19.9073872,134.977419 C20.4577677,132.639692 21.839388,130.412573 23.9436037,129.318074 C24.875895,128.829927 26.006637,128.498144 26.6806086,127.746882 C26.7827543,127.635668 26.871956,127.512817 26.9464432,127.380768 C26.9871975,127.319363 27.0222952,127.254254 27.0512888,127.186272 C27.1256479,126.980002 27.2250038,126.783996 27.3470506,126.602803 C27.7327066,126.148988 28.4328651,126.286269 29.016962,126.358727 C29.0806057,126.366341 29.1404992,126.373976 29.2041674,126.377795 C29.3086433,126.388584 29.4136111,126.393673 29.5186208,126.393039 C31.6041449,126.438799 33.6260008,125.256591 35.7377117,125.256591 C38.0515793,125.25278 40.0210075,126.618052 42.057854,127.548567 C42.4697067,127.739243 42.8591128,127.910861 43.2260331,128.086269 C44.6974645,128.784161 45.8057207,129.527819 46.4123181,131.510886 C46.7642283,132.670214 46.2812171,133.917262 45.6597173,134.946907 Z" id="Path" fill="#3F3D56"></path>
                <path d="M21.5311321,145.308596 C21.7805697,145.66853 22.0587625,145.908387 22.3491058,146.013849 C23.08928,146.512101 23.8865285,146.235421 24.5311321,145.256591 L21.5311321,145.308596 Z" id="Path" fill="#000000" opacity="0.1"></path>
            </g>
        </g>
    </g>
</svg>