<?xml version="1.0" encoding="UTF-8"?>
<svg width="375px" height="253px" viewBox="0 0 375 253" version="1.1" xmlns="http://www.w3.org/2000/svg" xmlns:xlink="http://www.w3.org/1999/xlink">
    <!-- Generator: Sketch 58 (84663) - https://sketch.com -->
    <title>pitch-illustration-2</title>
    <desc>Created with Sketch.</desc>
    <defs>
        <linearGradient x1="50.0019248%" y1="100.003446%" x2="50.0019248%" y2="7.46780926e-06%" id="linearGradient-1">
            <stop stop-color="#808080" stop-opacity="0.4" offset="20%"></stop>
            <stop stop-color="#808080" stop-opacity="0.5" offset="46%"></stop>
            <stop stop-color="#000000" stop-opacity="0.6" offset="100%"></stop>
        </linearGradient>
        <linearGradient x1="50.0074192%" y1="99.968887%" x2="50.0074192%" y2="-0.00948624884%" id="linearGradient-2">
            <stop stop-color="#808080" stop-opacity="0.25" offset="0%"></stop>
            <stop stop-color="#808080" stop-opacity="0.12" offset="54%"></stop>
            <stop stop-color="#808080" stop-opacity="0.1" offset="100%"></stop>
        </linearGradient>
    </defs>
    <g id="Landing-Page" stroke="none" stroke-width="1" fill="none" fill-rule="evenodd">
        <g id="Home" transform="translate(-50.000000, -1487.000000)">
            <g id="pitch-illustration-2" transform="translate(50.000000, 1487.000000)">
                <path d="M374,182.437403 C374,197.507014 291.426924,253 188.301861,253 C85.1767985,253 4,193.862729 4,178.793118 C4,163.723506 85.1767985,198.420633 188.301861,198.420633 C291.426924,198.420633 374,167.354206 374,182.437403 Z" id="Path" fill="#3F3D56" fill-rule="nonzero"></path>
                <path d="M375,176.728491 C375,176.92791 375,177.127328 375,177.330126 C374.773612,183.56279 371.303464,189.761655 364.971371,194.138715 C358.254082,198.776034 349.245887,201.216372 339.997788,202.774538 C338.551611,203.017896 337.098677,203.237594 335.649121,203.450532 C334.909138,203.551931 334.172534,203.65333 333.439308,203.747969 C312.851561,206.451945 291.831312,206.96908 270.909052,207.465936 C249.023799,208.006731 227.118274,208.540766 205.20937,208.817924 L200.864081,208.868623 C167.622285,209.2269 134.394006,208.926083 101.273851,207.04006 C90.9951827,206.458705 80.6151465,205.688072 70.4243298,204.390163 C68.971395,204.212152 67.5229655,204.01724 66.0790412,203.805429 C52.5633691,201.868706 39.4497883,198.897713 27.5019342,194.074496 C24.681498,192.94826 21.9226876,191.673352 19.2371007,190.25513 C11.7325238,186.270146 5.40381031,181.230611 2.27155331,175.045266 C0.449487758,171.418908 -0.300696716,167.347891 0.109045775,163.310012 C0.243057182,161.842121 0.495038044,160.387411 0.862544494,158.959991 C1.80460068,155.42815 3.24135764,152.047363 5.13011795,148.918101 C10.0092756,140.664215 17.3381488,133.265461 23.6567255,125.51519 C37.1453662,108.997279 45.930553,88.1259656 33.4826191,71.1956974 C29.9111027,66.331921 24.748116,62.0697792 21.8388676,56.9829248 C20.2825568,54.2349861 19.3115938,51.1946035 18.9870607,48.0530449 C18.8291231,46.6087552 18.7692915,45.1554132 18.8079781,43.7030238 C18.9460031,40.311415 19.3698714,36.9375037 20.0750724,33.6171943 C22.1024232,23.2339273 25.8901903,12.0394677 37.5880044,5.56344574 C45.5723877,1.14244537 55.7496888,-0.229822332 66.0689044,0.030435335 C67.517334,0.064235032 68.9657635,0.131834426 70.414193,0.233233517 C74.370906,0.493491184 78.3039666,0.973446882 82.1018704,1.5852214 C105.565077,5.3336078 127.220563,13.1649976 149.082162,20.2358942 C165.726712,25.616806 182.965952,30.6495809 200.853944,33.0493593 C202.300121,33.2420176 203.746298,33.421156 205.199233,33.5766346 C209.39247,34.0363105 213.622875,34.3405078 217.88707,34.4655667 C239.110054,35.0739612 263.870765,30.4772024 277.964232,18.5391494 C291.577893,6.99993286 317.108998,6.07044119 335.638984,12.9621994 L335.916055,13.0669785 C337.310422,13.5987604 338.661989,14.1711019 339.970757,14.7840031 C353.624965,21.2059455 362.771696,32.2043669 364.062442,43.7131638 C364.223957,45.1425837 364.262393,46.5832425 364.177326,48.0192452 C364.179128,48.0338362 364.179128,48.0485937 364.177326,48.0631848 C363.292049,62.2218778 351.722634,74.1126112 339.974136,86.0236245 C338.521201,87.4939113 337.064887,88.9641981 335.625468,90.4446248 C331.814049,94.3586298 328.120891,98.3030544 324.917677,102.362398 C323.454931,104.202324 322.109701,106.132742 320.890007,108.142146 C319.769022,109.995516 318.811428,111.942967 318.028063,113.962454 C317.201824,116.05306 316.670736,118.248604 316.450109,120.485796 C316.120777,123.692586 316.706555,126.927086 318.139568,129.814512 L318.169978,129.882111 C321.305614,136.101256 327.941809,140.508736 335.625468,144.415981 C337.041235,145.139295 338.497549,145.842328 339.974136,146.538602 C348.306548,150.472887 357.284333,154.126634 364.109747,158.98365 C365.949734,160.263761 367.666845,161.712105 369.238945,163.310012 C369.878967,163.972742 370.483511,164.668861 371.050045,165.395453 C373.542302,168.54534 374.929147,172.428053 375,176.444574 C375,176.545973 375,176.637232 375,176.728491 Z" id="Path" fill="#6C63FF" fill-rule="nonzero"></path>
                <path d="M375,176.728491 C375,176.92791 375,177.127328 375,177.330126 C374.773612,183.56279 371.303464,189.761655 364.971371,194.138715 C358.254082,198.776034 349.245887,201.216372 339.997788,202.774538 C338.551611,203.017896 337.098677,203.237594 335.649121,203.450532 C334.909138,203.551931 334.172534,203.65333 333.439308,203.747969 C312.851561,206.451945 291.831312,206.96908 270.909052,207.465936 C249.023799,208.006731 227.118274,208.540766 205.20937,208.817924 L200.864081,208.868623 C167.622285,209.2269 134.394006,208.926083 101.273851,207.04006 C90.9951827,206.458705 80.6151465,205.688072 70.4243298,204.390163 C68.971395,204.212152 67.5229655,204.01724 66.0790412,203.805429 C52.5633691,201.868706 39.4497883,198.897713 27.5019342,194.074496 C24.681498,192.94826 21.9226876,191.673352 19.2371007,190.25513 C11.7325238,186.270146 5.40381031,181.230611 2.27155331,175.045266 C0.449487758,171.418908 -0.300696716,167.347891 0.109045775,163.310012 C0.243057182,161.842121 0.495038044,160.387411 0.862544494,158.959991 C1.80460068,155.42815 3.24135764,152.047363 5.13011795,148.918101 C10.0092756,140.664215 17.3381488,133.265461 23.6567255,125.51519 C37.1453662,108.997279 45.930553,88.1259656 33.4826191,71.1956974 C29.9111027,66.331921 24.748116,62.0697792 21.8388676,56.9829248 C20.2825568,54.2349861 19.3115938,51.1946035 18.9870607,48.0530449 C18.8291231,46.6087552 18.7692915,45.1554132 18.8079781,43.7030238 C18.9460031,40.311415 19.3698714,36.9375037 20.0750724,33.6171943 C22.1024232,23.2339273 25.8901903,12.0394677 37.5880044,5.56344574 C45.5723877,1.14244537 55.7496888,-0.229822332 66.0689044,0.030435335 C67.517334,0.064235032 68.9657635,0.131834426 70.414193,0.233233517 C74.370906,0.493491184 78.3039666,0.973446882 82.1018704,1.5852214 C105.565077,5.3336078 127.220563,13.1649976 149.082162,20.2358942 C165.726712,25.616806 182.965952,30.6495809 200.853944,33.0493593 C202.300121,33.2420176 203.746298,33.421156 205.199233,33.5766346 C209.39247,34.0363105 213.622875,34.3405078 217.88707,34.4655667 C239.110054,35.0739612 263.870765,30.4772024 277.964232,18.5391494 C291.577893,6.99993286 317.108998,6.07044119 335.638984,12.9621994 L335.916055,13.0669785 C337.310422,13.5987604 338.661989,14.1711019 339.970757,14.7840031 C353.624965,21.2059455 362.771696,32.2043669 364.062442,43.7131638 C364.223957,45.1425837 364.262393,46.5832425 364.177326,48.0192452 C364.179128,48.0338362 364.179128,48.0485937 364.177326,48.0631848 C363.292049,62.2218778 351.722634,74.1126112 339.974136,86.0236245 C338.521201,87.4939113 337.064887,88.9641981 335.625468,90.4446248 C331.814049,94.3586298 328.120891,98.3030544 324.917677,102.362398 C323.454931,104.202324 322.109701,106.132742 320.890007,108.142146 C319.769022,109.995516 318.811428,111.942967 318.028063,113.962454 C317.201824,116.05306 316.670736,118.248604 316.450109,120.485796 C316.120777,123.692586 316.706555,126.927086 318.139568,129.814512 L318.169978,129.882111 C321.305614,136.101256 327.941809,140.508736 335.625468,144.415981 C337.041235,145.139295 338.497549,145.842328 339.974136,146.538602 C348.306548,150.472887 357.284333,154.126634 364.109747,158.98365 C365.949734,160.263761 367.666845,161.712105 369.238945,163.310012 C369.878967,163.972742 370.483511,164.668861 371.050045,165.395453 C373.542302,168.54534 374.929147,172.428053 375,176.444574 C375,176.545973 375,176.637232 375,176.728491 Z" id="Path" fill="url(#linearGradient-1)" fill-rule="nonzero"></path>
                <path d="M340,14.8104607 L340,85.603167 C338.663559,87.0676583 337.324009,88.5287908 336,90 L336,13 L340,14.8104607 Z" id="Path" fill="#3F3D56" fill-rule="nonzero"></path>
                <path d="M363.955933,47.959596 C363.957611,47.9730199 363.957611,47.9865761 363.955933,48 L18.1907187,48 C18.0326706,46.6719139 17.9727428,45.3355231 18.0113465,44 L363.840864,44 C364,45.3143996 364.041188,46.6391409 363.955933,47.959596 Z" id="Path" fill="#3F3D56" fill-rule="nonzero"></path>
                <circle id="Oval" fill="#E7EFFD" fill-rule="nonzero" cx="81" cy="24" r="1"></circle>
                <circle id="Oval" fill="#E7EFFD" fill-rule="nonzero" cx="41" cy="22" r="1"></circle>
                <circle id="Oval" fill="#E7EFFD" fill-rule="nonzero" cx="95.5" cy="24.5" r="1"></circle>
                <circle id="Oval" fill="#E7EFFD" fill-rule="nonzero" cx="54.5" cy="23.5" r="1"></circle>
                <circle id="Oval" fill="#E7EFFD" fill-rule="nonzero" cx="54.5" cy="61.5" r="1"></circle>
                <circle id="Oval" fill="#E7EFFD" fill-rule="nonzero" cx="305.5" cy="32.5" r="1"></circle>
                <circle id="Oval" fill="#E7EFFD" fill-rule="nonzero" cx="121.5" cy="32.5" r="1"></circle>
                <circle id="Oval" fill="#E7EFFD" fill-rule="nonzero" cx="278.5" cy="31.5" r="1"></circle>
                <circle id="Oval" fill="#E7EFFD" fill-rule="nonzero" cx="347.5" cy="33.5" r="1"></circle>
                <path d="M375,176.628416 C375,176.827506 375,177.026597 375,177.229062 C374.82756,183.498724 371.348336,189.751515 364.964688,194.151752 C358.242922,198.78145 349.228723,201.217777 339.974461,202.773383 C338.52732,203.01634 337.073417,203.235677 335.622895,203.448266 C334.882419,203.549498 334.145324,203.650731 333.41161,203.745214 C328.339855,204.420097 323.241051,204.936383 318.125341,205.368308 C311.261566,205.948707 304.363979,206.350262 297.45963,206.647211 C288.594203,207.035269 279.711869,207.254606 270.839679,207.473943 C253.497659,207.899119 236.142114,208.324295 218.769663,208.617869 L212.60579,208.719102 L205.086068,208.820334 L200.737883,208.87095 C173.350407,209.16115 146.003505,209.012676 118.703939,207.899119 C116.887123,207.827131 115.073689,207.748395 113.263636,207.66291 C109.206232,207.485191 105.148828,207.279351 101.091425,207.045392 C92.9597109,206.586471 84.763755,206.006072 76.6557095,205.145596 C74.5052855,204.920635 72.3638778,204.672053 70.2314867,204.399851 C68.7775836,204.222131 67.3281888,204.02754 65.8833021,203.816077 C64.2738653,203.591116 62.6711907,203.345908 61.0752785,203.080454 C49.2411838,201.150289 37.8162106,198.356273 27.2804851,194.097762 C24.4557234,192.96761 21.6918222,191.691479 19,190.27455 L19,130.884847 C20.5012394,129.147023 21.9923354,127.409199 23.4259514,125.651129 C25.1503481,123.538745 26.8071214,121.362248 28.3286478,119.128385 L61.0583727,119.128385 L61.0583727,99 L118.70732,99 L118.70732,143.252078 L212.60579,143.252078 L212.60579,108.158162 L320.938474,108.158162 C319.838053,109.949022 318.889165,111.828332 318.101673,113.776563 L318.101673,113.96553 L317.976569,113.96553 C317.14978,116.052701 316.618338,118.244637 316.397563,120.478151 C316.068012,123.679671 316.65418,126.908856 318.088148,129.791536 L318.088148,129.933262 L318.118578,130.00075 C321.256304,136.209674 327.896922,140.609911 335.585702,144.510734 C337.002412,145.232859 338.459697,145.934737 339.937268,146.629867 C348.190704,150.517193 357.083181,154.134566 363.886094,158.912737 L364.088965,159.054463 C365.880161,160.294451 367.556072,161.692583 369.096477,163.231988 C369.147195,163.27923 369.19115,163.326472 369.235105,163.373714 C369.875555,164.035355 370.480501,164.73033 371.047412,165.455728 C373.510698,168.562863 374.896575,172.384172 375,176.344965 C375,176.446197 375,176.537306 375,176.628416 Z" id="Path" fill="#6C63FF" fill-rule="nonzero"></path>
                <path d="M375,176.628416 C375,176.827506 375,177.026597 375,177.229062 C374.82756,183.498724 371.348336,189.751515 364.964688,194.151752 C358.242922,198.78145 349.228723,201.217777 339.974461,202.773383 C338.52732,203.01634 337.073417,203.235677 335.622895,203.448266 C334.882419,203.549498 334.145324,203.650731 333.41161,203.745214 C328.339855,204.420097 323.241051,204.936383 318.125341,205.368308 C311.261566,205.948707 304.363979,206.350262 297.45963,206.647211 C288.594203,207.035269 279.711869,207.254606 270.839679,207.473943 C253.497659,207.899119 236.142114,208.324295 218.769663,208.617869 L212.60579,208.719102 L205.086068,208.820334 L200.737883,208.87095 C173.350407,209.16115 146.003505,209.012676 118.703939,207.899119 C116.887123,207.827131 115.073689,207.748395 113.263636,207.66291 C109.206232,207.485191 105.148828,207.279351 101.091425,207.045392 C92.9597109,206.586471 84.763755,206.006072 76.6557095,205.145596 C74.5052855,204.920635 72.3638778,204.672053 70.2314867,204.399851 C68.7775836,204.222131 67.3281888,204.02754 65.8833021,203.816077 C64.2738653,203.591116 62.6711907,203.345908 61.0752785,203.080454 C49.2411838,201.150289 37.8162106,198.356273 27.2804851,194.097762 C24.4557234,192.96761 21.6918222,191.691479 19,190.27455 L19,130.884847 C20.5012394,129.147023 21.9923354,127.409199 23.4259514,125.651129 C25.1503481,123.538745 26.8071214,121.362248 28.3286478,119.128385 L61.0583727,119.128385 L61.0583727,99 L118.70732,99 L118.70732,143.252078 L212.60579,143.252078 L212.60579,108.158162 L320.938474,108.158162 C319.838053,109.949022 318.889165,111.828332 318.101673,113.776563 L318.101673,113.96553 L317.976569,113.96553 C317.14978,116.052701 316.618338,118.244637 316.397563,120.478151 C316.068012,123.679671 316.65418,126.908856 318.088148,129.791536 L318.088148,129.933262 L318.118578,130.00075 C321.256304,136.209674 327.896922,140.609911 335.585702,144.510734 C337.002412,145.232859 338.459697,145.934737 339.937268,146.629867 C348.190704,150.517193 357.083181,154.134566 363.886094,158.912737 L364.088965,159.054463 C365.880161,160.294451 367.556072,161.692583 369.096477,163.231988 C369.147195,163.27923 369.19115,163.326472 369.235105,163.373714 C369.875555,164.035355 370.480501,164.73033 371.047412,165.455728 C373.510698,168.562863 374.896575,172.384172 375,176.344965 C375,176.446197 375,176.537306 375,176.628416 Z" id="Path" fill="#000000" fill-rule="nonzero" opacity="0.3"></path>
                <rect id="Rectangle" fill="#000000" fill-rule="nonzero" opacity="0.4" x="29" y="127" width="10" height="7"></rect>
                <rect id="Rectangle" fill="#000000" fill-rule="nonzero" opacity="0.4" x="45" y="127" width="10" height="7"></rect>
                <rect id="Rectangle" fill="#000000" fill-rule="nonzero" opacity="0.4" x="223" y="114" width="10" height="7"></rect>
                <rect id="Rectangle" fill="#000000" fill-rule="nonzero" opacity="0.4" x="249" y="114" width="10" height="7"></rect>
                <rect id="Rectangle" fill="#000000" fill-rule="nonzero" opacity="0.4" x="277" y="114" width="10" height="7"></rect>
                <rect id="Rectangle" fill="#000000" fill-rule="nonzero" opacity="0.4" x="223" y="133" width="10" height="7"></rect>
                <rect id="Rectangle" fill="#000000" fill-rule="nonzero" opacity="0.4" x="249" y="133" width="10" height="7"></rect>
                <rect id="Rectangle" fill="#6C63FF" fill-rule="nonzero" x="277" y="133" width="10" height="7"></rect>
                <rect id="Rectangle" fill="#000000" fill-rule="nonzero" opacity="0.4" x="223" y="154" width="10" height="7"></rect>
                <rect id="Rectangle" fill="#000000" fill-rule="nonzero" opacity="0.4" x="249" y="154" width="10" height="7"></rect>
                <rect id="Rectangle" fill="#000000" fill-rule="nonzero" opacity="0.4" x="277" y="154" width="10" height="7"></rect>
                <rect id="Rectangle" fill="#000000" fill-rule="nonzero" opacity="0.4" x="223" y="173" width="10" height="7"></rect>
                <rect id="Rectangle" fill="#000000" fill-rule="nonzero" opacity="0.4" x="249" y="173" width="10" height="7"></rect>
                <rect id="Rectangle" fill="#000000" fill-rule="nonzero" opacity="0.4" x="277" y="173" width="10" height="7"></rect>
                <rect id="Rectangle" fill="#000000" fill-rule="nonzero" opacity="0.4" x="223" y="193" width="10" height="7"></rect>
                <rect id="Rectangle" fill="#000000" fill-rule="nonzero" opacity="0.4" x="249" y="193" width="10" height="7"></rect>
                <rect id="Rectangle" fill="#000000" fill-rule="nonzero" opacity="0.4" x="277" y="193" width="10" height="7"></rect>
                <path d="M318,114 C317.159286,116.243366 316.618894,118.599338 316.394401,121 L311,121 L311,114 L318,114 Z" id="Path" fill="#000000" fill-rule="nonzero" opacity="0.4"></path>
                <rect id="Rectangle" fill="#6C63FF" fill-rule="nonzero" x="311" y="133" width="10" height="7"></rect>
                <rect id="Rectangle" fill="#000000" fill-rule="nonzero" opacity="0.4" x="311" y="154" width="10" height="7"></rect>
                <rect id="Rectangle" fill="#000000" fill-rule="nonzero" opacity="0.4" x="311" y="173" width="10" height="7"></rect>
                <rect id="Rectangle" fill="#000000" fill-rule="nonzero" opacity="0.4" x="311" y="193" width="10" height="7"></rect>
                <rect id="Rectangle" fill="#000000" fill-rule="nonzero" opacity="0.4" x="83" y="106" width="10" height="7"></rect>
                <rect id="Rectangle" fill="#6C63FF" fill-rule="nonzero" x="83" y="121" width="10" height="7"></rect>
                <rect id="Rectangle" fill="#000000" fill-rule="nonzero" opacity="0.4" x="83" y="135" width="10" height="7"></rect>
                <rect id="Rectangle" fill="#000000" fill-rule="nonzero" opacity="0.4" x="83" y="150" width="10" height="7"></rect>
                <rect id="Rectangle" fill="#000000" fill-rule="nonzero" opacity="0.4" x="83" y="164" width="10" height="7"></rect>
                <rect id="Rectangle" fill="#000000" fill-rule="nonzero" opacity="0.4" x="83" y="179" width="10" height="7"></rect>
                <rect id="Rectangle" fill="#000000" fill-rule="nonzero" opacity="0.4" x="83" y="194" width="10" height="7"></rect>
                <rect id="Rectangle" fill="#000000" fill-rule="nonzero" opacity="0.4" x="29" y="144" width="10" height="7"></rect>
                <rect id="Rectangle" fill="#000000" fill-rule="nonzero" opacity="0.4" x="45" y="144" width="10" height="7"></rect>
                <rect id="Rectangle" fill="#000000" fill-rule="nonzero" opacity="0.4" x="29" y="161" width="10" height="7"></rect>
                <rect id="Rectangle" fill="#000000" fill-rule="nonzero" opacity="0.4" x="45" y="161" width="10" height="7"></rect>
                <rect id="Rectangle" fill="#000000" fill-rule="nonzero" opacity="0.4" x="29" y="178" width="10" height="7"></rect>
                <rect id="Rectangle" fill="#000000" fill-rule="nonzero" opacity="0.4" x="45" y="178" width="10" height="7"></rect>
                <rect id="Rectangle" fill="#000000" fill-rule="nonzero" opacity="0.4" x="138" y="151" width="48" height="6"></rect>
                <rect id="Rectangle" fill="#000000" fill-rule="nonzero" opacity="0.4" x="138" y="169" width="48" height="6"></rect>
                <rect id="Rectangle" fill="#000000" fill-rule="nonzero" opacity="0.4" x="138" y="188" width="48" height="6"></rect>
                <path d="M70,0.202447899 L70,204 C68.6625194,203.822296 67.3291861,203.627721 66,203.416275 L66,0 C67.3343701,0.0269930533 68.6656299,0.10122395 70,0.202447899 Z" id="Path" fill="#3F3D56" fill-rule="nonzero"></path>
                <path d="M205,33.5311497 L205,208.949253 L201,209 L201,33 C202.33126,33.1962209 203.664593,33.3732708 205,33.5311497 Z" id="Path" fill="#3F3D56" fill-rule="nonzero"></path>
                <path d="M369,163 L0,163 C0.133964247,161.650222 0.385856436,160.312564 0.753233558,159 L363.886118,159 C365.723252,160.182875 367.435417,161.522105 369,163 Z" id="Path" fill="#3F3D56" fill-rule="nonzero"></path>
                <path d="M336,144 C337.302253,144.722725 338.641803,145.425186 340,146.120893 L340,202.324556 C338.669775,202.567716 337.333333,202.787235 336,203 L336,144 Z" id="Path" fill="#3F3D56" fill-rule="nonzero"></path>
                <polygon id="Path" fill="#E7EFFD" fill-rule="nonzero" points="114 77.9179104 113.08209 77.9179104 113.08209 77 112.91791 77 112.91791 77.9179104 112 77.9179104 112 78.0820896 112.91791 78.0820896 112.91791 79 113.08209 79 113.08209 78.0820896 114 78.0820896"></polygon>
                <polygon id="Path" fill="#E7EFFD" fill-rule="nonzero" points="287 59.9179104 286.08209 59.9179104 286.08209 59 285.914179 59 285.914179 59.9179104 285 59.9179104 285 60.0820896 285.914179 60.0820896 285.914179 61 286.08209 61 286.08209 60.0820896 287 60.0820896"></polygon>
                <polygon id="Path" fill="#E7EFFD" fill-rule="nonzero" points="134 56.9179104 133.08209 56.9179104 133.08209 56 132.914179 56 132.914179 56.9179104 132 56.9179104 132 57.0858209 132.914179 57.0858209 132.914179 58 133.08209 58 133.08209 57.0858209 134 57.0858209"></polygon>
                <circle id="Oval" fill="#E7EFFD" fill-rule="nonzero" cx="131.5" cy="109.5" r="1"></circle>
                <circle id="Oval" fill="#E7EFFD" fill-rule="nonzero" cx="256.5" cy="61.5" r="1"></circle>
                <circle id="Oval" fill="#E7EFFD" fill-rule="nonzero" cx="310.5" cy="87.5" r="1"></circle>
                <circle id="Oval" fill="#E7EFFD" fill-rule="nonzero" cx="225.5" cy="92.5" r="1"></circle>
                <path d="M241.547253,183.43321 C241.547253,183.43321 229.968323,186.231705 225.385348,191.467926 C223.849815,193.217829 221.571826,194.478837 219.219593,195.379076 L219.219593,187.479227 C221.868809,183.035352 224.538274,178.092467 224.538274,178.092467 C224.659766,177.849706 225.624958,174.440937 225.624958,174.440937 C227.798328,172.734866 225.503466,166.773734 225.503466,166.773734 C225.503466,166.773734 226.833136,163.000822 226.107554,162.269168 C225.381973,161.537513 225.986062,159.592053 226.59015,158.739017 C227.194239,157.885982 227.072746,156.790186 227.072746,156.061903 C227.072746,155.33362 226.107554,154.234452 224.538274,153.627549 C222.968993,153.020646 224.659766,152.04623 225.624958,151.800098 C226.59015,151.553965 226.833136,149.244363 225.746451,148.027187 C224.659766,146.81001 225.867944,146.081727 226.468658,144.743169 C227.069372,143.404612 224.528149,143.647373 224.528149,143.647373 L224.528149,131.340737 L224.528149,131.340737 C224.528149,131.340737 223.802568,127.325064 223.080361,120.264764 C222.358154,113.204464 219.580696,112.476181 219.580696,112.476181 C218.093021,112.014586 216.641321,111.444359 215.237331,110.77011 C213.759027,110.077864 212.226192,109.508374 210.654356,109.067411 C210.654356,109.067411 207.397677,109.067411 204.741711,108.251464 C202.085745,107.435517 200.708828,107.378199 200.708828,107.378199 L200.273479,107.162411 C197.007526,105.503314 194.420017,102.762062 192.953543,99.4075447 C192.879298,99.2389606 192.811802,99.0703766 192.744306,98.9085359 C193.465547,98.1189709 194.110734,97.2632792 194.671315,96.3528016 L194.671315,96.3325715 C194.671315,96.4573237 194.671315,96.5820759 194.671315,96.7068281 C194.671315,96.7574033 194.671315,96.8113502 194.671315,96.8619254 C194.671315,97.162005 194.671315,97.4620847 194.671315,97.7621643 L194.671315,97.7621643 L194.671315,97.7925094 C196.59495,94.3972265 202.176865,93.6217398 202.706708,89.7443065 C202.730811,89.5677418 202.743212,89.3897791 202.743831,89.2115809 L202.743831,89.1879792 C202.743831,89.0598553 202.743831,88.9283597 202.743831,88.7968642 C202.67296,87.7145545 202.301732,86.6356165 202.230862,85.5431919 C202.2072,85.2300711 202.2072,84.9156136 202.230862,84.6024928 L202.230862,84.6227229 C202.480597,81.6118117 204.751835,78.9920154 205.791273,76.0687679 C206.070866,75.2824299 206.25333,74.464932 206.334616,73.6344141 L206.334616,73.6108123 C206.361614,73.3613079 206.378488,73.1084319 206.385237,72.8555558 C206.385237,72.7948655 206.385237,72.7308036 206.385237,72.6701133 C206.385237,72.4947859 206.385237,72.3329452 206.385237,72.1441311 C206.321363,69.0004621 204.959517,66.0230316 202.622338,63.9172291 C200.698704,62.2482469 198.157481,61.1996541 196.824436,59.0181764 C196.203473,58.0066721 195.899741,56.8063536 195.221407,55.8285661 C193.945734,53.9808848 191.603624,53.2289999 189.386382,52.9626371 C187.16914,52.6962743 184.891152,52.783938 182.771779,52.0893717 C181.266619,51.5971063 179.903201,50.7238408 178.384542,50.2855223 C174.995932,49.3795409 171.400782,50.6745364 169.370458,53.5324512 C168.570631,54.6990529 168.047537,56.0949289 166.967602,57.0052828 C164.75711,58.8731941 161.00771,58.0639907 159.070576,60.2151232 C158.007515,61.3985833 157.886022,63.0102469 158.014264,64.6556273 C158.014264,64.6758574 158.014264,64.6960874 158.014264,64.7163175 C158.014264,64.8410697 158.037888,64.9691936 158.051387,65.0973175 C158.051387,65.1580078 158.051387,65.218698 158.051387,65.2760166 C158.051387,65.3333352 158.051387,65.4041405 158.07501,65.4682024 C158.142506,66.0582466 158.226876,66.6449191 158.301122,67.2113616 C158.301122,67.2990253 158.321371,67.3833173 158.331495,67.470981 L158.392241,68.0003349 C158.392241,68.1284588 158.41249,68.2565827 158.425989,68.3847066 C158.439489,68.5128305 158.449613,68.7218747 158.459737,68.8634853 C158.469862,69.0050959 158.459737,69.1129897 158.483361,69.2411136 C158.699747,73.7343648 157.746276,78.206897 155.716027,82.2220859 C153.890261,85.7994396 151.176924,89.0969438 150.704453,93.0923859 C150.630942,93.747175 150.612879,94.4069947 150.650456,95.0648194 C150.650456,95.142368 150.650456,95.2199167 150.650456,95.2974654 C150.650456,95.375014 150.670705,95.533483 150.680829,95.6514919 C150.690953,95.7695007 150.707827,95.9245981 150.724701,96.0594653 C150.724701,96.137014 150.74495,96.2145626 150.755075,96.2921113 C150.778698,96.4708104 150.805697,96.6495095 150.83607,96.8315803 L150.856318,96.9462174 C151.33554,99.6705358 152.422225,102.340907 152.999315,105.092199 C153.215675,106.106872 153.360026,107.135547 153.431289,108.170544 C153.42971,108.177195 153.42971,108.184123 153.431289,108.190774 C153.451538,108.527942 153.468412,108.848252 153.478536,109.178677 C153.478536,109.623738 153.478536,110.072172 153.478536,110.527349 C152.562371,110.879083 151.623088,111.167479 150.66733,111.390499 C148.979931,111.63326 144.029103,116.016446 144.390206,117.122357 C144.75131,118.228269 142.176339,125.888728 142.105468,126.121374 L142.105468,126.121374 L138.055711,154.106328 C138.055711,154.106328 135.905965,156.17654 136.57755,157.515097 C137.249135,158.853655 136.445933,161.166628 136.445933,161.166628 C136.445933,161.166628 132.814651,162.747946 133.621227,163.722362 C134.427804,164.696778 134.059951,166.520858 133.506484,167.738034 C132.953017,168.955211 132.045197,171.146804 133.506484,171.510946 C134.967772,171.875087 133.756219,176.625786 133.756219,176.625786 C133.756219,176.625786 138.848789,176.039113 138.480936,179.06014 C138.359443,180.021069 142.041347,182.664467 143.57688,183.723175 L143.57688,198.268607 C141.514879,197.69205 139.091774,196.943536 137.546117,196.221997 C134.41093,194.762059 116.797862,191.963563 112.937093,200.362421 C109.076325,208.761279 118.24565,219.958632 120.537137,221.175809 C120.537137,221.175809 122.710507,222.878508 123.193103,223.731543 C123.675699,224.584578 126.449783,224.827339 126.449783,224.827339 C126.449783,224.827339 129.345359,226.176012 130.067566,226.89418 C130.600784,227.433649 135.011644,228.832896 140.239205,229.928693 L140.239205,229.928693 C140.239205,229.928693 136.017334,239.639135 142.905295,238.840046 C149.793257,238.040958 153.147806,234.652418 158.00414,234.652418 C159.944648,234.652418 163.548932,234.379312 167.176839,234.055631 C168.088162,234.216677 168.989567,234.429438 169.876678,234.692878 C171.920638,235.3349 174.019729,235.786386 176.147051,236.041551 C176.147051,236.041551 181.577101,238.961427 184.472677,238.229772 C184.711437,238.162637 184.934139,238.047948 185.127388,237.892604 L185.194884,237.892604 C185.721352,237.761108 186.318691,237.218267 186.939654,236.398949 C190.560812,236.769834 194.701688,237.295816 196.240596,237.895975 C199.240791,239.052462 220.701129,237.450913 220.701129,237.450913 C220.701129,237.450913 234.564797,237.72402 238.536934,238.924338 C242.509071,240.124657 241.098405,226.668277 233.768345,225.154392 C231.811726,224.762339 229.820908,224.565813 227.825326,224.56772 C228.333055,224.044628 228.796959,223.480788 229.212368,222.881879 C231.85146,222.64249 233.599605,222.494136 233.599605,222.494136 C233.599605,222.494136 240.59556,219.085366 244.577821,217.015154 C247.120428,215.633432 249.404091,213.821878 251.327417,211.660925 C251.327417,211.660925 254.823707,209.469332 256.271495,208.626411 C257.719283,207.783491 258.44149,204.974881 258.44149,204.974881 C269.412957,180.142449 241.547253,183.43321 241.547253,183.43321 Z M210.134638,152.28562 C210.134638,151.877646 210.134638,151.466301 210.134638,151.058328 C210.526114,151.334806 210.468743,151.769753 210.134638,152.282248 L210.134638,152.28562 Z M210.249381,160.893522 C210.542988,161.277893 210.826471,161.628548 211.028959,161.905026 C211.808537,162.91653 210.397872,163.388566 210.499116,165.064291 C210.522739,165.438548 210.556487,165.961158 210.590235,166.541088 L210.590235,166.541088 C210.441744,164.123592 210.320251,162.1343 210.249381,160.89015 L210.249381,160.893522 Z" id="Shape" fill="url(#linearGradient-2)" fill-rule="nonzero"></path>
                <path d="M147.356523,199.748967 C147.356523,199.748967 140.62238,198.145495 137.487636,196.666164 C134.352892,195.186832 116.786878,192.352309 112.934948,200.859327 C109.083018,209.366346 118.231352,220.700992 120.517594,221.935493 C122.803835,223.169993 145.070281,206.276647 145.070281,206.276647 L162.632928,213.862963 L166,202.09038 L147.356523,199.748967 Z" id="Path" fill="#65617D" fill-rule="nonzero"></path>
                <rect id="Rectangle" fill="#65617D" fill-rule="nonzero" x="155" y="202" width="77" height="27" rx="13.5"></rect>
                <path d="M232,215.496576 C232.002514,218.151956 231.226229,220.748846 229.7687,222.960877 C229.273055,223.710413 228.705124,224.408744 228.073187,225.045686 C225.564077,227.581608 222.155427,229.004758 218.602056,229 L168.394547,229 C160.996943,229 155,222.955835 155,215.5 C155,208.044153 160.996943,202 168.394547,202 L218.605447,202 C226.001727,202 231.998121,208.04207 232,215.496576 L232,215.496576 Z" id="Path" fill="#000000" fill-rule="nonzero" opacity="0.1"></path>
                <path d="M189.949161,216 C189.949161,216 182.247652,217.986307 175.963329,217.898026 C169.679006,217.809746 140.283392,230.070521 140.283392,230.070521 C140.283392,230.070521 136.052128,239.754191 142.955413,238.952877 C149.858698,238.151564 153.220709,234.790122 158.087846,234.790122 C162.954983,234.790122 178.266679,233.092424 178.266679,233.092424 L193,222.166039 L189.949161,216 Z" id="Path" fill="#FBBEBE" fill-rule="nonzero"></path>
                <path d="M194.226477,124.12975 L180.429132,126.8227 L179.533858,127 C179.533858,127 168.625037,124.12975 168.263549,123.88889 C167.902061,123.64803 158,110.437521 158,110.437521 C158,110.437521 163.006774,110.491045 166.93922,108.246363 C167.081113,108.166076 167.219627,108.079099 167.358141,107.995467 C169.087413,106.962887 170.400956,105.367793 171.07437,103.482684 C171.145316,103.285313 171.206127,103.081251 171.26356,102.867153 C171.68248,101.268109 171.709507,99.3311925 171.148694,96.9861515 C169.797338,91.4095704 172.905457,89.874087 177.023715,90.0078982 C182.97306,90.2019244 191.071061,93.8783867 191.071061,93.8783867 C191.175919,95.7549699 191.606782,97.5995968 192.344714,99.3311925 C192.408903,99.4917659 192.479849,99.6657204 192.554174,99.8196033 C194.031494,103.121153 196.621901,105.811526 199.881902,107.430114 L200.317714,107.644212 C200.756905,107.85162 201.219745,108.048991 201.699476,108.226291 C212.219783,112.173721 194.226477,124.12975 194.226477,124.12975 Z" id="Path" fill="#FBBEBE" fill-rule="nonzero"></path>
                <path d="M193,100.042284 C187.524773,106.240344 178.476235,107.798592 171.242876,103.789076 C171.845149,102.037151 171.958075,99.8575104 171.31816,97.14408 C168.015922,83.2005378 191.508005,93.9652945 191.508005,93.9652945 C191.623798,96.0659984 192.129752,98.1267802 193,100.042284 Z" id="Path" fill="#000000" fill-rule="nonzero" opacity="0.1"></path>
                <path d="M197,88.5102001 C197.005668,91.7844964 196.086454,94.9938096 194.348203,97.7685059 C193.782394,98.6784894 193.132469,99.5333783 192.406971,100.321935 C189.344817,103.678567 185.091347,105.704227 180.555596,105.966 C180.215625,105.9898 179.851856,106 179.498287,106 C169.83425,106 162,98.1649831 162,88.5 C162,78.8350169 169.83425,71 179.498287,71 C189.162324,71 196.996574,78.8350169 196.996574,88.5 L197,88.5102001 Z" id="Path" fill="#FBBEBE" fill-rule="nonzero"></path>
                <path d="M194.218027,125.062147 L180.4239,127.818524 L179.528836,128 C179.528836,128 168.622559,125.062147 168.261155,124.815614 C167.899752,124.569081 158,111.047423 158,111.047423 C158,111.047423 163.005606,111.102209 166.937135,108.804657 C167.078994,108.722479 167.217476,108.633453 167.355958,108.547851 C168.605671,109.91748 172.695947,113.790104 179.123524,113.762712 C179.948662,113.762964 180.772724,113.702311 181.589173,113.581236 C183.527917,113.279918 185.483548,113.084746 187.435802,112.896422 C191.174808,112.49923 196.893088,111.348742 199.895777,108 L200.331487,108.219141 C200.770576,108.431433 201.233307,108.633453 201.712926,108.814929 C212.207136,112.824516 194.218027,125.062147 194.218027,125.062147 Z" id="Path" fill="#000000" fill-rule="nonzero" opacity="0.1"></path>
                <path d="M210.548955,159.592085 C210.667964,162.234819 212.616305,192 212.616305,192 L151.96612,192 L152.37755,173.259085 L152.717575,158.269039 L152.826383,153.34959 L153.312618,136.307815 L151.554691,134.776574 L142,126.462203 L142,126.462203 C142.071405,126.240576 144.662392,118.654887 144.301966,117.587048 C143.94154,116.519208 148.9229,112.187408 150.626424,111.945633 C151.594609,111.723685 152.546564,111.437609 153.47583,111.089346 C156.342237,110.081951 160.167513,108.631301 160.589144,108.859644 C161.184187,109.175295 167.148218,108.627943 167.389635,108.604437 L167.389635,108.604437 C167.389635,108.604437 171.789553,114.222347 179.650922,114.188767 C180.47867,114.184579 181.304951,114.119477 182.1229,113.994004 C184.074642,113.698501 186.043384,113.507096 188.008726,113.305617 C191.963212,112.8993 198.110856,111.673636 200.990864,108 C200.990864,108 202.381565,108.057086 205.054158,108.859644 C207.726751,109.662203 211.011389,109.665561 211.011389,109.665561 C212.594206,110.100386 214.138498,110.66191 215.628923,111.344553 C217.04446,112.008301 218.507028,112.569446 220.005039,113.023546 C220.005039,113.023546 222.800041,113.742155 223.531094,120.703258 C224.262147,127.664361 225,131.626784 225,131.626784 L210.548955,143.987527 C210.548955,143.987527 210.429947,156.939276 210.548955,159.592085 Z" id="Path" fill="#6C63FF" fill-rule="nonzero"></path>
                <polygon id="Path" fill="#FBBEBE" fill-rule="nonzero" points="142.218091 180.61801 144.37409 184.116571 152.449598 187 158 176.745477 152.884247 173.246916 144.684553 170 140 172.747122"></polygon>
                <path d="M210.066641,197.069311 C210.066641,197.069311 221.181107,196.229506 225.725198,191.066383 C230.269289,185.903261 241.738187,183.141981 241.738187,183.141981 C241.738187,183.141981 269.347136,179.900333 258.456698,204.395772 C258.456698,204.395772 257.741146,207.157051 256.306698,207.996857 C254.872249,208.836662 251.408174,211 251.408174,211 L209,207.277983 L210.066641,197.069311 Z" id="Path" fill="#65617D" fill-rule="nonzero"></path>
                <path d="M232,215.069783 C232.00251,217.726376 231.227446,220.324452 229.772208,222.537493 C222.54714,223.183737 206.546358,224.701898 203.197908,225.64562 C199.084291,226.797918 190.758874,224.790799 189.848122,224.565127 L189.76348,224.544611 C189.76348,224.544611 188.158662,219.627685 187.393495,216.481946 C187.054926,215.052687 186.875484,213.98929 187.09894,213.910647 C187.826864,213.667878 194.483135,211.831724 194.36125,212.884862 C194.239366,213.938001 214.336836,205 214.336836,205 L214.953032,212.823315 C216.994605,215.182619 232,211.674437 232,215.069783 Z" id="Path" fill="#000000" fill-rule="nonzero" opacity="0.1"></path>
                <path d="M252,208.169625 L251.153074,211.349507 C249.218519,213.522036 246.926269,215.34051 244.377662,216.724534 C240.38017,218.803425 233.357456,222.226072 233.357456,222.226072 C233.357456,222.226072 207.566854,224.424636 203.206876,225.645301 C198.846899,226.865965 189.764461,224.544309 189.764461,224.544309 C189.764461,224.544309 186.376755,214.156693 187.101724,213.910509 C187.826693,213.664325 194.486922,211.835037 194.368353,212.884741 C194.249783,213.934444 214.355816,205 214.355816,205 L252,208.169625 Z" id="Path" fill="#65617D" fill-rule="nonzero"></path>
                <path d="M181,235.831795 C181,235.831795 193.607367,236.726558 196.605913,237.88872 C199.604458,239.050883 221.025528,237.443053 221.025528,237.443053 C221.025528,237.443053 234.866005,237.71731 238.831497,238.92404 C242.796989,240.130769 241.388683,226.582487 234.070885,225.06379 C226.753086,223.545094 216.440112,225.780286 216.440112,225.780286 C216.440112,225.780286 204.80306,224.254733 203.391385,224.066182 C201.97971,223.87763 192.68422,224.151887 192.68422,224.151887 L181,235.831795 Z" id="Path" fill="#FBBEBE" fill-rule="nonzero"></path>
                <path d="M131,203 C131,203 147.47098,204.417197 152,207 L131,203 Z" id="Path" fill="#000000" fill-rule="nonzero" opacity="0.1"></path>
                <path d="M235,191 C235,191 222.068447,194.237113 217,199 L235,191 Z" id="Path" fill="#000000" fill-rule="nonzero" opacity="0.1"></path>
                <path d="M132,198 C132.284052,198.092769 140.187175,199.120362 139.996609,199.86608 C139.806042,200.611799 132,198 132,198 Z" id="Path" fill="#000000" fill-rule="nonzero" opacity="0.1"></path>
                <path d="M120,217.448707 L120.968682,221.057042 C120.968682,221.057042 123.146523,222.738466 123.630863,223.579178 C124.115204,224.41989 126.899318,224.662015 126.899318,224.662015 C126.899318,224.662015 129.805364,225.983614 130.533568,226.703263 C131.261773,227.422913 139.126386,229.709649 146.513432,230.671423 C153.900478,231.633198 167.577182,233.435684 170.483227,234.397458 C172.536542,235.029669 174.644319,235.472084 176.779659,235.719057 C176.779659,235.719057 182.225955,238.60438 185.132,237.884731 C188.038046,237.165082 193,224.060065 193,224.060065 C193,224.060065 173.873614,219.614381 173.267341,218.171719 C172.661068,216.729058 154.2595,210 154.2595,210 L143.363522,210.255576 L120,217.448707 Z" id="Path" fill="#000000" fill-rule="nonzero" opacity="0.1"></path>
                <path d="M120,217.533923 L120.968637,221.128453 C120.968637,221.128453 123.149763,222.803443 123.634082,223.640938 C124.1184,224.478434 126.902385,224.719632 126.902385,224.719632 C126.902385,224.719632 129.808295,226.036175 130.53308,226.756421 C131.257864,227.476667 139.128886,229.747954 146.512202,230.706048 C153.895518,231.664143 167.578361,233.459733 170.484272,234.417827 C172.536656,235.045692 174.643134,235.485279 176.777025,235.73102 C176.777025,235.73102 182.226454,238.601953 185.132365,237.885057 C188.038276,237.168161 193,224.113286 193,224.113286 C193,224.113286 173.871114,219.684611 173.268256,218.247469 C172.665399,216.810327 145.665491,205.916189 145.665491,205.916189 L137.198385,204 L120,217.533923 Z" id="Path" fill="#65617D" fill-rule="nonzero"></path>
                <path d="M144.647925,125 L142.511343,126.213699 L138.409104,154.084698 C138.409104,154.084698 136.231499,156.145952 136.911787,157.474918 C137.592075,158.803884 136.778464,161.109234 136.778464,161.109234 C136.778464,161.109234 133.100124,162.685686 133.917153,163.655289 C134.734182,164.624892 134.361562,166.44205 133.800923,167.652359 C133.240284,168.862667 132.320698,171.042579 133.800923,171.408723 C135.281147,171.774866 134.053894,176.494053 134.053894,176.494053 C134.053894,176.494053 139.212459,175.910935 138.839839,178.91467 C138.686005,180.128369 144.671855,184 144.671855,184 C144.671855,184 137.868976,171.761306 153.108792,173.456416 L154.41809,166.557318 C154.41809,166.557318 155.727388,162.672125 154.41809,161.471988 C153.108792,160.27185 154.712084,154.505085 154.712084,154.505085 L154.99924,129.481871 L144.647925,125 Z" id="Path" fill="#6C63FF" fill-rule="nonzero"></path>
                <path d="M141,162 C141.268366,162.429196 149.445046,163.310524 149.978381,164.709508 C150.511717,166.108492 141,162 141,162 Z" id="Path" fill="#000000" fill-rule="nonzero" opacity="0.1"></path>
                <path d="M139,169 C139,169 140.016293,165.438198 142.418724,166.076601 C144.821155,166.715004 139,169 139,169 Z" id="Path" fill="#000000" fill-rule="nonzero" opacity="0.1"></path>
                <path d="M137,173 C137,173 138.87572,168.685451 141.436486,169.018315 C143.997252,169.351179 137,173 137,173 Z" id="Path" fill="#000000" fill-rule="nonzero" opacity="0.1"></path>
                <path d="M225,172.693188 L224.135476,177.773368 C224.135476,177.773368 215.273249,193.755614 213.671642,193.996076 C212.070034,194.236538 203.338691,183.344632 203.338691,183.344632 L201,172.689802 L210.206659,170.972701 L214.295063,167 C214.295063,167 224.628014,167.972008 225,172.693188 Z" id="Path" fill="#FBBEBE" fill-rule="nonzero"></path>
                <path d="M221.37973,130.073768 L224.534867,132.332995 L224.534867,144.344499 C224.534867,144.344499 226.990315,144.104934 226.405061,145.415885 C225.819808,146.726836 224.652571,147.435548 225.705373,148.626716 C226.758175,149.817885 226.522766,152.073785 225.587669,152.31335 C224.652571,152.552914 223.017785,153.501191 224.534867,154.096775 C226.051948,154.692359 226.990315,155.760418 226.990315,156.475785 C226.990315,157.191151 227.108019,158.25921 226.522766,159.091032 C225.937513,159.922853 225.355529,161.826061 226.055217,162.541428 C226.754906,163.256794 225.469964,166.9401 225.469964,166.9401 C225.469964,166.9401 227.693273,172.769506 225.587669,174.433149 C225.587669,174.433149 224.652571,177.760435 224.534867,178 C224.534867,178 226.009443,166.424371 211.30618,171.318809 C211.30618,171.318809 211.034806,166.906827 210.933449,165.27313 C210.832093,163.639432 212.202043,163.160303 211.446772,162.185408 C210.691501,161.210513 208.801689,158.971249 209.694282,158.378993 C210.586875,157.786736 210.279535,156.715349 209.926421,155.8802 C209.573308,155.045052 208.340679,155.048379 209.458873,154.036884 C210.577066,153.025389 211.240789,152.077112 210.583605,151.60131 C209.926421,151.125508 208.785341,149.574993 209.694282,148.862954 C210.603223,148.150914 210.629379,137.803054 210.629379,137.803054 C210.629379,137.803054 214.369769,122.580719 221.37973,130.073768 Z" id="Path" fill="#6C63FF" fill-rule="nonzero"></path>
                <path d="M220,150.5 C220,150.5 224.837972,149.375 224.996421,150.5 C225.15487,151.625 220,150.5 220,150.5 Z" id="Path" fill="#000000" fill-rule="nonzero" opacity="0.1"></path>
                <path d="M215,153.73036 C215,153.73036 221.175623,152.322205 221.945937,153.41644 C222.716251,154.510675 215,153.73036 215,153.73036 Z" id="Path" fill="#000000" fill-rule="nonzero" opacity="0.1"></path>
                <path d="M213,157.494128 C213,157.494128 222.36823,156.010419 222.974878,158.185015 C223.581525,160.359611 213,157.494128 213,157.494128 Z" id="Path" fill="#000000" fill-rule="nonzero" opacity="0.1"></path>
                <path d="M214,162 C214.378554,162.094391 223.809969,162.758761 223.997443,164.563086 C224.184918,166.367411 214,162 214,162 Z" id="Path" fill="#000000" fill-rule="nonzero" opacity="0.1"></path>
                <rect id="Rectangle" fill="#3F3D56" fill-rule="nonzero" x="144" y="167" width="75" height="43" rx="10.47"></rect>
                <path d="M185.971404,181.405051 L187.215918,184.718874 L191,185.808729 L187.215918,186.898584 L185.975,190.202 L187.215918,193.506467 L191,194.596322 L187.215918,195.686176 L185.971404,199 L184.72689,195.686176 L180.942808,194.596322 L184.72689,193.506467 L185.967,190.202 L184.72689,186.898584 L180.942808,185.808729 L184.72689,184.718874 L185.971404,181.405051 Z M176.028596,177 L177.27311,180.313824 L181.057192,181.403678 L177.27311,182.493533 L176.032,185.797 L177.27311,189.101416 L181.057192,190.191271 L177.27311,191.281126 L176.028596,194.594949 L174.784082,191.281126 L171,190.191271 L174.784082,189.101416 L176.024,185.797 L174.784082,182.493533 L171,181.403678 L174.784082,180.313824 L176.028596,177 Z" id="Combined-Shape" fill="#FFFFFF"></path>
                <path d="M156,141 C156,141 163.331058,146.720968 169,142.362301 C169,142.362301 159.416382,143.250759 156,141 Z" id="Path" fill="#000000" fill-rule="nonzero" opacity="0.1"></path>
                <path d="M193,142 C193,142 200.329569,147.722892 206,143.360102 C206,143.360102 196.417279,144.252887 193,142 Z" id="Path" fill="#000000" fill-rule="nonzero" opacity="0.1"></path>
                <path d="M197.99657,87.4396902 C198.002315,90.7063797 197.074968,93.9082372 195.321336,96.6764874 C195.173856,91.8155508 194.018017,86.9512221 191.342783,82.8908305 C188.893915,79.1594765 181.447848,72.6499598 176.330606,74.4647547 C175.24499,74.8582751 174.414282,75.7403498 174.094385,76.8392527 C173.586776,78.7456354 175.071874,79.5529647 176.025355,81.0556827 C177.642122,83.6596251 178.273987,86.7458125 177.808844,89.7666983 C177.743895,90.1732924 177.658039,90.576349 177.55161,90.9743001 C176.74561,93.9661676 174.900384,97.3888368 176.803916,99.8413541 C178.131244,101.537424 180.984827,102.141225 181.372393,104.251136 C181.407769,104.450372 181.419281,104.653036 181.40669,104.854937 C181.317516,106.283028 180.086222,107.541512 179.547746,108.942466 C178.916665,110.594438 179.273363,112.236234 179.928452,113.89499 C180.779039,116.059175 182.137235,118.247106 182.466495,120.533408 C182.795754,122.81971 182.085788,124.94319 181.24892,127.090415 C180.456639,129.125699 179.534027,131.144022 179.225346,133.264109 C178.631993,137.293972 180.12738,141.954772 177.561899,145.136599 C177.301129,145.521504 176.898706,145.790492 176.440359,145.886262 C174.797491,146.055869 175.068444,143.135237 173.754836,142.154908 C173.895457,143.850978 174.029219,145.621676 173.411857,147.209197 C172.794495,148.796719 171.168776,150.14679 169.467602,149.878811 L168.881108,146.069438 C167.723526,147.196467 166.330401,148.05906 164.799662,148.596582 C165.40228,144.545627 166.853147,140.66366 169.059457,137.198992 C164.741355,139.254629 162.223892,143.705116 159.977381,147.891017 C158.578028,150.506357 157.127228,153.362539 157.617688,156.283172 C157.816615,157.473813 158.334513,158.606787 158.447696,159.804213 C158.560879,161.001638 158.121866,162.402592 156.993466,162.857139 C156.009118,163.254019 154.860139,162.77912 154.150173,161.985359 L154.026701,161.839497 C153.958105,161.751301 153.892939,161.659713 153.831203,161.568126 C153.708626,161.383956 153.59973,161.191228 153.505373,160.991462 C153.198712,160.274293 152.968807,159.527344 152.819416,158.762826 L152.74396,158.423612 C151.601841,153.467695 150.572905,148.35574 151.409773,143.342157 C151.718454,141.496833 152.280939,139.665078 152.212343,137.792616 C152.160814,136.736791 151.943272,135.695352 151.567543,134.705769 C150.566046,131.930998 148.638505,129.383501 147.540973,126.588378 C147.529003,126.569385 147.519768,126.548834 147.513535,126.527319 C146.937331,125.048346 146.652659,123.19963 147.719322,122.012381 C148.268088,121.398404 149.091237,121.089719 149.777195,120.655525 C151.910522,119.281708 152.864003,116.673153 153.258428,114.183322 C153.435975,113.06113 153.525417,111.927029 153.525952,110.791182 C156.417262,109.77354 160.275773,108.308136 160.701066,108.538801 C161.301279,108.857662 167.317125,108.304743 167.56064,108.280998 C169.392147,107.236219 170.990427,105.69958 171.772419,103.450591 C171.844444,103.250455 171.90618,103.043534 171.964487,102.826437 C164.369056,98.7733332 160.850209,89.8829226 163.644993,81.807131 C166.439776,73.7313394 174.728744,68.8380364 183.242326,70.2380551 C191.755909,71.6380739 197.997874,78.9209206 198,87.4566509 L197.99657,87.4396902 Z" id="Path" fill="#000000" fill-rule="nonzero" opacity="0.1"></path>
                <path d="M176.919402,91.4714716 C176.126754,94.4426354 174.323145,97.8416198 176.190569,100.280534 C177.490377,101.964867 180.284795,102.561121 180.657608,104.659801 C180.956531,106.344134 179.475354,107.732024 178.87751,109.315297 C177.453432,113.09831 181.168127,116.817318 181.732385,120.822662 C182.347022,125.168242 179.189867,129.126425 178.561795,133.468635 C177.980744,137.470611 179.445126,142.09579 176.932837,145.258968 C176.679037,145.642767 176.284253,145.910373 175.83455,146.003443 C174.225744,146.175245 174.491079,143.274823 173.204706,142.29791 C173.342412,143.982243 173.4734,145.740687 172.868839,147.317223 C172.264277,148.893759 170.672265,150.231119 169.006361,149.968363 L168.432028,146.181982 C167.298717,147.301557 165.934396,148.158232 164.435203,148.691639 C165.025328,144.670285 166.444905,140.816505 168.60332,137.376289 C164.374747,139.4177 161.912838,143.837391 159.712905,147.990956 C158.339206,150.588198 156.921845,153.427984 157.398777,156.328406 C157.59358,157.510808 158.10074,158.632573 158.211577,159.825081 C158.322413,161.017589 157.892502,162.402111 156.787498,162.856881 C155.779895,163.277964 154.560696,162.718766 153.882243,161.846281 C153.203791,160.973797 152.941814,159.862137 152.696631,158.787532 C151.547963,153.761482 150.476546,148.573736 151.312856,143.487049 C151.615137,141.651126 152.16596,139.832046 152.098786,137.975911 C151.954363,133.909931 148.961783,130.564845 147.504117,126.781833 C146.936501,125.309725 146.66109,123.477171 147.705638,122.298138 C148.243026,121.688409 149.049108,121.38186 149.720844,120.950671 C151.806581,119.582993 152.743652,116.995857 153.126541,114.523256 C153.539133,111.850335 153.462878,109.124393 152.90151,106.47888 C152.058482,102.520697 150.123885,98.6534684 150.604175,94.6346494 C151.07439,90.679835 153.774766,87.4189659 155.591809,83.8784976 C157.92942,79.2960301 158.826479,74.1102685 158.164555,69.0058355 C157.852198,66.6309257 157.304734,63.8820939 158.910181,62.1068067 C160.838061,59.9778095 164.56955,60.7795521 166.769483,58.9335229 C167.844259,58.034089 168.364854,56.6495671 169.16086,55.4974832 C171.197357,52.6639559 174.766419,51.3854036 178.131884,52.2837755 C179.643288,52.7183335 181.000193,53.5807121 182.498163,54.0691687 C184.607411,54.742902 186.864442,54.6687913 189.081168,54.9349159 C191.297894,55.2010406 193.618739,55.9455159 194.888319,57.7679644 C195.560054,58.7381403 195.865693,59.9205422 196.48369,60.9244048 C197.810367,63.0803513 200.33945,64.1179005 202.253895,65.7719157 C205.610218,68.7733781 206.850876,73.4973925 205.404333,77.7677367 C204.262384,80.9578638 201.619106,83.7808062 201.844137,87.1629473 C201.934821,88.5542065 202.515872,89.9185164 202.334504,91.296301 C201.803833,95.133212 196.251941,95.8978992 194.334137,99.2598283 C194.488636,93.7486901 193.434012,88.0724872 190.434714,83.4540456 C188.03662,79.7485126 180.744934,73.2806731 175.733789,75.0829096 C174.671914,75.4755657 173.859134,76.350778 173.543933,77.4409761 C173.046849,79.3307979 174.501155,80.1359092 175.434867,81.6282284 C177.24098,84.5713138 177.77683,88.1242839 176.919402,91.4714716 Z" id="Path" fill="#3F3D56" fill-rule="nonzero"></path>
                <g id="Group" opacity="0.2" transform="translate(147.000000, 64.000000)" fill="#000000" fill-rule="nonzero">
                    <path d="M6.62372881,46.0383904 C6.66604675,44.2962527 6.50334715,42.5551827 6.13898305,40.8510616 C5.41694915,37.4606507 3.90508475,34.1414384 3.76610169,30.7374658 C3.56949153,34.5279452 5.34237288,38.1963699 6.13898305,41.9258219 C6.42799108,43.2786334 6.59027516,44.6554466 6.62372881,46.0383904 Z" id="Path"></path>
                    <path d="M21.0644068,73.5515753 C21.359322,73.0125 21.6644068,72.4768151 21.9932203,71.9546918 C17.7288136,74.0092808 15.240678,78.4575 13.020339,82.6412671 C11.7355932,85.0586301 10.4169492,87.689589 10.6135593,90.3815753 C10.7762712,88.0727055 11.9118644,85.8214726 13.020339,83.729589 C15.0745763,79.8611301 17.359322,75.7722945 21.0644068,73.5515753 Z" id="Path"></path>
                    <path d="M11.4881356,95.477363 C11.359322,96.392774 10.9050847,97.2607192 10.0711864,97.6031507 C9.05423729,98.0235616 7.82372881,97.4641438 7.14237288,96.5860274 C6.46101695,95.707911 6.18983051,94.5924658 5.94237288,93.5075342 C5.11525424,89.8933562 4.32881356,86.1910274 4.24745763,82.5056507 C4.16610169,86.550411 5.02711864,90.6256849 5.94237288,94.5992466 C6.18983051,95.6807877 6.45762712,96.8030137 7.14237288,97.6777397 C7.82711864,98.5524658 9.0440678,99.115274 10.0711864,98.694863 C11.1864407,98.2371575 11.6237288,96.8436986 11.5118644,95.6434932 C11.4881356,95.5858562 11.4881356,95.5316096 11.4881356,95.477363 Z" id="Path"></path>
                    <path d="M30.7830508,23.1802397 C30.7435673,24.0506465 30.6117544,24.9143963 30.3898305,25.7569521 C29.8,27.9708904 28.6474576,30.4255479 28.8542373,32.537774 C29.0169492,30.6933904 29.8983051,28.6862671 30.3898305,26.8384932 C30.7042532,25.645821 30.8368209,24.4125019 30.7830508,23.1802397 Z" id="Path"></path>
                    <path d="M11.6610169,7.00119863 C11.6893542,5.70824413 11.6190942,4.41501036 11.4508475,3.13273973 C11.3254237,2.19020548 11.1661017,1.18664384 11.1118644,0.206815068 C11.0338983,1.51212329 11.2711864,2.91914384 11.4508475,4.22445205 C11.5716637,5.14548936 11.6418258,6.07246678 11.6610169,7.00119863 Z" id="Path"></path>
                    <path d="M34.1661017,40.1289041 C34.1661017,40.0983904 34.1661017,40.0746575 34.1423729,40.0441438 C33.8847458,41.3053767 32.8474576,42.4581164 32.3694915,43.7261301 C32.0857008,44.4829691 31.9835246,45.295874 32.0711864,46.0994178 C32.1122613,45.6607064 32.2126101,45.229589 32.3694915,44.8178425 C32.9694915,43.2209589 34.4644068,41.8105479 34.1661017,40.1289041 Z" id="Path"></path>
                    <path d="M5.33898305,72.5615753 C5.18983051,68.4693493 2.17288136,65.1026712 0.698305085,61.2952397 C0.463012751,60.6958809 0.303583667,60.0694452 0.223728814,59.4305137 C0.142043033,60.4398193 0.304833695,61.4539462 0.698305085,62.3869521 C2.14915254,66.1435274 5.08474576,69.4491781 5.3220339,73.449863 C5.33898305,73.1548973 5.34915254,72.8565411 5.33898305,72.5615753 Z" id="Path"></path>
                    <path d="M44.0305085,17.687774 C41.6067797,13.9583219 34.2508475,7.44873288 29.1932203,9.26260274 C28.1205049,9.65736853 27.2989705,10.5381841 26.979661,11.6358904 C26.86019,12.0509157 26.8473647,12.4893839 26.9423729,12.9106849 C26.9423729,12.8496575 26.9627119,12.7886301 26.979661,12.7276027 C27.2979968,11.6293432 28.1198855,10.7481478 29.1932203,10.3543151 C34.2508475,8.54044521 41.6067797,15.0602055 44.0305085,18.7794863 C46.7694915,22.9903767 47.8983051,28.0726027 47.9728814,33.1141438 C48.0440678,27.7064384 46.9627119,22.1902397 44.0305085,17.687774 Z" id="Path"></path>
                    <path d="M56.0305085,25.5704795 C55.4983051,29.4219863 49.9288136,30.1983904 47.9728814,33.5616781 C47.9728814,33.9312329 47.9728814,34.3041781 47.9728814,34.6737329 C49.9050847,31.2833219 55.5118644,30.5204795 56.0440678,26.6588014 C56.0915347,26.2794247 56.0915347,25.8956096 56.0440678,25.5162329 C56.041296,25.5347078 56.0367554,25.5528735 56.0305085,25.5704795 L56.0305085,25.5704795 Z" id="Path"></path>
                    <path d="M59.1288136,11.9511986 C57.9762712,15.1653082 55.3084746,18.0030822 55.5355932,21.4104452 C55.5355932,21.457911 55.5355932,21.5087671 55.5355932,21.5596233 C55.7864407,18.5591096 58.0677966,15.955274 59.1118644,13.042911 C59.5819428,11.7124463 59.7835715,10.3019565 59.7050847,8.89304795 C59.6679725,9.93562944 59.4736927,10.9666319 59.1288136,11.9511986 L59.1288136,11.9511986 Z" id="Path"></path>
                    <path d="M30.4033898,79.8984247 C30.1473466,80.2854546 29.7490522,80.5559026 29.2949153,80.6510959 C27.6711864,80.8240068 27.9389831,77.904863 26.640678,76.9216438 C26.6745763,77.3081507 26.7050847,77.6980479 26.7254237,78.0879452 C27.9322034,79.1321918 27.7084746,81.9089384 29.2949153,81.7394178 C29.74923,81.6467927 30.1480427,81.3772126 30.4033898,80.990137 C31.8508475,79.1728767 31.9898305,76.8775685 31.9525424,74.4941096 C31.9152542,76.4808904 31.6271186,78.3761301 30.4033898,79.8984247 Z" id="Path"></path>
                    <path d="M26.2983051,81.9733562 C25.6813559,83.5634589 24.0813559,84.9094521 22.3966102,84.6416096 C22.2045198,83.3735959 22.0124294,82.1033219 21.820339,80.8307877 C20.7261017,81.9048776 19.420496,82.7396385 17.9864407,83.2820548 C17.9118644,83.6685616 17.840678,84.0584589 17.7830508,84.4483562 C19.2972159,83.9116498 20.6753282,83.0494588 21.820339,81.9225 C22.0124294,83.1950342 22.2045198,84.4653082 22.3966102,85.7333219 C24.0915254,85.997774 25.6813559,84.6551712 26.2983051,83.0650685 C26.6771305,81.9573922 26.8281779,80.7845562 26.7423729,79.6170205 C26.7246092,80.4215138 26.5745816,81.2175982 26.2983051,81.9733562 L26.2983051,81.9733562 Z" id="Path"></path>
                    <path d="M32.0474576,68.0319863 C31.9166522,69.0560109 31.8679094,70.0888559 31.9016949,71.1206507 C31.9070987,70.4525495 31.9557883,69.7855009 32.0474576,69.1236986 C32.6542373,64.9568836 35.5728814,61.1426712 35.3084746,57.0097603 C35.0745763,60.7459932 32.6,64.234726 32.0474576,68.0319863 Z" id="Path"></path>
                </g>
                <path d="M279.22635,189 C279.22635,189 276.871683,199.728095 287.351513,201 L288,199.809497 C288,199.809497 279.885241,192.347654 279.22635,189 Z" id="Path" fill="#6C63FF" fill-rule="nonzero"></path>
                <path d="M291,200.433333 L288.596547,200.948171 L288.356201,201 C288.356201,201 281.91838,195.741057 282.000784,184 C282.862337,185.729935 283.891668,187.369952 285.073771,188.896138 C287.617998,192.292683 290.519309,196.829472 291,200.433333 Z" id="Path" fill="#6C63FF" fill-rule="nonzero"></path>
                <path d="M292.256166,200.764451 C291.836136,201.005198 291.316093,201.065001 290.84075,200.927218 C284.100673,199.525427 286.366088,180 286.366088,180 C286.740537,180.156124 287.148686,182.657425 288.702648,185.846334 C291.428634,191.490039 294.424224,199.349372 292.256166,200.764451 Z" id="Path" fill="#6C63FF" fill-rule="nonzero"></path>
                <path d="M305.997851,189 C305.997851,189 306.414005,199.728095 295.665135,201 L295,199.809497 C295,199.809497 305.332715,192.347654 305.997851,189 Z" id="Path" fill="#6C63FF" fill-rule="nonzero"></path>
                <path d="M302.999488,184 C303.07549,195.747967 294.660052,201 294.660052,201 L294.418229,200.948171 L292,200.433333 C292.480191,196.829472 295.406249,192.292683 297.969572,188.896138 C299.419566,187.046286 301.111318,185.399529 302.999488,184 L302.999488,184 Z" id="Path" fill="#6C63FF" fill-rule="nonzero"></path>
                <path d="M293.848868,199.751815 C293.478601,200.19015 293.009984,200.540469 292.478857,200.775982 L292.478857,200.775982 C292.317109,200.846613 292.148427,200.901202 291.975378,200.938918 C290.454666,201.27144 289.920362,200.220671 290.009413,198.411751 C290.153264,195.189614 292.239105,189.603246 294.119445,185.443397 C295.468905,182.430749 297.671197,180.149648 298,180 C297.97945,179.983388 297.886974,195.209565 293.848868,199.751815 Z" id="Path" fill="#6C63FF" fill-rule="nonzero"></path>
                <path d="M292.512134,173 C292.512134,173 285.327429,197.058641 291.510197,200.687974 C297.692966,204.317307 294.098831,175.131139 292.512134,173 Z" id="Path" fill="#6C63FF" fill-rule="nonzero"></path>
                <path d="M279.22635,189 C279.22635,189 276.871683,199.728095 287.351513,201 L288,199.809497 C288,199.809497 279.885241,192.347654 279.22635,189 Z" id="Path" fill="#000000" fill-rule="nonzero" opacity="0.1"></path>
                <path d="M291,200.433333 L288.596547,200.948171 L288.356201,201 C288.356201,201 281.91838,195.741057 282.000784,184 C282.862337,185.729935 283.891668,187.369952 285.073771,188.896138 C287.617998,192.292683 290.519309,196.829472 291,200.433333 Z" id="Path" fill="#000000" fill-rule="nonzero" opacity="0.1"></path>
                <path d="M292.256166,200.764451 C291.836136,201.005198 291.316093,201.065001 290.84075,200.927218 C284.100673,199.525427 286.366088,180 286.366088,180 C286.740537,180.156124 287.148686,182.657425 288.702648,185.846334 C291.428634,191.490039 294.424224,199.349372 292.256166,200.764451 Z" id="Path" fill="#000000" fill-rule="nonzero" opacity="0.1"></path>
                <path d="M305.997851,189 C305.997851,189 306.414005,199.728095 295.665135,201 L295,199.809497 C295,199.809497 305.332715,192.347654 305.997851,189 Z" id="Path" fill="#000000" fill-rule="nonzero" opacity="0.1"></path>
                <path d="M302.999488,184 C303.07549,195.747967 294.660052,201 294.660052,201 L294.418229,200.948171 L292,200.433333 C292.480191,196.829472 295.406249,192.292683 297.969572,188.896138 C299.419566,187.046286 301.111318,185.399529 302.999488,184 L302.999488,184 Z" id="Path" fill="#000000" fill-rule="nonzero" opacity="0.1"></path>
                <path d="M293.848868,199.751815 C293.478601,200.19015 293.009984,200.540469 292.478857,200.775982 L292.478857,200.775982 C292.317109,200.846613 292.148427,200.901202 291.975378,200.938918 C290.454666,201.27144 289.920362,200.220671 290.009413,198.411751 C290.153264,195.189614 292.239105,189.603246 294.119445,185.443397 C295.468905,182.430749 297.671197,180.149648 298,180 C297.97945,179.983388 297.886974,195.209565 293.848868,199.751815 Z" id="Path" fill="#000000" fill-rule="nonzero" opacity="0.1"></path>
                <path d="M292.512134,173 C292.512134,173 285.327429,197.058641 291.510197,200.687974 C297.692966,204.317307 294.098831,175.131139 292.512134,173 Z" id="Path" fill="#000000" fill-rule="nonzero" opacity="0.1"></path>
                <path d="M279.061894,189 C279.061894,189 277.64772,199.728095 288.338874,201 L289,199.809497 C289,199.809497 279.733626,192.347654 279.061894,189 Z" id="Path" fill="#6C63FF" fill-rule="nonzero"></path>
                <path d="M292,200.433333 L289.588867,200.948171 L289.344309,201 C289.344309,201 281.918018,195.741057 282.000685,184 C282.000685,184 283.902036,186.045528 286.051389,188.896138 C288.607191,192.292683 291.517773,196.829472 292,200.433333 Z" id="Path" fill="#6C63FF" fill-rule="nonzero"></path>
                <path d="M292,200.487385 L289.568037,201 C287.250724,198.987385 286.333526,193.733945 286,189 C288.577881,192.381881 291.513607,196.899083 292,200.487385 Z" id="Path" fill="#000000" fill-rule="nonzero" opacity="0.1"></path>
                <path d="M293.330439,200.764451 C292.952218,201.005198 292.483937,201.065001 292.055909,200.927218 C285.96986,199.525427 287.079173,180 287.079173,180 C287.41635,180.156124 288.731341,182.657425 290.113768,185.846334 C292.585277,191.490039 295.282695,199.349372 293.330439,200.764451 Z" id="Path" fill="#6C63FF" fill-rule="nonzero"></path>
                <path d="M305.938106,189 C305.938106,189 307.35228,199.728095 296.661126,201 L296,199.809497 C296,199.809497 305.27698,192.347654 305.938106,189 Z" id="Path" fill="#6C63FF" fill-rule="nonzero"></path>
                <path d="M301.999424,184 C302.075203,195.747967 294.652276,201 294.652276,201 L294.41116,200.948171 L292,200.433333 C292.482232,196.829472 295.396291,192.292683 297.95212,188.896138 C300.094608,186.038618 301.999424,184 301.999424,184 Z" id="Path" fill="#6C63FF" fill-rule="nonzero"></path>
                <path d="M298,189 C297.686957,193.417431 296.869565,198.288991 294.886957,200.549312 C294.748682,200.711281 294.597471,200.861995 294.434783,201 L292,200.487385 C292.469565,196.899083 295.41913,192.381881 298,189 Z" id="Path" fill="#000000" fill-rule="nonzero" opacity="0.1"></path>
                <path d="M294.795237,199.751815 C294.430454,200.19015 293.968778,200.540469 293.445517,200.775982 L293.445517,200.775982 C293.285008,200.846635 293.117702,200.901221 292.946121,200.938918 C291.447932,201.27144 290.921542,200.220671 291.009273,198.411751 C291.154368,195.189614 293.205942,189.603246 295.058432,185.443397 C296.387906,182.430749 297.609402,180.149648 297.933335,180 C297.916463,179.983388 298.773535,195.209565 294.795237,199.751815 Z" id="Path" fill="#6C63FF" fill-rule="nonzero"></path>
                <path d="M293.366459,201 C293.040958,200.998215 292.723776,200.892152 292.457517,200.696059 C289.749827,198.929192 289.69561,192.299265 290.339842,186 C292.66163,191.674683 295.213046,199.577154 293.366459,201 Z" id="Path" fill="#000000" fill-rule="nonzero" opacity="0.1"></path>
                <path d="M295.133646,199.993998 C294.765228,200.680201 294.28997,201.044442 293.659975,200.99566 L293.659975,200.99566 C293.341157,200.958146 293.036232,200.85693 292.768405,200.699714 C291.955873,200.20617 291.337755,199.501392 291,198.683382 C291.15842,195.532049 293.398399,190.068439 295.421012,186 C296.121005,191.655487 296.360477,197.668711 295.133646,199.993998 Z" id="Path" fill="#000000" fill-rule="nonzero" opacity="0.1"></path>
                <path d="M292.335261,173 C292.335261,173 287.080924,197.058641 292.335261,200.687974 C297.589597,204.317307 293.683692,175.131139 292.335261,173 Z" id="Path" fill="#6C63FF" fill-rule="nonzero"></path>
                <polygon id="Path" fill="#D4DFEC" fill-rule="nonzero" points="304 200 280 200 280 203.923393 283.661863 203.923393 283.751663 204.38632 285.218404 212 299.170732 212 300.637472 204.38632 300.727273 203.923393 304 203.923393"></polygon>
                <polygon id="Path" fill="#000000" fill-rule="nonzero" opacity="0.1" points="304 200 280 200 280 203.923393 283.661863 203.923393 283.751663 204.38632 285.218404 212 299.170732 212 300.637472 204.38632 300.727273 203.923393 304 203.923393"></polygon>
                <polygon id="Path" fill="#D4DFEC" fill-rule="nonzero" points="301 202 300.590525 204.144309 299.098139 212 284.901861 212 283.409475 204.144309 283 202"></polygon>
                <polygon id="Path" fill="#000000" fill-rule="nonzero" opacity="0.1" points="301 202 300.590525 204 283.409475 204 283 202"></polygon>
                <rect id="Rectangle" fill="#D4DFEC" fill-rule="nonzero" x="280" y="200" width="24" height="4"></rect>
                <path d="M96.2757948,174.664239 C95.9339349,175.133092 95.6603974,175.647984 95.4633528,176.193535 C95.4134076,176.326517 95.3634624,176.479447 95.3135172,176.625728 C95.2236446,176.581756 95.1285428,176.54936 95.0304944,176.529315 C94.6153308,176.423812 94.1856906,176.386754 93.7585565,176.419605 C93.7585565,176.253377 93.7752049,176.087149 93.7818642,175.897649 C93.8351391,174.01595 93.6120505,171.399523 91.8173528,172.506601 C90.0959081,173.577108 91.3245601,175.352422 92.4366734,176.49607 C92.5332341,176.595807 92.6264651,176.68557 92.7196962,176.775333 C91.7207921,177.503411 91.5143519,179.175663 91.3445382,180.927705 C91.1747245,182.679747 89.679698,184.584718 88.700772,185.681822 C88.6042112,185.791533 88.5109802,185.891269 88.4210788,185.984357 C87.6154923,185.337025 86.569434,185.068037 85.5508943,185.246305 L85.4177071,184.76092 C84.6185838,181.878528 82.9570733,176.885043 80.8393966,175.784614 L81.1190898,175.432211 C82.0181035,174.255318 83.0303263,172.509925 81.5352998,172.064435 C80.0402733,171.618944 79.9037564,173.577108 79.9869984,175.056536 C79.9869984,175.239387 80.0136359,175.415589 80.0302843,175.578492 C79.4250363,175.606625 78.8579739,175.881906 78.4620048,176.339816 C78.3920815,176.253377 78.3154989,176.163614 78.2322569,176.067202 C77.0202532,174.634318 74.792697,172.370294 74.1201016,174.072467 C73.4941217,175.668255 75.4519738,177.729481 76.8304614,178.946269 L76.9170331,179.019409 C75.991382,182.76951 80.0269546,185.821454 82.2045656,187.157926 C82.3011263,187.221093 82.3943573,187.27761 82.4842587,187.330803 C79.4875464,190.858159 77.6329144,197.474028 77.6329144,197.474028 L86.043687,199 C86.043687,199 91.6142423,194.202663 90.9016907,189.691239 L90.9582953,189.691239 C96.5221912,188.577512 97.7874697,182.65315 96.9217528,179.135768 L97.0183136,179.095874 C98.0314634,178.681194 98.9194722,178.011058 99.5954862,177.151008 C101.140458,174.996694 97.8740414,172.553145 96.2757948,174.664239 Z" id="Path" fill="#6C63FF" fill-rule="nonzero"></path>
                <path d="M96.2757948,174.664239 C95.9339349,175.133092 95.6603974,175.647984 95.4633528,176.193535 C95.4134076,176.326517 95.3634624,176.479447 95.3135172,176.625728 C95.2236446,176.581756 95.1285428,176.54936 95.0304944,176.529315 C94.6153308,176.423812 94.1856906,176.386754 93.7585565,176.419605 C93.7585565,176.253377 93.7752049,176.087149 93.7818642,175.897649 C93.8351391,174.01595 93.6120505,171.399523 91.8173528,172.506601 C90.0959081,173.577108 91.3245601,175.352422 92.4366734,176.49607 C92.5332341,176.595807 92.6264651,176.68557 92.7196962,176.775333 C91.7207921,177.503411 91.5143519,179.175663 91.3445382,180.927705 C91.1747245,182.679747 89.679698,184.584718 88.700772,185.681822 C88.6042112,185.791533 88.5109802,185.891269 88.4210788,185.984357 C87.6154923,185.337025 86.569434,185.068037 85.5508943,185.246305 L85.4177071,184.76092 C84.6185838,181.878528 82.9570733,176.885043 80.8393966,175.784614 L81.1190898,175.432211 C82.0181035,174.255318 83.0303263,172.509925 81.5352998,172.064435 C80.0402733,171.618944 79.9037564,173.577108 79.9869984,175.056536 C79.9869984,175.239387 80.0136359,175.415589 80.0302843,175.578492 C79.4250363,175.606625 78.8579739,175.881906 78.4620048,176.339816 C78.3920815,176.253377 78.3154989,176.163614 78.2322569,176.067202 C77.0202532,174.634318 74.792697,172.370294 74.1201016,174.072467 C73.4941217,175.668255 75.4519738,177.729481 76.8304614,178.946269 L76.9170331,179.019409 C75.991382,182.76951 80.0269546,185.821454 82.2045656,187.157926 C82.3011263,187.221093 82.3943573,187.27761 82.4842587,187.330803 C79.4875464,190.858159 77.6329144,197.474028 77.6329144,197.474028 L86.043687,199 C86.043687,199 91.6142423,194.202663 90.9016907,189.691239 L90.9582953,189.691239 C96.5221912,188.577512 97.7874697,182.65315 96.9217528,179.135768 L97.0183136,179.095874 C98.0314634,178.681194 98.9194722,178.011058 99.5954862,177.151008 C101.140458,174.996694 97.8740414,172.553145 96.2757948,174.664239 Z" id="Path" fill="#000000" fill-rule="nonzero" opacity="0.1"></path>
                <path d="M79,176.900309 L78.026708,180 C78.026708,180 77.4856236,179.583838 76.8026696,178.923719 C75.4367615,177.625006 73.5033747,175.38634 74.1170436,173.66429 C74.7769025,171.813086 76.9907294,174.256245 78.194972,175.816853 C78.6766691,176.433921 79,176.900309 79,176.900309 Z" id="Path" fill="#6C63FF" fill-rule="nonzero"></path>
                <path d="M80.991011,174.768328 C80.7332788,175.196721 80.4581801,175.607832 80.1668271,176 C80.0936668,175.452237 80.0428653,174.900041 80.0146259,174.345623 C79.9457046,172.734975 80.0778038,170.595946 81.3499761,171.066022 C82.6221484,171.536099 81.7663756,173.478351 80.991011,174.768328 Z" id="Path" fill="#6C63FF" fill-rule="nonzero"></path>
                <path d="M94.9934717,175.412274 C94.958099,176.294689 94.8625926,177 94.8625926,177 C94.4036251,176.68471 93.9687798,176.343227 93.5608763,175.977766 C92.3794272,174.902711 91.0847854,173.243522 92.9064809,172.249251 C94.8130708,171.208374 95.0465308,173.653658 94.9934717,175.412274 Z" id="Path" fill="#6C63FF" fill-rule="nonzero"></path>
                <path d="M99.5912612,176.96376 C98.9162803,177.739559 98.0296286,178.344048 97.0180272,178.718105 C96.7371092,178.829176 96.4483463,178.923347 96.1536333,179 L95,177.536547 C95.1221589,177.053118 95.2821399,176.578106 95.4787412,176.115077 C95.6741464,175.622436 95.9473637,175.157817 96.2899416,174.735593 C97.8857456,172.822307 101.143845,175.026484 99.5912612,176.96376 Z" id="Path" fill="#6C63FF" fill-rule="nonzero"></path>
                <path d="M78.2672673,175 C78.7057057,175.591065 79,176.030928 79,176.030928 L78.1141141,179 C78.1141141,179 77.6216216,178.601375 77,177.969072 C77.138328,177.018549 77.4809291,176.12227 77.996997,175.360825 C78.0870871,175.237113 78.1771772,175.116838 78.2672673,175 Z" id="Path" fill="#000000" fill-rule="nonzero" opacity="0.1"></path>
                <path d="M81,174.511013 C80.7360344,175.028904 80.454282,175.525903 80.1558824,176 C80.0809526,175.337801 80.0289224,174.670244 80,174 C80.3608318,174.009327 80.7106063,174.188066 81,174.511013 Z" id="Path" fill="#000000" fill-rule="nonzero" opacity="0.1"></path>
                <path d="M86,185.955214 L83.33774,187 C82.850983,186.783451 82.3769914,186.544855 81.9176258,186.285147 C79.1173495,184.751932 73.487741,180.893018 77.2613947,176.341893 C81.0350485,171.790768 84.1839972,179.95174 85.4225111,183.943274 C85.8002397,185.136853 86,185.955214 86,185.955214 Z" id="Path" fill="#6C63FF" fill-rule="nonzero"></path>
                <path d="M93,175.712329 C93.2636043,175.280923 93.6214658,175.026008 94,175 C93.9753086,176.111546 93.908642,177 93.908642,177 C93.5882671,176.60284 93.2847304,176.172687 93,175.712329 Z" id="Path" fill="#000000" fill-rule="nonzero" opacity="0.1"></path>
                <path d="M98,178.706861 C97.7215915,178.822362 97.4354081,178.92029 97.1433278,179 L96,177.47817 C96.1210677,176.975459 96.2796196,176.481498 96.4744646,176 C97.2125206,176.408524 97.7561779,177.425156 98,178.706861 Z" id="Path" fill="#000000" fill-rule="nonzero" opacity="0.1"></path>
                <path d="M90.8559917,189.696648 C90.7242642,189.724089 90.5859503,189.751529 90.4509296,189.77211 C82.3529794,191.054964 87.7801538,186.503234 87.7801538,186.503234 C87.7801538,186.503234 88.1456977,186.160225 88.639676,185.58397 C89.6276325,184.4589 91.0865149,182.496888 91.2544675,180.67894 C91.508043,177.934868 91.8011368,175.37945 94.900027,176.13407 C97.9396399,176.87497 98.519241,188.098226 90.8559917,189.696648 Z" id="Path" fill="#6C63FF" fill-rule="nonzero"></path>
                <rect id="Rectangle" fill="#D4DFEC" fill-rule="nonzero" x="75" y="210" width="16" height="4"></rect>
                <rect id="Rectangle" fill="#D4DFEC" fill-rule="nonzero" x="73" y="196" width="21" height="15"></rect>
                <rect id="Rectangle" fill="#000000" fill-rule="nonzero" opacity="0.1" x="75" y="210" width="16" height="4"></rect>
                <rect id="Rectangle" fill="#000000" fill-rule="nonzero" opacity="0.1" x="73" y="196" width="21" height="15"></rect>
                <rect id="Rectangle" fill="#D4DFEC" fill-rule="nonzero" x="76" y="210" width="16" height="4"></rect>
                <path d="M85.4341637,184 C85.7900356,185.171429 86,185.974603 86,185.974603 L83.3914591,187 C82.9145239,186.78747 82.4500965,186.553301 82,186.298413 C83.0213523,185.136508 84.1743772,184.269841 85.4341637,184 Z" id="Path" fill="#000000" fill-rule="nonzero" opacity="0.1"></path>
                <path d="M92,188.725227 C91.864366,188.750082 91.7219503,188.774938 91.5829254,188.793579 C83.2448241,189.955577 88.8329457,185.832661 88.8329457,185.832661 C88.8329457,185.832661 89.2093301,185.521967 89.7179576,185 C91.274358,186.140249 91.9118379,187.426524 92,188.725227 Z" id="Path" fill="#000000" fill-rule="nonzero" opacity="0.1"></path>
                <path d="M78,197.479058 C78,197.479058 82.8197484,180.859983 89.5750965,185.979251 C96.3304446,191.09852 86.8274549,199 86.8274549,199 L78,197.479058 Z" id="Path" fill="#6C63FF" fill-rule="nonzero"></path>
                <circle id="Oval" fill="#000000" fill-rule="nonzero" opacity="0.1" cx="80.5" cy="178.5" r="1"></circle>
                <circle id="Oval" fill="#000000" fill-rule="nonzero" opacity="0.1" cx="80.5" cy="181.5" r="1"></circle>
                <circle id="Oval" fill="#000000" fill-rule="nonzero" opacity="0.1" cx="95.5" cy="179.5" r="1"></circle>
                <circle id="Oval" fill="#000000" fill-rule="nonzero" opacity="0.1" cx="83.5" cy="191.5" r="1"></circle>
                <circle id="Oval" fill="#000000" fill-rule="nonzero" opacity="0.1" cx="94.5" cy="183.5" r="1"></circle>
                <circle id="Oval" fill="#000000" fill-rule="nonzero" opacity="0.1" cx="89.5" cy="188.5" r="1"></circle>
                <circle id="Oval" fill="#000000" fill-rule="nonzero" opacity="0.1" cx="82.5" cy="179.5" r="1"></circle>
                <circle id="Oval" fill="#000000" fill-rule="nonzero" opacity="0.1" cx="93.5" cy="181.5" r="1"></circle>
                <circle id="Oval" fill="#000000" fill-rule="nonzero" opacity="0.1" cx="92.5" cy="185.5" r="1"></circle>
                <circle id="Oval" fill="#000000" fill-rule="nonzero" opacity="0.1" cx="86.5" cy="191.5" r="1"></circle>
                <circle id="Oval" fill="#000000" fill-rule="nonzero" opacity="0.1" cx="85.5" cy="188.5" r="1"></circle>
                <circle id="Oval" fill="#000000" fill-rule="nonzero" opacity="0.1" cx="82.5" cy="182.5" r="1"></circle>
                <rect id="Rectangle" fill="#000000" fill-rule="nonzero" opacity="0.1" x="76" y="210" width="16" height="2"></rect>
                <rect id="Rectangle" fill="#D4DFEC" fill-rule="nonzero" x="74" y="196" width="21" height="15"></rect>
                <circle id="Oval" fill="#000000" fill-rule="nonzero" opacity="0.1" cx="87.5" cy="193.5" r="1"></circle>
                <circle id="Oval" fill="#000000" fill-rule="nonzero" opacity="0.1" cx="84.5" cy="194.5" r="1"></circle>
            </g>
        </g>
    </g>
</svg>