<?xml version="1.0" encoding="UTF-8"?>
<svg width="374px" height="230px" viewBox="0 0 374 230" version="1.1" xmlns="http://www.w3.org/2000/svg" xmlns:xlink="http://www.w3.org/1999/xlink">
    <!-- Generator: Sketch 58 (84663) - https://sketch.com -->
    <title>pitch-illustration-1</title>
    <desc>Created with Sketch.</desc>
    <g id="Landing-Page" stroke="none" stroke-width="1" fill="none" fill-rule="evenodd">
        <g id="Home" transform="translate(-51.000000, -1137.000000)" fill-rule="nonzero">
            <g id="pitch-illustration-1" transform="translate(51.000000, 1137.000000)">
                <path d="M374,147.72965 C374.0064,153.961459 373.252519,160.170784 371.755019,166.220049 C371.251205,168.25831 370.66589,170.254241 369.999077,172.207839 C369.183213,174.619191 368.237713,176.984732 367.166706,179.294132 C366.626904,180.462481 366.056408,181.607548 365.455217,182.729333 C365.465075,189.119825 364.14925,195.442909 361.590873,201.299103 C356.966212,211.806067 348.719566,220.301703 338.354001,225.237565 C331.873074,228.32933 324.790418,229.955307 317.609742,230 L71.0029638,230 C60.0309506,230.02323 49.2484022,227.141199 39.7516258,221.646796 L39.6055618,221.56425 C38.2528825,220.772651 36.934073,219.934487 35.6491335,219.049759 C32.758068,217.052782 30.0418863,214.813863 27.5298822,212.357149 C24.1298953,209.035064 21.1339146,205.323377 18.6041038,201.299103 C12.6624458,191.865972 9.51487443,180.942918 9.5259108,169.794944 C3.50871048,159.238526 0,146.59305 0,133.004639 C0,115.860382 5.57583312,100.22101 14.736584,88.3819481 C16.6464254,85.9085181 18.7384226,83.5812161 20.9951074,81.4194749 C23.221742,79.2803158 25.6149981,77.3216007 28.1522417,75.5618538 C30.1822152,74.1524181 32.3037746,72.8796593 34.5028489,71.752019 C35.4205116,71.2853142 36.3413497,70.8440083 37.2780642,70.4344511 C38.1004679,70.0693419 38.9323974,69.7296316 39.7738529,69.4089705 C40.7835994,69.0258705 41.8060472,68.6734608 42.8411962,68.3517414 C43.8763451,68.030022 44.8977345,67.7485175 45.9053641,67.507228 C47.3871725,67.1452937 48.8943832,66.8510898 50.4269965,66.6246162 C51.6971179,66.4372994 52.9672393,66.30713 54.2373608,66.2087093 C55.2471073,66.1325126 56.2663798,66.0912394 57.2920028,66.0785399 L57.847681,66.0785399 C58.978089,66.0785399 60.1021465,66.122988 61.2166781,66.1991847 C61.3341643,65.9642449 61.4611765,65.7261302 61.5786627,65.4943652 C62.0232052,64.646677 62.4836242,63.8021636 62.9472185,62.9766994 C62.9461761,62.969328 62.9461761,62.9618467 62.9472185,62.9544753 C63.0266011,62.8084317 63.1059837,62.6655629 63.1885416,62.5258689 C63.5632274,61.8496232 63.9537898,61.1797273 64.353878,60.516181 C64.5380456,60.1986948 64.7190379,59.9002577 64.9063809,59.6018207 C64.9460146,59.5276551 64.9894688,59.4555948 65.0365683,59.38593 C65.2270865,59.0684438 65.42078,58.7509576 65.6176489,58.4334713 C66.5977592,56.8672059 67.6170317,55.3284559 68.6754662,53.8172214 L68.945367,53.4298882 C69.1104828,53.1949484 69.2628974,52.9663583 69.447065,52.7314185 C69.8852569,52.1186701 70.33615,51.5027468 70.7902184,50.8995229 C71.1077488,50.4677416 71.4252791,50.0391352 71.7682119,49.629578 C72.5937909,48.5712905 73.4405385,47.513003 74.3084548,46.4547156 C75.1763711,45.3964281 76.0781574,44.3518984 77.0138135,43.3211264 C77.1408256,43.1782576 77.2678378,43.0385637 77.4012005,42.8988697 L78.7570552,41.4193839 L78.7570552,41.4193839 C78.8237365,41.3495369 78.880892,41.2860397 78.9443981,41.2225424 L78.9443981,41.2225424 C79.1063386,41.047925 79.2619284,40.8733075 79.4365701,40.7050398 C80.1637147,39.9335483 80.909911,39.177931 81.6592826,38.4254887 C85.4729819,34.627547 89.5358045,31.0881854 93.8206954,27.8309729 C93.9889865,27.6976287 94.1604529,27.5706342 94.328744,27.4436397 C95.1352711,26.837241 95.9544995,26.237192 96.7737278,25.6466676 C101.279822,22.4144932 105.990149,19.4769134 110.875251,16.8522988 C111.211833,16.6586322 111.554766,16.4776651 111.900874,16.2998728 C116.280451,13.9832129 120.784592,11.9100487 125.392739,10.089842 C127.904404,9.09611007 130.473225,8.16270053 133.057922,7.30866256 C134.778937,6.74353705 136.506302,6.20698531 138.255894,5.7021822 C140.990889,4.91481633 143.744935,4.20893859 146.518034,3.58454899 C154.687824,1.75165329 162.999188,0.619408505 171.361609,0.200145706 C173.901852,0.0710346364 176.470673,0.00436252658 179.068071,0 C191.601016,-0.0164605255 204.085077,1.56250037 216.219123,4.69892569 C216.474135,5.08430108 216.909763,5.3110842 217.371758,5.29897467 L218.43866,5.29897467 C218.902255,5.42596917 219.362674,5.55296366 219.826268,5.68630788 C222.415199,6.43134225 224.967085,7.24516531 227.481925,8.12777705 L228.116986,8.35636714 C234.323973,10.5631956 240.363267,13.2158289 246.187639,16.2935231 C251.437936,19.0612189 256.493131,22.1840779 261.31796,25.6403179 C262.060981,26.1736948 262.793418,26.7113048 263.51527,27.253148 C264.391654,26.6922556 265.282856,26.1546456 266.188876,25.6403179 C269.687762,23.6478922 273.40393,22.0638402 277.264335,20.9192975 C285.335281,18.5312259 293.87508,18.1972771 302.10791,19.9477897 C312.665795,22.1860676 322.223459,27.7420768 329.942622,35.6443092 C333.085645,38.8775426 335.88336,42.4292629 338.290495,46.2419998 C338.465137,46.515038 338.639778,46.791251 338.808069,47.0706389 C340.876915,50.4451779 342.655135,53.9894413 344.123528,57.6651546 C344.177508,57.8016737 344.231488,57.9286682 344.279117,58.0620124 C345.634708,61.5039159 346.728013,65.0433982 347.54968,68.6501784 C347.587784,68.8343204 347.632238,69.0152876 347.670342,69.1994296 C348.438842,72.6899505 348.96088,76.230189 349.232591,79.7939453 C349.232591,79.9209398 349.232591,80.0511092 349.257993,80.1844534 C349.391356,82.0279902 349.459096,83.8905761 349.461213,85.7722112 C349.461213,87.4548883 349.404057,89.1248659 349.299272,90.782144 C349.299272,90.9631112 349.27387,91.1504281 349.257993,91.3377449 C349.229416,91.8171491 349.188137,92.2902036 349.146858,92.7727827 C351.57195,94.72867 353.841688,96.8696547 355.935657,99.1764801 C356.860729,100.186086 357.756164,101.233791 358.621964,102.319594 C361.259144,105.624351 363.576909,109.171739 365.544126,112.91411 C370.913564,123.04827 374,134.969878 374,147.72965 Z" id="Path" fill="#6C63FF" opacity="0.1"></path>
                <path d="M338,223.963378 C338,226.164614 330.516333,228.227266 317.457287,230 L70.4485752,230 C59.4586793,230.023581 48.6585568,227.09795 39.146302,221.520426 L39,221.43663 C42.7529651,220.050786 49.5273851,218.758406 58.7475934,217.591719 L58.7475934,217.591719 L59.1610556,217.540153 C63.2956782,217.027713 67.916914,216.541056 72.9675144,216.080182 C73.0947336,216.080182 73.2251332,216.060845 73.3523524,216.044731 L73.3523524,216.044731 C77.3597558,215.683767 81.6226576,215.345363 86.141058,215.029519 C86.2841795,215.029519 86.4241206,215.003736 86.5672421,214.99729 C88.3101446,214.870523 90.0890924,214.750202 91.9040857,214.636326 L91.9040857,214.636326 L92.603791,214.591206 C105.818681,213.7597 120.840083,213.095784 137.130495,212.65747 L137.149578,212.65747 C139.431042,212.593012 141.736889,212.536075 144.06712,212.486657 C146.65815,212.424348 149.280985,212.369558 151.935625,212.322289 C153.96159,212.277169 156.012998,212.24494 158.070768,212.212711 L158.118475,212.212711 C167.402293,212.070904 176.994618,212 186.803215,212 C211.057546,212 233.982438,212.447982 254.296157,213.253705 L254.353405,213.253705 C257.476636,213.376175 260.542617,213.511537 263.532268,213.650121 L266.076651,213.772591 C269.450079,213.935884 272.736573,214.110995 275.936135,214.297923 L275.936135,214.297923 C313.5612,216.46693 338,219.989552 338,223.963378 Z" id="Path" fill="#6C63FF" opacity="0.1"></path>
                <g id="Group" opacity="0.2" transform="translate(197.000000, 125.000000)">
                    <path d="M18.8366355,85.7394526 C18.8264802,86.0819167 18.787148,86.422894 18.7190654,86.7586861 C16.5074766,86.4072993 14.2831776,86.089781 12.0461682,85.8061314 C12.0461682,85.7172263 12.0461682,85.625146 12.0461682,85.5330657 C12.0668735,84.5809644 12.341076,83.6515687 12.8405607,82.8405109 C13.4951402,81.8054015 14.4897196,81.1576642 15.5859813,81.1925912 C16.682243,81.2275182 17.6323364,81.9355839 18.2201869,83.0056204 C18.6648109,83.8460893 18.8775753,84.789659 18.8366355,85.7394526 Z" id="Path" fill="#3F3D56"></path>
                    <ellipse id="Oval" fill="#3F3D56" transform="translate(15.620863, 80.206330) rotate(-88.190000) translate(-15.620863, -80.206330) " cx="15.6208625" cy="80.2063303" rx="4.44843399" ry="3.39999745"></ellipse>
                    <ellipse id="Oval" fill="#3F3D56" transform="translate(15.794230, 74.770269) rotate(-88.190000) translate(-15.794230, -74.770269) " cx="15.7942301" cy="74.7702689" rx="4.44843399" ry="3.39999745"></ellipse>
                    <ellipse id="Oval" fill="#3F3D56" transform="translate(15.964420, 69.334207) rotate(-88.190000) translate(-15.964420, -69.334207) " cx="15.96442" cy="69.3342075" rx="4.44843399" ry="3.39999745"></ellipse>
                    <ellipse id="Oval" fill="#3F3D56" transform="translate(16.134610, 63.898146) rotate(-88.190000) translate(-16.134610, -63.898146) " cx="16.13461" cy="63.898146" rx="4.44843399" ry="3.39999745"></ellipse>
                    <path d="M4.56934579,26.2873358 C4.12186724,25.6819095 3.71834336,25.0452453 3.36186916,24.3822263 L12.3416822,23.1978832 L2.67551402,22.9660949 C0.932170148,18.8340534 0.967795918,14.1671392 2.77401869,10.0621533 L15.5224299,17.190438 L3.84485981,8.03321168 C7.05595127,2.84354079 12.9012016,-0.11666945 18.9883034,0.364117263 C25.0754053,0.844903976 30.3826505,4.68598854 32.7379231,10.3153159 C35.0931958,15.9446433 34.1011679,22.4173421 30.1678505,27.0843066 C30.8638512,28.0260176 31.4551854,29.0406446 31.9314019,30.1102555 L20.1457944,35.7620803 L32.6431776,32.0058394 C34.2421195,37.2777209 33.0683713,42.9999229 29.5228037,47.2181387 C34.565661,54.0550127 33.5023498,63.6167495 27.0804717,69.1806051 C20.6585936,74.7444606 11.0355517,74.4412808 4.97719293,68.4842279 C-1.08116587,62.527175 -1.53956129,52.9174959 3.92429907,46.4116423 C-0.537364462,40.3609475 -0.274748534,32.0449021 4.55981308,26.2873358 L4.56934579,26.2873358 Z" id="Path" fill="#6C63FF"></path>
                    <path d="M33.3359655,37.2671168 C33.224669,40.9189759 31.880853,44.4259384 29.5228037,47.2181387 C34.565661,54.0550127 33.5023498,63.6167495 27.0804717,69.1806051 C20.6585936,74.7444606 11.0355517,74.4412808 4.97719293,68.4842279 C-1.08116587,62.527175 -1.53956129,52.9174959 3.92429907,46.4116423 C1.83663551,43.5762044 33.3930841,35.4413869 33.3359655,37.2671168 Z" id="Path" fill="#000000" opacity="0.1"></path>
                </g>
                <g id="Group" opacity="0.2" transform="translate(149.000000, 125.000000)">
                    <path d="M18.8366355,85.7394526 C18.8264802,86.0819167 18.787148,86.422894 18.7190654,86.7586861 C16.5074766,86.4072993 14.2831776,86.089781 12.0461682,85.8061314 C12.0461682,85.7172263 12.0461682,85.625146 12.0461682,85.5330657 C12.0668735,84.5809644 12.341076,83.6515687 12.8405607,82.8405109 C13.4951402,81.8054015 14.4897196,81.1576642 15.5859813,81.1925912 C16.682243,81.2275182 17.6323364,81.9355839 18.2201869,83.0056204 C18.6648109,83.8460893 18.8775753,84.789659 18.8366355,85.7394526 L18.8366355,85.7394526 Z" id="Path" fill="#3F3D56"></path>
                    <ellipse id="Oval" fill="#3F3D56" transform="translate(15.617383, 80.207652) rotate(-88.190000) translate(-15.617383, -80.207652) " cx="15.6173827" cy="80.2076517" rx="4.44843399" ry="3.39999745"></ellipse>
                    <ellipse id="Oval" fill="#3F3D56" transform="translate(15.790750, 74.771590) rotate(-88.190000) translate(-15.790750, -74.771590) " cx="15.7907503" cy="74.7715902" rx="4.44843399" ry="3.39999745"></ellipse>
                    <ellipse id="Oval" fill="#3F3D56" transform="translate(15.960940, 69.335529) rotate(-88.190000) translate(-15.960940, -69.335529) " cx="15.9609402" cy="69.3355288" rx="4.44843399" ry="3.39999745"></ellipse>
                    <ellipse id="Oval" fill="#3F3D56" transform="translate(16.131130, 63.899467) rotate(-88.190000) translate(-16.131130, -63.899467) " cx="16.1311302" cy="63.8994674" rx="4.44843399" ry="3.39999745"></ellipse>
                    <path d="M4.56934579,26.2873358 C4.12186724,25.6819095 3.71834336,25.0452453 3.36186916,24.3822263 L12.3416822,23.1978832 L2.67551402,22.9660949 C0.932170148,18.8340534 0.967795918,14.1671392 2.77401869,10.0621533 L15.5224299,17.190438 L3.84485981,8.03321168 C7.05595127,2.84354079 12.9012016,-0.11666945 18.9883034,0.364117263 C25.0754053,0.844903976 30.3826505,4.68598854 32.7379231,10.3153159 C35.0931958,15.9446433 34.1011679,22.4173421 30.1678505,27.0843066 C30.8638512,28.0260176 31.4551854,29.0406446 31.9314019,30.1102555 L20.1457944,35.7620803 L32.6431776,32.0058394 C34.2421195,37.2777209 33.0683713,42.9999229 29.5228037,47.2181387 C34.565661,54.0550127 33.5023498,63.6167495 27.0804717,69.1806051 C20.6585936,74.7444606 11.0355517,74.4412808 4.97719293,68.4842279 C-1.08116587,62.527175 -1.53956129,52.9174959 3.92429907,46.4116423 C-0.537364462,40.3609475 -0.274748534,32.0449021 4.55981308,26.2873358 L4.56934579,26.2873358 Z" id="Path" fill="#6C63FF"></path>
                    <path d="M33.3359655,37.2671168 C33.224669,40.9189759 31.880853,44.4259384 29.5228037,47.2181387 C34.565661,54.0550127 33.5023498,63.6167495 27.0804717,69.1806051 C20.6585936,74.7444606 11.0355517,74.4412808 4.97719293,68.4842279 C-1.08116587,62.527175 -1.53956129,52.9174959 3.92429907,46.4116423 C1.83663551,43.5762044 33.3930841,35.4413869 33.3359655,37.2671168 Z" id="Path" fill="#000000" opacity="0.1"></path>
                </g>
                <g id="Group" opacity="0.2" transform="translate(263.000000, 50.000000)">
                    <path d="M36.3576699,163.777181 C36.3332312,164.423237 36.2550065,165.066216 36.1237864,165.699619 C31.8305825,165.022971 27.5064078,164.417994 23.1512621,163.884686 C23.1512621,163.713943 23.1512621,163.540038 23.1512621,163.362971 C23.1919267,161.536988 23.7249773,159.754692 24.695534,158.199581 C25.9770874,156.217067 27.8994175,154.974438 30.0235922,155.037676 C32.147767,155.100914 33.9964078,156.463695 35.1498058,158.515771 C36.0195907,160.132279 36.4365544,161.948557 36.3576699,163.777181 L36.3576699,163.777181 Z" id="Path" fill="#3F3D56"></path>
                    <ellipse id="Oval" fill="#3F3D56" transform="translate(30.106376, 153.161274) rotate(-88.190000) translate(-30.106376, -153.161274) " cx="30.1063764" cy="153.161274" rx="8.53093248" ry="6.60311856"></ellipse>
                    <ellipse id="Oval" fill="#3F3D56" transform="translate(30.439354, 142.739468) rotate(-88.190000) translate(-30.439354, -142.739468) " cx="30.439354" cy="142.739468" rx="8.53093248" ry="6.60311856"></ellipse>
                    <ellipse id="Oval" fill="#3F3D56" transform="translate(30.775534, 132.317763) rotate(-88.190000) translate(-30.775534, -132.317763) " cx="30.7755338" cy="132.317763" rx="8.53093248" ry="6.60311856"></ellipse>
                    <ellipse id="Oval" fill="#3F3D56" transform="translate(30.729600, 121.432067) rotate(-88.281642) translate(-30.729600, -121.432067) " cx="30.7296" cy="121.432067" rx="8.53475934" ry="6.60609772"></ellipse>
                    <path d="M8.66009709,49.8031619 C7.79557149,48.6424168 7.0130419,47.4243117 6.31805825,46.1574857 L23.7471845,43.8872381 L4.9884466,43.4414095 C1.6020291,35.5205348 1.66923764,26.5731238 5.17427184,18.7026667 L29.9242718,32.3652571 L7.26,14.8103619 C13.5062589,4.88544228 24.8457539,-0.766008484 36.6467671,0.164395017 C48.4477803,1.09479852 58.734306,8.45126604 63.304721,19.2289829 C67.875136,30.0066997 65.9641531,42.4010046 58.3523301,51.3493333 C59.7020805,53.1561851 60.8503748,55.101472 61.7772816,57.1514286 L38.8983495,67.9936 L63.1549515,60.7844571 C66.2606932,70.8789366 63.9914639,81.838556 57.1220388,89.9214095 C66.908675,103.028473 64.843599,121.357707 52.3786287,132.023042 C39.9136585,142.688378 21.2359041,142.10722 9.47645629,130.688143 C-2.28299149,119.269066 -3.17401478,100.847853 7.42980583,88.3752381 C-1.22560233,76.7761925 -0.717309392,60.8388922 8.66009709,49.8 L8.66009709,49.8031619 Z" id="Path" fill="#6C63FF"></path>
                    <path d="M64.5039402,70.8488 C64.2935638,77.8457355 61.6972057,84.5679775 57.1348544,89.9277333 C66.9214906,103.034797 64.8564145,121.364031 52.3914443,132.029366 C39.926474,142.694702 21.2487196,142.113544 9.48927182,130.694467 C-2.27017596,119.27539 -3.16119924,100.854177 7.44262136,88.3815619 C3.36087379,82.9399238 64.6159223,67.3485714 64.5039402,70.8488 Z" id="Path" fill="#000000" opacity="0.1"></path>
                </g>
                <polygon id="Path" fill="#F1C0C0" points="50 214 53.3414932 213.990487 58.052712 213.990487 64.0094253 117.666314 123 19.6774434 120.435746 16.9378264 120.435746 10 56.6383907 115.395984"></polygon>
                <polygon id="Path" fill="#000000" opacity="0.1" points="54 215 58.3354937 215 64.2662714 118.701569 123 20.7388849 120.446911 18 59.8641754 117.233856"></polygon>
                <polygon id="Path" fill="#F1C0C0" points="40 215.592861 192.841111 226.990688 192.971704 227 340.888519 218.135023 341 218.128815 341 212.041904 178.014074 209.127263 42.0353333 209 41.0415556 209 40.9332593 209.682876"></polygon>
                <polygon id="Path" fill="#000000" opacity="0.1" points="40 215.592861 192.841111 226.990688 192.971704 227 340.888519 218.135023 341 218.017072 341 212.169167 340.869407 212.169167 192.841111 216.986549 42.0353333 209 42.013037 209 41.7454815 209.170719 40.9332593 209.682876"></polygon>
                <polygon id="Path" fill="#000000" opacity="0.1" points="40 215.487023 192 227 192 216.894792 41.7358758 209 40.9281234 209.517331"></polygon>
                <polygon id="Path" fill="#F1C0C0" points="120 17.7323783 187.065898 89.7028973 184.992578 216.299503 190.689454 216.987321 190.784561 217 196.481437 217 197.163033 95.1388808 322.74476 137.07995 324.862464 211.757366 329.446595 212.270853 331 212.445185 327.404976 131.900709 196.126373 85.820052 124.143471 11 120 11"></polygon>
                <polygon id="Path" fill="#000000" opacity="0.1" points="197 93 197.517522 95.3207037 323.288088 137.099684 325.408976 211.488498 330 212 326.39957 135.552548"></polygon>
                <polygon id="Path" fill="#000000" opacity="0.1" points="120 17.7327927 186.840442 89.7077415 184.774092 216.312139 190.451817 217 192 85.5647283 120 11"></polygon>
                <polygon id="Path" fill="#F1C0C0" points="197 143.176712 243.257206 152.195052 243.273125 152.198204 324.290891 168 328 166.52794 327.987265 166.269462 327.745297 161.147196 197.047757 135"></polygon>
                <polygon id="Path" fill="#000000" opacity="0.1" points="243 153 324.278934 169 328 167.509475 327.987224 167.247756"></polygon>
                <polygon id="Path" fill="#F1C0C0" points="247 111 248.231273 179.736016 248.867274 215 254.47223 214.809367 258 214.688632 256.903446 111.99447 254.47223 111.174747 253.939618 111"></polygon>
                <polygon id="Path" fill="#000000" opacity="0.1" points="247 111 247 111.015884 248.113972 179.741401 248.713803 215 254 214.809396 254 111"></polygon>
                <path d="M157.523707,129.275986 C157.862661,129.453072 158.186609,129.655503 158.492555,129.881408 C158.854328,130.185886 159.179322,130.528526 159.461403,130.902864 C160.846855,132.62599 162.125735,134.62854 161.990096,136.801851 C161.995944,137.440502 161.736759,138.055051 161.269919,138.509453 C160.698299,138.978267 159.878007,139 159.128765,139 C158.314933,139 157.459117,139 156.755087,138.596385 C156.051058,138.19277 155.46329,137.407274 154.630081,137.425902 C154.512465,137.444607 154.392452,137.444607 154.274837,137.425902 C153.987412,137.335865 153.929281,136.972611 153.74197,136.742861 C153.419021,136.329932 152.737598,136.432388 152.230567,136.612463 C151.723537,136.792537 151.161605,137.062649 150.661034,136.854632 C150.370439,136.707239 150.132926,136.478902 149.979611,136.199534 C148.781469,134.336696 148.526339,132.098185 148.300274,129.934189 C148.161406,128.617783 147.102132,124.128344 150.024823,125.1498 C151.316621,125.596881 152.524451,126.491043 153.699987,127.146141 L157.523707,129.275986 Z" id="Path" fill="#3F3D56"></path>
                <path d="M153.628454,129.669495 C154.196403,130.036219 154.969633,130.008404 155.503072,129.60206 C156.011519,129.189632 156.335553,128.625305 156.414771,128.014271 C156.756232,127.919249 156.930376,128.320794 157.148911,128.566013 C157.531347,128.982884 158.309876,128.976753 158.658166,129.421212 C158.900603,129.727735 158.845969,130.153802 159.0167,130.500173 C159.238649,130.947696 159.7884,131.180654 160.164006,131.542351 C160.51869,131.937532 160.774853,132.396392 160.915219,132.887987 L161.475214,134.39608 C161.743159,135.023243 161.915449,135.680039 161.987405,136.348631 C162.058741,137.023794 161.824985,137.696384 161.33863,138.215357 C160.587417,138.941816 159.354745,139.018447 158.265487,138.99699 C157.901715,139.003931 157.538617,138.965767 157.186472,138.883577 C156.220139,138.613836 155.602096,137.740246 155.346,136.860525 C155.089905,135.980804 155.117222,135.05817 154.966979,134.156992 C154.804703,133.271785 154.517858,132.40866 154.113328,131.588329 C153.812843,130.950762 152.986509,130.00054 153.000167,129.323124 C153.246019,129.323124 153.423578,129.52543 153.628454,129.669495 Z" id="Path" fill="#3F3D56"></path>
                <path d="M156.441091,126.168523 C156.288886,125.709334 156.200171,125.231739 156.177378,124.748832 C156.177378,123.778656 156.623411,122.866691 157.072699,122 L153.35142,122.501258 C152.902132,122.562702 152.400752,122.653252 152.146806,123.025153 C151.951065,123.399165 151.951065,123.844457 152.146806,124.218469 C152.333358,124.587427 152.481711,124.974248 152.589583,125.372979 C152.598023,125.721917 152.638342,126.069372 152.710045,126.411067 C152.825851,126.662073 152.98821,126.889171 153.188634,127.080489 C154.253252,128.251168 155.050902,129.632052 155.845295,131 C155.822505,130.961193 158.088481,129.21811 157.997321,128.64894 C157.94523,128.325548 157.290832,127.937478 157.082466,127.627021 C156.794643,127.176402 156.578321,126.684482 156.441091,126.168523 L156.441091,126.168523 Z" id="Path" fill="#BE6F72"></path>
                <polygon id="Path" fill="#F1C0C0" points="187 113 187 116.074922 133.379172 126.345473 130.597515 128 121 128 121 126.26743 173.683011 113.76795"></polygon>
                <polygon id="Path" fill="#000000" opacity="0.1" points="187 117 133.379172 127.335079 130.597515 129 121 129 174.074033 117.775916"></polygon>
                <path d="M143.857481,201.537072 C142.637362,200.020268 140.559716,199.566902 138.844032,200.443079 C138.665686,200.529277 138.508391,200.655351 138.383678,200.812059 C138.068367,201.265192 138.270166,201.889868 138.298544,202.449811 C138.371065,203.815684 137.31162,204.92586 136.35938,205.880677 C135.848576,206.39207 135.328312,206.939066 135.098135,207.634949 C134.867958,208.330832 135.038226,209.214442 135.656236,209.576948 C135.925934,209.715733 136.219379,209.799284 136.520188,209.822935 C137.528051,210.024752 138.561469,210.05428 139.578707,209.910325 C140.58455,209.712888 141.571475,209.127052 142.006604,208.175472 C142.090552,207.917477 142.229511,207.681954 142.413356,207.486063 C142.968303,207.036166 143.819644,207.563743 144.450266,207.243313 C144.97053,206.977906 144.992601,206.560376 144.998908,206.010143 C145.017826,204.48891 144.797108,202.767005 143.857481,201.537072 Z" id="Path" fill="#6C63FF"></path>
                <path d="M150.516961,201.813601 C150.887231,202.847903 150.938406,203.974781 150.986572,205.079313 C151.013665,205.71777 151.031727,206.40092 150.706612,206.940417 C150.381497,207.479914 149.746318,207.764028 149.138233,207.898104 C147.882928,208.172641 146.428941,207.914065 145.619164,206.857418 C144.999037,206.049768 144.869593,204.942044 144.983985,203.894973 C145.080316,203.036248 145.285018,202.030677 144.704025,201.420949 C144.553509,201.258143 144.357838,201.14322 144.219363,200.967644 C143.918331,200.578185 143.966496,199.990804 144.129053,199.511961 C144.340764,199.054019 144.499457,198.5706 144.601674,198.072238 C144.625757,197.836009 148.677653,198.238237 149.050933,198.432967 C149.559678,198.697927 149.48141,199.141655 149.634936,199.67796 C149.848669,200.424955 150.258073,201.098528 150.516961,201.813601 Z" id="Path" fill="#6C63FF"></path>
                <path d="M151.528575,155.987414 C152.363565,156.533651 152.686175,157.606959 152.815852,158.603602 C153.173253,161.334787 152.54701,164.094721 152.499568,166.851461 C152.455288,170.713452 153.562283,174.645719 152.616593,178.386324 C152.050444,180.622382 152.531196,183.177877 151.999839,185.436295 C151.841696,186.107112 151.550715,186.739597 151.398898,187.410415 C151.082614,188.863852 151.414713,190.384371 151.860673,191.805865 C152.003055,192.188977 152.093488,192.589775 152.129515,192.997365 C152.108072,193.624812 151.950433,194.239844 151.66774,194.798988 L149.770034,199.331797 C149.558124,199.839701 148.723133,199.922755 148.188613,199.989837 C147.182828,200.111223 146.060019,200.197471 145.25982,199.56818 C144.459621,198.93889 144.266687,197.884748 144.143336,196.900883 C143.906747,195.012115 143.801062,193.108965 143.827052,191.205324 C143.861816,190.7085 143.818042,190.209254 143.697375,189.726332 C143.523419,189.180095 143.140715,188.707328 143.036341,188.129147 C142.903502,187.381665 143.27988,186.646961 143.419045,185.89309 C143.514487,185.204533 143.503818,184.505205 143.387417,183.819945 C143.264066,182.797747 143.121738,181.775549 142.960433,180.75974 C142.732708,179.338246 143.058481,177.935918 143.276717,176.51123 C143.482302,175.17279 143.219786,173.808795 142.960433,172.479937 C142.982856,173.558463 142.849673,174.63454 142.565078,175.674306 C142.397447,176.18221 142.157071,176.667754 142.01158,177.185242 C141.363197,179.507548 142.74536,181.944851 142.549263,184.35021 C142.457541,185.474627 142.021069,186.586268 142.144419,187.694713 C142.229816,188.506083 142.603032,189.250371 142.859222,190.023408 C143.115412,190.796445 143.248252,191.681285 142.859222,192.403212 C141.831298,194.364554 142.599869,197.031852 143.520256,199.044304 C143.707075,199.401222 143.869805,199.77048 144.007334,200.149555 C144.279339,201.056756 144.051614,202.031038 144.124359,202.976571 C143.587599,203.065311 143.040308,202.899134 142.640986,202.526165 C142.501821,202.379224 142.387958,202.206728 142.251956,202.053399 C141.871953,201.687626 141.422103,201.403939 140.929888,201.219668 C140.640887,201.056312 140.311659,200.979835 139.981035,200.999257 C139.633445,201.097323 139.32075,201.293459 139.079624,201.56466 C138.76681,201.842467 138.434938,202.097588 138.086492,202.328114 C137.93807,202.443292 137.764583,202.521044 137.580437,202.554914 C137.390537,202.584559 137.203189,202.48802 137.115499,202.315337 C137.095736,202.262038 137.084008,202.206045 137.080708,202.14923 C136.963236,201.184699 136.90093,200.21413 136.8941,199.242355 C136.8941,197.5717 134.91416,196.421727 134.664296,194.770239 C134.465036,193.438187 134.835089,192.080581 134.711738,190.738946 C134.651644,190.048963 134.461874,189.371757 134.474525,188.681773 C134.474525,188.234562 134.575736,187.796933 134.610527,187.352916 C134.639524,186.860047 134.632123,186.365682 134.588387,185.873923 L134.490339,184.331044 C134.395454,182.80733 134.29108,181.251673 133.696466,179.858928 C132.991355,178.232668 132.573872,176.494195 132.462957,174.722384 C132.3997,173.604355 132.440817,172.486326 132.314303,171.365103 C132.200441,170.352488 131.947413,169.346262 132.020159,168.330453 C132.080253,167.544639 132.336443,166.784379 132.396537,165.998564 C132.519888,164.487628 131.950576,163.018219 131.504615,161.57117 C131.058654,160.124121 130.729719,158.520548 131.314845,157.124609 C131.398464,156.895477 131.53766,156.691192 131.719689,156.530457 C131.944034,156.380524 132.199348,156.284374 132.46612,156.249353 C137.892765,155.098041 143.454999,154.739809 148.982486,155.185628 C149.883576,155.237232 150.758129,155.512636 151.528575,155.987414 Z" id="Path" fill="#3F3D56"></path>
                <circle id="Oval" fill="#BE6F72" cx="134" cy="118" r="5"></circle>
                <path d="M132.868857,124.792964 C132.938496,125.072527 132.938496,125.365145 132.868857,125.644708 C132.792677,125.840055 132.685425,126.02154 132.551332,126.182008 C132.082379,126.792684 131.563444,127.362516 131,127.885495 C131.287036,128.532715 131.803834,129.047901 132.448515,129.32949 C133.088608,129.60454 133.760034,129.79835 134.447405,129.906477 C134.7905,129.997544 135.147541,130.022402 135.499771,129.979745 C135.824388,129.897383 136.131685,129.756748 136.406983,129.564558 L139.098379,127.937393 C139.504473,127.71533 139.880534,127.441371 140.217273,127.122284 C140.710886,126.610102 140.990269,125.925762 140.997476,125.211204 C141.010009,125.083213 140.975576,124.95503 140.900706,124.850968 C140.797545,124.760318 140.66815,124.705711 140.531774,124.695273 C139.585249,124.484627 138.838311,123.709205 138.414946,122.829986 C138.032227,121.928704 137.784564,120.974919 137.680104,120 L134.81029,121.526422 C134.383901,121.755385 133.960535,121.984348 133.519025,122.182783 C133.237789,122.311002 132.66927,122.417852 132.469683,122.677344 C132.088654,123.15664 132.769063,124.215977 132.868857,124.792964 Z" id="Path" fill="#BE6F72"></path>
                <path d="M131.051139,126.282019 C130.624411,126.638233 130.291255,127.096782 130.081588,127.61649 C129.885784,128.259608 130.081588,128.938098 130.258445,129.574785 C131.087318,132.288521 131.720628,135.060216 132.153331,137.867796 C132.418615,139.797152 132.516517,141.755447 132.646001,143.707311 C132.911285,147.688214 133.296579,154.035792 133.811356,157.99097 C135.706242,158.077791 137.553756,157.515062 139.432852,157.309264 C142.944707,156.929825 146.560782,157.798034 150,156.987705 C149.16625,153.633843 148.3325,147.906874 147.49875,144.556227 C147.129808,143.236084 146.874091,141.885829 146.73448,140.52066 C146.661842,139.539904 146.706056,138.555933 146.718689,137.568746 C146.747112,135.639391 146.642893,133.710036 146.538675,131.780681 C146.418665,129.529767 146.298656,127.278853 145.774404,125.076172 C145.737884,124.795503 145.608694,124.535826 145.408059,124.339802 C145.092245,124.105064 144.681686,124.188669 144.305867,124.240118 C143.155144,124.388927 141.990458,124.107882 141.027714,123.449083 C140.610839,123.15968 140.051848,122.805965 139.663396,123.127524 C139.497627,123.321492 139.388261,123.558681 139.347582,123.812445 C138.999844,124.732743 138.279381,125.455765 137.370584,125.796465 C136.470591,126.128324 135.528066,126.325457 134.572469,126.381703 C134.280033,126.445623 133.975099,126.410623 133.703979,126.282019 C133.255523,126.002263 133.223941,124.995783 132.658634,124.928255 C132.162805,124.870374 131.385902,125.957244 131.051139,126.282019 Z" id="Path" fill="#3F3D56"></path>
                <path d="M139.422926,133.852 C138.233258,132.7241 137.710965,131.088164 136.8437,129.698258 C136.253145,128.763634 135.498661,127.941236 134.615894,127.269917 C134.172114,126.979464 133.765124,126.63726 133.403659,126.250652 C133.097376,125.876815 132.865245,125.378366 132.400985,125.234583 C132.01155,125.150605 131.605344,125.261701 131.314486,125.531735 C131.030274,125.80016 130.761197,126.083896 130.508478,126.381655 C129.141489,127.784342 126.739585,127.979248 125.65631,129.602403 C125.364061,129.946538 125.165408,130.358988 125.079209,130.800597 C124.767319,133.163043 125.383706,135.553909 126.800842,137.478537 C127.075232,137.924659 127.496589,138.263243 127.993733,138.437093 C127.926312,139.032864 128.005974,139.635949 128.225864,140.194445 C128.822813,142.216683 129.556324,144.196842 130.421429,146.121516 C130.214583,146.874369 130.070096,147.6427 129.989409,148.418855 C129.763727,150.371114 129.973289,152.352129 129.760503,154.307583 C129.586405,155.905177 129.115696,157.461232 129.099576,159.062021 C129.099576,159.317636 129.122144,159.621178 129.344603,159.752181 C129.462943,159.812435 129.595461,159.840026 129.728262,159.832061 L133.693821,159.950282 C135.99578,160.017381 138.320307,160.08448 140.586801,159.662716 C140.88862,159.618457 141.181386,159.526775 141.454066,159.391125 C142.221385,158.966165 142.476084,158.007609 142.598597,157.154494 C142.758596,156.047907 142.822237,154.929729 142.788815,153.81233 C143.269196,155.317262 143.839849,156.873318 145.290663,157.525136 C146.057983,157.870216 146.93492,157.844655 147.776392,157.822288 C149.590066,157.742243 151.397504,157.557675 153.189541,157.269521 C153.413483,157.297084 153.637362,157.217881 153.793071,157.056007 C153.948779,156.894133 154.017909,156.668726 153.979429,156.448358 L153.998773,154.703787 C154.037461,151.160325 153.150853,147.773427 152.805881,144.245942 C152.696264,143.134017 152.705936,142.009311 152.431894,140.919753 C152.319053,140.462841 152.154627,140.015515 152.054682,139.555408 C151.968654,139.104947 151.914787,138.649035 151.89348,138.191063 L151.642006,134.676359 C151.522717,133.050009 151.351843,131.481172 151.226106,129.858018 C151.157005,128.277488 150.925834,126.708027 150.536163,125.173874 C150.255672,124.215318 149.672122,123.128955 148.663001,123.010733 C148.124587,122.950025 147.602294,123.183273 147.089673,123.346228 C145.829699,123.739344 144.477459,123.73376 143.220835,123.330252 C142.832582,123.178322 142.427999,123.071113 142.015047,123.010733 C141.591816,122.953648 141.170393,123.127059 140.912428,123.46445 C140.787319,123.714082 140.728509,123.991208 140.741555,124.269637 C140.590025,127.461628 140.309534,130.749475 139.422926,133.852 Z" id="Path" fill="#6C63FF"></path>
                <path d="M133.976439,134.502659 C132.485449,133.014082 130.955648,131.497939 129.034502,130.551498 C128.277688,130.177822 127.417377,129.896034 126.579706,130.036928 C125.742035,130.177822 124.96258,130.866978 125.001391,131.672525 C125.027265,132.17178 125.347456,132.61284 125.447718,133.102906 C125.564151,133.654231 125.39597,134.242311 125.577088,134.775258 C125.724264,135.126445 125.944204,135.446169 126.223938,135.715573 L128.513788,138.28536 C129.484063,139.35738 130.454339,140.444715 131.70276,141.185941 C132.951181,141.927166 134.568307,142.273276 135.939629,141.746454 C136.915299,141.31699 137.72654,140.611854 138.261822,139.727993 C138.83105,138.870377 139.232097,137.933124 139.765749,137.047942 C140.596325,135.63357 141.692345,134.374528 143,133.332625 C142.327276,133.167228 141.483136,132.934446 141.059449,132.41375 C140.938855,132.248216 140.835932,132.071742 140.752195,131.886929 L140.228247,130.814908 C139.868013,130.797128 139.5163,130.922589 139.257971,131.161018 C139.033291,131.406959 138.792396,131.639183 138.536733,131.8563 C138.080704,132.180969 137.462962,132.269793 137.048977,132.640406 C136.8888,132.799512 136.743774,132.971705 136.615588,133.154976 C135.982135,133.943478 135.02016,134.434711 133.976439,134.502659 Z" id="Path" fill="#3F3D56"></path>
                <path d="M142.41398,127.979501 C143.527001,125.980039 143.47568,123.582579 143.793228,121.324103 C143.827618,120.726003 144.040762,120.151258 144.405871,119.672098 C145.047382,118.95823 146.179649,118.948754 147.14833,119.040356 C147.433803,119.071943 147.789841,119.204609 147.773804,119.485734 C147.75131,119.586467 147.701415,119.679277 147.629464,119.754224 C146.690575,120.947541 146.138417,122.391666 146.044932,123.89845 C146.548518,124.242749 147.327954,123.535199 147.812294,123.89845 C148.13305,124.163782 147.985502,124.688127 147.793049,125.067172 C147.34613,125.945293 146.885311,126.817097 146.410593,127.682583 C146.031649,128.445434 145.537412,129.147278 144.94474,129.764172 C144.537381,130.149534 144.059455,130.45277 143.645681,130.831815 C142.683414,131.719412 142.102847,132.97342 141.108505,133.838906 C141.024499,133.928533 140.910747,133.985663 140.787749,134 C140.661242,133.991087 140.541981,133.938516 140.450956,133.851541 C139.954238,133.453666 139.542203,132.963104 139.2385,132.408011 C138.860009,131.719412 138.917745,131.517255 139.51435,131.030814 C140.630579,130.162169 141.71794,129.23035 142.41398,127.979501 Z" id="Path" fill="#BE6F72"></path>
                <path d="M132.130237,132.789464 C132.326366,132.921974 132.568258,133.072391 132.784,132.961369 C132.872159,132.902955 132.947048,132.823355 133.003011,132.728581 C133.376705,132.182213 133.688436,131.588132 133.931355,130.959393 C133.973162,130.870572 133.996599,130.772752 134,130.672885 C134,130.443679 133.813677,130.275355 133.64043,130.142845 C132.712118,129.494626 131.71406,128.974951 130.669076,128.595701 C129.806108,128.237566 128.903914,127.925989 127.988646,128.015522 C127.29372,128.066651 126.647927,128.426241 126.200603,129.011138 C125.546839,129.931545 126.641893,130.210891 127.328345,130.543957 C128.91699,131.335435 130.636387,131.793848 132.130237,132.789464 Z" id="Path" fill="#6C63FF"></path>
                <path d="M131.004728,138.634175 C130.984306,138.768575 131.03078,138.904419 131.129882,139 C131.216298,138.587721 131.103063,138.152214 131.192459,137.737032 C131.323572,137.112806 131.946363,136.642459 132,136.01533 C130.858715,135.797577 131.013667,137.960592 131.004728,138.634175 Z" id="Path" fill="#000000" opacity="0.1"></path>
                <polygon id="Path" fill="#000000" opacity="0.2" points="187 113 187 116.198052 174.381714 117 174 113.798701"></polygon>
                <path d="M129.535623,118.841719 C130.333902,118.155645 129.871906,116.71721 130.412473,115.795816 C130.726756,115.292032 131.257895,115.026883 131.779605,114.801506 C132.409251,114.490814 133.083832,114.293639 133.775302,114.218177 C134.4768,114.147102 135.170826,114.416687 135.661001,114.950652 C135.865285,115.195915 136.003569,115.494208 136.195282,115.749415 C136.678997,116.35602 137.439488,116.633537 138.175265,116.471947 C138.593262,116.372516 139.026973,116.037765 138.998687,115.587011 C138.951481,115.312853 138.818735,115.063202 138.621547,114.877736 L137.722698,113.827082 C136.701278,112.63391 135.566716,111.367822 134.067585,111.069529 C133.024166,110.860724 131.955603,111.155703 130.949897,111.51034 C130.544472,111.652858 130.088762,111.864977 129.97562,112.299159 C129.900192,112.597452 130.013334,112.92226 129.947334,113.223867 C129.818478,113.823768 129.089341,114.025944 128.749916,114.529728 C128.41049,115.033512 128.514203,115.630097 128.416776,116.186911 C128.319348,116.743725 128.036493,117.287281 128.001922,117.86398 C127.979922,118.211989 128.146492,118.85829 128.517346,118.984236 C128.8882,119.110182 129.306197,118.427423 129.535623,118.841719 Z" id="Path" fill="#3F3D56"></path>
                <path d="M139,115.857309 C138.734062,114.393458 138.160733,113.011019 137.322103,111.811482 C136.576416,110.690724 135.539048,109.821722 134.33532,109.309457 C133.11624,108.806911 131.746137,108.920921 130.616823,109.618883 C129.789333,110.241983 129.145412,111.098875 128.759151,112.090963 C127.942281,113.947519 127.639502,116.216642 128.588839,118 C128.967312,117.514235 129.617024,117.733827 130.191041,117.557488 C130.91014,117.341222 131.51885,116.835494 132.203256,116.519414 C134.269088,115.557864 136.792241,116.33642 139,115.857309 Z" id="Path" fill="#FED253"></path>
                <path d="M129.07,114.935605 C129.0125,114.291654 128.975,113.543956 129.295,113.086036 C129.327251,113.029148 129.376348,112.997333 129.4275,113.000176 C129.472581,113.02113 129.509649,113.067707 129.53,113.128966 C129.714705,113.546125 129.872042,113.986843 130,114.445487 C129.618761,114.319758 129.222493,114.539494 129,115" id="Path" fill="#000000" opacity="0.1"></path>
                <path d="M137.096509,112.833976 L137.022587,111.516856 C137.010666,111.408318 137.01564,111.295974 137.036961,111.192187 C137.101078,111.012225 137.230542,110.948495 137.336756,111.044611 C137.437775,111.145189 137.521024,111.294765 137.577002,111.476272 C137.747929,111.947721 137.889765,112.451221 138,112.977864 C137.669277,112.863386 137.329053,112.870917 137,113" id="Path" fill="#000000" opacity="0.1"></path>
                <polygon id="Path" fill="#000000" opacity="0.1" points="139 159 139 161.839907 136.763506 162 125 162 125 159"></polygon>
                <polygon id="Path" fill="#F1C0C0" points="139 159.247289 139 162 125.326168 162 89 116.165125 89 114 96.6152432 114"></polygon>
                <polygon id="Path" fill="#000000" opacity="0.1" points="139 159.247289 139 162 125.326168 162 89 116.165125 89 114 96.6152432 114"></polygon>
                <polygon id="Path" fill="#000000" opacity="0.1" points="139 159.247289 139 162 125.326168 162 89 116.165125 89 114 125.522732 159.247289"></polygon>
                <path d="M93.7775708,205.029692 C93.8257556,205.27564 93.7638327,205.529516 93.6066624,205.730393 C93.4494921,205.93127 93.2112624,206.061014 92.9491444,206.08849 C92.070127,206.370436 91.1373568,206.649383 90.514456,207.288261 C89.8915552,207.927139 89.7682398,209.111913 90.514456,209.630814 C90.8958935,209.849022 91.3338232,209.962225 91.7792292,209.957751 C93.2115848,210.050734 94.7040172,210.032737 96.0035717,209.456847 C96.93318,209.048925 97.8090354,208.353058 98.8303398,208.416046 C99.3583826,208.44604 99.9212067,208.679995 100.392335,208.452039 C100.863463,208.224082 100.996264,207.588203 100.999426,207.057305 C101.011426,205.949009 100.835266,204.846108 100.477707,203.790928 C100.430278,203.646955 98.4192885,203.535977 98.1789816,203.490985 L95.7411312,203.191042 C95.279489,203.134053 94.2834801,202.804116 93.9198578,203.170046 C93.5562355,203.535977 93.7775708,204.594775 93.7775708,205.029692 Z" id="Path" fill="#6C63FF"></path>
                <path d="M108.088031,196.819638 C108.195497,197.404126 108.370018,197.974678 108.608232,198.520304 C108.960519,199.403093 109.411579,200.341056 110.274189,200.769468 C111.057782,201.155689 112.019164,201.01613 112.815926,200.649383 C113.148467,200.513616 113.439891,200.295643 113.662075,200.016502 C113.919098,199.574867 114.033917,199.066667 113.991315,198.559251 C113.991315,197.303224 113.91559,196.005005 113.332834,194.888537 C112.832388,193.914873 111.959901,193.077522 111.946731,192 L108.947349,192.571216 C108.786785,192.586434 108.63385,192.646062 108.506167,192.74323 C108.411131,192.841888 108.34512,192.964178 108.315207,193.096995 C107.994958,194.311558 107.917796,195.575988 108.088031,196.819638 L108.088031,196.819638 Z" id="Path" fill="#6C63FF"></path>
                <path d="M74.0497097,166.987273 C73.9390363,167.959645 73.9856356,169.001471 74.4749283,169.840972 C74.964221,170.680473 75.9952306,171.236114 76.8864422,170.900917 C76.9786892,170.876491 77.0574793,170.814404 77.1048765,170.728789 C77.1285902,170.626732 77.1151065,170.519189 77.0670145,170.426811 C76.6735706,169.338106 76.7059696,168.133094 77.1573007,167.068808 C77.2155498,166.929897 77.3407854,166.766829 77.4776709,166.821185 C77.5349257,166.851251 77.5809991,166.900084 77.6087314,166.960095 C77.7497239,167.213019 77.820297,167.501533 77.8126034,167.793556 C77.7714904,168.058137 77.7636585,168.32713 77.7893037,168.5938 C77.8446404,168.853502 78.1125864,169.098104 78.3455829,168.986372 C78.4817074,168.899696 78.5775268,168.758858 78.6106164,168.59682 C79.2600942,166.649057 78.9659361,164.520107 78.6688655,162.481751 C78.6738905,162.387003 78.6381127,162.294827 78.5711888,162.230101 C78.504265,162.165376 78.4130938,162.134774 78.3222832,162.146555 C76.9476038,162.004625 76.1961901,161.663389 75.4098268,162.989075 C74.7341369,164.106397 74.0497097,165.643468 74.0497097,166.987273 Z" id="Path" fill="#6C63FF"></path>
                <path d="M91.9169189,161.913412 C91.4742684,163.764667 91.0284561,165.638188 91,167.540336 C91.0077785,168.725161 91.0965179,169.908045 91.2655903,171.080623 L91.5975781,173.835239 C91.7114026,174.764048 91.8220652,175.689675 91.9833164,176.608941 C92.0861836,177.082529 92.1423143,177.56518 92.1508912,178.049866 C92.1198768,178.527677 92.0447237,179.001547 91.9264042,179.465345 C91.7275819,180.439365 91.6164694,181.429438 91.5944164,182.423536 C91.5596367,184.013961 91.7556676,185.604386 91.8789774,187.194812 C92.1251479,190.364123 92.0881118,193.549265 91.7683148,196.711916 C91.6406419,197.565582 91.8248635,198.436869 92.2868482,199.164352 C92.4743169,199.393739 92.6286594,199.648601 92.7453076,199.921395 C92.9824418,200.649809 92.4291287,201.378224 92.2868482,202.125724 C92.0973482,203.339425 92.9208291,204.478182 94.1270095,204.670404 C96.6564408,204.972585 99.2554314,204.835809 101.535081,206 C101.775377,205.293851 101.25052,204.492277 101.490816,203.773405 C101.642582,203.328086 102.059938,203.038628 102.344499,202.663288 C102.726789,202.091396 102.917339,201.411533 102.888327,200.722969 C102.899499,199.824201 102.740697,198.931493 102.420382,198.092406 C102.15163,197.392618 101.765892,196.702374 101.788025,195.951693 C101.788025,195.582715 101.917658,195.194651 101.769054,194.8543 C101.667142,194.658766 101.528648,194.484876 101.361183,194.342183 C100.416222,193.300729 99.8355321,191.977084 99.7075673,190.572875 C99.5842751,189.179369 99.6288635,187.775978 99.8403624,186.393237 C99.9952901,185.076365 100.203968,183.686334 101.035519,182.658919 C100.6499,179.543568 100.876573,176.382346 101.702656,173.354931 C101.784863,173.075016 101.914496,172.750569 102.199057,172.683772 C102.428465,172.660119 102.654955,172.750312 102.806121,172.925516 C103.302522,173.393101 103.539656,174.070622 103.754657,174.719516 C103.991792,175.422484 104.232088,176.173165 104.051866,176.892037 C103.975983,177.210122 103.824217,177.490037 103.735687,177.795398 C103.543338,178.409042 103.577009,179.071839 103.83054,179.662558 C103.954115,179.878438 104.031644,180.117843 104.058189,180.365526 C104.02887,180.578233 103.964768,180.784594 103.868482,180.976249 C103.631312,181.737479 103.72671,182.564228 104.13091,183.250557 C104.533906,183.926023 105.031159,184.53982 105.607466,185.073184 C105.332118,186.29403 105.40333,187.56815 105.812982,188.750248 C105.872688,188.857797 105.887473,188.984804 105.854085,189.103322 C105.797173,189.224194 105.651731,189.268726 105.537906,189.354609 C105.221728,189.615439 105.417758,190.108471 105.629598,190.448822 C106.210189,191.383003 106.851312,192.277699 107.548804,193.127098 C108.181162,193.887321 108.12425,195.353693 109.066463,195.627246 C109.462392,195.713274 109.872014,195.713274 110.267943,195.627246 C111.197509,195.484108 112.234576,195.213736 112.689874,194.386715 C112.876419,194.046364 112.952302,193.632853 113.243187,193.378385 C113.534071,193.123917 113.910324,193.079385 114.071575,192.774023 C114.232827,192.468662 114.052605,192.067875 114.106355,191.7148 C114.160105,191.361726 114.466799,191.07863 114.564814,190.706471 C114.798787,189.847641 113.802823,189.141492 113.666866,188.263577 C113.470835,186.991237 115.064377,186.036982 114.99798,184.764642 C114.858861,182.000483 114.770331,179.2236 114.62805,176.459441 C114.449486,173.983418 114.424143,171.49862 114.552167,169.019432 C114.66283,167.476719 114.868346,165.860847 114.305548,164.426284 C113.49613,162.403263 111.263907,161.267699 109.104405,161.051401 C106.944903,160.835103 104.791724,161.350401 102.651193,161.687571 C99.0986252,162.238372 95.4892703,162.31431 91.9169189,161.913412 Z" id="Path" fill="#3F3D56"></path>
                <circle id="Oval" fill="#FBBEBE" cx="98" cy="126" r="5"></circle>
                <path d="M96.0120945,132.268611 C95.6757568,133.109716 94.8922811,133.641916 94.0405674,133.607834 C93.8654547,134.386075 94.2851213,135.170801 94.7651715,135.783666 C96.7949486,138.320513 99.9432523,139.480293 102.995467,138.815562 C103.578772,138.703395 104.132153,138.455476 104.616768,138.089204 C105.27008,137.5033 105.708709,136.687499 105.854634,135.786908 C105.993593,134.89256 106.033119,133.983645 105.972382,133.079279 C105.98932,132.900688 105.941766,132.72193 105.839538,132.579908 C105.718798,132.479477 105.569524,132.426799 105.416852,132.430745 C104.396368,132.333465 103.330596,132.29131 102.433899,131.753027 C101.537201,131.214744 100.900153,129.998742 101.331896,129 C101.262455,129.155648 99.4992518,129.23023 99.2667747,129.262656 C98.5391513,129.372907 97.811528,129.496129 97.0869239,129.638806 C96.7387425,129.659334 96.3946049,129.729113 96.0634206,129.846337 C95.6256389,130.089537 95.7886748,129.969558 95.8913271,130.410561 C96.0453055,131.085037 96.2717443,131.568195 96.0120945,132.268611 Z" id="Path" fill="#FBBEBE"></path>
                <path d="M99.5135848,135.637914 C98.8278562,135.645677 98.1437238,135.571288 97.476348,135.416396 C96.8025094,135.261882 96.2085734,134.872813 95.804606,134.321289 C95.569418,133.971853 95.4168636,133.531938 95.041834,133.33538 C94.4284382,133.023384 93.7292306,133.550658 93.2397852,134.034252 C92.7941497,134.51118 92.2776916,134.919298 91.7078848,135.244798 C91.0277464,135.597354 90.2331923,135.722153 89.5911925,136.137108 C89.0896457,136.509127 88.659228,136.965458 88.3199059,137.484933 L83.8163729,143.506464 C82.0079677,145.927556 80.4347504,148.526486 78.8233946,151.081737 C77.4281575,153.293791 76.6971677,155.839682 75.645178,158.226455 C75.5618547,158.372519 75.52739,158.540593 75.5466533,158.706929 C75.5847919,158.869167 75.7850195,159.000206 75.924861,158.906607 C75.4513068,159.368362 75.8676531,160.154593 75.7564156,160.803545 C75.629962,161.257627 75.3662201,161.663394 75,161.967292 C75.6995412,161.877716 76.4097144,161.910462 77.097623,162.064011 C77.8085714,162.261812 78.4794641,162.578445 79.0808301,163 C79.4653944,162.940721 79.430434,162.269928 79.7164735,162.020331 C79.8880972,161.873693 80.1423545,161.892413 80.3680079,161.848733 C81.2165917,161.686495 81.5534827,160.684987 82.2050171,160.120273 C82.7484921,159.649158 83.5176206,159.49628 84.0928778,159.053245 C85.0272735,158.332534 85.2275011,157.050228 85.7169465,155.98632 C86.1332928,155.084651 86.7880055,154.29842 87.1535004,153.37491 C87.3918666,152.775877 87.5062824,152.126925 87.8463516,151.574691 C88.3898266,150.682381 89.4132124,150.208147 90.3889249,149.780712 C91.0054989,149.509275 91.6602115,149.228478 92.3244588,149.272157 C92.2894984,150.722941 92.1019837,152.151884 92.4229835,153.568348 C92.5342211,154.067542 92.6899537,154.554257 92.8234388,155.050331 C93.4304782,157.284226 93.573498,159.611719 93.6021019,161.914252 C95.0623362,161.586248 96.553776,161.410555 98.0516052,161.390098 C99.2307235,161.355779 100.406664,161.505537 101.585782,161.483697 C102.984197,161.458738 104.366722,161.193541 105.765137,161.099942 C107.163552,161.006343 108.625532,161.099942 109.861858,161.723935 C109.761474,159.746657 109.817792,157.764712 110.030304,155.796003 L110.367195,152.694758 C110.44322,151.793734 110.584478,150.899164 110.789897,150.017829 C110.974234,149.306477 111.241204,148.620085 111.44461,147.911853 C112.159709,145.415882 112.029402,142.751432 111.892739,140.152502 C111.822818,138.817157 111.298412,137.503652 110.681838,136.314946 C110.458672,135.873401 110.20377,135.448011 109.919066,135.042001 C108.40462,132.993644 105.925682,131.8511 103.352871,132.015635 C103.191194,132.020527 103.031788,132.054361 102.882494,132.115474 C102.614233,132.284092 102.404695,132.528969 102.281812,132.817466 C101.624246,133.977664 100.670186,134.949722 99.5135848,135.637914 L99.5135848,135.637914 Z" id="Path" fill="#3F3D56"></path>
                <path d="M93.442545,127.770903 C93.5749222,127.45554 93.93087,127.338855 94.1485571,127.086565 C94.5662809,126.607213 94.378011,125.84088 94.4427288,125.194386 C94.5486306,124.248296 95.2811182,123.456735 96.1195075,123.119296 C96.9744974,122.825133 97.8842766,122.763363 98.7670529,122.939539 C99.1919922,122.97279 99.6024891,123.119118 99.9613901,123.365279 C100.114359,123.485117 100.255562,123.639645 100.399706,123.750022 C100.94615,124.104087 101.656279,123.92636 102,123.349511 C100.958632,122.006064 99.805479,120.58693 98.2228352,120.173804 C97.6798918,120.054988 97.1266255,119.998953 96.572532,120.006662 C95.8400444,119.990894 95.0840231,119.978279 94.4074282,120.277874 C93.4866707,120.684693 92.839493,121.621321 92.5070789,122.630483 C92.2163806,123.653382 92.0609171,124.714929 92.0452293,125.784115 C91.9849236,126.497476 91.9849236,127.215223 92.0452293,127.928584 C92.1589479,128.902789 92.496563,129.831469 93.0277629,130.631247 C93.09958,130.755461 93.2011687,130.856744 93.3219346,130.924534 C94.6633576,131.555261 93.3337014,128.032654 93.442545,127.770903 Z" id="Path" fill="#3F3D56"></path>
                <path d="M102,123.114079 C101.820681,121.551082 100.725205,120.2602 99.5612611,119.221521 C98.6231262,118.32089 97.5056373,117.636181 96.2846132,117.21385 C95.0554627,116.8455 93.6404724,116.925144 92.5873806,117.671798 C91.7396906,118.27244 91.2017335,119.228158 90.7876695,120.190512 C90.2437226,121.326173 89.9743246,122.577709 90.0019261,123.840822 C90.0834348,125.095202 90.6833385,126.366173 91.752732,127 C92.1374528,126.422587 92.8058238,126.123926 93.448112,125.888315 C96.2475003,124.80727 99.1023017,123.881171 102,123.114079 L102,123.114079 Z" id="Path" fill="#FED253"></path>
                <path d="M93.2812052,123.000106 C93.3639441,123.000106 93.4182416,123.06837 93.4596111,123.124222 C93.6701313,123.386634 93.8509775,123.663546 94,123.951665 C93.6974856,124.00338 93.1777815,124.061301 93.0278171,123.848235 C92.9476637,123.740667 93.0433306,122.989763 93.2812052,123.000106 Z" id="Path" fill="#000000" opacity="0.1"></path>
                <path d="M100.11706,120.987791 C100.06314,121.0338 100.000234,120.939781 100.000234,120.871767 L100.000234,120.09561 C99.9987672,120.074029 100.004221,120.052522 100.015961,120.033597 C100.034786,120.014429 100.061539,120.00288 100.0901,120.001591 C100.27208,119.983587 100.422607,120.121615 100.539434,120.253642 C100.716722,120.46761 100.870928,120.696003 101,120.93578 L100.04966,120.909775" id="Path" fill="#000000" opacity="0.1"></path>
                <path d="M116.790355,141.786335 C117.071599,141.52173 117.371886,141.27775 117.688839,141.056324 C118.535371,140.495943 119.559154,140.274819 120.509592,139.917387 C121.460029,139.559954 122.425747,138.981398 122.795532,138.04238 C122.980646,137.455203 123.040998,136.836376 122.972784,136.224927 C122.981656,135.968926 122.935832,135.713958 122.838317,135.476742 C122.721985,135.267107 122.556347,135.088383 122.355458,134.955738 C121.065796,134.010662 119.336061,133.934935 117.73468,134.031866 C114.204149,134.248874 110.743591,135.105092 107.524352,136.558126 C107.354106,136.613875 107.204922,136.719494 107.096502,136.861035 C107.033826,136.992309 107.005452,137.137094 107.013989,137.282079 C106.957047,138.175347 107.074296,139.071122 107.359324,139.920416 C107.781062,140.998771 108.648986,141.86812 109.012658,142.967679 C109.177686,143.461421 109.232695,143.985453 109.37633,144.482224 C109.494168,144.995268 109.80025,145.446559 110.235086,145.748383 C111.442233,146.463248 112.582147,145.503027 113.41951,144.757871 L116.790355,141.786335 Z" id="Path" fill="#3F3D56"></path>
                <path d="M100.519684,146.010658 L98.8898437,142.532929 C98.6508723,142.050982 98.4446849,141.554132 98.2726262,141.045618 C98.0861751,140.438745 97.9961642,139.809861 97.8225718,139.199843 C97.2503597,137.168548 95.8069708,135.47685 95.1029571,133.486432 C95.0584454,133.306712 94.9677053,133.141104 94.8393538,133.005336 C94.6313288,132.861406 94.3686796,132.815324 94.1224814,132.879559 C93.138791,133.046213 92.3704838,133.778863 91.4703749,134.193926 C91.0524672,134.382592 90.6024128,134.508369 90.1845051,134.725334 C89.761805,134.921158 89.4472717,135.287364 89.3229723,135.728404 C89.2233174,136.2095 89.4676327,136.67173 89.6733718,137.140248 C90.5477633,139.070922 90.7470731,141.227995 90.7856492,143.341045 C90.8145813,144.762323 90.7406438,146.287367 89.8823257,147.428791 C88.2331976,149.629885 89.2876109,152.862349 89.9048284,155.525673 C89.9787659,155.840115 90.0655621,156.179713 90.1169969,156.513021 C90.1713913,156.930097 90.1960966,157.350364 90.1909344,157.770789 C90.1909344,159.182634 90.1105676,160.638501 89.5062088,161.91828 C90.1028837,162.2288 90.7604944,162.411051 91.4350135,162.452831 C93.3016678,162.685518 95.1758231,162.849028 97.0574792,162.943361 C97.6470235,162.997583 98.2414902,162.967927 98.8223355,162.855317 C100.241345,162.480207 101.219488,161.211423 101.19798,159.773785 C101.30085,160.644789 101.490515,161.59126 102.136665,162.194989 C102.782815,162.798717 103.724714,162.889905 104.60232,162.937072 C107.079196,163.065563 109.562648,162.997209 112.028218,162.732684 C112.185593,162.725739 112.340324,162.690567 112.484702,162.628919 C112.960474,162.396231 112.986192,161.75477 112.947615,161.239085 C112.876893,160.273748 112.802955,159.308411 112.684012,158.349363 C112.583163,157.737959 112.53157,157.119751 112.529708,156.500444 C112.578728,155.863393 112.686318,155.231958 112.851175,154.613791 C113.281942,152.651673 113.622697,150.648678 113.478037,148.639393 C113.420866,148.149935 113.400451,147.657037 113.416958,147.16466 C113.500539,146.05468 114.098469,144.998154 113.985955,143.894463 C113.664488,140.649421 113.404099,137.31948 112.478273,134.187638 C112.31111,133.627931 112.098941,133.027347 111.600667,132.706616 C110.957732,132.285263 110.054408,132.505373 109.318248,132.238097 C108.972827,132.080859 108.644364,131.890195 108.337772,131.668957 C107.671615,131.261446 106.907997,131.031622 106.122861,131.00234 C105.531361,130.980329 104.872353,131.10925 104.515524,131.574624 C104.35029,131.836638 104.240942,132.128634 104.194057,132.433051 C103.727929,134.351148 103.181434,136.247233 102.63494,138.143318 L102.110948,139.960793 L100.706135,144.840933 C100.567904,145.359763 100.661129,145.520128 100.519684,146.010658 Z" id="Path" fill="#6C63FF"></path>
                <polyline id="Path" fill="#F1C0C0" points="108.098515 127 139 159.263988 139 162 125.221637 162 102 131.888002"></polyline>
                <polyline id="Path" fill="#000000" opacity="0.1" points="108.098515 127 139 159.263988 139 162 125.221637 162 102 131.888002"></polyline>
                <polygon id="Path" fill="#000000" opacity="0.1" points="102.49197 131 102.591003 131.035443 125.419703 159.222534 139 159.222534 139 162 125.221637 162 102 131.431764"></polygon>
                <path d="M106.827553,132.292813 C105.681753,132.766129 104.40828,133.372469 104.06454,134.510903 C103.996676,134.710687 103.982058,134.923213 104.021982,135.129617 C104.193401,135.626482 104.671125,135.972132 105.223434,135.99891 C105.762528,136.011256 106.29854,135.918587 106.798089,135.726676 L113.558304,133.616861 C113.741632,133.561177 113.95115,133.47765 113.996982,133.307504 C114.008753,133.200502 113.985924,133.09264 113.931507,132.998147 C113.72199,132.51555 113.515746,131.528701 113.077068,131.191502 C112.71696,130.919268 112.003291,131.015168 111.567887,131.021356 C109.891747,131.03373 108.317091,131.674099 106.827553,132.292813 Z" id="Path" fill="#6C63FF"></path>
                <path d="M112.382593,133.737401 C113.473261,133.734065 114.557654,133.910669 115.596103,134.260751 C116.639204,134.6163 117.563078,135.278932 118.25783,136.169826 C118.460156,136.418851 118.604043,136.714215 118.677938,137.032202 C118.740641,137.361352 119.762694,137.558843 119.536964,137.782666 C120.223558,137.667463 120.060531,138.006488 120.75653,137.999905 C121.45253,137.993322 122.204961,137.805706 122.621934,137.223109 C122.911631,136.7445 123.040734,136.178002 122.988744,135.613561 C122.997883,135.222795 122.927333,134.834495 122.781825,134.474699 C122.468312,133.783482 121.747232,133.411542 121.082584,133.092265 L115.483239,130.403102 C115.158421,130.221702 114.809758,130.091919 114.448645,130.017996 C114.144736,129.987861 113.838499,129.995595 113.536322,130.041036 L111,130.347147 C112.128493,131.11387 112.787629,132.449091 112.733728,133.859187" id="Path" fill="#3F3D56"></path>
            </g>
        </g>
    </g>
</svg>