<?xml version="1.0" encoding="UTF-8"?>
<svg width="375px" height="335px" viewBox="0 0 375 335" version="1.1" xmlns="http://www.w3.org/2000/svg" xmlns:xlink="http://www.w3.org/1999/xlink">
    <!-- Generator: Sketch 58 (84663) - https://sketch.com -->
    <title>pitch-illustration-3</title>
    <desc>Created with Sketch.</desc>
    <defs>
        <linearGradient x1="-6.23138374e-05%" y1="50.0001575%" x2="100.000106%" y2="50.0001575%" id="linearGradient-1">
            <stop stop-color="#808080" stop-opacity="0.25" offset="0%"></stop>
            <stop stop-color="#808080" stop-opacity="0.12" offset="53.514%"></stop>
            <stop stop-color="#808080" stop-opacity="0.1" offset="100%"></stop>
        </linearGradient>
    </defs>
    <g id="Landing-Page" stroke="none" stroke-width="1" fill="none" fill-rule="evenodd">
        <g id="Home" transform="translate(-52.000000, -1870.000000)" fill-rule="nonzero">
            <g id="pitch-illustration-3" transform="translate(52.000000, 1870.000000)">
                <path d="M188.5,5.01453488 L71,77.3727373 C71,77.3727373 71,226.611536 188.5,308.014535 C306,226.611558 306,77.3727373 306,77.3727373 L188.5,5.01453488 Z" id="Path" fill="#3F3D56"></path>
                <path d="M189.016806,5.01453488 L187,6.25143064 L187,306.603037 C187.669747,307.074949 188.339285,307.547074 189.016806,308.014535 C307,226.611552 307,77.3727207 307,77.3727207 L189.016806,5.01453488 Z" id="Path" fill="#6C63FF" opacity="0.04"></path>
                <g id="Group" opacity="0.7" transform="translate(151.000000, 131.014535)" fill="url(#linearGradient-1)">
                    <polygon id="Path" points="9.55197531 19.6963852 31.5211728 40.0649333 58.7554938 0.327777778 69.7403086 9.58640741 31.5211728 58.5821926 0.397962963 23.399837"></polygon>
                </g>
                <polygon id="Path" fill="#3AD29F" points="165.500109 152.814708 183.499935 169.157269 208.999869 132.014535 218 139.443168 183.499935 184.014535 158 155.786161"></polygon>
                <path d="M72.5088681,21.0652037 C71.7414241,20.7309661 71.3465288,19.8744366 71.5907421,19.0737849 C71.609831,19.0144902 71.621857,18.9531502 71.6265707,18.8910372 L71.6265707,18.8910372 C71.6487209,18.5271863 71.4298099,18.1918122 71.0878122,18.0656532 C70.7458146,17.9394941 70.3615509,18.0523638 70.1421068,18.3434351 L70.1421068,18.3434351 C70.1053549,18.3937301 70.0746653,18.4481856 70.0506744,18.5056723 C69.7164347,19.2731137 68.859906,19.6680091 68.059252,19.4238011 C67.9999573,19.4047108 67.9386172,19.3926833 67.8765039,19.3879681 L67.8765039,19.3879681 C67.5126524,19.365818 67.1772777,19.5847286 67.0511184,19.9267256 C66.9249591,20.2687226 67.037829,20.6529856 67.3289009,20.8724294 L67.3289009,20.8724294 C67.3791949,20.9091828 67.4336507,20.9398725 67.4911383,20.9638615 C68.2585824,21.2980992 68.6534777,22.1546287 68.4092643,22.9552803 C68.3901756,23.0145767 68.3781496,23.0759181 68.3734358,23.1380326 L68.3734358,23.1380326 C68.3512856,23.5018834 68.5701966,23.8372575 68.9121942,23.9634166 C69.2541919,24.0895757 69.6384556,23.9767059 69.8578997,23.6856346 L69.8578997,23.6856346 C69.8946507,23.635339 69.9253402,23.5808837 69.9493321,23.5233975 C70.2835687,22.755953 71.1401002,22.3610563 71.9407545,22.6052686 C72.0000493,22.6243574 72.0613894,22.6363834 72.1235026,22.6410971 L72.1235026,22.6410971 C72.4873516,22.6632442 72.8227226,22.4443344 72.9488814,22.10234 C73.0750401,21.7603457 72.9621732,21.3760854 72.6711056,21.1566404 L72.6711056,21.1566404 C72.6208108,21.119887 72.5663552,21.089196 72.5088681,21.0652037 L72.5088681,21.0652037 Z" id="Path" fill="#4D8AF0" opacity="0.5"></path>
                <path d="M8.50886815,163.065204 C7.74142409,162.730966 7.34652876,161.874437 7.59074214,161.073785 C7.60983097,161.01449 7.62185696,160.95315 7.62657071,160.891037 L7.62657071,160.891037 C7.64872086,160.527186 7.42980987,160.191812 7.08781224,160.065653 C6.74581462,159.939494 6.3615509,160.052364 6.14210676,160.343435 L6.14210676,160.343435 C6.10535487,160.39373 6.07466529,160.448186 6.05067442,160.505672 C5.71643468,161.273114 4.85990601,161.668009 4.059252,161.423801 C3.99995732,161.404711 3.93861725,161.392683 3.8765039,161.387968 L3.8765039,161.387968 C3.5126524,161.365818 3.17727768,161.584729 3.05111837,161.926726 C2.92495906,162.268723 3.03782901,162.652986 3.32890085,162.872429 L3.32890085,162.872429 C3.37919489,162.909183 3.43365065,162.939872 3.49113833,162.963862 C4.25858238,163.298099 4.65347771,164.154629 4.40926433,164.95528 C4.39017561,165.014577 4.37814962,165.075918 4.37343577,165.138033 L4.37343577,165.138033 C4.35128561,165.501883 4.57019661,165.837258 4.91219423,165.963417 C5.25419185,166.089576 5.63845557,165.976706 5.85789971,165.685635 L5.85789971,165.685635 C5.89465066,165.635339 5.92534017,165.580884 5.94933205,165.523397 C6.28356869,164.755953 7.14010017,164.361056 7.94075447,164.605269 C8.00004934,164.624357 8.06138941,164.636383 8.12350257,164.641097 L8.12350257,164.641097 C8.48735155,164.663244 8.82272264,164.444334 8.94888135,164.10234 C9.07504006,163.760346 8.96217316,163.376085 8.67110562,163.15664 L8.67110562,163.15664 C8.62081076,163.119887 8.56635519,163.089196 8.50886815,163.065204 L8.50886815,163.065204 Z" id="Path" fill="#4D8AF0" opacity="0.5"></path>
                <circle id="Oval" fill="#F55F44" opacity="0.5" cx="326.5" cy="110.514535" r="2.5"></circle>
                <circle id="Oval" fill="#F55F44" opacity="0.5" cx="52.5" cy="297.514535" r="2.5"></circle>
                <circle id="Oval" fill="#F55F44" opacity="0.5" cx="371.5" cy="211.514535" r="2.5"></circle>
                <path d="M307.508868,33.0652037 C306.741424,32.7309661 306.346529,31.8744366 306.590742,31.0737849 C306.609831,31.0144902 306.621857,30.9531502 306.626571,30.8910372 L306.626571,30.8910372 C306.648721,30.5271863 306.42981,30.1918122 306.087812,30.0656532 C305.745815,29.9394941 305.361551,30.0523638 305.142107,30.3434351 L305.142107,30.3434351 C305.105355,30.3937301 305.074665,30.4481856 305.050674,30.5056723 C304.716435,31.2731137 303.859906,31.6680091 303.059252,31.4238011 C302.999957,31.4047108 302.938617,31.3926833 302.876504,31.3879681 L302.876504,31.3879681 C302.512652,31.365818 302.177278,31.5847286 302.051118,31.9267256 C301.924959,32.2687226 302.037829,32.6529856 302.328901,32.8724294 L302.328901,32.8724294 C302.379195,32.9091828 302.433651,32.9398725 302.491138,32.9638615 C303.258582,33.2980992 303.653478,34.1546287 303.409264,34.9552803 C303.390176,35.0145767 303.37815,35.0759181 303.373436,35.1380326 L303.373436,35.1380326 C303.351286,35.5018834 303.570197,35.8372575 303.912194,35.9634166 C304.254192,36.0895757 304.638456,35.9767059 304.8579,35.6856346 L304.8579,35.6856346 C304.894651,35.635339 304.92534,35.5808837 304.949332,35.5233975 C305.283569,34.755953 306.1401,34.3610563 306.940754,34.6052686 C307.000049,34.6243574 307.061389,34.6363834 307.123503,34.6410971 L307.123503,34.6410971 C307.487352,34.6632442 307.822723,34.4443344 307.948881,34.10234 C308.07504,33.7603457 307.962173,33.3760854 307.671106,33.1566404 L307.671106,33.1566404 C307.620811,33.119887 307.566355,33.089196 307.508868,33.0652037 L307.508868,33.0652037 Z" id="Path" fill="#4D8AF0" opacity="0.5"></path>
                <path d="M350.508868,307.065204 C349.741424,306.730966 349.346529,305.874437 349.590742,305.073785 C349.609831,305.01449 349.621857,304.95315 349.626571,304.891037 L349.626571,304.891037 C349.648721,304.527186 349.42981,304.191812 349.087812,304.065653 C348.745815,303.939494 348.361551,304.052364 348.142107,304.343435 L348.142107,304.343435 C348.105355,304.39373 348.074665,304.448186 348.050674,304.505672 C347.716435,305.273114 346.859906,305.668009 346.059252,305.423801 C345.999957,305.404711 345.938617,305.392683 345.876504,305.387968 L345.876504,305.387968 C345.512652,305.365818 345.177278,305.584729 345.051118,305.926726 C344.924959,306.268723 345.037829,306.652986 345.328901,306.872429 L345.328901,306.872429 C345.379195,306.909183 345.433651,306.939872 345.491138,306.963862 C346.258582,307.298099 346.653478,308.154629 346.409264,308.95528 C346.390176,309.014577 346.37815,309.075918 346.373436,309.138033 L346.373436,309.138033 C346.351286,309.501883 346.570197,309.837258 346.912194,309.963417 C347.254192,310.089576 347.638456,309.976706 347.8579,309.685635 L347.8579,309.685635 C347.894651,309.635339 347.92534,309.580884 347.949332,309.523397 C348.283569,308.755953 349.1401,308.361056 349.940754,308.605269 C350.000049,308.624357 350.061389,308.636383 350.123503,308.641097 L350.123503,308.641097 C350.487352,308.663244 350.822723,308.444334 350.948881,308.10234 C351.07504,307.760346 350.962173,307.376085 350.671106,307.15664 L350.671106,307.15664 C350.620811,307.119887 350.566355,307.089196 350.508868,307.065204 Z" id="Path" fill="#4D8AF0" opacity="0.5"></path>
                <path d="M5.50886815,80.0652037 C4.74142409,79.7309661 4.34652876,78.8744366 4.59074214,78.0737849 C4.60983097,78.0144902 4.62185696,77.9531502 4.62657071,77.8910372 L4.62657071,77.8910372 C4.64872086,77.5271863 4.42980987,77.1918122 4.08781224,77.0656532 C3.74581462,76.9394941 3.3615509,77.0523638 3.14210676,77.3434351 L3.14210676,77.3434351 C3.10535487,77.3937301 3.07466529,77.4481856 3.05067442,77.5056723 C2.71643468,78.2731137 1.85990601,78.6680091 1.059252,78.4238011 C0.999957316,78.4047108 0.938617248,78.3926833 0.876503902,78.3879681 L0.876503902,78.3879681 C0.5126524,78.365818 0.177277677,78.5847286 0.0511183696,78.9267256 C-0.0750409373,79.2687226 0.0378290119,79.6529856 0.328900851,79.8724294 L0.328900851,79.8724294 C0.379194893,79.9091828 0.433650651,79.9398725 0.491138328,79.9638615 C1.25858238,80.2980992 1.65347771,81.1546287 1.40926433,81.9552803 C1.39017561,82.0145767 1.37814962,82.0759181 1.37343577,82.1380326 L1.37343577,82.1380326 C1.35128561,82.5018834 1.57019661,82.8372575 1.91219423,82.9634166 C2.25419185,83.0895757 2.63845557,82.9767059 2.85789971,82.6856346 L2.85789971,82.6856346 C2.89465066,82.635339 2.92534017,82.5808837 2.94933205,82.5233975 C3.28356869,81.755953 4.14010017,81.3610563 4.94075447,81.6052686 C5.00004934,81.6243574 5.06138941,81.6363834 5.12350257,81.6410971 L5.12350257,81.6410971 C5.48735155,81.6632442 5.82272264,81.4443344 5.94888135,81.10234 C6.07504006,80.7603457 5.96217316,80.3760854 5.67110562,80.1566404 L5.67110562,80.1566404 C5.62081076,80.119887 5.56635519,80.089196 5.50886815,80.0652037 L5.50886815,80.0652037 Z" id="Path" fill="#4D8AF0" opacity="0.5"></path>
                <circle id="Oval" fill="#47E6B1" opacity="0.5" cx="34.5" cy="123.514535" r="2.5"></circle>
                <circle id="Oval" fill="#47E6B1" opacity="0.5" cx="372.5" cy="144.514535" r="2.5"></circle>
                <g id="Group" opacity="0.5" transform="translate(251.000000, 0.014535)" fill="#47E6B1">
                    <rect id="Rectangle" x="3.28852" y="0" width="1.33333333" height="7"></rect>
                    <polygon id="Rectangle" transform="translate(3.955187, 3.500000) rotate(90.000000) translate(-3.955187, -3.500000) " points="3.33753961 -0.277777778 4.57283373 -0.277777778 4.57283373 7.27777778 3.33753961 7.27777778"></polygon>
                </g>
                <g id="Group" opacity="0.5" transform="translate(256.000000, 291.014535)" fill="#47E6B1">
                    <rect id="Rectangle" x="3.28852" y="0" width="1.33333333" height="7"></rect>
                    <polygon id="Rectangle" transform="translate(3.955187, 3.500000) rotate(90.000000) translate(-3.955187, -3.500000) " points="3.33753961 -0.277777778 4.57283373 -0.277777778 4.57283373 7.27777778 3.33753961 7.27777778"></polygon>
                </g>
                <g id="Group" opacity="0.5" transform="translate(8.000000, 306.014535)" fill="#47E6B1">
                    <rect id="Rectangle" x="3.28852" y="0" width="1.33333333" height="7"></rect>
                    <polygon id="Rectangle" transform="translate(3.955187, 3.500000) rotate(90.000000) translate(-3.955187, -3.500000) " points="3.33753961 -0.277777778 4.57283373 -0.277777778 4.57283373 7.27777778 3.33753961 7.27777778"></polygon>
                </g>
                <g id="Group" opacity="0.5" transform="translate(306.000000, 173.014535)" fill="#47E6B1">
                    <rect id="Rectangle" x="3.28852" y="0" width="1.33333333" height="7"></rect>
                    <polygon id="Rectangle" transform="translate(3.955187, 3.500000) rotate(90.000000) translate(-3.955187, -3.500000) " points="3.33753961 -0.277777778 4.57283373 -0.277777778 4.57283373 7.27777778 3.33753961 7.27777778"></polygon>
                </g>
                <polygon id="Path" fill="#47E6B1" opacity="0.5" points="347.125105 53.2147052 349.824937 55.728699 353.649874 50.0145349 355 51.1574528 349.824937 58.0145349 346 53.6718723"></polygon>
                <polygon id="Rectangle" fill="#6C63FF" transform="translate(262.112156, 110.799776) rotate(-2.220710) translate(-262.112156, -110.799776) " points="257.262914 104.562286 266.961607 104.562123 266.961397 117.037267 257.262705 117.03743"></polygon>
                <path d="M222.666705,147.296999 C222.666705,147.296999 208.780424,140.567633 209.002639,146.379322 C209.224854,152.191011 223,156.014535 223,156.014535 L222.666705,147.296999 Z" id="Path" fill="#FFB9B9"></path>
                <path d="M230.229312,195.411039 C230.229312,195.411039 223.887994,210.877856 221.545028,222.038771 C219.202062,233.199686 215.633853,248.559341 220.22366,259.452354 C224.813466,270.345367 237.862714,302.360341 237.997134,305.814639 C238.131554,309.268938 236.879423,312.776815 239.652528,312.669653 C242.425633,312.562491 257.51642,307.827951 258.129046,305.728579 C258.741672,303.629207 252.98038,298.316654 252.98038,298.316654 L238.753944,253.893 L253.597067,224.951573 L264.303357,268.127475 L266.40031,322.014535 C266.40031,322.014535 276.691925,318.849241 278.186012,321.559098 C278.186012,321.559098 282.796994,315.153829 283.382715,312.363599 C283.968435,309.573369 281.205108,256.403965 281.205108,256.403965 C281.205108,256.403965 290.65191,195.843738 283.025863,196.13843 C275.399815,196.433122 245.529461,178.214231 230.229312,195.411039 Z" id="Path" fill="#6C63FF"></path>
                <path d="M239.6839,309.833314 C239.6839,309.833314 232.704122,325.51385 232.042919,326.240156 C231.381716,326.966462 226.833345,334.148207 230.272716,334.01264 C233.712087,333.877073 241.833206,330.055738 247.810678,324.218158 C253.788149,318.380577 261.669197,308.266487 260.954668,307.594407 C260.240139,306.922326 255.344977,305.014535 255.344977,305.014535 L239.6839,309.833314 Z" id="Path" fill="#575A89"></path>
                <path d="M267.484785,318.27882 C267.484785,318.27882 267.052168,325.277737 265.748496,328.120561 C264.444823,330.963386 264.609235,335.146517 268.142439,335.011339 C271.675642,334.876161 280.807168,333.130318 280.807168,333.130318 C280.807168,333.130318 281.349395,328.920156 280.615354,328.25 C279.881314,327.579844 276.753322,320.018923 278.084396,317.873286 C279.415469,315.727648 267.484785,318.27882 267.484785,318.27882 Z" id="Path" fill="#575A89"></path>
                <path d="M273.084113,93.0145349 C273.084113,93.0145349 280.491686,104.686433 283.379256,107.387887 C286.266826,110.089341 278.143089,116.037153 278.143089,116.037153 L263.603156,118.014535 C263.603156,118.014535 263.786073,104.637718 263.037231,103.259744 C262.288388,101.88177 273.084113,93.0145349 273.084113,93.0145349 Z" id="Path" fill="#FFB9B9"></path>
                <path d="M260.537749,108.185794 C260.537749,108.185794 263.549243,113.621896 266.34399,113.51441 C269.138737,113.406924 283.594395,107.299041 284.211819,105.193326 C284.829242,103.087611 289,120.276964 289,120.276964 L253.628063,182.014535 L245,176.10045 L249.180616,139.852154 L252.614109,120.288369 L260.537749,108.185794 Z" id="Path" fill="#6C63FF"></path>
                <path d="M284.630446,162.686167 C283.235275,165.617181 282.363902,168.673689 282.484728,171.802757 C282.490085,171.941528 282.495442,172.080272 282.507714,172.218754 C282.838695,178.640169 285.194228,186.066702 286.039308,191.467511 C286.652504,195.34172 286.477999,198.169596 284.220406,198.834254 C278.74711,200.437098 285.018426,201.582568 263.842899,208.660853 C242.667373,215.739138 238.971953,209.629413 238.918374,208.241802 C238.864796,206.854191 241.917235,196.312597 241.199588,195.64571 C240.481941,194.978823 231.158176,204.374956 228.341157,203.094947 C225.524139,201.814937 228.019676,194.769285 228.019676,194.769285 C228.019676,194.769285 234.365677,179.930353 234.231726,176.46131 C234.097775,172.992267 243.844491,156.631201 243.844491,156.631201 L250.473821,113.292416 C250.473821,113.292416 253.022937,107.634358 256.450446,106.80601 C259.877954,105.977663 262.721753,107.951467 262.721753,107.951467 L256.986216,120.682129 L250.934907,143.152924 L251.94725,151.451696 C251.94725,151.451696 258.984109,136.585838 263.605807,130.847064 C268.227506,125.108291 278.081379,111.52243 278.081379,111.52243 C278.081379,111.52243 280.381914,103.726951 278.645235,101.397347 C276.908295,99.0608428 285.889468,98.7110873 289.71883,108.289833 C291.748408,113.366558 295.043549,120.937167 297.107763,127.985922 C298.94717,134.230436 299.816045,140.068066 297.993727,143.404837 C295.208511,148.502321 288.20228,155.202514 284.630446,162.686167 Z" id="Path" fill="#575A89"></path>
                <path d="M298.002583,143.957981 C295.241846,148.996034 288.297283,155.618121 284.75688,163.014535 C283.83217,159.678487 282.704068,156.226766 282.704068,156.226766 C282.704068,156.226766 278.377319,133.045332 291.175694,127.054368 C293.296309,126.849048 295.417223,127.442476 297.124407,128.718807 C298.947635,134.890527 299.808864,140.660115 298.002583,143.957981 Z" id="Path" fill="#000000" opacity="0.1"></path>
                <path d="M247.921608,142.014535 L236.891063,145.242783 L221.575575,145.838848 L220,159.195166 L245.169666,161.014535 C245.169666,161.014535 251.45637,143.27644 247.921608,142.014535 Z" id="Path" fill="#575A89"></path>
                <path d="M264.93018,187.014535 C264.93018,187.014535 250.121692,189.516979 253.501573,194.055912 C256.881455,198.594844 270,193.822929 270,193.822929 L264.93018,187.014535 Z" id="Path" fill="#FFB9B9"></path>
                <path d="M282.478647,172.014535 C282.808668,178.407992 285.157371,185.80219 286,191.179484 C281.348381,195.594324 276.924974,199.488347 275.257954,199.553172 C271.813672,199.687109 266.276111,199.210622 264.236255,199.981773 C262.196398,200.752923 261,187.654807 261,187.654807 C261,187.654807 262.217439,183.456508 267.64814,181.169869 C271.313765,179.622903 278.340195,175.427045 282.478647,172.014535 Z" id="Path" fill="#000000" opacity="0.1"></path>
                <path d="M290.976029,122.061273 C290.976029,122.061273 302.603598,120.218432 301.975435,139.676135 C301.347272,159.133838 303.201096,171.554057 298.524555,175.207174 C293.848014,178.86029 278.657337,195.417328 275.221791,195.551694 C271.786246,195.68606 266.262725,195.20805 264.228042,195.981668 C262.19336,196.755286 261,183.615185 261,183.615185 C261,183.615185 262.214351,179.403446 267.631287,177.109469 C273.048223,174.815491 285.810207,166.681908 285.703631,163.909904 C285.597055,161.137899 282.475584,151.543425 282.475584,151.543425 C282.475584,151.543425 278.134114,128.115852 290.976029,122.061273 Z" id="Path" fill="#575A89"></path>
                <circle id="Oval" fill="#FFB9B9" cx="262.5" cy="94.5145349" r="15.5"></circle>
                <path d="M252.161872,73.0679946 C251.792024,73.3821961 251.34912,73.6013499 250.872593,73.7059443 C250.374602,73.7934772 249.898349,73.4681934 249.80641,72.9777346 C249.455585,73.6951127 249.059766,74.4596843 248.343495,74.8277839 C247.627224,75.1958836 246.519653,74.8872233 246.416407,74.0973292 C246.311828,74.697077 246.042734,75.2571537 245.6383,75.7168361 C245.193891,76.1346294 244.387987,76.2400769 244,75.7708295 C244.313675,77.4610745 244.12007,79.1993176 244.218577,80.9148809 C244.317084,82.6304443 244.781042,84.4491929 246.095568,85.5772919 C248.012658,87.2225021 250.895489,86.8164618 253.417265,86.5047649 C253.798617,86.4258577 254.194307,86.447202 254.564653,86.566657 C255.508885,86.9633235 255.46605,88.2593461 255.478781,89.2712654 C255.637821,92.9376337 258.459164,95.9545548 262.152473,96.4075866 C263.153414,96.5599219 264.174743,96.3141451 264.991974,95.7242776 C265.707969,95.1258821 266.073701,94.1505885 266.894138,93.7010489 C268.228714,92.9698328 269.847303,94.03623 270.823052,95.194094 C271.7988,96.3519581 272.760466,97.7762506 274.272038,97.9882011 C276.271183,98.2685064 277.793823,96.259652 278.540856,94.4099098 C280.623037,89.1722794 280.471422,83.3274449 278.120413,78.2016168 C273.946149,69.2296552 259.68676,67.8105622 252.161872,73.0679946 Z" id="Path" fill="#2F2E41"></path>
            </g>
        </g>
    </g>
</svg>